<?xml version="1.0" standalone="no"?>
<!DOCTYPE svg PUBLIC "-//W3C//DTD SVG 1.1//EN" "http://www.w3.org/Graphics/SVG/1.1/DTD/svg11.dtd" >
<svg xmlns="http://www.w3.org/2000/svg" xmlns:xlink="http://www.w3.org/1999/xlink" version="1.1">
<metadata>
Created by FontForge 20170731 at Wed Aug  4 13:29:00 2021
 By Aleksey,,,
Copyright (c) 2012 Linotype GmbH, www.linotype.com. All rights reserved. This font software may not be reproduced, modified, disclosed or transferred without the express written approval of Linotype GmbH. SST is a trademark of Linotype GmbH and may be registered in certain jurisdictions. This typeface is original artwork of Akira Kobayashi. The design may be protected in certain jurisdictions.
</metadata>
<defs>
<font id="SSTPro-Condensed" horiz-adv-x="624" >
  <font-face 
    font-family="SST Pro Condensed"
    font-weight="400"
    font-stretch="condensed"
    units-per-em="2048"
    panose-1="2 11 5 6 3 5 4 2 2 4"
    ascent="1577"
    descent="-471"
    x-height="1081"
    cap-height="1462"
    bbox="-291 -438 1806 1942"
    underline-thickness="102"
    underline-position="-307"
    unicode-range="U+000D-FB04"
  />
<missing-glyph horiz-adv-x="1048" 
d="M569 240h-114v137h114v-137zM555 479h-94l-4 35q0 115 26 166q28 54 95 121q63 60 82.5 94.5t19.5 75.5q0 73 -46 123.5t-110 50.5q-67 0 -112 -47.5t-56 -147.5l-102 17q13 141 87 210.5t189 69.5q110 0 182 -74t72 -194q0 -69 -27 -123t-102 -123q-77 -68 -88 -106
q-12 -41 -12 -148zM102 102h844v1264h-844v-1264zM0 1470h1049v-1470h-1049v1470z" />
    <glyph glyph-name="IJ" unicode="IJ" horiz-adv-x="1079" 
d="M150 0v1462h163v-1462h-163zM948 1462v-1132q0 -164 -86.5 -259.5t-255.5 -95.5q-80 0 -139 15v149q52 -14 119 -14q103 0 150.5 51.5t47.5 153.5v1132h164z" />
    <glyph glyph-name="ij" unicode="ij" horiz-adv-x="888" 
d="M141 1081h160v-1081h-160v1081zM137 1489h170v-180h-170v180zM745 1081v-1171q0 -309 -280 -309q-57 0 -109 6v137q46 -6 86 -6q84 0 114 45.5t30 144.5v1153h159zM582 1489h170v-180h-170v180z" />
    <glyph glyph-name="napostrophe" unicode="&#x22;n" horiz-adv-x="1011" 
d="M141 1081h156v-139h4q72 164 264 164q152 0 234 -105.5t82 -287.5v-713h-160v647q0 162 -41.5 242t-151.5 80q-97 0 -162 -89.5t-65 -267.5v-612h-160v1081zM236 1573l-66 -336h-100l18 336h148z" />
    <glyph glyph-name="f_f" unicode="ff" horiz-adv-x="1087" 
d="M1133 1491l-11 -135q-44 12 -90 12q-87 0 -119 -49t-32 -168v-70h184v-137h-184v-944h-156v944h-363v-944h-155v944h-178v137h178v93q0 152 69.5 241.5t217.5 89.5q69 0 120 -14l-10 -135q-44 12 -90 12q-87 0 -119.5 -49t-32.5 -168v-70h363v93q0 152 69.5 241.5
t217.5 89.5q70 0 121 -14z" />
    <glyph glyph-name="fi" unicode="fi" horiz-adv-x="1009" 
d="M852 1481l-10 -135q-113 22 -234 22q-130 0 -188 -52.5t-58 -164.5v-70h506v-1081h-159v944h-347v-944h-155v944h-178v137h178v72q0 162 101.5 257t299.5 95q127 0 244 -24z" />
    <glyph glyph-name="fl" unicode="fl" horiz-adv-x="1009" 
d="M868 1477v-1477h-159v1362q-55 6 -107 6q-129 0 -184.5 -52t-55.5 -165v-70h185v-137h-185v-944h-155v944h-178v137h178v72q0 167 100.5 259.5t300.5 92.5q124 0 260 -28z" />
    <glyph glyph-name="f_f_i" unicode="ffi" horiz-adv-x="1527" 
d="M1370 1481l-10 -135q-113 22 -234 22q-130 0 -187.5 -52.5t-57.5 -164.5v-70h505v-1081h-159v944h-346v-944h-156v944h-363v-944h-155v944h-178v137h178v93q0 152 69.5 241.5t217.5 89.5q69 0 120 -14l-10 -135q-44 12 -90 12q-87 0 -119.5 -49t-32.5 -168v-70h363v72
q0 162 101.5 257t299.5 95q127 0 244 -24z" />
    <glyph glyph-name="f_f_l" unicode="ffl" horiz-adv-x="1527" 
d="M1386 1477v-1477h-159v1362q-55 6 -107 6q-129 0 -184 -52t-55 -165v-70h184v-137h-184v-944h-156v944h-363v-944h-155v944h-178v137h178v93q0 152 69.5 241.5t217.5 89.5q69 0 120 -14l-10 -135q-44 12 -90 12q-87 0 -119.5 -49t-32.5 -168v-70h363v72q0 163 99 257.5
t296 94.5q130 0 266 -28z" />
    <glyph glyph-name=".notdef" horiz-adv-x="1048" 
d="M569 240h-114v137h114v-137zM555 479h-94l-4 35q0 115 26 166q28 54 95 121q63 60 82.5 94.5t19.5 75.5q0 73 -46 123.5t-110 50.5q-67 0 -112 -47.5t-56 -147.5l-102 17q13 141 87 210.5t189 69.5q110 0 182 -74t72 -194q0 -69 -27 -123t-102 -123q-77 -68 -88 -106
q-12 -41 -12 -148zM102 102h844v1264h-844v-1264zM0 1470h1049v-1470h-1049v1470z" />
    <glyph glyph-name=".null" horiz-adv-x="0" 
 />
    <glyph glyph-name="nonmarkingreturn" horiz-adv-x="682" 
 />
    <glyph glyph-name="CR" unicode="&#xd;" horiz-adv-x="0" 
 />
    <glyph glyph-name="space" unicode=" " horiz-adv-x="409" 
 />
    <glyph glyph-name="exclam" unicode="!" horiz-adv-x="522" 
d="M354 1462l-28 -1054h-129l-29 1054h186zM172 0v199h178v-199h-178z" />
    <glyph glyph-name="quotedbl" unicode="&#x22;" horiz-adv-x="653" 
d="M154 1049l-31 456h164l-31 -456h-102zM397 1049l-30 456h163l-30 -456h-103z" />
    <glyph glyph-name="numbersign" unicode="#" horiz-adv-x="925" 
d="M823 442h-159l-50 -442h-120l49 442h-207l-49 -442h-121l49 442h-154v123h166l37 336h-162v123h177l49 438h121l-50 -438h207l49 438h121l-49 -438h137v-123h-151l-37 -336h147v-123zM385 901l-37 -336h207l37 336h-207z" />
    <glyph glyph-name="dollar" unicode="$" horiz-adv-x="927" 
d="M406 -160v178q-157 3 -293 66l32 133q137 -60 261 -63v532q-143 78 -215 169.5t-72 219.5q0 149 80.5 236t206.5 114v179h114v-166q133 -3 240 -49l-35 -129q-106 40 -205 43v-506q147 -75 221 -170.5t74 -227.5q0 -158 -83 -251.5t-212 -120.5v-187h-114zM666 389
q0 75 -36.5 129.5t-109.5 102.5v-453q69 25 107.5 81.5t38.5 139.5zM268 1087q0 -73 31.5 -126.5t106.5 -102.5v426q-62 -22 -100 -71t-38 -126z" />
    <glyph glyph-name="percent" unicode="%" horiz-adv-x="1339" 
d="M1092 1462l-734 -1462h-114l737 1462h111zM1239 381q0 -179 -62.5 -280t-179.5 -101t-179 100.5t-62 280.5q0 181 62 282t179 101t179.5 -101t62.5 -282zM1118 381q0 118 -30 192t-91 74t-90.5 -73.5t-29.5 -192.5q0 -116 29.5 -190t90.5 -74t91 74t30 190zM584 1081
q0 -179 -62.5 -280t-179.5 -101t-179.5 101t-62.5 280q0 181 62.5 282t179.5 101t179.5 -101t62.5 -282zM463 1081q0 119 -30 193t-91 74t-91 -74t-30 -193q0 -116 30 -190t91 -74t91 74t30 190z" />
    <glyph glyph-name="ampersand" unicode="&#x26;" horiz-adv-x="1187" 
d="M698 1167q0 87 -38.5 137t-108.5 50q-73 0 -112.5 -55t-39.5 -144q0 -132 109 -270q89 50 139.5 115.5t50.5 166.5zM741 303l-290 408q-90 -56 -130 -131t-40 -189q0 -121 59.5 -199.5t155.5 -78.5q85 0 143.5 47.5t101.5 142.5zM920 328l235 -328h-197l-122 174
q-64 -104 -143 -151.5t-206 -47.5q-170 0 -268 111t-98 293q0 296 254 442q-125 157 -125 340q0 149 83 237.5t218 88.5q141 0 220 -82t79 -240q0 -131 -74 -227.5t-190 -157.5l235 -327q60 143 117 323h166q-80 -223 -184 -448z" />
    <glyph glyph-name="quotesingle" unicode="'" horiz-adv-x="409" 
d="M154 1049l-31 456h164l-31 -456h-102z" />
    <glyph glyph-name="parenleft" unicode="(" horiz-adv-x="534" 
d="M209 618q0 -274 55.5 -539.5t161.5 -477.5h-139q-101 198 -159 461t-58 556q0 291 58 552.5t159 461.5h139q-106 -212 -161.5 -477t-55.5 -537z" />
    <glyph glyph-name="parenright" unicode=")" horiz-adv-x="534" 
d="M326 618q0 272 -55.5 537t-161.5 477h139q101 -200 159 -461.5t58 -552.5q0 -293 -58 -556t-159 -461h-139q106 212 161.5 477.5t55.5 539.5z" />
    <glyph glyph-name="asterisk" unicode="*" horiz-adv-x="845" 
d="M479 1462v-272l269 86l38 -107l-268 -86l172 -241l-92 -70l-176 248l-174 -248l-92 70l172 241l-269 86l39 107l269 -86v272h112z" />
    <glyph glyph-name="plus" unicode="+" horiz-adv-x="892" 
d="M381 1024h133v-315h305v-127h-305v-324h-133v324h-307v127h307v315z" />
    <glyph glyph-name="comma" unicode="," horiz-adv-x="477" 
d="M100 -289l70 488h174l-135 -488h-109z" />
    <glyph glyph-name="hyphen" unicode="-" horiz-adv-x="675" 
d="M131 545v141h412v-141h-412z" />
    <glyph glyph-name="period" unicode="." horiz-adv-x="477" 
d="M145 0v207h187v-207h-187z" />
    <glyph glyph-name="slash" unicode="/" horiz-adv-x="827" 
d="M66 0l559 1462h137l-559 -1462h-137z" />
    <glyph glyph-name="zero" unicode="0" horiz-adv-x="1036" 
d="M520 1487q143 0 241 -96.5t143.5 -264.5t45.5 -401q0 -231 -45.5 -397t-143 -259.5t-241.5 -93.5q-146 0 -245 93.5t-145 259t-46 397.5q0 233 46 401t145 264.5t245 96.5zM520 1339q-138 0 -205 -162.5t-67 -451.5q0 -286 67 -444t205 -158q134 0 200 158.5t66 443.5
q0 189 -27.5 324.5t-88 212.5t-150.5 77z" />
    <glyph glyph-name="one" unicode="1" horiz-adv-x="696" 
d="M489 1462v-1462h-163v1292l-240 -151l-63 123l301 198h165z" />
    <glyph glyph-name="two" unicode="2" horiz-adv-x="903" 
d="M809 147v-147h-735v147q233 275 355 448t164 278.5t42 211.5q0 112 -58.5 183t-162.5 71q-133 0 -248 -94l-64 129q61 54 146.5 83.5t169.5 29.5q94 0 168 -31.5t120 -86t69.5 -125.5t23.5 -154q0 -80 -17 -152.5t-50 -147.5t-100 -173.5t-148.5 -204t-213.5 -265.5h539z
" />
    <glyph glyph-name="three" unicode="3" horiz-adv-x="905" 
d="M217 678v149h102q136 0 214.5 65.5t78.5 207.5q0 117 -67 178t-185 61q-126 0 -235 -59l-45 139q133 68 289 68q190 0 299.5 -101.5t109.5 -271.5q0 -136 -61.5 -226.5t-173.5 -127.5v-4q126 -23 196 -114.5t70 -229.5q0 -103 -35.5 -187t-97 -138t-143 -83t-175.5 -29
q-170 0 -305 66l43 143q132 -61 262 -61q127 0 207 72t80 213q0 270 -326 270h-102z" />
    <glyph glyph-name="four" unicode="4" horiz-adv-x="987" 
d="M770 1462v-962h148v-150h-148v-350h-160v350h-561v182l471 930h250zM610 500v817h-4l-416 -817h420z" />
    <glyph glyph-name="five" unicode="5" horiz-adv-x="929" 
d="M662 449q0 85 -23.5 146.5t-67 96t-97 50.5t-120.5 16q-93 0 -219 -27l25 731h596v-147h-451l-18 -420q66 10 112 10q189 0 307.5 -114t118.5 -332q0 -234 -121.5 -359t-314.5 -125q-170 0 -301 64l41 145q122 -61 256 -61q126 0 201.5 81.5t75.5 244.5z" />
    <glyph glyph-name="six" unicode="6" horiz-adv-x="985" 
d="M270 506q0 -73 13 -138.5t40.5 -121.5t76 -89.5t112.5 -33.5q110 0 169.5 95.5t59.5 256.5q0 98 -20 170.5t-70 119t-127 46.5q-115 0 -184.5 -89.5t-69.5 -215.5zM262 791h4q40 79 112 123t161 44q174 0 270 -133.5t96 -349.5q0 -221 -105.5 -360.5t-283.5 -139.5
q-101 0 -177 43t-120 109t-71.5 159.5t-36.5 179t-9 183.5q0 146 16.5 269.5t53.5 230t93 180.5t139.5 116t189.5 42q110 0 194 -33l-32 -141q-70 26 -160 26q-74 0 -131 -31t-92.5 -81.5t-60 -124t-35 -147.5t-15.5 -164z" />
    <glyph glyph-name="seven" unicode="7" horiz-adv-x="843" 
d="M55 1315v147h748v-147q-169 -309 -267.5 -657t-121.5 -658h-162q24 305 127 667t254 648h-578z" />
    <glyph glyph-name="eight" unicode="8" horiz-adv-x="987" 
d="M494 684q-47 0 -91 -17t-81 -50t-59.5 -89.5t-22.5 -128.5q0 -137 67 -206.5t187 -69.5t187 69.5t67 206.5q0 72 -22.5 128.5t-59.5 89.5t-81 50t-91 17zM489 1487q74 0 142 -25t122.5 -72t86.5 -123t32 -169q0 -130 -53 -213t-145 -117v-4q235 -102 235 -379
q0 -100 -32 -178.5t-88.5 -129t-131.5 -76.5t-163 -26q-184 0 -300 106.5t-116 303.5q0 78 20.5 143.5t56 109.5t74.5 72.5t84 45.5v4q-87 37 -143.5 124t-56.5 214q0 94 31 169.5t84 122.5t120 72t141 25zM492 827q99 0 160 68t61 203q0 110 -58.5 175.5t-165.5 65.5
q-101 0 -159 -66t-58 -175q0 -135 60.5 -203t159.5 -68z" />
    <glyph glyph-name="nine" unicode="9" horiz-adv-x="985" 
d="M715 956q0 73 -13 138.5t-40.5 121.5t-76 89.5t-112.5 33.5q-110 0 -169.5 -95.5t-59.5 -256.5q0 -98 20 -170.5t70 -119t127 -46.5q115 0 184.5 89.5t69.5 215.5zM723 672h-4q-84 -168 -273 -168q-174 0 -270 133.5t-96 349.5q0 221 105.5 360.5t283.5 139.5
q101 0 177 -43t120 -109t71.5 -159.5t36.5 -179t9 -183.5q0 -147 -16 -270t-53 -229.5t-93 -180.5t-140 -116t-190 -42q-115 0 -213 37l29 144q87 -33 182 -33q309 0 334 549z" />
    <glyph glyph-name="colon" unicode=":" horiz-adv-x="571" 
d="M193 0v207h186v-207h-186zM193 877v204h186v-204h-186z" />
    <glyph glyph-name="semicolon" unicode=";" horiz-adv-x="571" 
d="M133 -289l70 488h174l-135 -488h-109zM193 877v204h186v-204h-186z" />
    <glyph glyph-name="less" unicode="&#x3c;" horiz-adv-x="892" 
d="M819 205l-745 336v182l745 338v-135l-635 -289v-4l635 -293v-135z" />
    <glyph glyph-name="equal" unicode="=" horiz-adv-x="892" 
d="M819 764h-745v127h745v-127zM819 399h-745v127h745v-127z" />
    <glyph glyph-name="greater" unicode="&#x3e;" horiz-adv-x="892" 
d="M819 541l-745 -336v135l635 293v4l-635 289v135l745 -338v-182z" />
    <glyph glyph-name="question" unicode="?" horiz-adv-x="794" 
d="M418 424v-57h-152v69q0 136 32.5 221t115.5 164l53 51q111 105 111 248q0 112 -59.5 165.5t-151.5 53.5q-65 0 -114 -14.5t-116 -46.5l-55 135q140 74 299 74q73 0 136 -20t114 -61.5t80.5 -112.5t29.5 -165q0 -118 -48 -209.5t-148 -183.5q-84 -77 -105.5 -132.5
t-21.5 -178.5zM256 0v199h186v-199h-186z" />
    <glyph glyph-name="at" unicode="@" horiz-adv-x="1611" 
d="M825 918q-53 0 -94.5 -41.5t-65.5 -108t-36.5 -143t-12.5 -154.5q0 -47 6 -89.5t20 -84t41.5 -66t66.5 -24.5q60 0 107 44.5t72 114.5t37.5 142.5t12.5 140.5q0 52 -7.5 96.5t-24 85t-48 64t-74.5 23.5zM1245 -164l31 -139q-178 -76 -410 -76q-186 0 -329.5 68.5
t-234.5 193.5t-137 294t-46 376q0 268 90.5 480.5t256 333t378.5 120.5q305 0 480 -203t175 -592q0 -297 -100 -459.5t-260 -162.5q-87 0 -128.5 53t-41.5 133h-4q-22 -80 -81 -133t-151 -53q-72 0 -125 32t-84 90t-46 130.5t-15 160.5q0 109 24 210t68.5 182.5t115.5 130.5
t158 49q75 0 125 -44t70 -114h4l19 121h129l-74 -471q-21 -118 -21 -203q0 -28 2 -47t9 -42.5t24 -35.5t43 -12q88 0 142.5 135.5t54.5 331.5q0 320 -131.5 497t-382.5 177q-170 0 -301 -106.5t-200 -287.5t-69 -407q0 -241 68 -415t205 -269.5t334 -95.5q199 0 366 69z" />
    <glyph glyph-name="A" unicode="A" horiz-adv-x="1126" 
d="M313 438l-125 -438h-174l443 1462h213l442 -1462h-176l-129 438h-494zM559 1325l-211 -737h422l-207 737h-4z" />
    <glyph glyph-name="B" unicode="B" horiz-adv-x="1044" 
d="M150 0v1462h378q178 0 287 -96t109 -279q0 -127 -57 -211.5t-158 -115.5v-4q112 -27 179.5 -113t67.5 -233q0 -178 -113 -294t-308 -116h-385zM313 1313v-486h185q122 0 192 63.5t70 186.5q0 67 -22.5 115t-61 73.5t-81.5 36.5t-93 11h-189zM313 678v-528h213
q123 0 195 64t72 200q0 73 -23.5 125.5t-65.5 82t-93 43t-113 13.5h-185z" />
    <glyph glyph-name="C" unicode="C" horiz-adv-x="933" 
d="M842 143l16 -147q-86 -21 -178 -21q-191 0 -324 97t-196.5 264t-63.5 391q0 167 37 305t108.5 240t184 158.5t256.5 56.5q89 0 164 -21l-25 -147q-62 18 -137 18q-91 0 -163 -31t-120.5 -85.5t-80.5 -132.5t-46 -167.5t-14 -195.5q0 -101 13.5 -187t45.5 -163.5t81 -132
t124.5 -86t171.5 -31.5q72 0 146 18z" />
    <glyph glyph-name="D" unicode="D" horiz-adv-x="1173" 
d="M150 0v1462h344q277 0 430 -195t153 -536q0 -342 -153.5 -536.5t-429.5 -194.5h-344zM313 1313v-1163h158q220 0 331 151t111 430q0 277 -111 429.5t-331 152.5h-158z" />
    <glyph glyph-name="E" unicode="E" horiz-adv-x="917" 
d="M150 0v1462h653v-149h-490v-486h451v-149h-451v-528h502v-150h-665z" />
    <glyph glyph-name="F" unicode="F" horiz-adv-x="849" 
d="M150 0v1462h626v-149h-463v-486h437v-149h-437v-678h-163z" />
    <glyph glyph-name="G" unicode="G" horiz-adv-x="1185" 
d="M1010 1434l-39 -150q-112 53 -260 53q-92 0 -167 -30.5t-127.5 -84.5t-88 -131t-52 -168t-16.5 -196q0 -101 16.5 -190t51.5 -165t87 -130.5t126.5 -85.5t165.5 -31q102 0 178 29v485h-230v149h394v-733q-67 -36 -162 -58t-189 -22q-189 0 -326.5 97t-206.5 266t-69 391
t69 391.5t209.5 268t336.5 98.5q164 0 299 -53z" />
    <glyph glyph-name="H" unicode="H" horiz-adv-x="1169" 
d="M150 0v1462h163v-635h543v635h164v-1462h-164v678h-543v-678h-163z" />
    <glyph glyph-name="I" unicode="I" horiz-adv-x="462" 
d="M150 0v1462h163v-1462h-163z" />
    <glyph glyph-name="J" unicode="J" horiz-adv-x="657" 
d="M526 1462v-1132q0 -164 -86.5 -259.5t-255.5 -95.5q-80 0 -139 15v149q52 -14 119 -14q103 0 150.5 51.5t47.5 153.5v1132h164z" />
    <glyph glyph-name="K" unicode="K" horiz-adv-x="1003" 
d="M750 1462h200l-465 -698l506 -764h-203l-471 733h-4v-733h-163v1462h163v-684h4z" />
    <glyph glyph-name="L" unicode="L" horiz-adv-x="858" 
d="M150 0v1462h163v-1312h508v-150h-671z" />
    <glyph glyph-name="M" unicode="M" horiz-adv-x="1460" 
d="M412 1462l313 -1300h4l318 1300h264v-1462h-158v1286h-4l-315 -1286h-220l-305 1286h-4v-1286h-155v1462h262z" />
    <glyph glyph-name="N" unicode="N" horiz-adv-x="1179" 
d="M401 1462l471 -1274h5v1274h153v-1462h-246l-475 1284h-4v-1284h-155v1462h251z" />
    <glyph glyph-name="O" unicode="O" horiz-adv-x="1251" 
d="M1155 729q0 -166 -32.5 -303t-96.5 -238t-166 -157t-233 -56q-132 0 -234.5 56t-166.5 157t-97 238t-33 303q0 133 20.5 248t63 209t105 161t149.5 103.5t193 36.5q105 0 192 -36.5t149 -103.5t104 -161.5t62.5 -209t20.5 -247.5zM991 729q0 130 -19.5 236.5t-61.5 192
t-114 132.5t-169 47q-98 0 -170.5 -47t-114.5 -132.5t-62 -192t-20 -236.5q0 -129 20 -235t62 -190.5t114.5 -131.5t170.5 -47q97 0 169 47t114 131.5t61.5 190.5t19.5 235z" />
    <glyph glyph-name="P" unicode="P" horiz-adv-x="1017" 
d="M150 0v1462h393q65 0 121 -12t108 -42t88.5 -76t58 -118.5t21.5 -164.5q0 -116 -32.5 -203t-89 -137t-125 -73.5t-148.5 -23.5h-232v-612h-163zM313 1313v-551h207q55 0 98.5 12.5t80.5 42.5t57 87t20 138q0 82 -20 137.5t-59 83.5t-84 39t-107 11h-193z" />
    <glyph glyph-name="Q" unicode="Q" horiz-adv-x="1251" 
d="M1155 729q0 -234 -63.5 -408t-190.5 -262l201 -299h-187l-145 236q-64 -21 -143 -21q-132 0 -234.5 56t-166.5 157t-97 238t-33 303q0 133 20.5 248t63 209t105 161t149.5 103.5t193 36.5q105 0 192 -36.5t149 -103.5t104 -161.5t62.5 -209t20.5 -247.5zM991 729
q0 130 -19.5 236.5t-61.5 192t-114 132.5t-169 47q-98 0 -170.5 -47t-114.5 -132.5t-62 -192t-20 -236.5q0 -129 20 -235t62 -190.5t114.5 -131.5t170.5 -47q97 0 169 47t114 131.5t61.5 190.5t19.5 235z" />
    <glyph glyph-name="R" unicode="R" horiz-adv-x="1052" 
d="M150 0v1462h415q169 0 271 -96t102 -291q0 -126 -56.5 -216.5t-160.5 -123.5v-4q66 -20 103.5 -80.5t68.5 -193.5q50 -221 108 -457h-172q-14 61 -47.5 220t-44.5 206q-18 73 -33 111.5t-43 69t-69.5 40.5t-110.5 10h-168v-657h-163zM313 1313v-506h201q123 0 191.5 63.5
t68.5 194.5q0 74 -20.5 125.5t-57.5 77t-77 35.5t-91 10h-215z" />
    <glyph glyph-name="S" unicode="S" horiz-adv-x="921" 
d="M778 1438l-35 -150q-113 49 -235 49q-46 0 -88 -12t-79 -36.5t-59 -69t-22 -103.5q0 -97 52.5 -162.5t181.5 -130.5q87 -44 145.5 -84t106 -92t70 -117t22.5 -147q0 -104 -35.5 -184.5t-95.5 -128t-132.5 -71.5t-152.5 -24q-178 0 -332 68l37 152q155 -70 289 -70
q120 0 189 64t69 184q0 105 -62.5 170.5t-205.5 138.5q-155 79 -232.5 178t-77.5 242q0 80 25 146t66 109.5t95.5 73.5t111.5 43t116 13q149 0 268 -49z" />
    <glyph glyph-name="T" unicode="T" horiz-adv-x="921" 
d="M383 0v1313h-342v149h840v-149h-334v-1313h-164z" />
    <glyph glyph-name="U" unicode="U" horiz-adv-x="1138" 
d="M999 1462v-1030q0 -208 -109 -332.5t-323 -124.5q-212 0 -320 124.5t-108 332.5v1030h164v-1011q0 -165 61 -245.5t203 -80.5q269 0 269 326v1011h163z" />
    <glyph glyph-name="V" unicode="V" horiz-adv-x="1058" 
d="M428 0l-408 1462h175l333 -1300h4l334 1300h172l-409 -1462h-201z" />
    <glyph glyph-name="W" unicode="W" horiz-adv-x="1558" 
d="M993 0l-213 1286h-4l-213 -1286h-221l-264 1462h170l205 -1259h4l209 1259h227l211 -1259h4l207 1259h166l-267 -1462h-221z" />
    <glyph glyph-name="X" unicode="X" horiz-adv-x="1028" 
d="M991 1462l-373 -700l398 -762h-185l-317 627l-321 -627h-181l406 762l-363 700h178l287 -573l295 573h176z" />
    <glyph glyph-name="Y" unicode="Y" horiz-adv-x="1034" 
d="M436 0v596l-428 866h189l323 -696l324 696h182l-426 -866v-596h-164z" />
    <glyph glyph-name="Z" unicode="Z" horiz-adv-x="987" 
d="M86 150l623 1163h-572v149h756v-147l-627 -1165h647v-150h-827v150z" />
    <glyph glyph-name="bracketleft" unicode="[" horiz-adv-x="532" 
d="M399 1632v-112h-149v-1807h149v-112h-286v2031h286z" />
    <glyph glyph-name="backslash" unicode="\" horiz-adv-x="831" 
d="M207 1462l559 -1462h-141l-559 1462h141z" />
    <glyph glyph-name="bracketright" unicode="]" horiz-adv-x="532" 
d="M133 1520v112h287v-2031h-287v112h150v1807h-150z" />
    <glyph glyph-name="asciicircum" unicode="^" horiz-adv-x="892" 
d="M780 612h-149l-187 635h-2l-184 -635h-145l256 813h153z" />
    <glyph glyph-name="underscore" unicode="_" horiz-adv-x="761" 
d="M0 -190h762v-97h-762v97z" />
    <glyph glyph-name="grave" unicode="`" horiz-adv-x="782" 
d="M360 1237l-198 336h166l149 -336h-117z" />
    <glyph glyph-name="a" unicode="a" horiz-adv-x="919" 
d="M631 674v31q0 136 -48 200t-157 64q-107 0 -219 -49l-31 135q117 51 260 51q355 0 355 -387v-473q0 -147 16 -246h-143q-15 68 -21 162h-4q-75 -187 -258 -187q-60 0 -113 19.5t-96 57.5t-68.5 102t-25.5 147q0 90 30.5 157.5t79.5 108t123 65.5t150 33.5t170 8.5z
M631 549h-41q-77 0 -135.5 -10t-111.5 -35t-81.5 -74t-28.5 -121q0 -86 44.5 -141t119.5 -55q118 0 176 97.5t58 246.5v92z" />
    <glyph glyph-name="b" unicode="b" horiz-adv-x="1028" 
d="M297 150v-150h-156v1505h160v-585h4q34 89 107.5 137.5t158.5 48.5q116 0 201 -76t126.5 -202.5t41.5 -286.5t-43 -287t-129 -203t-203 -76q-89 0 -159 45.5t-105 129.5h-4zM780 541q0 121 -24 215t-78.5 153.5t-134.5 59.5t-137.5 -57.5t-85 -153t-27.5 -217.5
t27.5 -217.5t85 -153t137.5 -57.5t134.5 59.5t78.5 153.5t24 215z" />
    <glyph glyph-name="c" unicode="c" horiz-adv-x="741" 
d="M674 129l16 -135q-74 -19 -141 -19q-121 0 -211.5 42.5t-144 119.5t-79.5 177.5t-26 224.5q0 125 28 227.5t84 179t145 118.5t204 42q66 0 131 -14l-21 -138q-49 15 -108 15q-103 0 -172.5 -58.5t-100 -153t-30.5 -218.5q0 -91 17 -166.5t52.5 -134.5t95 -92t138.5 -33
q67 0 123 16z" />
    <glyph glyph-name="d" unicode="d" horiz-adv-x="1028" 
d="M727 934v571h160v-1505h-156v164h-4q-83 -189 -270 -189q-116 0 -201 77t-126.5 204t-41.5 287t43 286.5t129 201.5t203 75q95 0 157.5 -42t102.5 -130h4zM248 543q0 -121 24 -215.5t78.5 -154.5t134.5 -60t137.5 58t85 154t27.5 218q0 187 -65.5 306.5t-184.5 119.5
q-80 0 -134.5 -59t-78.5 -152.5t-24 -214.5z" />
    <glyph glyph-name="e" unicode="e" horiz-adv-x="942" 
d="M856 494h-606q16 -381 305 -381q110 0 193 34l22 -133q-104 -39 -223 -39q-114 0 -202.5 42.5t-144 119t-84 178.5t-28.5 224q0 251 108.5 409t295.5 158q126 0 208.5 -66.5t119 -182t36.5 -279.5v-84zM489 969q-75 0 -127.5 -46.5t-78.5 -119.5t-33 -172h448v8
q0 157 -53.5 243.5t-155.5 86.5z" />
    <glyph glyph-name="f" unicode="f" horiz-adv-x="569" 
d="M618 1491l-10 -135q-44 12 -90 12q-87 0 -119 -49t-32 -168v-70h184v-137h-184v-944h-160v944h-178v137h178v93q0 151 71.5 241t219.5 90q69 0 120 -14z" />
    <glyph glyph-name="g" unicode="g" horiz-adv-x="1028" 
d="M248 561q0 -88 12.5 -159.5t39.5 -129t74 -89t111 -31.5q119 0 184.5 115t65.5 294q0 180 -65.5 294t-184.5 114q-118 0 -177.5 -114t-59.5 -294zM731 70v127h-4q-40 -89 -111 -136t-155 -47q-118 0 -204 74t-127.5 196t-41.5 277q0 154 43.5 276.5t129.5 195.5t202 73
q86 0 156 -42.5t108 -127.5h4v145h156v-1020q0 -230 -113 -345t-317 -115q-154 0 -262 43l32 141q110 -47 230 -47q274 0 274 332z" />
    <glyph glyph-name="h" unicode="h" horiz-adv-x="1011" 
d="M141 1505h160v-563h4q85 164 256 164q152 0 236 -106t84 -287v-713h-160v647q0 162 -41.5 242t-151.5 80q-97 0 -162 -89.5t-65 -267.5v-612h-160v1505z" />
    <glyph glyph-name="i" unicode="i" horiz-adv-x="444" 
d="M141 1081h160v-1081h-160v1081zM137 1489h170v-180h-170v180z" />
    <glyph glyph-name="j" unicode="j" horiz-adv-x="444" 
d="M301 1081v-1171q0 -309 -281 -309q-56 0 -108 6v137q46 -6 86 -6q84 0 113.5 45t29.5 145v1153h160zM137 1489h170v-180h-170v180z" />
    <glyph glyph-name="k" unicode="k" horiz-adv-x="856" 
d="M639 1081h195l-371 -483l387 -598h-197l-348 567h-4v-567h-160v1505h160v-891h4z" />
    <glyph glyph-name="l" unicode="l" horiz-adv-x="442" 
d="M141 1505h160v-1505h-160v1505z" />
    <glyph glyph-name="m" unicode="m" horiz-adv-x="1527" 
d="M141 1081h156v-139h4q73 164 252 164q192 0 260 -164h4q94 164 268 164q153 0 232.5 -107t79.5 -286v-713h-160v647q0 61 -4.5 107t-16 88t-32 69t-53.5 42.5t-78 15.5q-87 0 -145 -75.5t-58 -227.5v-666h-160v666q0 62 -3.5 105t-14.5 83t-30 63.5t-51.5 37.5t-78.5 14
q-92 0 -151.5 -85.5t-59.5 -250.5v-633h-160v1081z" />
    <glyph glyph-name="n" unicode="n" horiz-adv-x="1011" 
d="M141 1081h156v-139h4q72 164 264 164q152 0 234 -105.5t82 -287.5v-713h-160v647q0 162 -41.5 242t-151.5 80q-97 0 -162 -89.5t-65 -267.5v-612h-160v1081z" />
    <glyph glyph-name="o" unicode="o" horiz-adv-x="999" 
d="M911 543q0 -265 -109 -416.5t-302 -151.5t-302.5 151.5t-109.5 416.5q0 264 109.5 413.5t302.5 149.5t302 -149.5t109 -413.5zM752 543q0 198 -61.5 312t-190.5 114t-190.5 -114t-61.5 -312q0 -199 62 -314.5t190 -115.5q129 0 190.5 115t61.5 315z" />
    <glyph glyph-name="p" unicode="p" horiz-adv-x="1028" 
d="M301 150v-549h-160v1480h156v-161h4q33 82 106 134t164 52q116 0 201 -76t126.5 -202.5t41.5 -286.5t-43 -287t-129 -203t-203 -76q-83 0 -152.5 44t-107.5 131h-4zM780 541q0 121 -24 215t-78.5 153.5t-134.5 59.5t-137.5 -57.5t-85 -153t-27.5 -217.5t27.5 -217.5
t85 -153t137.5 -57.5t134.5 59.5t78.5 153.5t24 215z" />
    <glyph glyph-name="q" unicode="q" horiz-adv-x="1028" 
d="M731 934v147h156v-1480h-160v563h-4q-86 -189 -266 -189q-116 0 -201 77t-126.5 204t-41.5 287t43 286.5t129 201.5t203 75q83 0 152 -42.5t112 -129.5h4zM248 543q0 -121 24 -215.5t78.5 -154.5t134.5 -60t137.5 58t85 154t27.5 218q0 187 -65.5 306.5t-184.5 119.5
q-80 0 -134.5 -59t-78.5 -152.5t-24 -214.5z" />
    <glyph glyph-name="r" unicode="r" horiz-adv-x="600" 
d="M588 1102l-8 -139q-27 6 -72 6q-94 0 -150.5 -79t-56.5 -257v-633h-160v1081h156v-139h4q32 86 85.5 125t137.5 39q39 0 64 -4z" />
    <glyph glyph-name="s" unicode="s" horiz-adv-x="780" 
d="M651 1061l-33 -133q-89 41 -194 41q-72 0 -124 -37t-52 -117q0 -66 37.5 -109.5t134.5 -87.5q68 -31 114 -59.5t86.5 -68t60 -91.5t19.5 -118q0 -81 -30.5 -142.5t-81 -95.5t-109 -51t-121.5 -17q-132 0 -276 60l35 137q130 -59 243 -59q82 0 133.5 38.5t51.5 122.5
q0 71 -47 119t-152 94q-122 54 -188 128.5t-66 185.5q0 77 29 137.5t77 96t104 53.5t116 18q135 0 233 -45z" />
    <glyph glyph-name="t" unicode="t" horiz-adv-x="591" 
d="M37 944v137h153v273h160v-273h201v-137h-201v-647q0 -105 24.5 -139.5t86.5 -34.5q38 0 92 8v-131q-63 -14 -131 -14q-129 0 -180.5 74t-51.5 227v657h-153z" />
    <glyph glyph-name="u" unicode="u" horiz-adv-x="1011" 
d="M870 0h-155v139h-4q-72 -164 -265 -164q-152 0 -233.5 106t-81.5 288v712h160v-647q0 -162 41 -241.5t151 -79.5q97 0 162.5 89t65.5 267v612h159v-1081z" />
    <glyph glyph-name="v" unicode="v" horiz-adv-x="847" 
d="M190 1081l234 -931h4l234 931h167l-307 -1081h-196l-308 1081h172z" />
    <glyph glyph-name="w" unicode="w" horiz-adv-x="1345" 
d="M784 1081l166 -931h4l168 931h168l-235 -1081h-205l-174 938h-4l-176 -938h-207l-234 1081h172l168 -931h4l164 931h221z" />
    <glyph glyph-name="x" unicode="x" horiz-adv-x="856" 
d="M817 1081l-282 -520l296 -561h-176l-225 446l-233 -446h-172l303 557l-279 524h174l211 -415l215 415h168z" />
    <glyph glyph-name="y" unicode="y" horiz-adv-x="872" 
d="M190 1081l248 -860h4l244 860h168l-471 -1480h-164l135 415l-336 1065h172z" />
    <glyph glyph-name="z" unicode="z" horiz-adv-x="817" 
d="M84 125l463 819h-430v137h602v-131l-461 -813h477v-137h-651v125z" />
    <glyph glyph-name="braceleft" unicode="{" horiz-adv-x="542" 
d="M18 555v125q83 13 110.5 77t27.5 210v370q0 295 211 295h90v-112h-39q-64 0 -94.5 -48t-30.5 -161v-348q0 -155 -33.5 -232.5t-118.5 -109.5v-5q85 -35 118.5 -112t33.5 -230v-350q0 -114 30.5 -162.5t94.5 -48.5h39v-112h-90q-211 0 -211 299v368q0 145 -27 209t-111 78
z" />
    <glyph glyph-name="bar" unicode="|" horiz-adv-x="778" 
d="M328 1505h123v-1904h-123v1904z" />
    <glyph glyph-name="braceright" unicode="}" horiz-adv-x="542" 
d="M524 680v-125q-83 -14 -110 -77.5t-27 -209.5v-368q0 -299 -211 -299h-90v112h39q64 0 94.5 48.5t30.5 162.5v350q0 153 33 230t118 112v5q-85 32 -118 109.5t-33 232.5v348q0 113 -30.5 161t-94.5 48h-39v112h90q211 0 211 -295v-370q0 -146 27 -210t110 -77z" />
    <glyph glyph-name="asciitilde" unicode="~" horiz-adv-x="892" 
d="M631 657q56 0 106 23.5t82 60.5v-141q-75 -72 -205 -72q-51 0 -100.5 16t-83.5 35.5t-79.5 35.5t-88.5 16q-56 0 -106 -23.5t-82 -60.5v141q75 72 205 72q51 0 100 -16t81.5 -35.5t78.5 -35.5t92 -16z" />
    <glyph glyph-name="uni00A0" unicode="&#xa0;" horiz-adv-x="0" 
 />
    <glyph glyph-name="exclamdown" unicode="&#xa1;" horiz-adv-x="522" 
d="M168 -381l29 1055h129l28 -1055h-186zM350 1081v-198h-178v198h178z" />
    <glyph glyph-name="cent" unicode="&#xa2;" horiz-adv-x="761" 
d="M446 -137v125q-92 18 -159.5 66.5t-108.5 122t-60.5 163.5t-19.5 199q0 222 87.5 370t260.5 185v135h117v-123q62 0 127 -14l-20 -138q-50 15 -107 15v-856q65 0 121 16l16 -135q-74 -19 -137 -19v-112h-117zM258 539q0 -149 46.5 -257t141.5 -149v813
q-95 -41 -141.5 -149t-46.5 -258z" />
    <glyph glyph-name="sterling" unicode="&#xa3;" horiz-adv-x="989" 
d="M856 1440l-47 -146q-88 43 -166 43q-105 0 -156 -76.5t-51 -216.5v-217h258v-120h-258v-557h453v-150h-789v150h172v557h-161v120h161v230q0 199 96.5 314.5t274.5 115.5q117 0 213 -47z" />
    <glyph glyph-name="currency" unicode="&#xa4;" horiz-adv-x="942" 
d="M164 664q0 87 41 155l-139 142l108 106l139 -141q75 43 158 43q84 0 156 -43l141 141l109 -106l-142 -142q43 -72 43 -155q0 -84 -43 -156l142 -141l-109 -107l-141 139q-68 -41 -156 -41q-87 0 -158 41l-139 -139l-108 107l139 141q-41 68 -41 156zM305 664
q0 -74 48.5 -124.5t117.5 -50.5t117.5 50.5t48.5 124.5t-48 124t-118 50t-118 -50t-48 -124z" />
    <glyph glyph-name="yen" unicode="&#xa5;" horiz-adv-x="1017" 
d="M147 424h283v182h-283v121h242l-344 735h170l301 -686l291 686h166l-338 -735h235v-121h-282v-182h282v-121h-282v-303h-158v303h-283v121z" />
    <glyph glyph-name="brokenbar" unicode="&#xa6;" horiz-adv-x="778" 
d="M328 1505h123v-753h-123v753zM328 352h123v-751h-123v751z" />
    <glyph glyph-name="section" unicode="&#xa7;" horiz-adv-x="899" 
d="M799 561q0 -180 -164 -276q72 -59 107.5 -130.5t35.5 -144.5q0 -89 -31 -156t-84 -104.5t-114.5 -55.5t-130.5 -18q-71 0 -153 18t-142 48l43 135q40 -20 123.5 -38.5t134.5 -18.5q89 0 143 45t54 135q0 71 -50 130t-194 138q-54 29 -91.5 53.5t-75.5 57.5t-60 67
t-36 80.5t-14 100.5q0 170 172 262q-133 110 -133 268q0 85 30.5 150.5t83 103.5t115 57t132.5 19q135 0 233 -41l-39 -139q-74 36 -188 36q-93 0 -152 -44.5t-59 -133.5q0 -76 50.5 -128.5t174.5 -121.5q68 -38 114 -70.5t86 -75.5t59.5 -94t19.5 -114zM424 416l115 -68
q108 60 108 189q0 78 -40 127.5t-118 93.5l-108 61q-60 -19 -94.5 -65.5t-34.5 -114.5q0 -69 37 -118t135 -105z" />
    <glyph glyph-name="dieresis" unicode="&#xa8;" horiz-adv-x="782" 
d="M328 1475v-193h-162v193h162zM616 1475v-193h-159v193h159z" />
    <glyph glyph-name="copyright" unicode="&#xa9;" horiz-adv-x="1638" 
d="M193 727q0 -175 78.5 -320t223.5 -231t328 -86q180 0 324 86t222.5 231.5t78.5 319.5q0 176 -78.5 323.5t-222.5 235.5t-324 88q-137 0 -256 -51.5t-200.5 -139t-127.5 -206t-46 -250.5zM72 727q0 156 56 295t154 240t238.5 160t302.5 59q160 0 299.5 -59t236.5 -160
t152.5 -240t55.5 -295q0 -154 -55.5 -291t-152.5 -237t-236.5 -158.5t-299.5 -58.5q-162 0 -302.5 58.5t-238.5 158.5t-154 237t-56 291zM1063 1157l-33 -119q-82 35 -162 35q-76 0 -133.5 -27t-91.5 -75t-51 -108.5t-17 -131.5q0 -144 73.5 -239t217.5 -95q105 0 178 37
l29 -119q-82 -43 -223 -43q-199 0 -313.5 127t-114.5 332q0 208 113 335.5t321 127.5q140 0 207 -37z" />
    <glyph glyph-name="ordfeminine" unicode="&#xaa;" horiz-adv-x="565" 
d="M371 1169v19q0 65 -25 97t-82 32q-74 0 -145 -41l-25 110q32 17 84.5 29t95.5 12q222 0 222 -237v-281q0 -98 8 -147h-115q-6 69 -6 84h-4q-46 -98 -164 -98q-67 0 -118.5 47.5t-51.5 144.5q0 229 326 229zM371 1075h-19q-82 0 -134 -31t-52 -96q0 -48 23 -72t57 -24
q62 0 93.5 56.5t31.5 129.5v37z" />
    <glyph glyph-name="guillemotleft" unicode="&#xab;" horiz-adv-x="899" 
d="M459 999l-197 -389l197 -391h-144l-196 385v10l200 385h140zM780 999l-196 -389l196 -391h-143l-197 385v10l201 385h139z" />
    <glyph glyph-name="logicalnot" unicode="&#xac;" horiz-adv-x="892" 
d="M692 799h-618v121h745v-471h-127v350z" />
    <glyph glyph-name="uni00AD" unicode="&#xad;" horiz-adv-x="675" 
d="M131 545v141h412v-141h-412z" />
    <glyph glyph-name="registered" unicode="&#xae;" horiz-adv-x="1028" 
d="M80 1075q0 183 122.5 306.5t313.5 123.5t311.5 -123.5t120.5 -306.5q0 -184 -120.5 -307t-311.5 -123t-313.5 123t-122.5 307zM150 1075q0 -156 101 -261t265 -105q161 0 263 105.5t102 260.5q0 154 -102 259.5t-263 105.5q-164 0 -265 -105t-101 -260zM344 827v498h199
q76 0 117.5 -28.5t41.5 -100.5q0 -95 -92 -121v-2q50 -12 72 -90q9 -30 26 -82.5t23 -73.5h-92q-1 4 -39 136q-11 45 -31 60t-75 15h-60v-211h-90zM434 1262v-160h80q102 0 102 82q0 46 -26 62t-70 16h-86z" />
    <glyph glyph-name="macron" unicode="&#xaf;" horiz-adv-x="782" 
d="M602 1438v-131h-422v131h422z" />
    <glyph glyph-name="degree" unicode="&#xb0;" horiz-adv-x="761" 
d="M387 1485q114 0 196.5 -84t82.5 -201q0 -120 -83 -203.5t-202 -83.5t-203 84t-84 205q0 118 85.5 200.5t207.5 82.5zM379 1386q-75 0 -128.5 -54.5t-53.5 -131.5q0 -78 53.5 -132t130.5 -54t130.5 54.5t53.5 133.5q0 77 -54.5 130.5t-131.5 53.5z" />
    <glyph glyph-name="plusminus" unicode="&#xb1;" horiz-adv-x="892" 
d="M381 1167h133v-311h305v-127h-305v-313h-133v313h-307v127h307v311zM819 158h-745v127h745v-127z" />
    <glyph glyph-name="twosuperior" unicode="&#xb2;" 
d="M545 999v-122h-469v122q196 216 263 321.5t67 192.5q0 62 -31 98t-86 36q-66 0 -148 -54l-53 99q98 77 213 77q106 0 172 -66.5t66 -186.5q0 -110 -63.5 -211t-246.5 -304v-2h316z" />
    <glyph glyph-name="threesuperior" unicode="&#xb3;" 
d="M170 1270v114h84q70 0 109.5 36.5t39.5 103.5q0 60 -34 93.5t-93 33.5q-67 0 -147 -37l-41 108q103 47 205 47t173 -58.5t71 -168.5q0 -143 -136 -205v-4q70 -21 112 -75.5t42 -131.5q0 -127 -79.5 -195.5t-190.5 -68.5q-123 0 -215 49l43 113q85 -39 170 -39
q60 0 99.5 36t39.5 107q0 142 -168 142h-84z" />
    <glyph glyph-name="acute" unicode="&#xb4;" horiz-adv-x="782" 
d="M621 1573l-199 -336h-117l150 336h166z" />
    <glyph glyph-name="mu" unicode="&#xb5;" horiz-adv-x="1077" 
d="M745 170h-4q-27 -77 -99 -136t-163 -59q-124 0 -174 66h-4v-440h-160v1480h160v-647q0 -162 41.5 -241.5t151.5 -79.5q97 0 162 89t65 267v612h160v-819q0 -79 15 -109t60 -30q9 0 39 6v-131q-30 -12 -71 -12q-79 0 -121.5 42t-54.5 128z" />
    <glyph glyph-name="paragraph" unicode="&#xb6;" horiz-adv-x="935" 
d="M854 1462v-1702h-129v1592h-182v-1592h-129v904q-148 0 -244 108.5t-96 271.5q0 197 99.5 307.5t272.5 110.5h408z" />
    <glyph glyph-name="periodcentered" unicode="&#xb7;" horiz-adv-x="477" 
d="M145 516v207h187v-207h-187z" />
    <glyph glyph-name="cedilla" unicode="&#xb8;" horiz-adv-x="782" 
d="M371 20l-21 -139q24 4 53 4q61 0 99.5 -38t38.5 -109q0 -87 -56.5 -131.5t-144.5 -44.5q-66 0 -109 12l9 92q40 -6 79 -6q99 0 99 70q0 67 -92 67q-30 0 -76 -4l24 227h97z" />
    <glyph glyph-name="onesuperior" unicode="&#xb9;" 
d="M414 1755v-878h-133v737l-136 -76l-51 102l191 115h129z" />
    <glyph glyph-name="ordmasculine" unicode="&#xba;" 
d="M571 1087q0 -160 -66.5 -249.5t-191.5 -89.5q-126 0 -193 89.5t-67 249.5q0 161 67 250.5t193 89.5q125 0 191.5 -89.5t66.5 -250.5zM444 1087q0 232 -131 232q-133 0 -133 -232q0 -231 133 -231q131 0 131 231z" />
    <glyph glyph-name="guillemotright" unicode="&#xbb;" horiz-adv-x="899" 
d="M440 219l197 389l-197 391h144l196 -385v-10l-200 -385h-140zM119 219l196 389l-196 391h143l197 -385v-10l-201 -385h-139z" />
    <glyph glyph-name="onequarter" unicode="&#xbc;" horiz-adv-x="1482" 
d="M483 1468v-878h-133v737l-135 -76l-51 103l190 114h129zM1161 1462l-676 -1462h-116l675 1462h117zM1333 879v-564h92v-116h-92v-199h-129v199h-321v133l256 547h194zM1204 315v447h-4l-207 -447h211z" />
    <glyph glyph-name="onehalf" unicode="&#xbd;" horiz-adv-x="1482" 
d="M483 1468v-878h-133v737l-135 -76l-51 103l190 114h129zM1161 1462l-676 -1462h-116l675 1462h117zM1393 123v-123h-469v123q195 215 262 320.5t67 193.5q0 62 -30.5 97.5t-85.5 35.5q-68 0 -148 -53l-53 98q99 78 213 78q106 0 171.5 -67t65.5 -187q0 -110 -63 -210.5
t-246 -303.5v-2h316z" />
    <glyph glyph-name="threequarters" unicode="&#xbe;" horiz-adv-x="1482" 
d="M180 983v115h84q70 0 110 36t40 103q0 60 -34 93.5t-93 33.5q-68 0 -148 -37l-41 109q103 47 205 47t173 -59t71 -169q0 -143 -135 -204v-4q69 -21 111 -75t42 -132q0 -127 -80 -196t-190 -69q-121 0 -215 50l43 112q85 -39 170 -39q60 0 99.5 36.5t39.5 107.5
q0 141 -168 141h-84zM1161 1462l-676 -1462h-116l675 1462h117zM1333 879v-564h92v-116h-92v-199h-129v199h-321v133l256 547h194zM1204 315v447h-4l-207 -447h211z" />
    <glyph glyph-name="questiondown" unicode="&#xbf;" horiz-adv-x="794" 
d="M377 657v58h151v-70q0 -136 -32 -221t-115 -164l-53 -51q-111 -105 -111 -248q0 -112 59.5 -165.5t151.5 -53.5q65 0 113.5 14.5t115.5 46.5l56 -135q-140 -74 -299 -74q-73 0 -136 20t-114.5 61.5t-81 112.5t-29.5 165q0 118 48 209t149 184q84 77 105.5 132.5
t21.5 178.5zM539 1081v-198h-187v198h187z" />
    <glyph glyph-name="Agrave" unicode="&#xc0;" horiz-adv-x="1126" 
d="M313 438l-125 -438h-174l443 1462h213l442 -1462h-176l-129 438h-494zM559 1325l-211 -737h422l-207 737h-4zM373 1837h172l125 -274h-119z" />
    <glyph glyph-name="Aacute" unicode="&#xc1;" horiz-adv-x="1126" 
d="M313 438l-125 -438h-174l443 1462h213l442 -1462h-176l-129 438h-494zM559 1325l-211 -737h422l-207 737h-4zM780 1837l-180 -274h-121l129 274h172z" />
    <glyph glyph-name="Acircumflex" unicode="&#xc2;" horiz-adv-x="1126" 
d="M313 438l-125 -438h-174l443 1462h213l442 -1462h-176l-129 438h-494zM559 1325l-211 -737h422l-207 737h-4zM838 1548h-123l-150 201l-149 -201h-125l192 299h160z" />
    <glyph glyph-name="Atilde" unicode="&#xc3;" horiz-adv-x="1126" 
d="M313 438l-125 -438h-174l443 1462h213l442 -1462h-176l-129 438h-494zM559 1325l-211 -737h422l-207 737h-4zM582 1755q39 -39 60 -54t42 -15q61 0 61 139h105q0 -71 -13.5 -126t-51.5 -93.5t-97 -38.5q-40 0 -72 16t-73 55q-39 39 -59.5 53.5t-39.5 14.5q-61 0 -61 -139
h-107q0 71 13.5 125.5t52 93.5t98.5 39q38 0 70 -16t72 -54z" />
    <glyph glyph-name="Adieresis" unicode="&#xc4;" horiz-adv-x="1126" 
d="M313 438l-125 -438h-174l443 1462h213l442 -1462h-176l-129 438h-494zM559 1325l-211 -737h422l-207 737h-4zM500 1810v-192h-162v192h162zM788 1810v-192h-159v192h159z" />
    <glyph glyph-name="Aring" unicode="&#xc5;" horiz-adv-x="1126" 
d="M313 438l-125 -438h-174l443 1462h213l442 -1462h-176l-129 438h-494zM559 1325l-211 -737h422l-207 737h-4zM567 1942q84 0 144.5 -61.5t60.5 -145.5q0 -88 -60.5 -148.5t-146.5 -60.5q-88 0 -149.5 60.5t-61.5 148.5q0 86 62 146.5t151 60.5zM563 1855q-51 0 -87 -35
t-36 -85q0 -53 36 -89t89 -36q51 0 86 36t35 89q0 51 -36 85.5t-87 34.5z" />
    <glyph glyph-name="AE" unicode="&#xc6;" horiz-adv-x="1513" 
d="M748 0v397h-394l-166 -397h-174l627 1462h758v-149h-490v-486h451v-149h-451v-528h502v-150h-663zM743 1325l-325 -778h330v778h-5z" />
    <glyph glyph-name="Ccedilla" unicode="&#xc7;" horiz-adv-x="933" 
d="M842 143l16 -147q-86 -21 -178 -21q-25 0 -35 2l-14 -96q24 4 53 4q61 0 99 -38t38 -109q0 -87 -56 -131.5t-144 -44.5q-65 0 -109 12l8 92q41 -6 80 -6q98 0 98 70q0 67 -92 67q-30 0 -76 -4l21 195q-223 45 -339 242t-116 497q0 167 37 305t108.5 240t184 158.5
t256.5 56.5q89 0 164 -21l-25 -147q-62 18 -137 18q-91 0 -163 -31t-120.5 -85.5t-80.5 -132.5t-46 -167.5t-14 -195.5q0 -101 13.5 -187t45.5 -163.5t81 -132t124.5 -86t171.5 -31.5q72 0 146 18z" />
    <glyph glyph-name="Egrave" unicode="&#xc8;" horiz-adv-x="917" 
d="M150 0v1462h653v-149h-490v-486h451v-149h-451v-528h502v-150h-665zM272 1837h172l125 -274h-118z" />
    <glyph glyph-name="Eacute" unicode="&#xc9;" horiz-adv-x="917" 
d="M150 0v1462h653v-149h-490v-486h451v-149h-451v-528h502v-150h-665zM715 1837l-180 -274h-121l129 274h172z" />
    <glyph glyph-name="Ecircumflex" unicode="&#xca;" horiz-adv-x="917" 
d="M150 0v1462h653v-149h-490v-486h451v-149h-451v-528h502v-150h-665zM758 1548h-123l-150 201l-149 -201h-125l192 299h160z" />
    <glyph glyph-name="Edieresis" unicode="&#xcb;" horiz-adv-x="917" 
d="M150 0v1462h653v-149h-490v-486h451v-149h-451v-528h502v-150h-665zM426 1810v-192h-162v192h162zM715 1810v-192h-160v192h160z" />
    <glyph glyph-name="Igrave" unicode="&#xcc;" horiz-adv-x="462" 
d="M150 0v1462h163v-1462h-163zM12 1837h172l125 -274h-119z" />
    <glyph glyph-name="Iacute" unicode="&#xcd;" horiz-adv-x="462" 
d="M150 0v1462h163v-1462h-163zM463 1837l-180 -274h-121l129 274h172z" />
    <glyph glyph-name="Icircumflex" unicode="&#xce;" horiz-adv-x="462" 
d="M150 0v1462h163v-1462h-163zM506 1548h-123l-150 201l-149 -201h-125l193 299h159z" />
    <glyph glyph-name="Idieresis" unicode="&#xcf;" horiz-adv-x="462" 
d="M150 0v1462h163v-1462h-163zM168 1810v-192h-162v192h162zM457 1810v-192h-160v192h160z" />
    <glyph glyph-name="Eth" unicode="&#xd0;" horiz-adv-x="1177" 
d="M150 0v698h-117v109h117v655h344q277 0 430 -195t153 -536q0 -342 -153.5 -536.5t-429.5 -194.5h-344zM502 807v-109h-189v-548h158q220 0 331 151t111 430q0 277 -111 429.5t-331 152.5h-158v-506h189z" />
    <glyph glyph-name="Ntilde" unicode="&#xd1;" horiz-adv-x="1179" 
d="M401 1462l471 -1274h5v1274h153v-1462h-246l-475 1284h-4v-1284h-155v1462h251zM610 1755q39 -39 60.5 -54t42.5 -15q61 0 61 139h105q0 -71 -13.5 -126t-51.5 -93.5t-97 -38.5q-41 0 -73.5 16t-72.5 55q-40 40 -59.5 54t-38.5 14q-61 0 -61 -139h-107q0 71 13.5 125.5
t52 93.5t98.5 39q38 0 69.5 -15.5t71.5 -54.5z" />
    <glyph glyph-name="Ograve" unicode="&#xd2;" horiz-adv-x="1251" 
d="M1155 729q0 -166 -32.5 -303t-96.5 -238t-166 -157t-233 -56q-132 0 -234.5 56t-166.5 157t-97 238t-33 303q0 133 20.5 248t63 209t105 161t149.5 103.5t193 36.5q105 0 192 -36.5t149 -103.5t104 -161.5t62.5 -209t20.5 -247.5zM991 729q0 130 -19.5 236.5t-61.5 192
t-114 132.5t-169 47q-98 0 -170.5 -47t-114.5 -132.5t-62 -192t-20 -236.5q0 -129 20 -235t62 -190.5t114.5 -131.5t170.5 -47q97 0 169 47t114 131.5t61.5 190.5t19.5 235zM418 1837h172l125 -274h-119z" />
    <glyph glyph-name="Oacute" unicode="&#xd3;" horiz-adv-x="1251" 
d="M1155 729q0 -166 -32.5 -303t-96.5 -238t-166 -157t-233 -56q-132 0 -234.5 56t-166.5 157t-97 238t-33 303q0 133 20.5 248t63 209t105 161t149.5 103.5t193 36.5q105 0 192 -36.5t149 -103.5t104 -161.5t62.5 -209t20.5 -247.5zM991 729q0 130 -19.5 236.5t-61.5 192
t-114 132.5t-169 47q-98 0 -170.5 -47t-114.5 -132.5t-62 -192t-20 -236.5q0 -129 20 -235t62 -190.5t114.5 -131.5t170.5 -47q97 0 169 47t114 131.5t61.5 190.5t19.5 235zM842 1837l-180 -274h-121l129 274h172z" />
    <glyph glyph-name="Ocircumflex" unicode="&#xd4;" horiz-adv-x="1251" 
d="M1155 729q0 -166 -32.5 -303t-96.5 -238t-166 -157t-233 -56q-132 0 -234.5 56t-166.5 157t-97 238t-33 303q0 133 20.5 248t63 209t105 161t149.5 103.5t193 36.5q105 0 192 -36.5t149 -103.5t104 -161.5t62.5 -209t20.5 -247.5zM991 729q0 130 -19.5 236.5t-61.5 192
t-114 132.5t-169 47q-98 0 -170.5 -47t-114.5 -132.5t-62 -192t-20 -236.5q0 -129 20 -235t62 -190.5t114.5 -131.5t170.5 -47q97 0 169 47t114 131.5t61.5 190.5t19.5 235zM907 1548h-123l-149 201l-150 -201h-125l193 299h160z" />
    <glyph glyph-name="Otilde" unicode="&#xd5;" horiz-adv-x="1251" 
d="M1155 729q0 -166 -32.5 -303t-96.5 -238t-166 -157t-233 -56q-132 0 -234.5 56t-166.5 157t-97 238t-33 303q0 133 20.5 248t63 209t105 161t149.5 103.5t193 36.5q105 0 192 -36.5t149 -103.5t104 -161.5t62.5 -209t20.5 -247.5zM991 729q0 130 -19.5 236.5t-61.5 192
t-114 132.5t-169 47q-98 0 -170.5 -47t-114.5 -132.5t-62 -192t-20 -236.5q0 -129 20 -235t62 -190.5t114.5 -131.5t170.5 -47q97 0 169 47t114 131.5t61.5 190.5t19.5 235zM651 1755q39 -39 60.5 -54t42.5 -15q61 0 61 139h105q0 -71 -13.5 -126t-51.5 -93.5t-97 -38.5
q-41 0 -73.5 16t-72.5 55q-40 40 -59.5 54t-38.5 14q-61 0 -61 -139h-107q0 71 13.5 125.5t52 93.5t98.5 39q38 0 69.5 -15.5t71.5 -54.5z" />
    <glyph glyph-name="Odieresis" unicode="&#xd6;" horiz-adv-x="1251" 
d="M1155 729q0 -166 -32.5 -303t-96.5 -238t-166 -157t-233 -56q-132 0 -234.5 56t-166.5 157t-97 238t-33 303q0 133 20.5 248t63 209t105 161t149.5 103.5t193 36.5q105 0 192 -36.5t149 -103.5t104 -161.5t62.5 -209t20.5 -247.5zM991 729q0 130 -19.5 236.5t-61.5 192
t-114 132.5t-169 47q-98 0 -170.5 -47t-114.5 -132.5t-62 -192t-20 -236.5q0 -129 20 -235t62 -190.5t114.5 -131.5t170.5 -47q97 0 169 47t114 131.5t61.5 190.5t19.5 235zM569 1810v-192h-161v192h161zM858 1810v-192h-160v192h160z" />
    <glyph glyph-name="multiply" unicode="&#xd7;" horiz-adv-x="892" 
d="M731 266l-285 283l-284 -283l-90 92l282 283l-282 283l90 92l284 -285l285 285l90 -92l-284 -283l284 -283z" />
    <glyph glyph-name="Oslash" unicode="&#xd8;" horiz-adv-x="1251" 
d="M1155 729q0 -166 -32.5 -303t-96.5 -238t-166 -157t-233 -56q-202 0 -330 125l-100 -159l-93 57l119 192q-127 196 -127 539q0 133 20.5 248t63 209t105 161t149.5 103.5t193 36.5q194 0 327 -127l93 149l90 -57l-113 -180q131 -198 131 -543zM991 729q0 241 -63 387
l-545 -876q91 -115 244 -115q97 0 169 47t114 131.5t61.5 190.5t19.5 235zM260 729q0 -233 62 -383l546 877q-90 114 -241 114q-98 0 -170.5 -47t-114.5 -132.5t-62 -192t-20 -236.5z" />
    <glyph glyph-name="Ugrave" unicode="&#xd9;" horiz-adv-x="1138" 
d="M999 1462v-1030q0 -208 -109 -332.5t-323 -124.5q-212 0 -320 124.5t-108 332.5v1030h164v-1011q0 -165 61 -245.5t203 -80.5q269 0 269 326v1011h163zM350 1837h172l125 -274h-119z" />
    <glyph glyph-name="Uacute" unicode="&#xda;" horiz-adv-x="1138" 
d="M999 1462v-1030q0 -208 -109 -332.5t-323 -124.5q-212 0 -320 124.5t-108 332.5v1030h164v-1011q0 -165 61 -245.5t203 -80.5q269 0 269 326v1011h163zM784 1837l-180 -274h-121l129 274h172z" />
    <glyph glyph-name="Ucircumflex" unicode="&#xdb;" horiz-adv-x="1138" 
d="M999 1462v-1030q0 -208 -109 -332.5t-323 -124.5q-212 0 -320 124.5t-108 332.5v1030h164v-1011q0 -165 61 -245.5t203 -80.5q269 0 269 326v1011h163zM844 1548h-123l-150 201l-149 -201h-125l192 299h160z" />
    <glyph glyph-name="Udieresis" unicode="&#xdc;" horiz-adv-x="1138" 
d="M999 1462v-1030q0 -208 -109 -332.5t-323 -124.5q-212 0 -320 124.5t-108 332.5v1030h164v-1011q0 -165 61 -245.5t203 -80.5q269 0 269 326v1011h163zM506 1810v-192h-162v192h162zM795 1810v-192h-160v192h160z" />
    <glyph glyph-name="Yacute" unicode="&#xdd;" horiz-adv-x="1034" 
d="M436 0v596l-428 866h189l323 -696l324 696h182l-426 -866v-596h-164zM754 1837l-181 -274h-120l129 274h172z" />
    <glyph glyph-name="Thorn" unicode="&#xde;" horiz-adv-x="1026" 
d="M313 1462v-252h230q65 0 121 -12t108 -42t88.5 -76t58 -118.5t21.5 -164.5q0 -118 -32.5 -205t-89 -136.5t-124.5 -72.5t-149 -23h-232v-360h-163v1462h163zM313 1061v-551h207q56 0 98.5 12t80 42t57.5 87t20 140q0 82 -20 137.5t-59 83.5t-84 38.5t-107 10.5h-193z" />
    <glyph glyph-name="germandbls" unicode="&#xdf;" horiz-adv-x="1103" 
d="M563 1505q80 0 148 -24t120.5 -71t82.5 -123t30 -173q0 -140 -72 -231.5t-190 -112.5v-4q49 -5 93.5 -19.5t87 -43t73 -69t49.5 -102t19 -137.5q0 -111 -32 -195t-87 -131.5t-120 -70.5t-138 -23q-99 0 -189 33l27 127q70 -22 156 -22q106 0 164.5 70t58.5 204
q0 133 -78 212t-248 79v149q266 19 266 269q0 132 -61.5 198t-161.5 66q-260 0 -260 -377v-983h-160v1006q0 109 23.5 195t62.5 142t94 93.5t114.5 53t127.5 15.5z" />
    <glyph glyph-name="agrave" unicode="&#xe0;" horiz-adv-x="919" 
d="M631 674v31q0 136 -48 200t-157 64q-107 0 -219 -49l-31 135q117 51 260 51q355 0 355 -387v-473q0 -147 16 -246h-143q-15 68 -21 162h-4q-75 -187 -258 -187q-60 0 -113 19.5t-96 57.5t-68.5 102t-25.5 147q0 90 30.5 157.5t79.5 108t123 65.5t150 33.5t170 8.5z
M631 549h-41q-77 0 -135.5 -10t-111.5 -35t-81.5 -74t-28.5 -121q0 -86 44.5 -141t119.5 -55q118 0 176 97.5t58 246.5v92zM442 1237l-198 336h166l149 -336h-117z" />
    <glyph glyph-name="aacute" unicode="&#xe1;" horiz-adv-x="919" 
d="M631 674v31q0 136 -48 200t-157 64q-107 0 -219 -49l-31 135q117 51 260 51q355 0 355 -387v-473q0 -147 16 -246h-143q-15 68 -21 162h-4q-75 -187 -258 -187q-60 0 -113 19.5t-96 57.5t-68.5 102t-25.5 147q0 90 30.5 157.5t79.5 108t123 65.5t150 33.5t170 8.5z
M631 549h-41q-77 0 -135.5 -10t-111.5 -35t-81.5 -74t-28.5 -121q0 -86 44.5 -141t119.5 -55q118 0 176 97.5t58 246.5v92zM684 1573l-199 -336h-116l149 336h166z" />
    <glyph glyph-name="acircumflex" unicode="&#xe2;" horiz-adv-x="919" 
d="M631 674v31q0 136 -48 200t-157 64q-107 0 -219 -49l-31 135q117 51 260 51q355 0 355 -387v-473q0 -147 16 -246h-143q-15 68 -21 162h-4q-75 -187 -258 -187q-60 0 -113 19.5t-96 57.5t-68.5 102t-25.5 147q0 90 30.5 157.5t79.5 108t123 65.5t150 33.5t170 8.5z
M631 549h-41q-77 0 -135.5 -10t-111.5 -35t-81.5 -74t-28.5 -121q0 -86 44.5 -141t119.5 -55q118 0 176 97.5t58 246.5v92zM735 1237h-123l-149 238l-150 -238h-125l193 336h160z" />
    <glyph glyph-name="atilde" unicode="&#xe3;" horiz-adv-x="919" 
d="M631 674v31q0 136 -48 200t-157 64q-107 0 -219 -49l-31 135q117 51 260 51q355 0 355 -387v-473q0 -147 16 -246h-143q-15 68 -21 162h-4q-75 -187 -258 -187q-60 0 -113 19.5t-96 57.5t-68.5 102t-25.5 147q0 90 30.5 157.5t79.5 108t123 65.5t150 33.5t170 8.5z
M631 549h-41q-77 0 -135.5 -10t-111.5 -35t-81.5 -74t-28.5 -121q0 -86 44.5 -141t119.5 -55q118 0 176 97.5t58 246.5v92zM479 1450q40 -40 61 -55t42 -15q61 0 61 140h105q0 -71 -13.5 -126t-51.5 -93.5t-97 -38.5q-41 0 -73.5 16t-72.5 55q-40 40 -59.5 54t-38.5 14
q-61 0 -61 -139h-107q0 71 13.5 125.5t52 93.5t98.5 39q38 0 69.5 -15.5t71.5 -54.5z" />
    <glyph glyph-name="adieresis" unicode="&#xe4;" horiz-adv-x="919" 
d="M631 674v31q0 136 -48 200t-157 64q-107 0 -219 -49l-31 135q117 51 260 51q355 0 355 -387v-473q0 -147 16 -246h-143q-15 68 -21 162h-4q-75 -187 -258 -187q-60 0 -113 19.5t-96 57.5t-68.5 102t-25.5 147q0 90 30.5 157.5t79.5 108t123 65.5t150 33.5t170 8.5z
M631 549h-41q-77 0 -135.5 -10t-111.5 -35t-81.5 -74t-28.5 -121q0 -86 44.5 -141t119.5 -55q118 0 176 97.5t58 246.5v92zM397 1475v-193h-161v193h161zM686 1475v-193h-160v193h160z" />
    <glyph glyph-name="aring" unicode="&#xe5;" horiz-adv-x="919" 
d="M631 674v31q0 136 -48 200t-157 64q-107 0 -219 -49l-31 135q117 51 260 51q355 0 355 -387v-473q0 -147 16 -246h-143q-15 68 -21 162h-4q-75 -187 -258 -187q-60 0 -113 19.5t-96 57.5t-68.5 102t-25.5 147q0 90 30.5 157.5t79.5 108t123 65.5t150 33.5t170 8.5z
M631 549h-41q-77 0 -135.5 -10t-111.5 -35t-81.5 -74t-28.5 -121q0 -86 44.5 -141t119.5 -55q118 0 176 97.5t58 246.5v92zM469 1632q84 0 144.5 -61.5t60.5 -145.5q0 -87 -60 -147.5t-147 -60.5q-88 0 -149.5 60.5t-61.5 147.5q0 86 62 146.5t151 60.5zM465 1546
q-51 0 -87 -35.5t-36 -85.5q0 -53 36 -89t89 -36q51 0 86 36t35 89q0 51 -36 86t-87 35z" />
    <glyph glyph-name="ae" unicode="&#xe6;" horiz-adv-x="1472" 
d="M1386 506h-602q16 -393 301 -393q110 0 193 34l22 -133q-104 -39 -223 -39q-129 0 -226.5 56.5t-145.5 171.5h-5q-48 -120 -132 -174t-187 -54q-59 0 -112.5 19t-96.5 56.5t-68.5 100t-25.5 142.5q0 87 31 151.5t80.5 103t124 62t149 31.5t168.5 8v56q0 135 -47.5 199.5
t-153.5 64.5q-119 0 -213 -47l-31 135q104 49 250 49q231 0 301 -168h4q43 78 118 123t163 45q95 0 165.5 -37.5t113.5 -106.5t64 -162t21 -210v-84zM631 524h-41q-59 0 -107 -5t-95.5 -20t-79.5 -39t-52 -64.5t-20 -94.5q0 -81 43.5 -134.5t117.5 -53.5q118 0 176 97.5
t58 246.5v67zM1020 969q-110 0 -167.5 -89.5t-68.5 -236.5h449v8q0 147 -56 232.5t-157 85.5z" />
    <glyph glyph-name="ccedilla" unicode="&#xe7;" horiz-adv-x="741" 
d="M674 129l16 -135q-74 -19 -141 -19q-15 0 -60 5l-14 -99q24 4 53 4q61 0 99.5 -38t38.5 -109q0 -87 -56.5 -131.5t-144.5 -44.5q-65 0 -109 12l9 92q41 -6 79 -6q99 0 99 70q0 67 -92 67q-30 0 -76 -4l20 203q-157 45 -232 188.5t-75 354.5q0 125 28 227.5t84 179
t145 118.5t204 42q66 0 131 -14l-21 -138q-49 15 -108 15q-103 0 -172.5 -58.5t-100 -153t-30.5 -218.5q0 -91 17 -166.5t52.5 -134.5t95 -92t138.5 -33q67 0 123 16z" />
    <glyph glyph-name="egrave" unicode="&#xe8;" horiz-adv-x="942" 
d="M856 494h-606q16 -381 305 -381q110 0 193 34l22 -133q-104 -39 -223 -39q-114 0 -202.5 42.5t-144 119t-84 178.5t-28.5 224q0 251 108.5 409t295.5 158q126 0 208.5 -66.5t119 -182t36.5 -279.5v-84zM489 969q-75 0 -127.5 -46.5t-78.5 -119.5t-33 -172h448v8
q0 157 -53.5 243.5t-155.5 86.5zM465 1237l-199 336h166l150 -336h-117z" />
    <glyph glyph-name="eacute" unicode="&#xe9;" horiz-adv-x="942" 
d="M856 494h-606q16 -381 305 -381q110 0 193 34l22 -133q-104 -39 -223 -39q-114 0 -202.5 42.5t-144 119t-84 178.5t-28.5 224q0 251 108.5 409t295.5 158q126 0 208.5 -66.5t119 -182t36.5 -279.5v-84zM489 969q-75 0 -127.5 -46.5t-78.5 -119.5t-33 -172h448v8
q0 157 -53.5 243.5t-155.5 86.5zM723 1573l-199 -336h-116l149 336h166z" />
    <glyph glyph-name="ecircumflex" unicode="&#xea;" horiz-adv-x="942" 
d="M856 494h-606q16 -381 305 -381q110 0 193 34l22 -133q-104 -39 -223 -39q-114 0 -202.5 42.5t-144 119t-84 178.5t-28.5 224q0 251 108.5 409t295.5 158q126 0 208.5 -66.5t119 -182t36.5 -279.5v-84zM489 969q-75 0 -127.5 -46.5t-78.5 -119.5t-33 -172h448v8
q0 157 -53.5 243.5t-155.5 86.5zM770 1237h-123l-149 238l-150 -238h-125l193 336h159z" />
    <glyph glyph-name="edieresis" unicode="&#xeb;" horiz-adv-x="942" 
d="M856 494h-606q16 -381 305 -381q110 0 193 34l22 -133q-104 -39 -223 -39q-114 0 -202.5 42.5t-144 119t-84 178.5t-28.5 224q0 251 108.5 409t295.5 158q126 0 208.5 -66.5t119 -182t36.5 -279.5v-84zM489 969q-75 0 -127.5 -46.5t-78.5 -119.5t-33 -172h448v8
q0 157 -53.5 243.5t-155.5 86.5zM434 1475v-193h-162v193h162zM723 1475v-193h-160v193h160z" />
    <glyph glyph-name="igrave" unicode="&#xec;" horiz-adv-x="444" 
d="M141 1081h160v-1081h-160v1081zM182 1237l-198 336h166l149 -336h-117z" />
    <glyph glyph-name="iacute" unicode="&#xed;" horiz-adv-x="444" 
d="M141 1081h160v-1081h-160v1081zM463 1573l-199 -336h-117l150 336h166z" />
    <glyph glyph-name="icircumflex" unicode="&#xee;" horiz-adv-x="444" 
d="M141 1081h160v-1081h-160v1081zM496 1237h-123l-150 238l-149 -238h-125l192 336h160z" />
    <glyph glyph-name="idieresis" unicode="&#xef;" horiz-adv-x="444" 
d="M141 1081h160v-1081h-160v1081zM158 1475v-193h-162v193h162zM446 1475v-193h-159v193h159z" />
    <glyph glyph-name="eth" unicode="&#xf0;" horiz-adv-x="999" 
d="M911 508q0 -251 -109 -392t-302 -141q-191 0 -301.5 142.5t-110.5 378.5q0 234 108.5 376t292.5 142q139 0 226 -96h4q-50 181 -164 301l-279 -144v131l185 94q-76 52 -174 74l41 133q151 -37 274 -133l199 103v-131l-111 -58q221 -263 221 -776v-4zM754 496
q0 109 -25 192t-83.5 136t-145.5 53t-145 -53t-82.5 -136t-24.5 -192q0 -110 25 -193.5t83 -136.5t144 -53q87 0 145.5 53t83.5 136.5t25 193.5z" />
    <glyph glyph-name="ntilde" unicode="&#xf1;" horiz-adv-x="1011" 
d="M141 1081h156v-139h4q72 164 264 164q152 0 234 -105.5t82 -287.5v-713h-160v647q0 162 -41.5 242t-151.5 80q-97 0 -162 -89.5t-65 -267.5v-612h-160v1081zM557 1450q40 -40 61 -55t41 -15q62 0 62 140h104q0 -52 -8 -96t-25.5 -81.5t-50 -59t-77.5 -21.5
q-41 0 -73.5 16t-72.5 55q-40 40 -59.5 54t-38.5 14q-62 0 -62 -139h-106q0 71 13.5 125.5t52 93.5t98.5 39q38 0 69.5 -15.5t71.5 -54.5z" />
    <glyph glyph-name="ograve" unicode="&#xf2;" horiz-adv-x="999" 
d="M911 543q0 -265 -109 -416.5t-302 -151.5t-302.5 151.5t-109.5 416.5q0 264 109.5 413.5t302.5 149.5t302 -149.5t109 -413.5zM752 543q0 198 -61.5 312t-190.5 114t-190.5 -114t-61.5 -312q0 -199 62 -314.5t190 -115.5q129 0 190.5 115t61.5 315zM473 1237l-199 336
h166l150 -336h-117z" />
    <glyph glyph-name="oacute" unicode="&#xf3;" horiz-adv-x="999" 
d="M911 543q0 -265 -109 -416.5t-302 -151.5t-302.5 151.5t-109.5 416.5q0 264 109.5 413.5t302.5 149.5t302 -149.5t109 -413.5zM752 543q0 198 -61.5 312t-190.5 114t-190.5 -114t-61.5 -312q0 -199 62 -314.5t190 -115.5q129 0 190.5 115t61.5 315zM723 1573l-199 -336
h-116l149 336h166z" />
    <glyph glyph-name="ocircumflex" unicode="&#xf4;" horiz-adv-x="999" 
d="M911 543q0 -265 -109 -416.5t-302 -151.5t-302.5 151.5t-109.5 416.5q0 264 109.5 413.5t302.5 149.5t302 -149.5t109 -413.5zM752 543q0 198 -61.5 312t-190.5 114t-190.5 -114t-61.5 -312q0 -199 62 -314.5t190 -115.5q129 0 190.5 115t61.5 315zM774 1237h-123
l-149 238l-150 -238h-125l193 336h160z" />
    <glyph glyph-name="otilde" unicode="&#xf5;" horiz-adv-x="999" 
d="M911 543q0 -265 -109 -416.5t-302 -151.5t-302.5 151.5t-109.5 416.5q0 264 109.5 413.5t302.5 149.5t302 -149.5t109 -413.5zM752 543q0 198 -61.5 312t-190.5 114t-190.5 -114t-61.5 -312q0 -199 62 -314.5t190 -115.5q129 0 190.5 115t61.5 315zM518 1450
q40 -40 61 -55t42 -15q61 0 61 140h104q0 -52 -8 -96t-25.5 -81.5t-50 -59t-77.5 -21.5q-41 0 -73.5 16t-72.5 55q-40 40 -59.5 54t-38.5 14q-62 0 -62 -139h-106q0 71 13.5 125.5t52 93.5t98.5 39q38 0 69.5 -15.5t71.5 -54.5z" />
    <glyph glyph-name="odieresis" unicode="&#xf6;" horiz-adv-x="999" 
d="M911 543q0 -265 -109 -416.5t-302 -151.5t-302.5 151.5t-109.5 416.5q0 264 109.5 413.5t302.5 149.5t302 -149.5t109 -413.5zM752 543q0 198 -61.5 312t-190.5 114t-190.5 -114t-61.5 -312q0 -199 62 -314.5t190 -115.5q129 0 190.5 115t61.5 315zM436 1475v-193h-162
v193h162zM725 1475v-193h-160v193h160z" />
    <glyph glyph-name="divide" unicode="&#xf7;" horiz-adv-x="892" 
d="M819 582h-745v127h745v-127zM532 1100v-178h-163v178h163zM532 365v-179h-163v179h163z" />
    <glyph glyph-name="oslash" unicode="&#xf8;" horiz-adv-x="999" 
d="M911 543q0 -265 -109 -416.5t-302 -151.5q-157 0 -262 105l-95 -141l-71 49l108 162q-92 150 -92 393q0 264 109.5 413.5t302.5 149.5q158 0 258 -100l88 131l72 -45l-103 -154q96 -151 96 -395zM752 543q0 155 -35 250l-395 -586q63 -94 178 -94q129 0 190.5 115
t61.5 315zM248 543q0 -148 33 -246l393 584q-66 88 -174 88q-129 0 -190.5 -114t-61.5 -312z" />
    <glyph glyph-name="ugrave" unicode="&#xf9;" horiz-adv-x="1011" 
d="M870 0h-155v139h-4q-72 -164 -265 -164q-152 0 -233.5 106t-81.5 288v712h160v-647q0 -162 41 -241.5t151 -79.5q97 0 162.5 89t65.5 267v612h159v-1081zM467 1237l-199 336h166l150 -336h-117z" />
    <glyph glyph-name="uacute" unicode="&#xfa;" horiz-adv-x="1011" 
d="M870 0h-155v139h-4q-72 -164 -265 -164q-152 0 -233.5 106t-81.5 288v712h160v-647q0 -162 41 -241.5t151 -79.5q97 0 162.5 89t65.5 267v612h159v-1081zM745 1573l-198 -336h-117l150 336h165z" />
    <glyph glyph-name="ucircumflex" unicode="&#xfb;" horiz-adv-x="1011" 
d="M870 0h-155v139h-4q-72 -164 -265 -164q-152 0 -233.5 106t-81.5 288v712h160v-647q0 -162 41 -241.5t151 -79.5q97 0 162.5 89t65.5 267v612h159v-1081zM780 1237h-123l-149 238l-150 -238h-125l193 336h160z" />
    <glyph glyph-name="udieresis" unicode="&#xfc;" horiz-adv-x="1011" 
d="M870 0h-155v139h-4q-72 -164 -265 -164q-152 0 -233.5 106t-81.5 288v712h160v-647q0 -162 41 -241.5t151 -79.5q97 0 162.5 89t65.5 267v612h159v-1081zM444 1475v-193h-161v193h161zM733 1475v-193h-160v193h160z" />
    <glyph glyph-name="yacute" unicode="&#xfd;" horiz-adv-x="872" 
d="M190 1081l248 -860h4l244 860h168l-471 -1480h-164l135 415l-336 1065h172zM686 1573l-199 -336h-116l149 336h166z" />
    <glyph glyph-name="thorn" unicode="&#xfe;" horiz-adv-x="1028" 
d="M780 541q0 121 -24 215t-78.5 153.5t-134.5 59.5t-137.5 -57.5t-85 -153t-27.5 -217.5t27.5 -217.5t85 -153t137.5 -57.5t134.5 59.5t78.5 153.5t24 215zM141 -399v1904h160v-585h4q34 89 107.5 137.5t158.5 48.5q116 0 201 -76t126.5 -202.5t41.5 -286.5t-43 -287
t-129 -203t-203 -76q-83 0 -152.5 44t-107.5 131h-4v-549h-160z" />
    <glyph glyph-name="ydieresis" unicode="&#xff;" horiz-adv-x="872" 
d="M190 1081l248 -860h4l244 860h168l-471 -1480h-164l135 415l-336 1065h172zM379 1475v-193h-162v193h162zM668 1475v-193h-160v193h160z" />
    <glyph glyph-name="Amacron" unicode="&#x100;" horiz-adv-x="1126" 
d="M313 438l-125 -438h-174l443 1462h213l442 -1462h-176l-129 438h-494zM559 1325l-211 -737h422l-207 737h-4zM774 1763v-131h-420v131h420z" />
    <glyph glyph-name="amacron" unicode="&#x101;" horiz-adv-x="919" 
d="M631 674v31q0 136 -48 200t-157 64q-107 0 -219 -49l-31 135q117 51 260 51q355 0 355 -387v-473q0 -147 16 -246h-143q-15 68 -21 162h-4q-75 -187 -258 -187q-60 0 -113 19.5t-96 57.5t-68.5 102t-25.5 147q0 90 30.5 157.5t79.5 108t123 65.5t150 33.5t170 8.5z
M631 549h-41q-77 0 -135.5 -10t-111.5 -35t-81.5 -74t-28.5 -121q0 -86 44.5 -141t119.5 -55q118 0 176 97.5t58 246.5v92zM674 1438v-131h-422v131h422z" />
    <glyph glyph-name="Abreve" unicode="&#x102;" horiz-adv-x="1126" 
d="M313 438l-125 -438h-174l443 1462h213l442 -1462h-176l-129 438h-494zM559 1325l-211 -737h422l-207 737h-4zM702 1860h115q-3 -130 -63 -210.5t-191 -80.5q-65 0 -114 23t-78.5 64t-44.5 92t-17 112h115q2 -81 33 -124.5t106 -43.5q73 0 102.5 42t36.5 126z" />
    <glyph glyph-name="abreve" unicode="&#x103;" horiz-adv-x="919" 
d="M631 674v31q0 136 -48 200t-157 64q-107 0 -219 -49l-31 135q117 51 260 51q355 0 355 -387v-473q0 -147 16 -246h-143q-15 68 -21 162h-4q-75 -187 -258 -187q-60 0 -113 19.5t-96 57.5t-68.5 102t-25.5 147q0 90 30.5 157.5t79.5 108t123 65.5t150 33.5t170 8.5z
M631 549h-41q-77 0 -135.5 -10t-111.5 -35t-81.5 -74t-28.5 -121q0 -86 44.5 -141t119.5 -55q118 0 176 97.5t58 246.5v92zM602 1532h115q-3 -130 -63 -210.5t-191 -80.5q-65 0 -114 23t-78.5 64t-44.5 92t-17 112h115q2 -81 33 -124.5t106 -43.5q73 0 102.5 42t36.5 126z
" />
    <glyph glyph-name="Aogonek" unicode="&#x104;" horiz-adv-x="1126" 
d="M313 438l-125 -438h-174l443 1462h213l442 -1462h-76q-62 -84 -84 -135t-22 -98q0 -42 20.5 -62t55.5 -20q38 0 88 16l10 -96q-58 -25 -127 -25q-70 0 -118 41t-48 121q0 65 27.5 124t97.5 134l-129 438h-494zM559 1325l-211 -737h422l-207 737h-4z" />
    <glyph glyph-name="aogonek" unicode="&#x105;" horiz-adv-x="919" 
d="M631 674v31q0 135 -47.5 199.5t-153.5 64.5q-119 0 -213 -47l-31 135q104 49 250 49q355 0 355 -387v-473q0 -147 16 -246h-53q-62 -84 -84.5 -135t-22.5 -98q0 -42 20.5 -62t55.5 -20q38 0 88 16l10 -96q-58 -25 -127 -25q-70 0 -118 41t-48 121q0 66 29.5 126.5
t104.5 139.5q-12 52 -19 154h-4q-75 -187 -258 -187q-60 0 -113 19.5t-96 57.5t-68.5 102t-25.5 147q0 90 30.5 157.5t79.5 108t123 65.5t150 33.5t170 8.5zM631 549h-41q-60 0 -108.5 -5.5t-96 -21.5t-79 -42t-51 -69.5t-19.5 -101.5q0 -87 43 -141.5t118 -54.5
q118 0 176 97.5t58 246.5v92z" />
    <glyph glyph-name="Cacute" unicode="&#x106;" horiz-adv-x="933" 
d="M842 143l16 -147q-86 -21 -178 -21q-191 0 -324 97t-196.5 264t-63.5 391q0 167 37 305t108.5 240t184 158.5t256.5 56.5q89 0 164 -21l-25 -147q-62 18 -137 18q-91 0 -163 -31t-120.5 -85.5t-80.5 -132.5t-46 -167.5t-14 -195.5q0 -101 13.5 -187t45.5 -163.5t81 -132
t124.5 -86t171.5 -31.5q72 0 146 18zM821 1837l-180 -274h-121l129 274h172z" />
    <glyph glyph-name="cacute" unicode="&#x107;" horiz-adv-x="741" 
d="M674 129l16 -135q-74 -19 -141 -19q-121 0 -211.5 42.5t-144 119.5t-79.5 177.5t-26 224.5q0 125 28 227.5t84 179t145 118.5t204 42q66 0 131 -14l-21 -138q-49 15 -108 15q-103 0 -172.5 -58.5t-100 -153t-30.5 -218.5q0 -91 17 -166.5t52.5 -134.5t95 -92t138.5 -33
q67 0 123 16zM725 1573l-199 -336h-116l149 336h166z" />
    <glyph glyph-name="Ccircumflex" unicode="&#x108;" horiz-adv-x="933" 
d="M842 143l16 -147q-86 -21 -178 -21q-191 0 -324 97t-196.5 264t-63.5 391q0 167 37 305t108.5 240t184 158.5t256.5 56.5q89 0 164 -21l-25 -147q-62 18 -137 18q-91 0 -163 -31t-120.5 -85.5t-80.5 -132.5t-46 -167.5t-14 -195.5q0 -101 13.5 -187t45.5 -163.5t81 -132
t124.5 -86t171.5 -31.5q72 0 146 18zM872 1548h-122l-150 201l-149 -201h-125l192 299h160z" />
    <glyph glyph-name="ccircumflex" unicode="&#x109;" horiz-adv-x="741" 
d="M674 129l16 -135q-74 -19 -141 -19q-121 0 -211.5 42.5t-144 119.5t-79.5 177.5t-26 224.5q0 125 28 227.5t84 179t145 118.5t204 42q66 0 131 -14l-21 -138q-49 15 -108 15q-103 0 -172.5 -58.5t-100 -153t-30.5 -218.5q0 -91 17 -166.5t52.5 -134.5t95 -92t138.5 -33
q67 0 123 16zM737 1237h-123l-149 238l-150 -238h-125l193 336h160z" />
    <glyph glyph-name="Cdotaccent" unicode="&#x10a;" horiz-adv-x="933" 
d="M842 143l16 -147q-86 -21 -178 -21q-191 0 -324 97t-196.5 264t-63.5 391q0 167 37 305t108.5 240t184 158.5t256.5 56.5q89 0 164 -21l-25 -147q-62 18 -137 18q-91 0 -163 -31t-120.5 -85.5t-80.5 -132.5t-46 -167.5t-14 -195.5q0 -101 13.5 -187t45.5 -163.5t81 -132
t124.5 -86t171.5 -31.5q72 0 146 18zM698 1806v-200h-182v200h182z" />
    <glyph glyph-name="cdotaccent" unicode="&#x10b;" horiz-adv-x="741" 
d="M674 129l16 -135q-74 -19 -141 -19q-121 0 -211.5 42.5t-144 119.5t-79.5 177.5t-26 224.5q0 125 28 227.5t84 179t145 118.5t204 42q66 0 131 -14l-21 -138q-49 15 -108 15q-103 0 -172.5 -58.5t-100 -153t-30.5 -218.5q0 -91 17 -166.5t52.5 -134.5t95 -92t138.5 -33
q67 0 123 16zM594 1481v-201h-182v201h182z" />
    <glyph glyph-name="Ccaron" unicode="&#x10c;" horiz-adv-x="933" 
d="M842 143l16 -147q-86 -21 -178 -21q-191 0 -324 97t-196.5 264t-63.5 391q0 167 37 305t108.5 240t184 158.5t256.5 56.5q89 0 164 -21l-25 -147q-62 18 -137 18q-91 0 -163 -31t-120.5 -85.5t-80.5 -132.5t-46 -167.5t-14 -195.5q0 -101 13.5 -187t45.5 -163.5t81 -132
t124.5 -86t171.5 -31.5q72 0 146 18zM326 1845h123l151 -198l148 198h124l-192 -299h-160z" />
    <glyph glyph-name="ccaron" unicode="&#x10d;" horiz-adv-x="741" 
d="M674 129l16 -135q-74 -19 -141 -19q-121 0 -211.5 42.5t-144 119.5t-79.5 177.5t-26 224.5q0 125 28 227.5t84 179t145 118.5t204 42q66 0 131 -14l-21 -138q-49 15 -108 15q-103 0 -172.5 -58.5t-100 -153t-30.5 -218.5q0 -91 17 -166.5t52.5 -134.5t95 -92t138.5 -33
q67 0 123 16zM205 1571h123l151 -238l148 238h125l-193 -336h-160z" />
    <glyph glyph-name="Dcaron" unicode="&#x10e;" horiz-adv-x="1177" 
d="M150 0v1462h344q277 0 430 -195t153 -536q0 -342 -153.5 -536.5t-429.5 -194.5h-344zM313 1313v-1163h158q220 0 331 151t111 430q0 277 -111 429.5t-331 152.5h-158zM215 1845h123l151 -198l148 198h125l-193 -299h-159z" />
    <glyph glyph-name="dcaron" unicode="&#x10f;" horiz-adv-x="1028" 
d="M727 934v571h160v-1505h-156v164h-4q-83 -189 -270 -189q-116 0 -201 77t-126.5 204t-41.5 287t43 286.5t129 201.5t203 75q95 0 157.5 -42t102.5 -130h4zM248 543q0 -121 24 -215.5t78.5 -154.5t134.5 -60t137.5 58t85 154t27.5 218q0 187 -65.5 306.5t-184.5 119.5
q-80 0 -134.5 -59t-78.5 -152.5t-24 -214.5zM1161 1573l-65 -336h-101l19 336h147z" />
    <glyph glyph-name="Dcroat" unicode="&#x110;" horiz-adv-x="1177" 
d="M150 0v698h-117v109h117v655h344q277 0 430 -195t153 -536q0 -342 -153.5 -536.5t-429.5 -194.5h-344zM502 807v-109h-189v-548h158q220 0 331 151t111 430q0 277 -111 429.5t-331 152.5h-158v-506h189z" />
    <glyph glyph-name="dcroat" unicode="&#x111;" horiz-adv-x="1028" 
d="M727 934v299h-186v119h186v153h160v-153h74v-119h-74v-1233h-156v164h-4q-83 -189 -270 -189q-116 0 -201 77t-126.5 204t-41.5 287t43 286.5t129 201.5t203 75q95 0 157.5 -42t102.5 -130h4zM248 543q0 -121 24 -215.5t78.5 -154.5t134.5 -60t137.5 58t85 154t27.5 218
q0 187 -65.5 306.5t-184.5 119.5q-80 0 -134.5 -59t-78.5 -152.5t-24 -214.5z" />
    <glyph glyph-name="Emacron" unicode="&#x112;" horiz-adv-x="917" 
d="M150 0v1462h653v-149h-490v-486h451v-149h-451v-528h502v-150h-665zM700 1763v-131h-419v131h419z" />
    <glyph glyph-name="emacron" unicode="&#x113;" horiz-adv-x="942" 
d="M856 494h-606q16 -381 305 -381q110 0 193 34l22 -133q-104 -39 -223 -39q-114 0 -202.5 42.5t-144 119t-84 178.5t-28.5 224q0 251 108.5 409t295.5 158q126 0 208.5 -66.5t119 -182t36.5 -279.5v-84zM489 969q-75 0 -127.5 -46.5t-78.5 -119.5t-33 -172h448v8
q0 157 -53.5 243.5t-155.5 86.5zM709 1438v-131h-422v131h422z" />
    <glyph glyph-name="Ebreve" unicode="&#x114;" horiz-adv-x="917" 
d="M150 0v1462h653v-149h-490v-486h451v-149h-451v-528h502v-150h-665zM623 1860h114q-3 -130 -63 -210.5t-191 -80.5q-65 0 -114 23t-78.5 64t-44.5 92t-17 112h115q2 -81 33 -124.5t106 -43.5q73 0 103 42t37 126z" />
    <glyph glyph-name="ebreve" unicode="&#x115;" horiz-adv-x="942" 
d="M856 494h-606q16 -381 305 -381q110 0 193 34l22 -133q-104 -39 -223 -39q-114 0 -202.5 42.5t-144 119t-84 178.5t-28.5 224q0 251 108.5 409t295.5 158q126 0 208.5 -66.5t119 -182t36.5 -279.5v-84zM489 969q-75 0 -127.5 -46.5t-78.5 -119.5t-33 -172h448v8
q0 157 -53.5 243.5t-155.5 86.5zM631 1532h114q-2 -62 -15.5 -112t-41.5 -91.5t-78 -64.5t-118 -23q-65 0 -114 23t-78.5 64t-44.5 92t-17 112h114q2 -81 33.5 -124.5t106.5 -43.5q73 0 102.5 42t36.5 126z" />
    <glyph glyph-name="Edotaccent" unicode="&#x116;" horiz-adv-x="917" 
d="M150 0v1462h653v-149h-490v-486h451v-149h-451v-528h502v-150h-665zM586 1806v-200h-183v200h183z" />
    <glyph glyph-name="edotaccent" unicode="&#x117;" horiz-adv-x="942" 
d="M856 494h-606q16 -381 305 -381q110 0 193 34l22 -133q-104 -39 -223 -39q-114 0 -202.5 42.5t-144 119t-84 178.5t-28.5 224q0 251 108.5 409t295.5 158q126 0 208.5 -66.5t119 -182t36.5 -279.5v-84zM489 969q-75 0 -127.5 -46.5t-78.5 -119.5t-33 -172h448v8
q0 157 -53.5 243.5t-155.5 86.5zM582 1481v-201h-183v201h183z" />
    <glyph glyph-name="Eogonek" unicode="&#x118;" horiz-adv-x="917" 
d="M150 0v1462h653v-149h-490v-486h451v-149h-451v-528h502v-150h-57q-62 -84 -84.5 -135t-22.5 -98q0 -42 20.5 -62t55.5 -20q38 0 88 16l10 -96q-58 -25 -127 -25q-70 0 -118 41t-48 121q0 65 27.5 124t97.5 134h-507z" />
    <glyph glyph-name="eogonek" unicode="&#x119;" horiz-adv-x="942" 
d="M856 494h-606q16 -381 305 -381q110 0 193 34l22 -133q-10 -5 -22 -8q-64 -85 -87.5 -138t-23.5 -101q0 -42 20.5 -62t55.5 -20q38 0 88 16l10 -96q-58 -25 -127 -25q-70 0 -118 41t-48 121q0 61 23.5 116.5t83.5 121.5q-67 -5 -78 -5q-114 0 -202.5 42.5t-144 119
t-84 178.5t-28.5 224q0 251 108.5 409t295.5 158q126 0 208.5 -66.5t119 -182t36.5 -279.5v-84zM489 969q-75 0 -127.5 -46.5t-78.5 -119.5t-33 -172h452v8q0 156 -55.5 243t-157.5 87z" />
    <glyph glyph-name="Ecaron" unicode="&#x11a;" horiz-adv-x="917" 
d="M150 0v1462h653v-149h-490v-486h451v-149h-451v-528h502v-150h-665zM213 1845h123l151 -198l148 198h125l-193 -299h-159z" />
    <glyph glyph-name="ecaron" unicode="&#x11b;" horiz-adv-x="942" 
d="M856 494h-606q16 -381 305 -381q110 0 193 34l22 -133q-104 -39 -223 -39q-114 0 -202.5 42.5t-144 119t-84 178.5t-28.5 224q0 251 108.5 409t295.5 158q126 0 208.5 -66.5t119 -182t36.5 -279.5v-84zM489 969q-75 0 -127.5 -46.5t-78.5 -119.5t-33 -172h448v8
q0 157 -53.5 243.5t-155.5 86.5zM217 1571h123l152 -238l147 238h125l-193 -336h-159z" />
    <glyph glyph-name="Gcircumflex" unicode="&#x11c;" horiz-adv-x="1185" 
d="M1010 1434l-39 -150q-112 53 -260 53q-92 0 -167 -30.5t-127.5 -84.5t-88 -131t-52 -168t-16.5 -196q0 -101 16.5 -190t51.5 -165t87 -130.5t126.5 -85.5t165.5 -31q102 0 178 29v485h-230v149h394v-733q-67 -36 -162 -58t-189 -22q-189 0 -326.5 97t-206.5 266t-69 391
t69 391.5t209.5 268t336.5 98.5q164 0 299 -53zM944 1548h-123l-149 201l-150 -201h-125l193 299h160z" />
    <glyph glyph-name="gcircumflex" unicode="&#x11d;" horiz-adv-x="1028" 
d="M248 561q0 -88 12.5 -159.5t39.5 -129t74 -89t111 -31.5q119 0 184.5 115t65.5 294q0 180 -65.5 294t-184.5 114q-118 0 -177.5 -114t-59.5 -294zM731 70v127h-4q-40 -89 -111 -136t-155 -47q-118 0 -204 74t-127.5 196t-41.5 277q0 154 43.5 276.5t129.5 195.5t202 73
q86 0 156 -42.5t108 -127.5h4v145h156v-1020q0 -230 -113 -345t-317 -115q-154 0 -262 43l32 141q110 -47 230 -47q274 0 274 332zM788 1237h-122l-150 238l-149 -238h-125l192 336h160z" />
    <glyph glyph-name="Gbreve" unicode="&#x11e;" horiz-adv-x="1185" 
d="M1010 1434l-39 -150q-112 53 -260 53q-92 0 -167 -30.5t-127.5 -84.5t-88 -131t-52 -168t-16.5 -196q0 -101 16.5 -190t51.5 -165t87 -130.5t126.5 -85.5t165.5 -31q102 0 178 29v485h-230v149h394v-733q-67 -36 -162 -58t-189 -22q-189 0 -326.5 97t-206.5 266t-69 391
t69 391.5t209.5 268t336.5 98.5q164 0 299 -53zM815 1860h115q-3 -130 -63 -210.5t-191 -80.5q-65 0 -114 23t-78.5 64t-44.5 92t-17 112h115q2 -81 33 -124.5t106 -43.5q73 0 102.5 42t36.5 126z" />
    <glyph glyph-name="gbreve" unicode="&#x11f;" horiz-adv-x="1028" 
d="M248 561q0 -88 12.5 -159.5t39.5 -129t74 -89t111 -31.5q119 0 184.5 115t65.5 294q0 180 -65.5 294t-184.5 114q-118 0 -177.5 -114t-59.5 -294zM731 70v127h-4q-40 -89 -111 -136t-155 -47q-118 0 -204 74t-127.5 196t-41.5 277q0 154 43.5 276.5t129.5 195.5t202 73
q86 0 156 -42.5t108 -127.5h4v145h156v-1020q0 -230 -113 -345t-317 -115q-154 0 -262 43l32 141q110 -47 230 -47q274 0 274 332zM631 1532h114q-2 -62 -15.5 -112t-41.5 -91.5t-78 -64.5t-118 -23q-65 0 -114 23t-78.5 64t-44.5 92t-17 112h114q2 -81 33.5 -124.5
t106.5 -43.5q73 0 102.5 42t36.5 126z" />
    <glyph glyph-name="Gdotaccent" unicode="&#x120;" horiz-adv-x="1185" 
d="M1010 1434l-39 -150q-112 53 -260 53q-92 0 -167 -30.5t-127.5 -84.5t-88 -131t-52 -168t-16.5 -196q0 -101 16.5 -190t51.5 -165t87 -130.5t126.5 -85.5t165.5 -31q102 0 178 29v485h-230v149h394v-733q-67 -36 -162 -58t-189 -22q-189 0 -326.5 97t-206.5 266t-69 391
t69 391.5t209.5 268t336.5 98.5q164 0 299 -53zM770 1806v-200h-182v200h182z" />
    <glyph glyph-name="gdotaccent" unicode="&#x121;" horiz-adv-x="1028" 
d="M248 561q0 -88 12.5 -159.5t39.5 -129t74 -89t111 -31.5q119 0 184.5 115t65.5 294q0 180 -65.5 294t-184.5 114q-118 0 -177.5 -114t-59.5 -294zM731 70v127h-4q-40 -89 -111 -136t-155 -47q-118 0 -204 74t-127.5 196t-41.5 277q0 154 43.5 276.5t129.5 195.5t202 73
q86 0 156 -42.5t108 -127.5h4v145h156v-1020q0 -230 -113 -345t-317 -115q-154 0 -262 43l32 141q110 -47 230 -47q274 0 274 332zM588 1481v-201h-182v201h182z" />
    <glyph glyph-name="Gcommaaccent" unicode="&#x122;" horiz-adv-x="1185" 
d="M1010 1434l-39 -150q-112 53 -260 53q-92 0 -167 -30.5t-127.5 -84.5t-88 -131t-52 -168t-16.5 -196q0 -101 16.5 -190t51.5 -165t87 -130.5t126.5 -85.5t165.5 -31q102 0 178 29v485h-230v149h394v-733q-67 -36 -162 -58t-189 -22q-189 0 -326.5 97t-206.5 266t-69 391
t69 391.5t209.5 268t336.5 98.5q164 0 299 -53zM750 -119l-132 -319h-116l78 319h170z" />
    <glyph glyph-name="gcommaaccent" unicode="&#x123;" horiz-adv-x="1028" 
d="M248 561q0 -88 12.5 -159.5t39.5 -129t74 -89t111 -31.5q119 0 184.5 115t65.5 294q0 180 -65.5 294t-184.5 114q-118 0 -177.5 -114t-59.5 -294zM731 70v127h-4q-40 -89 -111 -136t-155 -47q-118 0 -204 74t-127.5 196t-41.5 277q0 154 43.5 276.5t129.5 195.5t202 73
q86 0 156 -42.5t108 -127.5h4v145h156v-1020q0 -230 -113 -345t-317 -115q-154 0 -262 43l32 141q110 -47 230 -47q274 0 274 332zM397 1237l135 336h115l-80 -336h-170z" />
    <glyph glyph-name="Hcircumflex" unicode="&#x124;" horiz-adv-x="1169" 
d="M150 0v1462h163v-635h543v635h164v-1462h-164v678h-543v-678h-163zM858 1548h-123l-149 201l-150 -201h-125l193 299h160z" />
    <glyph glyph-name="hcircumflex" unicode="&#x125;" horiz-adv-x="1011" 
d="M141 1505h160v-563h4q85 164 256 164q152 0 236 -106t84 -287v-713h-160v647q0 162 -41.5 242t-151.5 80q-97 0 -162 -89.5t-65 -267.5v-612h-160v1505zM756 1624h-123l-150 201l-149 -201h-125l192 299h160z" />
    <glyph glyph-name="Hbar" unicode="&#x126;" horiz-adv-x="1169" 
d="M1126 1257v-120h-106v-1137h-164v678h-543v-678h-163v1137h-107v120h107v205h163v-205h543v205h164v-205h106zM313 827h543v310h-543v-310z" />
    <glyph glyph-name="hbar" unicode="&#x127;" horiz-adv-x="1011" 
d="M451 1352v-119h-150v-291h4q85 164 256 164q152 0 236 -106t84 -287v-713h-160v647q0 162 -41.5 242t-151.5 80q-97 0 -162 -89.5t-65 -267.5v-612h-160v1233h-110v119h110v153h160v-153h150z" />
    <glyph glyph-name="Itilde" unicode="&#x128;" horiz-adv-x="462" 
d="M150 0v1462h163v-1462h-163zM250 1755q39 -39 60 -54t42 -15q62 0 62 139h104q0 -71 -13.5 -126t-51.5 -93.5t-97 -38.5q-40 0 -72 16t-73 55q-40 40 -59.5 54t-38.5 14q-62 0 -62 -139h-106q0 71 13.5 125.5t52 93.5t98.5 39q38 0 69.5 -15.5t71.5 -54.5z" />
    <glyph glyph-name="itilde" unicode="&#x129;" horiz-adv-x="444" 
d="M141 1081h160v-1081h-160v1081zM240 1450q40 -40 61 -55t41 -15q61 0 61 140h105q0 -71 -13.5 -126t-51.5 -93.5t-97 -38.5q-40 0 -72 16t-73 55q-39 39 -59.5 53.5t-39.5 14.5q-61 0 -61 -139h-107q0 71 13.5 125.5t52 93.5t98.5 39q38 0 70 -16t72 -54z" />
    <glyph glyph-name="Imacron" unicode="&#x12a;" horiz-adv-x="462" 
d="M150 0v1462h163v-1462h-163zM442 1763v-131h-419v131h419z" />
    <glyph glyph-name="imacron" unicode="&#x12b;" horiz-adv-x="444" 
d="M141 1081h160v-1081h-160v1081zM432 1438v-131h-422v131h422z" />
    <glyph glyph-name="Ibreve" unicode="&#x12c;" horiz-adv-x="462" 
d="M150 0v1462h163v-1462h-163zM371 1860h114q-3 -130 -63 -210.5t-191 -80.5q-65 0 -114 23t-78.5 64t-44.5 92t-17 112h115q2 -81 33 -124.5t106 -43.5q73 0 103 42t37 126z" />
    <glyph glyph-name="ibreve" unicode="&#x12d;" horiz-adv-x="444" 
d="M141 1081h160v-1081h-160v1081zM360 1532h115q-3 -130 -63 -210.5t-191 -80.5q-65 0 -114 23t-78.5 64t-44.5 92t-17 112h115q2 -81 33 -124.5t106 -43.5q73 0 102.5 42t36.5 126z" />
    <glyph glyph-name="Iogonek" unicode="&#x12e;" horiz-adv-x="462" 
d="M150 0v1462h163v-1462h-63q-62 -84 -84.5 -135t-22.5 -98q0 -42 20.5 -62t55.5 -20q38 0 88 16l10 -96q-58 -25 -127 -25q-70 0 -117.5 41t-47.5 121q0 65 27.5 124t97.5 134z" />
    <glyph glyph-name="iogonek" unicode="&#x12f;" horiz-adv-x="444" 
d="M141 1081h160v-1081h-35q-62 -84 -84 -135t-22 -98q0 -42 20.5 -62t55.5 -20q38 0 88 16l10 -96q-58 -25 -127 -25q-70 0 -118 41t-48 121q0 65 27.5 124t97.5 134h-25v1081zM137 1489h170v-180h-170v180z" />
    <glyph glyph-name="Idotaccent" unicode="&#x130;" horiz-adv-x="462" 
d="M150 0v1462h163v-1462h-163zM324 1806v-200h-183v200h183z" />
    <glyph glyph-name="dotlessi" unicode="&#x131;" horiz-adv-x="444" 
d="M141 1081h160v-1081h-160v1081z" />
    <glyph glyph-name="Jcircumflex" unicode="&#x134;" horiz-adv-x="657" 
d="M526 1462v-1132q0 -164 -86.5 -259.5t-255.5 -95.5q-80 0 -139 15v149q52 -14 119 -14q103 0 150.5 51.5t47.5 153.5v1132h164zM719 1548h-123l-150 201l-149 -201h-125l193 299h159z" />
    <glyph glyph-name="jcircumflex" unicode="&#x135;" horiz-adv-x="444" 
d="M301 1081v-1171q0 -309 -281 -309q-56 0 -108 6v137q46 -6 86 -6q84 0 113.5 45t29.5 145v1153h160zM492 1237h-123l-150 238l-149 -238h-125l192 336h160z" />
    <glyph glyph-name="Kcommaaccent" unicode="&#x136;" horiz-adv-x="1003" 
d="M750 1462h200l-465 -698l506 -764h-203l-471 733h-4v-733h-163v1462h163v-684h4zM598 -119l-131 -319h-117l78 319h170z" />
    <glyph glyph-name="kcommaaccent" unicode="&#x137;" horiz-adv-x="856" 
d="M639 1081h195l-371 -483l387 -598h-197l-348 567h-4v-567h-160v1505h160v-891h4zM537 -119l-131 -319h-117l78 319h170z" />
    <glyph glyph-name="kgreenlandic" unicode="&#x138;" horiz-adv-x="856" 
d="M639 1081h195l-371 -483l387 -598h-197l-348 567h-4v-567h-160v1081h160v-467h4z" />
    <glyph glyph-name="Lacute" unicode="&#x139;" horiz-adv-x="858" 
d="M150 0v1462h163v-1312h508v-150h-671zM467 1837l-180 -274h-121l129 274h172z" />
    <glyph glyph-name="lacute" unicode="&#x13a;" horiz-adv-x="442" 
d="M141 1505h160v-1505h-160v1505zM451 1913l-181 -275h-120l129 275h172z" />
    <glyph glyph-name="Lcommaaccent" unicode="&#x13b;" horiz-adv-x="858" 
d="M150 0v1462h163v-1312h508v-150h-671zM541 -119l-131 -319h-117l78 319h170z" />
    <glyph glyph-name="lcommaaccent" unicode="&#x13c;" horiz-adv-x="442" 
d="M141 1505h160v-1505h-160v1505zM311 -119l-131 -319h-117l78 319h170z" />
    <glyph glyph-name="Lcaron" unicode="&#x13d;" horiz-adv-x="858" 
d="M150 0v1462h163v-1312h508v-150h-671zM606 1573l-65 -336h-101l19 336h147z" />
    <glyph glyph-name="lcaron" unicode="&#x13e;" horiz-adv-x="442" 
d="M141 1505h160v-1505h-160v1505zM567 1573l-65 -336h-101l19 336h147z" />
    <glyph glyph-name="Ldot" unicode="&#x13f;" horiz-adv-x="878" 
d="M150 0v1462h163v-1312h508v-150h-671zM762 891v-201h-182v201h182z" />
    <glyph glyph-name="ldot" unicode="&#x140;" horiz-adv-x="649" 
d="M141 1505h160v-1505h-160v1505zM637 891v-201h-182v201h182z" />
    <glyph glyph-name="Lslash" unicode="&#x141;" horiz-adv-x="858" 
d="M150 0v645l-109 -88v127l109 86v692h163v-573l174 141v-127l-174 -141v-612h508v-150h-671z" />
    <glyph glyph-name="lslash" unicode="&#x142;" horiz-adv-x="442" 
d="M141 1505h160v-528l111 100v-121l-111 -100v-856h-160v727l-108 -96v121l108 96v657z" />
    <glyph glyph-name="Nacute" unicode="&#x143;" horiz-adv-x="1179" 
d="M401 1462l471 -1274h5v1274h153v-1462h-246l-475 1284h-4v-1284h-155v1462h251zM807 1837l-180 -274h-121l129 274h172z" />
    <glyph glyph-name="nacute" unicode="&#x144;" horiz-adv-x="1011" 
d="M141 1081h156v-139h4q72 164 264 164q152 0 234 -105.5t82 -287.5v-713h-160v647q0 162 -41.5 242t-151.5 80q-97 0 -162 -89.5t-65 -267.5v-612h-160v1081zM762 1573l-199 -336h-117l150 336h166z" />
    <glyph glyph-name="Ncommaaccent" unicode="&#x145;" horiz-adv-x="1179" 
d="M401 1462l471 -1274h5v1274h153v-1462h-246l-475 1284h-4v-1284h-155v1462h251zM682 -119l-131 -319h-117l78 319h170z" />
    <glyph glyph-name="ncommaaccent" unicode="&#x146;" horiz-adv-x="1011" 
d="M141 1081h156v-139h4q72 164 264 164q152 0 234 -105.5t82 -287.5v-713h-160v647q0 162 -41.5 242t-151.5 80q-97 0 -162 -89.5t-65 -267.5v-612h-160v1081zM590 -119l-131 -319h-117l78 319h170z" />
    <glyph glyph-name="Ncaron" unicode="&#x147;" horiz-adv-x="1179" 
d="M401 1462l471 -1274h5v1274h153v-1462h-246l-475 1284h-4v-1284h-155v1462h251zM332 1845h123l151 -198l148 198h125l-193 -299h-160z" />
    <glyph glyph-name="ncaron" unicode="&#x148;" horiz-adv-x="1011" 
d="M141 1081h156v-139h4q72 164 264 164q152 0 234 -105.5t82 -287.5v-713h-160v647q0 162 -41.5 242t-151.5 80q-97 0 -162 -89.5t-65 -267.5v-612h-160v1081zM270 1571h123l152 -238l147 238h125l-192 -336h-160z" />
    <glyph glyph-name="Eng" unicode="&#x14a;" horiz-adv-x="1179" 
d="M401 1462l471 -1274h5v1274h153v-1550q0 -153 -78 -232t-207 -79q-60 0 -104 8v137q41 -8 92 -8q79 0 108 45.5t29 138.5v78h-86l-475 1284h-4v-1284h-155v1462h251z" />
    <glyph glyph-name="eng" unicode="&#x14b;" horiz-adv-x="1011" 
d="M141 1081h156v-139h4q72 164 264 164q152 0 234 -105.5t82 -287.5v-809q0 -147 -73 -225t-204 -78q-52 0 -96 8v137q39 -8 80 -8q77 0 105 45t28 139v725q0 162 -41.5 242t-151.5 80q-97 0 -162 -89.5t-65 -267.5v-612h-160v1081z" />
    <glyph glyph-name="Omacron" unicode="&#x14c;" horiz-adv-x="1251" 
d="M1155 729q0 -166 -32.5 -303t-96.5 -238t-166 -157t-233 -56q-132 0 -234.5 56t-166.5 157t-97 238t-33 303q0 133 20.5 248t63 209t105 161t149.5 103.5t193 36.5q105 0 192 -36.5t149 -103.5t104 -161.5t62.5 -209t20.5 -247.5zM991 729q0 130 -19.5 236.5t-61.5 192
t-114 132.5t-169 47q-98 0 -170.5 -47t-114.5 -132.5t-62 -192t-20 -236.5q0 -129 20 -235t62 -190.5t114.5 -131.5t170.5 -47q97 0 169 47t114 131.5t61.5 190.5t19.5 235zM844 1763v-131h-420v131h420z" />
    <glyph glyph-name="omacron" unicode="&#x14d;" horiz-adv-x="999" 
d="M911 543q0 -265 -109 -416.5t-302 -151.5t-302.5 151.5t-109.5 416.5q0 264 109.5 413.5t302.5 149.5t302 -149.5t109 -413.5zM752 543q0 198 -61.5 312t-190.5 114t-190.5 -114t-61.5 -312q0 -199 62 -314.5t190 -115.5q129 0 190.5 115t61.5 315zM711 1438v-131h-422
v131h422z" />
    <glyph glyph-name="Obreve" unicode="&#x14e;" horiz-adv-x="1251" 
d="M1155 729q0 -166 -32.5 -303t-96.5 -238t-166 -157t-233 -56q-132 0 -234.5 56t-166.5 157t-97 238t-33 303q0 133 20.5 248t63 209t105 161t149.5 103.5t193 36.5q105 0 192 -36.5t149 -103.5t104 -161.5t62.5 -209t20.5 -247.5zM991 729q0 130 -19.5 236.5t-61.5 192
t-114 132.5t-169 47q-98 0 -170.5 -47t-114.5 -132.5t-62 -192t-20 -236.5q0 -129 20 -235t62 -190.5t114.5 -131.5t170.5 -47q97 0 169 47t114 131.5t61.5 190.5t19.5 235zM772 1860h115q-3 -130 -63 -210.5t-191 -80.5q-65 0 -114 23t-78.5 64t-44.5 92t-17 112h115
q2 -81 33 -124.5t106 -43.5q73 0 102.5 42t36.5 126z" />
    <glyph glyph-name="obreve" unicode="&#x14f;" horiz-adv-x="999" 
d="M911 543q0 -265 -109 -416.5t-302 -151.5t-302.5 151.5t-109.5 416.5q0 264 109.5 413.5t302.5 149.5t302 -149.5t109 -413.5zM752 543q0 198 -61.5 312t-190.5 114t-190.5 -114t-61.5 -312q0 -199 62 -314.5t190 -115.5q129 0 190.5 115t61.5 315zM639 1532h115
q-3 -130 -63 -210.5t-191 -80.5q-65 0 -114 23t-78.5 64t-44.5 92t-17 112h114q2 -81 33.5 -124.5t106.5 -43.5q73 0 102.5 42t36.5 126z" />
    <glyph glyph-name="Ohungarumlaut" unicode="&#x150;" horiz-adv-x="1251" 
d="M1155 729q0 -166 -32.5 -303t-96.5 -238t-166 -157t-233 -56q-132 0 -234.5 56t-166.5 157t-97 238t-33 303q0 133 20.5 248t63 209t105 161t149.5 103.5t193 36.5q105 0 192 -36.5t149 -103.5t104 -161.5t62.5 -209t20.5 -247.5zM991 729q0 130 -19.5 236.5t-61.5 192
t-114 132.5t-169 47q-98 0 -170.5 -47t-114.5 -132.5t-62 -192t-20 -236.5q0 -129 20 -235t62 -190.5t114.5 -131.5t170.5 -47q97 0 169 47t114 131.5t61.5 190.5t19.5 235zM707 1843l-150 -280h-113l97 280h166zM963 1843l-175 -280h-116l114 280h177z" />
    <glyph glyph-name="ohungarumlaut" unicode="&#x151;" horiz-adv-x="999" 
d="M911 543q0 -265 -109 -416.5t-302 -151.5t-302.5 151.5t-109.5 416.5q0 264 109.5 413.5t302.5 149.5t302 -149.5t109 -413.5zM752 543q0 198 -61.5 312t-190.5 114t-190.5 -114t-61.5 -312q0 -199 62 -314.5t190 -115.5q129 0 190.5 115t61.5 315zM598 1573l-172 -336
h-109l119 336h162zM852 1573l-195 -336h-110l135 336h170z" />
    <glyph glyph-name="OE" unicode="&#x152;" horiz-adv-x="1585" 
d="M717 0q-156 0 -273.5 51t-191.5 147t-111 229t-37 302q0 349 157.5 541t455.5 192h753v-149h-489v-486h451v-149h-451v-528h502v-150h-766zM268 729q0 -579 449 -579h100v1163h-100q-226 0 -337.5 -154.5t-111.5 -429.5z" />
    <glyph glyph-name="oe" unicode="&#x153;" horiz-adv-x="1595" 
d="M1509 494h-606q16 -381 305 -381q110 0 193 34l22 -133q-104 -39 -223 -39q-258 0 -371 218q-105 -218 -329 -218q-193 0 -302.5 151.5t-109.5 416.5q0 264 109.5 413.5t302.5 149.5q225 0 329 -209q50 104 131.5 156.5t184.5 52.5q126 0 208.5 -66.5t119 -182
t36.5 -279.5v-84zM752 543q0 198 -61.5 312t-190.5 114t-190.5 -114t-61.5 -312q0 -199 62 -314.5t190 -115.5q129 0 190.5 115t61.5 315zM1143 969q-75 0 -128 -46.5t-79 -119.5t-33 -172h453v8q0 156 -55.5 243t-157.5 87z" />
    <glyph glyph-name="Racute" unicode="&#x154;" horiz-adv-x="1052" 
d="M150 0v1462h415q169 0 271 -96t102 -291q0 -126 -56.5 -216.5t-160.5 -123.5v-4q66 -20 103.5 -80.5t68.5 -193.5q50 -221 108 -457h-172q-14 61 -47.5 220t-44.5 206q-18 73 -33 111.5t-43 69t-69.5 40.5t-110.5 10h-168v-657h-163zM313 1313v-506h201q123 0 191.5 63.5
t68.5 194.5q0 74 -20.5 125.5t-57.5 77t-77 35.5t-91 10h-215zM721 1837l-180 -274h-121l129 274h172z" />
    <glyph glyph-name="racute" unicode="&#x155;" horiz-adv-x="600" 
d="M588 1102l-8 -139q-27 6 -72 6q-94 0 -150.5 -79t-56.5 -257v-633h-160v1081h156v-139h4q32 86 85.5 125t137.5 39q39 0 64 -4zM573 1573l-198 -336h-117l150 336h165z" />
    <glyph glyph-name="Rcommaaccent" unicode="&#x156;" horiz-adv-x="1052" 
d="M150 0v1462h415q169 0 271 -96t102 -291q0 -126 -56.5 -216.5t-160.5 -123.5v-4q66 -20 103.5 -80.5t68.5 -193.5q50 -221 108 -457h-172q-14 61 -47.5 220t-44.5 206q-18 73 -33 111.5t-43 69t-69.5 40.5t-110.5 10h-168v-657h-163zM313 1313v-506h201q123 0 191.5 63.5
t68.5 194.5q0 74 -20.5 125.5t-57.5 77t-77 35.5t-91 10h-215zM629 -119l-131 -319h-117l78 319h170z" />
    <glyph glyph-name="rcommaaccent" unicode="&#x157;" horiz-adv-x="600" 
d="M588 1102l-8 -139q-27 6 -72 6q-94 0 -150.5 -79t-56.5 -257v-633h-160v1081h156v-139h4q32 86 85.5 125t137.5 39q39 0 64 -4zM322 -119l-132 -319h-116l78 319h170z" />
    <glyph glyph-name="Rcaron" unicode="&#x158;" horiz-adv-x="1052" 
d="M150 0v1462h415q169 0 271 -96t102 -291q0 -126 -56.5 -216.5t-160.5 -123.5v-4q66 -20 103.5 -80.5t68.5 -193.5q50 -221 108 -457h-172q-14 61 -47.5 220t-44.5 206q-18 73 -33 111.5t-43 69t-69.5 40.5t-110.5 10h-168v-657h-163zM313 1313v-506h201q123 0 191.5 63.5
t68.5 194.5q0 74 -20.5 125.5t-57.5 77t-77 35.5t-91 10h-215zM258 1845h123l151 -198l148 198h125l-193 -299h-159z" />
    <glyph glyph-name="rcaron" unicode="&#x159;" horiz-adv-x="600" 
d="M588 1102l-8 -139q-27 6 -72 6q-94 0 -150.5 -79t-56.5 -257v-633h-160v1081h156v-139h4q32 86 85.5 125t137.5 39q39 0 64 -4zM66 1571h122l152 -238l147 238h125l-192 -336h-160z" />
    <glyph glyph-name="Sacute" unicode="&#x15a;" horiz-adv-x="921" 
d="M778 1438l-35 -150q-113 49 -235 49q-46 0 -88 -12t-79 -36.5t-59 -69t-22 -103.5q0 -97 52.5 -162.5t181.5 -130.5q87 -44 145.5 -84t106 -92t70 -117t22.5 -147q0 -104 -35.5 -184.5t-95.5 -128t-132.5 -71.5t-152.5 -24q-178 0 -332 68l37 152q155 -70 289 -70
q120 0 189 64t69 184q0 105 -62.5 170.5t-205.5 138.5q-155 79 -232.5 178t-77.5 242q0 80 25 146t66 109.5t95.5 73.5t111.5 43t116 13q149 0 268 -49zM698 1837l-180 -274h-121l129 274h172z" />
    <glyph glyph-name="sacute" unicode="&#x15b;" horiz-adv-x="780" 
d="M651 1061l-33 -133q-89 41 -194 41q-72 0 -124 -37t-52 -117q0 -66 37.5 -109.5t134.5 -87.5q68 -31 114 -59.5t86.5 -68t60 -91.5t19.5 -118q0 -81 -30.5 -142.5t-81 -95.5t-109 -51t-121.5 -17q-132 0 -276 60l35 137q130 -59 243 -59q82 0 133.5 38.5t51.5 122.5
q0 71 -47 119t-152 94q-122 54 -188 128.5t-66 185.5q0 77 29 137.5t77 96t104 53.5t116 18q135 0 233 -45zM643 1573l-199 -336h-116l149 336h166z" />
    <glyph glyph-name="Scircumflex" unicode="&#x15c;" horiz-adv-x="921" 
d="M778 1438l-35 -150q-113 49 -235 49q-46 0 -88 -12t-79 -36.5t-59 -69t-22 -103.5q0 -97 52.5 -162.5t181.5 -130.5q87 -44 145.5 -84t106 -92t70 -117t22.5 -147q0 -104 -35.5 -184.5t-95.5 -128t-132.5 -71.5t-152.5 -24q-178 0 -332 68l37 152q155 -70 289 -70
q120 0 189 64t69 184q0 105 -62.5 170.5t-205.5 138.5q-155 79 -232.5 178t-77.5 242q0 80 25 146t66 109.5t95.5 73.5t111.5 43t116 13q149 0 268 -49zM741 1548h-123l-149 201l-150 -201h-124l192 299h160z" />
    <glyph glyph-name="scircumflex" unicode="&#x15d;" horiz-adv-x="780" 
d="M651 1061l-33 -133q-89 41 -194 41q-72 0 -124 -37t-52 -117q0 -66 37.5 -109.5t134.5 -87.5q68 -31 114 -59.5t86.5 -68t60 -91.5t19.5 -118q0 -81 -30.5 -142.5t-81 -95.5t-109 -51t-121.5 -17q-132 0 -276 60l35 137q130 -59 243 -59q82 0 133.5 38.5t51.5 122.5
q0 71 -47 119t-152 94q-122 54 -188 128.5t-66 185.5q0 77 29 137.5t77 96t104 53.5t116 18q135 0 233 -45zM680 1237h-123l-149 238l-150 -238h-125l193 336h159z" />
    <glyph glyph-name="Scedilla" unicode="&#x15e;" horiz-adv-x="921" 
d="M778 1438l-35 -150q-113 49 -235 49q-46 0 -88 -12t-79 -36.5t-59 -69t-22 -103.5q0 -97 52.5 -162.5t181.5 -130.5q87 -44 145.5 -84t106 -92t70 -117t22.5 -147q0 -97 -31.5 -174t-85 -125t-119.5 -75t-141 -32l-15 -96q24 4 54 4q61 0 99 -38t38 -109
q0 -87 -56.5 -131.5t-144.5 -44.5q-64 0 -108 12l8 92q40 -6 80 -6q98 0 98 70q0 67 -92 67q-30 0 -76 -4l19 184q-154 11 -275 66l37 152q155 -70 289 -70q120 0 189 64t69 184q0 105 -62.5 170.5t-205.5 138.5q-155 79 -232.5 178t-77.5 242q0 80 25 146t66 109.5
t95.5 73.5t111.5 43t116 13q149 0 268 -49z" />
    <glyph glyph-name="scedilla" unicode="&#x15f;" horiz-adv-x="780" 
d="M651 1061l-33 -133q-89 41 -194 41q-72 0 -124 -37t-52 -117q0 -66 37.5 -109.5t134.5 -87.5q68 -31 114 -59.5t86.5 -68t60 -91.5t19.5 -118q0 -72 -24.5 -128.5t-66.5 -91t-91 -54t-106 -25.5l-15 -101q24 4 54 4q61 0 99 -38t38 -109q0 -87 -56.5 -131.5t-144.5 -44.5
q-65 0 -108 12l8 92q41 -6 80 -6q98 0 98 70q0 67 -92 67q-30 0 -76 -4l20 187q-121 6 -235 55l35 137q130 -59 243 -59q82 0 133.5 38.5t51.5 122.5q0 71 -47 119t-152 94q-122 54 -188 128.5t-66 185.5q0 77 29 137.5t77 96t104 53.5t116 18q135 0 233 -45z" />
    <glyph glyph-name="Scaron" unicode="&#x160;" horiz-adv-x="921" 
d="M778 1438l-35 -150q-113 49 -235 49q-46 0 -88 -12t-79 -36.5t-59 -69t-22 -103.5q0 -97 52.5 -162.5t181.5 -130.5q87 -44 145.5 -84t106 -92t70 -117t22.5 -147q0 -104 -35.5 -184.5t-95.5 -128t-132.5 -71.5t-152.5 -24q-178 0 -332 68l37 152q155 -70 289 -70
q120 0 189 64t69 184q0 105 -62.5 170.5t-205.5 138.5q-155 79 -232.5 178t-77.5 242q0 80 25 146t66 109.5t95.5 73.5t111.5 43t116 13q149 0 268 -49zM211 1845h123l151 -198l148 198h125l-193 -299h-159z" />
    <glyph glyph-name="scaron" unicode="&#x161;" horiz-adv-x="780" 
d="M651 1061l-33 -133q-89 41 -194 41q-72 0 -124 -37t-52 -117q0 -66 37.5 -109.5t134.5 -87.5q68 -31 114 -59.5t86.5 -68t60 -91.5t19.5 -118q0 -81 -30.5 -142.5t-81 -95.5t-109 -51t-121.5 -17q-132 0 -276 60l35 137q130 -59 243 -59q82 0 133.5 38.5t51.5 122.5
q0 71 -47 119t-152 94q-122 54 -188 128.5t-66 185.5q0 77 29 137.5t77 96t104 53.5t116 18q135 0 233 -45zM135 1571h123l152 -238l147 238h125l-193 -336h-159z" />
    <glyph glyph-name="uni0162" unicode="&#x162;" horiz-adv-x="921" 
d="M383 0v1313h-342v149h840v-149h-334v-1313h-164zM559 -119l-131 -319h-117l78 319h170z" />
    <glyph glyph-name="uni0163" unicode="&#x163;" horiz-adv-x="591" 
d="M37 944v137h153v273h160v-273h201v-137h-201v-647q0 -105 24.5 -139.5t86.5 -34.5q38 0 92 8v-131q-63 -14 -131 -14q-129 0 -180.5 74t-51.5 227v657h-153zM457 -119l-131 -319h-117l78 319h170z" />
    <glyph glyph-name="Tcaron" unicode="&#x164;" horiz-adv-x="921" 
d="M383 0v1313h-342v149h840v-149h-334v-1313h-164zM195 1845h122l152 -198l147 198h125l-192 -299h-160z" />
    <glyph glyph-name="tcaron" unicode="&#x165;" horiz-adv-x="591" 
d="M37 944v137h153v273h160v-273h201v-137h-201v-647q0 -105 24.5 -139.5t86.5 -34.5q38 0 92 8v-131q-63 -14 -131 -14q-129 0 -180.5 74t-51.5 227v657h-153zM668 1573l-66 -336h-100l18 336h148z" />
    <glyph glyph-name="Tbar" unicode="&#x166;" horiz-adv-x="921" 
d="M729 889v-109h-182v-780h-164v780h-182v109h182v424h-342v149h840v-149h-334v-424h182z" />
    <glyph glyph-name="tbar" unicode="&#x167;" horiz-adv-x="591" 
d="M47 944v137h154v273h159v-273h201v-137h-201v-334h152v-98h-152v-215q0 -105 24.5 -139.5t86.5 -34.5q38 0 92 8v-131q-63 -14 -131 -14q-129 0 -180 74t-51 227v225h-127v98h127v334h-154z" />
    <glyph glyph-name="Utilde" unicode="&#x168;" horiz-adv-x="1138" 
d="M999 1462v-1030q0 -208 -109 -332.5t-323 -124.5q-212 0 -320 124.5t-108 332.5v1030h164v-1011q0 -165 61 -245.5t203 -80.5q269 0 269 326v1011h163zM588 1755q39 -39 60 -54t42 -15q62 0 62 139h104q0 -71 -13.5 -126t-51.5 -93.5t-97 -38.5q-40 0 -72 16t-73 55
q-40 40 -59.5 54t-38.5 14q-62 0 -62 -139h-106q0 52 8 95.5t25.5 81.5t50.5 59.5t79 21.5q38 0 70 -16t72 -54z" />
    <glyph glyph-name="utilde" unicode="&#x169;" horiz-adv-x="1011" 
d="M870 0h-155v139h-4q-72 -164 -265 -164q-152 0 -233.5 106t-81.5 288v712h160v-647q0 -162 41 -241.5t151 -79.5q97 0 162.5 89t65.5 267v612h159v-1081zM528 1450q40 -40 61 -55t42 -15q61 0 61 140h105q0 -71 -13.5 -126t-51.5 -93.5t-97 -38.5q-41 0 -73.5 16
t-72.5 55q-40 40 -59.5 54t-38.5 14q-61 0 -61 -139h-107q0 71 13.5 125.5t52 93.5t98.5 39q38 0 69.5 -15.5t71.5 -54.5z" />
    <glyph glyph-name="Umacron" unicode="&#x16a;" horiz-adv-x="1138" 
d="M999 1462v-1030q0 -208 -109 -332.5t-323 -124.5q-212 0 -320 124.5t-108 332.5v1030h164v-1011q0 -165 61 -245.5t203 -80.5q269 0 269 326v1011h163zM780 1763v-131h-420v131h420z" />
    <glyph glyph-name="umacron" unicode="&#x16b;" horiz-adv-x="1011" 
d="M870 0h-155v139h-4q-72 -164 -265 -164q-152 0 -233.5 106t-81.5 288v712h160v-647q0 -162 41 -241.5t151 -79.5q97 0 162.5 89t65.5 267v612h159v-1081zM719 1438v-131h-422v131h422z" />
    <glyph glyph-name="Ubreve" unicode="&#x16c;" horiz-adv-x="1138" 
d="M999 1462v-1030q0 -208 -109 -332.5t-323 -124.5q-212 0 -320 124.5t-108 332.5v1030h164v-1011q0 -165 61 -245.5t203 -80.5q269 0 269 326v1011h163zM709 1860h114q-3 -130 -63 -210.5t-191 -80.5q-65 0 -114 23t-78.5 64t-44.5 92t-17 112h115q2 -81 33 -124.5
t106 -43.5q73 0 103 42t37 126z" />
    <glyph glyph-name="ubreve" unicode="&#x16d;" horiz-adv-x="1011" 
d="M870 0h-155v139h-4q-72 -164 -265 -164q-152 0 -233.5 106t-81.5 288v712h160v-647q0 -162 41 -241.5t151 -79.5q97 0 162.5 89t65.5 267v612h159v-1081zM647 1532h115q-3 -130 -63 -210.5t-191 -80.5q-65 0 -114 23t-78.5 64t-44.5 92t-17 112h115q2 -81 33 -124.5
t106 -43.5q73 0 102.5 42t36.5 126z" />
    <glyph glyph-name="Uring" unicode="&#x16e;" horiz-adv-x="1138" 
d="M999 1462v-1030q0 -208 -109 -332.5t-323 -124.5q-212 0 -320 124.5t-108 332.5v1030h164v-1011q0 -165 61 -245.5t203 -80.5q269 0 269 326v1011h163zM573 1942q84 0 144.5 -61.5t60.5 -145.5q0 -88 -60.5 -148.5t-146.5 -60.5q-88 0 -149.5 60.5t-61.5 148.5
q0 86 62 146.5t151 60.5zM569 1855q-51 0 -87 -35t-36 -85q0 -53 36 -89t89 -36q51 0 86 36t35 89q0 51 -36 85.5t-87 34.5z" />
    <glyph glyph-name="uring" unicode="&#x16f;" horiz-adv-x="1011" 
d="M870 0h-155v139h-4q-72 -164 -265 -164q-152 0 -233.5 106t-81.5 288v712h160v-647q0 -162 41 -241.5t151 -79.5q97 0 162.5 89t65.5 267v612h159v-1081zM510 1632q84 0 144.5 -61.5t60.5 -145.5q0 -87 -60.5 -147.5t-146.5 -60.5q-88 0 -149.5 60.5t-61.5 147.5
q0 86 62 146.5t151 60.5zM506 1546q-51 0 -87 -35.5t-36 -85.5q0 -53 36.5 -89t88.5 -36q51 0 86 36t35 89q0 51 -36 86t-87 35z" />
    <glyph glyph-name="Uhungarumlaut" unicode="&#x170;" horiz-adv-x="1138" 
d="M999 1462v-1030q0 -208 -109 -332.5t-323 -124.5q-212 0 -320 124.5t-108 332.5v1030h164v-1011q0 -165 61 -245.5t203 -80.5q269 0 269 326v1011h163zM639 1843l-150 -280h-112l96 280h166zM895 1843l-174 -280h-117l115 280h176z" />
    <glyph glyph-name="uhungarumlaut" unicode="&#x171;" horiz-adv-x="1011" 
d="M870 0h-155v139h-4q-72 -164 -265 -164q-152 0 -233.5 106t-81.5 288v712h160v-647q0 -162 41 -241.5t151 -79.5q97 0 162.5 89t65.5 267v612h159v-1081zM596 1573l-172 -336h-109l119 336h162zM850 1573l-195 -336h-110l135 336h170z" />
    <glyph glyph-name="Uogonek" unicode="&#x172;" horiz-adv-x="1138" 
d="M999 1462v-1030q0 -185 -87 -304.5t-257 -145.5q-54 -73 -73 -121.5t-19 -93.5q0 -42 20.5 -62t55.5 -20q38 0 88 16l10 -96q-58 -25 -127 -25q-70 0 -118 41t-48 121q0 60 22.5 114t80.5 119q-202 7 -305 130.5t-103 326.5v1030h164v-1011q0 -165 61 -245.5t203 -80.5
q269 0 269 326v1011h163z" />
    <glyph glyph-name="uogonek" unicode="&#x173;" horiz-adv-x="1011" 
d="M870 0h-55q-62 -84 -84 -135t-22 -98q0 -82 75 -82q38 0 88 16l11 -96q-58 -25 -127 -25q-70 0 -118 41t-48 121q0 65 27.5 124t97.5 134v139h-4q-72 -164 -265 -164q-152 0 -233.5 106t-81.5 288v712h160v-647q0 -162 41 -241.5t151 -79.5q97 0 162.5 89t65.5 267v612
h159v-1081z" />
    <glyph glyph-name="Wcircumflex" unicode="&#x174;" horiz-adv-x="1558" 
d="M993 0l-213 1286h-4l-213 -1286h-221l-264 1462h170l205 -1259h4l209 1259h227l211 -1259h4l207 1259h166l-267 -1462h-221zM1055 1548h-123l-150 201l-149 -201h-125l192 299h160z" />
    <glyph glyph-name="wcircumflex" unicode="&#x175;" horiz-adv-x="1345" 
d="M784 1081l166 -931h4l168 931h168l-235 -1081h-205l-174 938h-4l-176 -938h-207l-234 1081h172l168 -931h4l164 931h221zM948 1237h-123l-149 238l-150 -238h-125l193 336h160z" />
    <glyph glyph-name="Ycircumflex" unicode="&#x176;" horiz-adv-x="1034" 
d="M436 0v596l-428 866h189l323 -696l324 696h182l-426 -866v-596h-164zM795 1548h-123l-150 201l-149 -201h-125l192 299h160z" />
    <glyph glyph-name="ycircumflex" unicode="&#x177;" horiz-adv-x="872" 
d="M190 1081l248 -860h4l244 860h168l-471 -1480h-164l135 415l-336 1065h172zM719 1237h-123l-150 238l-149 -238h-125l193 336h159z" />
    <glyph glyph-name="Ydieresis" unicode="&#x178;" horiz-adv-x="1034" 
d="M436 0v596l-428 866h189l323 -696l324 696h182l-426 -866v-596h-164zM457 1810v-192h-162v192h162zM745 1810v-192h-159v192h159z" />
    <glyph glyph-name="Zacute" unicode="&#x179;" horiz-adv-x="987" 
d="M86 150l623 1163h-572v149h756v-147l-627 -1165h647v-150h-827v150zM723 1837l-180 -274h-121l129 274h172z" />
    <glyph glyph-name="zacute" unicode="&#x17a;" horiz-adv-x="817" 
d="M84 125l463 819h-430v137h602v-131l-461 -813h477v-137h-651v125zM651 1573l-198 -336h-117l149 336h166z" />
    <glyph glyph-name="Zdotaccent" unicode="&#x17b;" horiz-adv-x="987" 
d="M86 150l623 1163h-572v149h756v-147l-627 -1165h647v-150h-827v150zM612 1806v-200h-182v200h182z" />
    <glyph glyph-name="zdotaccent" unicode="&#x17c;" horiz-adv-x="817" 
d="M84 125l463 819h-430v137h602v-131l-461 -813h477v-137h-651v125zM518 1481v-201h-182v201h182z" />
    <glyph glyph-name="Zcaron" unicode="&#x17d;" horiz-adv-x="987" 
d="M86 150l623 1163h-572v149h756v-147l-627 -1165h647v-150h-827v150zM248 1845h123l151 -198l148 198h125l-193 -299h-160z" />
    <glyph glyph-name="zcaron" unicode="&#x17e;" horiz-adv-x="817" 
d="M84 125l463 819h-430v137h602v-131l-461 -813h477v-137h-651v125zM152 1571h122l152 -238l147 238h125l-192 -336h-160z" />
    <glyph glyph-name="florin" unicode="&#x192;" horiz-adv-x="874" 
d="M733 690h-217l-78 -645q-9 -71 -27.5 -126.5t-51 -101t-84 -69.5t-119.5 -24q-85 0 -140 24l29 143q43 -18 105 -18q61 0 92.5 44.5t44.5 156.5l73 616h-198v137h215l43 342q8 64 29.5 120t57 101t89.5 71t121 26q85 0 147 -27l-41 -143q-50 20 -106 20q-70 0 -102.5 -50
t-45.5 -159l-37 -301h201v-137z" />
    <glyph glyph-name="Scommaaccent" unicode="&#x218;" horiz-adv-x="921" 
d="M778 1438l-35 -150q-113 49 -235 49q-46 0 -88 -12t-79 -36.5t-59 -69t-22 -103.5q0 -97 52.5 -162.5t181.5 -130.5q87 -44 145.5 -84t106 -92t70 -117t22.5 -147q0 -104 -35.5 -184.5t-95.5 -128t-132.5 -71.5t-152.5 -24q-178 0 -332 68l37 152q155 -70 289 -70
q120 0 189 64t69 184q0 105 -62.5 170.5t-205.5 138.5q-155 79 -232.5 178t-77.5 242q0 80 25 146t66 109.5t95.5 73.5t111.5 43t116 13q149 0 268 -49zM547 -119l-131 -319h-117l78 319h170z" />
    <glyph glyph-name="scommaaccent" unicode="&#x219;" horiz-adv-x="780" 
d="M651 1061l-33 -133q-89 41 -194 41q-72 0 -124 -37t-52 -117q0 -66 37.5 -109.5t134.5 -87.5q68 -31 114 -59.5t86.5 -68t60 -91.5t19.5 -118q0 -81 -30.5 -142.5t-81 -95.5t-109 -51t-121.5 -17q-132 0 -276 60l35 137q130 -59 243 -59q82 0 133.5 38.5t51.5 122.5
q0 71 -47 119t-152 94q-122 54 -188 128.5t-66 185.5q0 77 29 137.5t77 96t104 53.5t116 18q135 0 233 -45zM492 -119l-132 -319h-116l78 319h170z" />
    <glyph glyph-name="uni021A" unicode="&#x21a;" horiz-adv-x="921" 
d="M383 0v1313h-342v149h840v-149h-334v-1313h-164zM559 -119l-131 -319h-117l78 319h170z" />
    <glyph glyph-name="uni021B" unicode="&#x21b;" horiz-adv-x="591" 
d="M37 944v137h153v273h160v-273h201v-137h-201v-647q0 -105 24.5 -139.5t86.5 -34.5q38 0 92 8v-131q-63 -14 -131 -14q-129 0 -180.5 74t-51.5 227v657h-153zM457 -119l-131 -319h-117l78 319h170z" />
    <glyph glyph-name="dotlessj" unicode="&#x237;" horiz-adv-x="444" 
d="M301 1081v-1171q0 -309 -281 -309q-56 0 -108 6v137q46 -6 86 -6q84 0 113.5 45t29.5 145v1153h160z" />
    <glyph glyph-name="circumflex" unicode="&#x2c6;" horiz-adv-x="782" 
d="M664 1237h-123l-150 238l-149 -238h-125l192 336h160z" />
    <glyph glyph-name="caron" unicode="&#x2c7;" horiz-adv-x="782" 
d="M117 1571h123l151 -238l148 238h125l-193 -336h-160z" />
    <glyph glyph-name="uni02C9" unicode="&#x2c9;" horiz-adv-x="782" 
d="M602 1571v-131h-422v131h422z" />
    <glyph glyph-name="breve" unicode="&#x2d8;" horiz-adv-x="782" 
d="M530 1532h115q-3 -130 -63 -210.5t-191 -80.5q-65 0 -114 23t-78.5 64t-44.5 92t-17 112h115q2 -81 33 -124.5t106 -43.5q73 0 102.5 42t36.5 126z" />
    <glyph glyph-name="dotaccent" unicode="&#x2d9;" horiz-adv-x="782" 
d="M489 1481v-201h-182v201h182z" />
    <glyph glyph-name="ring" unicode="&#x2da;" horiz-adv-x="782" 
d="M393 1632q84 0 144.5 -61.5t60.5 -145.5q0 -87 -60 -147.5t-147 -60.5q-88 0 -149.5 60.5t-61.5 147.5q0 86 62 146.5t151 60.5zM389 1546q-51 0 -87 -35.5t-36 -85.5q0 -53 36 -89t89 -36q51 0 86 36t35 89q0 51 -36 86t-87 35z" />
    <glyph glyph-name="ogonek" unicode="&#x2db;" horiz-adv-x="782" 
d="M393 18h96q-70 -92 -95 -147t-25 -104q0 -82 75 -82q38 0 88 16l11 -96q-58 -25 -127 -25q-70 0 -118 41t-48 121q0 68 31 130.5t112 145.5z" />
    <glyph glyph-name="tilde" unicode="&#x2dc;" horiz-adv-x="782" 
d="M412 1450q40 -40 61 -55t41 -15q61 0 61 140h105q0 -71 -13.5 -126t-51.5 -93.5t-97 -38.5q-40 0 -72 16t-73 55q-39 39 -59.5 53.5t-39.5 14.5q-61 0 -61 -139h-107q0 71 13.5 125.5t52 93.5t98.5 39q38 0 70 -16t72 -54z" />
    <glyph glyph-name="hungarumlaut" unicode="&#x2dd;" horiz-adv-x="782" 
d="M465 1573l-172 -336h-109l119 336h162zM719 1573l-195 -336h-110l135 336h170z" />
    <glyph glyph-name="uni0394" unicode="&#x394;" horiz-adv-x="1185" 
d="M1108 0h-1030v143l409 1319h213l408 -1319v-143zM590 1325l-338 -1175h682l-340 1175h-4z" />
    <glyph glyph-name="uni03A9" unicode="&#x3a9;" horiz-adv-x="1236" 
d="M618 1337q-117 0 -200.5 -67t-123.5 -178t-40 -254q0 -200 70 -327t229 -179v-332h-447v150h302v100q-318 139 -318 575q0 158 39.5 284.5t109.5 208.5t166.5 125.5t212.5 43.5q167 0 288 -85t181 -230.5t60 -333.5q0 -238 -81.5 -378.5t-236.5 -209.5v-100h301v-150
h-446v332q299 94 299 491q0 139 -32.5 243t-87 161t-116 83.5t-129.5 26.5z" />
    <glyph glyph-name="uni03BC" unicode="&#x3bc;" horiz-adv-x="1077" 
d="M745 170h-4q-27 -77 -99 -136t-163 -59q-124 0 -174 66h-4v-440h-160v1480h160v-647q0 -162 41.5 -241.5t151.5 -79.5q97 0 162 89t65 267v612h160v-819q0 -79 15 -109t60 -30q9 0 39 6v-131q-30 -12 -71 -12q-79 0 -121.5 42t-54.5 128z" />
    <glyph glyph-name="pi" unicode="&#x3c0;" horiz-adv-x="1140" 
d="M874 938v-647q0 -99 24.5 -133.5t82.5 -34.5q36 0 63 6v-131q-58 -12 -98 -12q-119 0 -172 67.5t-53 231.5v653h-289l-82 -938h-160l93 938h-201v143h987v-143h-195z" />
    <glyph glyph-name="Wgrave" unicode="&#x1e80;" horiz-adv-x="1558" 
d="M993 0l-213 1286h-4l-213 -1286h-221l-264 1462h170l205 -1259h4l209 1259h227l211 -1259h4l207 1259h166l-267 -1462h-221zM559 1837h172l125 -274h-119z" />
    <glyph glyph-name="wgrave" unicode="&#x1e81;" horiz-adv-x="1345" 
d="M784 1081l166 -931h4l168 931h168l-235 -1081h-205l-174 938h-4l-176 -938h-207l-234 1081h172l168 -931h4l164 931h221zM643 1237l-199 336h166l150 -336h-117z" />
    <glyph glyph-name="Wacute" unicode="&#x1e82;" horiz-adv-x="1558" 
d="M993 0l-213 1286h-4l-213 -1286h-221l-264 1462h170l205 -1259h4l209 1259h227l211 -1259h4l207 1259h166l-267 -1462h-221zM999 1837l-180 -274h-121l129 274h172z" />
    <glyph glyph-name="wacute" unicode="&#x1e83;" horiz-adv-x="1345" 
d="M784 1081l166 -931h4l168 931h168l-235 -1081h-205l-174 938h-4l-176 -938h-207l-234 1081h172l168 -931h4l164 931h221zM915 1573l-198 -336h-117l150 336h165z" />
    <glyph glyph-name="Wdieresis" unicode="&#x1e84;" horiz-adv-x="1558" 
d="M993 0l-213 1286h-4l-213 -1286h-221l-264 1462h170l205 -1259h4l209 1259h227l211 -1259h4l207 1259h166l-267 -1462h-221zM717 1810v-192h-162v192h162zM1006 1810v-192h-160v192h160z" />
    <glyph glyph-name="wdieresis" unicode="&#x1e85;" horiz-adv-x="1345" 
d="M784 1081l166 -931h4l168 931h168l-235 -1081h-205l-174 938h-4l-176 -938h-207l-234 1081h172l168 -931h4l164 931h221zM612 1475v-193h-161v193h161zM901 1475v-193h-160v193h160z" />
    <glyph glyph-name="Ygrave" unicode="&#x1ef2;" horiz-adv-x="1034" 
d="M436 0v596l-428 866h189l323 -696l324 696h182l-426 -866v-596h-164zM326 1837h172l125 -274h-119z" />
    <glyph glyph-name="ygrave" unicode="&#x1ef3;" horiz-adv-x="872" 
d="M190 1081l248 -860h4l244 860h168l-471 -1480h-164l135 415l-336 1065h172zM391 1237l-198 336h165l150 -336h-117z" />
    <glyph glyph-name="endash" unicode="&#x2013;" horiz-adv-x="839" 
d="M784 674v-119h-729v119h729z" />
    <glyph glyph-name="emdash" unicode="&#x2014;" horiz-adv-x="1331" 
d="M1276 674v-119h-1221v119h1221z" />
    <glyph glyph-name="quoteleft" unicode="&#x2018;" horiz-adv-x="477" 
d="M362 1505l-73 -454h-174l135 454h112z" />
    <glyph glyph-name="quoteright" unicode="&#x2019;" horiz-adv-x="477" 
d="M115 1049l73 456h174l-135 -456h-112z" />
    <glyph glyph-name="quotesinglbase" unicode="&#x201a;" horiz-adv-x="477" 
d="M115 -283l73 455h174l-135 -455h-112z" />
    <glyph glyph-name="quotedblleft" unicode="&#x201c;" horiz-adv-x="720" 
d="M606 1505l-74 -456h-163l129 456h108zM360 1505l-81 -456h-164l137 456h108z" />
    <glyph glyph-name="quotedblright" unicode="&#x201d;" horiz-adv-x="720" 
d="M115 1051l73 454h164l-129 -454h-108zM360 1051l82 454h164l-137 -454h-109z" />
    <glyph glyph-name="quotedblbase" unicode="&#x201e;" horiz-adv-x="720" 
d="M115 -283l73 455h164l-129 -455h-108zM360 -283l82 455h164l-137 -455h-109z" />
    <glyph glyph-name="dagger" unicode="&#x2020;" horiz-adv-x="878" 
d="M518 1368v-391h309v-148h-309v-1087h-156v1087h-311v148h311v391h156z" />
    <glyph glyph-name="daggerdbl" unicode="&#x2021;" horiz-adv-x="876" 
d="M516 1368v-369h297v-147h-297v-596h297v-147h-297v-367h-156v367h-297v147h297v596h-297v147h297v369h156z" />
    <glyph glyph-name="bullet" unicode="&#x2022;" horiz-adv-x="931" 
d="M129 674q0 140 98.5 239t237.5 99q141 0 239.5 -99t98.5 -239t-98.5 -238t-239.5 -98q-139 0 -237.5 98t-98.5 238z" />
    <glyph glyph-name="ellipsis" unicode="&#x2026;" horiz-adv-x="1431" 
d="M145 0v207h187v-207h-187zM623 0v207h186v-207h-186zM1100 0v207h186v-207h-186z" />
    <glyph glyph-name="perthousand" unicode="&#x2030;" horiz-adv-x="1906" 
d="M1092 1462l-734 -1462h-114l737 1462h111zM1239 381q0 -179 -62.5 -280t-179.5 -101t-179 100.5t-62 280.5q0 181 62 282t179 101t179.5 -101t62.5 -282zM1118 381q0 118 -30 192t-91 74t-90.5 -73.5t-29.5 -192.5q0 -116 29.5 -190t90.5 -74t91 74t30 190zM584 1081
q0 -179 -62.5 -280t-179.5 -101t-179.5 101t-62.5 280q0 181 62.5 282t179.5 101t179.5 -101t62.5 -282zM463 1081q0 119 -30 193t-91 74t-91 -74t-30 -193q0 -116 30 -190t91 -74t91 74t30 190zM1806 381q0 -180 -62 -280.5t-179 -100.5t-179.5 101t-62.5 280
q0 181 62.5 282t179.5 101t179 -101t62 -282zM1686 381q0 118 -30 192t-91 74t-91 -74t-30 -192q0 -116 30 -190t91 -74t91 74t30 190z" />
    <glyph glyph-name="guilsinglleft" unicode="&#x2039;" horiz-adv-x="577" 
d="M459 999l-197 -389l197 -391h-144l-196 385v10l200 385h140z" />
    <glyph glyph-name="guilsinglright" unicode="&#x203a;" horiz-adv-x="577" 
d="M119 219l196 389l-196 391h143l197 -385v-10l-201 -385h-139z" />
    <glyph glyph-name="fraction" unicode="&#x2044;" horiz-adv-x="202" 
d="M502 1462l-676 -1462h-117l676 1462h117z" />
    <glyph glyph-name="zero.superior" unicode="&#x2070;" 
d="M313 1769q136 0 204.5 -123t68.5 -335q0 -210 -68 -329.5t-205 -119.5q-138 0 -205 119t-67 330q0 213 67.5 335.5t204.5 122.5zM313 1653q-139 0 -139 -342q0 -332 139 -332q71 0 105.5 91.5t34.5 240.5q0 97 -13.5 171.5t-46 122.5t-80.5 48z" />
    <glyph glyph-name="four.superior" unicode="&#x2074;" 
d="M502 1755v-563h92v-117h-92v-198h-129v198h-322v133l256 547h195zM373 1192v446h-4l-207 -446h211z" />
    <glyph glyph-name="five.superior" unicode="&#x2075;" 
d="M428 1147q0 162 -160 162q-56 0 -155 -21l18 467h387v-121h-274l-11 -219q29 10 84 10q110 0 175 -72t65 -200q0 -141 -78 -216t-192 -75q-116 0 -209 41l37 117q94 -37 159 -37q68 0 111 40t43 124z" />
    <glyph glyph-name="six.superior" unicode="&#x2076;" 
d="M197 1368h4q22 41 59.5 64.5t81.5 23.5q107 0 167 -80.5t60 -210.5q0 -132 -69 -217.5t-176 -85.5q-75 0 -128.5 33t-82 92.5t-41.5 129t-13 155.5q0 222 76 359.5t223 137.5q80 0 138 -22l-23 -115q-52 19 -106 19q-46 0 -80 -22.5t-53 -63t-28 -89.5t-9 -108zM197 1186
q0 -83 30 -144t92 -61q58 0 88.5 50.5t30.5 133.5q0 78 -27 127t-85 49q-61 0 -95 -45.5t-34 -109.5z" />
    <glyph glyph-name="seven.superior" unicode="&#x2077;" 
d="M78 1634v121h475v-113q-192 -383 -217 -765h-135q24 355 221 757h-344z" />
    <glyph glyph-name="eight.superior" unicode="&#x2078;" 
d="M313 1270q-52 0 -91.5 -38t-39.5 -108t35 -106.5t96 -36.5q60 0 95.5 36.5t35.5 106.5q0 69 -40.5 107.5t-90.5 38.5zM309 1769q99 0 171.5 -62t72.5 -171q0 -75 -34.5 -124.5t-94.5 -70.5v-4q151 -59 151 -229q0 -118 -75 -182t-187 -64q-115 0 -189.5 64t-74.5 182
q0 88 43 142.5t111 76.5v4q-62 24 -96.5 76.5t-34.5 128.5q0 110 68.5 171.5t168.5 61.5zM313 1386q48 0 79.5 37t31.5 105q0 56 -30.5 90.5t-82.5 34.5t-81 -34t-29 -91q0 -68 31.5 -105t80.5 -37z" />
    <glyph glyph-name="nine.superior" unicode="&#x2079;" 
d="M428 1262h-4q-22 -41 -59.5 -64.5t-81.5 -23.5q-107 0 -167.5 80t-60.5 210q0 132 69.5 217.5t176.5 85.5q264 0 264 -409q0 -222 -76 -360t-223 -138q-95 0 -157 27l22 112q58 -20 127 -20q46 0 80 22.5t53 63t28 89.5t9 108zM428 1444q0 86 -30 145.5t-93 59.5
q-58 0 -88.5 -51t-30.5 -134q0 -78 27.5 -127t85.5 -49q61 0 95 46t34 110z" />
    <glyph glyph-name="zero.inferior" unicode="&#x2080;" 
d="M313 606q136 0 204.5 -123.5t68.5 -335.5q0 -210 -68 -329t-205 -119q-138 0 -205 118.5t-67 329.5q0 213 67.5 336t204.5 123zM313 489q-139 0 -139 -342q0 -331 139 -331q71 0 105.5 91t34.5 240q0 97 -13.5 171.5t-46 122.5t-80.5 48z" />
    <glyph glyph-name="one.inferior" unicode="&#x2081;" 
d="M414 592v-879h-133v738l-136 -76l-51 102l191 115h129z" />
    <glyph glyph-name="two.inferior" unicode="&#x2082;" 
d="M545 -164v-123h-469v123q196 216 263 321.5t67 192.5q0 62 -31 97.5t-86 35.5q-68 0 -148 -53l-53 98q99 78 213 78q106 0 172 -67t66 -187q0 -110 -63 -210t-247 -304v-2h316z" />
    <glyph glyph-name="three.inferior" unicode="&#x2083;" 
d="M170 106v115h84q70 0 109.5 36t39.5 103q0 60 -34 93.5t-93 33.5q-70 0 -147 -36l-41 108q103 47 205 47t173 -58.5t71 -168.5q0 -143 -136 -205v-4q70 -21 112 -75.5t42 -131.5q0 -127 -79.5 -195.5t-190.5 -68.5q-123 0 -215 49l43 113q85 -39 170 -39q60 0 99.5 36
t39.5 107q0 141 -168 141h-84z" />
    <glyph glyph-name="four.inferior" unicode="&#x2084;" 
d="M502 592v-563h92v-117h-92v-199h-129v199h-322v133l256 547h195zM373 29v446h-4l-207 -446h211z" />
    <glyph glyph-name="five.inferior" unicode="&#x2085;" 
d="M428 -16q0 161 -160 161q-61 0 -155 -20l18 467h387v-121h-274l-11 -219q29 10 84 10q110 0 175 -72t65 -200q0 -141 -78 -216t-192 -75q-116 0 -209 41l37 117q94 -37 159 -37q68 0 111 40t43 124z" />
    <glyph glyph-name="six.inferior" unicode="&#x2086;" 
d="M197 205h4q22 41 59.5 64.5t81.5 23.5q107 0 167 -80.5t60 -210.5q0 -132 -69 -217.5t-176 -85.5q-75 0 -128.5 33t-82 92.5t-41.5 129t-13 155.5q0 222 76 359.5t223 137.5q80 0 138 -22l-23 -115q-49 18 -106 18q-61 0 -100 -40.5t-54.5 -101t-15.5 -140.5zM197 23
q0 -83 30 -144t92 -61q58 0 88.5 50.5t30.5 133.5q0 78 -27 127t-85 49q-61 0 -95 -45.5t-34 -109.5z" />
    <glyph glyph-name="seven.inferior" unicode="&#x2087;" 
d="M78 471v121h475v-113q-191 -383 -217 -766h-135q24 357 221 758h-344z" />
    <glyph glyph-name="eight.inferior" unicode="&#x2088;" 
d="M313 106q-52 0 -91.5 -37.5t-39.5 -107.5t35 -106.5t96 -36.5q60 0 95.5 36.5t35.5 106.5q0 69 -40.5 107t-90.5 38zM309 606q99 0 171.5 -62t72.5 -171q0 -75 -34.5 -124.5t-94.5 -70.5v-4q151 -59 151 -229q0 -118 -75 -182t-187 -64q-115 0 -189.5 64t-74.5 182
q0 88 43 142.5t111 76.5v4q-62 24 -96.5 76.5t-34.5 128.5q0 110 68.5 171.5t168.5 61.5zM313 223q48 0 79.5 37t31.5 105q0 56 -30.5 90t-82.5 34t-81 -34t-29 -90q0 -68 31.5 -105t80.5 -37z" />
    <glyph glyph-name="nine.inferior" unicode="&#x2089;" 
d="M428 100h-4q-22 -41 -59.5 -64.5t-81.5 -23.5q-107 0 -167.5 80.5t-60.5 210.5q0 132 69.5 217.5t176.5 85.5q264 0 264 -409q0 -222 -76 -360t-223 -138q-95 0 -157 27l22 112q58 -20 127 -20q61 0 100 40.5t54.5 101t15.5 140.5zM428 283q0 86 -30 145t-93 59
q-58 0 -88.5 -50.5t-30.5 -133.5q0 -78 27.5 -127t85.5 -49q61 0 95 45.5t34 110.5z" />
    <glyph glyph-name="Euro" unicode="&#x20ac;" horiz-adv-x="983" 
d="M786 840h-430q-4 -37 -4 -115q0 -45 2 -68h394l-29 -120h-354q64 -412 423 -412q64 0 138 18l16 -147q-86 -21 -170 -21q-245 0 -390 146.5t-181 415.5h-148l31 120h104v70q0 67 5 113h-142l31 121h125q46 249 189 387.5t378 138.5q85 0 160 -21l-35 -143q-48 14 -123 14
q-332 0 -403 -376h440z" />
    <glyph glyph-name="afii61248" unicode="&#x2105;" horiz-adv-x="1292" 
d="M1206 315q0 -160 -67.5 -250t-192.5 -90q-126 0 -194 90t-68 250q0 161 68 250.5t194 89.5q125 0 192.5 -89.5t67.5 -250.5zM1077 315q0 232 -131 232q-133 0 -133 -232q0 -231 133 -231q131 0 131 231zM467 924l12 -107q-43 -14 -100 -14q-148 0 -220.5 92t-72.5 246
t75 248t218 94q52 0 96 -13l-16 -108q-35 12 -80 12q-80 0 -122 -65t-42 -168q0 -101 41.5 -165.5t122.5 -64.5q45 0 88 13zM1028 1462l-676 -1462h-116l675 1462h117z" />
    <glyph glyph-name="afii61289" unicode="&#x2113;" horiz-adv-x="704" 
d="M37 416q62 14 127 47q-4 74 -4 248q0 438 57 616t207 178q103 0 150 -81.5t47 -247.5q0 -252 -77.5 -444.5t-221.5 -309.5q7 -166 47.5 -232.5t107.5 -66.5q54 0 103 22l2 -135q-71 -22 -133 -22q-127 0 -189 81t-84 263q-65 -29 -139 -47v131zM319 713v-129
q164 197 164 596q0 78 -14 136t-47 58q-103 0 -103 -661z" />
    <glyph glyph-name="trademark" unicode="&#x2122;" horiz-adv-x="1531" 
d="M580 1462v-102h-164v-682h-113v682h-168v102h445zM1298 1462v-784h-102v649h-2l-156 -649h-114l-154 649h-2v-649h-102v784h172l143 -620h4l145 620h168z" />
    <glyph glyph-name="Omega" unicode="&#x2126;" horiz-adv-x="1236" 
d="M618 1337q-117 0 -200.5 -67t-123.5 -178t-40 -254q0 -200 70 -327t229 -179v-332h-447v150h302v100q-318 139 -318 575q0 158 39.5 284.5t109.5 208.5t166.5 125.5t212.5 43.5q167 0 288 -85t181 -230.5t60 -333.5q0 -238 -81.5 -378.5t-236.5 -209.5v-100h301v-150
h-446v332q299 94 299 491q0 139 -32.5 243t-87 161t-116 83.5t-129.5 26.5z" />
    <glyph glyph-name="estimated" unicode="&#x212e;" horiz-adv-x="1624" 
d="M1286 258h129q-54 -61 -110 -107t-132 -87.5t-174 -64t-213 -22.5q-113 0 -218.5 29t-195 87t-157 138.5t-105.5 189.5t-38 234q0 120 39.5 229t111 193t166 146.5t208 95.5t234.5 33q141 0 261.5 -39.5t204.5 -106.5t143.5 -155.5t87.5 -186t28 -198.5v-7h-1167l-16 -20
v-436q175 -158 426 -158q295 0 487 213zM1241 727l16 18v390q-92 86 -196.5 117.5t-229.5 31.5q-282 0 -458 -166v-373l16 -18h852z" />
    <glyph glyph-name="partialdiff" unicode="&#x2202;" horiz-adv-x="1003" 
d="M721 874q-59 180 -187 316t-303 213l97 102q278 -124 430.5 -369t152.5 -612q0 -251 -112.5 -400t-300.5 -149q-182 0 -295 139.5t-113 370.5q0 225 109.5 366.5t277.5 141.5q150 0 240 -119h4zM502 870q-111 0 -181.5 -106.5t-70.5 -278.5q0 -170 69.5 -271t182.5 -101
q114 0 183 105t69 282q0 167 -74 268.5t-178 101.5z" />
    <glyph glyph-name="Delta" unicode="&#x2206;" horiz-adv-x="1185" 
d="M1108 0h-1030v143l409 1319h213l408 -1319v-143zM590 1325l-338 -1175h682l-340 1175h-4z" />
    <glyph glyph-name="product" unicode="&#x220f;" horiz-adv-x="1230" 
d="M1073 1462v-1861h-164v1712h-587v-1712h-164v1861h915z" />
    <glyph glyph-name="summation" unicode="&#x2211;" horiz-adv-x="1058" 
d="M709 559l-459 -811h727v-147h-899v147l446 801l-432 764v149h862v-149h-680z" />
    <glyph glyph-name="minus" unicode="&#x2212;" horiz-adv-x="892" 
d="M819 582h-745v127h745v-127z" />
    <glyph glyph-name="uni2215" unicode="&#x2215;" horiz-adv-x="202" 
d="M502 1462l-676 -1462h-117l676 1462h117z" />
    <glyph glyph-name="uni2219" unicode="&#x2219;" horiz-adv-x="477" 
d="M145 516v207h187v-207h-187z" />
    <glyph glyph-name="radical" unicode="&#x221a;" horiz-adv-x="1003" 
d="M358 461l156 -719h4l305 1720h140l-353 -1861h-184l-176 733h-193v127h301z" />
    <glyph glyph-name="infinity" unicode="&#x221e;" horiz-adv-x="1468" 
d="M416 121q-139 0 -231.5 107t-92.5 278q0 166 93.5 271.5t236.5 105.5q105 0 191 -60.5t141 -185.5q108 246 299 246q136 0 229.5 -104t93.5 -281q0 -172 -95.5 -274.5t-236.5 -102.5q-223 0 -331 248q-49 -122 -125.5 -185t-171.5 -63zM1044 258q78 0 132.5 66.5
t54.5 179.5q0 104 -54.5 172.5t-136.5 68.5q-85 0 -141.5 -64t-97.5 -171q54 -138 114 -195t129 -57zM424 745q-82 0 -134 -69t-52 -176q0 -105 53.5 -173.5t136.5 -68.5q75 0 136 59.5t102 176.5q-54 135 -112 193t-130 58z" />
    <glyph glyph-name="integral" unicode="&#x222b;" horiz-adv-x="559" 
d="M188 -63v1175q0 162 64.5 256t189.5 94q65 0 111 -12l-14 -147q-37 12 -76 12q-63 0 -89 -51.5t-26 -157.5v-1174q0 -160 -67.5 -245.5t-196.5 -85.5q-53 0 -94 6l12 149q24 -8 72 -8q64 0 89 42.5t25 146.5z" />
    <glyph glyph-name="approxequal" unicode="&#x2248;" horiz-adv-x="892" 
d="M631 834q56 0 106 23.5t82 60.5v-142q-74 -71 -205 -71q-64 0 -124.5 25.5t-117 51t-110.5 25.5q-56 0 -106 -23.5t-82 -60.5v141q75 72 205 72q51 0 100 -16t81.5 -35t78.5 -35t92 -16zM631 461q56 0 106 23.5t82 60.5v-142q-74 -71 -205 -71q-64 0 -124.5 25.5t-117 51
t-110.5 25.5q-56 0 -106 -23.5t-82 -60.5v142q74 71 205 71q51 0 100 -16t81.5 -35t78.5 -35t92 -16z" />
    <glyph glyph-name="notequal" unicode="&#x2260;" horiz-adv-x="892" 
d="M819 399h-411l-129 -309h-129l131 309h-207v127h260l100 238h-360v127h415l134 313h125l-134 -313h205v-127h-258l-100 -238h358v-127z" />
    <glyph glyph-name="lessequal" unicode="&#x2264;" horiz-adv-x="892" 
d="M819 158h-745v127h745v-127zM819 360l-745 297v183l745 299v-135l-635 -250v-4l635 -254v-136z" />
    <glyph glyph-name="greaterequal" unicode="&#x2265;" horiz-adv-x="892" 
d="M819 158h-745v127h745v-127zM819 657l-745 -297v136l635 254v4l-635 250v135l745 -299v-183z" />
    <glyph glyph-name="lozenge" unicode="&#x25ca;" horiz-adv-x="770" 
d="M723 664l-264 -664h-144l-268 664l266 663h144zM383 1206l-211 -542l213 -543h4l209 541l-209 544h-6z" />
    <glyph glyph-name="f_i" unicode="&#xf001;" horiz-adv-x="1009" 
d="M852 1481l-10 -135q-113 22 -234 22q-130 0 -188 -52.5t-58 -164.5v-70h506v-1081h-159v944h-347v-944h-155v944h-178v137h178v72q0 162 101.5 257t299.5 95q127 0 244 -24z" />
    <glyph glyph-name="f_l" unicode="&#xf002;" horiz-adv-x="1009" 
d="M868 1477v-1477h-159v1362q-55 6 -107 6q-129 0 -184.5 -52t-55.5 -165v-70h185v-137h-185v-944h-155v944h-178v137h178v72q0 167 100.5 259.5t300.5 92.5q124 0 260 -28z" />
    <glyph glyph-name="uniF8FF" unicode="&#xf8ff;" horiz-adv-x="1048" 
d="M569 240h-114v137h114v-137zM555 479h-94l-4 35q0 115 26 166q28 54 95 121q63 60 82.5 94.5t19.5 75.5q0 73 -46 123.5t-110 50.5q-67 0 -112 -47.5t-56 -147.5l-102 17q13 141 87 210.5t189 69.5q110 0 182 -74t72 -194q0 -69 -27 -123t-102 -123q-77 -68 -88 -106
q-12 -41 -12 -148zM102 102h844v1264h-844v-1264zM0 1470h1049v-1470h-1049v1470z" />
    <glyph glyph-name="commaaccent" horiz-adv-x="782" 
d="M512 -119l-131 -319h-117l78 319h170z" />
    <glyph glyph-name="zero.denominator" 
d="M313 893q136 0 204.5 -123.5t68.5 -335.5q0 -210 -68 -329t-205 -119q-138 0 -205 118.5t-67 329.5q0 213 67.5 336t204.5 123zM313 776q-139 0 -139 -342q0 -332 139 -332q71 0 105.5 91.5t34.5 240.5q0 97 -13.5 171.5t-46 122.5t-80.5 48z" />
    <glyph glyph-name="one.denominator" 
d="M414 879v-879h-133v737l-136 -75l-51 102l191 115h129z" />
    <glyph glyph-name="two.denominator" 
d="M545 123v-123h-469v123q196 216 263 321.5t67 192.5q0 62 -31 97.5t-86 35.5q-68 0 -148 -53l-53 98q99 78 213 78q106 0 172 -67t66 -187q0 -110 -63 -210t-247 -304v-2h316z" />
    <glyph glyph-name="three.denominator" 
d="M170 393v115h84q70 0 109.5 36t39.5 103q0 60 -34 93.5t-93 33.5q-67 0 -147 -37l-41 109q103 47 205 47t173 -58.5t71 -168.5q0 -143 -136 -205v-4q70 -21 112 -75.5t42 -131.5q0 -127 -79.5 -195.5t-190.5 -68.5q-123 0 -215 49l43 112q83 -38 170 -38q60 0 99.5 36
t39.5 107q0 141 -168 141h-84z" />
    <glyph glyph-name="four.denominator" 
d="M502 879v-564h92v-116h-92v-199h-129v199h-322v133l256 547h195zM373 315v447h-4l-207 -447h211z" />
    <glyph glyph-name="five.denominator" 
d="M428 270q0 162 -160 162q-61 0 -155 -20l18 467h387v-121h-274l-11 -219q29 10 84 10q110 0 175 -72.5t65 -200.5q0 -141 -78 -215.5t-192 -74.5q-116 0 -209 41l37 116q94 -37 159 -37q68 0 111 40t43 124z" />
    <glyph glyph-name="six.denominator" 
d="M197 492h4q22 41 59.5 64.5t81.5 23.5q107 0 167 -80.5t60 -210.5q0 -132 -69 -217.5t-176 -85.5q-75 0 -128.5 33t-82 92t-41.5 128.5t-13 155.5q0 222 76 360t223 138q77 0 138 -23l-23 -114q-49 18 -106 18q-61 0 -100 -40.5t-54.5 -101t-15.5 -140.5zM197 309
q0 -83 30 -144t92 -61q58 0 88.5 51t30.5 134q0 78 -27 127t-85 49q-61 0 -95 -45.5t-34 -110.5z" />
    <glyph glyph-name="seven.denominator" 
d="M78 758v121h475v-113q-191 -383 -217 -766h-135q24 357 221 758h-344z" />
    <glyph glyph-name="eight.denominator" 
d="M313 393q-52 0 -91.5 -37.5t-39.5 -107.5q0 -71 35 -107.5t96 -36.5q60 0 95.5 37t35.5 107q0 69 -40.5 107t-90.5 38zM309 893q99 0 171.5 -62.5t72.5 -171.5q0 -74 -34.5 -123.5t-94.5 -70.5v-4q151 -59 151 -230q0 -118 -75 -181.5t-187 -63.5q-115 0 -189.5 63.5
t-74.5 181.5q0 88 43 143t111 77v4q-62 24 -96.5 76t-34.5 128q0 110 68.5 172t168.5 62zM313 510q48 0 79.5 36.5t31.5 104.5q0 56 -30.5 90.5t-82.5 34.5t-81 -34t-29 -91q0 -68 31.5 -104.5t80.5 -36.5z" />
    <glyph glyph-name="nine.denominator" 
d="M428 387h-4q-22 -41 -59.5 -64.5t-81.5 -23.5q-107 0 -167.5 80.5t-60.5 210.5q0 132 69.5 217.5t176.5 85.5q264 0 264 -410q0 -222 -76 -359.5t-223 -137.5q-97 0 -157 26l22 113q61 -21 127 -21q46 0 80 22.5t53 63t28 89.5t9 108zM428 569q0 86 -30 145.5t-93 59.5
q-58 0 -88.5 -50.5t-30.5 -133.5q0 -78 27.5 -127t85.5 -49q61 0 95 45.5t34 109.5z" />
    <glyph glyph-name="zero.numerator" 
d="M313 1483q136 0 204.5 -123.5t68.5 -335.5q0 -210 -68 -329.5t-205 -119.5q-138 0 -205 119t-67 330q0 213 67.5 336t204.5 123zM313 1366q-139 0 -139 -342q0 -332 139 -332q71 0 105.5 91.5t34.5 240.5q0 97 -13.5 171.5t-46 122.5t-80.5 48z" />
    <glyph glyph-name="one.numerator" 
d="M414 1468v-878h-133v737l-136 -76l-51 103l191 114h129z" />
    <glyph glyph-name="two.numerator" 
d="M545 713v-123h-469v123q196 216 263 321.5t67 192.5q0 62 -31 97.5t-86 35.5q-68 0 -148 -53l-53 98q99 78 213 78q106 0 172 -67t66 -187q0 -110 -63 -210t-247 -304v-2h316z" />
    <glyph glyph-name="three.numerator" 
d="M170 983v115h84q70 0 109.5 36t39.5 103q0 60 -34 93.5t-93 33.5q-67 0 -147 -37l-41 109q103 47 205 47t173 -59t71 -169q0 -142 -136 -204v-4q70 -21 112 -75.5t42 -131.5q0 -127 -80 -196t-190 -69q-121 0 -215 50l43 112q85 -39 170 -39q60 0 99.5 36.5t39.5 107.5
q0 141 -168 141h-84z" />
    <glyph glyph-name="four.numerator" 
d="M502 1468v-563h92v-117h-92v-198h-129v198h-322v134l256 546h195zM373 905v447h-4l-207 -447h211z" />
    <glyph glyph-name="five.numerator" 
d="M428 860q0 162 -160 162q-56 0 -155 -21l18 467h387v-120h-274l-11 -220q32 11 84 11q110 0 175 -72.5t65 -200.5q0 -141 -78 -216t-192 -75q-116 0 -209 41l37 117q94 -37 159 -37q68 0 111 40t43 124z" />
    <glyph glyph-name="six.numerator" 
d="M197 1081h4q22 41 59.5 64.5t81.5 23.5q107 0 167 -80t60 -210q0 -132 -69 -218t-176 -86q-75 0 -128.5 33t-82 92.5t-41.5 129t-13 155.5q0 222 76 360t223 138q77 0 138 -23l-23 -114q-49 18 -106 18q-46 0 -80 -22.5t-53 -63t-28 -89.5t-9 -108zM197 899
q0 -83 30 -144t92 -61q58 0 88.5 51t30.5 134q0 78 -27 127t-85 49q-61 0 -95 -45.5t-34 -110.5z" />
    <glyph glyph-name="seven.numerator" 
d="M78 1348v120h475v-112q-191 -383 -217 -766h-135q24 357 221 758h-344z" />
    <glyph glyph-name="eight.numerator" 
d="M313 983q-52 0 -91.5 -37.5t-39.5 -107.5q0 -71 35 -107.5t96 -36.5q60 0 95.5 37t35.5 107q0 69 -40.5 107t-90.5 38zM309 1483q99 0 171.5 -62.5t72.5 -171.5q0 -74 -34.5 -123.5t-94.5 -70.5v-4q151 -59 151 -230q0 -118 -75 -182t-187 -64q-115 0 -189.5 64
t-74.5 182q0 88 43 142.5t111 76.5v4q-62 24 -96.5 76.5t-34.5 128.5q0 110 68.5 172t168.5 62zM313 1100q48 0 79.5 36.5t31.5 104.5q0 56 -30.5 90.5t-82.5 34.5t-81 -34t-29 -91q0 -68 31.5 -104.5t80.5 -36.5z" />
    <glyph glyph-name="nine.numerator" 
d="M428 975h-4q-22 -41 -59.5 -64.5t-81.5 -23.5q-107 0 -167.5 80.5t-60.5 210.5q0 132 69.5 217.5t176.5 85.5q264 0 264 -410q0 -222 -76 -360t-223 -138q-95 0 -157 27l22 113q61 -21 127 -21q46 0 80 22.5t53 63t28 89.5t9 108zM428 1157q0 86 -30 145.5t-93 59.5
q-58 0 -88.5 -50.5t-30.5 -133.5q0 -78 27.5 -127.5t85.5 -49.5q61 0 95 45.5t34 110.5z" />
    <glyph glyph-name="acute.cap" horiz-adv-x="782" 
d="M604 1837l-180 -274h-121l129 274h172z" />
    <glyph glyph-name="breve.cap" horiz-adv-x="782" 
d="M530 1860h115q-3 -130 -63 -210.5t-191 -80.5q-65 0 -114 23t-78.5 64t-44.5 92t-17 112h115q2 -81 33 -124.5t106 -43.5q73 0 102.5 42t36.5 126z" />
    <glyph glyph-name="caron.alt" horiz-adv-x="782" 
d="M489 1573l-65 -336h-100l18 336h147z" />
    <glyph glyph-name="caron.cap" horiz-adv-x="782" 
d="M117 1845h123l151 -198l148 198h125l-193 -299h-160z" />
    <glyph glyph-name="circumflex.cap" horiz-adv-x="782" 
d="M664 1548h-123l-150 201l-149 -201h-125l192 299h160z" />
    <glyph glyph-name="commaaccent.alt" horiz-adv-x="782" 
d="M264 1237l135 336h115l-80 -336h-170z" />
    <glyph glyph-name="dieresis.cap" horiz-adv-x="782" 
d="M328 1810v-192h-162v192h162zM616 1810v-192h-159v192h159z" />
    <glyph glyph-name="dotaccent.cap" horiz-adv-x="782" 
d="M489 1806v-200h-182v200h182z" />
    <glyph glyph-name="grave.cap" horiz-adv-x="782" 
d="M178 1837h172l125 -274h-119z" />
    <glyph glyph-name="hungarumlaut.cap" horiz-adv-x="782" 
d="M451 1843l-150 -280h-113l97 280h166zM707 1843l-175 -280h-116l114 280h177z" />
    <glyph glyph-name="macron.cap" horiz-adv-x="782" 
d="M598 1763v-131h-420v131h420z" />
    <glyph glyph-name="ring.cap" horiz-adv-x="782" 
d="M393 1942q84 0 144.5 -61.5t60.5 -145.5q0 -88 -60.5 -148.5t-146.5 -60.5q-88 0 -149.5 60.5t-61.5 148.5q0 86 62 146.5t151 60.5zM389 1855q-51 0 -87 -35t-36 -85q0 -53 36 -89t89 -36q51 0 86 36t35 89q0 51 -36 85.5t-87 34.5z" />
    <glyph glyph-name="tilde.cap" horiz-adv-x="782" 
d="M412 1755q39 -39 60 -54t42 -15q61 0 61 139h105q0 -71 -13.5 -126t-51.5 -93.5t-97 -38.5q-40 0 -72 16t-73 55q-39 39 -59.5 53.5t-39.5 14.5q-61 0 -61 -139h-107q0 71 13.5 125.5t52 93.5t98.5 39q38 0 70 -16t72 -54z" />
    <glyph glyph-name="cyrbreve" horiz-adv-x="782" 
d="M391 1241q-65 0 -114 23t-78.5 64t-44.5 92t-17 112h115q2 -81 33 -124.5t106 -43.5q73 0 102.5 42t36.5 126h115q-3 -130 -63 -210.5t-191 -80.5z" />
    <glyph glyph-name="cyrbreve.cap" horiz-adv-x="782" 
d="M391 1569q-65 0 -114 23t-78.5 64t-44.5 92t-17 112h115q2 -81 33 -124.5t106 -43.5q73 0 102.5 42t36.5 126h115q-3 -130 -63 -210.5t-191 -80.5z" />
    <glyph glyph-name="hyphen.cap" horiz-adv-x="675" 
d="M131 684v141h412v-141h-412z" />
    <glyph glyph-name="endash.cap" horiz-adv-x="839" 
d="M784 813v-119h-729v119h729z" />
    <glyph glyph-name="emdash.cap" horiz-adv-x="1331" 
d="M1276 813v-119h-1221v119h1221z" />
    <glyph glyph-name="colon.cap" horiz-adv-x="571" 
d="M193 190v207h186v-207h-186zM193 1067v205h186v-205h-186z" />
    <glyph glyph-name="registered.alt1" horiz-adv-x="1638" 
d="M193 727q0 -175 78.5 -320t223.5 -231t328 -86q180 0 324 86t222.5 231.5t78.5 319.5q0 176 -78.5 323.5t-222.5 235.5t-324 88q-137 0 -256 -51.5t-200.5 -139t-127.5 -206t-46 -250.5zM72 727q0 156 56 295t154 240t238.5 160t302.5 59q160 0 299.5 -59t236.5 -160
t152.5 -240t55.5 -295q0 -154 -55.5 -291t-152.5 -237t-236.5 -158.5t-299.5 -58.5q-162 0 -302.5 58.5t-238.5 158.5t-154 237t-56 291zM532 291v885h310q63 0 116 -12.5t97 -39t69 -75.5t25 -115q0 -78 -38.5 -133t-109.5 -78v-4q40 -15 64 -49.5t47 -112.5
q76 -249 82 -266h-164q-36 144 -61 231q-11 41 -20.5 62t-28.5 39.5t-48.5 25t-76.5 6.5h-119v-364h-144zM676 1051v-277h139q191 0 191 148q0 40 -16 67t-45 39.5t-59 17.5t-69 5h-141z" />
    <glyph glyph-name="zero.slash" horiz-adv-x="1036" 
d="M498 1487q103 0 180 -54.5t124.5 -156t71 -239.5t23.5 -312q0 -173 -23.5 -309.5t-71 -236t-124.5 -152t-180 -52.5q-105 0 -183.5 52.5t-127 152t-72 235.5t-23.5 310q0 234 41 401t133.5 264t231.5 97zM733 725q0 179 -20 305l-414 -713q61 -194 199 -194
q235 0 235 602zM498 1339q-242 0 -242 -614q0 -169 16 -276l412 710q-61 180 -186 180z" />
    <glyph glyph-name="zero.tnum" horiz-adv-x="987" 
d="M498 1487q103 0 180 -54.5t124.5 -156t71 -239.5t23.5 -312q0 -173 -23.5 -309.5t-71 -236t-124.5 -152t-180 -52.5q-105 0 -183.5 52.5t-127 152t-72 235.5t-23.5 310q0 234 41 401t133.5 264t231.5 97zM498 1339q-242 0 -242 -614q0 -602 242 -602q235 0 235 602
q0 614 -235 614z" />
    <glyph glyph-name="one.tnum" horiz-adv-x="987" 
d="M627 1462v-1462h-164v1292l-240 -151l-63 123l301 198h166z" />
    <glyph glyph-name="two.tnum" horiz-adv-x="987" 
d="M854 147v-147h-735v147q233 275 355 448t164 278.5t42 211.5q0 112 -58.5 183t-162.5 71q-133 0 -248 -94l-64 129q61 54 146.5 83.5t169.5 29.5q94 0 168 -31.5t120 -86t69.5 -125.5t23.5 -154q0 -80 -17 -152.5t-50 -147.5t-100 -173.5t-148.5 -204t-213.5 -265.5h539z
" />
    <glyph glyph-name="three.tnum" horiz-adv-x="987" 
d="M270 678v149h103q136 0 214.5 65.5t78.5 207.5q0 117 -67 178t-185 61q-127 0 -236 -59l-45 139q133 68 289 68q190 0 299.5 -101.5t109.5 -271.5q0 -136 -61.5 -226.5t-173.5 -127.5v-4q126 -23 196 -114.5t70 -229.5q0 -137 -61.5 -238t-162 -150t-226.5 -49
q-171 0 -306 66l44 143q132 -61 262 -61q127 0 206.5 72t79.5 213q0 270 -325 270h-103z" />
    <glyph glyph-name="four.tnum" horiz-adv-x="987" 
d="M778 1462v-962h148v-150h-148v-350h-160v350h-561v182l471 930h250zM618 500v817h-4l-415 -817h419z" />
    <glyph glyph-name="five.tnum" horiz-adv-x="987" 
d="M690 449q0 85 -23.5 146.5t-66.5 96t-96.5 50.5t-120.5 16q-93 0 -219 -27l24 731h596v-147h-450l-19 -420q66 10 113 10q189 0 307.5 -114t118.5 -332q0 -234 -121.5 -359t-314.5 -125q-170 0 -301 64l41 145q122 -61 256 -61q126 0 201 81t75 245z" />
    <glyph glyph-name="six.tnum" horiz-adv-x="987" 
d="M270 506q0 -73 13 -138.5t40.5 -121.5t76 -89.5t112.5 -33.5q110 0 169.5 95.5t59.5 256.5q0 98 -20 170.5t-70 119t-127 46.5q-115 0 -184.5 -89.5t-69.5 -215.5zM262 791h4q40 79 112 123t161 44q174 0 270 -133.5t96 -349.5q0 -221 -105.5 -360.5t-283.5 -139.5
q-101 0 -177 43t-120 109t-71.5 159.5t-36.5 179t-9 183.5q0 146 16.5 269.5t53.5 230t93 180.5t139.5 116t189.5 42q110 0 194 -33l-32 -141q-70 26 -160 26q-74 0 -131 -31t-92.5 -81.5t-60 -124t-35 -147.5t-15.5 -164z" />
    <glyph glyph-name="seven.tnum" horiz-adv-x="987" 
d="M121 1315v147h747v-147q-169 -309 -267.5 -657t-121.5 -658h-162q24 305 127 667t254 648h-577z" />
    <glyph glyph-name="eight.tnum" horiz-adv-x="987" 
d="M494 684q-47 0 -91 -17t-81 -50t-59.5 -89.5t-22.5 -128.5q0 -137 67 -206.5t187 -69.5t187 69.5t67 206.5q0 72 -22.5 128.5t-59.5 89.5t-81 50t-91 17zM489 1487q74 0 142 -25t122.5 -72t86.5 -123t32 -169q0 -130 -53 -213t-145 -117v-4q235 -102 235 -379
q0 -100 -32 -178.5t-88.5 -129t-131.5 -76.5t-163 -26q-184 0 -300 106.5t-116 303.5q0 78 20.5 143.5t56 109.5t74.5 72.5t84 45.5v4q-87 37 -143.5 124t-56.5 214q0 94 31 169.5t84 122.5t120 72t141 25zM492 827q99 0 160 68t61 203q0 110 -58.5 175.5t-165.5 65.5
q-101 0 -159 -66t-58 -175q0 -135 60.5 -203t159.5 -68z" />
    <glyph glyph-name="nine.tnum" horiz-adv-x="987" 
d="M717 956q0 73 -13 138.5t-40.5 121.5t-76 89.5t-112.5 33.5q-110 0 -169.5 -95.5t-59.5 -256.5q0 -98 20 -170.5t70 -119t127 -46.5q115 0 184.5 89.5t69.5 215.5zM725 672h-4q-84 -168 -272 -168q-174 0 -270.5 133.5t-96.5 349.5q0 221 105.5 360.5t283.5 139.5
q101 0 177 -43t120 -109t71.5 -159.5t36.5 -179t9 -183.5q0 -147 -16 -270t-53 -229.5t-93 -180.5t-140 -116t-190 -42q-115 0 -213 37l29 144q87 -33 182 -33q309 0 334 549z" />
    <glyph glyph-name="dollar.tnum" horiz-adv-x="987" 
d="M436 -160v178q-157 3 -293 66l33 133q137 -60 260 -63v532q-143 78 -214.5 169.5t-71.5 219.5q0 77 23 139.5t63.5 104t90 67.5t109.5 39v179h115v-166q133 -3 240 -49l-35 -129q-106 40 -205 43v-506q147 -75 221 -170.5t74 -227.5q0 -158 -83 -251.5t-212 -120.5v-187
h-115zM696 389q0 75 -36 129.5t-109 102.5v-453q69 25 107 81.5t38 139.5zM299 1087q0 -74 31 -127.5t106 -101.5v426q-137 -49 -137 -197z" />
    <glyph glyph-name="currency.tnum" horiz-adv-x="987" 
d="M186 664q0 87 41 155l-139 142l109 106l139 -141q75 43 158 43t155 -43l142 141l108 -106l-141 -142q43 -72 43 -155q0 -84 -43 -156l141 -141l-108 -107l-142 139q-68 -41 -155 -41t-158 41l-139 -139l-109 107l139 141q-41 68 -41 156zM328 664q0 -74 48 -124.5
t118 -50.5q69 0 117 50t48 125q0 74 -48 124t-117 50q-70 0 -118 -50t-48 -124z" />
    <glyph glyph-name="Euro.tnum" horiz-adv-x="987" 
d="M774 840h-389q-4 -37 -4 -115q0 -45 2 -68h352l-28 -120h-314q64 -412 424 -412q48 0 96 10l17 -147q-50 -13 -129 -13q-245 0 -390.5 147t-181.5 415h-147l31 120h104v70q0 76 4 113h-141l31 121h125q46 249 189 387.5t378 138.5q73 0 119 -12l-35 -144q-41 6 -82 6
q-333 0 -404 -376h400z" />
    <glyph glyph-name="cent.tnum" horiz-adv-x="987" 
d="M530 -137v125q-92 18 -159.5 66.5t-108.5 122t-60.5 163.5t-19.5 199q0 222 87.5 370t260.5 185v135h117v-123q62 0 127 -14l-20 -138q-50 15 -107 15v-856q65 0 121 16l16 -135q-74 -19 -137 -19v-112h-117zM342 539q0 -149 46.5 -257t141.5 -149v813
q-95 -41 -141.5 -149t-46.5 -258z" />
    <glyph glyph-name="sterling.tnum" horiz-adv-x="987" 
d="M868 1440l-47 -146q-88 43 -166 43q-105 0 -155.5 -76t-50.5 -217v-217h258v-120h-258v-557h452v-150h-788v150h172v557h-162v120h162v230q0 199 96 314.5t274 115.5q117 0 213 -47z" />
    <glyph glyph-name="florin.tnum" horiz-adv-x="987" 
d="M791 690h-218l-77 -645q-41 -321 -283 -321q-84 0 -139 24l28 143q43 -18 105 -18q61 0 92.5 44.5t44.5 156.5l74 616h-199v137h215l43 342q8 64 29.5 120t57 101t89.5 71t121 26q86 0 148 -27l-41 -143q-50 20 -107 20q-70 0 -102 -50t-45 -159l-37 -301h201v-137z" />
    <glyph glyph-name="yen.tnum" horiz-adv-x="987" 
d="M131 424h283v182h-283v121h242l-344 735h170l301 -686l291 686h165l-338 -735h236v-121h-283v-182h283v-121h-283v-303h-157v303h-283v121z" />
    </font>
</defs>
</svg>
