<?xml version="1.0" standalone="no"?>
<!DOCTYPE svg PUBLIC "-//W3C//DTD SVG 1.1//EN" "http://www.w3.org/Graphics/SVG/1.1/DTD/svg11.dtd" >
<svg xmlns="http://www.w3.org/2000/svg" xmlns:xlink="http://www.w3.org/1999/xlink" version="1.1">
<metadata>
Created by FontForge 20170731 at Wed Aug  4 13:29:04 2021
 By Aleksey,,,
Copyright (c) 2012 Linotype GmbH, www.linotype.com. All rights reserved. This font software may not be reproduced, modified, disclosed or transferred without the express written approval of Linotype GmbH. SST is a trademark of Linotype GmbH and may be registered in certain jurisdictions. This typeface is original artwork of Akira Kobayashi. The design may be protected in certain jurisdictions.
</metadata>
<defs>
<font id="SSTPro-UltraLightItalic" horiz-adv-x="772" >
  <font-face 
    font-family="SST Pro Ultra Light"
    font-weight="200"
    font-style="italic"
    font-stretch="normal"
    units-per-em="2048"
    panose-1="2 11 2 4 3 5 4 9 2 4"
    ascent="1577"
    descent="-471"
    x-height="1081"
    cap-height="1462"
    bbox="-451 -438 1937 1901"
    underline-thickness="102"
    underline-position="-307"
    slope="-11"
    unicode-range="U+000D-FB04"
  />
<missing-glyph horiz-adv-x="1048" 
d="M623 240h-115v137h115v-137zM608 479h-94l-4 35q0 114 27 166q29 56 94 121q63 60 82.5 94.5t19.5 75.5q0 73 -45.5 123.5t-109.5 50.5q-67 0 -112 -47.5t-56 -147.5l-103 17q13 141 87 210.5t190 69.5q110 0 182 -74t72 -194q0 -69 -27 -123t-102 -123q-77 -68 -88 -106
q-13 -44 -13 -148zM156 102h843v1264h-843v-1264zM53 1470h1049v-1470h-1049v1470z" />
    <glyph glyph-name="IJ" unicode="IJ" horiz-adv-x="993" 
d="M111 0l309 1462h39l-309 -1462h-39zM1010 1462l-258 -1216q-12 -58 -31 -102t-52.5 -84.5t-89.5 -62.5t-133 -22q-53 0 -114 11l6 41q48 -13 115 -13q109 0 172.5 58t89.5 184l256 1206h39z" />
    <glyph glyph-name="ij" unicode="ij" horiz-adv-x="884" 
d="M324 1081h38l-229 -1081h-39zM399 1489h60l-19 -88h-59zM813 1081l-252 -1185q-32 -156 -98.5 -225.5t-202.5 -69.5q-33 0 -74 6l9 39q35 -6 67 -6q123 0 177.5 63.5t84.5 208.5l250 1169h39zM850 1489h59l-18 -88h-60z" />
    <glyph glyph-name="napostrophe" unicode="&#x22;n" horiz-adv-x="1134" 
d="M324 1081h38l-47 -211h4q42 83 109.5 138t135.5 76.5t138 21.5q147 0 230.5 -76t83.5 -207q0 -64 -17 -151l-141 -672h-39l142 670q16 86 16 149q0 115 -73 181.5t-204 66.5q-159 0 -272 -103t-156 -309l-139 -655h-39zM436 1573l-147 -336h-31l139 336h39z" />
    <glyph glyph-name="f_f" unicode="ff" horiz-adv-x="1130" 
d="M1419 1483l-14 -39q-59 22 -123 22q-122 0 -195.5 -74t-105.5 -237l-14 -74h309l-8 -39h-307l-222 -1042h-39l222 1042h-514l-222 -1042h-39l222 1042h-256l8 39h254l18 93q66 331 336 331q73 0 137 -22l-14 -39q-59 22 -123 22q-122 0 -195.5 -74t-105.5 -237l-14 -74
h514l18 93q66 331 336 331q73 0 137 -22z" />
    <glyph glyph-name="fi" unicode="fi" horiz-adv-x="1030" 
d="M1018 1479l-12 -37q-106 24 -207 24q-165 0 -247.5 -67t-117.5 -232l-18 -86h532l-229 -1081h-39l221 1042h-493l-222 -1042h-39l222 1042h-256l8 39h256l18 90q37 180 130.5 257t273.5 77q107 0 219 -26z" />
    <glyph glyph-name="fl" unicode="fl" horiz-adv-x="1030" 
d="M377 1081l18 90q37 180 130.5 257t273.5 77q120 0 233 -30l-313 -1475h-39l307 1446q-88 20 -188 20q-165 0 -247.5 -67t-117.5 -232l-18 -86h307l-8 -39h-307l-222 -1042h-39l222 1042h-256l8 39h256z" />
    <glyph glyph-name="f_f_i" unicode="ffi" horiz-adv-x="1583" 
d="M866 1483l-14 -39q-59 22 -123 22q-122 0 -195.5 -74t-105.5 -237l-14 -74h516l18 90q37 180 130.5 257t273.5 77q107 0 219 -26l-12 -37q-106 24 -207 24q-165 0 -247.5 -67t-117.5 -232l-18 -86h532l-229 -1081h-39l221 1042h-493l-222 -1042h-39l222 1042h-514
l-222 -1042h-39l222 1042h-256l8 39h254l18 93q66 331 336 331q73 0 137 -22z" />
    <glyph glyph-name="f_f_l" unicode="ffl" horiz-adv-x="1583" 
d="M866 1483l-14 -39q-59 22 -123 22q-122 0 -195.5 -74t-105.5 -237l-14 -74h516l18 90q37 180 130.5 257t273.5 77q120 0 233 -30l-313 -1475h-39l307 1446q-88 20 -188 20q-165 0 -247.5 -67t-117.5 -232l-18 -86h307l-8 -39h-307l-222 -1042h-39l222 1042h-514
l-222 -1042h-39l222 1042h-256l8 39h254l18 93q66 331 336 331q73 0 137 -22z" />
    <glyph glyph-name=".notdef" horiz-adv-x="1048" 
d="M623 240h-115v137h115v-137zM608 479h-94l-4 35q0 114 27 166q29 56 94 121q63 60 82.5 94.5t19.5 75.5q0 73 -45.5 123.5t-109.5 50.5q-67 0 -112 -47.5t-56 -147.5l-103 17q13 141 87 210.5t190 69.5q110 0 182 -74t72 -194q0 -69 -27 -123t-102 -123q-77 -68 -88 -106
q-13 -44 -13 -148zM156 102h843v1264h-843v-1264zM53 1470h1049v-1470h-1049v1470z" />
    <glyph glyph-name=".null" horiz-adv-x="0" 
 />
    <glyph glyph-name="nonmarkingreturn" horiz-adv-x="682" 
 />
    <glyph glyph-name="CR" unicode="&#xd;" horiz-adv-x="0" 
 />
    <glyph glyph-name="space" unicode=" " horiz-adv-x="532" 
 />
    <glyph glyph-name="exclam" unicode="!" horiz-adv-x="624" 
d="M170 0l23 109h79l-22 -109h-80zM270 350l226 1112h49l-246 -1112h-29z" />
    <glyph glyph-name="quotedbl" unicode="&#x22;" horiz-adv-x="667" 
d="M336 1049l88 456h49l-108 -456h-29zM541 1049l88 456h49l-109 -456h-28z" />
    <glyph glyph-name="numbersign" unicode="#" horiz-adv-x="1136" 
d="M236 995h251l164 467h41l-164 -467h385l164 467h41l-164 -467h207l-8 -39h-213l-156 -448h215l-8 -39h-221l-164 -469h-41l164 469h-385l-164 -469h-41l164 469h-233l8 39h239l156 448h-246zM514 956l-156 -448h385l156 448h-385z" />
    <glyph glyph-name="dollar" unicode="$" horiz-adv-x="1064" 
d="M1014 1389l-15 -37q-115 44 -251 47l-138 -641q129 -95 190.5 -181t61.5 -204q0 -168 -110.5 -260t-298.5 -95l-37 -178h-39l37 178q-84 3 -182.5 27.5t-155.5 54.5l14 35q69 -33 160.5 -55t171.5 -23l145 684q-74 56 -113 89.5t-77 77.5t-53 89.5t-15 102.5q0 82 34 147
t92.5 104.5t129 61.5t150.5 25l37 166h39l-35 -166q135 -3 258 -49zM823 371q0 103 -53 180.5t-168 165.5l-141 -660q166 5 264 84.5t98 229.5zM348 1100q0 -65 29.5 -120.5t74 -96.5t126.5 -101l129 615q-73 -3 -136.5 -22.5t-114 -55t-79.5 -92t-29 -127.5z" />
    <glyph glyph-name="percent" unicode="%" horiz-adv-x="1454" 
d="M145 0l1213 1462h47l-1212 -1462h-48zM750 1237q0 -57 -11 -117.5t-35.5 -121t-59 -108t-87.5 -77t-115 -29.5q-91 0 -140.5 63.5t-49.5 162.5q0 73 18 149t53.5 145.5t97 113.5t138.5 44q92 0 141.5 -63.5t49.5 -161.5zM709 1237q0 82 -38.5 134t-113.5 52
q-69 0 -122 -40.5t-83 -104.5t-44.5 -132.5t-14.5 -135.5q0 -83 38 -135t113 -52q55 0 101 27.5t76 70.5t50 98.5t29 110.5t9 107zM1294 428q0 -73 -18 -149t-53.5 -146t-97 -114t-138.5 -44q-91 0 -140.5 63.5t-49.5 162.5q0 73 18 149t53.5 145.5t97 113.5t138.5 44
q92 0 141 -63t49 -162zM1253 428q0 83 -38 134.5t-113 51.5q-69 0 -122 -40.5t-83 -104.5t-44.5 -132.5t-14.5 -135.5q0 -83 38 -135t113 -52q69 0 122 40.5t83 105t44.5 133t14.5 135.5z" />
    <glyph glyph-name="ampersand" unicode="&#x26;" horiz-adv-x="1351" 
d="M979 287l199 -287h-50l-176 256q-116 -139 -229 -210t-250 -71q-154 0 -258 94t-104 246q0 58 13 108t33.5 89.5t56 75t71.5 62t89.5 54t99.5 47.5t112 46q-137 191 -137 329q0 172 102 266.5t250 94.5q129 0 207.5 -81.5t78.5 -193.5q0 -52 -12.5 -98t-32 -81t-54 -67.5
t-67.5 -55.5t-84.5 -48.5t-92.5 -42.5t-103 -41l315 -459q53 69 124.5 186.5t123.5 217.5h47q-184 -324 -272 -436zM928 289l-324 475q-90 -34 -152.5 -62.5t-123.5 -68.5t-97.5 -83.5t-58.5 -103t-22 -131.5q0 -133 90 -217t235 -84q241 0 453 275zM623 811q166 62 234 101
q180 105 189 278q1 10 1 20q0 98 -65.5 168t-182.5 70q-132 0 -222 -85.5t-90 -236.5q0 -52 23 -112.5t46.5 -99.5t66.5 -103z" />
    <glyph glyph-name="quotesingle" unicode="'" horiz-adv-x="495" 
d="M336 1049l88 456h49l-108 -456h-29z" />
    <glyph glyph-name="parenleft" unicode="(" horiz-adv-x="634" 
d="M664 1632q-246 -295 -379 -678t-133 -774q0 -334 102 -579h-43q-98 251 -98 579q0 409 137 796.5t368 655.5h46z" />
    <glyph glyph-name="parenright" unicode=")" horiz-adv-x="634" 
d="M23 -399q249 294 381.5 676.5t132.5 775.5q0 332 -103 579h43q98 -251 98 -579q0 -408 -138 -795.5t-369 -656.5h-45z" />
    <glyph glyph-name="asterisk" unicode="*" horiz-adv-x="845" 
d="M586 1452v-307l299 90l10 -37l-293 -88l199 -281l-31 -24l-205 285l-200 -285l-33 24l198 281l-292 88l14 39l295 -92v307h39z" />
    <glyph glyph-name="plus" unicode="+" horiz-adv-x="1083" 
d="M555 1110h39v-444h424v-39h-424v-445h-39v445h-424v39h424v444z" />
    <glyph glyph-name="comma" unicode="," horiz-adv-x="499" 
d="M-25 -311l205 450h47l-221 -450h-31z" />
    <glyph glyph-name="hyphen" unicode="-" horiz-adv-x="722" 
d="M176 598l8 39h420l-8 -39h-420z" />
    <glyph glyph-name="period" unicode="." horiz-adv-x="499" 
d="M106 0l23 109h80l-23 -109h-80z" />
    <glyph glyph-name="slash" unicode="/" horiz-adv-x="1009" 
d="M31 0l1005 1462h45l-1005 -1462h-45z" />
    <glyph glyph-name="zero" unicode="0" horiz-adv-x="1228" 
d="M813 1487q97 0 170 -35t116.5 -99.5t65 -149.5t21.5 -191q0 -92 -11.5 -188.5t-37 -198.5t-63 -195.5t-92.5 -177t-122 -145t-156 -97t-190 -35.5q-102 0 -177 34.5t-119 98.5t-64.5 147.5t-20.5 188.5q0 93 12.5 191t39 200.5t65 196.5t95 177.5t124 145t156 97
t188.5 35.5zM809 1448q-92 0 -175 -35.5t-146 -95.5t-116 -141.5t-89.5 -172.5t-62 -188.5t-37 -189.5t-11.5 -176q0 -97 20 -175t60 -137t106.5 -91t155.5 -32q110 0 204.5 46.5t162 125.5t120 179t84 213t47 220.5t15.5 207.5q0 99 -19 178t-59 139t-105.5 92.5
t-154.5 32.5z" />
    <glyph glyph-name="one" unicode="1" horiz-adv-x="696" 
d="M657 1462l-309 -1462h-39l301 1423l-362 -215l-15 35l375 219h49z" />
    <glyph glyph-name="two" unicode="2" horiz-adv-x="1064" 
d="M872 39l-8 -39h-876l8 39q505 419 646 545q229 205 308 332q72 116 72 249q0 127 -81.5 205t-221.5 78q-207 0 -385 -137l-19 30q183 146 406 146q162 0 251 -88t89 -232q0 -44 -5 -82t-21 -80.5t-33.5 -77.5t-56.5 -84.5t-75 -90t-103.5 -104.5t-128 -117.5t-162.5 -140
t-192.5 -161t-232.5 -190.5h821z" />
    <glyph glyph-name="three" unicode="3" horiz-adv-x="1064" 
d="M336 737l8 39h148q150 0 264 43t181 133.5t67 218.5q0 130 -90.5 204.5t-235.5 74.5q-188 0 -356 -86l-11 35q172 88 369 88q171 0 266.5 -84.5t95.5 -231.5q0 -91 -31.5 -164.5t-87.5 -123.5t-126.5 -81.5t-155.5 -45.5v-4q132 -21 211.5 -104t79.5 -212
q0 -115 -42 -204.5t-116.5 -144.5t-171 -83.5t-209.5 -28.5t-219.5 26.5t-175.5 70.5l18 37q151 -95 377 -95q78 0 148.5 13.5t135.5 45.5t112.5 79t75.5 119t28 161q0 146 -111 225.5t-299 79.5h-147z" />
    <glyph glyph-name="four" unicode="4" horiz-adv-x="1126" 
d="M1038 1462l-217 -1020h234l-8 -39h-234l-84 -403h-39l84 403h-711l9 50l903 1009h63zM782 442l209 981h-4l-874 -981h669z" />
    <glyph glyph-name="five" unicode="5" horiz-adv-x="1064" 
d="M375 14q250 0 389 125t139 350q0 162 -112.5 251t-286.5 89q-145 0 -287 -34l166 667h678l-8 -39h-641l-146 -583q110 28 240 28q123 0 220.5 -41.5t156.5 -129t59 -208.5q0 -245 -154.5 -379.5t-414.5 -134.5q-94 0 -194 21.5t-167 56.5l17 37q56 -32 154.5 -54
t191.5 -22z" />
    <glyph glyph-name="six" unicode="6" horiz-adv-x="1146" 
d="M172 516q-10 -51 -10 -113q0 -55 12.5 -109t41 -105t69 -89.5t102 -62t135.5 -23.5q138 0 244 65.5t162.5 178.5t56.5 254q0 56 -11.5 108t-38 99.5t-65.5 82.5t-97.5 56t-131.5 21q-182 0 -309 -106t-160 -257zM190 662h5q62 116 179.5 186t268.5 70q82 0 148 -23
t109 -61.5t72 -91t41.5 -109t12.5 -117.5q0 -152 -61 -274.5t-177 -194.5t-268 -72q-188 0 -292.5 121.5t-104.5 309.5q0 87 14 185t44 203t74 204t108 188.5t141 156t178.5 105.5t214.5 39q123 0 227 -43l-12 -39q-98 43 -219 43t-226 -47t-181 -124t-136.5 -181.5
t-98.5 -211t-61 -222.5z" />
    <glyph glyph-name="seven" unicode="7" horiz-adv-x="1003" 
d="M266 1423l8 39h852l-8 -39q-275 -316 -498 -710.5t-327 -712.5h-41q101 319 330.5 721.5t488.5 701.5h-805z" />
    <glyph glyph-name="eight" unicode="8" horiz-adv-x="1187" 
d="M635 743q-95 0 -184 -24t-165 -71.5t-122.5 -128.5t-46.5 -185q0 -149 115 -234.5t290 -85.5q74 0 143 12t135.5 41t115 72.5t78.5 112t30 154.5q0 100 -57 179t-145 118.5t-187 39.5zM766 1487q170 0 284.5 -89t114.5 -243q0 -81 -27 -147t-67 -108t-95 -72.5t-103 -45
t-99 -22.5v-4q121 -28 206 -122.5t85 -221.5q0 -98 -33 -175.5t-86.5 -125.5t-126 -79.5t-146 -44t-153.5 -12.5q-125 0 -223.5 39t-158.5 121.5t-60 196.5q0 96 36 175t98 132t139.5 85.5t166.5 43.5v4q-105 31 -171 110.5t-66 196.5q0 99 40 178.5t108.5 128.5t154.5 75
t182 26zM647 782q66 0 129.5 11t127.5 39t112 69t78 106t30 146q0 132 -102 213.5t-258 81.5q-198 0 -321.5 -99.5t-123.5 -267.5q0 -135 97 -217t231 -82z" />
    <glyph glyph-name="nine" unicode="9" horiz-adv-x="1146" 
d="M1073 946q10 51 10 113q0 55 -12.5 109t-41 105t-69 89.5t-102 62t-135.5 23.5q-138 0 -244 -65.5t-162.5 -178.5t-56.5 -254q0 -71 19 -134.5t58.5 -116.5t108 -84t158.5 -31q182 0 309 105.5t160 256.5zM1055 801h-4q-62 -116 -180 -186t-269 -70q-102 0 -178.5 34.5
t-119.5 93t-64 127t-21 146.5q0 152 61 274.5t177 194.5t268 72q188 0 292.5 -121t104.5 -309q0 -87 -14 -185t-44 -203t-74 -204.5t-108 -188.5t-141 -156t-178.5 -106t-214.5 -39q-123 0 -227 43l12 39q98 -43 219 -43t226 47.5t181 124t136.5 181.5t98.5 211.5t61 222.5z
" />
    <glyph glyph-name="colon" unicode=":" horiz-adv-x="612" 
d="M174 0l23 109h67l-22 -109h-68zM379 971l24 108h68l-25 -108h-67z" />
    <glyph glyph-name="semicolon" unicode=";" horiz-adv-x="612" 
d="M379 971l24 108h68l-25 -108h-67zM25 -311l204 450h47l-221 -450h-30z" />
    <glyph glyph-name="less" unicode="&#x3c;" horiz-adv-x="1083" 
d="M1018 977l-842 -328v-4l842 -330v-43l-887 346v56l887 346v-43z" />
    <glyph glyph-name="equal" unicode="=" horiz-adv-x="1083" 
d="M1018 801h-887v39h887v-39zM1018 453h-887v39h887v-39z" />
    <glyph glyph-name="greater" unicode="&#x3e;" horiz-adv-x="1083" 
d="M973 649l-842 328v43l887 -346v-56l-887 -346v43l842 330v4z" />
    <glyph glyph-name="question" unicode="?" horiz-adv-x="870" 
d="M319 0h-79l22 109h80zM371 365l-17 -80h-41l19 84q33 151 91 236.5t187 185.5l82 63q55 42 89 74t66 74.5t47 92t15 109.5q0 116 -83 180t-208 64q-141 0 -274 -55l-10 34q141 60 289 60q141 0 233 -71.5t92 -209.5q0 -66 -15 -118t-51.5 -101t-83.5 -91.5t-124 -100.5
q-151 -113 -212.5 -200.5t-90.5 -229.5z" />
    <glyph glyph-name="at" unicode="@" horiz-adv-x="1904" 
d="M1442 -233l2 -39q-243 -95 -531 -95q-188 0 -343 57t-259.5 158t-161.5 241.5t-57 305.5q0 240 81 445t221.5 346.5t334.5 221t416 79.5q194 0 351 -80t249 -231t92 -345q0 -136 -36 -268t-100.5 -238.5t-165.5 -172.5t-220 -66q-90 0 -131 47t-41 113q0 46 10 84h-4
q-21 -38 -54 -77.5t-79 -78.5t-106.5 -63.5t-123.5 -24.5q-123 0 -179 75.5t-56 200.5q0 91 24 187t71 185.5t110 160.5t149.5 113.5t181.5 42.5q118 0 172 -65.5t54 -164.5q0 -23 -4 -63h4l108 260h39l-190 -451q-85 -204 -88 -307q0 -60 31.5 -97.5t105.5 -37.5
q131 0 240.5 91t174 253.5t64.5 359.5q0 182 -87 324.5t-236 218.5t-332 76q-211 0 -396.5 -76.5t-321 -212t-214 -333.5t-78.5 -431q0 -322 216 -522.5t569 -200.5q131 0 270 25.5t254 69.5zM1083 1012q-89 0 -169.5 -42.5t-138 -112t-100.5 -155t-64 -173.5t-21 -167
q0 -106 48 -171.5t157 -65.5q74 0 143.5 39t121 98.5t94 135t68 145t38.5 131.5q16 72 16 131q0 94 -45.5 150.5t-147.5 56.5z" />
    <glyph glyph-name="A" unicode="A" horiz-adv-x="1177" 
d="M956 500h-700l-309 -500h-45l901 1462h59l203 -1462h-39zM829 1434l-553 -895h676z" />
    <glyph glyph-name="B" unicode="B" horiz-adv-x="1220" 
d="M111 0l309 1462h364q182 0 286 -75t104 -238q0 -93 -29 -165.5t-81 -119t-116 -73t-141 -35.5v-4q127 -19 199.5 -100.5t72.5 -207.5q0 -148 -72.5 -249.5t-194 -148t-284.5 -46.5h-417zM451 1423l-138 -647h367q139 0 239.5 38t159 122t58.5 209q0 278 -361 278h-325z
M305 737l-147 -698h374q111 0 201.5 23.5t160 70.5t108 125.5t38.5 181.5q0 149 -99 223t-271 74h-365z" />
    <glyph glyph-name="C" unicode="C" horiz-adv-x="1159" 
d="M999 66v-41q-133 -50 -299 -50q-133 0 -237.5 45.5t-169 125.5t-98 183.5t-33.5 223.5q0 139 32 272.5t98.5 253.5t160.5 210.5t227.5 144t290.5 53.5q161 0 268 -49l-14 -35q-109 45 -256 45q-151 0 -279.5 -53t-217 -141t-151 -204t-91.5 -241.5t-29 -253.5
q0 -112 31 -208.5t92 -171.5t160.5 -118t226.5 -43q150 0 288 52z" />
    <glyph glyph-name="D" unicode="D" horiz-adv-x="1372" 
d="M111 0l309 1462h254q302 0 461 -155t159 -424q0 -209 -66.5 -377t-186 -278.5t-283.5 -169t-359 -58.5h-288zM451 1423l-293 -1384h245q261 0 454 103t295.5 293t102.5 446q0 119 -34.5 216t-104.5 171t-185.5 114.5t-268.5 40.5h-211z" />
    <glyph glyph-name="E" unicode="E" horiz-adv-x="1042" 
d="M111 0l309 1462h665l-8 -39h-626l-138 -647h623l-8 -39h-623l-147 -698h688l-8 -39h-727z" />
    <glyph glyph-name="F" unicode="F" horiz-adv-x="983" 
d="M111 0l309 1462h680l-8 -39h-641l-138 -647h605l-9 -39h-604l-155 -737h-39z" />
    <glyph glyph-name="G" unicode="G" horiz-adv-x="1421" 
d="M1348 1419l-15 -37q-141 66 -315 66q-155 0 -288 -47.5t-228.5 -130t-163.5 -194t-101.5 -241t-33.5 -268.5q0 -112 33 -210t97 -175.5t169.5 -122.5t240.5 -45q211 0 375 74l129 608h-377l9 39h415l-141 -672q-189 -88 -410 -88q-139 0 -251 47.5t-182.5 129.5
t-108 187.5t-37.5 225.5q0 190 59 357.5t166.5 293t269.5 198.5t357 73q183 0 332 -68z" />
    <glyph glyph-name="H" unicode="H" horiz-adv-x="1325" 
d="M111 0l309 1462h39l-146 -686h822l145 686h39l-309 -1462h-39l155 737h-821l-155 -737h-39z" />
    <glyph glyph-name="I" unicode="I" horiz-adv-x="464" 
d="M111 0l309 1462h39l-309 -1462h-39z" />
    <glyph glyph-name="J" unicode="J" horiz-adv-x="577" 
d="M594 1462l-258 -1216q-10 -46 -22.5 -82t-36 -73t-55.5 -61t-80.5 -39.5t-110.5 -15.5q-55 0 -115 11l6 41q48 -13 115 -13q109 0 172.5 58t89.5 184l256 1206h39z" />
    <glyph glyph-name="K" unicode="K" horiz-adv-x="1060" 
d="M1147 1462h61l-864 -706l617 -756h-54l-598 737h-4l-155 -737h-39l309 1462h39l-146 -686h4z" />
    <glyph glyph-name="L" unicode="L" horiz-adv-x="827" 
d="M111 0l309 1462h39l-301 -1423h583l-8 -39h-622z" />
    <glyph glyph-name="M" unicode="M" horiz-adv-x="1671" 
d="M494 1462l237 -1423h4l864 1423h66l-309 -1462h-39l303 1427h-2l-862 -1427h-58l-241 1427h-4l-303 -1427h-39l309 1462h74z" />
    <glyph glyph-name="N" unicode="N" horiz-adv-x="1388" 
d="M485 1462l549 -1427h4l303 1427h39l-309 -1462h-65l-549 1427h-4l-303 -1427h-39l309 1462h65z" />
    <glyph glyph-name="O" unicode="O" horiz-adv-x="1468" 
d="M1391 954q0 -133 -27 -267.5t-87 -263.5t-145.5 -228t-212 -159.5t-276.5 -60.5q-237 0 -360 145.5t-123 393.5q0 133 28 267t88.5 262t147 226t213 158t276.5 60q233 0 355.5 -144.5t122.5 -388.5zM645 14q136 0 253.5 55.5t199 148.5t139.5 214t85.5 252t27.5 264
q0 229 -111.5 364.5t-329.5 135.5q-156 0 -290 -76.5t-224.5 -204.5t-142 -298t-51.5 -355q0 -111 26.5 -201t80 -157.5t139 -104.5t198.5 -37z" />
    <glyph glyph-name="P" unicode="P" horiz-adv-x="1159" 
d="M111 0l309 1462h356q80 0 151 -20t129 -59t92 -105.5t34 -151.5q0 -106 -34.5 -186.5t-89 -128.5t-131.5 -78t-151.5 -40.5t-159.5 -10.5h-323l-143 -682h-39zM451 1423l-150 -702h320q80 0 148 9.5t139 36t120.5 70t81 117t31.5 170.5q0 78 -31.5 137t-86 93.5
t-121 51.5t-142.5 17h-309z" />
    <glyph glyph-name="Q" unicode="Q" horiz-adv-x="1468" 
d="M1391 954q0 -131 -28 -264t-81.5 -257t-142.5 -227t-201 -161l231 -285h-57l-217 265q-119 -50 -252 -50q-237 0 -360 145.5t-123 393.5q0 133 28 267t88.5 262t147 226t213 158t276.5 60q233 0 355.5 -144.5t122.5 -388.5zM645 14q136 0 253.5 55.5t199 148.5t139.5 214
t85.5 252t27.5 264q0 229 -111.5 364.5t-329.5 135.5q-156 0 -290 -76.5t-224.5 -204.5t-142 -298t-51.5 -355q0 -111 26.5 -201t80 -157.5t139 -104.5t198.5 -37z" />
    <glyph glyph-name="R" unicode="R" horiz-adv-x="1228" 
d="M111 0l309 1462h414q171 0 267.5 -81.5t96.5 -221.5q0 -86 -21 -155t-55 -113.5t-82 -76t-95.5 -47.5t-102.5 -24v-4q82 -20 119.5 -83t52.5 -199q36 -328 55 -457h-43q-8 62 -28 240.5t-27 236.5q-19 146 -80 198t-207 52h-381l-153 -727h-39zM451 1423l-140 -657h383
q463 0 463 387q0 128 -90.5 199t-249.5 71h-366z" />
    <glyph glyph-name="S" unicode="S" horiz-adv-x="1044" 
d="M1034 1430l-14 -37q-121 55 -285 55q-82 0 -153 -17.5t-131 -54t-94.5 -100.5t-34.5 -150q0 -35 6.5 -65.5t14.5 -54t29 -50.5t34.5 -42.5t47.5 -44t52 -42t63 -47.5q54 -40 86.5 -66t71.5 -61t61.5 -65.5t43 -68t29.5 -79.5t9 -90q0 -96 -33 -169t-93.5 -117.5
t-141.5 -66.5t-180 -22q-92 0 -206.5 26t-180.5 60l14 37q76 -36 181.5 -60t191.5 -24q120 0 210 33.5t144.5 109t54.5 187.5q0 123 -67 209.5t-219 196.5q-49 36 -77 57.5t-63 52.5t-53.5 56t-36.5 58t-25 70.5t-7 81.5q0 97 39.5 169.5t106.5 113t144.5 59.5t165.5 19
q155 0 295 -57z" />
    <glyph glyph-name="T" unicode="T" horiz-adv-x="985" 
d="M350 0l301 1423h-467l9 39h960l-8 -39h-455l-301 -1423h-39z" />
    <glyph glyph-name="U" unicode="U" horiz-adv-x="1394" 
d="M1403 1462l-209 -991q-20 -96 -46.5 -168t-71.5 -136t-106.5 -104.5t-151.5 -64t-206 -23.5q-228 0 -336 89.5t-108 248.5q0 70 20 162l209 987h39l-211 -997q-16 -73 -16 -148q0 -144 98 -223.5t305 -79.5q105 0 186.5 20t139.5 56.5t101 94t69.5 124.5t44.5 156
l211 997h39z" />
    <glyph glyph-name="V" unicode="V" horiz-adv-x="1093" 
d="M365 0l-170 1462h38l164 -1423h4l846 1423h45l-872 -1462h-55z" />
    <glyph glyph-name="W" unicode="W" horiz-adv-x="1792" 
d="M1169 0l-82 1423h-4l-698 -1423h-63l-66 1462h39l63 -1423h4l699 1423h61l84 -1423h4l684 1423h43l-704 -1462h-64z" />
    <glyph glyph-name="X" unicode="X" horiz-adv-x="1161" 
d="M-57 0l671 760l-325 702h47l307 -667l594 667h49l-624 -702l352 -760h-45l-336 723l-641 -723h-49z" />
    <glyph glyph-name="Y" unicode="Y" horiz-adv-x="1056" 
d="M383 0l129 614l-299 848h45l281 -811l671 811h50l-709 -848l-129 -614h-39z" />
    <glyph glyph-name="Z" unicode="Z" horiz-adv-x="1091" 
d="M-23 39l1151 1384h-798l8 39h850l-8 -39l-1151 -1384h917l-8 -39h-969z" />
    <glyph glyph-name="bracketleft" unicode="[" horiz-adv-x="634" 
d="M745 1632l-8 -39h-248l-415 -1953h248l-9 -39h-288l432 2031h288z" />
    <glyph glyph-name="backslash" unicode="\" horiz-adv-x="1009" 
d="M340 1462l491 -1462h-40l-492 1462h41z" />
    <glyph glyph-name="bracketright" unicode="]" horiz-adv-x="634" 
d="M-55 -399l8 39h248l415 1953h-247l8 39h289l-433 -2031h-288z" />
    <glyph glyph-name="asciicircum" unicode="^" horiz-adv-x="1083" 
d="M582 1380l-318 -768h-43l338 813h49l336 -813h-43l-315 768h-4z" />
    <glyph glyph-name="underscore" unicode="_" horiz-adv-x="952" 
d="M-156 -219h951l-9 -39h-950z" />
    <glyph glyph-name="grave" unicode="`" horiz-adv-x="962" 
d="M682 1237l-176 336h47l168 -336h-39z" />
    <glyph glyph-name="a" unicode="a" horiz-adv-x="1046" 
d="M870 635l15 65q16 86 16 121q0 124 -77 185t-210 61q-136 0 -282 -49v39q142 49 282 49q155 0 240.5 -73.5t85.5 -205.5q0 -45 -16 -120l-90 -428q-36 -169 -39 -279h-39q4 70 39 256h-4q-55 -125 -158 -203t-248 -78q-135 0 -217 75t-82 204q0 89 36 155.5t99.5 109.5
t163.5 69t216.5 36.5t268.5 10.5zM864 598h-55q-160 0 -279.5 -16.5t-213.5 -55t-142.5 -106t-48.5 -164.5q0 -113 71.5 -177.5t190.5 -64.5q347 0 451 465z" />
    <glyph glyph-name="b" unicode="b" horiz-adv-x="1171" 
d="M195 295l-62 -295h-39l320 1505h39l-148 -682h4q25 54 61.5 101.5t86 90t116.5 67t142 24.5q89 0 158.5 -36t110.5 -96t62 -133t21 -153q0 -115 -23.5 -222.5t-69.5 -196t-108 -154.5t-144 -103t-173 -37q-69 0 -126.5 20t-96 52t-66.5 75t-42 85.5t-19 87.5h-4zM551 14
q95 0 175.5 41.5t135 109.5t93 156.5t56 181.5t17.5 185q0 73 -19 139t-56 120.5t-99.5 87t-142.5 32.5q-110 0 -203.5 -62t-153.5 -162.5t-93.5 -222t-33.5 -243.5q0 -163 86.5 -263t237.5 -100z" />
    <glyph glyph-name="c" unicode="c" horiz-adv-x="892" 
d="M922 1075l-13 -37q-77 29 -190 29q-162 0 -289.5 -92.5t-194.5 -241t-67 -321.5q0 -84 21 -155t63 -126t111.5 -86t160.5 -31q120 0 221 37v-37q-112 -39 -223 -39q-102 0 -179.5 34.5t-123 95.5t-68 138t-22.5 169q0 186 73 343.5t210.5 254t310.5 96.5q122 0 199 -31z
" />
    <glyph glyph-name="d" unicode="d" horiz-adv-x="1171" 
d="M1012 786l151 719h39l-319 -1505h-37l57 258h-4q-25 -54 -61.5 -101.5t-86.5 -90t-117 -67t-142 -24.5q-89 0 -158.5 36t-111 96t-62.5 133t-21 153q0 115 23.5 222.5t69.5 196t108 154.5t144 103t173 37q86 0 153 -29.5t107 -78.5t62.5 -102t28.5 -110h4zM655 1067
q-95 0 -175.5 -41.5t-135 -109.5t-93 -156.5t-56 -181.5t-17.5 -185q0 -73 19 -139t56.5 -120.5t100 -87t142.5 -32.5q110 0 203.5 62.5t153 162.5t93 221.5t33.5 244.5q0 163 -86.5 262.5t-237.5 99.5z" />
    <glyph glyph-name="e" unicode="e" horiz-adv-x="1114" 
d="M1014 545h-826q-10 -59 -10 -127q0 -80 23 -150t69 -128t125 -92t183 -34q132 0 262 37v-37q-115 -39 -265 -39q-143 0 -243 59.5t-146.5 157t-46.5 222.5q0 96 23.5 193t70.5 186.5t112.5 159.5t156.5 111.5t194 41.5q176 0 261 -94t85 -254q0 -86 -28 -213zM983 584
q21 102 21 172q0 144 -76.5 227.5t-235.5 83.5q-79 0 -150 -27t-126 -73t-99.5 -108t-74 -131t-45.5 -144h786z" />
    <glyph glyph-name="f" unicode="f" horiz-adv-x="577" 
d="M866 1483l-14 -39q-59 22 -123 22q-122 0 -195.5 -74t-105.5 -237l-14 -74h309l-8 -39h-307l-222 -1042h-39l222 1042h-256l8 39h254l18 93q66 331 336 331q73 0 137 -22z" />
    <glyph glyph-name="g" unicode="g" horiz-adv-x="1171" 
d="M1112 1081l-219 -1042q-24 -112 -59.5 -190.5t-93 -135.5t-142 -84.5t-199.5 -27.5q-75 0 -161.5 15t-145.5 44l14 39q121 -59 295 -59q105 0 182 25t130 77.5t86 125.5t55 177l49 229h-4q-54 -109 -158.5 -185.5t-248.5 -76.5q-72 0 -131 23t-99.5 62t-68.5 91.5
t-41 111.5t-13 122q0 189 64 344.5t183 247.5t271 92q86 0 153 -29.5t107 -78.5t62.5 -102t28.5 -110h4l61 295h39zM655 1067q-95 0 -175.5 -39t-135 -104t-93 -149.5t-56 -173.5t-17.5 -179q0 -73 19 -138t56.5 -118t100 -84t142.5 -31q89 0 167 37t135 100.5t98.5 147
t62 178t20.5 191.5q0 163 -86.5 262.5t-237.5 99.5z" />
    <glyph glyph-name="h" unicode="h" horiz-adv-x="1134" 
d="M414 1505h39l-138 -635h4q42 83 109.5 138t135.5 76.5t138 21.5q147 0 230.5 -76t83.5 -207q0 -64 -17 -151l-141 -672h-39l142 670q16 86 16 149q0 115 -73 181.5t-204 66.5q-159 0 -272 -103t-156 -309l-139 -655h-39z" />
    <glyph glyph-name="i" unicode="i" horiz-adv-x="442" 
d="M324 1081h38l-229 -1081h-39zM399 1489h60l-19 -88h-59z" />
    <glyph glyph-name="j" unicode="j" horiz-adv-x="442" 
d="M371 1081l-252 -1185q-32 -156 -98.5 -225.5t-202.5 -69.5q-34 0 -74 6l8 39q35 -6 68 -6q123 0 177.5 63.5t84.5 208.5l250 1169h39zM408 1489h59l-18 -88h-60z" />
    <glyph glyph-name="k" unicode="k" horiz-adv-x="864" 
d="M870 1081h62l-635 -493l473 -588h-51l-461 573h-4l-121 -573h-39l320 1505h39l-191 -897h4z" />
    <glyph glyph-name="l" unicode="l" horiz-adv-x="444" 
d="M414 1505h39l-320 -1505h-39z" />
    <glyph glyph-name="m" unicode="m" horiz-adv-x="1806" 
d="M975 678l-144 -678h-38l143 678q20 92 20 149q0 107 -72 173.5t-196 66.5q-152 0 -262.5 -103t-153.5 -309l-139 -655h-39l230 1081h38l-47 -211h4q62 123 160 179.5t215 56.5q135 0 215.5 -72t83.5 -184h4q56 120 157.5 188t217.5 68q149 0 233.5 -75t84.5 -212
q0 -50 -19 -147l-141 -672h-39l141 670q19 102 19 147q0 119 -74 184.5t-209 65.5q-151 0 -254 -110.5t-139 -278.5z" />
    <glyph glyph-name="n" unicode="n" horiz-adv-x="1134" 
d="M324 1081h38l-47 -211h4q42 83 109.5 138t135.5 76.5t138 21.5q147 0 230.5 -76t83.5 -207q0 -64 -17 -151l-141 -672h-39l142 670q16 86 16 149q0 115 -73 181.5t-204 66.5q-159 0 -272 -103t-156 -309l-139 -655h-39z" />
    <glyph glyph-name="o" unicode="o" horiz-adv-x="1146" 
d="M1042 698q0 -74 -13 -153t-39.5 -161.5t-71.5 -155t-103 -129.5t-140 -90.5t-177 -33.5q-176 0 -267.5 113.5t-91.5 298.5q0 144 36.5 274t103 229t168.5 157.5t225 58.5q174 0 272 -113t98 -295zM498 14q100 0 185 42t143 111t99 158.5t60 183.5t19 187q0 165 -85.5 268
t-246.5 103q-121 0 -217.5 -58.5t-155.5 -156t-90 -216.5t-31 -247q0 -108 32.5 -190.5t106 -133.5t181.5 -51z" />
    <glyph glyph-name="p" unicode="p" horiz-adv-x="1171" 
d="M197 295l-148 -694h-39l316 1480h36l-57 -258h4q25 54 61.5 102t86.5 90t117.5 66.5t142.5 24.5q89 0 158.5 -36t110.5 -96t62 -133t21 -153q0 -115 -23.5 -222.5t-69.5 -196t-108 -154.5t-144 -103t-173 -37q-69 0 -126.5 20t-96 52t-66.5 75t-42 85.5t-19 87.5h-4z
M553 14q95 0 175.5 41.5t135 109.5t93 156.5t56 181.5t17.5 185q0 73 -19 139t-56 120.5t-99.5 87t-142.5 32.5q-110 0 -203.5 -62t-153.5 -162.5t-93.5 -222t-33.5 -243.5q0 -163 86.5 -263t237.5 -100z" />
    <glyph glyph-name="q" unicode="q" horiz-adv-x="1150" 
d="M1012 786l61 295h39l-315 -1480h-39l143 657h-4q-25 -54 -61 -101.5t-85.5 -90t-116.5 -67t-142 -24.5q-89 0 -158.5 36t-111 96t-62.5 133t-21 153q0 115 23.5 222.5t69.5 196t108 154.5t144 103t173 37q86 0 153 -29.5t107 -78.5t62.5 -102t28.5 -110h4zM655 1067
q-95 0 -175.5 -41.5t-135 -109.5t-93 -156.5t-56 -181.5t-17.5 -185q0 -73 19 -139t56.5 -120.5t100 -87t142.5 -32.5q110 0 203.5 62.5t153 162.5t93 221.5t33.5 244.5q0 163 -86.5 262.5t-237.5 99.5z" />
    <glyph glyph-name="r" unicode="r" horiz-adv-x="655" 
d="M750 1100l-9 -39q-35 6 -75 6q-145 0 -252 -119.5t-146 -308.5l-135 -639h-39l230 1081h38l-51 -233h4q46 114 144.5 186t212.5 72q44 0 78 -6z" />
    <glyph glyph-name="s" unicode="s" horiz-adv-x="804" 
d="M772 1055l-12 -37q-49 22 -113.5 35.5t-116.5 13.5q-60 0 -113 -12.5t-98 -38.5t-71.5 -72t-26.5 -106q0 -79 46.5 -135.5t142.5 -120.5q56 -37 94.5 -69t75 -72.5t55 -86.5t18.5 -98q0 -141 -94.5 -211t-259.5 -70q-70 0 -162 21.5t-143 48.5l16 37q58 -29 142.5 -48.5
t148.5 -19.5q144 0 228.5 57.5t84.5 178.5q0 89 -58 158t-169 143q-51 34 -83.5 60.5t-63 61t-44.5 75t-14 88.5q0 58 20.5 105t54.5 77t80 50.5t94.5 29t100.5 8.5q126 0 240 -51z" />
    <glyph glyph-name="t" unicode="t" horiz-adv-x="585" 
d="M135 1042l8 39h217l54 256h39l-54 -256h279l-8 -39h-279l-172 -809q-14 -65 -14 -102q0 -104 141 -104q59 0 121 10l-10 -39q-48 -10 -119 -10q-172 0 -172 137q0 41 14 102l172 815h-217z" />
    <glyph glyph-name="u" unicode="u" horiz-adv-x="1134" 
d="M834 0h-39l47 211h-4q-42 -83 -108.5 -138t-134.5 -76.5t-140 -21.5q-148 0 -231 76t-83 207q0 65 17 152l141 671h39l-141 -669q-17 -91 -17 -150q0 -116 72 -182t205 -66q159 0 272 103t156 309l139 655h39z" />
    <glyph glyph-name="v" unicode="v" horiz-adv-x="913" 
d="M262 0l-104 1081h39l96 -1044h4l661 1044h46l-691 -1081h-51z" />
    <glyph glyph-name="w" unicode="w" horiz-adv-x="1548" 
d="M946 0l-63 1042h-4l-588 -1042h-58l-45 1081h39l41 -1044h4l586 1044h60l63 -1044h4l594 1044h45l-620 -1081h-58z" />
    <glyph glyph-name="x" unicode="x" horiz-adv-x="909" 
d="M-31 0h-51l526 571l-251 510h49l233 -485l440 485h54l-477 -516l280 -565h-47l-266 539z" />
    <glyph glyph-name="y" unicode="y" horiz-adv-x="913" 
d="M197 1081l106 -1011h4l649 1011h50l-963 -1480h-49l276 413l-114 1067h41z" />
    <glyph glyph-name="z" unicode="z" horiz-adv-x="907" 
d="M-12 39l880 1005h-637l9 37h686l-8 -37l-877 -1005h709l-9 -39h-761z" />
    <glyph glyph-name="braceleft" unicode="{" horiz-adv-x="634" 
d="M72 596l10 41q46 8 78 21.5t54 33t38.5 55t27.5 74.5t25 103l98 460q29 137 83.5 192.5t158.5 55.5h96l-8 -39h-90q-84 0 -129.5 -43.5t-71.5 -169.5l-98 -460q-33 -156 -71 -215.5t-130 -86.5l-2 -4q51 -18 74 -50t23 -91q0 -48 -23 -160l-98 -463q-11 -48 -11 -90
q0 -120 121 -120h90l-8 -39h-82q-159 0 -159 155q0 42 20 140l88 413q23 108 23 158q0 61 -28.5 90.5t-98.5 38.5z" />
    <glyph glyph-name="bar" unicode="|" horiz-adv-x="952" 
d="M457 1505h39v-1904h-39v1904z" />
    <glyph glyph-name="braceright" unicode="}" horiz-adv-x="634" 
d="M618 637l-10 -41q-46 -8 -78 -21.5t-54 -33t-38.5 -55t-27.5 -74.5t-25 -103l-98 -461q-29 -136 -83.5 -191.5t-158.5 -55.5h-96l8 39h90q84 0 129.5 43.5t71.5 169.5l98 460q33 156 71 215t130 86l2 4q-50 18 -73 50.5t-23 91.5q0 53 22 160l98 462q11 48 11 91
q0 120 -121 120h-90l8 39h82q160 0 160 -155q0 -37 -21 -140l-88 -413q-22 -104 -22 -158q0 -61 28 -90.5t98 -38.5z" />
    <glyph glyph-name="asciitilde" unicode="~" horiz-adv-x="1083" 
d="M782 604q66 0 117 21t119 71v-43q-57 -42 -112.5 -65t-125.5 -23q-49 0 -106.5 19.5t-102 43t-101 43t-103.5 19.5q-66 0 -117 -21t-119 -71v43q57 42 112.5 65t125.5 23q49 0 106.5 -19.5t102 -43t101 -43t103.5 -19.5z" />
    <glyph glyph-name="uni00A0" unicode="&#xa0;" horiz-adv-x="532" 
 />
    <glyph glyph-name="exclamdown" unicode="&#xa1;" horiz-adv-x="624" 
d="M479 1081l-22 -108h-80l22 108h80zM379 731l-225 -1112h-50l246 1112h29z" />
    <glyph glyph-name="cent" unicode="&#xa2;" horiz-adv-x="1005" 
d="M778 1229l-26 -123q107 -3 184 -31l-12 -37q-74 26 -181 29l-223 -1053h19q120 0 221 37v-37q-112 -39 -223 -39h-25l-25 -112h-38l24 117q-114 13 -190 76t-108 152.5t-32 203.5q0 135 41 258.5t114.5 218t181 152.5t233.5 63l26 125h39zM182 412q0 -161 74.5 -269
t224.5 -127l224 1049q-154 -8 -275 -101.5t-184.5 -238.5t-63.5 -313z" />
    <glyph glyph-name="sterling" unicode="&#xa3;" horiz-adv-x="1185" 
d="M1155 1442l-14 -37q-85 43 -203 43q-147 0 -242 -91t-129 -255l-69 -326h327l-8 -39h-328l-147 -698h653l-8 -39h-924l9 39h231l148 698h-230l8 39h230l71 334q35 173 139.5 275t272.5 102q131 0 213 -45z" />
    <glyph glyph-name="currency" unicode="&#xa4;" horiz-adv-x="1077" 
d="M535 352q-121 0 -197 76l-188 -154l-25 31l186 156q-45 64 -45 153q0 170 121 275l-141 178l33 27l143 -181q94 62 215 62q119 0 197 -78l188 156l25 -31l-187 -156q45 -64 45 -153q0 -173 -123 -275l144 -178l-33 -27l-143 181q-94 -62 -215 -62zM535 391
q144 0 237.5 90t93.5 234q0 94 -65 157.5t-164 63.5q-144 0 -238 -90.5t-94 -233.5q0 -94 65.5 -157.5t164.5 -63.5z" />
    <glyph glyph-name="yen" unicode="&#xa5;" horiz-adv-x="1122" 
d="M129 354h381l55 262h-381l11 39h362l-262 807h41l258 -800l598 800h47l-604 -807h360l-10 -39h-381l-55 -262h381l-8 -39h-381l-66 -315h-39l66 315h-381z" />
    <glyph glyph-name="brokenbar" unicode="&#xa6;" horiz-adv-x="952" 
d="M457 352h39v-751h-39v751zM496 752h-39v753h39v-753z" />
    <glyph glyph-name="section" unicode="&#xa7;" horiz-adv-x="1099" 
d="M915 526q0 -116 -92.5 -187t-220.5 -81q82 -78 121 -145.5t39 -141.5q0 -99 -56 -167.5t-141 -98t-190 -29.5q-146 0 -275 52l17 39q123 -52 258 -52q97 0 172.5 24.5t125.5 84t50 147.5q0 74 -53.5 153t-186.5 187q-124 101 -176.5 176t-52.5 166q0 114 88.5 185
t226.5 82q-145 136 -145 270q0 77 29 135.5t80 93t114 51.5t137 17q125 0 226 -37l-15 -35q-89 33 -209 33q-63 0 -117 -12.5t-102 -40t-76 -80t-28 -125.5t48.5 -146t180.5 -180q122 -98 172.5 -175t50.5 -163zM494 350l77 -63q55 2 107 17.5t97.5 43t73.5 74t28 104.5
q0 79 -47.5 147.5t-161.5 162.5l-70 57q-131 -8 -218 -72t-87 -168q0 -74 42.5 -141t158.5 -162z" />
    <glyph glyph-name="dieresis" unicode="&#xa8;" horiz-adv-x="962" 
d="M492 1450h57l-19 -90h-57zM823 1450h58l-19 -90h-57z" />
    <glyph glyph-name="copyright" unicode="&#xa9;" horiz-adv-x="1638" 
d="M1114 1157l-14 -39q-75 37 -182 37q-190 0 -293 -113.5t-103 -306.5q0 -192 103 -308t284 -116q109 0 211 37l10 -37q-103 -39 -225 -39q-197 0 -309.5 127.5t-112.5 335.5q0 207 114.5 333t317.5 126q118 0 199 -37zM1628 731q0 -157 -57.5 -295.5t-156.5 -238
t-238 -157.5t-295 -58t-295 58t-238.5 157.5t-157 238t-57.5 295.5q0 209 98 381t269.5 270.5t380.5 98.5q156 0 295 -58t238 -157.5t156.5 -238.5t57.5 -296zM1589 731q0 148 -54.5 280t-148.5 226.5t-225.5 149.5t-279.5 55q-197 0 -360 -93.5t-256 -256.5t-93 -361
t93 -361t256 -256.5t360 -93.5q148 0 279.5 55t225.5 149.5t148.5 226.5t54.5 280z" />
    <glyph glyph-name="ordfeminine" unicode="&#xaa;" horiz-adv-x="681" 
d="M666 1151l6 29q10 48 10 71q0 69 -42.5 103.5t-119.5 34.5q-78 0 -178 -33v39q98 32 178 32q98 0 149.5 -45.5t51.5 -126.5q0 -41 -12 -90l-52 -231q-19 -93 -22 -168h-39q3 49 16 127h-2q-30 -59 -90.5 -100t-134.5 -41q-84 0 -135 45.5t-51 124.5q0 67 31.5 112.5
t95 70.5t145 35.5t195.5 10.5zM657 1114h-20q-193 0 -296 -43t-103 -147q0 -62 40 -97.5t107 -35.5q46 0 86.5 17.5t68.5 44.5t50 63.5t34.5 70t20.5 68.5z" />
    <glyph glyph-name="guillemotleft" unicode="&#xab;" horiz-adv-x="987" 
d="M580 965l-326 -355l170 -354h-41l-172 354l2 11l317 344h50zM903 965l-325 -355l170 -354h-41l-172 354l2 11l317 344h49z" />
    <glyph glyph-name="logicalnot" unicode="&#xac;" horiz-adv-x="1083" 
d="M131 838v39h887v-463h-39v424h-848z" />
    <glyph glyph-name="uni00AD" unicode="&#xad;" horiz-adv-x="722" 
d="M176 598l8 39h420l-8 -39h-420z" />
    <glyph glyph-name="registered" unicode="&#xae;" horiz-adv-x="1032" 
d="M213 1075q0 180 123 303t303 123t303 -123t123 -303t-123 -303t-303 -123t-303 123t-123 303zM252 1075q0 -163 112 -275t275 -112t275 112t112 275t-112 275t-275 112t-275 -112t-112 -275zM498 827v498h164q135 0 135 -121q0 -95 -84 -123q24 -8 39 -27.5t28 -64.5
l49 -162h-38l-46 154q-14 47 -35.5 63.5t-76.5 16.5h-96v-234h-39zM537 1286v-186h108q113 0 113 98q0 53 -26.5 70.5t-80.5 17.5h-114z" />
    <glyph glyph-name="macron" unicode="&#xaf;" horiz-adv-x="962" 
d="M920 1419l-9 -39h-477l8 39h478z" />
    <glyph glyph-name="degree" unicode="&#xb0;" horiz-adv-x="729" 
d="M774 1235q0 -107 -71.5 -178.5t-178.5 -71.5t-178.5 71.5t-71.5 178.5t71.5 178.5t178.5 71.5t178.5 -71.5t71.5 -178.5zM735 1235q0 92 -59.5 151.5t-151.5 59.5t-151.5 -59.5t-59.5 -151.5t59.5 -151.5t151.5 -59.5t151.5 59.5t59.5 151.5z" />
    <glyph glyph-name="plusminus" unicode="&#xb1;" horiz-adv-x="1083" 
d="M555 1145h39v-363h424v-39h-424v-362h-39v362h-424v39h424v363zM1018 176h-887v39h887v-39z" />
    <glyph glyph-name="twosuperior" unicode="&#xb2;" 
d="M739 915l-8 -38h-536l6 34q136 110 214.5 174.5t157 133.5t116 110t70 86.5t42.5 81t10 76.5q0 71 -47.5 114.5t-128.5 43.5q-62 0 -113 -20t-116 -62l-19 30q126 90 250 90q101 0 157 -54t56 -142q0 -43 -10.5 -81t-41 -83.5t-68.5 -87.5t-112 -108t-151 -129t-205 -166
v-3h477z" />
    <glyph glyph-name="threesuperior" unicode="&#xb3;" 
d="M412 1313l8 39h94q133 0 215 57.5t82 163.5q0 74 -52 116t-136 42q-110 0 -215 -54l-11 37q113 55 228 55q105 0 165 -52.5t60 -143.5q0 -96 -60.5 -159t-154.5 -83v-2q70 -20 109.5 -71.5t39.5 -122.5q0 -131 -93 -202t-236 -71q-68 0 -134.5 17t-111.5 45l18 37
q96 -60 228 -60q57 0 107 13.5t92 40t66.5 72.5t24.5 106q0 84 -64 132t-171 48h-98z" />
    <glyph glyph-name="acute" unicode="&#xb4;" horiz-adv-x="962" 
d="M905 1573l-297 -336h-41l287 336h51z" />
    <glyph glyph-name="mu" unicode="&#xb5;" horiz-adv-x="1210" 
d="M10 -399l314 1480h38l-141 -669q-16 -86 -16 -150q0 -116 71.5 -182t204.5 -66q159 0 272 103t156 309l140 655h38l-184 -870q-21 -100 0 -142t92 -42q28 0 60 8l-11 -39q-27 -8 -59 -8q-86 0 -116 59.5t-3 163.5h-4q-42 -83 -108.5 -138t-134.5 -76.5t-140 -21.5
q-137 0 -212 60t-91 145h-4l-123 -579h-39z" />
    <glyph glyph-name="paragraph" unicode="&#xb6;" horiz-adv-x="1071" 
d="M1171 1462l-360 -1702h-39l352 1663h-362l-352 -1663h-39l190 904q-162 0 -257 86t-95 233q0 111 45 203t122.5 151.5t178.5 92t215 32.5h401z" />
    <glyph glyph-name="periodcentered" unicode="&#xb7;" horiz-adv-x="499" 
d="M225 567l25 109h80l-25 -109h-80z" />
    <glyph glyph-name="cedilla" unicode="&#xb8;" horiz-adv-x="962" 
d="M330 12l-66 -159q28 8 70 8q64 0 98.5 -34t34.5 -87q0 -59 -33 -98.5t-82.5 -55.5t-113.5 -16q-53 0 -95 10l7 35q39 -8 94 -8q182 0 182 131q0 39 -29 62.5t-82 23.5q-48 0 -100 -12l76 200h39z" />
    <glyph glyph-name="onesuperior" unicode="&#xb9;" 
d="M705 1755l-187 -878h-39l176 831h-2l-217 -121l-14 31l244 137h39z" />
    <glyph glyph-name="ordmasculine" unicode="&#xba;" horiz-adv-x="733" 
d="M772 1182q0 -54 -11 -110t-36.5 -114t-62.5 -102.5t-94.5 -73t-127.5 -28.5q-108 0 -164.5 68t-56.5 179q0 115 37.5 211t113 155.5t175.5 59.5q106 0 166.5 -68t60.5 -177zM440 793q72 0 130 36t92.5 94t52.5 124.5t18 134.5q0 92 -48 149.5t-140 57.5t-159 -58
t-97.5 -143.5t-30.5 -183.5q0 -95 45.5 -153t136.5 -58z" />
    <glyph glyph-name="guillemotright" unicode="&#xbb;" horiz-adv-x="987" 
d="M457 256l325 354l-170 355h41l172 -355l-2 -10l-317 -344h-49zM133 256l326 354l-170 355h41l172 -355l-2 -10l-318 -344h-49z" />
    <glyph glyph-name="onequarter" unicode="&#xbc;" horiz-adv-x="1808" 
d="M662 1462l-187 -878h-39l176 831h-2l-217 -121l-14 31l244 137h39zM1536 1462l-1163 -1462h-43l1163 1462h43zM1573 879l-127 -603h137l-8 -38h-137l-52 -238h-40l51 238h-424l6 41l541 600h53zM1405 276l117 547h-2l-494 -547h379z" />
    <glyph glyph-name="onehalf" unicode="&#xbd;" horiz-adv-x="1808" 
d="M662 1462l-187 -878h-39l176 831h-2l-217 -121l-14 31l244 137h39zM1532 39l-8 -39h-537l6 35q103 83 166 134.5t132.5 110t108 94t79 77t60 69t37 59.5t23 59t5.5 58q0 71 -48 114.5t-129 43.5q-62 0 -113 -20t-116 -62l-18 31q126 90 250 90q100 0 156 -54t56 -143
q0 -43 -10 -81t-40.5 -83.5t-68.5 -87.5t-112 -108t-151 -129.5t-205 -165.5v-2h477zM1536 1462l-1163 -1462h-43l1163 1462h43z" />
    <glyph glyph-name="threequarters" unicode="&#xbe;" horiz-adv-x="1808" 
d="M369 1020l8 39h94q133 0 215 57.5t82 163.5q0 74 -52 116t-136 42q-110 0 -215 -54l-11 37q115 56 228 56q105 0 165 -53t60 -144q0 -96 -60.5 -159t-154.5 -83v-2q70 -20 109.5 -71.5t39.5 -122.5q0 -131 -92.5 -202t-236.5 -71q-68 0 -134.5 17t-111.5 45l18 37
q96 -60 228 -60q57 0 107 13.5t92 40t66.5 72.5t24.5 106q0 84 -64 132t-171 48h-98zM1573 879l-127 -603h137l-8 -38h-137l-52 -238h-40l51 238h-424l6 41l541 600h53zM1405 276l117 547h-2l-494 -547h379zM1583 1462l-1163 -1462h-43l1163 1462h43z" />
    <glyph glyph-name="questiondown" unicode="&#xbf;" horiz-adv-x="870" 
d="M567 1081h80l-22 -108h-80zM516 717l16 80h41l-18 -84q-22 -103 -57 -174.5t-84.5 -125.5t-137.5 -122l-81 -64q-55 -42 -89 -74t-66.5 -74.5t-47.5 -92t-15 -109.5q0 -116 83 -180t208 -64q140 0 275 56l10 -35q-141 -60 -289 -60q-141 0 -233 71.5t-92 209.5
q0 66 15 118t51.5 101t83.5 92t124 101q151 113 212.5 200.5t90.5 229.5z" />
    <glyph glyph-name="Agrave" unicode="&#xc0;" horiz-adv-x="1177" 
d="M956 500h-700l-309 -500h-45l901 1462h59l203 -1462h-39zM829 1434l-553 -895h676zM670 1870h49l162 -275h-39z" />
    <glyph glyph-name="Aacute" unicode="&#xc1;" horiz-adv-x="1177" 
d="M956 500h-700l-309 -500h-45l901 1462h59l203 -1462h-39zM829 1434l-553 -895h676zM1100 1870h53l-268 -275h-41z" />
    <glyph glyph-name="Acircumflex" unicode="&#xc2;" horiz-adv-x="1177" 
d="M956 500h-700l-309 -500h-45l901 1462h59l203 -1462h-39zM829 1434l-553 -895h676zM1130 1579h-36l-179 264l-292 -264h-45l319 299h43z" />
    <glyph glyph-name="Atilde" unicode="&#xc3;" horiz-adv-x="1177" 
d="M956 500h-700l-309 -500h-45l901 1462h59l203 -1462h-39zM829 1434l-553 -895h676zM1024 1638q-27 0 -53 11t-42 23t-44 36q-33 29 -45 39t-37 22.5t-47 12.5q-95 0 -127 -144h-37q39 183 164 183q62 0 139 -70q27 -25 42.5 -37t40 -24.5t46.5 -12.5q101 0 133 144h37
q-18 -85 -61.5 -134t-108.5 -49z" />
    <glyph glyph-name="Adieresis" unicode="&#xc4;" horiz-adv-x="1177" 
d="M956 500h-700l-309 -500h-45l901 1462h59l203 -1462h-39zM829 1434l-553 -895h676zM707 1774h57l-21 -91h-57zM1038 1774h58l-21 -91h-57z" />
    <glyph glyph-name="Aring" unicode="&#xc5;" horiz-adv-x="1177" 
d="M956 500h-700l-309 -500h-45l901 1462h59l203 -1462h-39zM829 1434l-553 -895h676zM1067 1720q0 -75 -52.5 -127.5t-127.5 -52.5t-127.5 52.5t-52.5 127.5t52.5 128t127.5 53t127.5 -53t52.5 -128zM1028 1720q0 60 -40.5 101t-100.5 41t-101 -41t-41 -101t41 -100.5
t101 -40.5t100.5 40.5t40.5 100.5z" />
    <glyph glyph-name="AE" unicode="&#xc6;" horiz-adv-x="1644" 
d="M713 0l96 459h-520l-342 -459h-45l1085 1462h701l-9 -39h-626l-138 -647h623l-8 -39h-623l-147 -698h688l-8 -39h-727zM1010 1427l-693 -929h500l197 929h-4z" />
    <glyph glyph-name="Ccedilla" unicode="&#xc7;" horiz-adv-x="1159" 
d="M999 66v-41q-133 -50 -299 -50q-54 0 -100 9l-53 -131q28 8 69 8q64 0 99 -34t35 -87q0 -59 -33 -98.5t-83 -55.5t-114 -16q-52 0 -94 10l6 35q39 -8 94 -8q183 0 183 131q0 39 -29 62.5t-82 23.5q-48 0 -100 -12l67 178q-132 28 -224.5 110.5t-135.5 197.5t-43 255
q0 139 32 272.5t98.5 253.5t160.5 210.5t227.5 144t290.5 53.5q161 0 268 -49l-14 -35q-109 45 -256 45q-151 0 -279.5 -53t-217 -141t-151 -204t-91.5 -241.5t-29 -253.5q0 -112 31 -208.5t92 -171.5t160.5 -118t226.5 -43q150 0 288 52z" />
    <glyph glyph-name="Egrave" unicode="&#xc8;" horiz-adv-x="1042" 
d="M111 0l309 1462h665l-8 -39h-626l-138 -647h623l-8 -39h-623l-147 -698h688l-8 -39h-727zM627 1870h49l162 -275h-39z" />
    <glyph glyph-name="Eacute" unicode="&#xc9;" horiz-adv-x="1042" 
d="M111 0l309 1462h665l-8 -39h-626l-138 -647h623l-8 -39h-623l-147 -698h688l-8 -39h-727zM991 1870h53l-268 -275h-41z" />
    <glyph glyph-name="Ecircumflex" unicode="&#xca;" horiz-adv-x="1042" 
d="M111 0l309 1462h665l-8 -39h-626l-138 -647h623l-8 -39h-623l-147 -698h688l-8 -39h-727zM1053 1579h-37l-178 264l-293 -264h-45l319 299h43z" />
    <glyph glyph-name="Edieresis" unicode="&#xcb;" horiz-adv-x="1042" 
d="M111 0l309 1462h665l-8 -39h-626l-138 -647h623l-8 -39h-623l-147 -698h688l-8 -39h-727zM635 1774h57l-20 -91h-58zM967 1774h57l-20 -91h-58z" />
    <glyph glyph-name="Igrave" unicode="&#xcc;" horiz-adv-x="464" 
d="M111 0l309 1462h39l-309 -1462h-39zM276 1870h50l161 -275h-38z" />
    <glyph glyph-name="Iacute" unicode="&#xcd;" horiz-adv-x="464" 
d="M111 0l309 1462h39l-309 -1462h-39zM705 1870h53l-269 -275h-40z" />
    <glyph glyph-name="Icircumflex" unicode="&#xce;" horiz-adv-x="464" 
d="M111 0l309 1462h39l-309 -1462h-39zM739 1579h-37l-178 264l-293 -264h-45l320 299h43z" />
    <glyph glyph-name="Idieresis" unicode="&#xcf;" horiz-adv-x="464" 
d="M111 0l309 1462h39l-309 -1462h-39zM311 1774h58l-21 -91h-57zM643 1774h57l-20 -91h-57z" />
    <glyph glyph-name="Eth" unicode="&#xd0;" horiz-adv-x="1372" 
d="M111 0l155 737h-153l8 39h153l146 686h254q302 0 461 -155t159 -424q0 -209 -66.5 -377t-186 -278.5t-283.5 -169t-359 -58.5h-288zM602 737h-297l-147 -698h245q261 0 454 103t295.5 293t102.5 446q0 119 -34.5 216t-104.5 171t-185.5 114.5t-268.5 40.5h-211l-138 -647
h297z" />
    <glyph glyph-name="Ntilde" unicode="&#xd1;" horiz-adv-x="1388" 
d="M485 1462l549 -1427h4l303 1427h39l-309 -1462h-65l-549 1427h-4l-303 -1427h-39l309 1462h65zM1090 1638q-27 0 -53.5 11t-43 23.5t-43.5 35.5q-33 29 -45 39t-37 22.5t-47 12.5q-95 0 -127 -144h-37q39 183 164 183q63 0 140 -70q27 -25 42.5 -37t40 -24.5t46.5 -12.5
q101 0 133 144h37q-18 -85 -61.5 -134t-108.5 -49z" />
    <glyph glyph-name="Ograve" unicode="&#xd2;" horiz-adv-x="1468" 
d="M1391 954q0 -133 -27 -267.5t-87 -263.5t-145.5 -228t-212 -159.5t-276.5 -60.5q-237 0 -360 145.5t-123 393.5q0 133 28 267t88.5 262t147 226t213 158t276.5 60q233 0 355.5 -144.5t122.5 -388.5zM645 14q136 0 253.5 55.5t199 148.5t139.5 214t85.5 252t27.5 264
q0 229 -111.5 364.5t-329.5 135.5q-156 0 -290 -76.5t-224.5 -204.5t-142 -298t-51.5 -355q0 -111 26.5 -201t80 -157.5t139 -104.5t198.5 -37zM807 1870h49l162 -275h-39z" />
    <glyph glyph-name="Oacute" unicode="&#xd3;" horiz-adv-x="1468" 
d="M1391 954q0 -133 -27 -267.5t-87 -263.5t-145.5 -228t-212 -159.5t-276.5 -60.5q-237 0 -360 145.5t-123 393.5q0 133 28 267t88.5 262t147 226t213 158t276.5 60q233 0 355.5 -144.5t122.5 -388.5zM645 14q136 0 253.5 55.5t199 148.5t139.5 214t85.5 252t27.5 264
q0 229 -111.5 364.5t-329.5 135.5q-156 0 -290 -76.5t-224.5 -204.5t-142 -298t-51.5 -355q0 -111 26.5 -201t80 -157.5t139 -104.5t198.5 -37zM1143 1870h53l-268 -275h-41z" />
    <glyph glyph-name="Ocircumflex" unicode="&#xd4;" horiz-adv-x="1468" 
d="M1391 954q0 -133 -27 -267.5t-87 -263.5t-145.5 -228t-212 -159.5t-276.5 -60.5q-237 0 -360 145.5t-123 393.5q0 133 28 267t88.5 262t147 226t213 158t276.5 60q233 0 355.5 -144.5t122.5 -388.5zM645 14q136 0 253.5 55.5t199 148.5t139.5 214t85.5 252t27.5 264
q0 229 -111.5 364.5t-329.5 135.5q-156 0 -290 -76.5t-224.5 -204.5t-142 -298t-51.5 -355q0 -111 26.5 -201t80 -157.5t139 -104.5t198.5 -37zM1231 1579h-37l-178 264l-293 -264h-45l319 299h43z" />
    <glyph glyph-name="Otilde" unicode="&#xd5;" horiz-adv-x="1468" 
d="M1391 954q0 -133 -27 -267.5t-87 -263.5t-145.5 -228t-212 -159.5t-276.5 -60.5q-237 0 -360 145.5t-123 393.5q0 133 28 267t88.5 262t147 226t213 158t276.5 60q233 0 355.5 -144.5t122.5 -388.5zM645 14q136 0 253.5 55.5t199 148.5t139.5 214t85.5 252t27.5 264
q0 229 -111.5 364.5t-329.5 135.5q-156 0 -290 -76.5t-224.5 -204.5t-142 -298t-51.5 -355q0 -111 26.5 -201t80 -157.5t139 -104.5t198.5 -37zM1120 1638q-27 0 -53 11t-42 23t-44 36q-33 29 -45 39t-37 22.5t-47 12.5q-95 0 -127 -144h-37q39 183 164 183q62 0 139 -70
q27 -25 42.5 -37t40 -24.5t46.5 -12.5q101 0 133 144h37q-18 -85 -61.5 -134t-108.5 -49z" />
    <glyph glyph-name="Odieresis" unicode="&#xd6;" horiz-adv-x="1468" 
d="M1391 954q0 -133 -27 -267.5t-87 -263.5t-145.5 -228t-212 -159.5t-276.5 -60.5q-237 0 -360 145.5t-123 393.5q0 133 28 267t88.5 262t147 226t213 158t276.5 60q233 0 355.5 -144.5t122.5 -388.5zM645 14q136 0 253.5 55.5t199 148.5t139.5 214t85.5 252t27.5 264
q0 229 -111.5 364.5t-329.5 135.5q-156 0 -290 -76.5t-224.5 -204.5t-142 -298t-51.5 -355q0 -111 26.5 -201t80 -157.5t139 -104.5t198.5 -37zM803 1774h57l-20 -91h-58zM1135 1774h57l-21 -91h-57z" />
    <glyph glyph-name="multiply" unicode="&#xd7;" horiz-adv-x="1083" 
d="M164 186l-29 29l412 416l-412 418l27 26l413 -418l414 418l27 -26l-414 -418l414 -416l-29 -29l-412 416z" />
    <glyph glyph-name="Oslash" unicode="&#xd8;" horiz-adv-x="1468" 
d="M1391 954q0 -133 -27 -267.5t-87 -263.5t-145.5 -228t-212 -159.5t-276.5 -60.5q-269 0 -395 191l-172 -176l-27 26l178 183q-67 128 -67 315q0 133 28 267t88.5 262t147 226t213 158t276.5 60q265 0 390 -191l165 168l27 -26l-172 -176q68 -127 68 -308zM201 514
q0 -168 57 -285l1014 1035q-112 184 -363 184q-156 0 -290 -76.5t-224.5 -204.5t-142 -298t-51.5 -355zM645 14q136 0 253.5 55.5t199 148.5t139.5 214t85.5 252t27.5 264q0 167 -58 283l-1013 -1034q113 -183 366 -183z" />
    <glyph glyph-name="Ugrave" unicode="&#xd9;" horiz-adv-x="1394" 
d="M1403 1462l-209 -991q-20 -96 -46.5 -168t-71.5 -136t-106.5 -104.5t-151.5 -64t-206 -23.5q-228 0 -336 89.5t-108 248.5q0 70 20 162l209 987h39l-211 -997q-16 -73 -16 -148q0 -144 98 -223.5t305 -79.5q105 0 186.5 20t139.5 56.5t101 94t69.5 124.5t44.5 156
l211 997h39zM768 1870h49l162 -275h-39z" />
    <glyph glyph-name="Uacute" unicode="&#xda;" horiz-adv-x="1394" 
d="M1403 1462l-209 -991q-20 -96 -46.5 -168t-71.5 -136t-106.5 -104.5t-151.5 -64t-206 -23.5q-228 0 -336 89.5t-108 248.5q0 70 20 162l209 987h39l-211 -997q-16 -73 -16 -148q0 -144 98 -223.5t305 -79.5q105 0 186.5 20t139.5 56.5t101 94t69.5 124.5t44.5 156
l211 997h39zM1122 1870h54l-269 -275h-41z" />
    <glyph glyph-name="Ucircumflex" unicode="&#xdb;" horiz-adv-x="1394" 
d="M1403 1462l-209 -991q-20 -96 -46.5 -168t-71.5 -136t-106.5 -104.5t-151.5 -64t-206 -23.5q-228 0 -336 89.5t-108 248.5q0 70 20 162l209 987h39l-211 -997q-16 -73 -16 -148q0 -144 98 -223.5t305 -79.5q105 0 186.5 20t139.5 56.5t101 94t69.5 124.5t44.5 156
l211 997h39zM1200 1579h-37l-178 264l-293 -264h-45l320 299h43z" />
    <glyph glyph-name="Udieresis" unicode="&#xdc;" horiz-adv-x="1394" 
d="M1403 1462l-209 -991q-20 -96 -46.5 -168t-71.5 -136t-106.5 -104.5t-151.5 -64t-206 -23.5q-228 0 -336 89.5t-108 248.5q0 70 20 162l209 987h39l-211 -997q-16 -73 -16 -148q0 -144 98 -223.5t305 -79.5q105 0 186.5 20t139.5 56.5t101 94t69.5 124.5t44.5 156
l211 997h39zM772 1774h57l-20 -91h-57zM1104 1774h57l-20 -91h-58z" />
    <glyph glyph-name="Yacute" unicode="&#xdd;" horiz-adv-x="1056" 
d="M383 0l129 614l-299 848h45l281 -811l671 811h50l-709 -848l-129 -614h-39zM944 1870h53l-268 -275h-41z" />
    <glyph glyph-name="Thorn" unicode="&#xde;" horiz-adv-x="1159" 
d="M111 0l309 1462h39l-60 -284h318q80 0 151 -20t128.5 -59t91.5 -105.5t34 -151.5q0 -106 -34.5 -187t-89 -129t-131 -78t-151 -40.5t-159.5 -10.5h-324l-83 -397h-39zM391 1139l-149 -703h319q79 0 147.5 9.5t139.5 36.5t120.5 70.5t81 117t31.5 170.5q0 78 -31.5 137
t-86 93.5t-121 51.5t-142.5 17h-309z" />
    <glyph glyph-name="germandbls" unicode="&#xdf;" horiz-adv-x="1257" 
d="M825 1505q163 0 265 -90t102 -241q0 -165 -102.5 -274.5t-276.5 -137.5v-4q143 -32 218 -122.5t75 -225.5q0 -205 -132.5 -320t-350.5 -115q-128 0 -244 41l14 39q116 -41 230 -41q200 0 322 102.5t122 293.5q0 65 -22 121t-68.5 103.5t-129 75t-192.5 27.5l9 39
q96 3 179.5 26t154.5 68.5t112 123t41 180.5q0 132 -89.5 212t-236.5 80q-189 0 -308.5 -112t-174.5 -371l-209 -983h-39l209 989q58 276 187.5 396t334.5 120z" />
    <glyph glyph-name="agrave" unicode="&#xe0;" horiz-adv-x="1046" 
d="M870 635l15 65q16 86 16 121q0 124 -77 185t-210 61q-136 0 -282 -49v39q142 49 282 49q155 0 240.5 -73.5t85.5 -205.5q0 -45 -16 -120l-90 -428q-36 -169 -39 -279h-39q4 70 39 256h-4q-55 -125 -158 -203t-248 -78q-135 0 -217 75t-82 204q0 89 36 155.5t99.5 109.5
t163.5 69t216.5 36.5t268.5 10.5zM864 598h-55q-160 0 -279.5 -16.5t-213.5 -55t-142.5 -106t-48.5 -164.5q0 -113 71.5 -177.5t190.5 -64.5q347 0 451 465zM711 1237l-176 336h47l168 -336h-39z" />
    <glyph glyph-name="aacute" unicode="&#xe1;" horiz-adv-x="1046" 
d="M870 635l15 65q16 86 16 121q0 124 -77 185t-210 61q-136 0 -282 -49v39q142 49 282 49q155 0 240.5 -73.5t85.5 -205.5q0 -45 -16 -120l-90 -428q-36 -169 -39 -279h-39q4 70 39 256h-4q-55 -125 -158 -203t-248 -78q-135 0 -217 75t-82 204q0 89 36 155.5t99.5 109.5
t163.5 69t216.5 36.5t268.5 10.5zM864 598h-55q-160 0 -279.5 -16.5t-213.5 -55t-142.5 -106t-48.5 -164.5q0 -113 71.5 -177.5t190.5 -64.5q347 0 451 465zM922 1573l-297 -336h-41l286 336h52z" />
    <glyph glyph-name="acircumflex" unicode="&#xe2;" horiz-adv-x="1046" 
d="M870 635l15 65q16 86 16 121q0 124 -77 185t-210 61q-136 0 -282 -49v39q142 49 282 49q155 0 240.5 -73.5t85.5 -205.5q0 -45 -16 -120l-90 -428q-36 -169 -39 -279h-39q4 70 39 256h-4q-55 -125 -158 -203t-248 -78q-135 0 -217 75t-82 204q0 89 36 155.5t99.5 109.5
t163.5 69t216.5 36.5t268.5 10.5zM864 598h-55q-160 0 -279.5 -16.5t-213.5 -55t-142.5 -106t-48.5 -164.5q0 -113 71.5 -177.5t190.5 -64.5q347 0 451 465zM946 1237h-37l-178 301l-293 -301h-45l320 336h43z" />
    <glyph glyph-name="atilde" unicode="&#xe3;" horiz-adv-x="1046" 
d="M870 635l15 65q16 86 16 121q0 124 -77 185t-210 61q-136 0 -282 -49v39q142 49 282 49q155 0 240.5 -73.5t85.5 -205.5q0 -45 -16 -120l-90 -428q-36 -169 -39 -279h-39q4 70 39 256h-4q-55 -125 -158 -203t-248 -78q-135 0 -217 75t-82 204q0 89 36 155.5t99.5 109.5
t163.5 69t216.5 36.5t268.5 10.5zM864 598h-55q-160 0 -279.5 -16.5t-213.5 -55t-142.5 -106t-48.5 -164.5q0 -113 71.5 -177.5t190.5 -64.5q347 0 451 465zM829 1315q-27 0 -53 10.5t-42.5 23t-43.5 35.5q-33 29 -45 39t-37 22.5t-47 12.5q-95 0 -127 -143h-37
q38 182 164 182q62 0 139 -70q26 -24 42 -36.5t40.5 -24.5t46.5 -12q102 0 134 143h36q-18 -85 -61 -133.5t-109 -48.5z" />
    <glyph glyph-name="adieresis" unicode="&#xe4;" horiz-adv-x="1046" 
d="M870 635l15 65q16 86 16 121q0 124 -77 185t-210 61q-136 0 -282 -49v39q142 49 282 49q155 0 240.5 -73.5t85.5 -205.5q0 -45 -16 -120l-90 -428q-36 -169 -39 -279h-39q4 70 39 256h-4q-55 -125 -158 -203t-248 -78q-135 0 -217 75t-82 204q0 89 36 155.5t99.5 109.5
t163.5 69t216.5 36.5t268.5 10.5zM864 598h-55q-160 0 -279.5 -16.5t-213.5 -55t-142.5 -106t-48.5 -164.5q0 -113 71.5 -177.5t190.5 -64.5q347 0 451 465zM528 1450h58l-19 -90h-57zM860 1450h58l-19 -90h-57z" />
    <glyph glyph-name="aring" unicode="&#xe5;" horiz-adv-x="1046" 
d="M870 635l15 65q16 86 16 121q0 124 -77 185t-210 61q-136 0 -282 -49v39q142 49 282 49q155 0 240.5 -73.5t85.5 -205.5q0 -45 -16 -120l-90 -428q-36 -169 -39 -279h-39q4 70 39 256h-4q-55 -125 -158 -203t-248 -78q-135 0 -217 75t-82 204q0 89 36 155.5t99.5 109.5
t163.5 69t216.5 36.5t268.5 10.5zM864 598h-55q-160 0 -279.5 -16.5t-213.5 -55t-142.5 -106t-48.5 -164.5q0 -113 71.5 -177.5t190.5 -64.5q347 0 451 465zM901 1403q0 -75 -52.5 -127.5t-127.5 -52.5t-127.5 52.5t-52.5 127.5t52.5 127.5t127.5 52.5t127.5 -52.5
t52.5 -127.5zM862 1403q0 60 -40.5 100.5t-100.5 40.5t-100.5 -40.5t-40.5 -100.5t40.5 -100.5t100.5 -40.5t100.5 40.5t40.5 100.5z" />
    <glyph glyph-name="ae" unicode="&#xe6;" horiz-adv-x="1816" 
d="M1724 582h-825q-18 -106 -18 -164q0 -80 22.5 -150t68.5 -128t125 -92t183 -34q132 0 262 37v-37q-115 -39 -264 -39q-191 0 -301 102.5t-131 272.5h-2q-127 -375 -457 -375q-138 0 -219.5 75t-81.5 200q0 89 34.5 153.5t96.5 106.5t161.5 66.5t216 34.5t273.5 10l17 79
q16 86 16 121q0 124 -77 185t-210 61q-136 0 -282 -49v39q142 49 282 49q154 0 239 -71.5t85 -200.5v-33h2q73 139 191 222t268 83q176 0 261 -94t85 -254q0 -65 -21 -176zM860 582h-53q-165 0 -284.5 -15.5t-212 -52t-139 -102t-46.5 -160.5q0 -107 72 -172.5t192 -65.5
q350 0 447 455zM1694 621q12 68 12 135q0 144 -76 227.5t-235 83.5q-97 0 -181.5 -39.5t-144 -105.5t-100 -142.5t-62.5 -158.5h787z" />
    <glyph glyph-name="ccedilla" unicode="&#xe7;" horiz-adv-x="892" 
d="M922 1075l-13 -37q-77 29 -190 29q-162 0 -289.5 -92.5t-194.5 -241t-67 -321.5q0 -84 21 -155t63 -126t111.5 -86t160.5 -31q120 0 221 37v-37q-112 -39 -223 -39q-15 0 -65 5l-51 -127q28 8 69 8q64 0 98.5 -34t34.5 -87q0 -59 -33 -98.5t-82.5 -55.5t-113.5 -16
q-52 0 -94 10l6 35q39 -8 94 -8q182 0 182 131q0 39 -28.5 62.5t-81.5 23.5q-49 0 -101 -12l66 174q-100 20 -167.5 83t-96.5 149.5t-29 193.5q0 186 73 343.5t210.5 254t310.5 96.5q122 0 199 -31z" />
    <glyph glyph-name="egrave" unicode="&#xe8;" horiz-adv-x="1114" 
d="M1014 545h-826q-10 -59 -10 -127q0 -80 23 -150t69 -128t125 -92t183 -34q132 0 262 37v-37q-115 -39 -265 -39q-143 0 -243 59.5t-146.5 157t-46.5 222.5q0 96 23.5 193t70.5 186.5t112.5 159.5t156.5 111.5t194 41.5q176 0 261 -94t85 -254q0 -86 -28 -213zM983 584
q21 102 21 172q0 144 -76.5 227.5t-235.5 83.5q-79 0 -150 -27t-126 -73t-99.5 -108t-74 -131t-45.5 -144h786zM766 1237l-176 336h47l168 -336h-39z" />
    <glyph glyph-name="eacute" unicode="&#xe9;" horiz-adv-x="1114" 
d="M1014 545h-826q-10 -59 -10 -127q0 -80 23 -150t69 -128t125 -92t183 -34q132 0 262 37v-37q-115 -39 -265 -39q-143 0 -243 59.5t-146.5 157t-46.5 222.5q0 96 23.5 193t70.5 186.5t112.5 159.5t156.5 111.5t194 41.5q176 0 261 -94t85 -254q0 -86 -28 -213zM983 584
q21 102 21 172q0 144 -76.5 227.5t-235.5 83.5q-79 0 -150 -27t-126 -73t-99.5 -108t-74 -131t-45.5 -144h786zM1026 1573l-297 -336h-41l287 336h51z" />
    <glyph glyph-name="ecircumflex" unicode="&#xea;" horiz-adv-x="1114" 
d="M1014 545h-826q-10 -59 -10 -127q0 -80 23 -150t69 -128t125 -92t183 -34q132 0 262 37v-37q-115 -39 -265 -39q-143 0 -243 59.5t-146.5 157t-46.5 222.5q0 96 23.5 193t70.5 186.5t112.5 159.5t156.5 111.5t194 41.5q176 0 261 -94t85 -254q0 -86 -28 -213zM983 584
q21 102 21 172q0 144 -76.5 227.5t-235.5 83.5q-79 0 -150 -27t-126 -73t-99.5 -108t-74 -131t-45.5 -144h786zM1024 1237h-37l-178 301l-293 -301h-45l320 336h43z" />
    <glyph glyph-name="edieresis" unicode="&#xeb;" horiz-adv-x="1114" 
d="M1014 545h-826q-10 -59 -10 -127q0 -80 23 -150t69 -128t125 -92t183 -34q132 0 262 37v-37q-115 -39 -265 -39q-143 0 -243 59.5t-146.5 157t-46.5 222.5q0 96 23.5 193t70.5 186.5t112.5 159.5t156.5 111.5t194 41.5q176 0 261 -94t85 -254q0 -86 -28 -213zM983 584
q21 102 21 172q0 144 -76.5 227.5t-235.5 83.5q-79 0 -150 -27t-126 -73t-99.5 -108t-74 -131t-45.5 -144h786zM600 1450h57l-18 -90h-57zM932 1450h57l-18 -90h-58z" />
    <glyph glyph-name="igrave" unicode="&#xec;" horiz-adv-x="442" 
d="M324 1081h38l-229 -1081h-39zM356 1237l-176 336h47l168 -336h-39z" />
    <glyph glyph-name="iacute" unicode="&#xed;" horiz-adv-x="442" 
d="M324 1081h38l-229 -1081h-39zM694 1573l-297 -336h-41l287 336h51z" />
    <glyph glyph-name="icircumflex" unicode="&#xee;" horiz-adv-x="442" 
d="M324 1081h38l-229 -1081h-39zM651 1237h-37l-178 301l-293 -301h-45l320 336h43z" />
    <glyph glyph-name="idieresis" unicode="&#xef;" horiz-adv-x="442" 
d="M324 1081h38l-229 -1081h-39zM225 1450h58l-19 -90h-57zM557 1450h57l-18 -90h-57z" />
    <glyph glyph-name="eth" unicode="&#xf0;" horiz-adv-x="1146" 
d="M500 -25q-172 0 -267.5 110t-95.5 286q0 174 68.5 321t188.5 233.5t265 86.5q134 0 227 -72.5t124 -202.5h2q0 387 -183 559l-356 -139v39l326 127q-101 78 -275 121l23 35q186 -46 297 -140l248 99v-39l-220 -86q179 -176 179 -535q0 -172 -43 -334
q-55 -208 -189 -338.5t-319 -130.5zM500 14q138 0 250.5 85.5t174.5 225.5t62 302q0 146 -88 246t-240 100q-140 0 -252.5 -87t-171.5 -223.5t-59 -289.5q0 -158 84.5 -258.5t239.5 -100.5z" />
    <glyph glyph-name="ntilde" unicode="&#xf1;" horiz-adv-x="1134" 
d="M324 1081h38l-47 -211h4q42 83 109.5 138t135.5 76.5t138 21.5q147 0 230.5 -76t83.5 -207q0 -64 -17 -151l-141 -672h-39l142 670q16 86 16 149q0 115 -73 181.5t-204 66.5q-159 0 -272 -103t-156 -309l-139 -655h-39zM913 1315q-27 0 -53 10.5t-42.5 23t-43.5 35.5
q-33 29 -45 39t-37 22.5t-47 12.5q-95 0 -127 -143h-37q38 182 164 182q62 0 139 -70q26 -24 42 -36.5t40.5 -24.5t46.5 -12q102 0 134 143h36q-18 -85 -61 -133.5t-109 -48.5z" />
    <glyph glyph-name="ograve" unicode="&#xf2;" horiz-adv-x="1146" 
d="M1042 698q0 -74 -13 -153t-39.5 -161.5t-71.5 -155t-103 -129.5t-140 -90.5t-177 -33.5q-176 0 -267.5 113.5t-91.5 298.5q0 144 36.5 274t103 229t168.5 157.5t225 58.5q174 0 272 -113t98 -295zM498 14q100 0 185 42t143 111t99 158.5t60 183.5t19 187q0 165 -85.5 268
t-246.5 103q-121 0 -217.5 -58.5t-155.5 -156t-90 -216.5t-31 -247q0 -108 32.5 -190.5t106 -133.5t181.5 -51zM758 1237l-176 336h47l168 -336h-39z" />
    <glyph glyph-name="oacute" unicode="&#xf3;" horiz-adv-x="1146" 
d="M1042 698q0 -74 -13 -153t-39.5 -161.5t-71.5 -155t-103 -129.5t-140 -90.5t-177 -33.5q-176 0 -267.5 113.5t-91.5 298.5q0 144 36.5 274t103 229t168.5 157.5t225 58.5q174 0 272 -113t98 -295zM498 14q100 0 185 42t143 111t99 158.5t60 183.5t19 187q0 165 -85.5 268
t-246.5 103q-121 0 -217.5 -58.5t-155.5 -156t-90 -216.5t-31 -247q0 -108 32.5 -190.5t106 -133.5t181.5 -51zM1008 1573l-297 -336h-41l286 336h52z" />
    <glyph glyph-name="ocircumflex" unicode="&#xf4;" horiz-adv-x="1146" 
d="M1042 698q0 -74 -13 -153t-39.5 -161.5t-71.5 -155t-103 -129.5t-140 -90.5t-177 -33.5q-176 0 -267.5 113.5t-91.5 298.5q0 144 36.5 274t103 229t168.5 157.5t225 58.5q174 0 272 -113t98 -295zM498 14q100 0 185 42t143 111t99 158.5t60 183.5t19 187q0 165 -85.5 268
t-246.5 103q-121 0 -217.5 -58.5t-155.5 -156t-90 -216.5t-31 -247q0 -108 32.5 -190.5t106 -133.5t181.5 -51zM1014 1237h-37l-178 301l-293 -301h-45l319 336h43z" />
    <glyph glyph-name="otilde" unicode="&#xf5;" horiz-adv-x="1146" 
d="M1042 698q0 -74 -13 -153t-39.5 -161.5t-71.5 -155t-103 -129.5t-140 -90.5t-177 -33.5q-176 0 -267.5 113.5t-91.5 298.5q0 144 36.5 274t103 229t168.5 157.5t225 58.5q174 0 272 -113t98 -295zM498 14q100 0 185 42t143 111t99 158.5t60 183.5t19 187q0 165 -85.5 268
t-246.5 103q-121 0 -217.5 -58.5t-155.5 -156t-90 -216.5t-31 -247q0 -108 32.5 -190.5t106 -133.5t181.5 -51zM905 1315q-27 0 -53 10.5t-42.5 23t-43.5 35.5q-33 29 -45 39t-37 22.5t-47 12.5q-95 0 -127 -143h-37q38 182 164 182q62 0 139 -70q26 -24 42 -36.5
t40.5 -24.5t46.5 -12q101 0 133 143h37q-18 -85 -61 -133.5t-109 -48.5z" />
    <glyph glyph-name="odieresis" unicode="&#xf6;" horiz-adv-x="1146" 
d="M1042 698q0 -74 -13 -153t-39.5 -161.5t-71.5 -155t-103 -129.5t-140 -90.5t-177 -33.5q-176 0 -267.5 113.5t-91.5 298.5q0 144 36.5 274t103 229t168.5 157.5t225 58.5q174 0 272 -113t98 -295zM498 14q100 0 185 42t143 111t99 158.5t60 183.5t19 187q0 165 -85.5 268
t-246.5 103q-121 0 -217.5 -58.5t-155.5 -156t-90 -216.5t-31 -247q0 -108 32.5 -190.5t106 -133.5t181.5 -51zM588 1450h57l-18 -90h-58zM920 1450h57l-19 -90h-57z" />
    <glyph glyph-name="divide" unicode="&#xf7;" horiz-adv-x="1083" 
d="M535 223v109h79v-109h-79zM1018 625h-887v39h887v-39zM535 956v109h79v-109h-79z" />
    <glyph glyph-name="oslash" unicode="&#xf8;" horiz-adv-x="1146" 
d="M1042 698q0 -74 -13 -153t-39.5 -161.5t-71.5 -155t-103 -129.5t-140 -90.5t-177 -33.5q-213 0 -301 164l-164 -157l-25 26l170 164q-39 88 -39 215q0 144 36.5 274t103 229t168.5 157.5t225 58.5q209 0 307 -160l154 148l24 -27l-160 -154q45 -95 45 -215zM498 14
q100 0 185 42t143 111t99 158.5t60 183.5t19 187q0 111 -37 189l-742 -717q80 -154 273 -154zM178 389q0 -104 31 -186l741 717q-85 147 -278 147q-121 0 -217.5 -58.5t-155.5 -156t-90 -216.5t-31 -247z" />
    <glyph glyph-name="ugrave" unicode="&#xf9;" horiz-adv-x="1134" 
d="M834 0h-39l47 211h-4q-42 -83 -108.5 -138t-134.5 -76.5t-140 -21.5q-148 0 -231 76t-83 207q0 65 17 152l141 671h39l-141 -669q-17 -91 -17 -150q0 -116 72 -182t205 -66q159 0 272 103t156 309l139 655h39zM731 1237l-176 336h47l168 -336h-39z" />
    <glyph glyph-name="uacute" unicode="&#xfa;" horiz-adv-x="1134" 
d="M834 0h-39l47 211h-4q-42 -83 -108.5 -138t-134.5 -76.5t-140 -21.5q-148 0 -231 76t-83 207q0 65 17 152l141 671h39l-141 -669q-17 -91 -17 -150q0 -116 72 -182t205 -66q159 0 272 103t156 309l139 655h39zM1006 1573l-297 -336h-41l286 336h52z" />
    <glyph glyph-name="ucircumflex" unicode="&#xfb;" horiz-adv-x="1134" 
d="M834 0h-39l47 211h-4q-42 -83 -108.5 -138t-134.5 -76.5t-140 -21.5q-148 0 -231 76t-83 207q0 65 17 152l141 671h39l-141 -669q-17 -91 -17 -150q0 -116 72 -182t205 -66q159 0 272 103t156 309l139 655h39zM991 1237h-37l-178 301l-293 -301h-45l320 336h43z" />
    <glyph glyph-name="udieresis" unicode="&#xfc;" horiz-adv-x="1134" 
d="M834 0h-39l47 211h-4q-42 -83 -108.5 -138t-134.5 -76.5t-140 -21.5q-148 0 -231 76t-83 207q0 65 17 152l141 671h39l-141 -669q-17 -91 -17 -150q0 -116 72 -182t205 -66q159 0 272 103t156 309l139 655h39zM563 1450h58l-19 -90h-57zM895 1450h57l-18 -90h-57z" />
    <glyph glyph-name="yacute" unicode="&#xfd;" horiz-adv-x="913" 
d="M197 1081l106 -1011h4l649 1011h50l-963 -1480h-49l276 413l-114 1067h41zM891 1573l-297 -336h-41l287 336h51z" />
    <glyph glyph-name="thorn" unicode="&#xfe;" horiz-adv-x="1171" 
d="M195 295l-148 -694h-39l406 1904h39l-148 -682h4q25 54 61.5 101.5t86 90t116.5 67t142 24.5q89 0 158.5 -36t110.5 -96t62 -133t21 -153q0 -115 -23.5 -222.5t-69.5 -196t-108 -154.5t-144 -103t-173 -37q-69 0 -126.5 20t-96 52t-66.5 75t-42 85.5t-19 87.5h-4zM551 14
q95 0 175.5 41.5t135 109.5t93 156.5t56 181.5t17.5 185q0 73 -19 139t-56 120.5t-99.5 87t-142.5 32.5q-110 0 -203.5 -62t-153.5 -162.5t-93.5 -222t-33.5 -243.5q0 -163 86.5 -263t237.5 -100z" />
    <glyph glyph-name="ydieresis" unicode="&#xff;" horiz-adv-x="913" 
d="M197 1081l106 -1011h4l649 1011h50l-963 -1480h-49l276 413l-114 1067h41zM449 1450h57l-19 -90h-57zM780 1450h58l-19 -90h-57z" />
    <glyph glyph-name="Amacron" unicode="&#x100;" horiz-adv-x="1177" 
d="M956 500h-700l-309 -500h-45l901 1462h59l203 -1462h-39zM829 1434l-553 -895h676zM1133 1743l-9 -39h-477l8 39h478z" />
    <glyph glyph-name="amacron" unicode="&#x101;" horiz-adv-x="1046" 
d="M870 635l15 65q16 86 16 121q0 124 -77 185t-210 61q-136 0 -282 -49v39q142 49 282 49q155 0 240.5 -73.5t85.5 -205.5q0 -45 -16 -120l-90 -428q-36 -169 -39 -279h-39q4 70 39 256h-4q-55 -125 -158 -203t-248 -78q-135 0 -217 75t-82 204q0 89 36 155.5t99.5 109.5
t163.5 69t216.5 36.5t268.5 10.5zM864 598h-55q-160 0 -279.5 -16.5t-213.5 -55t-142.5 -106t-48.5 -164.5q0 -113 71.5 -177.5t190.5 -64.5q347 0 451 465zM948 1419l-8 -39h-477l8 39h477z" />
    <glyph glyph-name="Abreve" unicode="&#x102;" horiz-adv-x="1177" 
d="M956 500h-700l-309 -500h-45l901 1462h59l203 -1462h-39zM829 1434l-553 -895h676zM879 1640q208 0 249 187h35q-19 -98 -91.5 -161.5t-194.5 -63.5q-106 0 -164 48t-58 128q0 17 4 49h35q-2 -16 -2 -43q0 -68 48 -106t139 -38z" />
    <glyph glyph-name="abreve" unicode="&#x103;" horiz-adv-x="1046" 
d="M870 635l15 65q16 86 16 121q0 124 -77 185t-210 61q-136 0 -282 -49v39q142 49 282 49q155 0 240.5 -73.5t85.5 -205.5q0 -45 -16 -120l-90 -428q-36 -169 -39 -279h-39q4 70 39 256h-4q-55 -125 -158 -203t-248 -78q-135 0 -217 75t-82 204q0 89 36 155.5t99.5 109.5
t163.5 69t216.5 36.5t268.5 10.5zM864 598h-55q-160 0 -279.5 -16.5t-213.5 -55t-142.5 -106t-48.5 -164.5q0 -113 71.5 -177.5t190.5 -64.5q347 0 451 465zM698 1315q209 0 250 186h35q-19 -98 -92 -161.5t-195 -63.5q-106 0 -163.5 48t-57.5 128q0 17 4 49h35
q-2 -16 -2 -43q0 -68 47.5 -105.5t138.5 -37.5z" />
    <glyph glyph-name="Aogonek" unicode="&#x104;" horiz-adv-x="1177" 
d="M256 500l-309 -500h-45l901 1462h59l203 -1462q-144 -131 -186.5 -187.5t-42.5 -111.5q0 -42 27 -63t71 -21q60 0 119 18l-4 -34q-61 -21 -119 -21t-95.5 29t-37.5 84q0 41 13 74t64.5 91.5t151.5 143.5l-70 498h-700zM829 1434l-553 -895h676z" />
    <glyph glyph-name="aogonek" unicode="&#x105;" horiz-adv-x="1046" 
d="M870 635l15 65q16 86 16 121q0 124 -77 185t-210 61q-136 0 -282 -49v39q142 49 282 49q155 0 240.5 -73.5t85.5 -205.5q0 -45 -16 -120l-90 -428q-35 -170 -39 -279q-144 -130 -187 -187.5t-43 -111.5q0 -42 27.5 -63t71.5 -21q59 0 118 18l-4 -34q-61 -21 -119 -21
t-95.5 29t-37.5 84q0 41 13.5 74t65 91.5t151.5 143.5q3 67 39 254h-4q-55 -125 -158 -203t-248 -78q-135 0 -217 75t-82 204q0 89 36 155.5t99.5 109.5t163.5 69t216.5 36.5t268.5 10.5zM864 598h-55q-160 0 -279.5 -16.5t-213.5 -55t-142.5 -106t-48.5 -164.5
q0 -113 71.5 -177.5t190.5 -64.5q347 0 451 465z" />
    <glyph glyph-name="Cacute" unicode="&#x106;" horiz-adv-x="1159" 
d="M999 66v-41q-133 -50 -299 -50q-133 0 -237.5 45.5t-169 125.5t-98 183.5t-33.5 223.5q0 139 32 272.5t98.5 253.5t160.5 210.5t227.5 144t290.5 53.5q161 0 268 -49l-14 -35q-109 45 -256 45q-151 0 -279.5 -53t-217 -141t-151 -204t-91.5 -241.5t-29 -253.5
q0 -112 31 -208.5t92 -171.5t160.5 -118t226.5 -43q150 0 288 52zM1128 1870h54l-269 -275h-41z" />
    <glyph glyph-name="cacute" unicode="&#x107;" horiz-adv-x="892" 
d="M922 1075l-13 -37q-77 29 -190 29q-162 0 -289.5 -92.5t-194.5 -241t-67 -321.5q0 -84 21 -155t63 -126t111.5 -86t160.5 -31q120 0 221 37v-37q-112 -39 -223 -39q-102 0 -179.5 34.5t-123 95.5t-68 138t-22.5 169q0 186 73 343.5t210.5 254t310.5 96.5q122 0 199 -31z
M1014 1573l-297 -336h-41l287 336h51z" />
    <glyph glyph-name="Ccircumflex" unicode="&#x108;" horiz-adv-x="1159" 
d="M999 66v-41q-133 -50 -299 -50q-133 0 -237.5 45.5t-169 125.5t-98 183.5t-33.5 223.5q0 139 32 272.5t98.5 253.5t160.5 210.5t227.5 144t290.5 53.5q161 0 268 -49l-14 -35q-109 45 -256 45q-151 0 -279.5 -53t-217 -141t-151 -204t-91.5 -241.5t-29 -253.5
q0 -112 31 -208.5t92 -171.5t160.5 -118t226.5 -43q150 0 288 52zM1225 1579h-37l-178 264l-293 -264h-45l319 299h43z" />
    <glyph glyph-name="ccircumflex" unicode="&#x109;" horiz-adv-x="892" 
d="M922 1075l-13 -37q-77 29 -190 29q-162 0 -289.5 -92.5t-194.5 -241t-67 -321.5q0 -84 21 -155t63 -126t111.5 -86t160.5 -31q120 0 221 37v-37q-112 -39 -223 -39q-102 0 -179.5 34.5t-123 95.5t-68 138t-22.5 169q0 186 73 343.5t210.5 254t310.5 96.5q122 0 199 -31z
M997 1237h-36l-179 301l-293 -301h-45l320 336h43z" />
    <glyph glyph-name="Cdotaccent" unicode="&#x10a;" horiz-adv-x="1159" 
d="M999 66v-41q-133 -50 -299 -50q-133 0 -237.5 45.5t-169 125.5t-98 183.5t-33.5 223.5q0 139 32 272.5t98.5 253.5t160.5 210.5t227.5 144t290.5 53.5q161 0 268 -49l-14 -35q-109 45 -256 45q-151 0 -279.5 -53t-217 -141t-151 -204t-91.5 -241.5t-29 -253.5
q0 -112 31 -208.5t92 -171.5t160.5 -118t226.5 -43q150 0 288 52zM965 1769h57l-18 -90h-58z" />
    <glyph glyph-name="cdotaccent" unicode="&#x10b;" horiz-adv-x="892" 
d="M922 1075l-13 -37q-77 29 -190 29q-162 0 -289.5 -92.5t-194.5 -241t-67 -321.5q0 -84 21 -155t63 -126t111.5 -86t160.5 -31q120 0 221 37v-37q-112 -39 -223 -39q-102 0 -179.5 34.5t-123 95.5t-68 138t-22.5 169q0 186 73 343.5t210.5 254t310.5 96.5q122 0 199 -31z
M737 1454h58l-19 -90h-57z" />
    <glyph glyph-name="Ccaron" unicode="&#x10c;" horiz-adv-x="1159" 
d="M999 66v-41q-133 -50 -299 -50q-133 0 -237.5 45.5t-169 125.5t-98 183.5t-33.5 223.5q0 139 32 272.5t98.5 253.5t160.5 210.5t227.5 144t290.5 53.5q161 0 268 -49l-14 -35q-109 45 -256 45q-151 0 -279.5 -53t-217 -141t-151 -204t-91.5 -241.5t-29 -253.5
q0 -112 31 -208.5t92 -171.5t160.5 -118t226.5 -43q150 0 288 52zM739 1874h37l178 -264l293 264h45l-319 -299h-43z" />
    <glyph glyph-name="ccaron" unicode="&#x10d;" horiz-adv-x="892" 
d="M922 1075l-13 -37q-77 29 -190 29q-162 0 -289.5 -92.5t-194.5 -241t-67 -321.5q0 -84 21 -155t63 -126t111.5 -86t160.5 -31q120 0 221 37v-37q-112 -39 -223 -39q-102 0 -179.5 34.5t-123 95.5t-68 138t-22.5 169q0 186 73 343.5t210.5 254t310.5 96.5q122 0 199 -31z
M514 1567h37l178 -301l293 301h45l-319 -336h-43z" />
    <glyph glyph-name="Dcaron" unicode="&#x10e;" horiz-adv-x="1372" 
d="M111 0l309 1462h254q302 0 461 -155t159 -424q0 -209 -66.5 -377t-186 -278.5t-283.5 -169t-359 -58.5h-288zM451 1423l-293 -1384h245q261 0 454 103t295.5 293t102.5 446q0 119 -34.5 216t-104.5 171t-185.5 114.5t-268.5 40.5h-211zM610 1874h37l178 -264l293 264h45
l-319 -299h-43z" />
    <glyph glyph-name="dcaron" unicode="&#x10f;" horiz-adv-x="1171" 
d="M1012 786l151 719h39l-319 -1505h-37l57 258h-4q-25 -54 -61.5 -101.5t-86.5 -90t-117 -67t-142 -24.5q-89 0 -158.5 36t-111 96t-62.5 133t-21 153q0 115 23.5 222.5t69.5 196t108 154.5t144 103t173 37q86 0 153 -29.5t107 -78.5t62.5 -102t28.5 -110h4zM655 1067
q-95 0 -175.5 -41.5t-135 -109.5t-93 -156.5t-56 -181.5t-17.5 -185q0 -73 19 -139t56.5 -120.5t100 -87t142.5 -32.5q110 0 203.5 62.5t153 162.5t93 221.5t33.5 244.5q0 163 -86.5 262.5t-237.5 99.5zM1464 1573l-147 -336h-31l139 336h39z" />
    <glyph glyph-name="Dcroat" unicode="&#x110;" horiz-adv-x="1372" 
d="M111 0l155 737h-153l8 39h153l146 686h254q302 0 461 -155t159 -424q0 -209 -66.5 -377t-186 -278.5t-283.5 -169t-359 -58.5h-288zM602 737h-297l-147 -698h245q261 0 454 103t295.5 293t102.5 446q0 119 -34.5 216t-104.5 171t-185.5 114.5t-268.5 40.5h-211l-138 -647
h297z" />
    <glyph glyph-name="dcroat" unicode="&#x111;" horiz-adv-x="1171" 
d="M858 1280l8 39h258l39 186h39l-39 -186h84l-8 -39h-84l-272 -1280h-37l57 258h-4q-25 -54 -61.5 -101.5t-86.5 -90t-117 -67t-142 -24.5q-89 0 -158.5 36t-111 96t-62.5 133t-21 153q0 115 23.5 222.5t69.5 196t108 154.5t144 103t173 37q86 0 153 -29.5t107 -78.5
t62.5 -102t28.5 -110h4l104 494h-258zM655 1067q-95 0 -175.5 -41.5t-135 -109.5t-93 -156.5t-56 -181.5t-17.5 -185q0 -73 19 -139t56.5 -120.5t100 -87t142.5 -32.5q110 0 203.5 62.5t153 162.5t93 221.5t33.5 244.5q0 163 -86.5 262.5t-237.5 99.5z" />
    <glyph glyph-name="Emacron" unicode="&#x112;" horiz-adv-x="1042" 
d="M111 0l309 1462h665l-8 -39h-626l-138 -647h623l-8 -39h-623l-147 -698h688l-8 -39h-727zM1059 1743l-8 -39h-478l9 39h477z" />
    <glyph glyph-name="emacron" unicode="&#x113;" horiz-adv-x="1114" 
d="M1014 545h-826q-10 -59 -10 -127q0 -80 23 -150t69 -128t125 -92t183 -34q132 0 262 37v-37q-115 -39 -265 -39q-143 0 -243 59.5t-146.5 157t-46.5 222.5q0 96 23.5 193t70.5 186.5t112.5 159.5t156.5 111.5t194 41.5q176 0 261 -94t85 -254q0 -86 -28 -213zM983 584
q21 102 21 172q0 144 -76.5 227.5t-235.5 83.5q-79 0 -150 -27t-126 -73t-99.5 -108t-74 -131t-45.5 -144h786zM1026 1419l-8 -39h-477l8 39h477z" />
    <glyph glyph-name="Ebreve" unicode="&#x114;" horiz-adv-x="1042" 
d="M111 0l309 1462h665l-8 -39h-626l-138 -647h623l-8 -39h-623l-147 -698h688l-8 -39h-727zM799 1640q209 0 250 187h34q-19 -98 -91.5 -161.5t-194.5 -63.5q-106 0 -164 48t-58 128q0 9 5 49h34q-2 -16 -2 -43q0 -68 48 -106t139 -38z" />
    <glyph glyph-name="ebreve" unicode="&#x115;" horiz-adv-x="1114" 
d="M1014 545h-826q-10 -59 -10 -127q0 -80 23 -150t69 -128t125 -92t183 -34q132 0 262 37v-37q-115 -39 -265 -39q-143 0 -243 59.5t-146.5 157t-46.5 222.5q0 96 23.5 193t70.5 186.5t112.5 159.5t156.5 111.5t194 41.5q176 0 261 -94t85 -254q0 -86 -28 -213zM983 584
q21 102 21 172q0 144 -76.5 227.5t-235.5 83.5q-79 0 -150 -27t-126 -73t-99.5 -108t-74 -131t-45.5 -144h786zM770 1315q209 0 250 186h35q-19 -98 -92 -161.5t-195 -63.5q-106 0 -163.5 48t-57.5 128q0 17 4 49h35q-2 -16 -2 -43q0 -68 47.5 -105.5t138.5 -37.5z" />
    <glyph glyph-name="Edotaccent" unicode="&#x116;" horiz-adv-x="1042" 
d="M111 0l309 1462h665l-8 -39h-626l-138 -647h623l-8 -39h-623l-147 -698h688l-8 -39h-727zM795 1769h57l-18 -90h-58z" />
    <glyph glyph-name="edotaccent" unicode="&#x117;" horiz-adv-x="1114" 
d="M1014 545h-826q-10 -59 -10 -127q0 -80 23 -150t69 -128t125 -92t183 -34q132 0 262 37v-37q-115 -39 -265 -39q-143 0 -243 59.5t-146.5 157t-46.5 222.5q0 96 23.5 193t70.5 186.5t112.5 159.5t156.5 111.5t194 41.5q176 0 261 -94t85 -254q0 -86 -28 -213zM983 584
q21 102 21 172q0 144 -76.5 227.5t-235.5 83.5q-79 0 -150 -27t-126 -73t-99.5 -108t-74 -131t-45.5 -144h786zM764 1454h57l-18 -90h-58z" />
    <glyph glyph-name="Eogonek" unicode="&#x118;" horiz-adv-x="1042" 
d="M111 0l309 1462h665l-8 -39h-626l-138 -647h623l-8 -39h-623l-147 -698h688l-8 -39h-64q-144 -128 -186.5 -186t-42.5 -113q0 -42 27 -63t71 -21q60 0 119 18l-4 -34q-61 -21 -119 -21t-95.5 29t-37.5 84q0 40 12.5 73t63.5 92t149 142h-620z" />
    <glyph glyph-name="eogonek" unicode="&#x119;" horiz-adv-x="1114" 
d="M1014 545h-826q-10 -59 -10 -127q0 -80 23 -150t69 -128t125 -92t183 -34q132 0 262 37v-37l-37 -12q-148 -131 -191 -188t-43 -113q0 -42 27.5 -63t71.5 -21q59 0 118 18l-4 -34q-61 -21 -118 -21q-59 0 -96.5 29t-37.5 84q0 30 6.5 53.5t27.5 58.5t65.5 80.5
t115.5 106.5q-93 -17 -170 -17q-143 0 -243 59.5t-146.5 157t-46.5 222.5q0 96 23.5 193t70.5 186.5t112.5 159.5t156.5 111.5t194 41.5q176 0 261 -94t85 -254q0 -86 -28 -213zM983 584q21 102 21 172q0 144 -76.5 227.5t-235.5 83.5q-79 0 -150 -27t-126 -73t-99.5 -108
t-74 -131t-45.5 -144h786z" />
    <glyph glyph-name="Ecaron" unicode="&#x11a;" horiz-adv-x="1042" 
d="M111 0l309 1462h665l-8 -39h-626l-138 -647h623l-8 -39h-623l-147 -698h688l-8 -39h-727zM565 1874h37l178 -264l293 264h45l-319 -299h-43z" />
    <glyph glyph-name="ecaron" unicode="&#x11b;" horiz-adv-x="1114" 
d="M1014 545h-826q-10 -59 -10 -127q0 -80 23 -150t69 -128t125 -92t183 -34q132 0 262 37v-37q-115 -39 -265 -39q-143 0 -243 59.5t-146.5 157t-46.5 222.5q0 96 23.5 193t70.5 186.5t112.5 159.5t156.5 111.5t194 41.5q176 0 261 -94t85 -254q0 -86 -28 -213zM983 584
q21 102 21 172q0 144 -76.5 227.5t-235.5 83.5q-79 0 -150 -27t-126 -73t-99.5 -108t-74 -131t-45.5 -144h786zM539 1567h36l179 -301l293 301h45l-320 -336h-43z" />
    <glyph glyph-name="Gcircumflex" unicode="&#x11c;" horiz-adv-x="1421" 
d="M1348 1419l-15 -37q-141 66 -315 66q-155 0 -288 -47.5t-228.5 -130t-163.5 -194t-101.5 -241t-33.5 -268.5q0 -112 33 -210t97 -175.5t169.5 -122.5t240.5 -45q211 0 375 74l129 608h-377l9 39h415l-141 -672q-189 -88 -410 -88q-139 0 -251 47.5t-182.5 129.5
t-108 187.5t-37.5 225.5q0 190 59 357.5t166.5 293t269.5 198.5t357 73q183 0 332 -68zM1294 1579h-37l-178 264l-293 -264h-45l320 299h43z" />
    <glyph glyph-name="gcircumflex" unicode="&#x11d;" horiz-adv-x="1171" 
d="M1112 1081l-219 -1042q-24 -112 -59.5 -190.5t-93 -135.5t-142 -84.5t-199.5 -27.5q-75 0 -161.5 15t-145.5 44l14 39q121 -59 295 -59q105 0 182 25t130 77.5t86 125.5t55 177l49 229h-4q-54 -109 -158.5 -185.5t-248.5 -76.5q-72 0 -131 23t-99.5 62t-68.5 91.5
t-41 111.5t-13 122q0 189 64 344.5t183 247.5t271 92q86 0 153 -29.5t107 -78.5t62.5 -102t28.5 -110h4l61 295h39zM655 1067q-95 0 -175.5 -39t-135 -104t-93 -149.5t-56 -173.5t-17.5 -179q0 -73 19 -138t56.5 -118t100 -84t142.5 -31q89 0 167 37t135 100.5t98.5 147
t62 178t20.5 191.5q0 163 -86.5 262.5t-237.5 99.5zM1001 1237h-36l-179 301l-292 -301h-45l319 336h43z" />
    <glyph glyph-name="Gbreve" unicode="&#x11e;" horiz-adv-x="1421" 
d="M1348 1419l-15 -37q-141 66 -315 66q-155 0 -288 -47.5t-228.5 -130t-163.5 -194t-101.5 -241t-33.5 -268.5q0 -112 33 -210t97 -175.5t169.5 -122.5t240.5 -45q211 0 375 74l129 608h-377l9 39h415l-141 -672q-189 -88 -410 -88q-139 0 -251 47.5t-182.5 129.5
t-108 187.5t-37.5 225.5q0 190 59 357.5t166.5 293t269.5 198.5t357 73q183 0 332 -68zM1042 1640q209 0 250 187h35q-19 -98 -92 -161.5t-195 -63.5q-106 0 -163.5 48t-57.5 128q0 17 4 49h35q-2 -16 -2 -43q0 -68 47.5 -106t138.5 -38z" />
    <glyph glyph-name="gbreve" unicode="&#x11f;" horiz-adv-x="1171" 
d="M1112 1081l-219 -1042q-24 -112 -59.5 -190.5t-93 -135.5t-142 -84.5t-199.5 -27.5q-75 0 -161.5 15t-145.5 44l14 39q121 -59 295 -59q105 0 182 25t130 77.5t86 125.5t55 177l49 229h-4q-54 -109 -158.5 -185.5t-248.5 -76.5q-72 0 -131 23t-99.5 62t-68.5 91.5
t-41 111.5t-13 122q0 189 64 344.5t183 247.5t271 92q86 0 153 -29.5t107 -78.5t62.5 -102t28.5 -110h4l61 295h39zM655 1067q-95 0 -175.5 -39t-135 -104t-93 -149.5t-56 -173.5t-17.5 -179q0 -73 19 -138t56.5 -118t100 -84t142.5 -31q89 0 167 37t135 100.5t98.5 147
t62 178t20.5 191.5q0 163 -86.5 262.5t-237.5 99.5zM745 1315q209 0 250 186h35q-19 -98 -92 -161.5t-195 -63.5q-106 0 -163.5 48t-57.5 128q0 17 4 49h35q-2 -16 -2 -43q0 -68 47.5 -105.5t138.5 -37.5z" />
    <glyph glyph-name="Gdotaccent" unicode="&#x120;" horiz-adv-x="1421" 
d="M1348 1419l-15 -37q-141 66 -315 66q-155 0 -288 -47.5t-228.5 -130t-163.5 -194t-101.5 -241t-33.5 -268.5q0 -112 33 -210t97 -175.5t169.5 -122.5t240.5 -45q211 0 375 74l129 608h-377l9 39h415l-141 -672q-189 -88 -410 -88q-139 0 -251 47.5t-182.5 129.5
t-108 187.5t-37.5 225.5q0 190 59 357.5t166.5 293t269.5 198.5t357 73q183 0 332 -68zM1034 1769h58l-19 -90h-57z" />
    <glyph glyph-name="gdotaccent" unicode="&#x121;" horiz-adv-x="1171" 
d="M1112 1081l-219 -1042q-24 -112 -59.5 -190.5t-93 -135.5t-142 -84.5t-199.5 -27.5q-75 0 -161.5 15t-145.5 44l14 39q121 -59 295 -59q105 0 182 25t130 77.5t86 125.5t55 177l49 229h-4q-54 -109 -158.5 -185.5t-248.5 -76.5q-72 0 -131 23t-99.5 62t-68.5 91.5
t-41 111.5t-13 122q0 189 64 344.5t183 247.5t271 92q86 0 153 -29.5t107 -78.5t62.5 -102t28.5 -110h4l61 295h39zM655 1067q-95 0 -175.5 -39t-135 -104t-93 -149.5t-56 -173.5t-17.5 -179q0 -73 19 -138t56.5 -118t100 -84t142.5 -31q89 0 167 37t135 100.5t98.5 147
t62 178t20.5 191.5q0 163 -86.5 262.5t-237.5 99.5zM737 1454h58l-19 -90h-57z" />
    <glyph glyph-name="Gcommaaccent" unicode="&#x122;" horiz-adv-x="1421" 
d="M1348 1419l-15 -37q-141 66 -315 66q-155 0 -288 -47.5t-228.5 -130t-163.5 -194t-101.5 -241t-33.5 -268.5q0 -112 33 -210t97 -175.5t169.5 -122.5t240.5 -45q211 0 375 74l129 608h-377l9 39h415l-141 -672q-189 -88 -410 -88q-139 0 -251 47.5t-182.5 129.5
t-108 187.5t-37.5 225.5q0 190 59 357.5t166.5 293t269.5 198.5t357 73q183 0 332 -68zM696 -121l-198 -317h-29l182 317h45z" />
    <glyph glyph-name="gcommaaccent" unicode="&#x123;" horiz-adv-x="1171" 
d="M1112 1081l-219 -1042q-24 -112 -59.5 -190.5t-93 -135.5t-142 -84.5t-199.5 -27.5q-75 0 -161.5 15t-145.5 44l14 39q121 -59 295 -59q105 0 182 25t130 77.5t86 125.5t55 177l49 229h-4q-54 -109 -158.5 -185.5t-248.5 -76.5q-72 0 -131 23t-99.5 62t-68.5 91.5
t-41 111.5t-13 122q0 189 64 344.5t183 247.5t271 92q86 0 153 -29.5t107 -78.5t62.5 -102t28.5 -110h4l61 295h39zM655 1067q-95 0 -175.5 -39t-135 -104t-93 -149.5t-56 -173.5t-17.5 -179q0 -73 19 -138t56.5 -118t100 -84t142.5 -31q89 0 167 37t135 100.5t98.5 147
t62 178t20.5 191.5q0 163 -86.5 262.5t-237.5 99.5zM666 1237l206 336h29l-190 -336h-45z" />
    <glyph glyph-name="Hcircumflex" unicode="&#x124;" horiz-adv-x="1325" 
d="M111 0l309 1462h39l-146 -686h822l145 686h39l-309 -1462h-39l155 737h-821l-155 -737h-39zM1171 1579h-36l-179 264l-292 -264h-46l320 299h43z" />
    <glyph glyph-name="hcircumflex" unicode="&#x125;" horiz-adv-x="1134" 
d="M414 1505h39l-138 -635h4q42 83 109.5 138t135.5 76.5t138 21.5q147 0 230.5 -76t83.5 -207q0 -64 -17 -151l-141 -672h-39l142 670q16 86 16 149q0 115 -73 181.5t-204 66.5q-159 0 -272 -103t-156 -309l-139 -655h-39zM1057 1579h-37l-178 264l-293 -264h-45l319 299
h43z" />
    <glyph glyph-name="Hbar" unicode="&#x126;" horiz-adv-x="1325" 
d="M111 0l249 1180h-178l8 39h179l51 243h39l-51 -243h821l51 243h39l-51 -243h178l-8 -39h-178l-250 -1180h-39l155 737h-821l-155 -737h-39zM313 776h822l86 404h-822z" />
    <glyph glyph-name="hbar" unicode="&#x127;" horiz-adv-x="1134" 
d="M414 1505h39l-41 -186h256l-9 -39h-256l-88 -410h4q42 83 109.5 138t135.5 76.5t138 21.5q147 0 230.5 -76t83.5 -207q0 -64 -17 -151l-141 -672h-39l142 670q16 86 16 149q0 115 -73 181.5t-204 66.5q-159 0 -272 -103t-156 -309l-139 -655h-39l271 1280h-86l8 39h86z
" />
    <glyph glyph-name="Itilde" unicode="&#x128;" horiz-adv-x="464" 
d="M111 0l309 1462h39l-309 -1462h-39zM627 1638q-27 0 -53.5 11t-43 23.5t-43.5 35.5q-33 29 -45 39t-37 22.5t-47 12.5q-95 0 -127 -144h-36q39 183 163 183q63 0 140 -70q27 -25 42.5 -37t40 -24.5t46.5 -12.5q101 0 133 144h37q-18 -85 -61.5 -134t-108.5 -49z" />
    <glyph glyph-name="itilde" unicode="&#x129;" horiz-adv-x="442" 
d="M324 1081h38l-229 -1081h-39zM543 1315q-38 0 -69 17t-71 52q-33 29 -45 39t-37 22.5t-47 12.5q-95 0 -127 -143h-36q38 182 163 182q63 0 140 -70q26 -24 42 -36.5t40.5 -24.5t46.5 -12q101 0 133 143h37q-18 -85 -61 -133.5t-109 -48.5z" />
    <glyph glyph-name="Imacron" unicode="&#x12a;" horiz-adv-x="464" 
d="M111 0l309 1462h39l-309 -1462h-39zM737 1743l-8 -39h-477l8 39h477z" />
    <glyph glyph-name="imacron" unicode="&#x12b;" horiz-adv-x="442" 
d="M324 1081h38l-229 -1081h-39zM653 1419l-8 -39h-477l8 39h477z" />
    <glyph glyph-name="Ibreve" unicode="&#x12c;" horiz-adv-x="464" 
d="M111 0l309 1462h39l-309 -1462h-39zM483 1640q209 0 250 187h35q-19 -98 -92 -161.5t-195 -63.5q-106 0 -163.5 48t-57.5 128q0 17 4 49h35q-2 -16 -2 -43q0 -68 47.5 -106t138.5 -38z" />
    <glyph glyph-name="ibreve" unicode="&#x12d;" horiz-adv-x="442" 
d="M324 1081h38l-229 -1081h-39zM397 1315q209 0 250 186h35q-19 -98 -92 -161.5t-195 -63.5q-106 0 -163.5 48t-57.5 128q0 17 4 49h35q-2 -16 -2 -43q0 -68 47.5 -105.5t138.5 -37.5z" />
    <glyph glyph-name="Iogonek" unicode="&#x12e;" horiz-adv-x="464" 
d="M459 1462l-309 -1462q-146 -132 -188 -188t-42 -111q0 -42 27 -63t71 -21q60 0 119 18l-4 -34q-61 -21 -119 -21t-95.5 29t-37.5 84q0 41 13.5 74t65 91.5t151.5 143.5l309 1460h39z" />
    <glyph glyph-name="iogonek" unicode="&#x12f;" horiz-adv-x="442" 
d="M324 1081h38l-229 -1081q-144 -129 -187.5 -186.5t-43.5 -112.5q0 -42 27 -63t71 -21q60 0 119 18l-4 -34q-61 -21 -119 -21t-95.5 29t-37.5 84q0 41 13 74t65 91.5t153 143.5zM399 1489h60l-19 -88h-59z" />
    <glyph glyph-name="Idotaccent" unicode="&#x130;" horiz-adv-x="464" 
d="M111 0l309 1462h39l-309 -1462h-39zM475 1769h57l-18 -90h-57z" />
    <glyph glyph-name="dotlessi" unicode="&#x131;" horiz-adv-x="442" 
d="M324 1081h38l-229 -1081h-39z" />
    <glyph glyph-name="Jcircumflex" unicode="&#x134;" horiz-adv-x="577" 
d="M594 1462l-258 -1216q-10 -46 -22.5 -82t-36 -73t-55.5 -61t-80.5 -39.5t-110.5 -15.5q-55 0 -115 11l6 41q48 -13 115 -13q109 0 172.5 58t89.5 184l256 1206h39zM874 1579h-36l-179 264l-292 -264h-45l319 299h43z" />
    <glyph glyph-name="jcircumflex" unicode="&#x135;" horiz-adv-x="442" 
d="M371 1081l-252 -1185q-32 -156 -98.5 -225.5t-202.5 -69.5q-34 0 -74 6l8 39q35 -6 68 -6q123 0 177.5 63.5t84.5 208.5l250 1169h39zM662 1237h-37l-179 301l-292 -301h-45l319 336h43z" />
    <glyph glyph-name="Kcommaaccent" unicode="&#x136;" horiz-adv-x="1060" 
d="M1147 1462h61l-864 -706l617 -756h-54l-598 737h-4l-155 -737h-39l309 1462h39l-146 -686h4zM479 -121l-198 -317h-29l182 317h45z" />
    <glyph glyph-name="kcommaaccent" unicode="&#x137;" horiz-adv-x="864" 
d="M870 1081h62l-635 -493l473 -588h-51l-461 573h-4l-121 -573h-39l320 1505h39l-191 -897h4zM401 -121l-198 -317h-29l182 317h45z" />
    <glyph glyph-name="kgreenlandic" unicode="&#x138;" horiz-adv-x="864" 
d="M870 1081h62l-635 -493l473 -588h-51l-461 573h-4l-121 -573h-39l230 1081h38l-100 -473h4z" />
    <glyph glyph-name="Lacute" unicode="&#x139;" horiz-adv-x="827" 
d="M111 0l309 1462h39l-301 -1423h583l-8 -39h-622zM715 1870h53l-268 -275h-41z" />
    <glyph glyph-name="lacute" unicode="&#x13a;" horiz-adv-x="444" 
d="M414 1505h39l-320 -1505h-39zM698 1870h54l-269 -275h-41z" />
    <glyph glyph-name="Lcommaaccent" unicode="&#x13b;" horiz-adv-x="827" 
d="M111 0l309 1462h39l-301 -1423h583l-8 -39h-622zM428 -121l-199 -317h-28l182 317h45z" />
    <glyph glyph-name="lcommaaccent" unicode="&#x13c;" horiz-adv-x="444" 
d="M414 1505h39l-320 -1505h-39zM113 -121l-199 -317h-29l183 317h45z" />
    <glyph glyph-name="Lcaron" unicode="&#x13d;" horiz-adv-x="827" 
d="M111 0l309 1462h39l-301 -1423h583l-8 -39h-622zM782 1573l-147 -336h-31l139 336h39z" />
    <glyph glyph-name="lcaron" unicode="&#x13e;" horiz-adv-x="444" 
d="M414 1505h39l-320 -1505h-39zM713 1573l-148 -336h-30l139 336h39z" />
    <glyph glyph-name="Ldot" unicode="&#x13f;" horiz-adv-x="827" 
d="M111 0l309 1462h39l-301 -1423h583l-8 -39h-622zM684 799h57l-18 -90h-57z" />
    <glyph glyph-name="ldot" unicode="&#x140;" horiz-adv-x="600" 
d="M414 1505h39l-320 -1505h-39zM553 799h57l-18 -90h-57z" />
    <glyph glyph-name="Lslash" unicode="&#x141;" horiz-adv-x="827" 
d="M94 633l8 43l172 98l146 688h39l-142 -663l285 162l-8 -43l-285 -164l-151 -715h583l-8 -39h-622l153 729z" />
    <glyph glyph-name="lslash" unicode="&#x142;" horiz-adv-x="444" 
d="M414 1505h39l-131 -618l176 110l-11 -49l-176 -110l-178 -838h-39l172 809l-176 -111l10 50l176 110z" />
    <glyph glyph-name="Nacute" unicode="&#x143;" horiz-adv-x="1388" 
d="M485 1462l549 -1427h4l303 1427h39l-309 -1462h-65l-549 1427h-4l-303 -1427h-39l309 1462h65zM1137 1870h53l-268 -275h-41z" />
    <glyph glyph-name="nacute" unicode="&#x144;" horiz-adv-x="1134" 
d="M324 1081h38l-47 -211h4q42 83 109.5 138t135.5 76.5t138 21.5q147 0 230.5 -76t83.5 -207q0 -64 -17 -151l-141 -672h-39l142 670q16 86 16 149q0 115 -73 181.5t-204 66.5q-159 0 -272 -103t-156 -309l-139 -655h-39zM1016 1573l-297 -336h-41l287 336h51z" />
    <glyph glyph-name="Ncommaaccent" unicode="&#x145;" horiz-adv-x="1388" 
d="M485 1462l549 -1427h4l303 1427h39l-309 -1462h-65l-549 1427h-4l-303 -1427h-39l309 1462h65zM598 -121l-199 -317h-28l182 317h45z" />
    <glyph glyph-name="ncommaaccent" unicode="&#x146;" horiz-adv-x="1134" 
d="M324 1081h38l-47 -211h4q42 83 109.5 138t135.5 76.5t138 21.5q147 0 230.5 -76t83.5 -207q0 -64 -17 -151l-141 -672h-39l142 670q16 86 16 149q0 115 -73 181.5t-204 66.5q-159 0 -272 -103t-156 -309l-139 -655h-39zM522 -121l-198 -317h-29l182 317h45z" />
    <glyph glyph-name="Ncaron" unicode="&#x147;" horiz-adv-x="1388" 
d="M485 1462l549 -1427h4l303 1427h39l-309 -1462h-65l-549 1427h-4l-303 -1427h-39l309 1462h65zM727 1874h37l178 -264l293 264h45l-319 -299h-43z" />
    <glyph glyph-name="ncaron" unicode="&#x148;" horiz-adv-x="1134" 
d="M324 1081h38l-47 -211h4q42 83 109.5 138t135.5 76.5t138 21.5q147 0 230.5 -76t83.5 -207q0 -64 -17 -151l-141 -672h-39l142 670q16 86 16 149q0 115 -73 181.5t-204 66.5q-159 0 -272 -103t-156 -309l-139 -655h-39zM539 1567h36l179 -301l293 301h45l-320 -336h-43z
" />
    <glyph glyph-name="Eng" unicode="&#x14a;" horiz-adv-x="1388" 
d="M485 1462l549 -1427h4l303 1427h39l-331 -1566q-32 -156 -98.5 -225.5t-202.5 -69.5q-34 0 -74 6l8 39q34 -6 68 -6q123 0 177.5 63.5t84.5 208.5l18 88h-24l-549 1427h-4l-303 -1427h-39l309 1462h65z" />
    <glyph glyph-name="eng" unicode="&#x14b;" horiz-adv-x="1134" 
d="M999 672l-163 -776q-32 -156 -98.5 -225.5t-202.5 -69.5q-33 0 -74 6l8 39q35 -6 68 -6q123 0 177.5 63.5t84.5 208.5l162 758q16 86 16 149q0 115 -73 181.5t-204 66.5q-159 0 -272 -103t-156 -309l-139 -655h-39l230 1081h38l-47 -211h4q42 83 109.5 138t135.5 76.5
t138 21.5q147 0 230.5 -76t83.5 -207q0 -64 -17 -151z" />
    <glyph glyph-name="Omacron" unicode="&#x14c;" horiz-adv-x="1468" 
d="M1391 954q0 -133 -27 -267.5t-87 -263.5t-145.5 -228t-212 -159.5t-276.5 -60.5q-237 0 -360 145.5t-123 393.5q0 133 28 267t88.5 262t147 226t213 158t276.5 60q233 0 355.5 -144.5t122.5 -388.5zM645 14q136 0 253.5 55.5t199 148.5t139.5 214t85.5 252t27.5 264
q0 229 -111.5 364.5t-329.5 135.5q-156 0 -290 -76.5t-224.5 -204.5t-142 -298t-51.5 -355q0 -111 26.5 -201t80 -157.5t139 -104.5t198.5 -37zM1229 1743l-8 -39h-478l9 39h477z" />
    <glyph glyph-name="omacron" unicode="&#x14d;" horiz-adv-x="1146" 
d="M1042 698q0 -74 -13 -153t-39.5 -161.5t-71.5 -155t-103 -129.5t-140 -90.5t-177 -33.5q-176 0 -267.5 113.5t-91.5 298.5q0 144 36.5 274t103 229t168.5 157.5t225 58.5q174 0 272 -113t98 -295zM498 14q100 0 185 42t143 111t99 158.5t60 183.5t19 187q0 165 -85.5 268
t-246.5 103q-121 0 -217.5 -58.5t-155.5 -156t-90 -216.5t-31 -247q0 -108 32.5 -190.5t106 -133.5t181.5 -51zM1016 1419l-8 -39h-478l9 39h477z" />
    <glyph glyph-name="Obreve" unicode="&#x14e;" horiz-adv-x="1468" 
d="M1391 954q0 -133 -27 -267.5t-87 -263.5t-145.5 -228t-212 -159.5t-276.5 -60.5q-237 0 -360 145.5t-123 393.5q0 133 28 267t88.5 262t147 226t213 158t276.5 60q233 0 355.5 -144.5t122.5 -388.5zM645 14q136 0 253.5 55.5t199 148.5t139.5 214t85.5 252t27.5 264
q0 229 -111.5 364.5t-329.5 135.5q-156 0 -290 -76.5t-224.5 -204.5t-142 -298t-51.5 -355q0 -111 26.5 -201t80 -157.5t139 -104.5t198.5 -37zM975 1640q209 0 250 187h35q-19 -98 -92 -161.5t-195 -63.5q-106 0 -163.5 48t-57.5 128q0 17 4 49h35q-3 -24 -3 -43
q0 -68 48 -106t139 -38z" />
    <glyph glyph-name="obreve" unicode="&#x14f;" horiz-adv-x="1146" 
d="M1042 698q0 -74 -13 -153t-39.5 -161.5t-71.5 -155t-103 -129.5t-140 -90.5t-177 -33.5q-176 0 -267.5 113.5t-91.5 298.5q0 144 36.5 274t103 229t168.5 157.5t225 58.5q174 0 272 -113t98 -295zM498 14q100 0 185 42t143 111t99 158.5t60 183.5t19 187q0 165 -85.5 268
t-246.5 103q-121 0 -217.5 -58.5t-155.5 -156t-90 -216.5t-31 -247q0 -108 32.5 -190.5t106 -133.5t181.5 -51zM760 1315q209 0 250 186h34q-19 -98 -91.5 -161.5t-194.5 -63.5q-106 0 -163.5 48t-57.5 128q0 17 4 49h34q-2 -16 -2 -43q0 -68 48 -105.5t139 -37.5z" />
    <glyph glyph-name="Ohungarumlaut" unicode="&#x150;" horiz-adv-x="1468" 
d="M1391 954q0 -133 -27 -267.5t-87 -263.5t-145.5 -228t-212 -159.5t-276.5 -60.5q-237 0 -360 145.5t-123 393.5q0 133 28 267t88.5 262t147 226t213 158t276.5 60q233 0 355.5 -144.5t122.5 -388.5zM645 14q136 0 253.5 55.5t199 148.5t139.5 214t85.5 252t27.5 264
q0 229 -111.5 364.5t-329.5 135.5q-156 0 -290 -76.5t-224.5 -204.5t-142 -298t-51.5 -355q0 -111 26.5 -201t80 -157.5t139 -104.5t198.5 -37zM1104 1870l-238 -281h-39l230 281h47zM1300 1870l-237 -281h-39l229 281h47z" />
    <glyph glyph-name="ohungarumlaut" unicode="&#x151;" horiz-adv-x="1146" 
d="M1042 698q0 -74 -13 -153t-39.5 -161.5t-71.5 -155t-103 -129.5t-140 -90.5t-177 -33.5q-176 0 -267.5 113.5t-91.5 298.5q0 144 36.5 274t103 229t168.5 157.5t225 58.5q174 0 272 -113t98 -295zM498 14q100 0 185 42t143 111t99 158.5t60 183.5t19 187q0 165 -85.5 268
t-246.5 103q-121 0 -217.5 -58.5t-155.5 -156t-90 -216.5t-31 -247q0 -108 32.5 -190.5t106 -133.5t181.5 -51zM893 1573l-258 -336h-39l248 336h49zM1090 1573l-259 -336h-38l247 336h50z" />
    <glyph glyph-name="OE" unicode="&#x152;" horiz-adv-x="1861" 
d="M752 0q-282 0 -437 142.5t-155 396.5q0 133 30.5 261.5t98 249t164.5 211.5t242.5 146t320.5 55h889l-9 -39h-626l-137 -647h622l-8 -39h-623l-147 -698h688l-8 -39h-905zM201 539q0 -237 145 -368.5t408 -131.5h184l293 1384h-219q-188 0 -342 -68.5t-256 -188
t-157.5 -280.5t-55.5 -347z" />
    <glyph glyph-name="oe" unicode="&#x153;" horiz-adv-x="1955" 
d="M1855 545h-825q-10 -59 -10 -127q0 -80 22.5 -150t68.5 -128t125 -92t183 -34q133 0 262 37v-37q-115 -39 -264 -39q-197 0 -308 108.5t-124 285.5h-2q-30 -82 -72.5 -150.5t-101.5 -124.5t-138.5 -87.5t-172.5 -31.5q-176 0 -267.5 113.5t-91.5 298.5q0 144 36.5 274
t103 229t168.5 157.5t225 58.5q168 0 265.5 -106.5t102.5 -282.5h2q67 173 195 281t301 108q176 0 261 -94t85 -254q0 -82 -29 -213zM498 14q100 0 185 42t143 111t99 158.5t60 183.5t19 187q0 165 -85.5 268t-246.5 103q-121 0 -217.5 -58.5t-155.5 -156t-90 -216.5
t-31 -247q0 -108 32.5 -190.5t106 -133.5t181.5 -51zM1825 584q20 97 20 172q0 144 -76 227.5t-235 83.5q-79 0 -150 -27t-126 -73t-100 -108t-74.5 -131t-45.5 -144h787z" />
    <glyph glyph-name="Racute" unicode="&#x154;" horiz-adv-x="1228" 
d="M111 0l309 1462h414q171 0 267.5 -81.5t96.5 -221.5q0 -86 -21 -155t-55 -113.5t-82 -76t-95.5 -47.5t-102.5 -24v-4q82 -20 119.5 -83t52.5 -199q36 -328 55 -457h-43q-8 62 -28 240.5t-27 236.5q-19 146 -80 198t-207 52h-381l-153 -727h-39zM451 1423l-140 -657h383
q463 0 463 387q0 128 -90.5 199t-249.5 71h-366zM1006 1870h53l-268 -275h-41z" />
    <glyph glyph-name="racute" unicode="&#x155;" horiz-adv-x="655" 
d="M750 1100l-9 -39q-35 6 -75 6q-145 0 -252 -119.5t-146 -308.5l-135 -639h-39l230 1081h38l-51 -233h4q46 114 144.5 186t212.5 72q44 0 78 -6zM815 1573l-297 -336h-41l287 336h51z" />
    <glyph glyph-name="Rcommaaccent" unicode="&#x156;" horiz-adv-x="1228" 
d="M111 0l309 1462h414q171 0 267.5 -81.5t96.5 -221.5q0 -86 -21 -155t-55 -113.5t-82 -76t-95.5 -47.5t-102.5 -24v-4q82 -20 119.5 -83t52.5 -199q36 -328 55 -457h-43q-8 62 -28 240.5t-27 236.5q-19 146 -80 198t-207 52h-381l-153 -727h-39zM451 1423l-140 -657h383
q463 0 463 387q0 128 -90.5 199t-249.5 71h-366zM567 -121l-198 -317h-29l182 317h45z" />
    <glyph glyph-name="rcommaaccent" unicode="&#x157;" horiz-adv-x="655" 
d="M750 1100l-9 -39q-35 6 -75 6q-145 0 -252 -119.5t-146 -308.5l-135 -639h-39l230 1081h38l-51 -233h4q46 114 144.5 186t212.5 72q44 0 78 -6zM106 -121l-198 -317h-29l182 317h45z" />
    <glyph glyph-name="Rcaron" unicode="&#x158;" horiz-adv-x="1228" 
d="M111 0l309 1462h414q171 0 267.5 -81.5t96.5 -221.5q0 -86 -21 -155t-55 -113.5t-82 -76t-95.5 -47.5t-102.5 -24v-4q82 -20 119.5 -83t52.5 -199q36 -328 55 -457h-43q-8 62 -28 240.5t-27 236.5q-19 146 -80 198t-207 52h-381l-153 -727h-39zM451 1423l-140 -657h383
q463 0 463 387q0 128 -90.5 199t-249.5 71h-366zM608 1874h37l178 -264l293 264h45l-319 -299h-43z" />
    <glyph glyph-name="rcaron" unicode="&#x159;" horiz-adv-x="655" 
d="M750 1100l-9 -39q-35 6 -75 6q-145 0 -252 -119.5t-146 -308.5l-135 -639h-39l230 1081h38l-51 -233h4q46 114 144.5 186t212.5 72q44 0 78 -6zM317 1567h37l178 -301l293 301h45l-319 -336h-43z" />
    <glyph glyph-name="Sacute" unicode="&#x15a;" horiz-adv-x="1044" 
d="M1034 1430l-14 -37q-121 55 -285 55q-82 0 -153 -17.5t-131 -54t-94.5 -100.5t-34.5 -150q0 -35 6.5 -65.5t14.5 -54t29 -50.5t34.5 -42.5t47.5 -44t52 -42t63 -47.5q54 -40 86.5 -66t71.5 -61t61.5 -65.5t43 -68t29.5 -79.5t9 -90q0 -96 -33 -169t-93.5 -117.5
t-141.5 -66.5t-180 -22q-92 0 -206.5 26t-180.5 60l14 37q76 -36 181.5 -60t191.5 -24q120 0 210 33.5t144.5 109t54.5 187.5q0 123 -67 209.5t-219 196.5q-49 36 -77 57.5t-63 52.5t-53.5 56t-36.5 58t-25 70.5t-7 81.5q0 97 39.5 169.5t106.5 113t144.5 59.5t165.5 19
q155 0 295 -57zM961 1870h53l-269 -275h-40z" />
    <glyph glyph-name="sacute" unicode="&#x15b;" horiz-adv-x="804" 
d="M772 1055l-12 -37q-49 22 -113.5 35.5t-116.5 13.5q-60 0 -113 -12.5t-98 -38.5t-71.5 -72t-26.5 -106q0 -79 46.5 -135.5t142.5 -120.5q56 -37 94.5 -69t75 -72.5t55 -86.5t18.5 -98q0 -141 -94.5 -211t-259.5 -70q-70 0 -162 21.5t-143 48.5l16 37q58 -29 142.5 -48.5
t148.5 -19.5q144 0 228.5 57.5t84.5 178.5q0 89 -58 158t-169 143q-51 34 -83.5 60.5t-63 61t-44.5 75t-14 88.5q0 58 20.5 105t54.5 77t80 50.5t94.5 29t100.5 8.5q126 0 240 -51zM836 1573l-297 -336h-41l286 336h52z" />
    <glyph glyph-name="Scircumflex" unicode="&#x15c;" horiz-adv-x="1044" 
d="M1034 1430l-14 -37q-121 55 -285 55q-82 0 -153 -17.5t-131 -54t-94.5 -100.5t-34.5 -150q0 -35 6.5 -65.5t14.5 -54t29 -50.5t34.5 -42.5t47.5 -44t52 -42t63 -47.5q54 -40 86.5 -66t71.5 -61t61.5 -65.5t43 -68t29.5 -79.5t9 -90q0 -96 -33 -169t-93.5 -117.5
t-141.5 -66.5t-180 -22q-92 0 -206.5 26t-180.5 60l14 37q76 -36 181.5 -60t191.5 -24q120 0 210 33.5t144.5 109t54.5 187.5q0 123 -67 209.5t-219 196.5q-49 36 -77 57.5t-63 52.5t-53.5 56t-36.5 58t-25 70.5t-7 81.5q0 97 39.5 169.5t106.5 113t144.5 59.5t165.5 19
q155 0 295 -57zM1032 1579h-37l-178 264l-293 -264h-45l320 299h43z" />
    <glyph glyph-name="scircumflex" unicode="&#x15d;" horiz-adv-x="804" 
d="M772 1055l-12 -37q-49 22 -113.5 35.5t-116.5 13.5q-60 0 -113 -12.5t-98 -38.5t-71.5 -72t-26.5 -106q0 -79 46.5 -135.5t142.5 -120.5q56 -37 94.5 -69t75 -72.5t55 -86.5t18.5 -98q0 -141 -94.5 -211t-259.5 -70q-70 0 -162 21.5t-143 48.5l16 37q58 -29 142.5 -48.5
t148.5 -19.5q144 0 228.5 57.5t84.5 178.5q0 89 -58 158t-169 143q-51 34 -83.5 60.5t-63 61t-44.5 75t-14 88.5q0 58 20.5 105t54.5 77t80 50.5t94.5 29t100.5 8.5q126 0 240 -51zM834 1237h-37l-179 301l-292 -301h-45l319 336h43z" />
    <glyph glyph-name="Scedilla" unicode="&#x15e;" horiz-adv-x="1044" 
d="M1034 1430l-14 -37q-121 55 -285 55q-82 0 -153 -17.5t-131 -54t-94.5 -100.5t-34.5 -150q0 -35 6.5 -65.5t14.5 -54t29 -50.5t34.5 -42.5t47.5 -44t52 -42t63 -47.5q54 -40 86.5 -66t71.5 -61t61.5 -65.5t43 -68t29.5 -79.5t9 -90q0 -96 -33 -169t-93.5 -117.5
t-141.5 -66.5t-180 -22h-25l-51 -122q28 8 70 8q64 0 98.5 -34t34.5 -87q0 -59 -33 -98.5t-83 -55.5t-114 -16q-52 0 -94 10l6 35q39 -8 95 -8q182 0 182 131q0 39 -29 62.5t-82 23.5q-48 0 -100 -12l63 165q-87 8 -179 31.5t-146 52.5l14 37q76 -36 181.5 -60t191.5 -24
q120 0 210 33.5t144.5 109t54.5 187.5q0 123 -67 209.5t-219 196.5q-49 36 -77 57.5t-63 52.5t-53.5 56t-36.5 58t-25 70.5t-7 81.5q0 97 39.5 169.5t106.5 113t144.5 59.5t165.5 19q155 0 295 -57z" />
    <glyph glyph-name="scedilla" unicode="&#x15f;" horiz-adv-x="804" 
d="M772 1055l-12 -37q-49 22 -113.5 35.5t-116.5 13.5q-60 0 -113 -12.5t-98 -38.5t-71.5 -72t-26.5 -106q0 -79 46.5 -135.5t142.5 -120.5q56 -37 94.5 -69t75 -72.5t55 -86.5t18.5 -98q0 -141 -94.5 -211t-259.5 -70h-27l-49 -122q28 8 70 8q64 0 98.5 -34t34.5 -87
q0 -59 -33 -98.5t-82.5 -55.5t-113.5 -16q-53 0 -95 10l7 35q39 -8 94 -8q182 0 182 131q0 39 -29 62.5t-82 23.5q-48 0 -100 -12l64 168q-68 8 -137.5 26t-106.5 39l16 37q58 -29 142.5 -48.5t148.5 -19.5q144 0 228.5 57.5t84.5 178.5q0 89 -58 158t-169 143
q-51 34 -83.5 60.5t-63 61t-44.5 75t-14 88.5q0 58 20.5 105t54.5 77t80 50.5t94.5 29t100.5 8.5q126 0 240 -51z" />
    <glyph glyph-name="Scaron" unicode="&#x160;" horiz-adv-x="1044" 
d="M1034 1430l-14 -37q-121 55 -285 55q-82 0 -153 -17.5t-131 -54t-94.5 -100.5t-34.5 -150q0 -35 6.5 -65.5t14.5 -54t29 -50.5t34.5 -42.5t47.5 -44t52 -42t63 -47.5q54 -40 86.5 -66t71.5 -61t61.5 -65.5t43 -68t29.5 -79.5t9 -90q0 -96 -33 -169t-93.5 -117.5
t-141.5 -66.5t-180 -22q-92 0 -206.5 26t-180.5 60l14 37q76 -36 181.5 -60t191.5 -24q120 0 210 33.5t144.5 109t54.5 187.5q0 123 -67 209.5t-219 196.5q-49 36 -77 57.5t-63 52.5t-53.5 56t-36.5 58t-25 70.5t-7 81.5q0 97 39.5 169.5t106.5 113t144.5 59.5t165.5 19
q155 0 295 -57zM543 1874h37l178 -264l293 264h45l-320 -299h-43z" />
    <glyph glyph-name="scaron" unicode="&#x161;" horiz-adv-x="804" 
d="M772 1055l-12 -37q-49 22 -113.5 35.5t-116.5 13.5q-60 0 -113 -12.5t-98 -38.5t-71.5 -72t-26.5 -106q0 -79 46.5 -135.5t142.5 -120.5q56 -37 94.5 -69t75 -72.5t55 -86.5t18.5 -98q0 -141 -94.5 -211t-259.5 -70q-70 0 -162 21.5t-143 48.5l16 37q58 -29 142.5 -48.5
t148.5 -19.5q144 0 228.5 57.5t84.5 178.5q0 89 -58 158t-169 143q-51 34 -83.5 60.5t-63 61t-44.5 75t-14 88.5q0 58 20.5 105t54.5 77t80 50.5t94.5 29t100.5 8.5q126 0 240 -51zM340 1567h37l178 -301l293 301h45l-320 -336h-43z" />
    <glyph glyph-name="uni0162" unicode="&#x162;" horiz-adv-x="985" 
d="M350 0l301 1423h-467l9 39h960l-8 -39h-455l-301 -1423h-39zM367 -121l-199 -317h-29l183 317h45z" />
    <glyph glyph-name="uni0163" unicode="&#x163;" horiz-adv-x="585" 
d="M135 1042l8 39h217l54 256h39l-54 -256h279l-8 -39h-279l-172 -809q-14 -65 -14 -102q0 -104 141 -104q59 0 121 10l-10 -39q-48 -10 -119 -10q-172 0 -172 137q0 41 14 102l172 815h-217zM268 -121l-198 -317h-29l182 317h45z" />
    <glyph glyph-name="Tcaron" unicode="&#x164;" horiz-adv-x="985" 
d="M350 0l301 1423h-467l9 39h960l-8 -39h-455l-301 -1423h-39zM489 1874h37l179 -264l292 264h45l-319 -299h-43z" />
    <glyph glyph-name="tcaron" unicode="&#x165;" horiz-adv-x="585" 
d="M135 1042l8 39h217l54 256h39l-54 -256h279l-8 -39h-279l-172 -809q-14 -65 -14 -102q0 -104 141 -104q59 0 121 10l-10 -39q-48 -10 -119 -10q-172 0 -172 137q0 41 14 102l172 815h-217zM782 1573l-147 -336h-31l139 336h39z" />
    <glyph glyph-name="Tbar" unicode="&#x166;" horiz-adv-x="985" 
d="M350 0l178 844h-252l9 39h252l114 540h-467l9 39h960l-8 -39h-455l-115 -540h256l-8 -39h-256l-178 -844h-39z" />
    <glyph glyph-name="tbar" unicode="&#x167;" horiz-adv-x="585" 
d="M135 1042l8 39h217l54 256h39l-54 -256h279l-8 -39h-279l-96 -452h217l-8 -39h-217l-68 -318q-14 -65 -14 -102q0 -104 141 -104q59 0 121 10l-10 -39q-48 -10 -119 -10q-172 0 -172 137q0 41 14 102l68 324h-182l8 39h182l96 452h-217z" />
    <glyph glyph-name="Utilde" unicode="&#x168;" horiz-adv-x="1394" 
d="M1403 1462l-209 -991q-20 -96 -46.5 -168t-71.5 -136t-106.5 -104.5t-151.5 -64t-206 -23.5q-228 0 -336 89.5t-108 248.5q0 70 20 162l209 987h39l-211 -997q-16 -73 -16 -148q0 -144 98 -223.5t305 -79.5q105 0 186.5 20t139.5 56.5t101 94t69.5 124.5t44.5 156
l211 997h39zM1090 1638q-27 0 -53.5 11t-43 23.5t-43.5 35.5q-33 29 -45 39t-37 22.5t-47 12.5q-95 0 -127 -144h-37q39 183 164 183q63 0 140 -70q27 -25 42.5 -37t40 -24.5t46.5 -12.5q101 0 133 144h37q-18 -85 -61.5 -134t-108.5 -49z" />
    <glyph glyph-name="utilde" unicode="&#x169;" horiz-adv-x="1134" 
d="M834 0h-39l47 211h-4q-42 -83 -108.5 -138t-134.5 -76.5t-140 -21.5q-148 0 -231 76t-83 207q0 65 17 152l141 671h39l-141 -669q-17 -91 -17 -150q0 -116 72 -182t205 -66q159 0 272 103t156 309l139 655h39zM883 1315q-38 0 -69 17t-71 52q-33 29 -45 39t-37 22.5
t-47 12.5q-95 0 -127 -143h-36q38 182 163 182q63 0 140 -70q26 -24 42 -36.5t40.5 -24.5t46.5 -12q101 0 133 143h37q-18 -85 -61 -133.5t-109 -48.5z" />
    <glyph glyph-name="Umacron" unicode="&#x16a;" horiz-adv-x="1394" 
d="M1403 1462l-209 -991q-20 -96 -46.5 -168t-71.5 -136t-106.5 -104.5t-151.5 -64t-206 -23.5q-228 0 -336 89.5t-108 248.5q0 70 20 162l209 987h39l-211 -997q-16 -73 -16 -148q0 -144 98 -223.5t305 -79.5q105 0 186.5 20t139.5 56.5t101 94t69.5 124.5t44.5 156
l211 997h39zM1198 1743l-8 -39h-477l8 39h477z" />
    <glyph glyph-name="umacron" unicode="&#x16b;" horiz-adv-x="1134" 
d="M834 0h-39l47 211h-4q-42 -83 -108.5 -138t-134.5 -76.5t-140 -21.5q-148 0 -231 76t-83 207q0 65 17 152l141 671h39l-141 -669q-17 -91 -17 -150q0 -116 72 -182t205 -66q159 0 272 103t156 309l139 655h39zM991 1419l-8 -39h-477l8 39h477z" />
    <glyph glyph-name="Ubreve" unicode="&#x16c;" horiz-adv-x="1394" 
d="M1403 1462l-209 -991q-20 -96 -46.5 -168t-71.5 -136t-106.5 -104.5t-151.5 -64t-206 -23.5q-228 0 -336 89.5t-108 248.5q0 70 20 162l209 987h39l-211 -997q-16 -73 -16 -148q0 -144 98 -223.5t305 -79.5q105 0 186.5 20t139.5 56.5t101 94t69.5 124.5t44.5 156
l211 997h39zM944 1640q209 0 250 187h35q-19 -98 -92 -161.5t-195 -63.5q-106 0 -163.5 48t-57.5 128q0 17 4 49h35q-2 -16 -2 -43q0 -68 47.5 -106t138.5 -38z" />
    <glyph glyph-name="ubreve" unicode="&#x16d;" horiz-adv-x="1134" 
d="M834 0h-39l47 211h-4q-42 -83 -108.5 -138t-134.5 -76.5t-140 -21.5q-148 0 -231 76t-83 207q0 65 17 152l141 671h39l-141 -669q-17 -91 -17 -150q0 -116 72 -182t205 -66q159 0 272 103t156 309l139 655h39zM735 1315q209 0 250 186h35q-19 -98 -92 -161.5t-195 -63.5
q-106 0 -163.5 48t-57.5 128q0 17 4 49h35q-2 -16 -2 -43q0 -68 47.5 -105.5t138.5 -37.5z" />
    <glyph glyph-name="Uring" unicode="&#x16e;" horiz-adv-x="1394" 
d="M1403 1462l-209 -991q-20 -96 -46.5 -168t-71.5 -136t-106.5 -104.5t-151.5 -64t-206 -23.5q-228 0 -336 89.5t-108 248.5q0 70 20 162l209 987h39l-211 -997q-16 -73 -16 -148q0 -144 98 -223.5t305 -79.5q105 0 186.5 20t139.5 56.5t101 94t69.5 124.5t44.5 156
l211 997h39zM1135 1720q0 -75 -53 -127.5t-128 -52.5t-127.5 52.5t-52.5 127.5t52.5 128t127.5 53t128 -53t53 -128zM1096 1720q0 60 -41 101t-101 41t-100.5 -41t-40.5 -101t40.5 -100.5t100.5 -40.5t101 40.5t41 100.5z" />
    <glyph glyph-name="uring" unicode="&#x16f;" horiz-adv-x="1134" 
d="M834 0h-39l47 211h-4q-42 -83 -108.5 -138t-134.5 -76.5t-140 -21.5q-148 0 -231 76t-83 207q0 65 17 152l141 671h39l-141 -669q-17 -91 -17 -150q0 -116 72 -182t205 -66q159 0 272 103t156 309l139 655h39zM928 1403q0 -75 -52.5 -127.5t-127.5 -52.5t-128 52.5
t-53 127.5t53 127.5t128 52.5t127.5 -52.5t52.5 -127.5zM889 1403q0 60 -40.5 100.5t-100.5 40.5t-101 -40.5t-41 -100.5t41 -100.5t101 -40.5t100.5 40.5t40.5 100.5z" />
    <glyph glyph-name="Uhungarumlaut" unicode="&#x170;" horiz-adv-x="1394" 
d="M1403 1462l-209 -991q-20 -96 -46.5 -168t-71.5 -136t-106.5 -104.5t-151.5 -64t-206 -23.5q-228 0 -336 89.5t-108 248.5q0 70 20 162l209 987h39l-211 -997q-16 -73 -16 -148q0 -144 98 -223.5t305 -79.5q105 0 186.5 20t139.5 56.5t101 94t69.5 124.5t44.5 156
l211 997h39zM1059 1870l-238 -281h-39l230 281h47zM1255 1870l-237 -281h-39l229 281h47z" />
    <glyph glyph-name="uhungarumlaut" unicode="&#x171;" horiz-adv-x="1134" 
d="M834 0h-39l47 211h-4q-42 -83 -108.5 -138t-134.5 -76.5t-140 -21.5q-148 0 -231 76t-83 207q0 65 17 152l141 671h39l-141 -669q-17 -91 -17 -150q0 -116 72 -182t205 -66q159 0 272 103t156 309l139 655h39zM874 1573l-258 -336h-38l247 336h49zM1071 1573l-258 -336
h-39l248 336h49z" />
    <glyph glyph-name="Uogonek" unicode="&#x172;" horiz-adv-x="1394" 
d="M1403 1462l-209 -991q-19 -94 -45 -164.5t-68.5 -134t-101 -104t-143.5 -65.5t-195 -28q-126 -115 -164.5 -168t-38.5 -106q0 -42 27.5 -63t71.5 -21q59 0 118 18l-4 -34q-61 -21 -119 -21t-95.5 29t-37.5 84q0 58 37 116t162 166q-221 3 -325.5 92t-104.5 246
q0 70 20 162l209 987h39l-211 -997q-16 -73 -16 -148q0 -144 98 -223.5t305 -79.5q105 0 186.5 20t139.5 56.5t101 94t69.5 124.5t44.5 156l211 997h39z" />
    <glyph glyph-name="uogonek" unicode="&#x173;" horiz-adv-x="1134" 
d="M1063 1081l-229 -1081q-145 -129 -188.5 -186.5t-43.5 -112.5q0 -42 27 -63t71 -21q60 0 119 18l-4 -34q-61 -21 -119 -21t-95.5 29t-37.5 84q0 31 7 55t29.5 59.5t70.5 83t125 111.5l47 209h-4q-42 -83 -108.5 -138t-134.5 -76.5t-140 -21.5q-148 0 -231 76t-83 207
q0 65 17 152l141 671h39l-141 -669q-17 -91 -17 -150q0 -116 72 -182t205 -66q159 0 272 103t156 309l139 655h39z" />
    <glyph glyph-name="Wcircumflex" unicode="&#x174;" horiz-adv-x="1792" 
d="M1169 0l-82 1423h-4l-698 -1423h-63l-66 1462h39l63 -1423h4l699 1423h61l84 -1423h4l684 1423h43l-704 -1462h-64zM1393 1579h-37l-178 264l-293 -264h-45l319 299h43z" />
    <glyph glyph-name="wcircumflex" unicode="&#x175;" horiz-adv-x="1548" 
d="M946 0l-63 1042h-4l-588 -1042h-58l-45 1081h39l41 -1044h4l586 1044h60l63 -1044h4l594 1044h45l-620 -1081h-58zM1198 1237h-37l-178 301l-293 -301h-45l320 336h43z" />
    <glyph glyph-name="Ycircumflex" unicode="&#x176;" horiz-adv-x="1056" 
d="M383 0l129 614l-299 848h45l281 -811l671 811h50l-709 -848l-129 -614h-39zM1012 1579h-37l-178 264l-293 -264h-45l319 299h43z" />
    <glyph glyph-name="ycircumflex" unicode="&#x177;" horiz-adv-x="913" 
d="M197 1081l106 -1011h4l649 1011h50l-963 -1480h-49l276 413l-114 1067h41zM887 1237h-37l-178 301l-293 -301h-45l319 336h43z" />
    <glyph glyph-name="Ydieresis" unicode="&#x178;" horiz-adv-x="1056" 
d="M383 0l129 614l-299 848h45l281 -811l671 811h50l-709 -848l-129 -614h-39zM586 1774h57l-20 -91h-58zM918 1774h57l-21 -91h-57z" />
    <glyph glyph-name="Zacute" unicode="&#x179;" horiz-adv-x="1091" 
d="M-23 39l1151 1384h-798l8 39h850l-8 -39l-1151 -1384h917l-8 -39h-969zM973 1870h53l-268 -275h-41z" />
    <glyph glyph-name="zacute" unicode="&#x17a;" horiz-adv-x="907" 
d="M-12 39l880 1005h-637l9 37h686l-8 -37l-877 -1005h709l-9 -39h-761zM893 1573l-297 -336h-41l287 336h51z" />
    <glyph glyph-name="Zdotaccent" unicode="&#x17b;" horiz-adv-x="1091" 
d="M-23 39l1151 1384h-798l8 39h850l-8 -39l-1151 -1384h917l-8 -39h-969zM786 1769h58l-19 -90h-57z" />
    <glyph glyph-name="zdotaccent" unicode="&#x17c;" horiz-adv-x="907" 
d="M-12 39l880 1005h-637l9 37h686l-8 -37l-877 -1005h709l-9 -39h-761zM637 1454h57l-18 -90h-58z" />
    <glyph glyph-name="Zcaron" unicode="&#x17d;" horiz-adv-x="1091" 
d="M-23 39l1151 1384h-798l8 39h850l-8 -39l-1151 -1384h917l-8 -39h-969zM571 1874h37l178 -264l293 264h45l-319 -299h-43z" />
    <glyph glyph-name="zcaron" unicode="&#x17e;" horiz-adv-x="907" 
d="M-12 39l880 1005h-637l9 37h686l-8 -37l-877 -1005h709l-9 -39h-761zM412 1567h37l178 -301l293 301h45l-320 -336h-43z" />
    <glyph glyph-name="florin" unicode="&#x192;" horiz-adv-x="1040" 
d="M705 1169l-109 -393h315l-8 -39h-317l-197 -710q-17 -60 -31 -100.5t-37.5 -83.5t-51.5 -68t-69 -41.5t-94 -16.5q-88 0 -167 29l10 39q76 -29 157 -29q56 0 95.5 18t67.5 57.5t45.5 85t37.5 118.5l193 702h-297l8 39h301l111 402q39 145 111 227t196 82q89 0 170 -31
l-12 -35q-76 27 -160 27q-108 0 -169.5 -71.5t-98.5 -207.5z" />
    <glyph glyph-name="Scommaaccent" unicode="&#x218;" horiz-adv-x="1044" 
d="M1034 1430l-14 -37q-121 55 -285 55q-82 0 -153 -17.5t-131 -54t-94.5 -100.5t-34.5 -150q0 -35 6.5 -65.5t14.5 -54t29 -50.5t34.5 -42.5t47.5 -44t52 -42t63 -47.5q54 -40 86.5 -66t71.5 -61t61.5 -65.5t43 -68t29.5 -79.5t9 -90q0 -96 -33 -169t-93.5 -117.5
t-141.5 -66.5t-180 -22q-92 0 -206.5 26t-180.5 60l14 37q76 -36 181.5 -60t191.5 -24q120 0 210 33.5t144.5 109t54.5 187.5q0 123 -67 209.5t-219 196.5q-49 36 -77 57.5t-63 52.5t-53.5 56t-36.5 58t-25 70.5t-7 81.5q0 97 39.5 169.5t106.5 113t144.5 59.5t165.5 19
q155 0 295 -57zM424 -121l-199 -317h-28l182 317h45z" />
    <glyph glyph-name="scommaaccent" unicode="&#x219;" horiz-adv-x="804" 
d="M772 1055l-12 -37q-49 22 -113.5 35.5t-116.5 13.5q-60 0 -113 -12.5t-98 -38.5t-71.5 -72t-26.5 -106q0 -79 46.5 -135.5t142.5 -120.5q56 -37 94.5 -69t75 -72.5t55 -86.5t18.5 -98q0 -141 -94.5 -211t-259.5 -70q-70 0 -162 21.5t-143 48.5l16 37q58 -29 142.5 -48.5
t148.5 -19.5q144 0 228.5 57.5t84.5 178.5q0 89 -58 158t-169 143q-51 34 -83.5 60.5t-63 61t-44.5 75t-14 88.5q0 58 20.5 105t54.5 77t80 50.5t94.5 29t100.5 8.5q126 0 240 -51zM307 -121l-198 -317h-29l182 317h45z" />
    <glyph glyph-name="uni021A" unicode="&#x21a;" horiz-adv-x="985" 
d="M350 0l301 1423h-467l9 39h960l-8 -39h-455l-301 -1423h-39zM367 -121l-199 -317h-29l183 317h45z" />
    <glyph glyph-name="uni021B" unicode="&#x21b;" horiz-adv-x="585" 
d="M135 1042l8 39h217l54 256h39l-54 -256h279l-8 -39h-279l-172 -809q-14 -65 -14 -102q0 -104 141 -104q59 0 121 10l-10 -39q-48 -10 -119 -10q-172 0 -172 137q0 41 14 102l172 815h-217zM268 -121l-198 -317h-29l182 317h45z" />
    <glyph glyph-name="dotlessj" unicode="&#x237;" horiz-adv-x="442" 
d="M371 1081l-252 -1185q-32 -156 -98.5 -225.5t-202.5 -69.5q-34 0 -74 6l8 39q35 -6 68 -6q123 0 177.5 63.5t84.5 208.5l250 1169h39z" />
    <glyph glyph-name="circumflex" unicode="&#x2c6;" horiz-adv-x="962" 
d="M913 1237h-36l-179 301l-292 -301h-46l320 336h43z" />
    <glyph glyph-name="caron" unicode="&#x2c7;" horiz-adv-x="962" 
d="M428 1567h37l178 -301l293 301h45l-319 -336h-44z" />
    <glyph glyph-name="uni02C9" unicode="&#x2c9;" horiz-adv-x="962" 
d="M940 1520l-8 -39h-477l8 39h477z" />
    <glyph glyph-name="breve" unicode="&#x2d8;" horiz-adv-x="962" 
d="M664 1315q208 0 249 186h35q-19 -98 -91.5 -161.5t-194.5 -63.5q-106 0 -164 48t-58 128q0 17 4 49h35q-2 -16 -2 -43q0 -68 48 -105.5t139 -37.5z" />
    <glyph glyph-name="dotaccent" unicode="&#x2d9;" horiz-adv-x="962" 
d="M657 1454h58l-19 -90h-57z" />
    <glyph glyph-name="ring" unicode="&#x2da;" horiz-adv-x="962" 
d="M854 1403q0 -75 -52.5 -127.5t-127.5 -52.5t-127.5 52.5t-52.5 127.5t52.5 127.5t127.5 52.5t127.5 -52.5t52.5 -127.5zM815 1403q0 60 -40.5 100.5t-100.5 40.5t-101 -40.5t-41 -100.5t41 -100.5t101 -40.5t100.5 40.5t40.5 100.5z" />
    <glyph glyph-name="ogonek" unicode="&#x2db;" horiz-adv-x="962" 
d="M410 12h41q-154 -137 -199 -196t-45 -115q0 -42 27 -63t71 -21q60 0 119 18l-4 -34q-61 -21 -119 -21t-95.5 29t-37.5 84q0 31 7.5 55.5t31 61t73.5 86t130 116.5z" />
    <glyph glyph-name="tilde" unicode="&#x2dc;" horiz-adv-x="962" 
d="M807 1315q-27 0 -53 10.5t-42.5 23t-43.5 35.5q-33 29 -45 39t-37 22.5t-47 12.5q-95 0 -127 -143h-37q38 182 164 182q62 0 139 -70q26 -24 42 -36.5t40.5 -24.5t46.5 -12q101 0 133 143h37q-18 -85 -61 -133.5t-109 -48.5z" />
    <glyph glyph-name="hungarumlaut" unicode="&#x2dd;" horiz-adv-x="962" 
d="M768 1573l-258 -336h-39l248 336h49zM965 1573l-258 -336h-39l247 336h50z" />
    <glyph glyph-name="uni0394" unicode="&#x394;" horiz-adv-x="1177" 
d="M-82 0l8 39l877 1423h59l199 -1425l-8 -37h-1135zM-29 39h1049l-191 1395z" />
    <glyph glyph-name="uni03A9" unicode="&#x3a9;" horiz-adv-x="1486" 
d="M61 0l9 39h366l27 129q-146 50 -218.5 173.5t-72.5 285.5q0 120 28 239.5t89 232t147.5 198.5t212.5 138t275 52q235 0 360 -135.5t125 -356.5q0 -160 -46.5 -304.5t-126 -252.5t-186.5 -181.5t-227 -98.5l-24 -119h403l-8 -39h-442l39 186q162 26 295.5 143.5
t207.5 290.5t74 363q0 100 -27 183t-81 147t-142 99.5t-203 35.5q-138 0 -256 -51t-198.5 -134t-137.5 -189.5t-83.5 -216.5t-26.5 -216q0 -166 74 -285.5t221 -160.5l-41 -195h-406z" />
    <glyph glyph-name="uni03BC" unicode="&#x3bc;" horiz-adv-x="1210" 
d="M10 -399l314 1480h38l-141 -669q-16 -86 -16 -150q0 -116 71.5 -182t204.5 -66q159 0 272 103t156 309l140 655h38l-184 -870q-21 -100 0 -142t92 -42q28 0 60 8l-11 -39q-27 -8 -59 -8q-86 0 -116 59.5t-3 163.5h-4q-42 -83 -108.5 -138t-134.5 -76.5t-140 -21.5
q-137 0 -212 60t-91 145h-4l-123 -579h-39z" />
    <glyph glyph-name="pi" unicode="&#x3c0;" horiz-adv-x="1232" 
d="M92 0l334 1042h-270l8 39h1110l-8 -39h-265l-172 -809q-14 -65 -14 -102q0 -104 129 -104q53 0 94 10l-10 -39q-48 -10 -90 -10q-71 0 -116.5 34t-45.5 103q0 36 15 102l172 815h-498l-330 -1042h-43z" />
    <glyph glyph-name="Wgrave" unicode="&#x1e80;" horiz-adv-x="1792" 
d="M1169 0l-82 1423h-4l-698 -1423h-63l-66 1462h39l63 -1423h4l699 1423h61l84 -1423h4l684 1423h43l-704 -1462h-64zM922 1870h49l162 -275h-39z" />
    <glyph glyph-name="wgrave" unicode="&#x1e81;" horiz-adv-x="1548" 
d="M946 0l-63 1042h-4l-588 -1042h-58l-45 1081h39l41 -1044h4l586 1044h60l63 -1044h4l594 1044h45l-620 -1081h-58zM901 1237l-176 336h47l168 -336h-39z" />
    <glyph glyph-name="Wacute" unicode="&#x1e82;" horiz-adv-x="1792" 
d="M1169 0l-82 1423h-4l-698 -1423h-63l-66 1462h39l63 -1423h4l699 1423h61l84 -1423h4l684 1423h43l-704 -1462h-64zM1360 1870h53l-268 -275h-41z" />
    <glyph glyph-name="wacute" unicode="&#x1e83;" horiz-adv-x="1548" 
d="M946 0l-63 1042h-4l-588 -1042h-58l-45 1081h39l41 -1044h4l586 1044h60l63 -1044h4l594 1044h45l-620 -1081h-58zM1243 1573l-297 -336h-41l287 336h51z" />
    <glyph glyph-name="Wdieresis" unicode="&#x1e84;" horiz-adv-x="1792" 
d="M1169 0l-82 1423h-4l-698 -1423h-63l-66 1462h39l63 -1423h4l699 1423h61l84 -1423h4l684 1423h43l-704 -1462h-64zM965 1774h57l-21 -91h-57zM1296 1774h58l-21 -91h-57z" />
    <glyph glyph-name="wdieresis" unicode="&#x1e85;" horiz-adv-x="1548" 
d="M946 0l-63 1042h-4l-588 -1042h-58l-45 1081h39l41 -1044h4l586 1044h60l63 -1044h4l594 1044h45l-620 -1081h-58zM772 1450h57l-18 -90h-57zM1104 1450h57l-18 -90h-58z" />
    <glyph glyph-name="Ygrave" unicode="&#x1ef2;" horiz-adv-x="1056" 
d="M383 0l129 614l-299 848h45l281 -811l671 811h50l-709 -848l-129 -614h-39zM580 1870h49l162 -275h-39z" />
    <glyph glyph-name="ygrave" unicode="&#x1ef3;" horiz-adv-x="913" 
d="M197 1081l106 -1011h4l649 1011h50l-963 -1480h-49l276 413l-114 1067h41zM602 1237l-176 336h47l168 -336h-39z" />
    <glyph glyph-name="endash" unicode="&#x2013;" horiz-adv-x="761" 
d="M82 598l8 39h647l-8 -39h-647z" />
    <glyph glyph-name="emdash" unicode="&#x2014;" horiz-adv-x="1142" 
d="M82 598l8 39h1028l-8 -39h-1028z" />
    <glyph glyph-name="quoteleft" unicode="&#x2018;" horiz-adv-x="528" 
d="M561 1505l-201 -401h-47l209 401h39z" />
    <glyph glyph-name="quoteright" unicode="&#x2019;" horiz-adv-x="528" 
d="M313 1104l201 401h47l-207 -401h-41z" />
    <glyph glyph-name="quotesinglbase" unicode="&#x201a;" horiz-adv-x="528" 
d="M27 -246l198 400h47l-204 -400h-41z" />
    <glyph glyph-name="quotedblleft" unicode="&#x201c;" horiz-adv-x="755" 
d="M561 1505l-201 -401h-47l209 401h39zM791 1505l-201 -401h-47l207 401h41z" />
    <glyph glyph-name="quotedblright" unicode="&#x201d;" horiz-adv-x="755" 
d="M543 1104l200 401h48l-209 -401h-39zM313 1104l201 401h47l-207 -401h-41z" />
    <glyph glyph-name="quotedblbase" unicode="&#x201e;" horiz-adv-x="755" 
d="M256 -246l197 400h49l-207 -400h-39zM27 -246l196 400h49l-204 -400h-41z" />
    <glyph glyph-name="dagger" unicode="&#x2020;" horiz-adv-x="1026" 
d="M715 1368l-94 -446h417l-8 -39h-418l-241 -1141h-39l241 1141h-417l8 39h418l94 446h39z" />
    <glyph glyph-name="daggerdbl" unicode="&#x2021;" horiz-adv-x="1026" 
d="M713 1368l-90 -424h397l-8 -39h-398l-147 -700h397l-8 -39h-397l-90 -424h-39l90 424h-397l8 39h397l147 700h-397l8 39h398l90 424h39z" />
    <glyph glyph-name="bullet" unicode="&#x2022;" horiz-adv-x="952" 
d="M172 674q0 140 98.5 239t237.5 99q141 0 239.5 -99t98.5 -239t-98.5 -238t-239.5 -98q-140 0 -238 98t-98 238z" />
    <glyph glyph-name="ellipsis" unicode="&#x2026;" horiz-adv-x="1499" 
d="M106 0l23 109h80l-23 -109h-80zM606 0l23 109h80l-23 -109h-80zM1106 0l22 109h80l-22 -109h-80z" />
    <glyph glyph-name="perthousand" unicode="&#x2030;" horiz-adv-x="2068" 
d="M145 0l1213 1462h47l-1212 -1462h-48zM750 1237q0 -57 -11 -117.5t-35.5 -121t-59 -108t-87.5 -77t-115 -29.5q-91 0 -140.5 63.5t-49.5 162.5q0 73 18 149t53.5 145.5t97 113.5t138.5 44q92 0 141.5 -63.5t49.5 -161.5zM709 1237q0 82 -38.5 134t-113.5 52
q-69 0 -122 -40.5t-83 -104.5t-44.5 -132.5t-14.5 -135.5q0 -83 38 -135t113 -52q55 0 101 27.5t76 70.5t50 98.5t29 110.5t9 107zM1294 428q0 -73 -18 -149t-53.5 -146t-97 -114t-138.5 -44q-91 0 -140.5 63.5t-49.5 162.5q0 73 18 149t53.5 145.5t97 113.5t138.5 44
q92 0 141 -63t49 -162zM1253 428q0 83 -38 134.5t-113 51.5q-69 0 -122 -40.5t-83 -104.5t-44.5 -132.5t-14.5 -135.5q0 -83 38 -135t113 -52q69 0 122 40.5t83 105t44.5 133t14.5 135.5zM1909 428q0 -73 -18 -149t-53.5 -146t-97 -114t-138.5 -44q-92 0 -141.5 64
t-49.5 162q0 73 18 149t53.5 145.5t97 113.5t138.5 44q92 0 141.5 -63.5t49.5 -161.5zM1868 428q0 82 -38.5 134t-113.5 52q-69 0 -122 -40.5t-83 -104.5t-44.5 -132.5t-14.5 -135.5q0 -83 38.5 -135t113.5 -52q69 0 122 40.5t83 105t44.5 133t14.5 135.5z" />
    <glyph glyph-name="guilsinglleft" unicode="&#x2039;" horiz-adv-x="663" 
d="M578 965l-326 -355l170 -354h-41l-172 354l2 11l317 344h50z" />
    <glyph glyph-name="guilsinglright" unicode="&#x203a;" horiz-adv-x="663" 
d="M133 256l326 354l-170 355h41l172 -355l-2 -10l-318 -344h-49z" />
    <glyph glyph-name="fraction" unicode="&#x2044;" horiz-adv-x="200" 
d="M756 1462l-1164 -1462h-43l1164 1462h43z" />
    <glyph glyph-name="zero.superior" unicode="&#x2070;" 
d="M653 1769q78 0 129 -40.5t71.5 -103.5t20.5 -148q0 -78 -13 -159.5t-44 -164t-75.5 -146.5t-113.5 -104.5t-153 -40.5q-120 0 -173.5 79t-53.5 210q0 79 14 161.5t46 165t77.5 147t115 104.5t152.5 40zM649 1731q-92 0 -164.5 -58t-114 -148.5t-62.5 -186.5t-21 -185
q0 -113 45 -182.5t143 -69.5q76 0 138.5 38.5t103 98.5t68 137.5t39.5 153t12 146.5q0 116 -44.5 186t-142.5 70z" />
    <glyph glyph-name="four.superior" unicode="&#x2074;" 
d="M823 1755l-127 -602h138l-9 -39h-137l-51 -237h-41l51 237h-424l6 41l541 600h53zM655 1153l117 547h-2l-494 -547h379z" />
    <glyph glyph-name="five.superior" unicode="&#x2075;" 
d="M453 901q146 0 226.5 72t80.5 201q0 92 -63.5 142t-166.5 50q-73 0 -182 -23l103 412h419l-8 -39h-381l-82 -325q69 14 133 14q121 0 194 -60t73 -171q0 -148 -94 -230t-254 -82q-58 0 -121.5 13t-104.5 36l19 37q35 -20 94.5 -33.5t114.5 -13.5z" />
    <glyph glyph-name="six.superior" unicode="&#x2076;" 
d="M721 1731q-82 0 -149.5 -36t-113.5 -99t-76.5 -132.5t-51.5 -152.5h4q92 121 246 121q121 0 180 -71t59 -171q0 -141 -84.5 -234.5t-224.5 -93.5q-116 0 -180 74t-64 188q0 75 15 158.5t50.5 171t86.5 157t130.5 114t174.5 44.5q77 0 145 -26l-12 -39q-64 27 -135 27z
M311 1190q-6 -27 -6 -66q0 -91 53 -157t154 -66q120 0 194 81t74 204q0 86 -50.5 146.5t-149.5 60.5q-106 0 -177.5 -58.5t-91.5 -144.5z" />
    <glyph glyph-name="seven.superior" unicode="&#x2077;" 
d="M410 1716l8 39h497l-8 -37q-170 -193 -299.5 -418t-189.5 -423h-41q59 200 190.5 430t290.5 409h-448z" />
    <glyph glyph-name="eight.superior" unicode="&#x2078;" 
d="M633 1769q104 0 175 -54.5t71 -147.5q0 -55 -20 -98t-54 -69.5t-68 -42.5t-73 -24v-2q68 -23 111.5 -75.5t43.5 -127.5q0 -71 -29 -124.5t-77.5 -83t-104.5 -44t-119 -14.5q-118 0 -196 57.5t-78 161.5q0 107 68.5 171.5t173.5 86.5v2q-55 23 -88 69.5t-33 111.5
q0 118 86.5 182.5t210.5 64.5zM555 1317q-76 0 -142 -24t-112.5 -79t-46.5 -133q0 -83 68.5 -131.5t169.5 -48.5q54 0 103 12t91 37t67 69.5t25 104.5q0 85 -66 139t-157 54zM565 1356q49 0 94.5 10.5t87 33.5t66.5 65.5t25 99.5q0 74 -58.5 120t-148.5 46
q-114 0 -185 -56.5t-71 -152.5q0 -76 54 -121t136 -45z" />
    <glyph glyph-name="nine.superior" unicode="&#x2079;" 
d="M406 901q82 0 149.5 36t113.5 99t76.5 132.5t51.5 152.5h-4q-89 -121 -246 -121q-121 0 -180.5 71t-59.5 171q0 141 84.5 234t224.5 93q116 0 180 -74t64 -188q0 -75 -15 -158.5t-50.5 -171t-86.5 -157t-130.5 -114t-174.5 -44.5q-75 0 -145 27l12 39q64 -27 136 -27z
M815 1442q6 27 6 65q0 58 -21 107.5t-69.5 83t-116.5 33.5q-120 0 -194 -81t-74 -204q0 -86 51 -146.5t150 -60.5q105 0 176.5 58t91.5 145z" />
    <glyph glyph-name="zero.inferior" unicode="&#x2080;" 
d="M406 606q78 0 129 -40.5t71.5 -104t20.5 -148.5q0 -78 -13 -159.5t-44 -164t-76 -146t-114 -104t-153 -40.5q-120 0 -173.5 79t-53.5 210q0 79 14 161.5t46 165t78 147t115.5 104.5t152.5 40zM401 567q-92 0 -164.5 -58t-114 -148t-62.5 -186t-21 -185q0 -113 45 -182.5
t143 -69.5q76 0 138.5 38t103 98.5t68 138t39.5 152.5t12 146q0 116 -44.5 186t-142.5 70z" />
    <glyph glyph-name="one.inferior" unicode="&#x2081;" 
d="M457 592l-187 -879h-39l177 832h-2l-218 -121l-14 31l244 137h39z" />
    <glyph glyph-name="two.inferior" unicode="&#x2082;" 
d="M494 -248l-9 -39h-536l6 35q136 110 214.5 174.5t157 133.5t116 110t70 86.5t42.5 81t10 76.5q0 71 -47.5 114t-128.5 43q-62 0 -113 -20t-116 -62l-19 31q126 90 250 90q101 0 157 -54t56 -142q0 -43 -10.5 -81t-41 -83.5t-68.5 -88t-112 -108t-151 -129.5t-205 -166v-2
h478z" />
    <glyph glyph-name="three.inferior" unicode="&#x2083;" 
d="M166 150l8 38h94q133 0 215 58t82 164q0 73 -52 115t-136 42q-112 0 -215 -53l-10 37q113 55 227 55q105 0 165 -52.5t60 -143.5q0 -96 -60.5 -159t-154.5 -83v-2q70 -20 110 -72t40 -123q0 -131 -93 -201.5t-237 -70.5q-69 0 -135.5 16.5t-110.5 44.5l19 37
q94 -59 227 -59q77 0 140.5 22t107 76t43.5 133q0 84 -64.5 132.5t-171.5 48.5h-98z" />
    <glyph glyph-name="four.inferior" unicode="&#x2084;" 
d="M575 592l-126 -602h137l-8 -39h-138l-51 -238h-41l51 238h-424l7 41l540 600h53zM408 -10l116 547h-2l-493 -547h379z" />
    <glyph glyph-name="five.inferior" unicode="&#x2085;" 
d="M205 -262q146 0 226.5 71.5t80.5 200.5q0 93 -63 143t-166 50q-74 0 -183 -23l103 412h420l-9 -39h-381l-81 -326q73 15 133 15q120 0 193 -60.5t73 -171.5q0 -148 -94 -229.5t-254 -81.5q-58 0 -121.5 13t-104.5 36l19 37q35 -20 94.5 -33.5t114.5 -13.5z" />
    <glyph glyph-name="six.inferior" unicode="&#x2086;" 
d="M473 567q-82 0 -149.5 -36t-113.5 -99t-76.5 -132.5t-51.5 -152.5h4q92 121 246 121q121 0 180 -70.5t59 -170.5q0 -141 -84.5 -234.5t-224.5 -93.5q-116 0 -180 74t-64 188q0 75 15 158.5t50.5 171t86.5 157t130.5 114t174.5 44.5q78 0 146 -26l-13 -39q-62 26 -135 26z
M63 27q-6 -27 -6 -66q0 -91 53 -157t154 -66q120 0 194 81t74 204q0 86 -50.5 146t-149.5 60q-106 0 -177.5 -58t-91.5 -144z" />
    <glyph glyph-name="seven.inferior" unicode="&#x2087;" 
d="M162 553l8 39h498l-9 -37q-170 -192 -299.5 -418t-189.5 -424h-41q59 200 190.5 430.5t290.5 409.5h-448z" />
    <glyph glyph-name="eight.inferior" unicode="&#x2088;" 
d="M387 606q104 0 175 -55t71 -148q0 -55 -20 -98t-54 -69.5t-68 -42t-73 -23.5v-2q68 -23 111.5 -75.5t43.5 -127.5q0 -57 -19 -103t-51 -76t-75 -50t-89 -28.5t-95 -8.5q-118 0 -196.5 57.5t-78.5 161.5q0 107 68.5 171.5t173.5 86.5v2q-55 23 -88 69t-33 111
q0 118 86.5 183t210.5 65zM309 154q-76 0 -142 -24t-112.5 -79t-46.5 -133q0 -83 68.5 -131.5t169.5 -48.5q54 0 103 12t91 37t67 69.5t25 104.5q0 85 -66 139t-157 54zM319 193q49 0 94.5 10.5t87 33t66.5 65t25 99.5q0 74 -58.5 120t-148.5 46q-114 0 -185 -56.5
t-71 -152.5q0 -76 54 -120.5t136 -44.5z" />
    <glyph glyph-name="nine.inferior" unicode="&#x2089;" 
d="M158 -262q82 0 149.5 36t113.5 99t76.5 132.5t51.5 152.5h-4q-89 -121 -246 -121q-121 0 -180.5 71t-59.5 171q0 141 85 234t225 93q116 0 179.5 -74t63.5 -188q0 -75 -15 -158.5t-50.5 -171t-86 -157t-130 -114t-174.5 -44.5q-76 0 -146 27l13 38q62 -26 135 -26z
M567 279q6 27 6 65q0 43 -12.5 82t-36.5 71t-64.5 51t-92.5 19q-120 0 -194.5 -80.5t-74.5 -203.5q0 -86 51 -146.5t150 -60.5q105 0 176.5 58t91.5 145z" />
    <glyph glyph-name="Euro" unicode="&#x20ac;" horiz-adv-x="1372" 
d="M1139 66v-41q-133 -50 -299 -50q-133 0 -237.5 45.5t-169.5 125.5t-98.5 183.5t-33.5 223.5v27h-178l16 38h164q6 140 45 263h-160l17 39h155q41 120 108.5 221t160.5 179.5t216.5 122.5t264.5 44q161 0 268 -49l-14 -35q-109 45 -256 45q-135 0 -251.5 -41.5t-203 -115
t-149 -166.5t-101.5 -205h730l-17 -39h-727q-41 -131 -47 -263h672l-17 -38h-657v-25q0 -112 31 -208.5t92 -171.5t160.5 -118t226.5 -43q151 0 289 52z" />
    <glyph glyph-name="afii61248" unicode="&#x2105;" horiz-adv-x="1513" 
d="M733 1464l-12 -37q-55 19 -119 19q-140 0 -228.5 -110t-88.5 -263q0 -99 50 -161t152 -62q69 0 140 24v-38q-73 -25 -142 -25q-122 0 -180.5 73t-58.5 189q0 170 101 291t259 121q66 0 127 -21zM1405 1462l-1165 -1462h-47l1165 1462h47zM1370 403q0 -54 -11 -110
t-36.5 -114t-62.5 -102.5t-94.5 -73t-127.5 -28.5q-108 0 -164.5 68.5t-56.5 179.5q0 115 37.5 211t113 155.5t175.5 59.5q106 0 166.5 -68.5t60.5 -177.5zM1038 14q72 0 130 36t92.5 94t52.5 124.5t18 134.5q0 92 -48 149.5t-140 57.5t-159 -58t-97.5 -143.5t-30.5 -183.5
q0 -95 45.5 -153t136.5 -58z" />
    <glyph glyph-name="afii61289" unicode="&#x2113;" horiz-adv-x="806" 
d="M70 401q89 18 192 72q14 77 41 197q92 428 185 622.5t217 194.5q61 0 92.5 -40t31.5 -112q0 -90 -34 -207.5t-97 -242t-168 -242.5t-231 -190q-37 -180 -37 -252q0 -100 39 -143.5t119 -43.5q54 0 108 21l-4 -39q-55 -21 -112 -21q-96 0 -143.5 51.5t-47.5 163.5
q0 76 31 238q-103 -50 -191 -66zM344 670l-37 -170q115 73 211 186.5t153.5 231t88.5 226.5t31 189q0 115 -91 115q-100 0 -184.5 -189t-171.5 -589z" />
    <glyph glyph-name="trademark" unicode="&#x2122;" horiz-adv-x="1841" 
d="M829 1462v-39h-231v-745h-39v745h-235v39h505zM1645 1462v-784h-39v741h-4l-273 -741h-57l-273 741h-4v-741h-39v784h70l274 -741h5l270 741h70z" />
    <glyph glyph-name="Omega" unicode="&#x2126;" horiz-adv-x="1486" 
d="M61 0l9 39h366l27 129q-146 50 -218.5 173.5t-72.5 285.5q0 120 28 239.5t89 232t147.5 198.5t212.5 138t275 52q235 0 360 -135.5t125 -356.5q0 -160 -46.5 -304.5t-126 -252.5t-186.5 -181.5t-227 -98.5l-24 -119h403l-8 -39h-442l39 186q162 26 295.5 143.5
t207.5 290.5t74 363q0 100 -27 183t-81 147t-142 99.5t-203 35.5q-138 0 -256 -51t-198.5 -134t-137.5 -189.5t-83.5 -216.5t-26.5 -216q0 -166 74 -285.5t221 -160.5l-41 -195h-406z" />
    <glyph glyph-name="estimated" unicode="&#x212e;" horiz-adv-x="1632" 
d="M1329 258h129q-54 -61 -110 -107t-132 -87.5t-174 -64t-213 -22.5q-113 0 -218.5 29t-195 87t-157 138.5t-105.5 189.5t-38 234q0 120 39.5 229t111 193t166 146.5t208 95.5t234.5 33q141 0 261.5 -39.5t204.5 -106.5t143.5 -155.5t87.5 -186t28 -198.5v-7h-1167l-16 -20
v-436q175 -158 426 -158q295 0 487 213zM1284 727l16 18v390q-92 86 -196.5 117.5t-229.5 31.5q-282 0 -458 -166v-373l16 -18h852z" />
    <glyph glyph-name="partialdiff" unicode="&#x2202;" horiz-adv-x="1179" 
d="M979 758q-61 257 -226.5 434t-418.5 266l22 29q224 -81 381.5 -234.5t232 -343.5t74.5 -405q0 -150 -51 -268t-155.5 -189.5t-247.5 -71.5q-198 0 -328.5 138.5t-130.5 357.5q0 223 126 362.5t327 139.5q119 0 223 -52t168 -163h4zM584 934q-184 0 -299 -125.5
t-115 -337.5q0 -208 121 -332.5t301 -124.5q99 0 179 38t131.5 103.5t78.5 152t27 184.5q0 107 -34.5 193t-93.5 139.5t-134.5 81.5t-161.5 28z" />
    <glyph glyph-name="Delta" unicode="&#x2206;" horiz-adv-x="1177" 
d="M-82 0l8 39l877 1423h59l199 -1425l-8 -37h-1135zM-29 39h1049l-191 1395z" />
    <glyph glyph-name="product" unicode="&#x220f;" horiz-adv-x="1466" 
d="M1296 1462v-1861h-39v1822h-946v-1822h-39v1861h1024z" />
    <glyph glyph-name="summation" unicode="&#x2211;" horiz-adv-x="1243" 
d="M770 553l-623 -913h1000v-39h-1047v39l621 911l-604 872v39h1003v-39h-956z" />
    <glyph glyph-name="minus" unicode="&#x2212;" horiz-adv-x="1083" 
d="M1018 627h-887v39h887v-39z" />
    <glyph glyph-name="uni2215" unicode="&#x2215;" horiz-adv-x="200" 
d="M756 1462l-1164 -1462h-43l1164 1462h43z" />
    <glyph glyph-name="uni2219" unicode="&#x2219;" horiz-adv-x="499" 
d="M225 567l25 109h80l-25 -109h-80z" />
    <glyph glyph-name="radical" unicode="&#x221a;" horiz-adv-x="1208" 
d="M487 408l203 -734h4l447 1788h43l-469 -1861h-45l-213 768h-297v39h327z" />
    <glyph glyph-name="infinity" unicode="&#x221e;" horiz-adv-x="1646" 
d="M1210 102q-136 0 -228.5 81.5t-158.5 242.5q-60 -149 -156 -236.5t-231 -87.5q-139 0 -236.5 104t-97.5 271t97.5 271t236.5 104q136 0 227.5 -79.5t159.5 -244.5q67 162 159 243t228 81q139 0 236.5 -104t97.5 -271t-97.5 -271t-236.5 -104zM436 141q131 0 219 87
t148 251q-69 172 -153.5 253t-213.5 81q-125 0 -210 -95t-85 -241t85 -241t210 -95zM1210 813q-131 0 -217 -84.5t-149 -251.5q62 -164 147.5 -250t218.5 -86q125 0 210 95t85 241t-85 241t-210 95z" />
    <glyph glyph-name="integral" unicode="&#x222b;" horiz-adv-x="585" 
d="M324 -150q0 -249 -193 -249q-66 0 -119 22l11 39q53 -22 108 -22q154 0 154 208v1366q0 248 192 248q64 0 117 -22l-12 -39q-53 22 -105 22q-153 0 -153 -209v-1364z" />
    <glyph glyph-name="approxequal" unicode="&#x2248;" horiz-adv-x="1083" 
d="M782 776q66 0 117 21t119 71v-43q-57 -42 -112.5 -65t-125.5 -23q-49 0 -106.5 19.5t-102 43t-101 43t-103.5 19.5q-66 0 -117 -21t-119 -71v43q57 42 112.5 65t125.5 23q49 0 106.5 -19.5t102 -43t101 -43t103.5 -19.5zM782 430q66 0 117 21t119 71v-43
q-57 -42 -112.5 -65t-125.5 -23q-49 0 -106.5 19.5t-102 43t-101 43t-103.5 19.5q-66 0 -117 -21t-119 -71v43q57 42 112.5 65t125.5 23q49 0 106.5 -19.5t102 -43t101 -43t103.5 -19.5z" />
    <glyph glyph-name="notequal" unicode="&#x2260;" horiz-adv-x="1083" 
d="M852 1192h43l-195 -352h318v-39h-338l-170 -309h508v-39h-529l-192 -353h-43l192 353h-315v39h336l170 309h-506v39h528z" />
    <glyph glyph-name="lessequal" unicode="&#x2264;" horiz-adv-x="1083" 
d="M1018 176h-887v39h887v-39zM1018 1063l-842 -328v-4l842 -330v-43l-887 347v55l887 346v-43z" />
    <glyph glyph-name="greaterequal" unicode="&#x2265;" horiz-adv-x="1083" 
d="M1018 176h-887v39h887v-39zM973 735l-842 328v43l887 -346v-55l-887 -347v43l842 330v4z" />
    <glyph glyph-name="lozenge" unicode="&#x25ca;" horiz-adv-x="878" 
d="M479 47l318 615l-320 616h-4l-317 -616l319 -615h4zM496 0h-41l-344 662l344 663h41l346 -663z" />
    <glyph glyph-name="f_i" unicode="&#xf001;" horiz-adv-x="1030" 
d="M1018 1479l-12 -37q-106 24 -207 24q-165 0 -247.5 -67t-117.5 -232l-18 -86h532l-229 -1081h-39l221 1042h-493l-222 -1042h-39l222 1042h-256l8 39h256l18 90q37 180 130.5 257t273.5 77q107 0 219 -26z" />
    <glyph glyph-name="f_l" unicode="&#xf002;" horiz-adv-x="1030" 
d="M377 1081l18 90q37 180 130.5 257t273.5 77q120 0 233 -30l-313 -1475h-39l307 1446q-88 20 -188 20q-165 0 -247.5 -67t-117.5 -232l-18 -86h307l-8 -39h-307l-222 -1042h-39l222 1042h-256l8 39h256z" />
    <glyph glyph-name="uniF8FF" unicode="&#xf8ff;" horiz-adv-x="1048" 
d="M623 240h-115v137h115v-137zM608 479h-94l-4 35q0 114 27 166q29 56 94 121q63 60 82.5 94.5t19.5 75.5q0 73 -45.5 123.5t-109.5 50.5q-67 0 -112 -47.5t-56 -147.5l-103 17q13 141 87 210.5t190 69.5q110 0 182 -74t72 -194q0 -69 -27 -123t-102 -123q-77 -68 -88 -106
q-13 -44 -13 -148zM156 102h843v1264h-843v-1264zM53 1470h1049v-1470h-1049v1470z" />
    <glyph glyph-name="commaaccent" horiz-adv-x="962" 
d="M406 -121l-199 -317h-29l182 317h46z" />
    <glyph glyph-name="zero.denominator" 
d="M467 893q78 0 129 -40.5t71.5 -104t20.5 -148.5q0 -78 -13 -159t-44 -164t-75.5 -146.5t-113.5 -104t-153 -40.5q-120 0 -174 78.5t-54 209.5q0 79 14 161.5t46 165t78 147t115.5 105t152.5 40.5zM463 854q-74 0 -136.5 -39t-103 -100t-69.5 -139t-41.5 -154t-12.5 -146
q0 -112 45.5 -181.5t143.5 -69.5q76 0 138.5 38t102.5 98.5t68 138t39.5 152.5t11.5 146q0 116 -44 186t-142 70z" />
    <glyph glyph-name="one.denominator" 
d="M518 879l-186 -879h-39l176 831h-2l-217 -120l-14 30l243 138h39z" />
    <glyph glyph-name="two.denominator" 
d="M555 39l-8 -39h-537l6 35q103 83 166 134.5t132.5 110t108 94t79 77t60 69t37 59.5t23 59t5.5 58q0 71 -47.5 114.5t-128.5 43.5q-62 0 -114 -20t-116 -62l-18 31q126 90 250 90q101 0 157 -54.5t56 -142.5q0 -43 -10.5 -81t-41 -83.5t-68.5 -87.5t-112 -108t-151 -129
t-205 -166v-2h477z" />
    <glyph glyph-name="three.denominator" 
d="M227 436l9 39h94q133 0 215 57.5t82 163.5q0 73 -52.5 115.5t-136.5 42.5q-112 0 -215 -53l-10 37q113 55 227 55q105 0 165.5 -53t60.5 -144q0 -96 -60.5 -158.5t-154.5 -82.5v-2q69 -20 109 -71.5t40 -123.5q0 -131 -93 -201.5t-237 -70.5q-148 0 -245 61l18 37
q94 -59 227 -59q77 0 140.5 22t107 76t43.5 133q0 84 -64 132t-171 48h-99z" />
    <glyph glyph-name="four.denominator" 
d="M637 879l-127 -603h137l-8 -38h-137l-51 -238h-41l51 238h-424l6 41l541 600h53zM469 276l117 547h-2l-494 -547h379z" />
    <glyph glyph-name="five.denominator" 
d="M266 25q146 0 226.5 71.5t80.5 200.5q0 93 -63 142.5t-166 49.5q-78 0 -182 -22l102 412h420l-8 -39h-381l-82 -326q69 14 133 14q121 0 193.5 -60t72.5 -171q0 -148 -94 -229.5t-254 -81.5q-58 0 -121 13t-104 36l18 37q35 -20 94.5 -33.5t114.5 -13.5z" />
    <glyph glyph-name="six.denominator" 
d="M535 854q-82 0 -149.5 -36t-114 -99t-77 -132.5t-51.5 -152.5h4q92 121 246 121q121 0 180.5 -71t59.5 -171q0 -141 -84.5 -234t-224.5 -93q-116 0 -180 74t-64 188q0 75 15 158.5t50.5 171t86.5 157t130.5 114t174.5 44.5q75 0 145 -27l-12 -39q-64 27 -135 27zM125 313
q-6 -27 -6 -65q0 -91 53 -157t154 -66q120 0 194 80.5t74 203.5q0 86 -51 146.5t-150 60.5q-105 0 -176.5 -58t-91.5 -145z" />
    <glyph glyph-name="seven.denominator" 
d="M223 840l8 39h498l-8 -37q-170 -193 -300 -418.5t-190 -423.5h-41q59 200 191 430t291 410h-449z" />
    <glyph glyph-name="eight.denominator" 
d="M449 893q104 0 174.5 -54.5t70.5 -148.5q0 -55 -20 -98t-54 -69.5t-68 -42t-73 -23.5v-2q68 -24 112 -76t44 -127q0 -71 -29 -124.5t-77.5 -83t-104.5 -44t-119 -14.5q-118 0 -196 57.5t-78 161.5q0 107 68 171.5t173 86.5v2q-55 23 -87.5 69t-32.5 111q0 118 86.5 183
t210.5 65zM371 440q-76 0 -142 -23.5t-112.5 -78.5t-46.5 -133q0 -83 68 -131.5t169 -48.5q54 0 103 12t91.5 37t67.5 69.5t25 104.5q0 85 -66 138.5t-157 53.5zM381 479q49 0 94 10.5t86.5 33.5t66.5 65.5t25 99.5q0 74 -58.5 120t-148.5 46q-114 0 -185 -56.5t-71 -152.5
q0 -76 54.5 -121t136.5 -45z" />
    <glyph glyph-name="nine.denominator" 
d="M219 23q82 0 149.5 36t113.5 98.5t76.5 132t51.5 152.5h-4q-88 -120 -246 -120q-121 0 -180 70.5t-59 170.5q0 141 84.5 234.5t224.5 93.5q116 0 180 -74t64 -188q0 -75 -15 -158.5t-50.5 -171t-86.5 -157t-130.5 -114t-174.5 -44.5q-77 0 -145 26l12 39q62 -26 135 -26z
M629 563q6 27 6 66q0 91 -53 157t-154 66q-120 0 -194 -81t-74 -204q0 -86 50.5 -146.5t149.5 -60.5q106 0 177.5 58.5t91.5 144.5z" />
    <glyph glyph-name="zero.numerator" 
d="M592 1477q78 0 129 -40.5t71.5 -104t20.5 -148.5q0 -78 -13 -159.5t-44 -164t-75.5 -146.5t-113.5 -104.5t-153 -40.5q-120 0 -174 79t-54 210q0 79 14 161.5t46 165t78 147t115.5 105t152.5 40.5zM588 1438q-74 0 -136.5 -39t-103 -100t-69.5 -139t-41.5 -154
t-12.5 -146q0 -112 45.5 -182t143.5 -70q76 0 138.5 38.5t102.5 98.5t68 138t39.5 153t11.5 146q0 116 -44 186t-142 70z" />
    <glyph glyph-name="one.numerator" 
d="M641 1462l-186 -878h-39l176 831h-2l-217 -121l-15 31l244 137h39z" />
    <glyph glyph-name="two.numerator" 
d="M678 623l-8 -39h-537l6 34q117 94 187 151.5t144 120.5t113.5 102.5t77 81.5t54 74t26 64.5t9.5 67.5q0 71 -48 114.5t-129 43.5q-62 0 -113 -20t-116 -62l-18 30q128 91 249 91q101 0 157 -54.5t56 -142.5q0 -43 -10 -81t-40.5 -83.5t-68.5 -87.5t-112 -108t-151 -129.5
t-205 -165.5v-2h477z" />
    <glyph glyph-name="three.numerator" 
d="M350 1020l8 39h95q133 0 215 57.5t82 163.5q0 73 -52.5 115.5t-136.5 42.5q-110 0 -215 -54l-10 37q115 56 227 56q105 0 165 -53t60 -144q0 -96 -60.5 -159t-154.5 -83v-2q70 -20 110 -71.5t40 -122.5q0 -131 -93 -202t-237 -71q-68 0 -134.5 17t-111.5 45l19 37
q96 -60 227 -60q77 0 140.5 22.5t107 76.5t43.5 133q0 84 -64 132t-171 48h-99z" />
    <glyph glyph-name="four.numerator" 
d="M760 1462l-127 -602h137l-8 -39h-137l-52 -237h-41l52 237h-424l6 41l541 600h53zM592 860l117 547h-2l-494 -547h379z" />
    <glyph glyph-name="five.numerator" 
d="M389 608q146 0 226.5 72t80.5 201q0 93 -63 142.5t-166 49.5q-77 0 -182 -22l102 411h420l-8 -39h-381l-82 -325q69 14 133 14q121 0 193.5 -60t72.5 -171q0 -148 -94 -230t-254 -82q-58 0 -121 13t-104 36l18 37q35 -20 94.5 -33.5t114.5 -13.5z" />
    <glyph glyph-name="six.numerator" 
d="M657 1438q-82 0 -149.5 -36t-113.5 -99t-76.5 -132.5t-51.5 -152.5h4q92 121 246 121q121 0 180.5 -71t59.5 -171q0 -141 -85 -234.5t-225 -93.5q-116 0 -179.5 74t-63.5 188q0 62 11 130.5t33 142.5t59.5 139.5t86 118.5t117.5 84t149 31q76 0 146 -27l-12 -39
q-65 27 -136 27zM248 897q-6 -27 -6 -66q0 -91 53 -157t154 -66q120 0 194 81t74 204q0 86 -51 146.5t-150 60.5q-105 0 -176.5 -58t-91.5 -145z" />
    <glyph glyph-name="seven.numerator" 
d="M348 1423l8 39h498l-8 -37q-170 -193 -300 -418.5t-190 -422.5h-41q59 200 190.5 429.5t291.5 409.5h-449z" />
    <glyph glyph-name="eight.numerator" 
d="M571 1477q104 0 175 -55t71 -148q0 -55 -20 -98t-54 -69.5t-68 -42.5t-73 -24v-2q68 -24 112 -75.5t44 -126.5q0 -71 -29 -124.5t-77.5 -83.5t-105 -44.5t-118.5 -14.5q-118 0 -196 57.5t-78 161.5q0 107 68 172t173 87v2q-55 23 -88 69t-33 111q0 118 86.5 183t210.5 65
zM494 1024q-76 0 -142 -24t-112.5 -79t-46.5 -133q0 -83 68 -131.5t169 -48.5q54 0 103 12t91.5 37t67.5 69.5t25 104.5q0 85 -66 139t-157 54zM504 1063q49 0 94 10.5t86.5 33.5t66.5 65.5t25 99.5q0 74 -58.5 120t-148.5 46q-114 0 -185 -56.5t-71 -152.5q0 -76 54.5 -121
t136.5 -45z" />
    <glyph glyph-name="nine.numerator" 
d="M344 608q82 0 149.5 36t113.5 99t76.5 132.5t51.5 152.5h-4q-89 -121 -246 -121q-121 0 -180 71t-59 171q0 141 84.5 234.5t224.5 93.5q116 0 180 -74.5t64 -188.5q0 -75 -15 -158.5t-50.5 -171t-86.5 -157t-130.5 -114t-174.5 -44.5q-74 0 -145 27l12 39q65 -27 135 -27
zM754 1149q6 27 6 65q0 58 -21 107.5t-69.5 83t-116.5 33.5q-120 0 -194 -81t-74 -204q0 -86 50.5 -146.5t149.5 -60.5q106 0 177.5 58.5t91.5 144.5z" />
    <glyph glyph-name="acute.cap" horiz-adv-x="962" 
d="M942 1870h53l-268 -275h-41z" />
    <glyph glyph-name="breve.cap" horiz-adv-x="962" 
d="M733 1640q209 0 250 187h35q-19 -98 -92 -161.5t-195 -63.5q-106 0 -163.5 48t-57.5 128q0 17 4 49h35q-2 -16 -2 -43q0 -68 47.5 -106t138.5 -38z" />
    <glyph glyph-name="caron.alt" horiz-adv-x="962" 
d="M791 1573l-148 -336h-31l140 336h39z" />
    <glyph glyph-name="caron.cap" horiz-adv-x="962" 
d="M502 1874h37l178 -264l293 264h45l-320 -299h-43z" />
    <glyph glyph-name="circumflex.cap" horiz-adv-x="962" 
d="M987 1579h-37l-178 264l-293 -264h-45l320 299h43z" />
    <glyph glyph-name="commaaccent.alt" horiz-adv-x="962" 
d="M580 1237l206 336h29l-190 -336h-45z" />
    <glyph glyph-name="dieresis.cap" horiz-adv-x="962" 
d="M561 1774h57l-20 -91h-57zM893 1774h57l-20 -91h-58z" />
    <glyph glyph-name="dotaccent.cap" horiz-adv-x="962" 
d="M725 1769h57l-18 -90h-57z" />
    <glyph glyph-name="grave.cap" horiz-adv-x="962" 
d="M559 1870h49l162 -275h-39z" />
    <glyph glyph-name="hungarumlaut.cap" horiz-adv-x="962" 
d="M838 1870l-238 -281h-39l230 281h47zM1034 1870l-237 -281h-39l229 281h47z" />
    <glyph glyph-name="macron.cap" horiz-adv-x="962" 
d="M987 1743l-8 -39h-477l8 39h477z" />
    <glyph glyph-name="ring.cap" horiz-adv-x="962" 
d="M932 1720q0 -75 -52.5 -127.5t-127.5 -52.5t-128 52.5t-53 127.5t53 128t128 53t127.5 -53t52.5 -128zM893 1720q0 60 -40.5 101t-100.5 41t-101 -41t-41 -101t41 -100.5t101 -40.5t100.5 40.5t40.5 100.5z" />
    <glyph glyph-name="tilde.cap" horiz-adv-x="962" 
d="M877 1638q-27 0 -53.5 11t-43 23.5t-43.5 35.5q-33 29 -45 39t-37 22.5t-47 12.5q-95 0 -127 -144h-37q39 183 164 183q63 0 140 -70q27 -25 42.5 -37t40 -24.5t46.5 -12.5q101 0 133 144h37q-18 -85 -61.5 -134t-108.5 -49z" />
    <glyph glyph-name="colon.cap" horiz-adv-x="612" 
d="M215 190l25 109h67l-24 -109h-68zM422 1161l22 109h68l-23 -109h-67z" />
    <glyph glyph-name="zero.slash" horiz-adv-x="1187" 
d="M791 1487q96 0 166.5 -35t112 -99.5t61.5 -149t20 -191.5q0 -92 -11.5 -189t-36.5 -198.5t-62 -195t-91 -177t-119 -145t-151.5 -97t-183.5 -35.5q-369 0 -369 469q0 108 17.5 224t51.5 234t90 222.5t127 186t168.5 129t209.5 47.5zM786 1448q-123 0 -228 -67.5
t-175.5 -174t-121 -240.5t-73 -266t-22.5 -251q0 -137 31 -222l876 1030q-75 191 -287 191zM1112 1006q0 116 -25 208l-876 -1026q78 -174 285 -174q91 0 172 35t142 94.5t112 140t85.5 170.5t58.5 187t35 188.5t11 176.5z" />
    <glyph glyph-name="registered.alt1" horiz-adv-x="1638" 
d="M1628 731q0 -157 -57.5 -295.5t-156.5 -238t-238 -157.5t-295 -58t-295 58t-238.5 157.5t-157 238t-57.5 295.5q0 209 98 381t269.5 270.5t380.5 98.5q156 0 295 -58t238 -157.5t156.5 -238.5t57.5 -296zM1589 731q0 148 -54.5 280t-148.5 226.5t-225.5 149.5t-279.5 55
q-197 0 -360 -93.5t-256 -256.5t-93 -361t93 -361t256 -256.5t360 -93.5q148 0 279.5 55t225.5 149.5t148.5 226.5t54.5 280zM657 1137v-383h240q268 0 268 198q0 47 -16 81.5t-41 54t-62.5 31t-72 15t-78.5 3.5h-238zM879 715h-222v-424h-39v885h281q49 0 89 -5t81.5 -19.5
t70 -38t46.5 -64.5t18 -95q0 -100 -56.5 -155.5t-141.5 -65.5v-4q55 -19 83.5 -49.5t57.5 -116.5q19 -55 49.5 -146t42.5 -126h-45q-61 194 -84 260q-35 100 -81.5 132t-149.5 32z" />
    <glyph glyph-name="hyphen.cap" horiz-adv-x="722" 
d="M205 737l8 39h420l-8 -39h-420z" />
    <glyph glyph-name="endash.cap" horiz-adv-x="761" 
d="M111 737l8 39h647l-8 -39h-647z" />
    <glyph glyph-name="emdash.cap" horiz-adv-x="1142" 
d="M111 737l8 39h1028l-8 -39h-1028z" />
    <glyph glyph-name="zero.tnum" horiz-adv-x="1187" 
d="M791 1487q96 0 166.5 -35t112 -99.5t61.5 -149t20 -191.5q0 -92 -11.5 -189t-36.5 -198.5t-62 -195t-91 -177t-119 -145t-151.5 -97t-183.5 -35.5q-369 0 -369 469q0 108 17.5 224t51.5 234t90 222.5t127 186t168.5 129t209.5 47.5zM786 1448q-123 0 -228 -67.5
t-175.5 -174t-121 -240.5t-73 -266t-22.5 -251q0 -204 79.5 -319.5t250.5 -115.5q91 0 172 35t142 94.5t112 140t85.5 170.5t58.5 187t35 188.5t11 176.5q0 442 -326 442z" />
    <glyph glyph-name="one.tnum" horiz-adv-x="1187" 
d="M903 1462l-309 -1462h-39l301 1423l-362 -215l-15 35l375 219h49z" />
    <glyph glyph-name="two.tnum" horiz-adv-x="1187" 
d="M934 39l-8 -39h-877l8 39q505 419 646 545q229 205 308 332q72 116 72 249q0 127 -81.5 205t-221.5 78q-207 0 -385 -137l-18 30q182 146 405 146q162 0 251 -88t89 -232q0 -74 -14 -133.5t-65 -136.5t-109 -142.5t-190.5 -184.5t-262.5 -227.5t-368 -303.5h821z" />
    <glyph glyph-name="three.tnum" horiz-adv-x="1187" 
d="M397 737l9 39h147q150 0 264 43t181 133.5t67 218.5q0 130 -90.5 204.5t-235.5 74.5q-188 0 -356 -86l-10 35q172 88 368 88q171 0 267 -84.5t96 -231.5q0 -91 -31.5 -164.5t-88 -123.5t-127 -81.5t-155.5 -45.5v-4q132 -21 211.5 -104t79.5 -212q0 -115 -42 -204.5
t-116 -144.5t-170.5 -83.5t-209.5 -28.5t-220 26.5t-176 70.5l19 37q151 -95 377 -95q78 0 148.5 13.5t135 45.5t112 79t75.5 119t28 161q0 146 -110.5 225.5t-298.5 79.5h-148z" />
    <glyph glyph-name="four.tnum" horiz-adv-x="1187" 
d="M1069 1462l-217 -1020h233l-8 -39h-233l-84 -403h-39l84 403h-711l8 50l904 1009h63zM813 442l209 981h-4l-875 -981h670z" />
    <glyph glyph-name="five.tnum" horiz-adv-x="1187" 
d="M436 14q250 0 389.5 125.5t139.5 349.5q0 161 -112.5 250.5t-287.5 89.5q-144 0 -286 -34l165 667h678l-8 -39h-641l-145 -583q110 28 239 28q123 0 220.5 -41.5t157 -129t59.5 -208.5q0 -244 -155 -379t-415 -135q-94 0 -193.5 21.5t-166.5 56.5l16 37q56 -32 154.5 -54
t191.5 -22z" />
    <glyph glyph-name="six.tnum" horiz-adv-x="1187" 
d="M193 516q-11 -56 -11 -113q0 -55 12.5 -109t41 -105t69.5 -89.5t102.5 -62t135.5 -23.5q138 0 244 65.5t162.5 178.5t56.5 254q0 56 -11.5 108t-38 99.5t-65.5 82.5t-97.5 56t-131.5 21q-182 0 -309 -106t-160 -257zM211 662h4q62 116 180 186t269 70q82 0 148 -23
t109 -61.5t72 -91t41.5 -109t12.5 -117.5q0 -152 -61 -274.5t-177 -194.5t-268 -72q-188 0 -293 121.5t-105 309.5q0 87 14 185t44.5 203t74 204t108 188.5t141.5 156t178.5 105.5t214.5 39q123 0 227 -43l-12 -39q-98 43 -220 43q-121 0 -226 -47.5t-180.5 -124
t-136.5 -181t-98.5 -211t-60.5 -222.5z" />
    <glyph glyph-name="seven.tnum" horiz-adv-x="1187" 
d="M358 1423l9 39h852l-9 -39q-275 -316 -498 -710.5t-327 -712.5h-41q101 319 330.5 721.5t488.5 701.5h-805z" />
    <glyph glyph-name="eight.tnum" horiz-adv-x="1187" 
d="M635 743q-95 0 -184 -24t-165 -71.5t-122.5 -128.5t-46.5 -185q0 -149 115 -234.5t290 -85.5q74 0 143 12t135.5 41t115 72.5t78.5 112t30 154.5q0 100 -57 179t-145 118.5t-187 39.5zM766 1487q170 0 284.5 -89t114.5 -243q0 -81 -27 -147t-67 -108t-95 -72.5t-103 -45
t-99 -22.5v-4q121 -28 206 -122.5t85 -221.5q0 -98 -33 -175.5t-86.5 -125.5t-126 -79.5t-146 -44t-153.5 -12.5q-125 0 -223.5 39t-158.5 121.5t-60 196.5q0 96 36 175t98 132t139.5 85.5t166.5 43.5v4q-105 31 -171 110.5t-66 196.5q0 99 40 178.5t108.5 128.5t154.5 75
t182 26zM647 782q66 0 129.5 11t127.5 39t112 69t78 106t30 146q0 132 -102 213.5t-258 81.5q-198 0 -321.5 -99.5t-123.5 -267.5q0 -135 97 -217t231 -82z" />
    <glyph glyph-name="nine.tnum" horiz-adv-x="1187" 
d="M1094 946q10 51 10 113q0 55 -12.5 109t-41 105t-69.5 89.5t-102.5 62t-135.5 23.5q-138 0 -244 -65.5t-162 -178.5t-56 -254q0 -71 19 -134.5t58.5 -116.5t108 -84t158.5 -31q182 0 309 105.5t160 256.5zM1075 801h-4q-62 -116 -179.5 -186t-268.5 -70
q-102 0 -178.5 34.5t-119.5 93t-64 127t-21 146.5q0 152 60.5 274.5t176.5 194.5t268 72q188 0 293 -121t105 -309q0 -87 -14 -185t-44 -203t-74 -204.5t-108 -188.5t-141 -156t-178.5 -106t-214.5 -39q-124 0 -228 43l13 39q98 -43 219 -43t226 47.5t180.5 124t136.5 181.5
t98.5 211.5t60.5 222.5z" />
    <glyph glyph-name="currency.tnum" horiz-adv-x="1187" 
d="M590 352q-121 0 -197 76l-188 -154l-25 31l187 156q-45 64 -45 153q0 171 120 275l-141 178l33 27l143 -181q94 62 215 62q119 0 197 -78l188 156l25 -31l-187 -156q46 -65 46 -153q0 -173 -123 -275l143 -178l-33 -27l-143 181q-94 -62 -215 -62zM590 391
q144 0 238 90.5t94 233.5q0 94 -65.5 157.5t-164.5 63.5q-144 0 -238 -90.5t-94 -233.5q0 -94 65.5 -157.5t164.5 -63.5z" />
    <glyph glyph-name="Euro.tnum" horiz-adv-x="1187" 
d="M1008 881h-627q-39 -132 -45 -263h569l-16 -38h-555v-25q0 -111 28.5 -206t86 -171.5t154.5 -120t224 -43.5q72 0 148 23v-41q-80 -21 -158 -21q-133 0 -235 46.5t-163.5 127.5t-92.5 183t-31 221v27h-178l16 38h164q6 131 45 263h-160l17 39h155q41 121 108 222.5
t159 179.5t214 121.5t261 43.5q103 0 166 -14l-15 -37q-58 12 -153 12q-250 0 -432 -144.5t-267 -383.5h629z" />
    <glyph glyph-name="cent.tnum" horiz-adv-x="1187" 
d="M881 1229l-27 -123q107 -3 184 -31l-12 -37q-74 26 -180 29l-223 -1053h18q120 0 221 37v-37q-112 -39 -223 -39h-25l-24 -112h-39l24 117q-86 10 -150.5 47.5t-103 97t-57 131t-18.5 156.5q0 181 69.5 336t201 252t298.5 104l27 125h39zM285 412q0 -161 74.5 -269
t224.5 -127l223 1049q-154 -8 -274.5 -101.5t-184 -238.5t-63.5 -313z" />
    <glyph glyph-name="sterling.tnum" horiz-adv-x="1187" 
d="M1155 1442l-14 -37q-85 43 -203 43q-147 0 -242 -91t-129 -255l-69 -326h327l-8 -39h-328l-147 -698h653l-8 -39h-924l9 39h231l148 698h-230l8 39h230l71 334q35 173 139.5 275t272.5 102q131 0 213 -45z" />
    <glyph glyph-name="florin.tnum" horiz-adv-x="1187" 
d="M778 1169l-108 -393h315l-8 -39h-318l-196 -710q-17 -60 -31 -100.5t-37.5 -83.5t-51.5 -68t-69 -41.5t-94 -16.5q-89 0 -168 29l11 39q76 -29 157 -29q56 0 95.5 18t67.5 57.5t45.5 85t37.5 118.5l192 702h-296l8 39h301l110 402q19 69 43.5 122t61 97t87.5 67t116 23
q89 0 170 -31l-13 -35q-76 27 -159 27q-108 0 -170 -72t-99 -207z" />
    <glyph glyph-name="yen.tnum" horiz-adv-x="1187" 
d="M162 354h381l55 262h-381l10 39h363l-262 807h41l258 -800l598 800h47l-604 -807h360l-10 -39h-381l-55 -262h381l-9 -39h-381l-65 -315h-39l66 315h-381z" />
    <glyph glyph-name="dollar.tnum" horiz-adv-x="1187" 
d="M1075 1389l-14 -37q-115 44 -252 47l-137 -641q129 -95 190.5 -181t61.5 -204q0 -168 -111 -260t-299 -95l-37 -178h-39l37 178q-84 3 -182.5 27.5t-155.5 54.5l15 35q69 -33 160 -55t171 -23l146 684q-74 56 -113 89.5t-77 77.5t-53 89.5t-15 102.5q0 82 34 147
t92 104.5t129 61.5t150 25l37 166h39l-35 -166q135 -3 258 -49zM885 371q0 103 -53 180.5t-168 165.5l-142 -660q166 5 264.5 84.5t98.5 229.5zM410 1100q0 -94 53.5 -161.5t175.5 -156.5l129 615q-73 -3 -136.5 -22.5t-113.5 -55t-79 -92t-29 -127.5z" />
    <glyph glyph-name="cyrbreve" horiz-adv-x="962" 
d="M662 1276q-106 0 -164 48t-58 128q0 17 4 49h35q-2 -16 -2 -43q0 -68 48 -105.5t139 -37.5q208 0 249 186h35q-19 -98 -91.5 -161.5t-194.5 -63.5z" />
    <glyph glyph-name="cyrbreve.cap" horiz-adv-x="962" 
d="M731 1602q-106 0 -163.5 48t-57.5 128q0 17 4 49h35q-2 -16 -2 -43q0 -68 47.5 -106t138.5 -38q209 0 250 187h35q-19 -98 -92 -161.5t-195 -63.5z" />
    </font>
</defs>
</svg>
