<?xml version="1.0" standalone="no"?>
<!DOCTYPE svg PUBLIC "-//W3C//DTD SVG 1.1//EN" "http://www.w3.org/Graphics/SVG/1.1/DTD/svg11.dtd" >
<svg xmlns="http://www.w3.org/2000/svg" xmlns:xlink="http://www.w3.org/1999/xlink" version="1.1">
<metadata>
Created by FontForge 20170731 at Wed Aug  4 13:29:02 2021
 By Aleksey,,,
Copyright (c) 2012 Linotype GmbH, www.linotype.com. All rights reserved. This font software may not be reproduced, modified, disclosed or transferred without the express written approval of Linotype GmbH. SST is a trademark of Linotype GmbH and may be registered in certain jurisdictions. This typeface is original artwork of Akira Kobayashi. The design may be protected in certain jurisdictions.
</metadata>
<defs>
<font id="SSTPro-BoldItalic" horiz-adv-x="788" >
  <font-face 
    font-family="SST Pro"
    font-weight="700"
    font-style="italic"
    font-stretch="normal"
    units-per-em="2048"
    panose-1="2 11 8 4 3 5 4 9 2 4"
    ascent="1577"
    descent="-471"
    x-height="1081"
    cap-height="1462"
    bbox="-528 -444 2376 1944"
    underline-thickness="102"
    underline-position="-307"
    slope="-11"
    unicode-range="U+000D-FB04"
  />
<missing-glyph horiz-adv-x="1048" 
d="M639 240h-115v137h115v-137zM625 479h-95l-4 35q0 114 27 166q29 56 94 121q63 60 83 95t20 75q0 73 -46 123.5t-110 50.5q-67 0 -112 -47.5t-56 -147.5l-102 17q13 141 87 210.5t189 69.5q110 0 182 -74t72 -194q0 -69 -27 -123t-102 -123q-77 -68 -88 -106
q-12 -41 -12 -148zM172 102h844v1264h-844v-1264zM70 1470h1048v-1470h-1048v1470z" />
    <glyph glyph-name="IJ" unicode="IJ" horiz-adv-x="1353" 
d="M68 0l309 1462h291l-310 -1462h-290zM1423 1462l-231 -1095q-21 -100 -52 -168t-85 -121t-137.5 -78t-202.5 -25q-101 0 -174 17l51 229q52 -14 123 -14q85 0 128.5 44t65.5 148l224 1063h290z" />
    <glyph glyph-name="ij" unicode="ij" horiz-adv-x="1118" 
d="M281 1081h282l-229 -1081h-283zM365 1499h286l-55 -252h-285zM1118 1081l-237 -1122q-15 -68 -33.5 -118.5t-51 -98t-76.5 -77t-110.5 -47t-152.5 -17.5q-68 0 -140 10l31 211q47 -8 90 -8q74 0 110.5 43.5t55.5 132.5l234 1091h280zM922 1499h286l-55 -252h-285z" />
    <glyph glyph-name="napostrophe" unicode="&#x22;n" horiz-adv-x="1253" 
d="M281 1081h272l-39 -166h4q121 191 346 191q152 0 234 -87t82 -226q0 -61 -21 -168l-131 -625h-283l123 573q25 119 25 170q0 150 -139 150q-105 0 -188.5 -91t-116.5 -249l-117 -553h-281zM477 1573l-141 -336h-162l102 336h201z" />
    <glyph glyph-name="f_f" unicode="ff" horiz-adv-x="1333" 
d="M1229 1081h229l-45 -211h-221l-184 -870h-279l182 870h-360l-184 -870h-279l182 870h-180l45 211h176l15 70q13 65 30.5 113t50 96t77.5 78t114.5 48.5t159.5 18.5q87 0 172 -18l-45 -209q-53 12 -113 12q-81 0 -120.5 -38.5t-53.5 -116.5l-10 -54h364l15 70
q13 65 30.5 113t50 96t77.5 78t114.5 48.5t159.5 18.5q87 0 172 -18l-45 -209q-53 12 -113 12q-81 0 -120.5 -38.5t-53.5 -116.5z" />
    <glyph glyph-name="fi" unicode="fi" horiz-adv-x="1234" 
d="M1249 1479l-49 -213q-44 8 -133 16t-162 8q-153 0 -223 -41.5t-88 -134.5l-6 -33h645l-229 -1081h-281l184 870h-356l-184 -870h-279l182 870h-180l45 211h176l11 52q18 91 55.5 156.5t104 115.5t170.5 75t247 25q186 0 350 -26z" />
    <glyph glyph-name="fl" unicode="fl" horiz-adv-x="1234" 
d="M311 1081l11 52q18 91 55.5 156.5t104 115.5t170.5 75t247 25q214 0 416 -37l-311 -1468h-281l272 1286q-50 4 -98 4q-146 0 -216 -41.5t-87 -134.5l-6 -33h229l-45 -211h-221l-184 -870h-279l182 870h-180l45 211h176z" />
    <glyph glyph-name="f_f_i" unicode="ffi" horiz-adv-x="1875" 
d="M1890 1479l-49 -213q-44 8 -134 16t-163 8q-153 0 -222 -41.5t-87 -134.5l-6 -33h645l-229 -1081h-281l184 870h-356l-184 -870h-279l182 870h-360l-184 -870h-279l182 870h-180l45 211h176l15 72q14 65 31.5 113t50 95.5t77 77t114 48t159.5 18.5q87 0 172 -18l-45 -209
q-53 12 -113 12q-81 0 -120.5 -38.5t-53.5 -116.5l-10 -54h364l11 52q18 91 55.5 156.5t104 115.5t170.5 75t247 25q186 0 350 -26z" />
    <glyph glyph-name="f_f_l" unicode="ffl" horiz-adv-x="1875" 
d="M952 1081l11 52q18 90 55 155.5t103.5 115.5t171 75.5t247.5 25.5q214 0 416 -37l-311 -1468h-281l272 1286q-58 4 -98 4q-147 0 -216 -41.5t-87 -134.5l-6 -33h229l-45 -211h-221l-184 -870h-279l182 870h-360l-184 -870h-279l182 870h-180l45 211h176l15 70
q13 65 30.5 113t50 96t77.5 78t114.5 48.5t159.5 18.5q87 0 172 -18l-45 -209q-53 12 -113 12q-81 0 -120.5 -38.5t-53.5 -116.5l-10 -54h364z" />
    <glyph glyph-name=".notdef" horiz-adv-x="1048" 
d="M639 240h-115v137h115v-137zM625 479h-95l-4 35q0 114 27 166q29 56 94 121q63 60 83 95t20 75q0 73 -46 123.5t-110 50.5q-67 0 -112 -47.5t-56 -147.5l-102 17q13 141 87 210.5t189 69.5q110 0 182 -74t72 -194q0 -69 -27 -123t-102 -123q-77 -68 -88 -106
q-12 -41 -12 -148zM172 102h844v1264h-844v-1264zM70 1470h1048v-1470h-1048v1470z" />
    <glyph glyph-name=".null" horiz-adv-x="0" 
 />
    <glyph glyph-name="nonmarkingreturn" horiz-adv-x="682" 
 />
    <glyph glyph-name="CR" unicode="&#xd;" horiz-adv-x="0" 
 />
    <glyph glyph-name="space" unicode=" " horiz-adv-x="532" 
 />
    <glyph glyph-name="exclam" unicode="!" horiz-adv-x="649" 
d="M713 1462l-248 -954h-250l170 954h328zM86 0l64 309h305l-66 -309h-303z" />
    <glyph glyph-name="quotedbl" unicode="&#x22;" horiz-adv-x="919" 
d="M305 1006l57 501h277l-158 -501h-176zM686 1006l59 501h275l-158 -501h-176z" />
    <glyph glyph-name="numbersign" unicode="#" horiz-adv-x="1239" 
d="M334 0h-223l135 387h-187l43 205h215l101 282h-219l43 203h245l136 385h223l-135 -385h215l133 385h223l-133 -385h168l-43 -203h-197l-98 -282h192l-43 -205h-221l-135 -387h-223l135 387h-215zM639 874l-98 -282h215l100 282h-217z" />
    <glyph glyph-name="dollar" unicode="$" horiz-adv-x="1153" 
d="M514 -160h-141l37 172q-179 14 -330 74l72 223q152 -68 303 -80l92 422q-143 92 -207 183.5t-64 209.5q0 97 37.5 174t102 125.5t145.5 75t174 31.5l33 154h143l-32 -158q142 -11 258 -57l-66 -218q-129 51 -240 58l-83 -393q148 -104 212 -194.5t64 -207.5
q0 -193 -130.5 -303t-342.5 -121zM754 408q0 38 -16.5 73.5t-67.5 81.5l-72 -325q156 33 156 170zM541 1065q0 -37 17 -69.5t67 -73.5l63 303q-147 -28 -147 -160z" />
    <glyph glyph-name="percent" unicode="%" horiz-adv-x="1732" 
d="M475 664q-121 0 -189.5 76t-68.5 206q0 97 23.5 186.5t69 165.5t123.5 122t177 46q122 0 190 -76t68 -206q0 -97 -23.5 -187t-69 -166t-123.5 -121.5t-177 -45.5zM498 846q40 0 71.5 36.5t48.5 90t26 105.5t9 93q0 55 -14.5 83t-52.5 28q-39 0 -70.5 -37.5t-48.5 -92
t-26 -106t-9 -90.5q0 -110 66 -110zM1255 0q-122 0 -190 76t-68 205q0 77 14 150t45 141t75.5 118.5t111 80.5t146.5 30q122 0 190 -76.5t68 -206.5q0 -77 -14 -150t-45 -140t-76 -117.5t-111 -80.5t-146 -30zM1278 180q39 0 70.5 36.5t48.5 90.5t26 106t9 93q0 55 -15 83.5
t-53 28.5q-39 0 -70.5 -37t-48.5 -91.5t-26 -106t-9 -90.5q0 -113 68 -113zM1620 1462l-1163 -1462h-215l1165 1462h213z" />
    <glyph glyph-name="ampersand" unicode="&#x26;" horiz-adv-x="1449" 
d="M700 918q48 17 85 35t73.5 45.5t56 65.5t19.5 85q0 56 -34 91.5t-95 35.5q-81 0 -126.5 -53.5t-45.5 -132.5q0 -82 67 -172zM791 332l-213 311q-101 -39 -153 -98.5t-52 -153.5q0 -78 48 -125t126 -47q146 0 244 113zM1137 334l229 -334h-346l-96 141
q-170 -164 -426 -164q-182 0 -296 102.5t-114 272.5q0 90 27 163.5t79 129t116.5 96t150.5 74.5q-92 131 -92 258q0 89 27 161t71.5 118.5t104.5 77.5t123 44t130 13q161 0 268 -84.5t107 -235.5q0 -148 -94 -244t-285 -173l154 -222q32 39 74.5 111t74.5 137h310
q-174 -299 -297 -442z" />
    <glyph glyph-name="quotesingle" unicode="'" horiz-adv-x="538" 
d="M303 1006l59 501h275l-158 -501h-176z" />
    <glyph glyph-name="parenleft" unicode="(" horiz-adv-x="681" 
d="M854 1632q-244 -307 -385 -679t-141 -754q0 -335 106 -598h-241q-51 124 -84 281.5t-33 316.5q0 406 140.5 781.5t371.5 651.5h266z" />
    <glyph glyph-name="parenright" unicode=")" horiz-adv-x="681" 
d="M-84 -399q243 307 383.5 678.5t140.5 754.5q0 332 -104 598h239q51 -124 84 -281.5t33 -316.5q0 -406 -140.5 -781.5t-371.5 -651.5h-264z" />
    <glyph glyph-name="asterisk" unicode="*" horiz-adv-x="909" 
d="M690 1462v-241l223 84l68 -179l-227 -75l147 -213l-158 -105l-149 219l-150 -219l-155 105l147 213l-227 75l67 179l224 -84v241h190z" />
    <glyph glyph-name="plus" unicode="+" horiz-adv-x="1132" 
d="M508 141v400h-387v204h387v390h213v-390h387v-204h-387v-400h-213z" />
    <glyph glyph-name="comma" unicode="," horiz-adv-x="624" 
d="M-18 -262l206 581h291l-305 -581h-192z" />
    <glyph glyph-name="hyphen" unicode="-" horiz-adv-x="811" 
d="M147 500l50 231h530l-51 -231h-529z" />
    <glyph glyph-name="period" unicode="." horiz-adv-x="624" 
d="M74 0l67 322h316l-70 -322h-313z" />
    <glyph glyph-name="slash" unicode="/" horiz-adv-x="991" 
d="M-47 0l969 1462h245l-970 -1462h-244z" />
    <glyph glyph-name="zero" unicode="0" horiz-adv-x="1292" 
d="M831 1487q224 0 334.5 -131.5t110.5 -366.5q0 -92 -11.5 -187t-37.5 -195t-63.5 -191t-94.5 -172t-126.5 -140.5t-163 -94t-199.5 -34.5q-224 0 -337.5 134.5t-113.5 365.5q0 90 11.5 184t37.5 194t64.5 191t96 172.5t127.5 141t164 94.5t201 35zM805 1255
q-75 0 -139.5 -54t-108.5 -139t-76 -190.5t-46.5 -209t-14.5 -193.5q0 -262 180 -262q76 0 141 55t109 141t75 192.5t45.5 207t14.5 186.5q0 266 -180 266z" />
    <glyph glyph-name="one" unicode="1" horiz-adv-x="913" 
d="M909 1462l-309 -1462h-291l250 1178l-307 -160l-62 225l420 219h299z" />
    <glyph glyph-name="two" unicode="2" horiz-adv-x="1140" 
d="M1018 231l-47 -231h-973l49 238q333 241 506.5 389t242 248.5t68.5 197.5q0 86 -56 130t-149 44q-158 0 -321 -78l-49 215q195 103 413 103q212 0 333.5 -99.5t121.5 -283.5q0 -52 -10 -100.5t-26.5 -92.5t-48 -91t-64 -87.5t-85 -89.5t-101 -90.5t-122.5 -97.5
t-138.5 -103t-158.5 -114v-7h615z" />
    <glyph glyph-name="three" unicode="3" horiz-adv-x="1142" 
d="M309 633l51 231h129q72 0 132.5 11t113.5 36t83 72.5t30 112.5q0 79 -56.5 119t-150.5 40q-153 0 -309 -61l-27 223q173 70 389 70q92 0 170.5 -21t141 -63t98 -111.5t35.5 -158.5q0 -291 -320 -381v-4q105 -30 162 -109t57 -184q0 -121 -48 -215t-132 -151t-189.5 -85.5
t-228.5 -28.5q-236 0 -426 91l84 221q168 -80 334 -80q64 0 118.5 12.5t100 39t71.5 73t26 108.5q0 68 -44.5 113t-112 62.5t-157.5 17.5h-125z" />
    <glyph glyph-name="four" unicode="4" horiz-adv-x="1224" 
d="M1217 1462l-195 -921h162l-49 -234h-162l-66 -307h-286l65 307h-663l59 287l721 868h414zM735 541l144 669h-5l-542 -669h403z" />
    <glyph glyph-name="five" unicode="5" horiz-adv-x="1148" 
d="M444 215q68 0 125.5 14.5t105 44t74.5 81t27 120.5q0 61 -25 105t-70 68.5t-99.5 36t-122.5 11.5q-106 0 -264 -24l211 790h784l-49 -231h-527l-92 -326q59 6 111 6q192 0 314 -103t122 -296q0 -172 -79.5 -294.5t-215.5 -182.5t-313 -60q-250 0 -436 88l79 230
q70 -35 161.5 -56.5t178.5 -21.5z" />
    <glyph glyph-name="six" unicode="6" horiz-adv-x="1234" 
d="M940 1253q-171 0 -289 -111t-176 -292h4q60 60 141 90.5t162 30.5q192 0 296 -111.5t104 -277.5q0 -124 -40 -234t-113 -193t-185.5 -131.5t-249.5 -48.5q-101 0 -182 28.5t-133 75.5t-87 111.5t-50 133t-15 143.5q0 112 21.5 228t63.5 231t110 215.5t155 178t206 122.5
t255 45q144 0 266 -37l-65 -225q-83 28 -199 28zM702 754q-124 0 -209 -88.5t-85 -221.5q0 -46 10 -86t32 -75t63 -55.5t97 -20.5q92 0 159 50t97.5 126.5t30.5 167.5q0 85 -50 144t-145 59z" />
    <glyph glyph-name="seven" unicode="7" horiz-adv-x="1071" 
d="M231 1231l52 231h954l-51 -239q-251 -288 -427 -606.5t-263 -616.5h-289q87 293 273 634.5t405 596.5h-654z" />
    <glyph glyph-name="eight" unicode="8" horiz-adv-x="1247" 
d="M647 641q-48 0 -96.5 -15.5t-90.5 -44.5t-68.5 -76.5t-26.5 -105.5q0 -94 66.5 -145t166.5 -51q121 0 204 58.5t83 166.5q0 97 -74.5 155t-163.5 58zM801 1487q197 0 326.5 -96.5t129.5 -268.5q0 -282 -290 -374v-5q89 -40 148 -117t59 -188q0 -114 -48.5 -204
t-132 -145.5t-190.5 -84.5t-230 -29q-139 0 -249.5 42.5t-179 132.5t-68.5 215q0 82 28.5 151t78.5 117t108.5 80.5t126.5 50.5v4q-77 39 -122.5 111t-45.5 161q0 142 78.5 245.5t201.5 152.5t271 49zM727 862q58 0 115 23.5t99 77t42 124.5q0 84 -58 131.5t-149 47.5
q-107 0 -179.5 -57t-72.5 -160q0 -86 60.5 -136.5t142.5 -50.5z" />
    <glyph glyph-name="nine" unicode="9" horiz-adv-x="1234" 
d="M414 207q90 0 165.5 30.5t132 86.5t97 127t68.5 159h-5q-60 -60 -141 -90.5t-162 -30.5q-191 0 -295 113.5t-104 280.5q0 124 39.5 233.5t112.5 192t185.5 130.5t250.5 48q101 0 182 -28.5t133 -76t87 -112t50 -133.5t15 -144q0 -95 -14 -193t-45 -198.5t-76.5 -191.5
t-112 -171t-147 -138.5t-187 -92t-227.5 -33.5q-136 0 -266 35l65 226q83 -29 199 -29zM651 707q125 0 209 88.5t84 220.5q0 46 -10 86t-32.5 75t-64 55.5t-98.5 20.5q-91 0 -157 -50.5t-96.5 -126t-30.5 -163.5q0 -86 50 -146t146 -60z" />
    <glyph glyph-name="colon" unicode=":" horiz-adv-x="739" 
d="M131 0l68 322h315l-68 -322h-315zM291 760l69 321h316l-72 -321h-313z" />
    <glyph glyph-name="semicolon" unicode=";" horiz-adv-x="739" 
d="M291 760l69 321h316l-72 -321h-313zM8 -262l209 581h291l-305 -581h-195z" />
    <glyph glyph-name="less" unicode="&#x3c;" horiz-adv-x="1132" 
d="M1110 887l-776 -250v-4l776 -258v-215l-989 325v291l989 326v-215z" />
    <glyph glyph-name="equal" unicode="=" horiz-adv-x="1132" 
d="M121 748v204h987v-204h-987zM121 334v205h987v-205h-987z" />
    <glyph glyph-name="greater" unicode="&#x3e;" horiz-adv-x="1132" 
d="M121 375l774 252v4l-774 256v215l989 -326v-291l-989 -325v215z" />
    <glyph glyph-name="question" unicode="?" horiz-adv-x="991" 
d="M625 1247q-141 0 -295 -57l-33 229q174 68 373 68q90 0 165.5 -21t134.5 -62.5t92.5 -111t33.5 -159.5q0 -136 -66.5 -229.5t-193.5 -172.5l-86 -53q-94 -59 -133.5 -99t-51.5 -94l-6 -28h-258l4 26q19 116 66.5 188.5t150.5 139.5l154 100q70 46 101.5 91t31.5 108
q0 70 -51.5 103.5t-132.5 33.5zM186 0l66 307h309l-63 -307h-312z" />
    <glyph glyph-name="at" unicode="@" horiz-adv-x="1974" 
d="M1102 874q-62 0 -119.5 -51t-95 -126.5t-60 -156.5t-22.5 -145q0 -141 94 -141q55 0 107 43t88 106t63.5 134.5t41 129.5t13.5 89q0 118 -110 118zM1440 -102l8 -191q-226 -86 -483 -86q-203 0 -366.5 60t-269.5 165t-163 246t-57 305q0 236 78 439.5t216.5 348
t337.5 226.5t433 82q223 0 394.5 -81.5t270 -240t98.5 -372.5q0 -207 -74 -377.5t-211.5 -270.5t-312.5 -100q-102 0 -157.5 42t-55.5 114q0 19 2 31h-4q-42 -77 -126 -132t-177 -55q-71 0 -124 26.5t-83 73.5t-44.5 102t-14.5 120q0 94 24.5 192t72 187.5t111.5 160.5
t150.5 113.5t180.5 42.5q88 0 146 -37.5t79 -99.5h4l33 86h221l-188 -477q-72 -179 -72 -230q0 -65 69 -65q70 0 133 50t104.5 128t66 172t24.5 184q0 240 -149.5 377t-413.5 137q-183 0 -336.5 -70.5t-255.5 -191.5t-158.5 -284t-56.5 -347q0 -261 170.5 -421t464.5 -160
q245 0 461 78z" />
    <glyph glyph-name="A" unicode="A" horiz-adv-x="1431" 
d="M442 360l-206 -360h-320l862 1462h377l170 -1462h-303l-37 360h-543zM920 1233l-357 -639h408z" />
    <glyph glyph-name="B" unicode="B" horiz-adv-x="1320" 
d="M68 0l309 1462h526q88 0 162.5 -19t133.5 -56.5t92.5 -101.5t33.5 -148q0 -157 -80.5 -249.5t-212.5 -131.5v-4q92 -30 149.5 -104t57.5 -185q0 -92 -35 -174t-101.5 -147t-173.5 -103.5t-241 -38.5h-620zM618 1231l-75 -367h198q135 0 214 52t79 165q0 42 -18 72.5
t-49.5 46.5t-67 23.5t-78.5 7.5h-203zM492 633l-84 -402h241q62 0 112.5 11.5t93 37t66 71t23.5 108.5q0 87 -65.5 130.5t-176.5 43.5h-210z" />
    <glyph glyph-name="C" unicode="C" horiz-adv-x="1196" 
d="M1294 1442l-71 -230q-100 41 -234 41q-103 0 -192.5 -36.5t-153.5 -100t-110 -146.5t-68.5 -177.5t-22.5 -192.5q0 -83 21 -152.5t64 -124t115.5 -85.5t168.5 -31q142 0 248 33l-6 -226q-139 -39 -295 -39q-155 0 -273 46t-189.5 129.5t-107.5 191.5t-36 238
q0 184 58.5 348t164 288.5t265.5 197.5t351 73q180 0 303 -45z" />
    <glyph glyph-name="D" unicode="D" horiz-adv-x="1476" 
d="M68 0l309 1462h442q310 0 467.5 -151t157.5 -430q0 -140 -33 -267.5t-103.5 -240t-172 -195t-248.5 -130.5t-324 -48h-495zM618 1231l-210 -1000h167q114 0 209 33t162 91.5t114 138.5t69 173.5t22 196.5q0 178 -90.5 272.5t-302.5 94.5h-140z" />
    <glyph glyph-name="E" unicode="E" horiz-adv-x="1116" 
d="M68 0l309 1462h815l-49 -231h-525l-77 -367h495l-49 -231h-498l-83 -402h579l-49 -231h-868z" />
    <glyph glyph-name="F" unicode="F" horiz-adv-x="1062" 
d="M68 0l309 1462h829l-49 -231h-539l-75 -367h497l-49 -231h-499l-134 -633h-290z" />
    <glyph glyph-name="G" unicode="G" horiz-adv-x="1445" 
d="M1401 1425l-90 -233q-54 28 -135.5 44.5t-163.5 16.5q-176 0 -307 -88t-197 -234t-66 -327q0 -174 99.5 -285.5t294.5 -111.5q83 0 147 20l82 389h-244l49 232h531l-172 -805q-174 -68 -426 -68q-165 0 -291.5 46.5t-204 129.5t-116.5 191.5t-39 237.5q0 150 35.5 285
t107.5 248.5t175 197t245.5 130t310.5 46.5q219 0 375 -62z" />
    <glyph glyph-name="H" unicode="H" horiz-adv-x="1449" 
d="M68 0l309 1462h291l-125 -598h549l125 598h288l-309 -1462h-289l133 633h-548l-134 -633h-290z" />
    <glyph glyph-name="I" unicode="I" horiz-adv-x="612" 
d="M68 0l309 1462h291l-310 -1462h-290z" />
    <glyph glyph-name="J" unicode="J" horiz-adv-x="763" 
d="M834 1462l-232 -1095q-21 -100 -52 -168t-85 -121t-137.5 -78t-202.5 -25q-101 0 -174 17l51 229q52 -14 123 -14q85 0 128.5 44t65.5 148l224 1063h291z" />
    <glyph glyph-name="K" unicode="K" horiz-adv-x="1298" 
d="M1116 1462h359l-652 -721l394 -741h-336l-365 727h-4l-154 -727h-290l309 1462h291l-146 -686h4z" />
    <glyph glyph-name="L" unicode="L" horiz-adv-x="1032" 
d="M68 0l309 1462h291l-260 -1231h550l-49 -231h-841z" />
    <glyph glyph-name="M" unicode="M" horiz-adv-x="1890" 
d="M872 1462l31 -1177h6l531 1177h506l-310 -1462h-282l258 1212h-4l-574 -1212h-375l-57 1212h-4l-258 -1212h-272l309 1462h495z" />
    <glyph glyph-name="N" unicode="N" horiz-adv-x="1488" 
d="M834 1462l182 -1167h4l246 1167h280l-309 -1462h-440l-195 1184h-4l-250 -1184h-280l309 1462h457z" />
    <glyph glyph-name="O" unicode="O" horiz-adv-x="1548" 
d="M1520 926q0 -94 -14 -187.5t-45 -188t-76 -178.5t-110.5 -157t-145.5 -126t-185.5 -83.5t-224.5 -30.5q-147 0 -257.5 42.5t-177 119.5t-99.5 178.5t-33 225.5q0 150 32.5 289t99 258.5t160 208.5t224.5 139.5t284 50.5q142 0 251.5 -42t178 -117.5t103.5 -177t35 -224.5
zM748 211q96 0 177.5 44t136 115.5t92.5 163t55.5 184.5t17.5 183q0 159 -74.5 254.5t-230.5 95.5q-110 0 -202 -59.5t-151.5 -157.5t-92 -220t-32.5 -251q0 -159 75 -255.5t229 -96.5z" />
    <glyph glyph-name="P" unicode="P" horiz-adv-x="1290" 
d="M68 0l309 1462h493q203 0 330 -99.5t127 -291.5q0 -256 -165 -393t-449 -137h-240l-115 -541h-290zM618 1231l-96 -459h215q131 0 215 65.5t84 204.5q0 94 -62 141.5t-171 47.5h-185z" />
    <glyph glyph-name="Q" unicode="Q" horiz-adv-x="1548" 
d="M1520 926q0 -122 -24.5 -243t-74 -235.5t-131.5 -213t-188 -160.5l205 -314h-324l-139 230q-69 -15 -129 -15q-145 0 -255 42.5t-176 119.5t-99 178.5t-33 225.5q0 150 32.5 289t99 258.5t160 208.5t224.5 139.5t284 50.5q142 0 251.5 -42t178 -117.5t103.5 -177
t35 -224.5zM748 211q96 0 177.5 44t136 115.5t92.5 163t55.5 184.5t17.5 183q0 159 -74.5 254.5t-230.5 95.5q-110 0 -202 -59.5t-151.5 -157.5t-92 -220t-32.5 -251q0 -159 75 -255.5t229 -96.5z" />
    <glyph glyph-name="R" unicode="R" horiz-adv-x="1343" 
d="M68 0l309 1462h528q73 0 136.5 -11t120.5 -37.5t97 -66.5t63.5 -101t23.5 -138q0 -162 -86 -260.5t-230 -138.5v-4q53 -23 83 -69t46 -144q74 -438 84 -492h-305q-2 12 -26 178.5t-35 233.5q-19 114 -67 150t-179 36h-148l-125 -598h-290zM618 1231l-83 -404h190
q70 0 126 12.5t101 39t70 73t25 109.5q0 170 -244 170h-185z" />
    <glyph glyph-name="S" unicode="S" horiz-adv-x="1095" 
d="M1126 1419l-67 -229q-148 65 -314 65q-41 0 -78 -8t-71.5 -25.5t-55 -51.5t-20.5 -80q0 -65 40 -112.5t151 -119.5q78 -51 128.5 -93t93 -94t62 -112.5t19.5 -134.5q0 -117 -46.5 -206t-125 -140.5t-172 -77t-197.5 -25.5q-231 0 -442 80l75 236q198 -84 367 -84
q117 0 183.5 47t66.5 137q0 70 -45 123.5t-164 128.5q-152 97 -217.5 189t-65.5 225q0 89 30.5 163t81 122.5t117.5 82t138 48t145 14.5q225 0 383 -68z" />
    <glyph glyph-name="T" unicode="T" horiz-adv-x="1087" 
d="M301 0l260 1231h-381l51 231h1039l-51 -231h-369l-258 -1231h-291z" />
    <glyph glyph-name="U" unicode="U" horiz-adv-x="1415" 
d="M1489 1462l-219 -1030q-97 -457 -623 -457q-113 0 -205 21t-162.5 64t-109.5 114.5t-39 165.5q0 68 14 133l211 989h291l-201 -952q-16 -74 -16 -115q0 -97 63 -142.5t173 -45.5q145 0 220 63.5t103 198.5l211 993h289z" />
    <glyph glyph-name="V" unicode="V" horiz-adv-x="1320" 
d="M326 0l-93 1462h306l34 -1175h5l639 1175h327l-842 -1462h-376z" />
    <glyph glyph-name="W" unicode="W" horiz-adv-x="1994" 
d="M1096 0l61 1190h-4l-471 -1190h-418l10 1462h314l-51 -1196h4l450 1196h441l-80 -1196h4l477 1196h319l-634 -1462h-422z" />
    <glyph glyph-name="X" unicode="X" horiz-adv-x="1304" 
d="M1155 1462h354l-587 -706l286 -756h-323l-191 547l-440 -547h-360l634 762l-268 700h322l176 -501z" />
    <glyph glyph-name="Y" unicode="Y" horiz-adv-x="1247" 
d="M373 0l116 557l-301 905h318l176 -626l465 626h344l-711 -905l-116 -557h-291z" />
    <glyph glyph-name="Z" unicode="Z" horiz-adv-x="1224" 
d="M35 233l893 998h-639l51 231h989l-51 -231l-883 -1000h719l-49 -231h-1077z" />
    <glyph glyph-name="bracketleft" unicode="[" horiz-adv-x="681" 
d="M815 1632l-43 -200h-207l-346 -1629h215l-43 -202h-450l432 2031h442z" />
    <glyph glyph-name="backslash" unicode="\" horiz-adv-x="991" 
d="M428 1462l492 -1462h-226l-489 1462h223z" />
    <glyph glyph-name="bracketright" unicode="]" horiz-adv-x="681" 
d="M-61 -399l41 200h221l346 1629h-230l43 202h463l-432 -2031h-452z" />
    <glyph glyph-name="asciicircum" unicode="^" horiz-adv-x="1132" 
d="M614 1231l-208 -617h-236l313 822h271l311 -822h-236l-211 617h-4z" />
    <glyph glyph-name="underscore" unicode="_" horiz-adv-x="999" 
d="M-119 -166h1000l-33 -153h-998z" />
    <glyph glyph-name="grave" unicode="`" horiz-adv-x="944" 
d="M586 1237l-248 336h287l161 -336h-200z" />
    <glyph glyph-name="a" unicode="a" horiz-adv-x="1163" 
d="M797 680q10 39 10 65q0 148 -215 148q-126 0 -277 -47l-8 203q178 57 348 57q432 0 432 -328q0 -60 -16 -129l-88 -403q-35 -175 -35 -246h-239q-4 16 -4 41q0 43 6 92h-4q-109 -158 -324 -158q-134 0 -225.5 80t-91.5 228q0 65 16 118t48 92t72 69t95.5 50t110 33.5
t124.5 20.5t130 10t135 4zM760 500h-41q-85 0 -150 -8.5t-120.5 -29.5t-85 -60.5t-29.5 -96.5q0 -61 35 -96t96 -35q60 0 110 21.5t83 58t54 79t31 91.5z" />
    <glyph glyph-name="b" unicode="b" horiz-adv-x="1259" 
d="M350 117l-24 -117h-275l320 1505h282l-118 -557h4q49 70 128 114t177 44q75 0 135.5 -24t100.5 -64.5t67 -96.5t39 -117t12 -128q0 -186 -66 -344.5t-194.5 -257.5t-292.5 -99q-103 0 -177 38t-114 104h-4zM614 188q76 0 137.5 43.5t98 113t55.5 147t19 153.5
q0 109 -45.5 178.5t-141.5 69.5t-170.5 -69.5t-111.5 -175t-37 -224.5q0 -108 48.5 -172t147.5 -64z" />
    <glyph glyph-name="c" unicode="c" horiz-adv-x="919" 
d="M956 1077l-63 -209q-67 25 -145 25q-84 0 -154 -38.5t-114.5 -102t-68.5 -142.5t-24 -164q0 -53 12 -97t38.5 -81.5t74 -58.5t113.5 -21q89 0 168 27v-209q-115 -31 -215 -31q-120 0 -211.5 36t-145.5 99t-81 142.5t-27 173.5q0 138 43.5 261t123.5 216.5t203 148
t273 54.5q121 0 200 -29z" />
    <glyph glyph-name="d" unicode="d" horiz-adv-x="1259" 
d="M952 963l117 542h281l-322 -1505h-262l29 131h-4q-48 -70 -128.5 -113t-179.5 -43q-79 0 -142.5 24t-105.5 64.5t-70 96.5t-40 117.5t-12 130.5q0 139 39.5 265.5t110 222.5t175.5 153t228 57q197 0 282 -143h4zM698 893q-61 0 -113.5 -29t-88 -76t-61 -107.5t-37 -122.5
t-11.5 -122q0 -108 46 -178t140 -70q96 0 171 70t112 175.5t37 223.5q0 107 -48.5 171.5t-146.5 64.5z" />
    <glyph glyph-name="e" unicode="e" horiz-adv-x="1163" 
d="M1075 455h-692q-2 -16 -2 -41q0 -115 75 -170.5t212 -55.5q140 0 252 33l-9 -207q-140 -39 -299 -39q-246 0 -372.5 123.5t-126.5 337.5q0 104 25 202t75 182.5t119.5 148.5t165 100.5t204.5 36.5q204 0 309 -101t105 -292q0 -111 -41 -258zM690 911q-102 0 -175.5 -71.5
t-102.5 -182.5h444q8 33 8 72q0 182 -174 182z" />
    <glyph glyph-name="f" unicode="f" horiz-adv-x="692" 
d="M930 1487l-45 -209q-53 12 -113 12q-81 0 -120.5 -38.5t-53.5 -116.5l-10 -54h229l-45 -211h-221l-184 -870h-279l182 870h-180l45 211h176l15 70q13 65 30.5 113t50 96t77.5 78t114.5 48.5t159.5 18.5q87 0 172 -18z" />
    <glyph glyph-name="g" unicode="g" horiz-adv-x="1259" 
d="M696 893q-75 0 -136 -40t-97.5 -104t-56 -136t-19.5 -142q0 -105 44.5 -170t141.5 -65q94 0 168 61.5t112 157t38 204.5q0 108 -48.5 171t-146.5 63zM766 82l18 80h-4q-111 -133 -297 -133t-278 111.5t-92 293.5q0 185 69.5 338t198.5 243.5t291 90.5q92 0 163 -37
t111 -106h4l27 118h280l-200 -952q-32 -149 -87 -252t-136.5 -163.5t-181.5 -86.5t-234 -26q-78 0 -170.5 12.5t-157.5 32.5l55 215q140 -43 279 -43q156 0 232.5 61.5t109.5 202.5z" />
    <glyph glyph-name="h" unicode="h" horiz-adv-x="1255" 
d="M371 1505h280l-129 -587h4q55 89 143 138.5t197 49.5q151 0 232.5 -88.5t81.5 -222.5q0 -74 -17 -148l-135 -647h-283l123 573q25 113 25 166q0 154 -143 154q-102 0 -184.5 -89t-116.5 -251l-115 -553h-283z" />
    <glyph glyph-name="i" unicode="i" horiz-adv-x="563" 
d="M281 1081h282l-229 -1081h-283zM365 1499h286l-55 -252h-285z" />
    <glyph glyph-name="j" unicode="j" horiz-adv-x="563" 
d="M563 1081l-237 -1122q-15 -68 -33.5 -118.5t-51 -98t-76.5 -77t-110.5 -47t-152.5 -17.5q-68 0 -140 10l31 211q47 -8 90 -8q74 0 110.5 43.5t55.5 132.5l234 1091h280zM367 1499h286l-55 -252h-285z" />
    <glyph glyph-name="k" unicode="k" horiz-adv-x="1112" 
d="M899 1081h332l-490 -503l310 -578h-314l-282 569h-4l-119 -569h-281l320 1505h280l-190 -891h4z" />
    <glyph glyph-name="l" unicode="l" horiz-adv-x="563" 
d="M371 1505h280l-319 -1505h-281z" />
    <glyph glyph-name="m" unicode="m" horiz-adv-x="1910" 
d="M281 1081h272l-39 -168h4q119 193 338 193q116 0 187.5 -53.5t89.5 -145.5q143 199 383 199q158 0 239.5 -89.5t81.5 -228.5q0 -58 -18 -155l-133 -633h-283l123 573q24 113 24 166q0 154 -141 154q-90 0 -164 -63.5t-100 -186.5l-135 -643h-281l115 543q30 159 30 194
t-5 60.5t-18.5 48.5t-41 35t-68.5 12q-99 0 -178 -88t-112 -246l-119 -559h-281z" />
    <glyph glyph-name="n" unicode="n" horiz-adv-x="1253" 
d="M281 1081h272l-39 -166h4q121 191 346 191q152 0 234 -87t82 -226q0 -61 -21 -168l-131 -625h-283l123 573q25 119 25 170q0 150 -139 150q-105 0 -188.5 -91t-116.5 -249l-117 -553h-281z" />
    <glyph glyph-name="o" unicode="o" horiz-adv-x="1241" 
d="M1171 686q0 -95 -21.5 -191.5t-69 -190.5t-116 -166.5t-171 -117.5t-224.5 -45q-228 0 -342 116t-114 312q0 143 43.5 271t121.5 224t194.5 152t254.5 56q219 0 331.5 -113t112.5 -307zM586 188q63 0 116.5 32.5t88.5 82.5t59.5 113t35.5 123t11 112q0 242 -195 242
q-73 0 -134 -40t-99.5 -105.5t-60 -145t-21.5 -162.5q0 -52 10.5 -95t32.5 -79.5t62 -57t94 -20.5z" />
    <glyph glyph-name="p" unicode="p" horiz-adv-x="1259" 
d="M354 117l-108 -516h-281l316 1480h266l-29 -135h4q47 71 125 115.5t172 44.5q99 0 174 -36.5t118.5 -99t65 -137t21.5 -159.5q0 -139 -39 -265.5t-109.5 -223t-176 -153.5t-230.5 -57q-201 0 -285 142h-4zM612 188q76 0 138 44t98.5 114t56 148.5t19.5 154.5
q0 108 -45.5 176t-141.5 68t-170.5 -70.5t-111.5 -177t-37 -225.5q0 -107 48 -169.5t146 -62.5z" />
    <glyph glyph-name="q" unicode="q" horiz-adv-x="1259" 
d="M956 965l25 116h279l-316 -1480h-280l114 524h-4q-48 -69 -124.5 -109.5t-174.5 -40.5q-97 0 -169.5 37t-113 100.5t-60 137.5t-19.5 158q0 139 39.5 265.5t110 222.5t175.5 153t228 57q204 0 286 -141h4zM698 893q-61 0 -113.5 -29.5t-88 -77t-61 -108t-37 -123.5
t-11.5 -123q0 -108 46 -176t140 -68q96 0 171 69.5t112 175t37 222.5q0 109 -48.5 173.5t-146.5 64.5z" />
    <glyph glyph-name="r" unicode="r" horiz-adv-x="808" 
d="M915 1102l-57 -217q-31 8 -74 8q-122 0 -212.5 -94.5t-131.5 -288.5l-108 -510h-281l230 1081h272l-35 -149h4q116 174 314 174q39 0 79 -4z" />
    <glyph glyph-name="s" unicode="s" horiz-adv-x="933" 
d="M918 1049l-74 -207q-121 51 -248 51q-69 0 -115.5 -24.5t-46.5 -77.5q0 -38 31.5 -69t118.5 -81q134 -76 195 -151t61 -177q0 -94 -38.5 -162t-105.5 -105t-144.5 -54t-168.5 -17q-87 0 -189 16.5t-178 45.5l72 211q145 -60 289 -60q174 0 174 103q0 44 -35 79t-127 87
q-125 68 -180 139.5t-55 167.5q0 76 27 136t70.5 98t104 63t122.5 35t130 10q167 0 310 -57z" />
    <glyph glyph-name="t" unicode="t" horiz-adv-x="747" 
d="M106 870l46 211h176l61 287h281l-62 -287h213l-45 -211h-213l-104 -489q-15 -68 -15 -98q0 -40 25 -58t82 -18q54 0 104 8l-43 -215q-75 -10 -166 -10q-151 0 -221.5 52t-70.5 165q0 56 16 131l113 532h-177z" />
    <glyph glyph-name="u" unicode="u" horiz-adv-x="1253" 
d="M1010 0h-271l39 166h-4q-121 -191 -348 -191q-151 0 -232 87.5t-81 226.5q0 66 20 168l131 624h281l-121 -573q-25 -127 -25 -170q0 -150 140 -150q105 0 187.5 90.5t115.5 249.5l116 553h281z" />
    <glyph glyph-name="v" unicode="v" horiz-adv-x="1120" 
d="M451 1081l24 -819h4l459 819h317l-667 -1081h-352l-78 1081h293z" />
    <glyph glyph-name="w" unicode="w" horiz-adv-x="1751" 
d="M1206 1081l-22 -819h4l375 819h295l-541 -1081h-375l23 831h-4l-386 -831h-370l-23 1081h295l-26 -819h4l379 819h372z" />
    <glyph glyph-name="x" unicode="x" horiz-adv-x="1107" 
d="M893 1081h326l-445 -522l230 -559h-310l-141 381l-311 -381h-332l479 563l-215 518h307l129 -352z" />
    <glyph glyph-name="y" unicode="y" horiz-adv-x="1120" 
d="M459 1081l26 -780h4l461 780h318l-959 -1480h-305l246 385l-84 1095h293z" />
    <glyph glyph-name="z" unicode="z" horiz-adv-x="1034" 
d="M41 211l629 659h-469l45 211h811l-47 -211l-623 -659h537l-45 -211h-883z" />
    <glyph glyph-name="braceleft" unicode="{" horiz-adv-x="681" 
d="M27 492l53 251q90 3 127 51t65 175l72 336q36 176 127.5 251.5t233.5 75.5h131l-45 -215h-68q-68 0 -98.5 -40t-53.5 -144l-61 -297q-34 -158 -85 -226.5t-171 -95.5v-4q73 -25 104 -67t31 -117q0 -59 -18 -145l-60 -279q-12 -58 -12 -96q0 -49 24.5 -69.5t73.5 -20.5h54
l-48 -215h-88q-274 0 -274 235q0 48 14 113l66 307q18 76 18 127q0 55 -25.5 80.5t-86.5 28.5z" />
    <glyph glyph-name="bar" unicode="|" horiz-adv-x="952" 
d="M438 1505h215v-1904h-215v1904z" />
    <glyph glyph-name="braceright" unicode="}" horiz-adv-x="681" 
d="M719 741l-53 -252q-91 -3 -128 -51t-63 -174l-72 -336q-38 -176 -128.5 -251.5t-231.5 -75.5h-133l47 215h68q66 0 97 40.5t52 143.5l64 297q34 158 85 226t171 95v5q-74 25 -105 67t-31 117q0 55 19 145l57 279q15 77 15 96q0 49 -24.5 69.5t-76.5 20.5h-51l45 215h90
q127 0 201 -56t74 -179q0 -44 -15 -113l-65 -307q-19 -97 -19 -127q0 -54 26 -80t85 -29z" />
    <glyph glyph-name="asciitilde" unicode="~" horiz-adv-x="1132" 
d="M864 688q144 0 236 107v-228q-102 -94 -264 -94q-66 0 -130 21t-107.5 46.5t-102.5 46.5t-115 21q-155 0 -250 -106v227q98 94 266 94q67 0 132.5 -21t109 -46.5t104.5 -46.5t121 -21z" />
    <glyph glyph-name="uni00A0" unicode="&#xa0;" horiz-adv-x="532" 
 />
    <glyph glyph-name="exclamdown" unicode="&#xa1;" horiz-adv-x="649" 
d="M-14 -381l247 954h250l-170 -954h-327zM612 1081l-63 -309h-305l65 309h303z" />
    <glyph glyph-name="cent" unicode="&#xa2;" horiz-adv-x="978" 
d="M895 1229l-29 -129q66 -3 125 -23l-63 -209q-57 18 -105 21l-149 -699q69 3 149 31v-209q-98 -32 -194 -35l-25 -114h-155l26 123q-176 28 -263 149t-87 291q0 178 70.5 325t205 240.5t310.5 108.5l28 129h156zM399 444q0 -182 123 -231l142 659q-124 -37 -194.5 -158.5
t-70.5 -269.5z" />
    <glyph glyph-name="sterling" unicode="&#xa3;" horiz-adv-x="1216" 
d="M1214 1438l-81 -228q-67 33 -170 33q-118 0 -179.5 -67.5t-87.5 -186.5l-28 -131h340l-41 -196h-340l-88 -429h528l-49 -233h-1014l49 233h199l90 429h-186l41 196h186l31 143q19 87 45.5 155.5t71 131t103 104t143.5 65.5t190 24q150 0 247 -43z" />
    <glyph glyph-name="currency" unicode="&#xa4;" horiz-adv-x="1136" 
d="M557 272q-105 0 -184 45l-164 -131l-146 183l166 133q-14 43 -14 96q0 154 86 270l-129 162l190 150l130 -162q82 39 188 39q108 0 182 -47l166 133l146 -185l-166 -133q16 -46 16 -96q0 -150 -88 -272l129 -160l-191 -147l-126 159q-84 -37 -191 -37zM580 479
q90 0 155.5 64t65.5 157q0 66 -39 108t-105 42q-91 0 -156 -65t-65 -158q0 -66 39 -107t105 -41z" />
    <glyph glyph-name="yen" unicode="&#xa5;" horiz-adv-x="1327" 
d="M190 477h338l29 129h-340l37 170h254l-238 686h305l168 -610l441 610h327l-540 -686h237l-37 -170h-340l-28 -129h340l-35 -170h-340l-63 -307h-281l68 307h-338z" />
    <glyph glyph-name="brokenbar" unicode="&#xa6;" horiz-adv-x="952" 
d="M438 1505h215v-753h-215v753zM438 354h215v-753h-215v753z" />
    <glyph glyph-name="section" unicode="&#xa7;" horiz-adv-x="1095" 
d="M125 618q0 111 68 187t180 110q-94 104 -94 220q0 166 126.5 259t342.5 93q207 0 339 -62l-71 -213q-130 56 -277 56q-180 0 -180 -115q0 -53 46 -98.5t169 -126.5q153 -100 207.5 -181.5t54.5 -189.5q0 -111 -64.5 -186t-174.5 -109q104 -104 104 -231q0 -165 -130 -260
t-363 -95q-98 0 -200.5 20t-178.5 56l77 215q72 -32 161 -50.5t159 -18.5q190 0 190 120q0 47 -40.5 92t-176.5 136q-161 105 -217.5 187t-56.5 185zM539 467l108 -76q125 28 125 133q0 52 -30 90.5t-109 94.5l-113 77q-125 -30 -125 -133q0 -47 31.5 -88.5t112.5 -97.5z
" />
    <glyph glyph-name="dieresis" unicode="&#xa8;" horiz-adv-x="944" 
d="M608 1522l-51 -242h-244l54 242h241zM1032 1522l-51 -242h-248l51 242h248z" />
    <glyph glyph-name="copyright" unicode="&#xa9;" horiz-adv-x="1630" 
d="M254 727q0 -130 46.5 -247t128 -203t200 -136.5t256.5 -50.5q135 0 252.5 50.5t198.5 136.5t127 203t46 247q0 176 -78 323.5t-222 235.5t-324 88q-183 0 -328.5 -88t-224 -235t-78.5 -324zM133 727q0 156 56 295t154.5 240t239 160t302.5 59q160 0 299.5 -59t236 -160
t152 -240t55.5 -295q0 -206 -94 -376t-265 -269.5t-384 -99.5q-162 0 -302.5 58.5t-239 158.5t-154.5 237t-56 291zM1135 1163l-33 -166q-73 33 -162 33t-147.5 -44t-81.5 -109.5t-23 -149.5q0 -123 63.5 -205t190.5 -82q83 0 164 33l31 -162q-86 -37 -219 -37
q-201 0 -318 126t-117 329q0 205 115 335t322 130q138 0 215 -31z" />
    <glyph glyph-name="ordfeminine" unicode="&#xaa;" horiz-adv-x="722" 
d="M170 926q0 61 24 106t62 71t98 41.5t118.5 20.5t137.5 6q6 21 6 41q0 74 -116 74q-73 0 -178 -31l-7 140q116 35 228 35q264 0 264 -197q0 -37 -10 -82l-54 -244q-18 -88 -18 -147h-174q-2 10 -2 24q0 17 4 45h-2q-70 -86 -182 -86q-87 0 -143 49t-56 134zM584 1055h-13
q-103 0 -160 -24.5t-57 -84.5q0 -32 19.5 -49.5t50.5 -17.5q64 0 101 39.5t50 101.5z" />
    <glyph glyph-name="guillemotleft" unicode="&#xab;" horiz-adv-x="1157" 
d="M741 1030l-344 -420l154 -422h-221l-168 439l2 10l325 393h252zM1165 1030l-344 -428l154 -414h-221l-168 430l2 11l325 401h252z" />
    <glyph glyph-name="logicalnot" unicode="&#xac;" horiz-adv-x="1132" 
d="M106 719v199h986v-635h-207v436h-779z" />
    <glyph glyph-name="uni00AD" unicode="&#xad;" horiz-adv-x="811" 
d="M147 500l50 231h530l-51 -231h-529z" />
    <glyph glyph-name="registered" unicode="&#xae;" horiz-adv-x="1019" 
d="M213 1075q0 183 122.5 306.5t313.5 123.5t311.5 -123.5t120.5 -306.5q0 -184 -120.5 -307t-311.5 -123t-313.5 123t-122.5 307zM283 1075q0 -156 101 -261t265 -105q161 0 263 105.5t102 260.5q0 154 -102 259.5t-263 105.5q-164 0 -265 -105t-101 -260zM459 827v498h223
q82 0 129 -30t47 -107q0 -93 -96 -119v-2q29 -9 45.5 -27.5t30.5 -62.5l49 -150h-131l-31 119q-11 43 -30.5 56.5t-73.5 13.5h-43v-189h-119zM578 1239v-135h67q98 0 98 70q0 65 -92 65h-73z" />
    <glyph glyph-name="macron" unicode="&#xaf;" horiz-adv-x="944" 
d="M979 1489l-39 -178h-582l39 178h582z" />
    <glyph glyph-name="degree" unicode="&#xb0;" horiz-adv-x="753" 
d="M530 1487q130 0 220 -93t90 -223q0 -131 -90.5 -223t-223.5 -92q-134 0 -224.5 92.5t-90.5 225.5q0 131 91.5 222t227.5 91zM524 1313q-58 0 -97.5 -42t-39.5 -100q0 -59 39.5 -100t97.5 -41q61 0 100.5 41t39.5 100q0 60 -40 101t-100 41z" />
    <glyph glyph-name="plusminus" unicode="&#xb1;" horiz-adv-x="1132" 
d="M121 143v205h987v-205h-987zM508 440v279h-387v205h387v284h213v-284h387v-205h-387v-279h-213z" />
    <glyph glyph-name="twosuperior" unicode="&#xb2;" 
d="M825 1040l-32 -163h-596l32 167q204 144 306.5 229.5t136 135t33.5 100.5q0 42 -30 68.5t-83 26.5q-85 0 -197 -50l-35 150q127 65 271 65q124 0 199 -61t75 -174q0 -54 -16.5 -101.5t-44.5 -89t-83.5 -92.5t-114 -95.5t-154.5 -113.5v-2h333z" />
    <glyph glyph-name="threesuperior" unicode="&#xb3;" 
d="M383 1245l35 158h94q83 0 138 29.5t55 91.5q0 40 -28.5 62t-82.5 22q-92 0 -197 -43l-20 157q114 47 252 47q120 0 196 -56t76 -161q0 -167 -164 -225v-2q50 -21 77.5 -66t27.5 -102q0 -99 -51 -167t-133 -98t-189 -30q-136 0 -254 56l59 153q102 -45 193 -45
q78 0 128 30t50 93q0 48 -44.5 72t-123.5 24h-94z" />
    <glyph glyph-name="acute" unicode="&#xb4;" horiz-adv-x="944" 
d="M1047 1573l-338 -336h-217l249 336h306z" />
    <glyph glyph-name="mu" unicode="&#xb5;" horiz-adv-x="1333" 
d="M807 170h-4q-129 -195 -318 -195q-44 0 -86 13t-63 37h-4l-90 -424h-281l311 1480h285l-127 -600q-18 -92 -18 -143q0 -150 139 -150q99 0 183.5 86t119.5 252l117 555h280l-139 -657q-29 -141 -29 -160q0 -32 15.5 -44.5t52.5 -12.5q24 0 45 8l-43 -213
q-55 -12 -115 -12q-62 0 -107.5 16t-70.5 44t-37.5 57t-15.5 63z" />
    <glyph glyph-name="paragraph" unicode="&#xb6;" horiz-adv-x="1134" 
d="M1221 1462l-363 -1702h-182l328 1545h-158l-330 -1545h-182l192 904q-161 0 -257.5 90.5t-96.5 230.5q0 216 156 346.5t409 130.5h484z" />
    <glyph glyph-name="periodcentered" unicode="&#xb7;" horiz-adv-x="624" 
d="M154 457l69 321h316l-70 -321h-315z" />
    <glyph glyph-name="cedilla" unicode="&#xb8;" horiz-adv-x="944" 
d="M385 16l-43 -112q16 2 39 2q68 0 113 -38t45 -106q0 -206 -299 -206q-78 0 -146 12l33 121q49 -8 109 -8q131 0 131 65q0 28 -24.5 39.5t-80.5 11.5q-50 0 -102 -6l78 225h147z" />
    <glyph glyph-name="onesuperior" unicode="&#xb9;" 
d="M819 1753l-184 -876h-207l145 682l-174 -86l-41 153l256 127h205z" />
    <glyph glyph-name="ordmasculine" unicode="&#xba;" horiz-adv-x="784" 
d="M868 1169q0 -115 -41.5 -209.5t-130 -154.5t-209.5 -60q-139 0 -214.5 74t-75.5 193q0 180 103 299t284 119q134 0 209 -72t75 -189zM498 889q57 0 98.5 45.5t59.5 103.5t18 115q0 133 -107 133q-53 0 -94.5 -40t-61.5 -98t-20 -120t26 -100.5t81 -38.5z" />
    <glyph glyph-name="guillemotright" unicode="&#xbb;" horiz-adv-x="1157" 
d="M485 188l344 420l-153 422h221l168 -438q0 -2 -1 -5t-1 -5l-326 -394h-252zM61 188l345 430l-154 412h221l168 -430q0 -2 -1 -5t-1 -5l-326 -402h-252z" />
    <glyph glyph-name="onequarter" unicode="&#xbc;" horiz-adv-x="1808" 
d="M758 1466l-185 -876h-206l145 682l-174 -86l-41 153l256 127h205zM1671 1462l-1136 -1462h-218l1139 1462h215zM1755 877l-117 -543h97l-35 -158h-94l-37 -176h-195l37 176h-389l41 191l430 510h262zM1446 334l72 346h-5l-274 -346h207z" />
    <glyph glyph-name="onehalf" unicode="&#xbd;" horiz-adv-x="1808" 
d="M1640 1462l-1136 -1462h-217l1138 1462h215zM758 1466l-185 -876h-206l145 682l-174 -86l-41 153l256 127h205zM1675 164l-33 -164h-595l32 168q204 144 306.5 229.5t135.5 134.5t33 101q0 42 -29.5 68t-82.5 26q-87 0 -197 -49l-35 149q129 66 271 66q123 0 198.5 -61.5
t75.5 -174.5q0 -54 -17 -101.5t-45 -89t-84 -92t-113.5 -95t-154.5 -113.5v-2h334z" />
    <glyph glyph-name="threequarters" unicode="&#xbe;" horiz-adv-x="1808" 
d="M1671 1462l-1136 -1462h-218l1139 1462h215zM322 958l34 158h95q83 0 137.5 29.5t54.5 91.5q0 40 -28.5 62t-82.5 22q-91 0 -196 -43l-21 158q114 47 252 47q120 0 196.5 -56t76.5 -161q0 -168 -164 -226v-2q50 -21 77 -66t27 -102q0 -99 -50.5 -167t-132.5 -98t-189 -30
q-136 0 -254 56l59 153q102 -45 193 -45q78 0 128 30t50 93q0 48 -44.5 72t-123.5 24h-94zM1755 877l-117 -543h97l-35 -158h-94l-37 -176h-195l37 176h-389l41 191l430 510h262zM1446 334l72 346h-5l-274 -346h207z" />
    <glyph glyph-name="questiondown" unicode="&#xbf;" horiz-adv-x="991" 
d="M426 -166q146 0 295 55l33 -227q-165 -68 -373 -68q-88 0 -164 20.5t-136.5 60.5t-95 107.5t-34.5 154.5q0 82 21.5 147t67.5 118t98.5 92.5t135.5 88.5q107 64 151.5 108t57.5 105l6 29h263l-11 -54q-21 -108 -74 -178t-161 -141l-68 -45q-56 -37 -87 -60t-58 -52
t-38 -58.5t-11 -67.5q0 -70 50.5 -102.5t131.5 -32.5zM864 1081l-65 -309h-310l66 309h309z" />
    <glyph glyph-name="Agrave" unicode="&#xc0;" horiz-adv-x="1431" 
d="M442 360l-206 -360h-320l862 1462h377l170 -1462h-303l-37 360h-543zM920 1233l-357 -639h408zM920 1563l-258 295h292l168 -295h-202z" />
    <glyph glyph-name="Aacute" unicode="&#xc1;" horiz-adv-x="1431" 
d="M442 360l-206 -360h-320l862 1462h377l170 -1462h-303l-37 360h-543zM920 1233l-357 -639h408zM1427 1860l-344 -297h-235l258 297h321z" />
    <glyph glyph-name="Acircumflex" unicode="&#xc2;" horiz-adv-x="1431" 
d="M442 360l-206 -360h-320l862 1462h377l170 -1462h-303l-37 360h-543zM920 1233l-357 -639h408zM1354 1559h-219l-111 182l-190 -182h-236l301 309h285z" />
    <glyph glyph-name="Atilde" unicode="&#xc3;" horiz-adv-x="1431" 
d="M442 360l-206 -360h-320l862 1462h377l170 -1462h-303l-37 360h-543zM920 1233l-357 -639h408zM1061 1790q42 -31 63 -42t43 -11q70 0 93 127h159q-57 -299 -245 -299q-74 0 -177 67q-50 34 -75 46t-48 12q-73 0 -98 -127h-160q26 147 93.5 223t162.5 76q49 0 91.5 -16.5
t97.5 -55.5z" />
    <glyph glyph-name="Adieresis" unicode="&#xc4;" horiz-adv-x="1431" 
d="M442 360l-206 -360h-320l862 1462h377l170 -1462h-303l-37 360h-543zM920 1233l-357 -639h408zM1386 1853l-53 -249h-246l54 249h245zM958 1853l-53 -249h-243l53 249h243z" />
    <glyph glyph-name="Aring" unicode="&#xc5;" horiz-adv-x="1431" 
d="M442 360l-206 -360h-320l862 1462h377l170 -1462h-303l-37 360h-543zM920 1233l-357 -639h408zM1020 1841q-47 0 -79 -33t-32 -82q0 -51 31.5 -83.5t79.5 -32.5t80.5 32.5t32.5 81.5q0 51 -32.5 84t-80.5 33zM1022 1944q92 0 152.5 -62.5t60.5 -155.5q0 -95 -60.5 -155
t-154.5 -60q-93 0 -154 60t-61 155q0 92 62 155t155 63z" />
    <glyph glyph-name="AE" unicode="&#xc6;" horiz-adv-x="1847" 
d="M1665 0h-862l74 348h-408l-233 -348h-320l1002 1462h1005l-49 -231h-528l-76 -367h497l-49 -231h-499l-84 -402h579zM1061 1233l-440 -651h305l139 651h-4z" />
    <glyph glyph-name="Ccedilla" unicode="&#xc7;" horiz-adv-x="1196" 
d="M1294 1442l-71 -230q-100 41 -234 41q-103 0 -192.5 -36.5t-153.5 -100t-110 -146.5t-68.5 -177.5t-22.5 -192.5q0 -83 21 -152.5t64 -124t115.5 -85.5t168.5 -31q142 0 248 33l-6 -226q-139 -39 -295 -39h-31l-27 -71q16 2 39 2q68 0 113 -38t45 -106q0 -206 -299 -206
q-78 0 -145 12l32 121q49 -8 109 -8q131 0 131 65q0 29 -24 40t-80 11q-51 0 -103 -6l70 201q-111 22 -195.5 76t-136.5 132t-78 173.5t-26 206.5q0 184 58.5 348t164 288.5t265.5 197.5t351 73q180 0 303 -45z" />
    <glyph glyph-name="Egrave" unicode="&#xc8;" horiz-adv-x="1116" 
d="M68 0l309 1462h815l-49 -231h-525l-77 -367h495l-49 -231h-498l-83 -402h579l-49 -231h-868zM731 1563l-258 295h293l168 -295h-203z" />
    <glyph glyph-name="Eacute" unicode="&#xc9;" horiz-adv-x="1116" 
d="M68 0l309 1462h815l-49 -231h-525l-77 -367h495l-49 -231h-498l-83 -402h579l-49 -231h-868zM1239 1860l-344 -297h-236l259 297h321z" />
    <glyph glyph-name="Ecircumflex" unicode="&#xca;" horiz-adv-x="1116" 
d="M68 0l309 1462h815l-49 -231h-525l-77 -367h495l-49 -231h-498l-83 -402h579l-49 -231h-868zM1180 1559h-219l-111 182l-191 -182h-235l301 309h285z" />
    <glyph glyph-name="Edieresis" unicode="&#xcb;" horiz-adv-x="1116" 
d="M68 0l309 1462h815l-49 -231h-525l-77 -367h495l-49 -231h-498l-83 -402h579l-49 -231h-868zM1202 1853l-53 -249h-246l53 249h246zM774 1853l-53 -249h-244l53 249h244z" />
    <glyph glyph-name="Igrave" unicode="&#xcc;" horiz-adv-x="612" 
d="M68 0l309 1462h291l-310 -1462h-290zM473 1563l-258 295h293l168 -295h-203z" />
    <glyph glyph-name="Iacute" unicode="&#xcd;" horiz-adv-x="612" 
d="M68 0l309 1462h291l-310 -1462h-290zM989 1860l-344 -297h-235l258 297h321z" />
    <glyph glyph-name="Icircumflex" unicode="&#xce;" horiz-adv-x="612" 
d="M68 0l309 1462h291l-310 -1462h-290zM913 1559h-219l-110 182l-191 -182h-235l301 309h284z" />
    <glyph glyph-name="Idieresis" unicode="&#xcf;" horiz-adv-x="612" 
d="M68 0l309 1462h291l-310 -1462h-290zM942 1853l-53 -249h-246l53 249h246zM514 1853l-53 -249h-244l53 249h244z" />
    <glyph glyph-name="Eth" unicode="&#xd0;" horiz-adv-x="1476" 
d="M68 0l141 670h-125l35 161h125l133 631h442q310 0 467.5 -151t157.5 -430q0 -140 -33 -267.5t-103.5 -240t-172 -195t-248.5 -130.5t-324 -48h-495zM618 1231l-83 -400h253l-32 -161h-256l-92 -439h167q114 0 209 33t162 91.5t114 138.5t69 173.5t22 196.5
q0 178 -90.5 272.5t-302.5 94.5h-140z" />
    <glyph glyph-name="Ntilde" unicode="&#xd1;" horiz-adv-x="1488" 
d="M834 1462l182 -1167h4l246 1167h280l-309 -1462h-440l-195 1184h-4l-250 -1184h-280l309 1462h457zM1081 1790q42 -30 63.5 -41.5t43.5 -11.5q38 0 59.5 32.5t32.5 94.5h160q-58 -299 -246 -299q-42 0 -81 15.5t-95 51.5q-50 34 -75 46t-48 12q-73 0 -98 -127h-160
q26 147 93.5 223t162.5 76q49 0 91 -16.5t97 -55.5z" />
    <glyph glyph-name="Ograve" unicode="&#xd2;" horiz-adv-x="1548" 
d="M1520 926q0 -94 -14 -187.5t-45 -188t-76 -178.5t-110.5 -157t-145.5 -126t-185.5 -83.5t-224.5 -30.5q-147 0 -257.5 42.5t-177 119.5t-99.5 178.5t-33 225.5q0 150 32.5 289t99 258.5t160 208.5t224.5 139.5t284 50.5q142 0 251.5 -42t178 -117.5t103.5 -177t35 -224.5
zM748 211q96 0 177.5 44t136 115.5t92.5 163t55.5 184.5t17.5 183q0 159 -74.5 254.5t-230.5 95.5q-110 0 -202 -59.5t-151.5 -157.5t-92 -220t-32.5 -251q0 -159 75 -255.5t229 -96.5zM940 1563l-258 295h293l168 -295h-203z" />
    <glyph glyph-name="Oacute" unicode="&#xd3;" horiz-adv-x="1548" 
d="M1520 926q0 -94 -14 -187.5t-45 -188t-76 -178.5t-110.5 -157t-145.5 -126t-185.5 -83.5t-224.5 -30.5q-147 0 -257.5 42.5t-177 119.5t-99.5 178.5t-33 225.5q0 150 32.5 289t99 258.5t160 208.5t224.5 139.5t284 50.5q142 0 251.5 -42t178 -117.5t103.5 -177t35 -224.5
zM748 211q96 0 177.5 44t136 115.5t92.5 163t55.5 184.5t17.5 183q0 159 -74.5 254.5t-230.5 95.5q-110 0 -202 -59.5t-151.5 -157.5t-92 -220t-32.5 -251q0 -159 75 -255.5t229 -96.5zM1458 1860l-344 -297h-235l258 297h321z" />
    <glyph glyph-name="Ocircumflex" unicode="&#xd4;" horiz-adv-x="1548" 
d="M1520 926q0 -94 -14 -187.5t-45 -188t-76 -178.5t-110.5 -157t-145.5 -126t-185.5 -83.5t-224.5 -30.5q-147 0 -257.5 42.5t-177 119.5t-99.5 178.5t-33 225.5q0 150 32.5 289t99 258.5t160 208.5t224.5 139.5t284 50.5q142 0 251.5 -42t178 -117.5t103.5 -177t35 -224.5
zM748 211q96 0 177.5 44t136 115.5t92.5 163t55.5 184.5t17.5 183q0 159 -74.5 254.5t-230.5 95.5q-110 0 -202 -59.5t-151.5 -157.5t-92 -220t-32.5 -251q0 -159 75 -255.5t229 -96.5zM1382 1559h-219l-110 182l-191 -182h-235l301 309h284z" />
    <glyph glyph-name="Otilde" unicode="&#xd5;" horiz-adv-x="1548" 
d="M1520 926q0 -94 -14 -187.5t-45 -188t-76 -178.5t-110.5 -157t-145.5 -126t-185.5 -83.5t-224.5 -30.5q-147 0 -257.5 42.5t-177 119.5t-99.5 178.5t-33 225.5q0 150 32.5 289t99 258.5t160 208.5t224.5 139.5t284 50.5q142 0 251.5 -42t178 -117.5t103.5 -177t35 -224.5
zM748 211q96 0 177.5 44t136 115.5t92.5 163t55.5 184.5t17.5 183q0 159 -74.5 254.5t-230.5 95.5q-110 0 -202 -59.5t-151.5 -157.5t-92 -220t-32.5 -251q0 -159 75 -255.5t229 -96.5zM1083 1790q42 -30 63.5 -41.5t43.5 -11.5q38 0 59.5 32.5t32.5 94.5h160
q-58 -299 -246 -299q-42 0 -81 15.5t-95 51.5q-50 34 -75 46t-48 12q-73 0 -98 -127h-160q26 147 93.5 223t162.5 76q49 0 91 -16.5t97 -55.5z" />
    <glyph glyph-name="Odieresis" unicode="&#xd6;" horiz-adv-x="1548" 
d="M1520 926q0 -94 -14 -187.5t-45 -188t-76 -178.5t-110.5 -157t-145.5 -126t-185.5 -83.5t-224.5 -30.5q-147 0 -257.5 42.5t-177 119.5t-99.5 178.5t-33 225.5q0 150 32.5 289t99 258.5t160 208.5t224.5 139.5t284 50.5q142 0 251.5 -42t178 -117.5t103.5 -177t35 -224.5
zM748 211q96 0 177.5 44t136 115.5t92.5 163t55.5 184.5t17.5 183q0 159 -74.5 254.5t-230.5 95.5q-110 0 -202 -59.5t-151.5 -157.5t-92 -220t-32.5 -251q0 -159 75 -255.5t229 -96.5zM1407 1853l-53 -249h-246l53 249h246zM979 1853l-53 -249h-244l53 249h244z" />
    <glyph glyph-name="multiply" unicode="&#xd7;" horiz-adv-x="1132" 
d="M119 297l344 342l-344 340l155 154l342 -342l340 342l154 -154l-342 -340l342 -342l-154 -154l-340 342l-342 -342z" />
    <glyph glyph-name="Oslash" unicode="&#xd8;" horiz-adv-x="1548" 
d="M1608 1405l-162 -166q74 -128 74 -313q0 -94 -14 -187.5t-45 -188t-76 -178.5t-110.5 -157t-145.5 -126t-185.5 -83.5t-224.5 -30.5q-253 0 -395 123l-156 -157l-111 110l166 170q-71 128 -71 320q0 150 32.5 289t99 258.5t160 208.5t224.5 139.5t284 50.5
q247 0 394 -125l151 154zM444 563q0 -63 11 -108l694 706q-77 90 -227 90q-110 0 -202 -59.5t-151.5 -157.5t-92 -220t-32.5 -251zM748 211q96 0 177.5 44t136 115.5t92.5 163t55.5 184.5t17.5 183q0 49 -10 107l-695 -707q77 -90 226 -90z" />
    <glyph glyph-name="Ugrave" unicode="&#xd9;" horiz-adv-x="1415" 
d="M1489 1462l-219 -1030q-97 -457 -623 -457q-113 0 -205 21t-162.5 64t-109.5 114.5t-39 165.5q0 68 14 133l211 989h291l-201 -952q-16 -74 -16 -115q0 -97 63 -142.5t173 -45.5q145 0 220 63.5t103 198.5l211 993h289zM872 1563l-258 295h293l168 -295h-203z" />
    <glyph glyph-name="Uacute" unicode="&#xda;" horiz-adv-x="1415" 
d="M1489 1462l-219 -1030q-97 -457 -623 -457q-113 0 -205 21t-162.5 64t-109.5 114.5t-39 165.5q0 68 14 133l211 989h291l-201 -952q-16 -74 -16 -115q0 -97 63 -142.5t173 -45.5q145 0 220 63.5t103 198.5l211 993h289zM1366 1860l-344 -297h-236l258 297h322z" />
    <glyph glyph-name="Ucircumflex" unicode="&#xdb;" horiz-adv-x="1415" 
d="M1489 1462l-219 -1030q-97 -457 -623 -457q-113 0 -205 21t-162.5 64t-109.5 114.5t-39 165.5q0 68 14 133l211 989h291l-201 -952q-16 -74 -16 -115q0 -97 63 -142.5t173 -45.5q145 0 220 63.5t103 198.5l211 993h289zM1319 1559h-219l-111 182l-190 -182h-236l301 309
h285z" />
    <glyph glyph-name="Udieresis" unicode="&#xdc;" horiz-adv-x="1415" 
d="M1489 1462l-219 -1030q-97 -457 -623 -457q-113 0 -205 21t-162.5 64t-109.5 114.5t-39 165.5q0 68 14 133l211 989h291l-201 -952q-16 -74 -16 -115q0 -97 63 -142.5t173 -45.5q145 0 220 63.5t103 198.5l211 993h289zM1341 1853l-53 -249h-246l54 249h245zM913 1853
l-53 -249h-244l54 249h243z" />
    <glyph glyph-name="Yacute" unicode="&#xdd;" horiz-adv-x="1247" 
d="M373 0l116 557l-301 905h318l176 -626l465 626h344l-711 -905l-116 -557h-291zM1264 1860l-344 -297h-236l258 297h322z" />
    <glyph glyph-name="Thorn" unicode="&#xde;" horiz-adv-x="1290" 
d="M68 0l309 1462h291l-47 -221h202q98 0 180 -24t144.5 -70.5t97.5 -122t35 -172.5q0 -256 -165 -394.5t-449 -138.5h-240l-68 -319h-290zM571 1010l-96 -459h215q62 0 114.5 15t94.5 46t66 85t24 126q0 94 -61.5 140.5t-171.5 46.5h-185z" />
    <glyph glyph-name="germandbls" unicode="&#xdf;" horiz-adv-x="1345" 
d="M870 1505q210 0 333.5 -98t123.5 -268q0 -141 -82.5 -241.5t-232.5 -135.5l-2 -4q99 -19 174.5 -104.5t75.5 -215.5q0 -219 -149 -341t-392 -122q-146 0 -244 33l57 207q86 -27 183 -27q119 0 193.5 63.5t74.5 178.5q0 96 -77.5 150.5t-233.5 54.5l47 217q147 5 238.5 70
t91.5 184q0 83 -52.5 130.5t-146.5 47.5q-125 0 -200.5 -81.5t-110.5 -241.5l-205 -961h-283l207 975q61 288 209 409t403 121z" />
    <glyph glyph-name="agrave" unicode="&#xe0;" horiz-adv-x="1163" 
d="M797 680q10 39 10 65q0 148 -215 148q-126 0 -277 -47l-8 203q178 57 348 57q432 0 432 -328q0 -60 -16 -129l-88 -403q-35 -175 -35 -246h-239q-4 16 -4 41q0 43 6 92h-4q-109 -158 -324 -158q-134 0 -225.5 80t-91.5 228q0 65 16 118t48 92t72 69t95.5 50t110 33.5
t124.5 20.5t130 10t135 4zM760 500h-41q-85 0 -150 -8.5t-120.5 -29.5t-85 -60.5t-29.5 -96.5q0 -61 35 -96t96 -35q60 0 110 21.5t83 58t54 79t31 91.5zM711 1237l-248 336h287l161 -336h-200z" />
    <glyph glyph-name="aacute" unicode="&#xe1;" horiz-adv-x="1163" 
d="M797 680q10 39 10 65q0 148 -215 148q-126 0 -277 -47l-8 203q178 57 348 57q432 0 432 -328q0 -60 -16 -129l-88 -403q-35 -175 -35 -246h-239q-4 16 -4 41q0 43 6 92h-4q-109 -158 -324 -158q-134 0 -225.5 80t-91.5 228q0 65 16 118t48 92t72 69t95.5 50t110 33.5
t124.5 20.5t130 10t135 4zM760 500h-41q-85 0 -150 -8.5t-120.5 -29.5t-85 -60.5t-29.5 -96.5q0 -61 35 -96t96 -35q60 0 110 21.5t83 58t54 79t31 91.5zM1182 1573l-338 -336h-217l250 336h305z" />
    <glyph glyph-name="acircumflex" unicode="&#xe2;" horiz-adv-x="1163" 
d="M797 680q10 39 10 65q0 148 -215 148q-126 0 -277 -47l-8 203q178 57 348 57q432 0 432 -328q0 -60 -16 -129l-88 -403q-35 -175 -35 -246h-239q-4 16 -4 41q0 43 6 92h-4q-109 -158 -324 -158q-134 0 -225.5 80t-91.5 228q0 65 16 118t48 92t72 69t95.5 50t110 33.5
t124.5 20.5t130 10t135 4zM760 500h-41q-85 0 -150 -8.5t-120.5 -29.5t-85 -60.5t-29.5 -96.5q0 -61 35 -96t96 -35q60 0 110 21.5t83 58t54 79t31 91.5zM1083 1237h-192l-96 215l-185 -215h-215l281 336h272z" />
    <glyph glyph-name="atilde" unicode="&#xe3;" horiz-adv-x="1163" 
d="M797 680q10 39 10 65q0 148 -215 148q-126 0 -277 -47l-8 203q178 57 348 57q432 0 432 -328q0 -60 -16 -129l-88 -403q-35 -175 -35 -246h-239q-4 16 -4 41q0 43 6 92h-4q-109 -158 -324 -158q-134 0 -225.5 80t-91.5 228q0 65 16 118t48 92t72 69t95.5 50t110 33.5
t124.5 20.5t130 10t135 4zM760 500h-41q-85 0 -150 -8.5t-120.5 -29.5t-85 -60.5t-29.5 -96.5q0 -61 35 -96t96 -35q60 0 110 21.5t83 58t54 79t31 91.5zM813 1470q42 -29 64 -40t43 -11q39 0 60 32t32 95h159q-57 -301 -245 -301q-42 0 -80.5 15.5t-95.5 52.5
q-50 34 -74 45.5t-47 11.5q-76 0 -101 -127h-159q27 147 95.5 223t164.5 76q48 0 89 -16.5t95 -55.5z" />
    <glyph glyph-name="adieresis" unicode="&#xe4;" horiz-adv-x="1163" 
d="M797 680q10 39 10 65q0 148 -215 148q-126 0 -277 -47l-8 203q178 57 348 57q432 0 432 -328q0 -60 -16 -129l-88 -403q-35 -175 -35 -246h-239q-4 16 -4 41q0 43 6 92h-4q-109 -158 -324 -158q-134 0 -225.5 80t-91.5 228q0 65 16 118t48 92t72 69t95.5 50t110 33.5
t124.5 20.5t130 10t135 4zM760 500h-41q-85 0 -150 -8.5t-120.5 -29.5t-85 -60.5t-29.5 -96.5q0 -61 35 -96t96 -35q60 0 110 21.5t83 58t54 79t31 91.5zM717 1522l-51 -242h-244l53 242h242zM1141 1522l-51 -242h-248l51 242h248z" />
    <glyph glyph-name="aring" unicode="&#xe5;" horiz-adv-x="1163" 
d="M797 680q10 39 10 65q0 148 -215 148q-126 0 -277 -47l-8 203q178 57 348 57q432 0 432 -328q0 -60 -16 -129l-88 -403q-35 -175 -35 -246h-239q-4 16 -4 41q0 43 6 92h-4q-109 -158 -324 -158q-134 0 -225.5 80t-91.5 228q0 65 16 118t48 92t72 69t95.5 50t110 33.5
t124.5 20.5t130 10t135 4zM760 500h-41q-85 0 -150 -8.5t-120.5 -29.5t-85 -60.5t-29.5 -96.5q0 -61 35 -96t96 -35q60 0 110 21.5t83 58t54 79t31 91.5zM782 1534q-47 0 -78.5 -33t-31.5 -82q0 -51 31 -83.5t79 -32.5t80.5 32.5t32.5 81.5q0 51 -32.5 84t-80.5 33z
M784 1634q92 0 152.5 -61.5t60.5 -153.5q0 -95 -60.5 -156t-154.5 -61q-93 0 -154 61t-61 156q0 91 62 153t155 62z" />
    <glyph glyph-name="ae" unicode="&#xe6;" horiz-adv-x="1808" 
d="M1565 221l-9 -207q-140 -39 -299 -39q-298 0 -417 201h-4q-75 -106 -174 -153.5t-248 -47.5q-157 0 -252.5 78.5t-95.5 225.5q0 72 21.5 130t57.5 98t92 70t114.5 47.5t137 28t148.5 14.5t158 5q12 46 12 73q0 148 -215 148q-126 0 -277 -47l-8 203q178 57 348 57
q251 0 344 -133h5q65 63 155 98t191 35q202 0 306.5 -101t104.5 -292q0 -114 -41 -252h-690q-4 -25 -4 -45q0 -113 76.5 -170.5t210.5 -57.5q137 0 252 33zM758 492h-39q-88 0 -155.5 -9.5t-120.5 -30.5t-81 -59t-28 -92q0 -60 35.5 -93.5t99.5 -33.5q116 0 184.5 72.5
t89.5 177.5zM1335 913q-100 0 -173.5 -70t-102.5 -179h444q8 33 8 67q0 84 -42.5 133t-133.5 49z" />
    <glyph glyph-name="ccedilla" unicode="&#xe7;" horiz-adv-x="919" 
d="M956 1077l-63 -209q-67 25 -145 25q-84 0 -154 -38.5t-114.5 -102t-68.5 -142.5t-24 -164q0 -53 12 -97t38.5 -81.5t74 -58.5t113.5 -21q89 0 168 27v-209q-115 -31 -215 -31q-29 0 -43 2l-27 -73q16 2 39 2q68 0 113 -38t45 -106q0 -206 -299 -206q-78 0 -146 12l33 121
q49 -8 108 -8q131 0 131 65q0 29 -24 40t-80 11q-50 0 -102 -6l71 209q-144 44 -214 158t-70 268q0 138 43.5 261t123.5 216.5t203 148t273 54.5q121 0 200 -29z" />
    <glyph glyph-name="egrave" unicode="&#xe8;" horiz-adv-x="1163" 
d="M1075 455h-692q-2 -16 -2 -41q0 -115 75 -170.5t212 -55.5q140 0 252 33l-9 -207q-140 -39 -299 -39q-246 0 -372.5 123.5t-126.5 337.5q0 104 25 202t75 182.5t119.5 148.5t165 100.5t204.5 36.5q204 0 309 -101t105 -292q0 -111 -41 -258zM690 911q-102 0 -175.5 -71.5
t-102.5 -182.5h444q8 33 8 72q0 182 -174 182zM678 1237l-248 336h287l162 -336h-201z" />
    <glyph glyph-name="eacute" unicode="&#xe9;" horiz-adv-x="1163" 
d="M1075 455h-692q-2 -16 -2 -41q0 -115 75 -170.5t212 -55.5q140 0 252 33l-9 -207q-140 -39 -299 -39q-246 0 -372.5 123.5t-126.5 337.5q0 104 25 202t75 182.5t119.5 148.5t165 100.5t204.5 36.5q204 0 309 -101t105 -292q0 -111 -41 -258zM690 911q-102 0 -175.5 -71.5
t-102.5 -182.5h444q8 33 8 72q0 182 -174 182zM1188 1573l-338 -336h-217l250 336h305z" />
    <glyph glyph-name="ecircumflex" unicode="&#xea;" horiz-adv-x="1163" 
d="M1075 455h-692q-2 -16 -2 -41q0 -115 75 -170.5t212 -55.5q140 0 252 33l-9 -207q-140 -39 -299 -39q-246 0 -372.5 123.5t-126.5 337.5q0 104 25 202t75 182.5t119.5 148.5t165 100.5t204.5 36.5q204 0 309 -101t105 -292q0 -111 -41 -258zM690 911q-102 0 -175.5 -71.5
t-102.5 -182.5h444q8 33 8 72q0 182 -174 182zM1102 1237h-193l-96 215l-184 -215h-215l280 336h273z" />
    <glyph glyph-name="edieresis" unicode="&#xeb;" horiz-adv-x="1163" 
d="M1075 455h-692q-2 -16 -2 -41q0 -115 75 -170.5t212 -55.5q140 0 252 33l-9 -207q-140 -39 -299 -39q-246 0 -372.5 123.5t-126.5 337.5q0 104 25 202t75 182.5t119.5 148.5t165 100.5t204.5 36.5q204 0 309 -101t105 -292q0 -111 -41 -258zM690 911q-102 0 -175.5 -71.5
t-102.5 -182.5h444q8 33 8 72q0 182 -174 182zM739 1522l-51 -242h-244l54 242h241zM1163 1522l-51 -242h-248l51 242h248z" />
    <glyph glyph-name="igrave" unicode="&#xec;" horiz-adv-x="563" 
d="M281 1081h282l-229 -1081h-283zM381 1237l-248 336h287l162 -336h-201z" />
    <glyph glyph-name="iacute" unicode="&#xed;" horiz-adv-x="563" 
d="M281 1081h282l-229 -1081h-283zM877 1573l-338 -336h-217l249 336h306z" />
    <glyph glyph-name="icircumflex" unicode="&#xee;" horiz-adv-x="563" 
d="M281 1081h282l-229 -1081h-283zM788 1237h-192l-96 215l-185 -215h-215l281 336h272z" />
    <glyph glyph-name="idieresis" unicode="&#xef;" horiz-adv-x="563" 
d="M281 1081h282l-229 -1081h-283zM428 1522l-51 -242h-244l53 242h242zM852 1522l-51 -242h-248l51 242h248z" />
    <glyph glyph-name="eth" unicode="&#xf0;" horiz-adv-x="1241" 
d="M508 1243l194 57q-72 51 -157 78l170 140q152 -47 250 -140l252 76v-154l-152 -45q121 -197 121 -481q0 -74 -10 -149.5t-32.5 -155t-55.5 -150.5t-83.5 -134.5t-112 -109.5t-145 -73t-178.5 -27q-113 0 -201.5 34.5t-143.5 94.5t-83 139t-28 171q0 169 68 310t199 227.5
t300 86.5q86 0 150.5 -29t95.5 -67h4q-14 132 -101 242l-321 -94v153zM586 188q62 0 115 31t87 78.5t58 105t34.5 109.5t10.5 94q0 109 -45 170.5t-152 61.5q-92 0 -164.5 -65t-107.5 -156.5t-35 -186.5q0 -47 10.5 -88t32.5 -76.5t62 -56.5t94 -21z" />
    <glyph glyph-name="ntilde" unicode="&#xf1;" horiz-adv-x="1253" 
d="M281 1081h272l-39 -166h4q121 191 346 191q152 0 234 -87t82 -226q0 -61 -21 -168l-131 -625h-283l123 573q25 119 25 170q0 150 -139 150q-105 0 -188.5 -91t-116.5 -249l-117 -553h-281zM901 1470q42 -29 64 -40t43 -11q39 0 60 32t32 95h160q-57 -301 -246 -301
q-42 0 -80.5 15.5t-95.5 52.5q-50 34 -74 45.5t-47 11.5q-76 0 -101 -127h-159q27 147 95.5 223t164.5 76q48 0 89 -16.5t95 -55.5z" />
    <glyph glyph-name="ograve" unicode="&#xf2;" horiz-adv-x="1241" 
d="M1171 686q0 -95 -21.5 -191.5t-69 -190.5t-116 -166.5t-171 -117.5t-224.5 -45q-228 0 -342 116t-114 312q0 143 43.5 271t121.5 224t194.5 152t254.5 56q219 0 331.5 -113t112.5 -307zM586 188q63 0 116.5 32.5t88.5 82.5t59.5 113t35.5 123t11 112q0 242 -195 242
q-73 0 -134 -40t-99.5 -105.5t-60 -145t-21.5 -162.5q0 -52 10.5 -95t32.5 -79.5t62 -57t94 -20.5zM707 1237l-248 336h286l162 -336h-200z" />
    <glyph glyph-name="oacute" unicode="&#xf3;" horiz-adv-x="1241" 
d="M1171 686q0 -95 -21.5 -191.5t-69 -190.5t-116 -166.5t-171 -117.5t-224.5 -45q-228 0 -342 116t-114 312q0 143 43.5 271t121.5 224t194.5 152t254.5 56q219 0 331.5 -113t112.5 -307zM586 188q63 0 116.5 32.5t88.5 82.5t59.5 113t35.5 123t11 112q0 242 -195 242
q-73 0 -134 -40t-99.5 -105.5t-60 -145t-21.5 -162.5q0 -52 10.5 -95t32.5 -79.5t62 -57t94 -20.5zM1221 1573l-338 -336h-217l249 336h306z" />
    <glyph glyph-name="ocircumflex" unicode="&#xf4;" horiz-adv-x="1241" 
d="M1171 686q0 -95 -21.5 -191.5t-69 -190.5t-116 -166.5t-171 -117.5t-224.5 -45q-228 0 -342 116t-114 312q0 143 43.5 271t121.5 224t194.5 152t254.5 56q219 0 331.5 -113t112.5 -307zM586 188q63 0 116.5 32.5t88.5 82.5t59.5 113t35.5 123t11 112q0 242 -195 242
q-73 0 -134 -40t-99.5 -105.5t-60 -145t-21.5 -162.5q0 -52 10.5 -95t32.5 -79.5t62 -57t94 -20.5zM1124 1237h-192l-96 215l-185 -215h-215l281 336h272z" />
    <glyph glyph-name="otilde" unicode="&#xf5;" horiz-adv-x="1241" 
d="M1171 686q0 -95 -21.5 -191.5t-69 -190.5t-116 -166.5t-171 -117.5t-224.5 -45q-228 0 -342 116t-114 312q0 143 43.5 271t121.5 224t194.5 152t254.5 56q219 0 331.5 -113t112.5 -307zM586 188q63 0 116.5 32.5t88.5 82.5t59.5 113t35.5 123t11 112q0 242 -195 242
q-73 0 -134 -40t-99.5 -105.5t-60 -145t-21.5 -162.5q0 -52 10.5 -95t32.5 -79.5t62 -57t94 -20.5zM866 1470q42 -29 64 -40t43 -11q39 0 60 32t32 95h160q-57 -301 -246 -301q-42 0 -80.5 15.5t-95.5 52.5q-50 34 -74 45.5t-47 11.5q-75 0 -100 -127h-160q27 147 95.5 223
t164.5 76q48 0 89 -16.5t95 -55.5z" />
    <glyph glyph-name="odieresis" unicode="&#xf6;" horiz-adv-x="1241" 
d="M1171 686q0 -95 -21.5 -191.5t-69 -190.5t-116 -166.5t-171 -117.5t-224.5 -45q-228 0 -342 116t-114 312q0 143 43.5 271t121.5 224t194.5 152t254.5 56q219 0 331.5 -113t112.5 -307zM586 188q63 0 116.5 32.5t88.5 82.5t59.5 113t35.5 123t11 112q0 242 -195 242
q-73 0 -134 -40t-99.5 -105.5t-60 -145t-21.5 -162.5q0 -52 10.5 -95t32.5 -79.5t62 -57t94 -20.5zM762 1522l-51 -242h-244l53 242h242zM1186 1522l-51 -242h-248l51 242h248z" />
    <glyph glyph-name="divide" unicode="&#xf7;" horiz-adv-x="1132" 
d="M496 160v241h245v-241h-245zM121 541v204h987v-204h-987zM496 883v241h245v-241h-245z" />
    <glyph glyph-name="oslash" unicode="&#xf8;" horiz-adv-x="1241" 
d="M37 39l131 129q-55 98 -55 235q0 143 43.5 271t121.5 224t194.5 152t254.5 56q186 0 299 -86l119 117l96 -97l-125 -122q55 -98 55 -232q0 -95 -21.5 -191.5t-69 -190.5t-116 -166.5t-171 -117.5t-224.5 -45q-197 0 -311 88l-123 -122zM387 440q0 -35 2 -53l455 451
q-49 55 -142 55q-73 0 -134 -40t-99.5 -105.5t-60 -145t-21.5 -162.5zM586 188q63 0 116.5 32.5t88.5 82.5t59.5 113t35.5 123t11 112q0 27 -2 45l-451 -448q50 -60 142 -60z" />
    <glyph glyph-name="ugrave" unicode="&#xf9;" horiz-adv-x="1253" 
d="M1010 0h-271l39 166h-4q-121 -191 -348 -191q-151 0 -232 87.5t-81 226.5q0 66 20 168l131 624h281l-121 -573q-25 -127 -25 -170q0 -150 140 -150q105 0 187.5 90.5t115.5 249.5l116 553h281zM707 1237l-248 336h286l162 -336h-200z" />
    <glyph glyph-name="uacute" unicode="&#xfa;" horiz-adv-x="1253" 
d="M1010 0h-271l39 166h-4q-121 -191 -348 -191q-151 0 -232 87.5t-81 226.5q0 66 20 168l131 624h281l-121 -573q-25 -127 -25 -170q0 -150 140 -150q105 0 187.5 90.5t115.5 249.5l116 553h281zM1192 1573l-338 -336h-217l250 336h305z" />
    <glyph glyph-name="ucircumflex" unicode="&#xfb;" horiz-adv-x="1253" 
d="M1010 0h-271l39 166h-4q-121 -191 -348 -191q-151 0 -232 87.5t-81 226.5q0 66 20 168l131 624h281l-121 -573q-25 -127 -25 -170q0 -150 140 -150q105 0 187.5 90.5t115.5 249.5l116 553h281zM1116 1237h-192l-97 215l-184 -215h-215l281 336h272z" />
    <glyph glyph-name="udieresis" unicode="&#xfc;" horiz-adv-x="1253" 
d="M1010 0h-271l39 166h-4q-121 -191 -348 -191q-151 0 -232 87.5t-81 226.5q0 66 20 168l131 624h281l-121 -573q-25 -127 -25 -170q0 -150 140 -150q105 0 187.5 90.5t115.5 249.5l116 553h281zM752 1522l-52 -242h-243l53 242h242zM1176 1522l-52 -242h-247l51 242h248z
" />
    <glyph glyph-name="yacute" unicode="&#xfd;" horiz-adv-x="1120" 
d="M459 1081l26 -780h4l461 780h318l-959 -1480h-305l246 385l-84 1095h293zM1151 1573l-338 -336h-217l250 336h305z" />
    <glyph glyph-name="thorn" unicode="&#xfe;" horiz-adv-x="1259" 
d="M-35 -399l406 1904h282l-118 -553h4q49 69 128 111.5t177 42.5q75 0 135.5 -24t100.5 -64.5t67 -96.5t39 -117t12 -128q0 -139 -39 -266t-109.5 -223.5t-176 -154t-230.5 -57.5q-202 0 -283 146h-4l-110 -520h-281zM612 188q61 0 113.5 29t88.5 76t61.5 107.5t37 122.5
t11.5 122q0 109 -45.5 178.5t-141.5 69.5t-170.5 -69.5t-111.5 -175t-37 -224.5q0 -108 48 -172t146 -64z" />
    <glyph glyph-name="ydieresis" unicode="&#xff;" horiz-adv-x="1120" 
d="M459 1081l26 -780h4l461 780h318l-959 -1480h-305l246 385l-84 1095h293zM702 1522l-51 -242h-243l53 242h241zM1126 1522l-51 -242h-248l52 242h247z" />
    <glyph glyph-name="Amacron" unicode="&#x100;" horiz-adv-x="1431" 
d="M442 360l-206 -360h-320l862 1462h377l170 -1462h-303l-37 360h-543zM920 1233l-357 -639h408zM1333 1812l-39 -178h-581l39 178h581z" />
    <glyph glyph-name="amacron" unicode="&#x101;" horiz-adv-x="1163" 
d="M797 680q10 39 10 65q0 148 -215 148q-126 0 -277 -47l-8 203q178 57 348 57q432 0 432 -328q0 -60 -16 -129l-88 -403q-35 -175 -35 -246h-239q-4 16 -4 41q0 43 6 92h-4q-109 -158 -324 -158q-134 0 -225.5 80t-91.5 228q0 65 16 118t48 92t72 69t95.5 50t110 33.5
t124.5 20.5t130 10t135 4zM760 500h-41q-85 0 -150 -8.5t-120.5 -29.5t-85 -60.5t-29.5 -96.5q0 -61 35 -96t96 -35q60 0 110 21.5t83 58t54 79t31 91.5zM1092 1489l-39 -178h-582l39 178h582z" />
    <glyph glyph-name="Abreve" unicode="&#x102;" horiz-adv-x="1431" 
d="M442 360l-206 -360h-320l862 1462h377l170 -1462h-303l-37 360h-543zM920 1233l-357 -639h408zM1194 1876h176q-26 -148 -116 -231.5t-253 -83.5q-83 0 -144 20.5t-95.5 55.5t-51 77.5t-16.5 91.5q0 33 6 70h170q-4 -28 -4 -43q0 -107 135 -107q87 0 132.5 36t60.5 114z
" />
    <glyph glyph-name="abreve" unicode="&#x103;" horiz-adv-x="1163" 
d="M797 680q10 39 10 65q0 148 -215 148q-126 0 -277 -47l-8 203q178 57 348 57q432 0 432 -328q0 -60 -16 -129l-88 -403q-35 -175 -35 -246h-239q-4 16 -4 41q0 43 6 92h-4q-109 -158 -324 -158q-134 0 -225.5 80t-91.5 228q0 65 16 118t48 92t72 69t95.5 50t110 33.5
t124.5 20.5t130 10t135 4zM760 500h-41q-85 0 -150 -8.5t-120.5 -29.5t-85 -60.5t-29.5 -96.5q0 -61 35 -96t96 -35q60 0 110 21.5t83 58t54 79t31 91.5zM967 1550h176q-55 -315 -367 -315q-83 0 -144 20.5t-95.5 56t-51 78t-16.5 91.5q0 31 6 69h168q-4 -28 -4 -43
q0 -108 135 -108q88 0 133 36t60 115z" />
    <glyph glyph-name="Aogonek" unicode="&#x104;" horiz-adv-x="1431" 
d="M442 360l-206 -360h-320l862 1462h377l170 -1462h-137q-104 -88 -141 -136t-37 -85q0 -51 73 -51q47 0 111 18l-6 -141q-83 -27 -172 -27q-54 0 -97.5 12t-75.5 46.5t-32 87.5q0 74 50 138.5t161 137.5l-37 360h-543zM920 1233l-357 -639h408z" />
    <glyph glyph-name="aogonek" unicode="&#x105;" horiz-adv-x="1163" 
d="M797 680q10 39 10 65q0 148 -215 148q-126 0 -277 -47l-8 203q178 57 348 57q432 0 432 -328q0 -60 -16 -129l-88 -403q-35 -175 -35 -246h-78q-104 -88 -141 -136t-37 -85q0 -51 74 -51q46 0 111 18l-7 -141q-82 -27 -172 -27q-39 0 -73.5 7t-65 23t-48 45.5t-17.5 70.5
q0 74 51 138.5t164 137.5q-4 16 -4 41q0 43 6 92h-4q-109 -158 -324 -158q-134 0 -225.5 80t-91.5 228q0 65 16 118t48 92t72 69t95.5 50t110 33.5t124.5 20.5t130 10t135 4zM760 500h-41q-85 0 -150 -8.5t-120.5 -29.5t-85 -60.5t-29.5 -96.5q0 -61 35 -96t96 -35
q60 0 110 21.5t83 58t54 79t31 91.5z" />
    <glyph glyph-name="Cacute" unicode="&#x106;" horiz-adv-x="1196" 
d="M1294 1442l-71 -230q-100 41 -234 41q-103 0 -192.5 -36.5t-153.5 -100t-110 -146.5t-68.5 -177.5t-22.5 -192.5q0 -83 21 -152.5t64 -124t115.5 -85.5t168.5 -31q142 0 248 33l-6 -226q-139 -39 -295 -39q-155 0 -273 46t-189.5 129.5t-107.5 191.5t-36 238
q0 184 58.5 348t164 288.5t265.5 197.5t351 73q180 0 303 -45zM1391 1860l-344 -297h-236l258 297h322z" />
    <glyph glyph-name="cacute" unicode="&#x107;" horiz-adv-x="919" 
d="M956 1077l-63 -209q-67 25 -145 25q-84 0 -154 -38.5t-114.5 -102t-68.5 -142.5t-24 -164q0 -53 12 -97t38.5 -81.5t74 -58.5t113.5 -21q89 0 168 27v-209q-115 -31 -215 -31q-120 0 -211.5 36t-145.5 99t-81 142.5t-27 173.5q0 138 43.5 261t123.5 216.5t203 148
t273 54.5q121 0 200 -29zM1122 1573l-338 -336h-217l250 336h305z" />
    <glyph glyph-name="Ccircumflex" unicode="&#x108;" horiz-adv-x="1196" 
d="M1294 1442l-71 -230q-100 41 -234 41q-103 0 -192.5 -36.5t-153.5 -100t-110 -146.5t-68.5 -177.5t-22.5 -192.5q0 -83 21 -152.5t64 -124t115.5 -85.5t168.5 -31q142 0 248 33l-6 -226q-139 -39 -295 -39q-155 0 -273 46t-189.5 129.5t-107.5 191.5t-36 238
q0 184 58.5 348t164 288.5t265.5 197.5t351 73q180 0 303 -45zM1337 1559h-219l-110 182l-191 -182h-235l301 309h284z" />
    <glyph glyph-name="ccircumflex" unicode="&#x109;" horiz-adv-x="919" 
d="M956 1077l-63 -209q-67 25 -145 25q-84 0 -154 -38.5t-114.5 -102t-68.5 -142.5t-24 -164q0 -53 12 -97t38.5 -81.5t74 -58.5t113.5 -21q89 0 168 27v-209q-115 -31 -215 -31q-120 0 -211.5 36t-145.5 99t-81 142.5t-27 173.5q0 138 43.5 261t123.5 216.5t203 148
t273 54.5q121 0 200 -29zM1042 1237h-192l-96 215l-185 -215h-215l281 336h272z" />
    <glyph glyph-name="Cdotaccent" unicode="&#x10a;" horiz-adv-x="1196" 
d="M1294 1442l-71 -230q-100 41 -234 41q-103 0 -192.5 -36.5t-153.5 -100t-110 -146.5t-68.5 -177.5t-22.5 -192.5q0 -83 21 -152.5t64 -124t115.5 -85.5t168.5 -31q142 0 248 33l-6 -226q-139 -39 -295 -39q-155 0 -273 46t-189.5 129.5t-107.5 191.5t-36 238
q0 184 58.5 348t164 288.5t265.5 197.5t351 73q180 0 303 -45zM1192 1853l-55 -258h-287l55 258h287z" />
    <glyph glyph-name="cdotaccent" unicode="&#x10b;" horiz-adv-x="919" 
d="M956 1077l-63 -209q-67 25 -145 25q-84 0 -154 -38.5t-114.5 -102t-68.5 -142.5t-24 -164q0 -53 12 -97t38.5 -81.5t74 -58.5t113.5 -21q89 0 168 27v-209q-115 -31 -215 -31q-120 0 -211.5 36t-145.5 99t-81 142.5t-27 173.5q0 138 43.5 261t123.5 216.5t203 148
t273 54.5q121 0 200 -29zM930 1532l-56 -260h-288l55 260h289z" />
    <glyph glyph-name="Ccaron" unicode="&#x10c;" horiz-adv-x="1196" 
d="M1294 1442l-71 -230q-100 41 -234 41q-103 0 -192.5 -36.5t-153.5 -100t-110 -146.5t-68.5 -177.5t-22.5 -192.5q0 -83 21 -152.5t64 -124t115.5 -85.5t168.5 -31q142 0 248 33l-6 -226q-139 -39 -295 -39q-155 0 -273 46t-189.5 129.5t-107.5 191.5t-36 238
q0 184 58.5 348t164 288.5t265.5 197.5t351 73q180 0 303 -45zM668 1868h219l112 -182l189 182h237l-301 -312h-284z" />
    <glyph glyph-name="ccaron" unicode="&#x10d;" horiz-adv-x="919" 
d="M956 1077l-63 -209q-67 25 -145 25q-84 0 -154 -38.5t-114.5 -102t-68.5 -142.5t-24 -164q0 -53 12 -97t38.5 -81.5t74 -58.5t113.5 -21q89 0 168 27v-209q-115 -31 -215 -31q-120 0 -211.5 36t-145.5 99t-81 142.5t-27 173.5q0 138 43.5 261t123.5 216.5t203 148
t273 54.5q121 0 200 -29zM444 1573h193l96 -217l185 217h212l-278 -336h-272z" />
    <glyph glyph-name="Dcaron" unicode="&#x10e;" horiz-adv-x="1476" 
d="M68 0l309 1462h442q310 0 467.5 -151t157.5 -430q0 -140 -33 -267.5t-103.5 -240t-172 -195t-248.5 -130.5t-324 -48h-495zM618 1231l-210 -1000h167q114 0 209 33t162 91.5t114 138.5t69 173.5t22 196.5q0 178 -90.5 272.5t-302.5 94.5h-140zM539 1868h219l112 -182
l189 182h237l-301 -312h-284z" />
    <glyph glyph-name="dcaron" unicode="&#x10f;" horiz-adv-x="1259" 
d="M952 963l117 542h281l-322 -1505h-262l29 131h-4q-48 -70 -128.5 -113t-179.5 -43q-79 0 -142.5 24t-105.5 64.5t-70 96.5t-40 117.5t-12 130.5q0 139 39.5 265.5t110 222.5t175.5 153t228 57q197 0 282 -143h4zM698 893q-61 0 -113.5 -29t-88 -76t-61 -107.5t-37 -122.5
t-11.5 -122q0 -108 46 -178t140 -70q96 0 171 70t112 175.5t37 223.5q0 107 -48.5 171.5t-146.5 64.5zM1686 1573l-142 -336h-162l103 336h201z" />
    <glyph glyph-name="Dcroat" unicode="&#x110;" horiz-adv-x="1476" 
d="M68 0l141 670h-125l35 161h125l133 631h442q310 0 467.5 -151t157.5 -430q0 -140 -33 -267.5t-103.5 -240t-172 -195t-248.5 -130.5t-324 -48h-495zM618 1231l-83 -400h253l-32 -161h-256l-92 -439h167q114 0 209 33t162 91.5t114 138.5t69 173.5t22 196.5
q0 178 -90.5 272.5t-302.5 94.5h-140z" />
    <glyph glyph-name="dcroat" unicode="&#x111;" horiz-adv-x="1259" 
d="M1417 1364l-37 -168h-96l-256 -1196h-262l29 131h-4q-48 -70 -128.5 -113t-179.5 -43q-79 0 -142.5 24t-105.5 64.5t-70 96.5t-40 117.5t-12 130.5q0 139 39.5 265.5t110 222.5t175.5 153t228 57q197 0 282 -143h4l52 233h-203l35 168h202l31 141h281l-31 -141h98z
M698 893q-61 0 -113.5 -29t-88 -76t-61 -107.5t-37 -122.5t-11.5 -122q0 -108 46 -178t140 -70q96 0 171 70t112 175.5t37 223.5q0 107 -48.5 171.5t-146.5 64.5z" />
    <glyph glyph-name="Emacron" unicode="&#x112;" horiz-adv-x="1116" 
d="M68 0l309 1462h815l-49 -231h-525l-77 -367h495l-49 -231h-498l-83 -402h579l-49 -231h-868zM1149 1812l-39 -178h-582l39 178h582z" />
    <glyph glyph-name="emacron" unicode="&#x113;" horiz-adv-x="1163" 
d="M1075 455h-692q-2 -16 -2 -41q0 -115 75 -170.5t212 -55.5q140 0 252 33l-9 -207q-140 -39 -299 -39q-246 0 -372.5 123.5t-126.5 337.5q0 104 25 202t75 182.5t119.5 148.5t165 100.5t204.5 36.5q204 0 309 -101t105 -292q0 -111 -41 -258zM690 911q-102 0 -175.5 -71.5
t-102.5 -182.5h444q8 33 8 72q0 182 -174 182zM1114 1489l-39 -178h-581l38 178h582z" />
    <glyph glyph-name="Ebreve" unicode="&#x114;" horiz-adv-x="1116" 
d="M68 0l309 1462h815l-49 -231h-525l-77 -367h495l-49 -231h-498l-83 -402h579l-49 -231h-868zM1026 1876h176q-56 -315 -368 -315q-83 0 -144.5 20.5t-96 55.5t-51 77.5t-16.5 91.5q0 33 6 70h170q-4 -28 -4 -43q0 -107 136 -107q87 0 132 36t60 114z" />
    <glyph glyph-name="ebreve" unicode="&#x115;" horiz-adv-x="1163" 
d="M1075 455h-692q-2 -16 -2 -41q0 -115 75 -170.5t212 -55.5q140 0 252 33l-9 -207q-140 -39 -299 -39q-246 0 -372.5 123.5t-126.5 337.5q0 104 25 202t75 182.5t119.5 148.5t165 100.5t204.5 36.5q204 0 309 -101t105 -292q0 -111 -41 -258zM690 911q-102 0 -175.5 -71.5
t-102.5 -182.5h444q8 33 8 72q0 182 -174 182zM985 1550h176q-55 -315 -366 -315q-83 0 -144.5 20.5t-96 56t-51 78t-16.5 91.5q0 25 7 69h168q-5 -35 -5 -43q0 -108 136 -108q88 0 132.5 36t59.5 115z" />
    <glyph glyph-name="Edotaccent" unicode="&#x116;" horiz-adv-x="1116" 
d="M68 0l309 1462h815l-49 -231h-525l-77 -367h495l-49 -231h-498l-83 -402h579l-49 -231h-868zM1008 1853l-56 -258h-286l55 258h287z" />
    <glyph glyph-name="edotaccent" unicode="&#x117;" horiz-adv-x="1163" 
d="M1075 455h-692q-2 -16 -2 -41q0 -115 75 -170.5t212 -55.5q140 0 252 33l-9 -207q-140 -39 -299 -39q-246 0 -372.5 123.5t-126.5 337.5q0 104 25 202t75 182.5t119.5 148.5t165 100.5t204.5 36.5q204 0 309 -101t105 -292q0 -111 -41 -258zM690 911q-102 0 -175.5 -71.5
t-102.5 -182.5h444q8 33 8 72q0 182 -174 182zM973 1532l-55 -260h-289l55 260h289z" />
    <glyph glyph-name="Eogonek" unicode="&#x118;" horiz-adv-x="1116" 
d="M68 0l309 1462h815l-49 -231h-525l-77 -367h495l-49 -231h-498l-83 -402h579l-49 -231h-55q-104 -88 -141.5 -136t-37.5 -85q0 -51 74 -51q46 0 111 18l-6 -141q-83 -27 -172 -27q-54 0 -97.5 12t-75.5 46.5t-32 87.5q0 74 50 138.5t161 137.5h-647z" />
    <glyph glyph-name="eogonek" unicode="&#x119;" horiz-adv-x="1163" 
d="M1075 455h-692q-2 -16 -2 -41q0 -115 75 -170.5t212 -55.5q140 0 252 33l-9 -207q-54 -13 -73 -16q-101 -87 -137.5 -134.5t-36.5 -84.5q0 -51 73 -51q47 0 111 18l-6 -141q-83 -27 -172 -27q-54 0 -97.5 12t-75.5 46.5t-32 87.5q0 67 42 126.5t134 124.5h-29
q-246 0 -372.5 123.5t-126.5 337.5q0 104 25 202t75 182.5t119.5 148.5t165 100.5t204.5 36.5q204 0 309 -101t105 -292q0 -111 -41 -258zM690 911q-102 0 -175.5 -71.5t-102.5 -182.5h444q8 33 8 72q0 182 -174 182z" />
    <glyph glyph-name="Ecaron" unicode="&#x11a;" horiz-adv-x="1116" 
d="M68 0l309 1462h815l-49 -231h-525l-77 -367h495l-49 -231h-498l-83 -402h579l-49 -231h-868zM492 1868h219l112 -182l189 182h237l-301 -312h-284z" />
    <glyph glyph-name="ecaron" unicode="&#x11b;" horiz-adv-x="1163" 
d="M1075 455h-692q-2 -16 -2 -41q0 -115 75 -170.5t212 -55.5q140 0 252 33l-9 -207q-140 -39 -299 -39q-246 0 -372.5 123.5t-126.5 337.5q0 104 25 202t75 182.5t119.5 148.5t165 100.5t204.5 36.5q204 0 309 -101t105 -292q0 -111 -41 -258zM690 911q-102 0 -175.5 -71.5
t-102.5 -182.5h444q8 33 8 72q0 182 -174 182zM492 1573h192l96 -217l185 217h213l-279 -336h-272z" />
    <glyph glyph-name="Gcircumflex" unicode="&#x11c;" horiz-adv-x="1445" 
d="M1401 1425l-90 -233q-54 28 -135.5 44.5t-163.5 16.5q-176 0 -307 -88t-197 -234t-66 -327q0 -174 99.5 -285.5t294.5 -111.5q83 0 147 20l82 389h-244l49 232h531l-172 -805q-174 -68 -426 -68q-165 0 -291.5 46.5t-204 129.5t-116.5 191.5t-39 237.5q0 150 35.5 285
t107.5 248.5t175 197t245.5 130t310.5 46.5q219 0 375 -62zM1391 1559h-220l-110 182l-191 -182h-235l301 309h285z" />
    <glyph glyph-name="gcircumflex" unicode="&#x11d;" horiz-adv-x="1259" 
d="M696 893q-75 0 -136 -40t-97.5 -104t-56 -136t-19.5 -142q0 -105 44.5 -170t141.5 -65q94 0 168 61.5t112 157t38 204.5q0 108 -48.5 171t-146.5 63zM766 82l18 80h-4q-111 -133 -297 -133t-278 111.5t-92 293.5q0 185 69.5 338t198.5 243.5t291 90.5q92 0 163 -37
t111 -106h4l27 118h280l-200 -952q-32 -149 -87 -252t-136.5 -163.5t-181.5 -86.5t-234 -26q-78 0 -170.5 12.5t-157.5 32.5l55 215q140 -43 279 -43q156 0 232.5 61.5t109.5 202.5zM1135 1237h-193l-96 215l-184 -215h-216l281 336h272z" />
    <glyph glyph-name="Gbreve" unicode="&#x11e;" horiz-adv-x="1445" 
d="M1401 1425l-90 -233q-54 28 -135.5 44.5t-163.5 16.5q-176 0 -307 -88t-197 -234t-66 -327q0 -174 99.5 -285.5t294.5 -111.5q83 0 147 20l82 389h-244l49 232h531l-172 -805q-174 -68 -426 -68q-165 0 -291.5 46.5t-204 129.5t-116.5 191.5t-39 237.5q0 150 35.5 285
t107.5 248.5t175 197t245.5 130t310.5 46.5q219 0 375 -62zM1235 1876h176q-26 -148 -116 -231.5t-253 -83.5q-83 0 -144 20.5t-95.5 55.5t-51 77.5t-16.5 91.5q0 33 6 70h170q-4 -28 -4 -43q0 -107 135 -107q87 0 132.5 36t60.5 114z" />
    <glyph glyph-name="gbreve" unicode="&#x11f;" horiz-adv-x="1259" 
d="M696 893q-75 0 -136 -40t-97.5 -104t-56 -136t-19.5 -142q0 -105 44.5 -170t141.5 -65q94 0 168 61.5t112 157t38 204.5q0 108 -48.5 171t-146.5 63zM766 82l18 80h-4q-111 -133 -297 -133t-278 111.5t-92 293.5q0 185 69.5 338t198.5 243.5t291 90.5q92 0 163 -37
t111 -106h4l27 118h280l-200 -952q-32 -149 -87 -252t-136.5 -163.5t-181.5 -86.5t-234 -26q-78 0 -170.5 12.5t-157.5 32.5l55 215q140 -43 279 -43q156 0 232.5 61.5t109.5 202.5zM983 1550h176q-55 -315 -366 -315q-83 0 -144.5 20.5t-96 56t-51 78t-16.5 91.5q0 25 7 69
h167q-4 -28 -4 -43q0 -108 136 -108q88 0 132.5 36t59.5 115z" />
    <glyph glyph-name="Gdotaccent" unicode="&#x120;" horiz-adv-x="1445" 
d="M1401 1425l-90 -233q-54 28 -135.5 44.5t-163.5 16.5q-176 0 -307 -88t-197 -234t-66 -327q0 -174 99.5 -285.5t294.5 -111.5q83 0 147 20l82 389h-244l49 232h531l-172 -805q-174 -68 -426 -68q-165 0 -291.5 46.5t-204 129.5t-116.5 191.5t-39 237.5q0 150 35.5 285
t107.5 248.5t175 197t245.5 130t310.5 46.5q219 0 375 -62zM1231 1853l-55 -258h-287l55 258h287z" />
    <glyph glyph-name="gdotaccent" unicode="&#x121;" horiz-adv-x="1259" 
d="M696 893q-75 0 -136 -40t-97.5 -104t-56 -136t-19.5 -142q0 -105 44.5 -170t141.5 -65q94 0 168 61.5t112 157t38 204.5q0 108 -48.5 171t-146.5 63zM766 82l18 80h-4q-111 -133 -297 -133t-278 111.5t-92 293.5q0 185 69.5 338t198.5 243.5t291 90.5q92 0 163 -37
t111 -106h4l27 118h280l-200 -952q-32 -149 -87 -252t-136.5 -163.5t-181.5 -86.5t-234 -26q-78 0 -170.5 12.5t-157.5 32.5l55 215q140 -43 279 -43q156 0 232.5 61.5t109.5 202.5zM979 1532l-55 -260h-289l55 260h289z" />
    <glyph glyph-name="Gcommaaccent" unicode="&#x122;" horiz-adv-x="1445" 
d="M1401 1425l-90 -233q-54 28 -135.5 44.5t-163.5 16.5q-176 0 -307 -88t-197 -234t-66 -327q0 -174 99.5 -285.5t294.5 -111.5q83 0 147 20l82 389h-244l49 232h531l-172 -805q-174 -68 -426 -68q-165 0 -291.5 46.5t-204 129.5t-116.5 191.5t-39 237.5q0 150 35.5 285
t107.5 248.5t175 197t245.5 130t310.5 46.5q219 0 375 -62zM836 -119l-273 -319h-203l191 319h285z" />
    <glyph glyph-name="gcommaaccent" unicode="&#x123;" horiz-adv-x="1259" 
d="M696 893q-75 0 -136 -40t-97.5 -104t-56 -136t-19.5 -142q0 -105 44.5 -170t141.5 -65q94 0 168 61.5t112 157t38 204.5q0 108 -48.5 171t-146.5 63zM766 82l18 80h-4q-111 -133 -297 -133t-278 111.5t-92 293.5q0 185 69.5 338t198.5 243.5t291 90.5q92 0 163 -37
t111 -106h4l27 118h280l-200 -952q-32 -149 -87 -252t-136.5 -163.5t-181.5 -86.5t-234 -26q-78 0 -170.5 12.5t-157.5 32.5l55 215q140 -43 279 -43q156 0 232.5 61.5t109.5 202.5zM594 1237l276 336h203l-196 -336h-283z" />
    <glyph glyph-name="Hcircumflex" unicode="&#x124;" horiz-adv-x="1449" 
d="M68 0l309 1462h291l-125 -598h549l125 598h288l-309 -1462h-289l133 633h-548l-134 -633h-290zM1337 1559h-219l-110 182l-191 -182h-235l301 309h284z" />
    <glyph glyph-name="hcircumflex" unicode="&#x125;" horiz-adv-x="1255" 
d="M371 1505h280l-129 -587h4q55 89 143 138.5t197 49.5q151 0 232.5 -88.5t81.5 -222.5q0 -74 -17 -148l-135 -647h-283l123 573q25 113 25 166q0 154 -143 154q-102 0 -184.5 -89t-116.5 -251l-115 -553h-283zM1198 1585h-219l-111 182l-190 -182h-236l301 309h285z" />
    <glyph glyph-name="Hbar" unicode="&#x126;" horiz-adv-x="1449" 
d="M1561 1126h-127l-238 -1126h-289l133 633h-548l-134 -633h-290l237 1126h-125l35 166h125l37 170h291l-37 -170h551l35 170h288l-37 -170h127zM543 864h549l55 262h-551z" />
    <glyph glyph-name="hbar" unicode="&#x127;" horiz-adv-x="1255" 
d="M371 1505h280l-30 -141h192l-37 -168h-192l-62 -278h4q55 89 143 138.5t197 49.5q151 0 232.5 -88.5t81.5 -222.5q0 -69 -13 -129l-139 -666h-283l123 573q25 123 25 166q0 154 -143 154q-102 0 -184.5 -89t-116.5 -251l-115 -553h-283l254 1196h-108l34 168h109z" />
    <glyph glyph-name="Itilde" unicode="&#x128;" horiz-adv-x="612" 
d="M68 0l309 1462h291l-310 -1462h-290zM621 1790q42 -31 63 -42t43 -11q38 0 59.5 32.5t32.5 94.5h160q-57 -299 -246 -299q-42 0 -81 15.5t-95 51.5q-50 34 -75 46t-48 12q-73 0 -98 -127h-160q26 147 93.5 223t162.5 76q49 0 91.5 -16.5t97.5 -55.5z" />
    <glyph glyph-name="itilde" unicode="&#x129;" horiz-adv-x="563" 
d="M281 1081h282l-229 -1081h-283zM535 1470q42 -30 63.5 -40.5t42.5 -10.5q39 0 60 32t32 95h160q-57 -301 -246 -301q-42 0 -80.5 15.5t-95.5 52.5q-50 34 -74 45.5t-47 11.5q-75 0 -100 -127h-160q27 147 95.5 223t164.5 76q49 0 90 -16.5t95 -55.5z" />
    <glyph glyph-name="Imacron" unicode="&#x12a;" horiz-adv-x="612" 
d="M68 0l309 1462h291l-310 -1462h-290zM889 1812l-39 -178h-582l39 178h582z" />
    <glyph glyph-name="imacron" unicode="&#x12b;" horiz-adv-x="563" 
d="M281 1081h282l-229 -1081h-283zM801 1489l-39 -178h-582l39 178h582z" />
    <glyph glyph-name="Ibreve" unicode="&#x12c;" horiz-adv-x="612" 
d="M68 0l309 1462h291l-310 -1462h-290zM768 1876h176q-26 -148 -116 -231.5t-253 -83.5q-83 0 -144 20.5t-95.5 55.5t-51 77.5t-16.5 91.5q0 33 6 70h170q-4 -28 -4 -43q0 -107 135 -107q87 0 132.5 36t60.5 114z" />
    <glyph glyph-name="ibreve" unicode="&#x12d;" horiz-adv-x="563" 
d="M281 1081h282l-229 -1081h-283zM672 1550h176q-55 -315 -367 -315q-83 0 -144 20.5t-95.5 56t-51 78t-16.5 91.5q0 31 6 69h168q-4 -28 -4 -43q0 -108 135 -108q88 0 133 36t60 115z" />
    <glyph glyph-name="Iogonek" unicode="&#x12e;" horiz-adv-x="612" 
d="M68 0l309 1462h291l-310 -1462h-86q-104 -88 -141 -136t-37 -85q0 -51 74 -51q47 0 111 18l-7 -141q-83 -27 -172 -27q-39 0 -73.5 7t-65 23t-48 45.5t-17.5 70.5q0 73 50 137.5t160 138.5h-38z" />
    <glyph glyph-name="iogonek" unicode="&#x12f;" horiz-adv-x="563" 
d="M281 1081h282l-229 -1081h-60q-104 -88 -141 -136t-37 -85q0 -51 74 -51q47 0 111 18l-7 -141q-82 -27 -172 -27q-39 0 -73.5 7t-65 23t-48 45.5t-17.5 70.5q0 73 50.5 137.5t160.5 138.5h-58zM365 1499h286l-55 -252h-285z" />
    <glyph glyph-name="Idotaccent" unicode="&#x130;" horiz-adv-x="612" 
d="M68 0l309 1462h291l-310 -1462h-290zM750 1853l-56 -258h-286l55 258h287z" />
    <glyph glyph-name="dotlessi" unicode="&#x131;" horiz-adv-x="563" 
d="M281 1081h282l-229 -1081h-283z" />
    <glyph glyph-name="Jcircumflex" unicode="&#x134;" horiz-adv-x="763" 
d="M834 1462l-232 -1095q-21 -100 -52 -168t-85 -121t-137.5 -78t-202.5 -25q-101 0 -174 17l51 229q52 -14 123 -14q85 0 128.5 44t65.5 148l224 1063h291zM1073 1559h-219l-111 182l-190 -182h-236l301 309h285z" />
    <glyph glyph-name="jcircumflex" unicode="&#x135;" horiz-adv-x="563" 
d="M563 1081l-237 -1122q-15 -68 -33.5 -118.5t-51 -98t-76.5 -77t-110.5 -47t-152.5 -17.5q-68 0 -140 10l31 211q47 -8 90 -8q74 0 110.5 43.5t55.5 132.5l234 1091h280zM786 1237h-192l-96 215l-185 -215h-215l281 336h272z" />
    <glyph glyph-name="Kcommaaccent" unicode="&#x136;" horiz-adv-x="1298" 
d="M1116 1462h359l-652 -721l394 -741h-336l-365 727h-4l-154 -727h-290l309 1462h291l-146 -686h4zM717 -119l-273 -319h-202l190 319h285z" />
    <glyph glyph-name="kcommaaccent" unicode="&#x137;" horiz-adv-x="1112" 
d="M899 1081h332l-490 -503l310 -578h-314l-282 569h-4l-119 -569h-281l320 1505h280l-190 -891h4zM651 -119l-272 -319h-203l191 319h284z" />
    <glyph glyph-name="kgreenlandic" unicode="&#x138;" horiz-adv-x="1112" 
d="M899 1081h332l-490 -503l310 -578h-314l-282 569h-4l-119 -569h-281l230 1081h280l-100 -467h4z" />
    <glyph glyph-name="Lacute" unicode="&#x139;" horiz-adv-x="1032" 
d="M68 0l309 1462h291l-260 -1231h550l-49 -231h-841zM1010 1860l-344 -297h-236l258 297h322z" />
    <glyph glyph-name="lacute" unicode="&#x13a;" horiz-adv-x="563" 
d="M985 1898l-344 -296h-235l258 296h321zM371 1505h280l-319 -1505h-281z" />
    <glyph glyph-name="Lcommaaccent" unicode="&#x13b;" horiz-adv-x="1032" 
d="M68 0l309 1462h291l-260 -1231h550l-49 -231h-841zM608 -119l-272 -319h-203l191 319h284z" />
    <glyph glyph-name="lcommaaccent" unicode="&#x13c;" horiz-adv-x="563" 
d="M309 -119l-272 -319h-203l191 319h284zM371 1505h280l-319 -1505h-281z" />
    <glyph glyph-name="Lcaron" unicode="&#x13d;" horiz-adv-x="1032" 
d="M68 0l309 1462h291l-260 -1231h550l-49 -231h-841zM1055 1573l-142 -336h-161l102 336h201z" />
    <glyph glyph-name="lcaron" unicode="&#x13e;" horiz-adv-x="563" 
d="M985 1573l-141 -336h-162l102 336h201zM371 1505h280l-319 -1505h-281z" />
    <glyph glyph-name="Ldot" unicode="&#x13f;" horiz-adv-x="1069" 
d="M68 0l309 1462h291l-260 -1231h550l-49 -231h-841zM1104 999l-55 -260h-289l55 260h289z" />
    <glyph glyph-name="ldot" unicode="&#x140;" horiz-adv-x="843" 
d="M371 1505h280l-319 -1505h-281zM956 942l-55 -260h-289l56 260h288z" />
    <glyph glyph-name="Lslash" unicode="&#x141;" horiz-adv-x="1032" 
d="M68 0l133 631l-154 -82l39 186l154 80l137 647h291l-107 -497l223 114l-39 -184l-223 -117l-114 -547h550l-49 -231h-841z" />
    <glyph glyph-name="lslash" unicode="&#x142;" horiz-adv-x="591" 
d="M385 1505h281l-109 -512l162 88l-41 -182l-160 -86l-172 -813h-280l139 664l-152 -84l39 182l152 82z" />
    <glyph glyph-name="Nacute" unicode="&#x143;" horiz-adv-x="1488" 
d="M834 1462l182 -1167h4l246 1167h280l-309 -1462h-440l-195 1184h-4l-250 -1184h-280l309 1462h457zM1397 1860l-344 -297h-236l258 297h322z" />
    <glyph glyph-name="nacute" unicode="&#x144;" horiz-adv-x="1253" 
d="M281 1081h272l-39 -166h4q121 191 346 191q152 0 234 -87t82 -226q0 -61 -21 -168l-131 -625h-283l123 573q25 119 25 170q0 150 -139 150q-105 0 -188.5 -91t-116.5 -249l-117 -553h-281zM1233 1573l-338 -336h-217l250 336h305z" />
    <glyph glyph-name="Ncommaaccent" unicode="&#x145;" horiz-adv-x="1488" 
d="M834 1462l182 -1167h4l246 1167h280l-309 -1462h-440l-195 1184h-4l-250 -1184h-280l309 1462h457zM840 -119l-273 -319h-202l190 319h285z" />
    <glyph glyph-name="ncommaaccent" unicode="&#x146;" horiz-adv-x="1253" 
d="M281 1081h272l-39 -166h4q121 191 346 191q152 0 234 -87t82 -226q0 -61 -21 -168l-131 -625h-283l123 573q25 119 25 170q0 150 -139 150q-105 0 -188.5 -91t-116.5 -249l-117 -553h-281zM666 -119l-273 -319h-203l191 319h285z" />
    <glyph glyph-name="Ncaron" unicode="&#x147;" horiz-adv-x="1488" 
d="M834 1462l182 -1167h4l246 1167h280l-309 -1462h-440l-195 1184h-4l-250 -1184h-280l309 1462h457zM672 1868h219l113 -182l188 182h238l-302 -312h-284z" />
    <glyph glyph-name="ncaron" unicode="&#x148;" horiz-adv-x="1253" 
d="M281 1081h272l-39 -166h4q121 191 346 191q152 0 234 -87t82 -226q0 -61 -21 -168l-131 -625h-283l123 573q25 119 25 170q0 150 -139 150q-105 0 -188.5 -91t-116.5 -249l-117 -553h-281zM561 1573h193l96 -217l184 217h213l-278 -336h-273z" />
    <glyph glyph-name="Eng" unicode="&#x14a;" horiz-adv-x="1488" 
d="M834 1462l182 -1167h4l246 1167h280l-317 -1503q-15 -68 -33.5 -118.5t-51 -98t-76.5 -77t-110.5 -47t-152.5 -17.5q-67 0 -139 10l30 211q47 -8 90 -8q74 0 110.5 43.5t55.5 132.5l2 10h-157l-195 1184h-4l-250 -1184h-280l309 1462h457z" />
    <glyph glyph-name="eng" unicode="&#x14b;" horiz-adv-x="1253" 
d="M281 1081h272l-39 -166h4q121 191 346 191q152 0 234 -87t82 -226q0 -61 -21 -168l-139 -666q-15 -68 -33.5 -118.5t-51 -98t-76.5 -77t-110.5 -47t-152.5 -17.5q-67 0 -139 10l30 211q47 -8 91 -8q74 0 110 43.5t55 132.5l125 583q25 119 25 170q0 150 -139 150
q-105 0 -188.5 -91t-116.5 -249l-117 -553h-281z" />
    <glyph glyph-name="Omacron" unicode="&#x14c;" horiz-adv-x="1548" 
d="M1520 926q0 -94 -14 -187.5t-45 -188t-76 -178.5t-110.5 -157t-145.5 -126t-185.5 -83.5t-224.5 -30.5q-147 0 -257.5 42.5t-177 119.5t-99.5 178.5t-33 225.5q0 150 32.5 289t99 258.5t160 208.5t224.5 139.5t284 50.5q142 0 251.5 -42t178 -117.5t103.5 -177t35 -224.5
zM748 211q96 0 177.5 44t136 115.5t92.5 163t55.5 184.5t17.5 183q0 159 -74.5 254.5t-230.5 95.5q-110 0 -202 -59.5t-151.5 -157.5t-92 -220t-32.5 -251q0 -159 75 -255.5t229 -96.5zM1354 1812l-39 -178h-582l39 178h582z" />
    <glyph glyph-name="omacron" unicode="&#x14d;" horiz-adv-x="1241" 
d="M1171 686q0 -95 -21.5 -191.5t-69 -190.5t-116 -166.5t-171 -117.5t-224.5 -45q-228 0 -342 116t-114 312q0 143 43.5 271t121.5 224t194.5 152t254.5 56q219 0 331.5 -113t112.5 -307zM586 188q63 0 116.5 32.5t88.5 82.5t59.5 113t35.5 123t11 112q0 242 -195 242
q-73 0 -134 -40t-99.5 -105.5t-60 -145t-21.5 -162.5q0 -52 10.5 -95t32.5 -79.5t62 -57t94 -20.5zM1137 1489l-39 -178h-582l39 178h582z" />
    <glyph glyph-name="Obreve" unicode="&#x14e;" horiz-adv-x="1548" 
d="M1520 926q0 -94 -14 -187.5t-45 -188t-76 -178.5t-110.5 -157t-145.5 -126t-185.5 -83.5t-224.5 -30.5q-147 0 -257.5 42.5t-177 119.5t-99.5 178.5t-33 225.5q0 150 32.5 289t99 258.5t160 208.5t224.5 139.5t284 50.5q142 0 251.5 -42t178 -117.5t103.5 -177t35 -224.5
zM748 211q96 0 177.5 44t136 115.5t92.5 163t55.5 184.5t17.5 183q0 159 -74.5 254.5t-230.5 95.5q-110 0 -202 -59.5t-151.5 -157.5t-92 -220t-32.5 -251q0 -159 75 -255.5t229 -96.5zM1229 1876h176q-26 -148 -116 -231.5t-253 -83.5q-83 0 -144 20.5t-95.5 55.5t-51 77.5
t-16.5 91.5q0 33 6 70h170q-4 -28 -4 -43q0 -107 135 -107q87 0 132.5 36t60.5 114z" />
    <glyph glyph-name="obreve" unicode="&#x14f;" horiz-adv-x="1241" 
d="M1171 686q0 -95 -21.5 -191.5t-69 -190.5t-116 -166.5t-171 -117.5t-224.5 -45q-228 0 -342 116t-114 312q0 143 43.5 271t121.5 224t194.5 152t254.5 56q219 0 331.5 -113t112.5 -307zM586 188q63 0 116.5 32.5t88.5 82.5t59.5 113t35.5 123t11 112q0 242 -195 242
q-73 0 -134 -40t-99.5 -105.5t-60 -145t-21.5 -162.5q0 -52 10.5 -95t32.5 -79.5t62 -57t94 -20.5zM1012 1550h176q-55 -315 -367 -315q-83 0 -144 20.5t-95.5 56t-51 78t-16.5 91.5q0 31 6 69h168q-4 -28 -4 -43q0 -108 135 -108q88 0 133 36t60 115z" />
    <glyph glyph-name="Ohungarumlaut" unicode="&#x150;" horiz-adv-x="1548" 
d="M1520 926q0 -94 -14 -187.5t-45 -188t-76 -178.5t-110.5 -157t-145.5 -126t-185.5 -83.5t-224.5 -30.5q-147 0 -257.5 42.5t-177 119.5t-99.5 178.5t-33 225.5q0 150 32.5 289t99 258.5t160 208.5t224.5 139.5t284 50.5q142 0 251.5 -42t178 -117.5t103.5 -177t35 -224.5
zM748 211q96 0 177.5 44t136 115.5t92.5 163t55.5 184.5t17.5 183q0 159 -74.5 254.5t-230.5 95.5q-110 0 -202 -59.5t-151.5 -157.5t-92 -220t-32.5 -251q0 -159 75 -255.5t229 -96.5zM1556 1870l-307 -307h-213l262 307h258zM1186 1870l-297 -307h-205l252 307h250z" />
    <glyph glyph-name="ohungarumlaut" unicode="&#x151;" horiz-adv-x="1241" 
d="M1171 686q0 -95 -21.5 -191.5t-69 -190.5t-116 -166.5t-171 -117.5t-224.5 -45q-228 0 -342 116t-114 312q0 143 43.5 271t121.5 224t194.5 152t254.5 56q219 0 331.5 -113t112.5 -307zM586 188q63 0 116.5 32.5t88.5 82.5t59.5 113t35.5 123t11 112q0 242 -195 242
q-73 0 -134 -40t-99.5 -105.5t-60 -145t-21.5 -162.5q0 -52 10.5 -95t32.5 -79.5t62 -57t94 -20.5zM1368 1573l-307 -336h-213l262 336h258zM997 1573l-297 -336h-204l252 336h249z" />
    <glyph glyph-name="OE" unicode="&#x152;" horiz-adv-x="1953" 
d="M1774 0h-994q-311 0 -469.5 153.5t-158.5 426.5q0 141 33.5 269.5t104 241t172.5 194.5t246.5 129.5t317.5 47.5h1004l-50 -231h-524l-78 -367h496l-49 -231h-498l-84 -402h580zM446 594q0 -175 90 -269t295 -94h123l211 1000h-153q-138 0 -247.5 -51.5t-178 -140
t-104.5 -202t-36 -243.5z" />
    <glyph glyph-name="oe" unicode="&#x153;" horiz-adv-x="1923" 
d="M1679 221l-8 -207q-140 -39 -299 -39q-287 0 -401 189q-145 -189 -402 -189q-228 0 -342 116t-114 312q0 143 43.5 271t121.5 224t194.5 152t254.5 56q118 0 209.5 -45t134.5 -131q71 86 173.5 131t217.5 45q203 0 308.5 -101.5t105.5 -291.5q0 -111 -41 -258h-692
q-2 -14 -2 -41q0 -113 75 -169.5t211 -56.5q140 0 252 33zM586 188q63 0 116.5 32.5t88.5 82.5t59.5 113t35.5 123t11 112q0 242 -195 242q-73 0 -134 -40t-99.5 -105.5t-60 -145t-21.5 -162.5q0 -52 10.5 -95t32.5 -79.5t62 -57t94 -20.5zM1450 911q-103 0 -176.5 -71
t-102.5 -183h445q8 36 8 74q0 84 -42 132t-132 48z" />
    <glyph glyph-name="Racute" unicode="&#x154;" horiz-adv-x="1343" 
d="M68 0l309 1462h528q73 0 136.5 -11t120.5 -37.5t97 -66.5t63.5 -101t23.5 -138q0 -162 -86 -260.5t-230 -138.5v-4q53 -23 83 -69t46 -144q74 -438 84 -492h-305q-2 12 -26 178.5t-35 233.5q-19 114 -67 150t-179 36h-148l-125 -598h-290zM618 1231l-83 -404h190
q70 0 126 12.5t101 39t70 73t25 109.5q0 170 -244 170h-185zM1298 1860l-344 -297h-235l258 297h321z" />
    <glyph glyph-name="racute" unicode="&#x155;" horiz-adv-x="808" 
d="M915 1102l-57 -217q-31 8 -74 8q-122 0 -212.5 -94.5t-131.5 -288.5l-108 -510h-281l230 1081h272l-35 -149h4q116 174 314 174q39 0 79 -4zM963 1573l-338 -336h-217l249 336h306z" />
    <glyph glyph-name="Rcommaaccent" unicode="&#x156;" horiz-adv-x="1343" 
d="M68 0l309 1462h528q73 0 136.5 -11t120.5 -37.5t97 -66.5t63.5 -101t23.5 -138q0 -162 -86 -260.5t-230 -138.5v-4q53 -23 83 -69t46 -144q74 -438 84 -492h-305q-2 12 -26 178.5t-35 233.5q-19 114 -67 150t-179 36h-148l-125 -598h-290zM618 1231l-83 -404h190
q70 0 126 12.5t101 39t70 73t25 109.5q0 170 -244 170h-185zM754 -119l-273 -319h-202l190 319h285z" />
    <glyph glyph-name="rcommaaccent" unicode="&#x157;" horiz-adv-x="808" 
d="M915 1102l-57 -217q-31 8 -74 8q-122 0 -212.5 -94.5t-131.5 -288.5l-108 -510h-281l230 1081h272l-35 -149h4q116 174 314 174q39 0 79 -4zM332 -119l-273 -319h-202l190 319h285z" />
    <glyph glyph-name="Rcaron" unicode="&#x158;" horiz-adv-x="1343" 
d="M68 0l309 1462h528q73 0 136.5 -11t120.5 -37.5t97 -66.5t63.5 -101t23.5 -138q0 -162 -86 -260.5t-230 -138.5v-4q53 -23 83 -69t46 -144q74 -438 84 -492h-305q-2 12 -26 178.5t-35 233.5q-19 114 -67 150t-179 36h-148l-125 -598h-290zM618 1231l-83 -404h190
q70 0 126 12.5t101 39t70 73t25 109.5q0 170 -244 170h-185zM565 1868h219l113 -182l188 182h238l-301 -312h-285z" />
    <glyph glyph-name="rcaron" unicode="&#x159;" horiz-adv-x="808" 
d="M915 1102l-57 -217q-31 8 -74 8q-122 0 -212.5 -94.5t-131.5 -288.5l-108 -510h-281l230 1081h272l-35 -149h4q116 174 314 174q39 0 79 -4zM326 1573h192l96 -217l185 217h213l-279 -336h-272z" />
    <glyph glyph-name="Sacute" unicode="&#x15a;" horiz-adv-x="1095" 
d="M1126 1419l-67 -229q-148 65 -314 65q-41 0 -78 -8t-71.5 -25.5t-55 -51.5t-20.5 -80q0 -65 40 -112.5t151 -119.5q78 -51 128.5 -93t93 -94t62 -112.5t19.5 -134.5q0 -117 -46.5 -206t-125 -140.5t-172 -77t-197.5 -25.5q-231 0 -442 80l75 236q198 -84 367 -84
q117 0 183.5 47t66.5 137q0 70 -45 123.5t-164 128.5q-152 97 -217.5 189t-65.5 225q0 89 30.5 163t81 122.5t117.5 82t138 48t145 14.5q225 0 383 -68zM1217 1860l-345 -297h-235l258 297h322z" />
    <glyph glyph-name="sacute" unicode="&#x15b;" horiz-adv-x="933" 
d="M918 1049l-74 -207q-121 51 -248 51q-69 0 -115.5 -24.5t-46.5 -77.5q0 -38 31.5 -69t118.5 -81q134 -76 195 -151t61 -177q0 -94 -38.5 -162t-105.5 -105t-144.5 -54t-168.5 -17q-87 0 -189 16.5t-178 45.5l72 211q145 -60 289 -60q174 0 174 103q0 44 -35 79t-127 87
q-125 68 -180 139.5t-55 167.5q0 76 27 136t70.5 98t104 63t122.5 35t130 10q167 0 310 -57zM1051 1573l-338 -336h-217l249 336h306z" />
    <glyph glyph-name="Scircumflex" unicode="&#x15c;" horiz-adv-x="1095" 
d="M1126 1419l-67 -229q-148 65 -314 65q-41 0 -78 -8t-71.5 -25.5t-55 -51.5t-20.5 -80q0 -65 40 -112.5t151 -119.5q78 -51 128.5 -93t93 -94t62 -112.5t19.5 -134.5q0 -117 -46.5 -206t-125 -140.5t-172 -77t-197.5 -25.5q-231 0 -442 80l75 236q198 -84 367 -84
q117 0 183.5 47t66.5 137q0 70 -45 123.5t-164 128.5q-152 97 -217.5 189t-65.5 225q0 89 30.5 163t81 122.5t117.5 82t138 48t145 14.5q225 0 383 -68zM1147 1559h-219l-111 182l-190 -182h-236l301 309h285z" />
    <glyph glyph-name="scircumflex" unicode="&#x15d;" horiz-adv-x="933" 
d="M918 1049l-74 -207q-121 51 -248 51q-69 0 -115.5 -24.5t-46.5 -77.5q0 -38 31.5 -69t118.5 -81q134 -76 195 -151t61 -177q0 -94 -38.5 -162t-105.5 -105t-144.5 -54t-168.5 -17q-87 0 -189 16.5t-178 45.5l72 211q145 -60 289 -60q174 0 174 103q0 44 -35 79t-127 87
q-125 68 -180 139.5t-55 167.5q0 76 27 136t70.5 98t104 63t122.5 35t130 10q167 0 310 -57zM967 1237h-193l-96 215l-184 -215h-215l280 336h272z" />
    <glyph glyph-name="Scedilla" unicode="&#x15e;" horiz-adv-x="1095" 
d="M1126 1419l-67 -229q-148 65 -314 65q-41 0 -78 -8t-71.5 -25.5t-55 -51.5t-20.5 -80q0 -65 40 -112.5t151 -119.5q78 -51 128.5 -93t93 -94t62 -112.5t19.5 -134.5q0 -89 -28 -163t-75 -124t-111.5 -85.5t-135 -53t-148.5 -21.5l-27 -73q16 2 39 2q68 0 113 -38t45 -106
q0 -206 -299 -206q-77 0 -145 12l32 121q49 -8 109 -8q131 0 131 65q0 29 -24 40t-80 11q-50 0 -103 -6l64 189q-182 13 -340 75l75 236q198 -84 367 -84q117 0 183.5 47t66.5 137q0 70 -45 123.5t-164 128.5q-152 97 -217.5 189t-65.5 225q0 89 30.5 163t81 122.5t117.5 82
t138 48t145 14.5q225 0 383 -68z" />
    <glyph glyph-name="scedilla" unicode="&#x15f;" horiz-adv-x="933" 
d="M918 1049l-74 -207q-121 51 -248 51q-69 0 -115.5 -24.5t-46.5 -77.5q0 -38 31.5 -69t118.5 -81q134 -76 195 -151t61 -177q0 -86 -32.5 -150.5t-90 -102.5t-126 -58t-151.5 -25l-26 -73q16 2 39 2q68 0 112.5 -38t44.5 -106q0 -206 -299 -206q-77 0 -145 12l33 121
q49 -8 108 -8q131 0 131 65q0 29 -24 40t-80 11q-50 0 -103 -6l64 189q-173 15 -279 57l72 211q145 -60 289 -60q174 0 174 103q0 44 -35 79t-127 87q-125 68 -180 139.5t-55 167.5q0 76 27 136t70.5 98t104 63t122.5 35t130 10q167 0 310 -57z" />
    <glyph glyph-name="Scaron" unicode="&#x160;" horiz-adv-x="1095" 
d="M1126 1419l-67 -229q-148 65 -314 65q-41 0 -78 -8t-71.5 -25.5t-55 -51.5t-20.5 -80q0 -65 40 -112.5t151 -119.5q78 -51 128.5 -93t93 -94t62 -112.5t19.5 -134.5q0 -117 -46.5 -206t-125 -140.5t-172 -77t-197.5 -25.5q-231 0 -442 80l75 236q198 -84 367 -84
q117 0 183.5 47t66.5 137q0 70 -45 123.5t-164 128.5q-152 97 -217.5 189t-65.5 225q0 89 30.5 163t81 122.5t117.5 82t138 48t145 14.5q225 0 383 -68zM469 1868h219l113 -182l188 182h238l-301 -312h-285z" />
    <glyph glyph-name="scaron" unicode="&#x161;" horiz-adv-x="933" 
d="M918 1049l-74 -207q-121 51 -248 51q-69 0 -115.5 -24.5t-46.5 -77.5q0 -38 31.5 -69t118.5 -81q134 -76 195 -151t61 -177q0 -94 -38.5 -162t-105.5 -105t-144.5 -54t-168.5 -17q-87 0 -189 16.5t-178 45.5l72 211q145 -60 289 -60q174 0 174 103q0 44 -35 79t-127 87
q-125 68 -180 139.5t-55 167.5q0 76 27 136t70.5 98t104 63t122.5 35t130 10q167 0 310 -57zM348 1573h193l96 -217l184 217h213l-278 -336h-273z" />
    <glyph glyph-name="uni0162" unicode="&#x162;" horiz-adv-x="1087" 
d="M301 0l260 1231h-381l51 231h1039l-51 -231h-369l-258 -1231h-291zM567 -119l-272 -319h-203l191 319h284z" />
    <glyph glyph-name="uni0163" unicode="&#x163;" horiz-adv-x="747" 
d="M106 870l46 211h176l61 287h281l-62 -287h213l-45 -211h-213l-104 -489q-15 -68 -15 -98q0 -40 25 -58t82 -18q54 0 104 8l-43 -215q-75 -10 -166 -10q-151 0 -221.5 52t-70.5 165q0 56 16 131l113 532h-177zM526 -119l-272 -319h-203l191 319h284z" />
    <glyph glyph-name="Tcaron" unicode="&#x164;" horiz-adv-x="1087" 
d="M301 0l260 1231h-381l51 231h1039l-51 -231h-369l-258 -1231h-291zM461 1868h219l113 -182l188 182h238l-301 -312h-285z" />
    <glyph glyph-name="tcaron" unicode="&#x165;" horiz-adv-x="747" 
d="M106 870l46 211h176l61 287h281l-62 -287h213l-45 -211h-213l-104 -489q-15 -68 -15 -98q0 -40 25 -58t82 -18q54 0 104 8l-43 -215q-75 -10 -166 -10q-151 0 -221.5 52t-70.5 165q0 56 16 131l113 532h-177zM1069 1573l-141 -336h-162l102 336h201z" />
    <glyph glyph-name="Tbar" unicode="&#x166;" horiz-adv-x="1087" 
d="M301 0l156 733h-193l33 156h192l72 342h-381l51 231h1039l-51 -231h-369l-72 -342h193l-33 -156h-193l-153 -733h-291z" />
    <glyph glyph-name="tbar" unicode="&#x167;" horiz-adv-x="747" 
d="M643 479h-162l-22 -98q-15 -68 -15 -98q0 -40 25 -58t82 -18q54 0 104 8l-43 -215q-75 -10 -166 -10q-151 0 -221.5 52t-70.5 165q0 56 16 131l29 141h-144l35 160h143l50 231h-177l46 211h176l61 287h281l-62 -287h213l-45 -211h-213l-49 -231h164z" />
    <glyph glyph-name="Utilde" unicode="&#x168;" horiz-adv-x="1415" 
d="M1489 1462l-219 -1030q-97 -457 -623 -457q-113 0 -205 21t-162.5 64t-109.5 114.5t-39 165.5q0 68 14 133l211 989h291l-201 -952q-16 -74 -16 -115q0 -97 63 -142.5t173 -45.5q145 0 220 63.5t103 198.5l211 993h289zM1030 1790q42 -30 63.5 -41.5t43.5 -11.5
q38 0 59.5 32.5t32.5 94.5h160q-57 -299 -246 -299q-42 0 -81 15.5t-95 51.5q-50 34 -75 46t-48 12q-74 0 -99 -127h-159q26 147 93.5 223t162.5 76q49 0 91 -16.5t97 -55.5z" />
    <glyph glyph-name="utilde" unicode="&#x169;" horiz-adv-x="1253" 
d="M1010 0h-271l39 166h-4q-121 -191 -348 -191q-151 0 -232 87.5t-81 226.5q0 66 20 168l131 624h281l-121 -573q-25 -127 -25 -170q0 -150 140 -150q105 0 187.5 90.5t115.5 249.5l116 553h281zM862 1470q42 -29 64 -40t43 -11q39 0 60 32t32 95h160q-57 -301 -246 -301
q-42 0 -80.5 15.5t-95.5 52.5q-50 34 -74 45.5t-47 11.5q-75 0 -100 -127h-160q27 147 95.5 223t164.5 76q48 0 89 -16.5t95 -55.5z" />
    <glyph glyph-name="Umacron" unicode="&#x16a;" horiz-adv-x="1415" 
d="M1489 1462l-219 -1030q-97 -457 -623 -457q-113 0 -205 21t-162.5 64t-109.5 114.5t-39 165.5q0 68 14 133l211 989h291l-201 -952q-16 -74 -16 -115q0 -97 63 -142.5t173 -45.5q145 0 220 63.5t103 198.5l211 993h289zM1288 1812l-39 -178h-581l39 178h581z" />
    <glyph glyph-name="umacron" unicode="&#x16b;" horiz-adv-x="1253" 
d="M1010 0h-271l39 166h-4q-121 -191 -348 -191q-151 0 -232 87.5t-81 226.5q0 66 20 168l131 624h281l-121 -573q-25 -127 -25 -170q0 -150 140 -150q105 0 187.5 90.5t115.5 249.5l116 553h281zM1124 1489l-39 -178h-581l39 178h581z" />
    <glyph glyph-name="Ubreve" unicode="&#x16c;" horiz-adv-x="1415" 
d="M1489 1462l-219 -1030q-97 -457 -623 -457q-113 0 -205 21t-162.5 64t-109.5 114.5t-39 165.5q0 68 14 133l211 989h291l-201 -952q-16 -74 -16 -115q0 -97 63 -142.5t173 -45.5q145 0 220 63.5t103 198.5l211 993h289zM1167 1876h176q-56 -315 -368 -315
q-83 0 -144 20.5t-95.5 55.5t-51 77.5t-16.5 91.5q0 33 6 70h170q-4 -28 -4 -43q0 -107 135 -107q87 0 132 36t60 114z" />
    <glyph glyph-name="ubreve" unicode="&#x16d;" horiz-adv-x="1253" 
d="M1010 0h-271l39 166h-4q-121 -191 -348 -191q-151 0 -232 87.5t-81 226.5q0 66 20 168l131 624h281l-121 -573q-25 -127 -25 -170q0 -150 140 -150q105 0 187.5 90.5t115.5 249.5l116 553h281zM1001 1550h177q-55 -315 -367 -315q-83 0 -144 20.5t-95.5 56t-51 78
t-16.5 91.5q0 31 6 69h168q-4 -28 -4 -43q0 -108 135 -108q88 0 132.5 36t59.5 115z" />
    <glyph glyph-name="Uring" unicode="&#x16e;" horiz-adv-x="1415" 
d="M1489 1462l-219 -1030q-97 -457 -623 -457q-113 0 -205 21t-162.5 64t-109.5 114.5t-39 165.5q0 68 14 133l211 989h291l-201 -952q-16 -74 -16 -115q0 -97 63 -142.5t173 -45.5q145 0 220 63.5t103 198.5l211 993h289zM977 1841q-47 0 -79 -33t-32 -82q0 -51 31.5 -83.5
t79.5 -32.5t80.5 32.5t32.5 81.5q0 51 -32.5 84t-80.5 33zM979 1944q92 0 152.5 -62.5t60.5 -155.5q0 -95 -60.5 -155t-154.5 -60q-93 0 -154 60t-61 155q0 92 62 155t155 63z" />
    <glyph glyph-name="uring" unicode="&#x16f;" horiz-adv-x="1253" 
d="M1010 0h-271l39 166h-4q-121 -191 -348 -191q-151 0 -232 87.5t-81 226.5q0 66 20 168l131 624h281l-121 -573q-25 -127 -25 -170q0 -150 140 -150q105 0 187.5 90.5t115.5 249.5l116 553h281zM821 1534q-47 0 -78.5 -33t-31.5 -82q0 -51 31 -83.5t79 -32.5t80.5 32.5
t32.5 81.5q0 51 -32.5 84t-80.5 33zM823 1634q92 0 152.5 -61.5t60.5 -153.5q0 -95 -60.5 -156t-154.5 -61q-93 0 -154 61t-61 156q0 91 62 153t155 62z" />
    <glyph glyph-name="Uhungarumlaut" unicode="&#x170;" horiz-adv-x="1415" 
d="M1489 1462l-219 -1030q-97 -457 -623 -457q-113 0 -205 21t-162.5 64t-109.5 114.5t-39 165.5q0 68 14 133l211 989h291l-201 -952q-16 -74 -16 -115q0 -97 63 -142.5t173 -45.5q145 0 220 63.5t103 198.5l211 993h289zM1491 1870l-307 -307h-213l262 307h258zM1120 1870
l-297 -307h-205l252 307h250z" />
    <glyph glyph-name="uhungarumlaut" unicode="&#x171;" horiz-adv-x="1253" 
d="M1010 0h-271l39 166h-4q-121 -191 -348 -191q-151 0 -232 87.5t-81 226.5q0 66 20 168l131 624h281l-121 -573q-25 -127 -25 -170q0 -150 140 -150q105 0 187.5 90.5t115.5 249.5l116 553h281zM1362 1573l-307 -336h-213l262 336h258zM991 1573l-297 -336h-205l252 336
h250z" />
    <glyph glyph-name="Uogonek" unicode="&#x172;" horiz-adv-x="1415" 
d="M1489 1462l-219 -1030q-91 -429 -557 -455q-88 -76 -120 -119t-32 -79q0 -51 74 -51q45 0 110 18l-6 -141q-82 -27 -172 -27q-54 0 -97.5 12t-75.5 46.5t-32 87.5q0 69 43.5 129.5t139.5 126.5q-191 18 -302.5 107.5t-111.5 252.5q0 68 14 133l211 989h291l-201 -952
q-16 -74 -16 -115q0 -97 63 -142.5t173 -45.5q145 0 220 63.5t103 198.5l211 993h289z" />
    <glyph glyph-name="uogonek" unicode="&#x173;" horiz-adv-x="1253" 
d="M1010 0h-107q-104 -88 -141 -136t-37 -85q0 -51 74 -51q45 0 110 18l-6 -141q-83 -27 -172 -27q-54 0 -97.5 12t-75.5 46.5t-32 87.5q0 74 50.5 138.5t162.5 137.5l39 166h-4q-121 -191 -348 -191q-151 0 -232 87.5t-81 226.5q0 66 20 168l131 624h281l-121 -573
q-25 -127 -25 -170q0 -150 140 -150q105 0 187.5 90.5t115.5 249.5l116 553h281z" />
    <glyph glyph-name="Wcircumflex" unicode="&#x174;" horiz-adv-x="1994" 
d="M1096 0l61 1190h-4l-471 -1190h-418l10 1462h314l-51 -1196h4l450 1196h441l-80 -1196h4l477 1196h319l-634 -1462h-422zM1606 1559h-220l-110 182l-191 -182h-235l301 309h285z" />
    <glyph glyph-name="wcircumflex" unicode="&#x175;" horiz-adv-x="1751" 
d="M1206 1081l-22 -819h4l375 819h295l-541 -1081h-375l23 831h-4l-386 -831h-370l-23 1081h295l-26 -819h4l379 819h372zM1386 1237h-192l-96 215l-185 -215h-215l281 336h272z" />
    <glyph glyph-name="Ycircumflex" unicode="&#x176;" horiz-adv-x="1247" 
d="M373 0l116 557l-301 905h318l176 -626l465 626h344l-711 -905l-116 -557h-291zM1214 1559h-219l-110 182l-191 -182h-235l301 309h284z" />
    <glyph glyph-name="ycircumflex" unicode="&#x177;" horiz-adv-x="1120" 
d="M459 1081l26 -780h4l461 780h318l-959 -1480h-305l246 385l-84 1095h293zM1063 1237h-193l-96 215l-184 -215h-215l280 336h273z" />
    <glyph glyph-name="Ydieresis" unicode="&#x178;" horiz-adv-x="1247" 
d="M373 0l116 557l-301 905h318l176 -626l465 626h344l-711 -905l-116 -557h-291zM1237 1853l-53 -249h-246l53 249h246zM809 1853l-53 -249h-244l53 249h244z" />
    <glyph glyph-name="Zacute" unicode="&#x179;" horiz-adv-x="1224" 
d="M35 233l893 998h-639l51 231h989l-51 -231l-883 -1000h719l-49 -231h-1077zM1276 1860l-344 -297h-236l258 297h322z" />
    <glyph glyph-name="zacute" unicode="&#x17a;" horiz-adv-x="1034" 
d="M41 211l629 659h-469l45 211h811l-47 -211l-623 -659h537l-45 -211h-883zM1096 1573l-338 -336h-217l250 336h305z" />
    <glyph glyph-name="Zdotaccent" unicode="&#x17b;" horiz-adv-x="1224" 
d="M35 233l893 998h-639l51 231h989l-51 -231l-883 -1000h719l-49 -231h-1077zM1057 1853l-56 -258h-286l55 258h287z" />
    <glyph glyph-name="zdotaccent" unicode="&#x17c;" horiz-adv-x="1034" 
d="M41 211l629 659h-469l45 211h811l-47 -211l-623 -659h537l-45 -211h-883zM881 1532l-56 -260h-288l55 260h289z" />
    <glyph glyph-name="Zcaron" unicode="&#x17d;" horiz-adv-x="1224" 
d="M35 233l893 998h-639l51 231h989l-51 -231l-883 -1000h719l-49 -231h-1077zM541 1868h219l112 -182l189 182h237l-301 -312h-284z" />
    <glyph glyph-name="zcaron" unicode="&#x17e;" horiz-adv-x="1034" 
d="M41 211l629 659h-469l45 211h811l-47 -211l-623 -659h537l-45 -211h-883zM416 1573h192l97 -217l184 217h213l-279 -336h-272z" />
    <glyph glyph-name="florin" unicode="&#x192;" horiz-adv-x="1169" 
d="M-4 -242l55 217q65 -18 117 -18q63 0 97 36t57 116l157 565h-229l49 213h240l67 229q15 52 31.5 92.5t41 85t57 76.5t75.5 59t101 40.5t128 13.5q117 0 199 -29l-76 -213q-46 21 -116 21q-71 0 -111.5 -45.5t-65.5 -126.5l-57 -203h262l-53 -213h-264l-176 -611
q-22 -77 -51 -132.5t-75.5 -103t-118 -71.5t-167.5 -24q-95 0 -174 26z" />
    <glyph glyph-name="Scommaaccent" unicode="&#x218;" horiz-adv-x="1095" 
d="M1126 1419l-67 -229q-148 65 -314 65q-41 0 -78 -8t-71.5 -25.5t-55 -51.5t-20.5 -80q0 -65 40 -112.5t151 -119.5q78 -51 128.5 -93t93 -94t62 -112.5t19.5 -134.5q0 -117 -46.5 -206t-125 -140.5t-172 -77t-197.5 -25.5q-231 0 -442 80l75 236q198 -84 367 -84
q117 0 183.5 47t66.5 137q0 70 -45 123.5t-164 128.5q-152 97 -217.5 189t-65.5 225q0 89 30.5 163t81 122.5t117.5 82t138 48t145 14.5q225 0 383 -68zM602 -119l-272 -319h-203l190 319h285z" />
    <glyph glyph-name="scommaaccent" unicode="&#x219;" horiz-adv-x="933" 
d="M918 1049l-74 -207q-121 51 -248 51q-69 0 -115.5 -24.5t-46.5 -77.5q0 -38 31.5 -69t118.5 -81q134 -76 195 -151t61 -177q0 -94 -38.5 -162t-105.5 -105t-144.5 -54t-168.5 -17q-87 0 -189 16.5t-178 45.5l72 211q145 -60 289 -60q174 0 174 103q0 44 -35 79t-127 87
q-125 68 -180 139.5t-55 167.5q0 76 27 136t70.5 98t104 63t122.5 35t130 10q167 0 310 -57zM545 -119l-273 -319h-202l190 319h285z" />
    <glyph glyph-name="uni021A" unicode="&#x21a;" horiz-adv-x="1087" 
d="M301 0l260 1231h-381l51 231h1039l-51 -231h-369l-258 -1231h-291zM567 -119l-272 -319h-203l191 319h284z" />
    <glyph glyph-name="uni021B" unicode="&#x21b;" horiz-adv-x="747" 
d="M106 870l46 211h176l61 287h281l-62 -287h213l-45 -211h-213l-104 -489q-15 -68 -15 -98q0 -40 25 -58t82 -18q54 0 104 8l-43 -215q-75 -10 -166 -10q-151 0 -221.5 52t-70.5 165q0 56 16 131l113 532h-177zM526 -119l-272 -319h-203l191 319h284z" />
    <glyph glyph-name="dotlessj" unicode="&#x237;" horiz-adv-x="563" 
d="M563 1081l-237 -1122q-15 -68 -33.5 -118.5t-51 -98t-76.5 -77t-110.5 -47t-152.5 -17.5q-68 0 -140 10l31 211q47 -8 90 -8q74 0 110.5 43.5t55.5 132.5l234 1091h280z" />
    <glyph glyph-name="circumflex" unicode="&#x2c6;" horiz-adv-x="944" 
d="M965 1237h-193l-96 215l-184 -215h-216l281 336h272z" />
    <glyph glyph-name="caron" unicode="&#x2c7;" horiz-adv-x="944" 
d="M367 1573h192l96 -217l185 217h213l-279 -336h-272z" />
    <glyph glyph-name="uni02C9" unicode="&#x2c9;" horiz-adv-x="944" 
d="M1012 1622l-39 -178h-582l39 178h582z" />
    <glyph glyph-name="breve" unicode="&#x2d8;" horiz-adv-x="944" 
d="M848 1550h176q-55 -315 -367 -315q-83 0 -144 20.5t-95.5 56t-51 78t-16.5 91.5q0 31 6 69h168q-4 -28 -4 -43q0 -108 135 -108q88 0 133 36t60 115z" />
    <glyph glyph-name="dotaccent" unicode="&#x2d9;" horiz-adv-x="944" 
d="M846 1532l-55 -260h-289l55 260h289z" />
    <glyph glyph-name="ring" unicode="&#x2da;" horiz-adv-x="944" 
d="M678 1534q-47 0 -79 -33t-32 -82q0 -51 31.5 -83.5t79.5 -32.5t80.5 32.5t32.5 81.5q0 51 -32.5 84t-80.5 33zM680 1634q92 0 152.5 -61.5t60.5 -153.5q0 -95 -60.5 -156t-154.5 -61q-93 0 -154 61t-61 156q0 91 62 153t155 62z" />
    <glyph glyph-name="ogonek" unicode="&#x2db;" horiz-adv-x="944" 
d="M377 16h160q-117 -97 -158 -147.5t-41 -89.5q0 -51 74 -51q45 0 110 18l-6 -141q-82 -27 -172 -27q-54 0 -97.5 12t-75.5 46.5t-32 87.5q0 77 56.5 145t181.5 147z" />
    <glyph glyph-name="tilde" unicode="&#x2dc;" horiz-adv-x="944" 
d="M709 1470q42 -30 63.5 -40.5t42.5 -10.5q39 0 60 32t32 95h160q-57 -301 -246 -301q-42 0 -80.5 15.5t-95.5 52.5q-50 34 -74 45.5t-47 11.5q-75 0 -100 -127h-160q27 147 95.5 223t164.5 76q49 0 90 -16.5t95 -55.5z" />
    <glyph glyph-name="hungarumlaut" unicode="&#x2dd;" horiz-adv-x="944" 
d="M1178 1573l-308 -336h-213l263 336h258zM807 1573l-297 -336h-205l252 336h250z" />
    <glyph glyph-name="uni0394" unicode="&#x394;" horiz-adv-x="1404" 
d="M1249 0h-1276l45 217l746 1245h377l155 -1241zM905 1233l-557 -993h645z" />
    <glyph glyph-name="uni03A9" unicode="&#x3a9;" horiz-adv-x="1538" 
d="M897 1249q-90 0 -165.5 -34t-125 -89.5t-84 -127t-50 -144.5t-15.5 -145q0 -124 47.5 -204.5t154.5 -123.5l-79 -381h-537l49 231h291l14 56q-107 59 -169 163.5t-62 251.5q0 118 31 231t94.5 213.5t153 176.5t214.5 120t271 44q147 0 258.5 -40t178 -111.5t99.5 -164
t33 -204.5q0 -236 -113 -413.5t-307 -272.5l-12 -50h313q-44 -216 -47 -231h-571l80 381q92 26 163 85t111.5 134.5t60 155.5t19.5 159q0 154 -72.5 244t-226.5 90z" />
    <glyph glyph-name="uni03BC" unicode="&#x3bc;" horiz-adv-x="1337" 
d="M811 170h-4q-129 -195 -318 -195q-44 0 -86 13t-63 37h-4l-90 -424h-281l311 1480h285l-127 -600q-18 -92 -18 -143q0 -150 139 -150q99 0 183.5 86t119.5 252l117 555h280l-139 -657q-29 -141 -29 -160q0 -32 15.5 -44.5t52.5 -12.5q24 0 45 8l-43 -213
q-55 -12 -115 -12q-62 0 -107.5 16t-70.5 44t-37.5 57t-15.5 63z" />
    <glyph glyph-name="pi" unicode="&#x3c0;" horiz-adv-x="1409" 
d="M1456 1081l-45 -217h-215l-106 -504q-11 -53 -11 -75q0 -78 95 -78q35 0 81 8l-43 -215q-62 -10 -137 -10q-148 0 -215 55t-67 162q0 57 16 131l111 526h-256l-279 -864h-283l291 864h-221l47 217h1237z" />
    <glyph glyph-name="Wgrave" unicode="&#x1e80;" horiz-adv-x="1994" 
d="M1096 0l61 1190h-4l-471 -1190h-418l10 1462h314l-51 -1196h4l450 1196h441l-80 -1196h4l477 1196h319l-634 -1462h-422zM1178 1563l-258 295h292l168 -295h-202z" />
    <glyph glyph-name="wgrave" unicode="&#x1e81;" horiz-adv-x="1751" 
d="M1206 1081l-22 -819h4l375 819h295l-541 -1081h-375l23 831h-4l-386 -831h-370l-23 1081h295l-26 -819h4l379 819h372zM987 1237l-248 336h287l162 -336h-201z" />
    <glyph glyph-name="Wacute" unicode="&#x1e82;" horiz-adv-x="1994" 
d="M1096 0l61 1190h-4l-471 -1190h-418l10 1462h314l-51 -1196h4l450 1196h441l-80 -1196h4l477 1196h319l-634 -1462h-422zM1671 1860l-344 -297h-235l258 297h321z" />
    <glyph glyph-name="wacute" unicode="&#x1e83;" horiz-adv-x="1751" 
d="M1206 1081l-22 -819h4l375 819h295l-541 -1081h-375l23 831h-4l-386 -831h-370l-23 1081h295l-26 -819h4l379 819h372zM1479 1573l-338 -336h-217l250 336h305z" />
    <glyph glyph-name="Wdieresis" unicode="&#x1e84;" horiz-adv-x="1994" 
d="M1096 0l61 1190h-4l-471 -1190h-418l10 1462h314l-51 -1196h4l450 1196h441l-80 -1196h4l477 1196h319l-634 -1462h-422zM1630 1853l-53 -249h-246l53 249h246zM1202 1853l-53 -249h-244l53 249h244z" />
    <glyph glyph-name="wdieresis" unicode="&#x1e85;" horiz-adv-x="1751" 
d="M1206 1081l-22 -819h4l375 819h295l-541 -1081h-375l23 831h-4l-386 -831h-370l-23 1081h295l-26 -819h4l379 819h372zM1022 1522l-51 -242h-244l53 242h242zM1446 1522l-51 -242h-248l51 242h248z" />
    <glyph glyph-name="Ygrave" unicode="&#x1ef2;" horiz-adv-x="1247" 
d="M373 0l116 557l-301 905h318l176 -626l465 626h344l-711 -905l-116 -557h-291zM774 1563l-258 295h293l168 -295h-203z" />
    <glyph glyph-name="ygrave" unicode="&#x1ef3;" horiz-adv-x="1120" 
d="M459 1081l26 -780h4l461 780h318l-959 -1480h-305l246 385l-84 1095h293zM643 1237l-248 336h287l162 -336h-201z" />
    <glyph glyph-name="endash" unicode="&#x2013;" horiz-adv-x="1015" 
d="M1016 707l-41 -185h-914l41 185h914z" />
    <glyph glyph-name="emdash" unicode="&#x2014;" horiz-adv-x="1630" 
d="M1630 707l-41 -185h-1528l41 185h1528z" />
    <glyph glyph-name="quoteleft" unicode="&#x2018;" horiz-adv-x="600" 
d="M715 1505l-201 -499h-274l276 499h199z" />
    <glyph glyph-name="quoteright" unicode="&#x2019;" horiz-adv-x="600" 
d="M238 1004l200 501h277l-281 -501h-196z" />
    <glyph glyph-name="quotesinglbase" unicode="&#x201a;" horiz-adv-x="602" 
d="M-43 -283l201 500h276l-280 -500h-197z" />
    <glyph glyph-name="quotedblleft" unicode="&#x201c;" horiz-adv-x="978" 
d="M1094 1505l-201 -501h-260l262 501h199zM715 1505l-217 -501h-260l280 501h197z" />
    <glyph glyph-name="quotedblright" unicode="&#x201d;" horiz-adv-x="978" 
d="M240 1006l198 499h260l-262 -499h-196zM616 1006l215 499h263l-279 -499h-199z" />
    <glyph glyph-name="quotedblbase" unicode="&#x201e;" horiz-adv-x="978" 
d="M-43 -283l201 500h260l-264 -500h-197zM336 -283l215 500h260l-279 -500h-196z" />
    <glyph glyph-name="dagger" unicode="&#x2020;" horiz-adv-x="1050" 
d="M854 1368l-76 -358h342l-43 -203h-342l-225 -1059h-248l225 1059h-344l43 203h344l76 358h248z" />
    <glyph glyph-name="daggerdbl" unicode="&#x2021;" horiz-adv-x="1050" 
d="M852 1368l-74 -350h334l-43 -203h-334l-110 -520h333l-43 -203h-333l-74 -344h-248l74 344h-338l41 203h340l110 520h-340l43 203h340l74 350h248z" />
    <glyph glyph-name="bullet" unicode="&#x2022;" horiz-adv-x="944" 
d="M195 674q0 140 98 239t237 99q141 0 239.5 -99t98.5 -239t-98.5 -238t-239.5 -98q-139 0 -237 98t-98 238z" />
    <glyph glyph-name="ellipsis" unicode="&#x2026;" horiz-adv-x="1894" 
d="M61 0l68 322h315l-69 -322h-314zM694 0l68 322h315l-67 -322h-316zM1327 0l68 322h315l-68 -322h-315z" />
    <glyph glyph-name="perthousand" unicode="&#x2030;" horiz-adv-x="2455" 
d="M475 664q-121 0 -189.5 76t-68.5 206q0 97 23.5 186.5t69 165.5t123.5 122t177 46q122 0 190 -76t68 -206q0 -97 -23.5 -187t-69 -166t-123.5 -121.5t-177 -45.5zM498 846q40 0 71.5 36.5t48.5 90t26 105.5t9 93q0 55 -14.5 83t-52.5 28q-39 0 -70.5 -37.5t-48.5 -92
t-26 -106t-9 -90.5q0 -110 66 -110zM1255 0q-122 0 -190 76t-68 205q0 77 14 150t45 141t75.5 118.5t111 80.5t146.5 30q122 0 190 -76.5t68 -206.5q0 -77 -14 -150t-45 -140t-76 -117.5t-111 -80.5t-146 -30zM1278 180q39 0 70.5 36.5t48.5 90.5t26 106t9 93q0 55 -15 83.5
t-53 28.5q-39 0 -70.5 -37t-48.5 -91.5t-26 -106t-9 -90.5q0 -113 68 -113zM1620 1462l-1163 -1462h-215l1165 1462h213zM1982 0q-120 0 -189 76t-69 205q0 97 23.5 187t69.5 166t124 121.5t177 45.5q122 0 190 -76.5t68 -206.5q0 -77 -14 -150t-45.5 -140t-76.5 -117.5
t-111.5 -80.5t-146.5 -30zM2005 180q40 0 71.5 36.5t49 90.5t26.5 106t9 93q0 55 -15 83.5t-53 28.5q-39 0 -70.5 -37t-48.5 -91.5t-26 -106t-9 -90.5q0 -113 66 -113z" />
    <glyph glyph-name="guilsinglleft" unicode="&#x2039;" horiz-adv-x="729" 
d="M741 1030l-344 -424l154 -418h-221l-168 439l2 10l325 393h252z" />
    <glyph glyph-name="guilsinglright" unicode="&#x203a;" horiz-adv-x="729" 
d="M59 188l344 426l-153 416h221l168 -438q0 -2 -1 -5t-1 -5l-326 -394h-252z" />
    <glyph glyph-name="fraction" unicode="&#x2044;" horiz-adv-x="247" 
d="M825 1462l-1136 -1462h-217l1138 1462h215z" />
    <glyph glyph-name="zero.superior" unicode="&#x2070;" 
d="M653 1769q139 0 208 -80t69 -223q0 -81 -13.5 -162t-45.5 -162t-78.5 -142t-119.5 -99.5t-163 -38.5q-136 0 -207.5 82t-71.5 223q0 80 14 161t46.5 161.5t80 142t120.5 99.5t161 38zM637 1606q-50 0 -91.5 -46.5t-66 -116.5t-38 -143.5t-13.5 -136.5q0 -137 94 -137
q51 0 93 46.5t66 116t37 141.5t13 132q0 144 -94 144z" />
    <glyph glyph-name="four.superior" unicode="&#x2074;" 
d="M922 1753l-117 -543h96l-35 -157h-94l-37 -176h-194l37 176h-390l41 190l430 510h263zM612 1210l72 346h-4l-274 -346h206z" />
    <glyph glyph-name="five.superior" unicode="&#x2075;" 
d="M469 1026q81 0 133.5 36t52.5 103q0 115 -176 115q-81 0 -172 -16l135 491h486l-33 -162h-313l-52 -170q27 4 62 4q120 0 191 -61.5t71 -177.5q0 -157 -104.5 -241.5t-272.5 -84.5q-149 0 -268 58l57 153q100 -47 203 -47z" />
    <glyph glyph-name="six.superior" unicode="&#x2076;" 
d="M725 1606q-88 0 -151.5 -55.5t-100.5 -151.5h4q69 63 166 63q115 0 176.5 -66.5t61.5 -168.5q0 -156 -98 -260.5t-263 -104.5q-143 0 -215 86t-72 215q0 67 13 135.5t38 137t66.5 128t94.5 106t125.5 73t156.5 26.5q99 0 172 -24l-49 -160q-65 21 -125 21zM580 1313
q-68 0 -111 -47.5t-43 -120.5q0 -51 26.5 -86t82.5 -35q69 0 110 54t41 128q0 46 -27.5 76.5t-78.5 30.5z" />
    <glyph glyph-name="seven.superior" unicode="&#x2077;" 
d="M346 1591l35 164h590l-33 -162q-291 -345 -391 -716h-213q48 179 147.5 367.5t235.5 346.5h-371z" />
    <glyph glyph-name="eight.superior" unicode="&#x2078;" 
d="M651 1769q122 0 200.5 -59.5t78.5 -161.5q0 -161 -154 -223v-2q107 -60 107 -176q0 -138 -103.5 -211.5t-261.5 -73.5q-134 0 -220.5 61.5t-86.5 174.5q0 172 188 239v4q-40 24 -63 65t-23 91q0 130 97 201t241 71zM561 1249q-60 0 -106.5 -35.5t-46.5 -93.5
q0 -45 32.5 -71.5t89.5 -26.5q65 0 110.5 33.5t45.5 89.5q0 46 -34 75t-91 29zM606 1405q58 0 97.5 33t39.5 90q0 39 -29.5 63.5t-78.5 24.5q-56 0 -95.5 -32.5t-39.5 -84.5q0 -42 30 -68t76 -26z" />
    <glyph glyph-name="nine.superior" unicode="&#x2079;" 
d="M434 1024q90 0 153.5 54t100.5 151h-2q-72 -66 -164 -66q-115 0 -179 70t-64 174q0 156 97 259t263 103q74 0 130.5 -24.5t90 -67.5t50 -96t16.5 -115q0 -82 -17 -164.5t-56 -162t-94.5 -141t-140 -99t-186.5 -37.5q-93 0 -170 25l49 155q48 -18 123 -18zM584 1317
q67 0 109 48t42 120q0 50 -27 85.5t-83 35.5q-70 0 -111 -55t-41 -128q0 -44 29 -75t82 -31z" />
    <glyph glyph-name="zero.inferior" unicode="&#x2080;" 
d="M410 606q138 0 207 -80t69 -223q0 -81 -13.5 -162t-45.5 -162t-78.5 -142t-119.5 -99.5t-163 -38.5q-136 0 -207 82t-71 223q0 80 14 161t46.5 161.5t80 142t120.5 99.5t161 38zM393 442q-50 0 -91.5 -46.5t-66 -116t-38 -143t-13.5 -136.5q0 -137 95 -137q51 0 93 46.5
t66 116t36.5 141.5t12.5 132q0 143 -94 143z" />
    <glyph glyph-name="one.inferior" unicode="&#x2081;" 
d="M573 590l-184 -877h-207l146 682l-174 -86l-41 154l256 127h204z" />
    <glyph glyph-name="two.inferior" unicode="&#x2082;" 
d="M580 -123l-33 -164h-596l33 168q204 144 306.5 229.5t135.5 134.5t33 101q0 42 -30 68t-83 26q-86 0 -196 -49l-35 150q127 65 270 65q124 0 199 -61t75 -174q0 -54 -16.5 -101.5t-44.5 -89t-83.5 -92.5t-114 -95.5t-154.5 -113.5v-2h334z" />
    <glyph glyph-name="three.inferior" unicode="&#x2083;" 
d="M137 82l35 158h94q83 0 138 29t55 91q0 40 -28.5 62t-82.5 22q-91 0 -196 -43l-21 158q114 47 252 47q120 0 196 -56t76 -161q0 -167 -163 -225v-2q50 -21 77 -66t27 -102q0 -99 -51 -167t-133 -98t-189 -30q-138 0 -254 55l60 154q102 -45 192 -45q78 0 128 30t50 93
q0 48 -44.5 72t-123.5 24h-94z" />
    <glyph glyph-name="four.inferior" unicode="&#x2084;" 
d="M676 590l-117 -543h96l-34 -158h-95l-37 -176h-194l37 176h-389l41 191l430 510h262zM367 47l71 346h-4l-274 -346h207z" />
    <glyph glyph-name="five.inferior" unicode="&#x2085;" 
d="M225 -137q81 0 134 36t53 103q0 115 -176 115q-76 0 -173 -17l136 492h485l-33 -162h-313l-51 -170q27 4 61 4q120 0 191 -61.5t71 -177.5q0 -157 -104.5 -241.5t-272.5 -84.5q-151 0 -268 57l58 154q100 -47 202 -47z" />
    <glyph glyph-name="six.inferior" unicode="&#x2086;" 
d="M479 442q-88 0 -151.5 -55t-100.5 -151h4q69 63 166 63q115 0 176.5 -67t61.5 -169q0 -156 -98 -260t-263 -104q-143 0 -214.5 86t-71.5 215q0 67 13 135.5t38 137t66 128t94 106t125.5 73t156.5 26.5q99 0 172 -24l-49 -160q-62 20 -125 20zM334 150q-68 0 -111 -47.5
t-43 -120.5q0 -51 26.5 -86t82.5 -35q69 0 110 54t41 128q0 46 -27.5 76.5t-78.5 30.5z" />
    <glyph glyph-name="seven.inferior" unicode="&#x2087;" 
d="M100 428l35 164h590l-33 -162q-291 -344 -391 -717h-213q48 179 147.5 368.5t235.5 346.5h-371z" />
    <glyph glyph-name="eight.inferior" unicode="&#x2088;" 
d="M406 606q122 0 200 -59.5t78 -161.5q0 -161 -154 -223v-2q107 -60 107 -176q0 -138 -103.5 -211.5t-261.5 -73.5q-134 0 -220.5 61t-86.5 174q0 172 189 240v4q-40 24 -63 65t-23 91q0 130 97 201t241 71zM315 86q-60 0 -106.5 -35.5t-46.5 -93.5q0 -45 33 -71.5
t90 -26.5q64 0 109.5 33.5t45.5 89.5q0 46 -34 75t-91 29zM360 242q58 0 98 33.5t40 89.5q0 39 -30 63.5t-79 24.5q-56 0 -95.5 -32.5t-39.5 -84.5q0 -42 30 -68t76 -26z" />
    <glyph glyph-name="nine.inferior" unicode="&#x2089;" 
d="M188 -139q90 0 153.5 54t100.5 151h-2q-72 -66 -164 -66q-115 0 -179 70t-64 174q0 156 97 259t263 103q74 0 130.5 -24.5t90 -67.5t50 -96t16.5 -115q0 -82 -17 -164.5t-56 -162t-94.5 -141t-140 -99t-186.5 -37.5q-93 0 -170 25l50 155q48 -18 122 -18zM338 154
q67 0 109 48t42 120q0 50 -27 85t-83 35q-70 0 -111 -54.5t-41 -127.5q0 -44 29 -75t82 -31z" />
    <glyph glyph-name="Euro" unicode="&#x20ac;" horiz-adv-x="1329" 
d="M139 688h131q5 60 25 129h-178l67 170h150q94 227 283 363.5t454 136.5q184 0 303 -43l-92 -234q-81 37 -211 37q-301 0 -428 -260h563l-65 -170h-551q-22 -74 -27 -129h531l-66 -170h-463q13 -141 104 -224t263 -83q127 0 227 33l17 -228q-119 -41 -302 -41
q-139 0 -251 40t-186.5 113t-118 171.5t-52.5 218.5h-196z" />
    <glyph glyph-name="afii61248" unicode="&#x2105;" horiz-adv-x="1597" 
d="M770 1466l-41 -147q-53 18 -98 18q-94 0 -147.5 -72.5t-53.5 -174.5q0 -63 32.5 -101.5t100.5 -38.5q53 0 109 21v-150q-80 -22 -144 -22q-145 0 -218.5 78.5t-73.5 197.5q0 172 109 291t292 119q67 0 133 -19zM1511 1462l-1136 -1462h-217l1140 1462h213zM1501 397
q0 -115 -41.5 -209.5t-130 -154.5t-209.5 -60q-137 0 -214 74t-77 193q0 181 104 300t286 119q132 0 207 -72.5t75 -189.5zM1133 121q56 0 97.5 44.5t59 101.5t17.5 112q0 133 -107 133q-79 0 -126.5 -77t-47.5 -175q0 -139 107 -139z" />
    <glyph glyph-name="afii61289" unicode="&#x2113;" horiz-adv-x="913" 
d="M88 467q65 10 107 25q18 123 57 303q79 382 187.5 546t293.5 164q132 0 199 -70.5t67 -195.5q0 -155 -69 -319.5t-197.5 -308.5t-292.5 -232v-19q0 -79 31 -119t109 -40q71 0 155 30l-35 -211q-97 -32 -192 -32q-146 0 -222 68.5t-96 219.5q-98 -24 -149 -30zM494 729
l-19 -90q130 109 212.5 276t82.5 312q0 73 -47 73q-112 0 -229 -571z" />
    <glyph glyph-name="trademark" unicode="&#x2122;" horiz-adv-x="1896" 
d="M887 1462v-141h-211v-643h-176v643h-215v141h602zM1825 1462v-784h-172v608h-4l-172 -608h-170l-170 608h-4v-608h-160v784h272l148 -577h4l147 577h281z" />
    <glyph glyph-name="Omega" unicode="&#x2126;" horiz-adv-x="1538" 
d="M897 1249q-90 0 -165.5 -34t-125 -89.5t-84 -127t-50 -144.5t-15.5 -145q0 -124 47.5 -204.5t154.5 -123.5l-79 -381h-537l49 231h291l14 56q-107 59 -169 163.5t-62 251.5q0 118 31 231t94.5 213.5t153 176.5t214.5 120t271 44q147 0 258.5 -40t178 -111.5t99.5 -164
t33 -204.5q0 -236 -113 -413.5t-307 -272.5l-12 -50h313q-44 -216 -47 -231h-571l80 381q92 26 163 85t111.5 134.5t60 155.5t19.5 159q0 154 -72.5 244t-226.5 90z" />
    <glyph glyph-name="estimated" unicode="&#x212e;" horiz-adv-x="1615" 
d="M1329 258h129q-54 -61 -110 -107t-132 -87.5t-174 -64t-213 -22.5q-113 0 -218.5 29t-195 87t-157 138.5t-105.5 189.5t-38 234q0 120 39.5 229t111 193t166 146.5t208 95.5t234.5 33q141 0 261.5 -39.5t204.5 -106.5t143.5 -155.5t87.5 -186t28 -198.5v-7h-1167l-16 -20
v-436q175 -158 426 -158q295 0 487 213zM1284 727l16 18v390q-92 86 -196.5 117.5t-229.5 31.5q-282 0 -458 -166v-373l16 -18h852z" />
    <glyph glyph-name="partialdiff" unicode="&#x2202;" horiz-adv-x="1282" 
d="M858 889q-69 142 -232.5 262.5t-353.5 185.5l168 158q155 -54 288 -139.5t240 -201.5t168.5 -271t61.5 -330q0 -137 -41.5 -247.5t-115 -181.5t-172 -109t-214.5 -38q-236 0 -383 136.5t-147 365.5q0 221 131 353.5t338 132.5q160 0 260 -76h4zM670 778
q-127 0 -197 -81.5t-70 -217.5q0 -131 69.5 -210t189.5 -79q113 0 187.5 79.5t74.5 219.5q0 137 -71.5 213t-182.5 76z" />
    <glyph glyph-name="Delta" unicode="&#x2206;" horiz-adv-x="1404" 
d="M1249 0h-1276l45 217l746 1245h377l155 -1241zM905 1233l-557 -993h645z" />
    <glyph glyph-name="product" unicode="&#x220f;" horiz-adv-x="1484" 
d="M223 -399v1861h1172v-1861h-289v1630h-594v-1630h-289z" />
    <glyph glyph-name="summation" unicode="&#x2211;" horiz-adv-x="1339" 
d="M981 559l-520 -727h854v-231h-1186v229l518 719l-491 680v233h1132v-231h-790z" />
    <glyph glyph-name="minus" unicode="&#x2212;" horiz-adv-x="1132" 
d="M1108 543h-987v205h987v-205z" />
    <glyph glyph-name="uni2215" unicode="&#x2215;" horiz-adv-x="247" 
d="M825 1462l-1136 -1462h-217l1138 1462h215z" />
    <glyph glyph-name="uni2219" unicode="&#x2219;" horiz-adv-x="624" 
d="M154 457l69 321h316l-70 -321h-315z" />
    <glyph glyph-name="radical" unicode="&#x221a;" horiz-adv-x="1245" 
d="M524 514l185 -692h4l319 1640h260l-391 -1861h-369l-204 692h-232v221h428z" />
    <glyph glyph-name="infinity" unicode="&#x221e;" horiz-adv-x="1814" 
d="M801 520q-45 114 -106 176t-150 62q-94 0 -146.5 -68t-52.5 -172q0 -100 52.5 -161.5t144.5 -61.5q169 0 258 225zM913 295q-68 -119 -169 -181.5t-220 -62.5q-194 0 -304.5 129.5t-110.5 339.5q0 216 112 346.5t311 130.5q134 0 234 -59t174 -186q70 120 170.5 181.5
t220.5 61.5q196 0 307 -129.5t111 -339.5q0 -215 -112 -345t-312 -130q-263 0 -412 244zM1055 526q46 -115 107.5 -176t150.5 -61q93 0 145.5 68t52.5 171q0 101 -52 163.5t-144 62.5q-166 0 -260 -228z" />
    <glyph glyph-name="integral" unicode="&#x222b;" horiz-adv-x="811" 
d="M328 -39v1145q0 166 89.5 261t282.5 95q88 0 154 -14l-20 -213q-39 10 -95 10q-68 0 -99.5 -37.5t-31.5 -115.5v-1145q0 -164 -92.5 -256t-286.5 -92q-78 0 -147 14l20 213q39 -10 91 -10q70 0 102.5 34.5t32.5 110.5z" />
    <glyph glyph-name="approxequal" unicode="&#x2248;" horiz-adv-x="1132" 
d="M864 901q144 0 236 107v-226q-102 -94 -264 -94q-66 0 -130 21t-107.5 46.5t-102.5 46.5t-115 21q-155 0 -250 -106v225q98 94 266 94q67 0 132.5 -21t109 -46.5t104.5 -46.5t121 -21zM864 451q144 0 236 106v-227q-100 -92 -264 -92q-66 0 -130 21t-107.5 46.5
t-102.5 46.5t-115 21q-152 0 -250 -109v228q98 94 266 94q67 0 132.5 -21t109 -46.5t104.5 -46.5t121 -21z" />
    <glyph glyph-name="notequal" unicode="&#x2260;" horiz-adv-x="1132" 
d="M121 752v204h534l131 258h234l-133 -258h221v-204h-322l-110 -217h432v-205h-535l-129 -254h-231l129 254h-221v205h323l111 217h-434z" />
    <glyph glyph-name="lessequal" unicode="&#x2264;" horiz-adv-x="1132" 
d="M1110 993l-776 -213v-4l776 -217v-213l-989 285v291l989 284v-213zM121 94v205h989v-205h-989z" />
    <glyph glyph-name="greaterequal" unicode="&#x2265;" horiz-adv-x="1132" 
d="M895 780l-774 211v215l989 -284v-291l-989 -285v213l774 217v4zM1110 299v-205h-989v205h989z" />
    <glyph glyph-name="lozenge" unicode="&#x25ca;" horiz-adv-x="1081" 
d="M1042 666l-331 -666h-236l-332 666l332 663h234zM799 664l-88 196q-24 51 -65.5 151t-51.5 134h-6q-12 -37 -53.5 -140t-61.5 -145l-88 -194l94 -203q19 -38 60.5 -141.5t52.5 -137.5h4q10 35 50 132.5t63 146.5z" />
    <glyph glyph-name="f_i" unicode="&#xf001;" horiz-adv-x="1234" 
d="M1249 1479l-49 -213q-44 8 -133 16t-162 8q-153 0 -223 -41.5t-88 -134.5l-6 -33h645l-229 -1081h-281l184 870h-356l-184 -870h-279l182 870h-180l45 211h176l11 52q18 91 55.5 156.5t104 115.5t170.5 75t247 25q186 0 350 -26z" />
    <glyph glyph-name="f_l" unicode="&#xf002;" horiz-adv-x="1234" 
d="M311 1081l11 52q18 91 55.5 156.5t104 115.5t170.5 75t247 25q214 0 416 -37l-311 -1468h-281l272 1286q-50 4 -98 4q-146 0 -216 -41.5t-87 -134.5l-6 -33h229l-45 -211h-221l-184 -870h-279l182 870h-180l45 211h176z" />
    <glyph glyph-name="uniF8FF" unicode="&#xf8ff;" horiz-adv-x="1048" 
d="M639 240h-115v137h115v-137zM625 479h-95l-4 35q0 114 27 166q29 56 94 121q63 60 83 95t20 75q0 73 -46 123.5t-110 50.5q-67 0 -112 -47.5t-56 -147.5l-102 17q13 141 87 210.5t189 69.5q110 0 182 -74t72 -194q0 -69 -27 -123t-102 -123q-77 -68 -88 -106
q-12 -41 -12 -148zM172 102h844v1264h-844v-1264zM70 1470h1048v-1470h-1048v1470z" />
    <glyph glyph-name="commaaccent" horiz-adv-x="944" 
d="M571 -119l-272 -319h-203l191 319h284z" />
    <glyph glyph-name="zero.denominator" 
d="M469 893q138 0 207 -80t69 -223q0 -81 -13.5 -162t-45 -162t-78 -142t-119.5 -99.5t-163 -38.5q-136 0 -207.5 82t-71.5 223q0 80 14 161t46.5 161.5t80 142t120.5 99.5t161 38zM453 729q-50 0 -91.5 -46.5t-66 -116t-38 -143t-13.5 -136.5q0 -137 94 -137q51 0 93 46.5
t66 116t37 141.5t13 132q0 143 -94 143z" />
    <glyph glyph-name="one.denominator" 
d="M635 877l-184 -877h-207l145 682l-174 -86l-41 154l256 127h205z" />
    <glyph glyph-name="two.denominator" 
d="M641 164l-33 -164h-596l33 168q204 144 306.5 229.5t135.5 134.5t33 101q0 42 -29.5 68t-82.5 26q-87 0 -197 -49l-35 149q129 66 270 66q124 0 199.5 -61.5t75.5 -174.5q0 -54 -17 -101.5t-45 -89t-84 -92t-113.5 -95t-154.5 -113.5v-2h334z" />
    <glyph glyph-name="three.denominator" 
d="M199 369l34 157h95q83 0 137.5 29.5t54.5 91.5q0 40 -28 62t-82 22q-92 0 -197 -43l-20 158q114 47 251 47q120 0 196.5 -56t76.5 -161q0 -167 -164 -225v-2q50 -21 77 -66t27 -102q0 -99 -50.5 -167t-132.5 -98t-189 -30q-138 0 -254 55l59 154q102 -45 193 -45
q78 0 128 29.5t50 92.5q0 48 -44.5 72.5t-123.5 24.5h-94z" />
    <glyph glyph-name="four.denominator" 
d="M737 877l-116 -543h96l-35 -158h-94l-37 -176h-195l37 176h-389l41 191l430 510h262zM428 334l72 346h-4l-275 -346h207z" />
    <glyph glyph-name="five.denominator" 
d="M285 150q81 0 133.5 36t52.5 103q0 114 -176 114q-81 0 -172 -16l135 492h485l-32 -162h-314l-51 -170q27 4 62 4q120 0 191 -62t71 -178q0 -157 -104.5 -241t-272.5 -84q-151 0 -268 57l57 154q100 -47 203 -47z" />
    <glyph glyph-name="six.denominator" 
d="M541 729q-88 0 -151.5 -55.5t-100.5 -151.5h4q70 64 166 64q115 0 176 -67t61 -169q0 -156 -97.5 -260t-262.5 -104q-143 0 -215 86t-72 215q0 67 13 135.5t38 137t66.5 128t94.5 106t125.5 73t156.5 26.5q95 0 172 -25l-49 -159q-62 20 -125 20zM395 436
q-68 0 -110.5 -47.5t-42.5 -120.5q0 -51 26 -86t82 -35q69 0 110.5 54.5t41.5 128.5q0 45 -27.5 75.5t-79.5 30.5z" />
    <glyph glyph-name="seven.denominator" 
d="M162 715l35 164h589l-32 -162q-292 -346 -392 -717h-212q48 179 147 368.5t235 346.5h-370z" />
    <glyph glyph-name="eight.denominator" 
d="M467 893q122 0 200 -59.5t78 -161.5q0 -161 -153 -223v-3q106 -59 106 -176q0 -138 -103 -211t-261 -73q-134 0 -220.5 61t-86.5 174q0 173 188 240v4q-40 24 -63 65t-23 91q0 130 97 201t241 71zM377 373q-60 0 -107 -35.5t-47 -93.5q0 -45 33 -72t90 -27
q65 0 110.5 33.5t45.5 89.5q0 46 -34.5 75.5t-90.5 29.5zM422 528q58 0 97.5 33t39.5 90q0 39 -29.5 63.5t-78.5 24.5q-56 0 -96 -32t-40 -84q0 -42 30.5 -68.5t76.5 -26.5z" />
    <glyph glyph-name="nine.denominator" 
d="M250 147q90 0 153.5 54t100.5 151h-2q-71 -65 -164 -65q-115 0 -179.5 69.5t-64.5 173.5q0 156 97.5 259.5t263.5 103.5q143 0 214.5 -86t71.5 -217q0 -82 -17 -164.5t-55.5 -162t-94.5 -141t-140 -99t-186 -37.5q-96 0 -170 24l49 156q50 -19 123 -19zM399 440
q67 0 109.5 48.5t42.5 119.5q0 50 -27.5 85.5t-83.5 35.5q-70 0 -110.5 -54.5t-40.5 -127.5q0 -44 28.5 -75.5t81.5 -31.5z" />
    <glyph glyph-name="zero.numerator" 
d="M592 1483q138 0 207 -80t69 -223q0 -81 -13.5 -162t-45 -162t-78 -142.5t-119.5 -100t-163 -38.5q-136 0 -207.5 82.5t-71.5 223.5q0 80 14 161t46.5 161.5t80 142t120.5 99.5t161 38zM575 1319q-50 0 -91.5 -46.5t-66 -116t-37.5 -143t-13 -136.5q0 -138 94 -138
q51 0 93 46.5t66 116.5t37 142t13 132q0 143 -95 143z" />
    <glyph glyph-name="one.numerator" 
d="M758 1466l-185 -876h-206l145 682l-174 -86l-41 153l256 127h205z" />
    <glyph glyph-name="two.numerator" 
d="M764 754l-33 -164h-596l33 168q204 144 306.5 229.5t135.5 134.5t33 101q0 42 -30 68t-83 26q-86 0 -196 -49l-35 149q129 66 270 66q124 0 199.5 -61.5t75.5 -174.5q0 -54 -17 -101.5t-45 -89t-84 -92t-113.5 -95t-154.5 -113.5v-2h334z" />
    <glyph glyph-name="three.numerator" 
d="M322 958l34 158h95q83 0 137.5 29.5t54.5 91.5q0 40 -28.5 62t-82.5 22q-91 0 -196 -43l-21 158q114 47 252 47q120 0 196.5 -56t76.5 -161q0 -168 -164 -226v-2q50 -21 77 -66t27 -102q0 -99 -50.5 -167t-132.5 -98t-189 -30q-136 0 -254 56l59 153q102 -45 193 -45
q78 0 128 30t50 93q0 48 -44.5 72t-123.5 24h-94z" />
    <glyph glyph-name="four.numerator" 
d="M860 1466l-117 -542h97l-35 -158h-94l-37 -176h-195l37 176h-389l41 190l430 510h262zM551 924l72 346h-5l-274 -346h207z" />
    <glyph glyph-name="five.numerator" 
d="M408 739q81 0 133.5 36t52.5 104q0 114 -176 114q-81 0 -172 -16l135 491h485l-32 -161h-314l-51 -170q27 4 61 4q120 0 191.5 -62t71.5 -178q0 -157 -104.5 -241.5t-272.5 -84.5q-150 0 -269 58l58 153q100 -47 203 -47z" />
    <glyph glyph-name="six.numerator" 
d="M664 1319q-88 0 -151.5 -55.5t-100.5 -151.5h4q70 64 166 64q115 0 176 -67t61 -169q0 -156 -97.5 -260.5t-262.5 -104.5q-143 0 -215 86.5t-72 215.5q0 67 13 135.5t38 137t66.5 128t94.5 106t125.5 73t156.5 26.5q95 0 172 -25l-50 -160q-65 21 -124 21zM518 1026
q-68 0 -110.5 -47.5t-42.5 -120.5q0 -51 26 -86t82 -35q69 0 110.5 54.5t41.5 128.5q0 45 -27.5 75.5t-79.5 30.5z" />
    <glyph glyph-name="seven.numerator" 
d="M285 1305l34 163h590l-32 -161q-292 -346 -392 -717h-213q48 179 147.5 368.5t235.5 346.5h-370z" />
    <glyph glyph-name="eight.numerator" 
d="M590 1483q122 0 200 -59.5t78 -161.5q0 -162 -153 -224v-2q106 -59 106 -176q0 -138 -103 -211.5t-261 -73.5q-134 0 -220.5 61.5t-86.5 174.5q0 173 188 240v4q-40 24 -63 64.5t-23 90.5q0 130 97 201.5t241 71.5zM500 963q-60 0 -107 -35.5t-47 -93.5q0 -45 33 -72
t90 -27q65 0 110.5 33.5t45.5 89.5q0 46 -34.5 75.5t-90.5 29.5zM545 1118q58 0 97.5 33t39.5 90q0 39 -30 63.5t-79 24.5q-56 0 -95.5 -32.5t-39.5 -84.5q0 -42 30.5 -68t76.5 -26z" />
    <glyph glyph-name="nine.numerator" 
d="M373 737q90 0 153.5 54t100.5 151h-2q-71 -65 -164 -65q-115 0 -179.5 69.5t-64.5 173.5q0 156 97.5 259.5t263.5 103.5q143 0 214.5 -86t71.5 -217q0 -82 -17 -164.5t-55.5 -162.5t-94.5 -141.5t-140 -99t-186 -37.5q-93 0 -170 25l49 156q50 -19 123 -19zM522 1030
q67 0 109.5 48.5t42.5 119.5q0 50 -27.5 85.5t-83.5 35.5q-70 0 -110.5 -54.5t-40.5 -127.5q0 -44 28.5 -75.5t81.5 -31.5z" />
    <glyph glyph-name="acute.cap" horiz-adv-x="944" 
d="M1102 1860l-344 -297h-236l258 297h322z" />
    <glyph glyph-name="breve.cap" horiz-adv-x="944" 
d="M905 1876h176q-56 -315 -368 -315q-83 0 -144 20.5t-95.5 55.5t-51 77.5t-16.5 91.5q0 33 6 70h170q-4 -28 -4 -43q0 -107 135 -107q87 0 132 36t60 114z" />
    <glyph glyph-name="caron.alt" horiz-adv-x="944" 
d="M793 1573l-142 -336h-162l103 336h201z" />
    <glyph glyph-name="caron.cap" horiz-adv-x="944" 
d="M373 1868h219l113 -182l188 182h237l-301 -312h-284z" />
    <glyph glyph-name="circumflex.cap" horiz-adv-x="944" 
d="M1049 1559h-220l-110 182l-191 -182h-235l301 309h285z" />
    <glyph glyph-name="commaaccent.alt" horiz-adv-x="944" 
d="M420 1237l276 336h203l-197 -336h-282z" />
    <glyph glyph-name="dieresis.cap" horiz-adv-x="944" 
d="M1083 1853l-53 -249h-246l54 249h245zM655 1853l-53 -249h-244l54 249h243z" />
    <glyph glyph-name="dotaccent.cap" horiz-adv-x="944" 
d="M893 1853l-55 -258h-287l55 258h287z" />
    <glyph glyph-name="grave.cap" horiz-adv-x="944" 
d="M608 1563l-258 295h293l168 -295h-203z" />
    <glyph glyph-name="hungarumlaut.cap" horiz-adv-x="944" 
d="M1229 1870l-307 -307h-213l262 307h258zM858 1870l-297 -307h-205l252 307h250z" />
    <glyph glyph-name="macron.cap" horiz-adv-x="944" 
d="M1026 1812l-39 -178h-581l38 178h582z" />
    <glyph glyph-name="ring.cap" horiz-adv-x="944" 
d="M709 1841q-47 0 -79 -33t-32 -82q0 -51 31.5 -83.5t79.5 -32.5t80 32.5t32 81.5q0 51 -32 84t-80 33zM711 1944q92 0 152.5 -62.5t60.5 -155.5q0 -95 -60.5 -155t-154.5 -60q-93 0 -154 60t-61 155q0 92 62 155t155 63z" />
    <glyph glyph-name="tilde.cap" horiz-adv-x="944" 
d="M770 1790q42 -30 63.5 -41.5t43.5 -11.5q38 0 59.5 32.5t32.5 94.5h159q-58 -299 -245 -299q-42 0 -81 15.5t-95 51.5q-50 34 -75 46t-48 12q-74 0 -99 -127h-159q26 147 93.5 223t162.5 76q49 0 91 -16.5t97 -55.5z" />
    <glyph glyph-name="hyphen.cap" horiz-adv-x="811" 
d="M176 633l49 231h531l-51 -231h-529z" />
    <glyph glyph-name="endash.cap" horiz-adv-x="1015" 
d="M1044 840l-40 -185h-914l41 185h913z" />
    <glyph glyph-name="emdash.cap" horiz-adv-x="1630" 
d="M1659 840l-41 -185h-1528l41 185h1528z" />
    <glyph glyph-name="zero.tnum" horiz-adv-x="1239" 
d="M811 1487q420 0 420 -498q0 -91 -11.5 -187t-37.5 -196t-63 -191t-92.5 -172t-122 -140t-155 -93.5t-188.5 -34.5q-221 0 -324.5 133t-103.5 369q0 104 17 215t50.5 225.5t89.5 216t128.5 181t174 126t218.5 46.5zM786 1255q-80 0 -150.5 -80.5t-115.5 -202t-70.5 -255
t-25.5 -246.5q0 -132 33.5 -198t122.5 -66q66 0 125 54.5t101 140.5t73 191t46 207.5t15 188.5q0 133 -33.5 199.5t-120.5 66.5z" />
    <glyph glyph-name="one.tnum" horiz-adv-x="1239" 
d="M1055 1462l-310 -1462h-290l250 1178l-308 -160l-61 225l420 219h299z" />
    <glyph glyph-name="two.tnum" horiz-adv-x="1239" 
d="M1075 231l-47 -231h-973l49 238q334 241 507 389t242 248.5t69 197.5q0 86 -56 130t-149 44q-159 0 -322 -78l-49 215q90 48 199.5 75.5t214.5 27.5q212 0 333 -99.5t121 -283.5q0 -58 -11 -111t-37 -106t-57 -99.5t-84 -100.5t-104 -100t-131.5 -108t-151.5 -114
t-177 -127v-7h614z" />
    <glyph glyph-name="three.tnum" horiz-adv-x="1239" 
d="M375 633l51 231h129q72 0 132.5 11t113 36t82.5 72.5t30 112.5q0 79 -56.5 119t-149.5 40q-154 0 -310 -61l-26 223q173 70 389 70q91 0 170 -21t141 -63t97.5 -111.5t35.5 -158.5q0 -145 -77 -240t-242 -141v-4q105 -30 162 -109t57 -184q0 -121 -48 -215t-132 -151
t-189.5 -85.5t-228.5 -28.5q-236 0 -426 91l84 221q168 -80 334 -80q64 0 118 12.5t99.5 39t71.5 73t26 108.5q0 68 -44 113t-111.5 62.5t-157.5 17.5h-125z" />
    <glyph glyph-name="four.tnum" horiz-adv-x="1239" 
d="M1233 1462l-195 -921h158l-47 -234h-160l-65 -307h-285l66 307h-658l59 287l715 868h412zM754 541l143 669h-4l-537 -669h398z" />
    <glyph glyph-name="five.tnum" horiz-adv-x="1239" 
d="M494 215q68 0 125.5 14.5t104.5 44t74 81t27 120.5q0 61 -25 105t-70 68.5t-99.5 36t-122.5 11.5q-106 0 -264 -24l211 790h784l-49 -231h-526l-93 -326q59 6 111 6q192 0 314 -103t122 -296q0 -172 -79.5 -294.5t-215.5 -182.5t-313 -60q-250 0 -436 88l80 230
q70 -35 161.5 -56.5t178.5 -21.5z" />
    <glyph glyph-name="six.tnum" horiz-adv-x="1239" 
d="M948 1253q-171 0 -289 -111t-176 -292h4q60 60 141.5 90.5t162.5 30.5q98 0 175 -31t125.5 -85t73.5 -123.5t25 -149.5q0 -124 -40 -234t-113 -193t-185.5 -131.5t-249.5 -48.5q-101 0 -182 28.5t-133 75.5t-87 111.5t-50 133t-15 143.5q0 112 21.5 228t63.5 231
t110 215.5t155 178t206 122.5t255 45q144 0 266 -37l-65 -225q-83 28 -199 28zM711 754q-124 0 -209.5 -88.5t-85.5 -221.5q0 -46 10 -86t32 -75t63 -55.5t97 -20.5q92 0 159 50t97.5 126.5t30.5 167.5q0 85 -49.5 144t-144.5 59z" />
    <glyph glyph-name="seven.tnum" horiz-adv-x="1239" 
d="M309 1231l51 231h955l-51 -239q-251 -288 -427.5 -606.5t-263.5 -616.5h-288q87 293 273 634.5t405 596.5h-654z" />
    <glyph glyph-name="eight.tnum" horiz-adv-x="1239" 
d="M649 641q-47 0 -94.5 -15.5t-88.5 -44.5t-67 -76.5t-26 -105.5q0 -94 64.5 -145t162.5 -51q118 0 199.5 58.5t81.5 166.5q0 66 -37.5 116t-89 73.5t-105.5 23.5zM803 1487q125 0 225.5 -40.5t162.5 -125t62 -199.5q0 -282 -290 -374v-5q89 -40 147.5 -116.5t58.5 -188.5
q0 -91 -31.5 -168t-87 -130.5t-130.5 -91t-162 -55.5t-183 -18q-101 0 -189.5 25t-156.5 72.5t-107.5 123t-39.5 169.5q0 82 29 151t79 117t109 80.5t127 50.5v4q-77 39 -122.5 111t-45.5 161q0 107 45 193.5t121.5 141t173.5 83.5t205 29zM729 862q41 0 84 14t80.5 41
t61.5 71.5t24 98.5q0 84 -56 131.5t-145 47.5q-104 0 -175 -57t-71 -160q0 -86 59 -136.5t138 -50.5z" />
    <glyph glyph-name="nine.tnum" horiz-adv-x="1239" 
d="M418 207q90 0 165.5 30.5t132 86.5t97 127t68.5 159h-4q-60 -60 -141.5 -90.5t-162.5 -30.5q-191 0 -295 113.5t-104 280.5q0 124 39.5 233.5t112.5 192t185.5 130.5t250.5 48q101 0 182 -28.5t133 -76t87 -112t50 -133.5t15 -144q0 -95 -14 -193t-45 -198.5
t-76.5 -191.5t-112 -171t-147 -138.5t-187 -92t-227.5 -33.5q-137 0 -266 35l65 226q83 -29 199 -29zM655 707q125 0 209 88.5t84 220.5q0 46 -10 86t-32.5 75t-64 55.5t-98.5 20.5q-91 0 -157 -50.5t-96.5 -126t-30.5 -163.5q0 -86 50 -146t146 -60z" />
    <glyph glyph-name="dollar.tnum" horiz-adv-x="1239" 
d="M559 -160h-141l37 172q-179 14 -330 74l72 223q152 -68 303 -80l92 422q-143 92 -206.5 183t-63.5 210q0 97 37 174t101.5 125.5t145.5 75t174 31.5l33 154h143l-32 -158q142 -11 258 -57l-66 -218q-129 51 -239 58l-84 -393q148 -104 212 -194.5t64 -207.5
q0 -193 -130.5 -303t-342.5 -121zM799 408q0 38 -16.5 73.5t-67.5 81.5l-72 -325q156 33 156 170zM586 1065q0 -37 17 -69.5t67 -73.5l63 303q-147 -28 -147 -160z" />
    <glyph glyph-name="currency.tnum" horiz-adv-x="1239" 
d="M612 272q-105 0 -184 45l-164 -131l-145 183l166 133q-15 46 -15 96q0 154 86 270l-129 162l191 150l129 -162q82 39 188 39q109 0 183 -47l165 133l146 -185l-166 -133q16 -46 16 -96q0 -150 -88 -272l129 -160l-190 -147l-127 159q-84 -37 -191 -37zM635 479
q90 0 155.5 64t65.5 157q0 66 -38.5 108t-104.5 42q-91 0 -156 -65t-65 -158q0 -66 38.5 -107t104.5 -41z" />
    <glyph glyph-name="Euro.tnum" horiz-adv-x="1239" 
d="M162 688h117q6 65 24 129h-164l68 170h135q45 110 114 199.5t161 157.5t210.5 105.5t253.5 37.5q132 0 219 -23l-90 -233q-59 16 -131 16q-301 0 -428 -260h490l-66 -170h-477q-21 -70 -27 -129h457l-67 -170h-386q13 -141 103 -224t262 -83q94 0 145 10l17 -227
q-84 -19 -217 -19q-186 0 -320.5 70.5t-205 191t-83.5 281.5h-184z" />
    <glyph glyph-name="cent.tnum" horiz-adv-x="1239" 
d="M1020 1229l-29 -129q66 -3 125 -23l-63 -209q-57 18 -105 21l-149 -699q69 3 149 31v-209q-98 -32 -194 -35l-25 -114h-156l27 123q-176 28 -263 149t-87 291q0 178 70.5 325t205 240.5t310.5 108.5l28 129h156zM524 444q0 -182 123 -231l141 659q-124 -37 -194 -158.5
t-70 -269.5z" />
    <glyph glyph-name="sterling.tnum" horiz-adv-x="1239" 
d="M1239 1438l-82 -228q-67 33 -170 33q-118 0 -179 -67.5t-87 -186.5l-29 -131h340l-41 -196h-340l-88 -429h529l-50 -233h-1013l49 233h198l91 429h-187l41 196h187l30 143q19 87 45.5 155.5t71 131t103 104t143.5 65.5t190 24q151 0 248 -43z" />
    <glyph glyph-name="florin.tnum" horiz-adv-x="1239" 
d="M35 -242l55 217q64 -18 117 -18q63 0 96.5 36t56.5 116l158 565h-229l49 213h240l67 229q15 52 31.5 92.5t41 85t57 76.5t75.5 59t101 40.5t128 13.5q117 0 199 -29l-76 -213q-46 21 -117 21t-111 -45t-65 -127l-57 -203h262l-53 -213h-264l-176 -611q-22 -77 -51 -132.5
t-75.5 -103t-118 -71.5t-167.5 -24q-95 0 -174 26z" />
    <glyph glyph-name="yen.tnum" horiz-adv-x="1239" 
d="M147 477h338l29 129h-340l37 170h266l-213 686h305l140 -575l391 575h330l-517 -686h250l-37 -170h-340l-26 -129h340l-37 -170h-338l-63 -307h-281l68 307h-338z" />
    <glyph glyph-name="colon.cap" horiz-adv-x="739" 
d="M172 190l68 322h315l-68 -322h-315zM332 950l69 322h316l-72 -322h-313z" />
    <glyph glyph-name="registered.alt1" horiz-adv-x="1630" 
d="M254 727q0 -130 46.5 -247t128 -203t200 -136.5t256.5 -50.5q135 0 252.5 50.5t198.5 136.5t127 203t46 247q0 176 -78 323.5t-222 235.5t-324 88q-183 0 -328.5 -88t-224 -235t-78.5 -324zM133 727q0 156 56 295t154.5 240t239 160t302.5 59q160 0 299.5 -59t236 -160
t152 -240t55.5 -295q0 -206 -94 -376t-265 -269.5t-384 -99.5q-162 0 -302.5 58.5t-239 158.5t-154.5 237t-56 291zM565 299v872h353q63 0 116.5 -12.5t99.5 -39t72.5 -75.5t26.5 -116q0 -138 -139 -197v-4q41 -15 64 -47.5t46 -110.5q48 -166 82 -270h-225l-57 225
q-18 69 -47 87t-107 18h-82v-330h-203zM768 1004v-222h100q162 0 162 111t-158 111h-104z" />
    <glyph glyph-name="zero.slash" horiz-adv-x="1239" 
d="M811 1487q420 0 420 -498q0 -91 -11.5 -187t-37.5 -196t-63 -191t-92.5 -172t-122 -140t-155 -93.5t-188.5 -34.5q-221 0 -324.5 133t-103.5 369q0 104 17 215t50.5 225.5t89.5 216t128.5 181t174 126t218.5 46.5zM786 1255q-75 0 -141.5 -69t-111 -177t-72.5 -229.5
t-35 -236.5l508 549q-19 163 -148 163zM580 207q75 0 141.5 70.5t110 180t71 230t35.5 232.5l-508 -551q10 -78 45 -120t105 -42z" />
    <glyph glyph-name="cyrbreve" horiz-adv-x="944" 
d="M657 1235q-83 0 -144 20.5t-95.5 56t-51 78t-16.5 91.5q0 31 6 69h168q-4 -28 -4 -43q0 -108 135 -108q88 0 133 36t60 115h176q-55 -315 -367 -315z" />
    <glyph glyph-name="cyrbreve.cap" horiz-adv-x="944" 
d="M713 1561q-83 0 -144 20.5t-95.5 55.5t-51 77.5t-16.5 91.5q0 33 6 70h170q-4 -28 -4 -43q0 -107 135 -107q87 0 132 36t60 114h176q-56 -315 -368 -315z" />
    </font>
</defs>
</svg>
