<?xml version="1.0" standalone="no"?>
<!DOCTYPE svg PUBLIC "-//W3C//DTD SVG 1.1//EN" "http://www.w3.org/Graphics/SVG/1.1/DTD/svg11.dtd" >
<svg xmlns="http://www.w3.org/2000/svg" xmlns:xlink="http://www.w3.org/1999/xlink" version="1.1">
<metadata>
Created by FontForge 20170731 at Wed Aug  4 13:29:02 2021
 By Aleksey,,,
Copyright (c) 2012 Linotype GmbH, www.linotype.com. All rights reserved. This font software may not be reproduced, modified, disclosed or transferred without the express written approval of Linotype GmbH. SST is a trademark of Linotype GmbH and may be registered in certain jurisdictions. This typeface is original artwork of Akira Kobayashi. The design may be protected in certain jurisdictions.
</metadata>
<defs>
<font id="SSTPro-HeavyItalic" horiz-adv-x="792" >
  <font-face 
    font-family="SST Pro Heavy"
    font-weight="900"
    font-style="italic"
    font-stretch="normal"
    units-per-em="2048"
    panose-1="2 11 9 4 3 5 4 9 2 4"
    ascent="1577"
    descent="-471"
    x-height="1081"
    cap-height="1462"
    bbox="-569 -449 2464 1946"
    underline-thickness="102"
    underline-position="-307"
    slope="-11"
    unicode-range="U+000D-FB04"
  />
<missing-glyph horiz-adv-x="1048" 
d="M637 240h-115v137h115v-137zM623 479h-95l-4 35q0 114 27 166q29 56 94 121q63 60 83 95t20 75q0 73 -46 123.5t-110 50.5q-67 0 -112 -47.5t-56 -147.5l-102 17q13 141 87 210.5t189 69.5q110 0 182 -74t72 -194q0 -69 -27 -123t-102 -123q-77 -68 -88 -106
q-12 -41 -12 -148zM170 102h844v1264h-844v-1264zM68 1470h1048v-1470h-1048v1470z" />
    <glyph glyph-name="IJ" unicode="IJ" horiz-adv-x="1429" 
d="M53 0l309 1462h349l-310 -1462h-348zM1509 1462l-225 -1069q-18 -86 -42 -148t-63.5 -115.5t-95 -86t-136 -50.5t-187.5 -18q-96 0 -187 17l66 270q52 -12 121 -12q82 0 123 43t63 149l215 1020h348z" />
    <glyph glyph-name="ij" unicode="ij" horiz-adv-x="1163" 
d="M262 1081h338l-229 -1081h-338zM352 1505h338l-61 -288h-338zM928 1505h338l-62 -288h-338zM1176 1081l-236 -1106q-16 -72 -35.5 -124.5t-54.5 -102t-83 -80t-120.5 -49t-167.5 -18.5q-77 0 -149 10l35 250q44 -8 88 -8q70 0 104.5 39t52.5 124l228 1065h338z" />
    <glyph glyph-name="napostrophe" unicode="&#x22;n" horiz-adv-x="1277" 
d="M262 1081h326l-35 -147h4q117 172 338 172q152 0 235.5 -89.5t83.5 -230.5q0 -76 -20 -174l-129 -612h-338l115 539q26 123 26 182q0 61 -26 97t-97 36q-88 0 -158.5 -79.5t-101.5 -229.5l-114 -545h-338zM451 1573l-146 -336h-188l100 336h234z" />
    <glyph glyph-name="f_f" unicode="ff" horiz-adv-x="1353" 
d="M1587 1489l-55 -252q-55 10 -107 10q-70 0 -106 -30t-47 -87l-10 -49h217l-54 -247h-204l-177 -834h-337l176 834h-312l-176 -834h-338l176 834h-161l53 247h154l14 66q14 65 32 113t52.5 96.5t82.5 79.5t123 50t173 19q76 0 182 -16l-55 -252q-55 10 -107 10
q-70 0 -106 -30t-47 -87l-11 -49h316l14 66q14 65 32 113t52.5 96.5t82.5 79.5t123 50t173 19q76 0 182 -16z" />
    <glyph glyph-name="fi" unicode="fi" horiz-adv-x="1261" 
d="M1266 1477l-56 -252q-32 6 -126 14t-164 8q-154 0 -220 -34t-82 -111l-4 -21h660l-230 -1081h-337l176 834h-312l-176 -834h-338l176 834h-161l53 247h154l8 35q22 94 61 161.5t108 121t179.5 80t263.5 26.5q213 0 367 -28z" />
    <glyph glyph-name="fl" unicode="fl" horiz-adv-x="1261" 
d="M279 1081l8 35q22 94 61 161.5t108 121t179.5 80t263.5 26.5q252 0 457 -41l-312 -1464h-337l264 1243q-24 4 -64 4q-143 0 -208.5 -34.5t-80.5 -110.5l-4 -21h215l-53 -247h-205l-176 -834h-338l176 834h-161l53 247h154z" />
    <glyph glyph-name="f_f_i" unicode="ffi" horiz-adv-x="1910" 
d="M1915 1477l-55 -252q-32 6 -126.5 14t-164.5 8q-154 0 -219.5 -34t-81.5 -111l-4 -21h659l-229 -1081h-338l176 834h-311l-177 -834h-337l176 834h-312l-176 -834h-338l176 834h-161l53 247h154l14 66q14 65 32 113t52.5 96.5t82.5 79.5t123 50t173 19q76 0 182 -16
l-55 -252q-55 10 -107 10q-70 0 -106 -30t-47 -87l-11 -49h316l8 35q22 94 61 161.5t108 121t179.5 80t263.5 26.5q213 0 367 -28z" />
    <glyph glyph-name="f_f_l" unicode="ffl" horiz-adv-x="1910" 
d="M928 1081l8 35q22 94 61 161.5t108 121t179.5 80t263.5 26.5q252 0 457 -41l-311 -1464h-338l264 1243q-36 4 -64 4q-142 0 -207.5 -34.5t-80.5 -110.5l-4 -21h215l-54 -247h-204l-177 -834h-337l176 834h-312l-176 -834h-338l176 834h-161l53 247h154l14 66
q14 65 32 113t52.5 96.5t82.5 79.5t123 50t173 19q76 0 182 -16l-55 -252q-55 10 -107 10q-70 0 -106 -30t-47 -87l-11 -49h316z" />
    <glyph glyph-name=".notdef" horiz-adv-x="1048" 
d="M637 240h-115v137h115v-137zM623 479h-95l-4 35q0 114 27 166q29 56 94 121q63 60 83 95t20 75q0 73 -46 123.5t-110 50.5q-67 0 -112 -47.5t-56 -147.5l-102 17q13 141 87 210.5t189 69.5q110 0 182 -74t72 -194q0 -69 -27 -123t-102 -123q-77 -68 -88 -106
q-12 -41 -12 -148zM170 102h844v1264h-844v-1264zM68 1470h1048v-1470h-1048v1470z" />
    <glyph glyph-name=".null" horiz-adv-x="0" 
 />
    <glyph glyph-name="nonmarkingreturn" horiz-adv-x="682" 
 />
    <glyph glyph-name="CR" unicode="&#xd;" horiz-adv-x="0" 
 />
    <glyph glyph-name="space" unicode=" " horiz-adv-x="532" 
 />
    <glyph glyph-name="exclam" unicode="!" horiz-adv-x="661" 
d="M750 1462l-244 -905h-307l161 905h390zM59 0l76 362h361l-76 -362h-361z" />
    <glyph glyph-name="quotedbl" unicode="&#x22;" horiz-adv-x="978" 
d="M291 983l57 524h322l-168 -524h-211zM711 983l57 524h319l-167 -524h-209z" />
    <glyph glyph-name="numbersign" unicode="#" horiz-adv-x="1288" 
d="M371 0h-271l125 360h-174l49 244h211l90 256h-215l52 244h247l125 358h271l-125 -358h186l125 358h270l-125 -358h158l-51 -244h-191l-90 -256h191l-51 -244h-226l-125 -360h-270l125 360h-186zM672 860l-90 -256h186l90 256h-186z" />
    <glyph glyph-name="dollar" unicode="$" horiz-adv-x="1196" 
d="M1171 1391l-75 -256q-125 52 -246 59l-72 -340q74 -47 120 -83.5t87.5 -84.5t60.5 -105t19 -128q0 -90 -28 -164.5t-75.5 -124.5t-113 -85.5t-136.5 -52.5t-149 -20l-35 -166h-149l35 170q-178 13 -336 72l84 266q169 -69 309 -82l78 369q-153 96 -218 185t-65 212
q0 108 44 191.5t117 132t156 73.5t173 27l30 148h150l-33 -154q158 -14 268 -59zM741 416q0 68 -63 125l-57 -267q120 26 120 142zM582 1057q0 -59 65 -113l51 246q-116 -24 -116 -133z" />
    <glyph glyph-name="percent" unicode="%" horiz-adv-x="1781" 
d="M463 645q-127 0 -198.5 79t-71.5 212q0 102 25 194.5t73 169t128.5 121.5t182.5 45q127 0 198.5 -79t71.5 -211q0 -102 -25 -195t-73 -169t-128.5 -121.5t-182.5 -45.5zM492 860q32 0 57.5 35t39.5 85t21.5 97t7.5 80q0 47 -10 69.5t-37 22.5q-31 0 -56.5 -35.5
t-39.5 -86.5t-21.5 -97.5t-7.5 -77.5q0 -92 46 -92zM1305 0q-127 0 -199 79.5t-72 211.5q0 102 25 194.5t73.5 169t129 121.5t182.5 45q127 0 198.5 -79t71.5 -212q0 -102 -25 -194.5t-73 -169t-128.5 -121.5t-182.5 -45zM1333 215q32 0 57.5 35t40 85t22 97t7.5 80
q0 47 -10 69.5t-37 22.5q-31 0 -56.5 -35.5t-39.5 -86.5t-21.5 -97.5t-7.5 -77.5q0 -92 45 -92zM1645 1462l-1129 -1462h-258l1133 1462h254z" />
    <glyph glyph-name="ampersand" unicode="&#x26;" horiz-adv-x="1464" 
d="M709 938q38 13 66 27t58.5 36t47 54.5t16.5 72.5q0 47 -28 78t-78 31q-71 0 -107.5 -45.5t-36.5 -110.5q0 -64 62 -143zM745 342l-186 268q-73 -32 -112 -78.5t-39 -119.5q0 -66 39.5 -104t105.5 -38q113 0 192 72zM1165 336l232 -336h-416l-82 115q-156 -135 -410 -135
q-184 0 -301.5 102.5t-117.5 271.5q0 90 24 161.5t72 126t109.5 94.5t146.5 75q-88 122 -88 250q0 96 30 171.5t77.5 122.5t112 77.5t128.5 42.5t133 12q107 0 195.5 -35t146 -112t57.5 -185q0 -148 -88 -242.5t-276 -171.5l121 -170q57 68 123 205h370q-171 -296 -299 -440
z" />
    <glyph glyph-name="quotesingle" unicode="'" horiz-adv-x="559" 
d="M289 983l57 524h322l-168 -524h-211z" />
    <glyph glyph-name="parenleft" unicode="(" horiz-adv-x="704" 
d="M897 1632q-240 -311 -380 -677t-140 -744q0 -336 106 -610h-286q-52 126 -86.5 285.5t-34.5 320.5q0 405 137.5 777.5t364.5 647.5h319z" />
    <glyph glyph-name="parenright" unicode=")" horiz-adv-x="704" 
d="M-109 -399q240 311 380.5 677t140.5 744q0 333 -107 610h287q52 -126 86.5 -285.5t34.5 -320.5q0 -405 -137.5 -777.5t-364.5 -647.5h-320z" />
    <glyph glyph-name="asterisk" unicode="*" horiz-adv-x="940" 
d="M723 1462v-225l201 82l82 -213l-207 -72l135 -198l-189 -121l-137 205l-137 -205l-186 121l135 198l-207 72l82 213l201 -82v225h227z" />
    <glyph glyph-name="plus" unicode="+" horiz-adv-x="1146" 
d="M492 137v385h-381v242h381v385h251v-385h381v-242h-381v-385h-251z" />
    <glyph glyph-name="comma" unicode="," horiz-adv-x="651" 
d="M-33 -248l217 627h340l-321 -627h-236z" />
    <glyph glyph-name="hyphen" unicode="-" horiz-adv-x="806" 
d="M133 477l60 277h536l-59 -277h-537z" />
    <glyph glyph-name="period" unicode="." horiz-adv-x="651" 
d="M53 0l80 379h369l-80 -379h-369z" />
    <glyph glyph-name="slash" unicode="/" horiz-adv-x="983" 
d="M-66 0l953 1462h280l-952 -1462h-281z" />
    <glyph glyph-name="zero" unicode="0" horiz-adv-x="1310" 
d="M836 1487q236 0 347 -133t111 -375q0 -135 -22.5 -269.5t-76.5 -268.5t-132.5 -236t-201.5 -166t-273 -64q-231 0 -349 138.5t-118 375.5q0 92 12 187.5t39 194t67 187.5t98.5 168t130 136.5t166 91t202.5 33.5zM801 1212q-74 0 -139 -75t-106 -189t-64 -240t-23 -235
q0 -223 145 -223q78 0 143.5 77t105 192.5t61.5 238.5t22 227q0 227 -145 227z" />
    <glyph glyph-name="one" unicode="1" horiz-adv-x="960" 
d="M963 1462l-310 -1462h-348l238 1124l-283 -137l-61 273l415 202h349z" />
    <glyph glyph-name="two" unicode="2" horiz-adv-x="1167" 
d="M1053 274l-58 -274h-999l57 274q318 228 482.5 365.5t232.5 232.5t68 183q0 74 -49.5 110.5t-129.5 36.5q-157 0 -317 -74l-51 256q94 47 207 75t223 28q213 0 341 -100t128 -291q0 -57 -9.5 -108.5t-33.5 -101.5t-52.5 -93.5t-78 -94t-97 -93t-123.5 -100.5
t-143.5 -106.5t-169.5 -119.5v-5h572z" />
    <glyph glyph-name="three" unicode="3" horiz-adv-x="1169" 
d="M313 608l62 275h135q313 0 313 192q0 69 -51.5 103t-134.5 34q-149 0 -309 -57l-25 264q173 68 404 68q94 0 176 -21.5t148.5 -64.5t104.5 -114.5t38 -164.5q0 -137 -69.5 -228.5t-232.5 -141.5v-4q96 -33 148.5 -108.5t52.5 -174.5q0 -100 -33.5 -182.5t-91.5 -139
t-138.5 -95t-172 -56t-193.5 -17.5q-114 0 -231 26t-207 71l98 258q174 -80 336 -80q57 0 105.5 10.5t89.5 32t64.5 61t23.5 92.5q0 162 -283 162h-127z" />
    <glyph glyph-name="four" unicode="4" horiz-adv-x="1241" 
d="M1253 1462l-190 -901h143l-57 -274h-143l-62 -287h-342l62 287h-646l70 338l682 837h483zM721 561l129 598h-4l-467 -598h342z" />
    <glyph glyph-name="five" unicode="5" horiz-adv-x="1163" 
d="M449 260q60 0 110 11t92.5 34.5t66 66t23.5 101.5q0 191 -305 191q-91 0 -256 -23l226 821h813l-58 -274h-506l-82 -277q53 4 95 4q190 0 308 -103t118 -292q0 -131 -47 -235.5t-131 -171.5t-196.5 -102.5t-246.5 -35.5q-262 0 -457 95l95 270q64 -34 158 -57t180 -23z
" />
    <glyph glyph-name="six" unicode="6" horiz-adv-x="1257" 
d="M952 1212q-298 0 -420 -327h5q110 92 276 92q129 0 223 -54t138.5 -140.5t44.5 -194.5q0 -172 -72 -310t-213 -220.5t-328 -82.5q-103 0 -187 29t-139.5 77.5t-92.5 114t-53.5 136.5t-16.5 147q0 95 15 192.5t47.5 197t80 189.5t116 169t151.5 136.5t192 90.5t231 33
q148 0 273 -33l-74 -268q-85 26 -197 26zM707 725q-108 0 -181 -77.5t-73 -196.5q0 -84 42 -142.5t134 -58.5q79 0 136 44t83 110.5t26 146.5q0 73 -43 123.5t-124 50.5z" />
    <glyph glyph-name="seven" unicode="7" horiz-adv-x="1099" 
d="M213 1188l59 274h990l-60 -284q-240 -279 -405.5 -582t-247.5 -596h-346q83 285 260.5 616.5t380.5 571.5h-631z" />
    <glyph glyph-name="eight" unicode="8" horiz-adv-x="1275" 
d="M653 618q-38 0 -79 -13.5t-77 -38.5t-59.5 -66.5t-23.5 -91.5q0 -77 57 -121.5t145 -44.5q101 0 170.5 49t69.5 139q0 86 -64 137t-139 51zM815 1487q206 0 338.5 -100.5t132.5 -266.5q0 -273 -278 -375v-4q85 -41 139.5 -115.5t54.5 -179.5q0 -152 -84.5 -260.5
t-222 -159.5t-311.5 -51q-145 0 -260 43.5t-185.5 134t-70.5 214.5q0 79 26.5 146t73 114t103.5 80t124 53v4q-70 41 -111.5 111.5t-41.5 156.5q0 112 46 200t125.5 143t182 83.5t219.5 28.5zM739 879q84 0 154 54t70 144q0 72 -51.5 112t-127.5 40q-92 0 -155.5 -48.5
t-63.5 -138.5q0 -74 53 -118.5t121 -44.5z" />
    <glyph glyph-name="nine" unicode="9" horiz-adv-x="1257" 
d="M422 250q298 0 420 328h-4q-112 -93 -277 -93q-98 0 -176 32t-127.5 87t-75.5 126t-26 151q0 128 41.5 239t118.5 192.5t193 128t257 46.5q103 0 187 -29t140 -77.5t93.5 -114t54 -136.5t16.5 -147q0 -94 -14.5 -190.5t-46 -196t-77.5 -190t-114.5 -169.5t-151.5 -137
t-193.5 -91.5t-235.5 -33.5q-147 0 -272 33l73 268q85 -26 197 -26zM672 737q107 0 178.5 79t71.5 196q0 84 -43.5 142t-135.5 58q-78 0 -135 -44t-82.5 -109t-25.5 -141q0 -74 44 -127.5t128 -53.5z" />
    <glyph glyph-name="colon" unicode=":" horiz-adv-x="765" 
d="M264 702l82 379h369l-82 -379h-369zM117 0l80 379h368l-80 -379h-368z" />
    <glyph glyph-name="semicolon" unicode=";" horiz-adv-x="765" 
d="M264 702l82 379h369l-82 -379h-369zM2 -248l217 627h340l-321 -627h-236z" />
    <glyph glyph-name="less" unicode="&#x3c;" horiz-adv-x="1146" 
d="M1126 868l-757 -231v-4l757 -240v-254l-1015 320v344l1015 319v-254z" />
    <glyph glyph-name="equal" unicode="=" horiz-adv-x="1146" 
d="M111 741v242h1013v-242h-1013zM111 303v242h1013v-242h-1013z" />
    <glyph glyph-name="greater" unicode="&#x3e;" horiz-adv-x="1146" 
d="M111 393l757 232v4l-757 239v254l1015 -319v-344l-1015 -320v254z" />
    <glyph glyph-name="question" unicode="?" horiz-adv-x="1011" 
d="M616 1202q-137 0 -292 -49l-37 274q177 60 383 60q95 0 175 -20.5t143.5 -62t99.5 -111t36 -160.5q0 -109 -39 -191t-107 -140t-185 -124q-102 -57 -143 -91t-48 -67l-4 -18h-313l8 45q18 98 67 160.5t154 128.5l66 41q117 70 156.5 110.5t39.5 102.5q0 59 -44.5 85.5
t-115.5 26.5zM164 0l76 362h362l-76 -362h-362z" />
    <glyph glyph-name="at" unicode="@" horiz-adv-x="1994" 
d="M1110 854q-55 0 -106.5 -49.5t-84.5 -122t-53 -150t-20 -137.5q0 -119 72 -119q56 0 110 63.5t88.5 148.5t56 161.5t21.5 110.5q0 94 -84 94zM1440 -86l8 -219q-205 -74 -457 -74q-208 0 -376.5 59.5t-280.5 164.5t-172 249.5t-60 315.5q0 239 78.5 441.5t218.5 343.5
t338.5 220.5t431.5 79.5q169 0 312.5 -47t249 -135t164.5 -222t59 -300q0 -170 -48.5 -312t-131.5 -237t-195.5 -147t-239.5 -52q-106 0 -162.5 42t-56.5 114q0 18 2 30h-4q-43 -82 -124.5 -134t-170.5 -52q-59 0 -106.5 19t-77.5 50.5t-50 74.5t-28 89t-8 97
q0 96 24.5 195.5t72 189.5t111 161.5t149.5 113.5t180 42q167 0 217 -127h4l24 70h260l-188 -479q-68 -174 -68 -220q0 -55 54 -55q67 0 127 50t98.5 126t61 161.5t22.5 160.5q0 239 -149 372.5t-412 133.5q-173 0 -318 -65.5t-243 -180.5t-152.5 -272t-54.5 -338
q0 -258 172.5 -411t462.5 -153q227 0 432 66z" />
    <glyph glyph-name="A" unicode="A" horiz-adv-x="1486" 
d="M936 1186l-320 -588h357zM475 324l-182 -324h-381l856 1462h446l164 -1462h-360l-31 324h-512z" />
    <glyph glyph-name="B" unicode="B" horiz-adv-x="1359" 
d="M653 1188l-63 -305h168q256 0 256 178q0 127 -183 127h-178zM53 0l309 1462h566q70 0 132 -11t118 -36t96.5 -62t64 -93t23.5 -125q0 -80 -23 -146t-63.5 -110.5t-87 -74t-101.5 -48.5l-2 -4q85 -32 137 -103t52 -180q0 -92 -34 -174.5t-99 -149t-172.5 -106
t-243.5 -39.5h-672zM528 608l-67 -334h207q254 0 254 191q0 73 -55.5 108t-151.5 35h-187z" />
    <glyph glyph-name="C" unicode="C" horiz-adv-x="1210" 
d="M1303 1442l-82 -271q-96 41 -228 41q-97 0 -180 -33.5t-141 -91t-99.5 -134t-61 -162t-19.5 -175.5q0 -76 19.5 -140.5t59 -116t106 -80.5t154.5 -29q148 0 246 33l-8 -267q-132 -41 -303 -41q-157 0 -278 47t-195.5 131t-112 194.5t-37.5 242.5q0 188 59 352t166.5 285
t268 190.5t354.5 69.5q192 0 312 -45z" />
    <glyph glyph-name="D" unicode="D" horiz-adv-x="1507" 
d="M53 0l309 1462h478q313 0 477 -153.5t164 -438.5q0 -138 -32.5 -264t-103 -237t-172 -192.5t-248 -129t-323.5 -47.5h-549zM653 1188l-192 -914h160q126 0 224.5 47t159.5 128t92 184t31 221q0 163 -80.5 248.5t-273.5 85.5h-121z" />
    <glyph glyph-name="E" unicode="E" horiz-adv-x="1136" 
d="M53 0l309 1462h857l-58 -274h-512l-63 -305h481l-57 -275h-484l-71 -334h565l-57 -274h-910z" />
    <glyph glyph-name="F" unicode="F" horiz-adv-x="1093" 
d="M53 0l309 1462h875l-57 -274h-527l-63 -305h483l-59 -275h-484l-129 -608h-348z" />
    <glyph glyph-name="G" unicode="G" horiz-adv-x="1462" 
d="M1427 1425l-104 -276q-49 26 -132.5 43.5t-160.5 17.5q-126 0 -228.5 -46.5t-170 -128t-103.5 -191.5t-36 -238q0 -76 20 -138.5t60.5 -112t110 -77.5t161.5 -28q62 0 114 12l72 340h-213l60 275h555l-179 -836q-188 -66 -454 -66q-164 0 -291 45t-206 126.5t-119 188.5
t-40 236q0 194 58 359.5t168 290t283.5 195.5t391.5 71q98 0 204 -16.5t179 -45.5z" />
    <glyph glyph-name="H" unicode="H" horiz-adv-x="1474" 
d="M53 0l309 1462h349l-121 -579h479l121 579h348l-309 -1462h-348l129 608h-480l-129 -608h-348z" />
    <glyph glyph-name="I" unicode="I" horiz-adv-x="647" 
d="M53 0l309 1462h349l-310 -1462h-348z" />
    <glyph glyph-name="J" unicode="J" horiz-adv-x="806" 
d="M887 1462l-225 -1069q-18 -86 -42 -148t-63.5 -115.5t-95.5 -86t-136.5 -50.5t-187.5 -18q-95 0 -186 17l65 270q52 -12 121 -12q82 0 123.5 43.5t63.5 148.5l215 1020h348z" />
    <glyph glyph-name="K" unicode="K" horiz-adv-x="1351" 
d="M1114 1462h422l-610 -727l344 -735h-400l-311 723h-4l-154 -723h-348l309 1462h349l-146 -688h4z" />
    <glyph glyph-name="L" unicode="L" horiz-adv-x="1052" 
d="M53 0l309 1462h349l-250 -1188h520l-59 -274h-869z" />
    <glyph glyph-name="M" unicode="M" horiz-adv-x="1947" 
d="M956 1462l-14 -1118h6l457 1118h606l-309 -1462h-338l246 1157h-4l-510 -1157h-447l-20 1157h-4l-246 -1157h-326l309 1462h594z" />
    <glyph glyph-name="N" unicode="N" horiz-adv-x="1529" 
d="M920 1462l100 -1114h4l236 1114h333l-309 -1462h-534l-119 1135h-4l-240 -1135h-334l309 1462h558z" />
    <glyph glyph-name="O" unicode="O" horiz-adv-x="1572" 
d="M1546 918q0 -134 -27 -263t-89.5 -253.5t-154.5 -218t-233 -151t-313 -57.5q-155 0 -270.5 43.5t-183 123t-100 181.5t-32.5 228q0 145 31 280.5t96.5 255t160 208.5t230 140.5t297.5 51.5q147 0 260.5 -43t184.5 -120t107 -179.5t36 -226.5zM766 254q87 0 160.5 41.5
t121.5 108.5t82 152t49 170.5t15 166.5q0 145 -65 230t-207 85q-99 0 -182 -55.5t-135.5 -146t-81.5 -203.5t-29 -232q0 -144 65.5 -230.5t206.5 -86.5z" />
    <glyph glyph-name="P" unicode="P" horiz-adv-x="1320" 
d="M53 0l309 1462h531q134 0 237 -42.5t166.5 -136t63.5 -228.5q0 -182 -79 -307t-220 -184.5t-336 -59.5h-217l-107 -504h-348zM653 1188l-86 -410h189q117 0 186.5 59.5t69.5 184.5q0 78 -51.5 122t-147.5 44h-160z" />
    <glyph glyph-name="Q" unicode="Q" horiz-adv-x="1572" 
d="M1546 918q0 -124 -25 -246t-75.5 -238t-136 -213.5t-197.5 -157.5l197 -303h-379l-131 220q-57 -5 -70 -5q-155 0 -270.5 43.5t-183 123t-100 181.5t-32.5 228q0 145 31 280.5t96.5 255t160 208.5t230 140.5t297.5 51.5q147 0 260.5 -43t184.5 -120t107 -179.5t36 -226.5
zM766 254q87 0 160.5 41.5t121.5 108.5t82 152t49 170.5t15 166.5q0 145 -65 230t-207 85q-99 0 -182 -55.5t-135.5 -146t-81.5 -203.5t-29 -232q0 -144 65.5 -230.5t206.5 -86.5z" />
    <glyph glyph-name="R" unicode="R" horiz-adv-x="1376" 
d="M53 0l309 1462h578q93 0 169.5 -18.5t140 -58.5t99 -111t35.5 -168q0 -87 -25 -157.5t-69 -118.5t-96 -79t-115 -51v-4q56 -25 87.5 -76.5t47.5 -162.5q57 -383 70 -457h-366q-30 248 -46 360q-12 87 -35.5 129t-74 60t-150.5 18h-92l-119 -567h-348zM653 1188l-73 -348
h155q289 0 289 200q0 148 -221 148h-150z" />
    <glyph glyph-name="S" unicode="S" horiz-adv-x="1105" 
d="M1141 1417l-80 -270q-152 65 -322 65q-47 0 -87 -12t-70.5 -44t-30.5 -81q0 -56 34.5 -95t137.5 -103q82 -51 132.5 -90.5t96 -91.5t66 -114.5t20.5 -140.5q0 -98 -32 -177.5t-85.5 -132.5t-126 -88.5t-151 -51t-162.5 -15.5q-243 0 -463 80l88 277q208 -82 373 -82
q102 0 156.5 39t54.5 114q0 61 -40.5 107.5t-151.5 116.5q-160 100 -225.5 190.5t-65.5 226.5q0 93 32 169.5t84 126t121.5 83.5t142.5 49t148 15q240 0 406 -70z" />
    <glyph glyph-name="T" unicode="T" horiz-adv-x="1114" 
d="M285 0l250 1188h-361l59 274h1057l-59 -274h-348l-250 -1188h-348z" />
    <glyph glyph-name="U" unicode="U" horiz-adv-x="1443" 
d="M1520 1462l-220 -1030q-97 -457 -638 -457q-114 0 -209 21t-170.5 63.5t-117.5 116t-42 170.5q0 67 14 135l209 981h348l-198 -936q-15 -69 -15 -106q0 -170 201 -170q121 0 188 52.5t93 174.5l208 985h349z" />
    <glyph glyph-name="V" unicode="V" horiz-adv-x="1380" 
d="M305 0l-65 1462h362l2 -1114h4l600 1114h394l-848 -1462h-449z" />
    <glyph glyph-name="W" unicode="W" horiz-adv-x="2027" 
d="M1073 0l76 1122h-4l-414 -1122h-500l25 1462h377l-72 -1145h4l393 1145h523l-103 -1145h4l418 1145h383l-606 -1462h-504z" />
    <glyph glyph-name="X" unicode="X" horiz-adv-x="1343" 
d="M1137 1462h424l-578 -702l268 -760h-387l-157 508l-396 -508h-434l623 760l-250 702h385l143 -465z" />
    <glyph glyph-name="Y" unicode="Y" horiz-adv-x="1314" 
d="M371 0l112 537l-303 925h383l154 -585l432 585h416l-734 -925l-112 -537h-348z" />
    <glyph glyph-name="Z" unicode="Z" horiz-adv-x="1241" 
d="M31 274l843 914h-614l59 274h1031l-60 -274l-827 -914h680l-58 -274h-1112z" />
    <glyph glyph-name="bracketleft" unicode="[" horiz-adv-x="704" 
d="M854 1632l-51 -243h-213l-328 -1543h225l-53 -245h-504l432 2031h492z" />
    <glyph glyph-name="backslash" unicode="\" horiz-adv-x="983" 
d="M434 1462l498 -1462h-260l-498 1462h260z" />
    <glyph glyph-name="bracketright" unicode="]" horiz-adv-x="704" 
d="M-90 -399l49 243h234l327 1542h-246l54 246h522l-432 -2031h-508z" />
    <glyph glyph-name="asciicircum" unicode="^" horiz-adv-x="1146" 
d="M614 1223l-198 -611h-264l303 828h325l303 -828h-264l-201 611h-4z" />
    <glyph glyph-name="underscore" unicode="_" horiz-adv-x="1024" 
d="M-117 -154h1024l-39 -182h-1022z" />
    <glyph glyph-name="grave" unicode="`" horiz-adv-x="940" 
d="M569 1237l-264 336h344l164 -336h-244z" />
    <glyph glyph-name="a" unicode="a" horiz-adv-x="1187" 
d="M780 682q6 24 6 45q0 68 -50.5 97.5t-155.5 29.5q-124 0 -277 -49l-8 237q87 29 190.5 46.5t182.5 17.5q454 0 454 -336q0 -60 -16 -129l-86 -395q-37 -173 -37 -246h-293q-2 8 -2 35q0 63 6 84h-4q-110 -144 -311 -144q-65 0 -123 19t-104.5 56t-73.5 98.5t-27 140.5
q0 78 24.5 139t60.5 101.5t98.5 69.5t117.5 44t139.5 24t142 11.5t146.5 3.5zM737 475h-32q-76 0 -131.5 -6.5t-104 -22.5t-73.5 -48.5t-25 -80.5q0 -54 28.5 -82t81.5 -28q100 0 162.5 60.5t79.5 140.5z" />
    <glyph glyph-name="b" unicode="b" horiz-adv-x="1282" 
d="M389 102l-20 -102h-336l319 1505h338l-115 -544h5q47 65 125 105t174 40q88 0 155.5 -35.5t107.5 -96t60.5 -134.5t20.5 -158q0 -111 -24 -215t-72 -193t-113.5 -156t-154 -105t-189.5 -38q-189 0 -277 127h-4zM623 227q67 0 121.5 38.5t86.5 100t49 131.5t17 140
q0 96 -39.5 156.5t-122.5 60.5q-86 0 -151.5 -60.5t-98 -154t-32.5 -201.5q0 -97 41 -154t129 -57z" />
    <glyph glyph-name="c" unicode="c" horiz-adv-x="927" 
d="M967 1079l-72 -245q-62 20 -135 20q-103 0 -179.5 -58t-112.5 -147t-36 -194q0 -45 10 -83t32 -72t65.5 -53.5t103.5 -19.5q87 0 160 27v-246q-112 -33 -223 -33q-124 0 -217.5 37t-148.5 102t-81.5 145t-26.5 173q0 141 45 263.5t127.5 214t209.5 144t282 52.5
q91 0 197 -27z" />
    <glyph glyph-name="d" unicode="d" horiz-adv-x="1282" 
d="M938 977l113 528h338l-324 -1505h-315l26 125h-4q-45 -66 -124.5 -108t-178.5 -42q-77 0 -139.5 24t-103.5 64t-68.5 95.5t-39.5 116.5t-12 128q0 139 38.5 265.5t108 224t175.5 155.5t231 58q186 0 275 -129h4zM709 854q-67 0 -122 -38.5t-87.5 -100t-50 -132
t-17.5 -139.5q0 -95 40.5 -156t123.5 -61q85 0 150.5 61t98 155t32.5 202q0 96 -40.5 152.5t-127.5 56.5z" />
    <glyph glyph-name="e" unicode="e" horiz-adv-x="1191" 
d="M1102 436h-676q-2 -8 -2 -22q0 -97 73.5 -142t196.5 -45q143 0 264 31l-14 -244q-153 -39 -319 -39q-255 0 -387 127t-132 349q0 100 24.5 195t75.5 178.5t121.5 146t169 99t212.5 36.5q216 0 327 -103.5t111 -302.5q0 -119 -45 -264zM696 883q-85 0 -148.5 -58.5
t-88.5 -152.5h381q6 30 6 59q0 152 -150 152z" />
    <glyph glyph-name="f" unicode="f" horiz-adv-x="704" 
d="M938 1489l-55 -252q-55 10 -107 10q-70 0 -106 -30t-47 -87l-11 -49h217l-53 -247h-205l-176 -834h-338l176 834h-161l53 247h154l14 66q14 65 32 113t52.5 96.5t82.5 79.5t123 50t173 19q76 0 182 -16z" />
    <glyph glyph-name="g" unicode="g" horiz-adv-x="1282" 
d="M707 854q-65 0 -119 -36t-86.5 -92.5t-50 -121t-17.5 -127.5q0 -89 41 -142.5t127 -53.5q80 0 144.5 53.5t98.5 137t34 177.5q0 95 -42 150t-130 55zM754 106l10 50h-4q-112 -121 -287 -121q-181 0 -272.5 106t-91.5 285q0 190 69.5 344.5t198.5 245t293 90.5
q180 0 264 -129h4l23 104h337l-204 -962q-31 -147 -90.5 -249t-147.5 -160t-194 -83.5t-244 -25.5q-79 0 -174.5 11.5t-159.5 29.5l63 256q130 -39 277 -39q155 0 228.5 57t101.5 190z" />
    <glyph glyph-name="h" unicode="h" horiz-adv-x="1280" 
d="M352 1505h338l-127 -571h4q111 172 328 172q150 0 236 -92t86 -226q0 -56 -11 -120l-141 -668h-338l115 539q26 122 26 176q0 65 -26 102t-97 37q-88 0 -158.5 -79.5t-101.5 -229.5l-114 -545h-338z" />
    <glyph glyph-name="i" unicode="i" horiz-adv-x="587" 
d="M262 1081h338l-229 -1081h-338zM352 1505h338l-61 -288h-338z" />
    <glyph glyph-name="j" unicode="j" horiz-adv-x="587" 
d="M352 1505h338l-61 -288h-338zM600 1081l-235 -1106q-16 -72 -35.5 -124.5t-54.5 -102t-83 -80t-120.5 -49t-167.5 -18.5q-78 0 -150 10l35 250q44 -8 88 -8q70 0 105 39t53 124l227 1065h338z" />
    <glyph glyph-name="k" unicode="k" horiz-adv-x="1175" 
d="M905 1081h389l-460 -508l274 -573h-371l-243 567h-5l-118 -567h-338l319 1505h338l-190 -891h4z" />
    <glyph glyph-name="l" unicode="l" horiz-adv-x="587" 
d="M352 1505h338l-319 -1505h-338z" />
    <glyph glyph-name="m" unicode="m" horiz-adv-x="1935" 
d="M262 1081h326l-35 -149h4q57 92 137.5 133t190.5 41q113 0 184 -51t92 -140h2h2q125 191 379 191q160 0 244 -92t84 -232q0 -74 -19 -157l-131 -625h-338l115 539q27 127 27 176q0 64 -26.5 101.5t-98.5 37.5q-77 0 -137 -55t-84 -164l-133 -635h-338l114 539
q27 127 27 176q0 32 -4 53.5t-15.5 43t-36 32t-61.5 10.5q-87 0 -151.5 -78.5t-96.5 -230.5l-114 -545h-338z" />
    <glyph glyph-name="n" unicode="n" horiz-adv-x="1277" 
d="M262 1081h326l-35 -147h4q117 172 338 172q152 0 235.5 -89.5t83.5 -230.5q0 -76 -20 -174l-129 -612h-338l115 539q26 123 26 182q0 61 -26 97t-97 36q-88 0 -158.5 -79.5t-101.5 -229.5l-114 -545h-338z" />
    <glyph glyph-name="o" unicode="o" horiz-adv-x="1267" 
d="M1202 686q0 -97 -22 -194t-70.5 -190.5t-119 -166t-175.5 -116.5t-231 -44q-239 0 -358.5 116t-119.5 312q0 144 44 271.5t124 223.5t201.5 152t267.5 56q225 0 342 -113t117 -307zM604 227q55 0 102 29t77 74t51.5 101t30.5 108.5t9 97.5q0 99 -36 158t-129 59
q-82 0 -147 -61.5t-97.5 -151.5t-32.5 -186q0 -45 8.5 -83.5t27.5 -72.5t53.5 -53t82.5 -19z" />
    <glyph glyph-name="p" unicode="p" horiz-adv-x="1282" 
d="M391 102l-106 -501h-338l315 1480h316l-25 -125h4q45 67 120.5 108.5t166.5 41.5q96 0 171 -36t119 -97t66.5 -136t22.5 -159q0 -139 -38.5 -265.5t-108 -224t-175.5 -155.5t-231 -58q-190 0 -275 127h-4zM623 227q67 0 121.5 39t86.5 101.5t49 133t17 140.5
q0 95 -39.5 154t-122.5 59q-85 0 -151 -62t-98.5 -157t-32.5 -203q0 -95 41 -150t129 -55z" />
    <glyph glyph-name="q" unicode="q" horiz-adv-x="1282" 
d="M938 979l20 102h338l-317 -1480h-338l115 524h-4q-45 -66 -123 -108t-172 -42q-77 0 -138.5 25t-100.5 66.5t-65 98t-36.5 115t-10.5 123.5q0 139 38.5 265.5t108 224t175.5 155.5t231 58q192 0 275 -127h4zM709 854q-67 0 -122 -39t-87.5 -101.5t-50 -133.5t-17.5 -140
q0 -95 40.5 -154t123.5 -59q85 0 150.5 61t98 154t32.5 199q0 97 -40.5 155t-127.5 58z" />
    <glyph glyph-name="r" unicode="r" horiz-adv-x="851" 
d="M950 1102l-67 -256q-36 8 -76 8q-116 0 -206 -93.5t-132 -293.5l-98 -467h-338l229 1081h326l-31 -139h4q115 164 309 164q40 0 80 -4z" />
    <glyph glyph-name="s" unicode="s" horiz-adv-x="980" 
d="M958 1047l-88 -244q-128 51 -256 51q-59 0 -95 -19t-36 -55q0 -28 27.5 -52.5t116.5 -70.5q143 -76 204.5 -150.5t61.5 -176.5q0 -80 -28 -142.5t-73.5 -102t-110 -65t-131.5 -35.5t-144 -10q-90 0 -196.5 17t-184.5 43l84 250q152 -58 290 -58q144 0 144 74q0 33 -32 62
t-126 75q-130 64 -186 137.5t-56 169.5q0 82 29.5 146t77 103.5t113 65.5t132 36t140.5 10q168 0 323 -59z" />
    <glyph glyph-name="t" unicode="t" horiz-adv-x="770" 
d="M94 834l53 247h164l62 295h338l-62 -295h197l-53 -247h-197l-88 -414q-16 -69 -16 -101q0 -37 23.5 -53t74.5 -16q40 0 90 8l-53 -258q-102 -8 -160 -8q-170 0 -249 55.5t-79 175.5q0 47 17 127l102 484h-164z" />
    <glyph glyph-name="u" unicode="u" horiz-adv-x="1277" 
d="M1049 0h-326l35 147h-4q-117 -172 -338 -172q-152 0 -236 90t-84 230q0 71 21 174l129 612h338l-115 -538q-27 -127 -27 -183q0 -133 127 -133q88 0 156.5 79.5t99.5 230.5l115 544h338z" />
    <glyph glyph-name="v" unicode="v" horiz-adv-x="1173" 
d="M498 1081l16 -764h4l406 764h383l-658 -1081h-420l-86 1081h355z" />
    <glyph glyph-name="w" unicode="w" horiz-adv-x="1810" 
d="M1264 1081l-15 -764h4l316 764h350l-510 -1081h-446l18 778h-4l-334 -778h-442l-27 1081h354l-30 -764h4l325 764h437z" />
    <glyph glyph-name="x" unicode="x" horiz-adv-x="1159" 
d="M881 1081h387l-428 -518l221 -563h-373l-117 350l-272 -350h-397l467 563l-205 518h368l103 -317z" />
    <glyph glyph-name="y" unicode="y" horiz-adv-x="1173" 
d="M510 1081l6 -729h4l422 729h381l-961 -1480h-366l237 376l-77 1104h354z" />
    <glyph glyph-name="z" unicode="z" horiz-adv-x="1054" 
d="M35 248l581 586h-436l53 247h848l-55 -247l-577 -586h507l-53 -248h-921z" />
    <glyph glyph-name="braceleft" unicode="{" horiz-adv-x="704" 
d="M14 457l68 317q45 0 74.5 11.5t49 41t30.5 63.5t24 95l62 293q41 192 142 273t259 81h137l-57 -264h-72q-56 0 -83.5 -39.5t-47.5 -134.5l-53 -254q-18 -82 -35 -132t-45.5 -92.5t-70.5 -66t-105 -37.5v-4q73 -25 104 -65t31 -111q0 -58 -18 -147l-52 -246
q-14 -72 -14 -96q0 -43 20 -59.5t64 -16.5h59l-57 -266h-104q-295 0 -295 249q0 49 12 107l61 291q17 77 17 112q0 51 -24 74t-81 23z" />
    <glyph glyph-name="bar" unicode="|" horiz-adv-x="952" 
d="M416 1505h256v-1904h-256v1904z" />
    <glyph glyph-name="braceright" unicode="}" horiz-adv-x="704" 
d="M739 776l-67 -317q-45 0 -74.5 -11.5t-49 -41t-30.5 -63.5t-24 -95l-62 -293q-41 -192 -142 -273t-259 -81h-137l57 264h72q56 0 83.5 39.5t47.5 134.5l53 254q18 82 35 132t45.5 92.5t70.5 66t105 37.5v4q-73 25 -104 65t-31 111q0 59 18 147l51 246q15 77 15 96
q0 43 -20 59.5t-64 16.5h-60l58 266h104q295 0 295 -250q0 -48 -12 -106l-62 -291q-16 -72 -16 -113q0 -51 23.5 -73.5t80.5 -22.5z" />
    <glyph glyph-name="asciitilde" unicode="~" horiz-adv-x="1146" 
d="M872 709q149 5 240 110v-270q-104 -96 -268 -96q-55 0 -107.5 14.5t-94 34.5t-81.5 40.5t-87 35t-95 14.5q-158 0 -254 -111v271q99 96 272 96q56 0 109 -14.5t95 -35t82.5 -40.5t89.5 -34.5t99 -14.5z" />
    <glyph glyph-name="uni00A0" unicode="&#xa0;" horiz-adv-x="532" 
 />
    <glyph glyph-name="exclamdown" unicode="&#xa1;" horiz-adv-x="661" 
d="M-45 -381l244 905h307l-162 -905h-389zM645 1081l-76 -362h-360l76 362h360z" />
    <glyph glyph-name="cent" unicode="&#xa2;" horiz-adv-x="962" 
d="M903 1229l-29 -131q32 -3 103 -19l-72 -245q-60 15 -82 16l-133 -623q70 7 123 27v-246q-100 -28 -176 -31l-23 -114h-168l25 123q-92 16 -162 58t-111 102.5t-61 132t-20 153.5q0 178 68 323t203.5 238.5t320.5 108.5l26 127h168zM442 455q0 -144 86 -197l123 573
q-99 -41 -154 -145t-55 -231z" />
    <glyph glyph-name="sterling" unicode="&#xa3;" horiz-adv-x="1216" 
d="M1206 1436l-98 -269q-65 29 -156 29q-103 0 -155 -58t-76 -167l-21 -97h344l-49 -237h-344l-76 -363h504l-59 -274h-1036l59 274h190l76 363h-178l49 237h178l23 107q20 93 48 165.5t74 136.5t107.5 106t150 66t200.5 24q145 0 245 -43z" />
    <glyph glyph-name="currency" unicode="&#xa4;" horiz-adv-x="1153" 
d="M561 254q-100 0 -180 39l-164 -131l-174 219l166 133q-8 36 -8 82q0 152 75 268l-126 160l227 180l129 -160q85 31 180 31q104 0 178 -41l166 133l174 -219l-168 -133q11 -50 11 -84q0 -147 -78 -268l129 -158l-228 -180l-129 160q-85 -31 -180 -31zM588 492
q86 0 146.5 59t60.5 147q0 63 -36.5 101.5t-99.5 38.5q-86 0 -146 -59.5t-60 -147.5q0 -63 36 -101t99 -38z" />
    <glyph glyph-name="yen" unicode="&#xa5;" horiz-adv-x="1380" 
d="M188 506h338l23 98h-340l43 199h227l-215 659h365l139 -573l406 573h397l-522 -659h206l-43 -199h-335l-21 -98h336l-43 -199h-334l-63 -307h-336l67 307h-338z" />
    <glyph glyph-name="brokenbar" unicode="&#xa6;" horiz-adv-x="952" 
d="M416 1505h256v-753h-256v753zM416 354h256v-753h-256v753z" />
    <glyph glyph-name="section" unicode="&#xa7;" horiz-adv-x="1091" 
d="M88 616q0 104 61 183.5t162 122.5q-73 91 -73 196q0 177 136 273t363 96q221 0 371 -68l-82 -250q-138 62 -299 62q-154 0 -154 -90q0 -42 45 -83t170 -118q158 -99 214.5 -181t56.5 -194q0 -215 -219 -303q92 -92 92 -215q0 -170 -133 -270.5t-387 -100.5
q-228 0 -416 84l88 250q85 -36 178.5 -54.5t165.5 -18.5q88 0 124 24t36 70q0 29 -11 48t-55.5 53.5t-142.5 96.5q-122 77 -187.5 144t-84.5 119.5t-19 123.5zM545 494l127 -86q71 38 71 112q0 50 -25.5 80.5t-109.5 87.5l-127 86q-71 -39 -71 -112q0 -41 30 -79.5
t105 -88.5z" />
    <glyph glyph-name="dieresis" unicode="&#xa8;" horiz-adv-x="940" 
d="M621 1546l-58 -266h-280l57 266h281zM1073 1546l-57 -266h-287l57 266h287z" />
    <glyph glyph-name="copyright" unicode="&#xa9;" horiz-adv-x="1626" 
d="M250 727q0 -130 46.5 -247t128 -203t200 -136.5t256.5 -50.5q135 0 252.5 50.5t198.5 136.5t127 203t46 247q0 176 -78 323.5t-222 235.5t-324 88q-183 0 -328.5 -88t-224 -235t-78.5 -324zM129 727q0 156 56 295t154.5 240t239 160t302.5 59q160 0 299.5 -59t236 -160
t152 -240t55.5 -295q0 -206 -94 -376t-265 -269.5t-384 -99.5q-162 0 -302.5 58.5t-239 158.5t-154.5 237t-56 291zM1135 1165l-33 -188q-71 31 -160 31q-63 0 -109.5 -23.5t-72 -65t-37.5 -89.5t-12 -105q0 -53 13 -98.5t40 -83t73 -59t107 -21.5q74 0 158 31l33 -185
q-88 -35 -220 -35q-201 0 -318.5 126t-117.5 327q0 205 116 336t323 131q129 0 217 -29z" />
    <glyph glyph-name="ordfeminine" unicode="&#xaa;" horiz-adv-x="735" 
d="M160 932q0 47 14.5 84t37 62t59 43t71 28t84 15.5t86.5 7t88 2.5q4 16 4 28q0 68 -117 68q-81 0 -174 -29l-6 154q112 37 234 37q280 0 280 -201q0 -30 -12 -84l-51 -238q-19 -93 -19 -151h-196q-2 10 -2 30q0 19 2 33h-2q-70 -80 -174 -80q-87 0 -147 48.5t-60 142.5z
M571 1042h-8q-44 0 -76 -3.5t-60 -12.5t-43 -27t-15 -45q0 -29 17.5 -45t45.5 -16q103 0 131 117z" />
    <glyph glyph-name="guillemotleft" unicode="&#xab;" horiz-adv-x="1193" 
d="M770 1047l-350 -433l149 -440h-256l-170 459l2 10l326 404h299zM1221 1047l-351 -447l150 -426h-256l-170 447l2 10l326 416h299z" />
    <glyph glyph-name="logicalnot" unicode="&#xac;" horiz-adv-x="1146" 
d="M92 680v235h1006v-673h-246v438h-760z" />
    <glyph glyph-name="uni00AD" unicode="&#xad;" horiz-adv-x="806" 
d="M133 477l60 277h536l-59 -277h-537z" />
    <glyph glyph-name="registered" unicode="&#xae;" horiz-adv-x="1015" 
d="M209 1075q0 183 122.5 306.5t313.5 123.5t311.5 -123.5t120.5 -306.5q0 -184 -120.5 -307t-311.5 -123t-313.5 123t-122.5 307zM279 1075q0 -156 101 -261t265 -105q161 0 263 105.5t102 260.5q0 154 -102 259.5t-263 105.5q-164 0 -265 -105t-101 -260zM444 827v498h238
q84 0 134 -31t50 -110q0 -91 -100 -117v-4q32 -9 48.5 -26.5t29.5 -61.5q23 -77 49 -148h-150q-13 48 -26 111q-12 43 -31.5 55.5t-73.5 12.5h-32v-179h-136zM580 1227v-123h59q98 0 98 65q0 58 -92 58h-65z" />
    <glyph glyph-name="macron" unicode="&#xaf;" horiz-adv-x="940" 
d="M997 1516l-45 -205h-608l45 205h608z" />
    <glyph glyph-name="degree" unicode="&#xb0;" horiz-adv-x="749" 
d="M526 1448q137 0 230.5 -97t93.5 -233q0 -138 -94 -234t-234 -96q-141 0 -235 96.5t-94 235.5q0 138 95 233t238 95zM520 1239q-48 0 -81 -36.5t-33 -84.5t32.5 -83.5t81.5 -35.5q51 0 84 35t33 84q0 51 -33 86t-84 35z" />
    <glyph glyph-name="plusminus" unicode="&#xb1;" horiz-adv-x="1146" 
d="M111 137v242h1013v-242h-1013zM492 455v262h-381v241h381v273h251v-273h381v-241h-381v-262h-251z" />
    <glyph glyph-name="twosuperior" unicode="&#xb2;" 
d="M838 1063l-39 -186h-611l37 184q200 138 296.5 215.5t131.5 125t35 95.5q0 39 -27 61.5t-77 22.5q-88 0 -193 -43l-37 168q58 29 133 46t142 17q130 0 208 -62.5t78 -180.5q0 -66 -22 -121t-75.5 -111.5t-117.5 -106t-174 -124.5h312z" />
    <glyph glyph-name="threesuperior" unicode="&#xb3;" 
d="M373 1231l39 182h88q180 0 180 100q0 72 -105 72q-89 0 -190 -37l-16 178q111 43 249 43q122 0 203.5 -57t81.5 -170q0 -78 -34.5 -132t-116.5 -85q92 -51 92 -164q0 -77 -30.5 -135.5t-84.5 -93.5t-121.5 -52.5t-146.5 -17.5q-140 0 -262 58l67 172q102 -45 193 -45
q69 0 115.5 24.5t46.5 77.5q0 82 -162 82h-86z" />
    <glyph glyph-name="acute" unicode="&#xb4;" horiz-adv-x="940" 
d="M1079 1573l-348 -336h-264l248 336h364z" />
    <glyph glyph-name="mu" unicode="&#xb5;" horiz-adv-x="1376" 
d="M-53 -399l315 1480h338l-121 -567q-20 -102 -20 -152q0 -66 29.5 -100.5t97.5 -34.5q83 0 153 76t103 234l114 544h338l-141 -665q-20 -92 -20 -113q0 -26 12 -39.5t43 -13.5q19 0 59 8l-51 -248q-62 -18 -139 -18q-205 0 -254 162h-4q-125 -179 -295 -179q-89 0 -129 35
h-4l-86 -409h-338z" />
    <glyph glyph-name="paragraph" unicode="&#xb6;" horiz-adv-x="1130" 
d="M1217 1462l-363 -1702h-207l324 1520h-111l-323 -1520h-207l192 904q-160 0 -257 93.5t-97 229.5q0 216 155 345.5t408 129.5h486z" />
    <glyph glyph-name="periodcentered" unicode="&#xb7;" horiz-adv-x="651" 
d="M129 426l80 379h369l-80 -379h-369z" />
    <glyph glyph-name="cedilla" unicode="&#xb8;" horiz-adv-x="940" 
d="M395 14l-37 -98q14 2 37 2q70 0 116 -40t46 -109q0 -61 -25.5 -104.5t-71.5 -67.5t-100.5 -35t-121.5 -11q-88 0 -162 15l41 137q46 -10 116 -10q125 0 125 57q0 24 -24 34.5t-76 10.5q-55 0 -113 -6l78 225h172z" />
    <glyph glyph-name="onesuperior" unicode="&#xb9;" 
d="M836 1753l-185 -876h-235l139 659l-164 -74l-37 176l248 115h234z" />
    <glyph glyph-name="ordmasculine" unicode="&#xba;" horiz-adv-x="790" 
d="M879 1167q0 -85 -25 -160.5t-72 -135t-122 -94t-168 -34.5q-147 0 -226.5 76t-79.5 195q0 182 107 300t291 118q138 0 216.5 -74.5t78.5 -190.5zM502 907q51 0 88 43.5t52 95.5t15 99q0 123 -92 123q-68 0 -112.5 -72t-44.5 -160q0 -129 94 -129z" />
    <glyph glyph-name="guillemotright" unicode="&#xbb;" horiz-adv-x="1193" 
d="M485 174l351 432l-150 441h256l170 -459l-2 -10l-326 -404h-299zM35 174l350 447l-149 426h256l170 -447l-3 -10l-325 -416h-299z" />
    <glyph glyph-name="onequarter" unicode="&#xbc;" horiz-adv-x="1808" 
d="M774 1466l-184 -876h-236l140 659l-164 -73l-37 176l248 114h233zM1681 1462l-1128 -1462h-258l1132 1462h254zM1765 877l-112 -533h86l-39 -178h-86l-35 -166h-221l35 166h-383l45 219l411 492h299zM1432 344l65 311h-4l-233 -311h172z" />
    <glyph glyph-name="onehalf" unicode="&#xbd;" horiz-adv-x="1808" 
d="M774 1466l-184 -876h-236l140 659l-164 -73l-37 176l248 114h233zM1642 1462l-1128 -1462h-258l1133 1462h253zM1681 186l-39 -186h-610l37 184q200 138 297 216t131.5 125.5t34.5 95.5q0 39 -27.5 61.5t-77.5 22.5q-87 0 -192 -43l-37 167q58 29 133.5 46.5t141.5 17.5
q130 0 208 -63t78 -181q0 -66 -22 -121t-75.5 -111.5t-117.5 -106t-174 -124.5h311z" />
    <glyph glyph-name="threequarters" unicode="&#xbe;" horiz-adv-x="1808" 
d="M311 944l39 182h88q180 0 180 101q0 71 -104 71q-91 0 -190 -36l-17 178q111 43 250 43q122 0 203.5 -57.5t81.5 -170.5q0 -78 -35 -132t-117 -85q92 -51 92 -164q0 -77 -30.5 -135.5t-84.5 -93.5t-121.5 -52.5t-146.5 -17.5q-140 0 -262 58l68 172q102 -45 192 -45
q69 0 115.5 24.5t46.5 77.5q0 82 -162 82h-86zM1681 1462l-1128 -1462h-258l1132 1462h254zM1765 877l-112 -533h86l-39 -178h-86l-35 -166h-221l35 166h-383l45 219l411 492h299zM1432 344l65 311h-4l-233 -311h172z" />
    <glyph glyph-name="questiondown" unicode="&#xbf;" horiz-adv-x="1011" 
d="M457 -121q138 0 293 49l36 -274q-177 -60 -383 -60q-95 0 -175 21t-143.5 62.5t-99.5 111t-36 160.5q0 159 77.5 257t254.5 197q102 57 142.5 90.5t47.5 67.5l4 19h313l-8 -45q-18 -98 -67 -160.5t-154 -128.5l-65 -41q-117 -70 -157 -111t-40 -102q0 -59 44.5 -86
t115.5 -27zM909 1081l-75 -362h-363l76 362h362z" />
    <glyph glyph-name="Agrave" unicode="&#xc0;" horiz-adv-x="1486" 
d="M936 1186l-320 -588h357zM475 324l-182 -324h-381l856 1462h446l164 -1462h-360l-31 324h-512zM928 1563l-264 307h344l163 -307h-243z" />
    <glyph glyph-name="Aacute" unicode="&#xc1;" horiz-adv-x="1486" 
d="M936 1186l-320 -588h357zM475 324l-182 -324h-381l856 1462h446l164 -1462h-360l-31 324h-512zM1516 1870l-375 -307h-287l276 307h386z" />
    <glyph glyph-name="Acircumflex" unicode="&#xc2;" horiz-adv-x="1486" 
d="M936 1186l-320 -588h357zM475 324l-182 -324h-381l856 1462h446l164 -1462h-360l-31 324h-512zM1407 1563h-262l-94 174l-170 -174h-281l301 315h340z" />
    <glyph glyph-name="Atilde" unicode="&#xc3;" horiz-adv-x="1486" 
d="M936 1186l-320 -588h357zM475 324l-182 -324h-381l856 1462h446l164 -1462h-360l-31 324h-512zM1284 1884h180q-59 -321 -252 -321q-77 0 -182 63q-54 32 -79 42.5t-48 10.5q-70 0 -94 -118h-180q28 162 100.5 240.5t169.5 78.5q48 0 92.5 -16t104.5 -54q42 -27 63 -37
t41 -10q37 0 54.5 29t29.5 92z" />
    <glyph glyph-name="Adieresis" unicode="&#xc4;" horiz-adv-x="1486" 
d="M936 1186l-320 -588h357zM475 324l-182 -324h-381l856 1462h446l164 -1462h-360l-31 324h-512zM997 1874l-59 -277h-281l60 277h280zM1450 1874l-59 -277h-287l59 277h287z" />
    <glyph glyph-name="Aring" unicode="&#xc5;" horiz-adv-x="1486" 
d="M936 1186l-320 -588h357zM475 324l-182 -324h-381l856 1462h446l164 -1462h-360l-31 324h-512zM1044 1946q98 0 160 -63t62 -161q0 -99 -62 -160t-162 -61q-95 0 -156 61t-61 160q0 95 62.5 159.5t156.5 64.5zM1044 1833q-45 0 -73.5 -31.5t-28.5 -79.5q0 -49 28 -79.5
t72 -30.5q46 0 76.5 30.5t30.5 77.5q0 49 -30 81t-75 32z" />
    <glyph glyph-name="AE" unicode="&#xc6;" horiz-adv-x="1878" 
d="M1704 0h-901l67 324h-370l-207 -324h-381l969 1462h1079l-57 -274h-512l-64 -305h481l-57 -275h-483l-72 -334h565zM1051 1188l-377 -590h256l125 590h-4z" />
    <glyph glyph-name="Ccedilla" unicode="&#xc7;" horiz-adv-x="1210" 
d="M1303 1442l-82 -271q-96 41 -228 41q-97 0 -180 -33.5t-141 -91t-99.5 -134t-61 -162t-19.5 -175.5q0 -76 19.5 -140.5t59 -116t106 -80.5t154.5 -29q148 0 246 33l-8 -267q-132 -41 -303 -41h-16l-23 -59q14 2 37 2q70 0 116 -40t46 -109q0 -61 -25.5 -104.5t-72 -67.5
t-101 -35t-121.5 -11q-88 0 -162 15l41 137q46 -10 117 -10q125 0 125 57q0 24 -24 34.5t-76 10.5q-55 0 -113 -6l70 205q-219 48 -330 207.5t-111 388.5q0 188 59 352t166.5 285t268 190.5t354.5 69.5q192 0 312 -45z" />
    <glyph glyph-name="Egrave" unicode="&#xc8;" horiz-adv-x="1136" 
d="M53 0l309 1462h857l-58 -274h-512l-63 -305h481l-57 -275h-484l-71 -334h565l-57 -274h-910zM719 1563l-264 307h344l164 -307h-244z" />
    <glyph glyph-name="Eacute" unicode="&#xc9;" horiz-adv-x="1136" 
d="M53 0l309 1462h857l-58 -274h-512l-63 -305h481l-57 -275h-484l-71 -334h565l-57 -274h-910zM1307 1870l-375 -307h-287l277 307h385z" />
    <glyph glyph-name="Ecircumflex" unicode="&#xca;" horiz-adv-x="1136" 
d="M53 0l309 1462h857l-58 -274h-512l-63 -305h481l-57 -275h-484l-71 -334h565l-57 -274h-910zM1212 1563h-262l-94 174l-170 -174h-280l301 315h340z" />
    <glyph glyph-name="Edieresis" unicode="&#xcb;" horiz-adv-x="1136" 
d="M53 0l309 1462h857l-58 -274h-512l-63 -305h481l-57 -275h-484l-71 -334h565l-57 -274h-910zM791 1874l-60 -277h-280l59 277h281zM1243 1874l-59 -277h-287l59 277h287z" />
    <glyph glyph-name="Igrave" unicode="&#xcc;" horiz-adv-x="647" 
d="M53 0l309 1462h349l-310 -1462h-348zM473 1563l-264 307h344l164 -307h-244z" />
    <glyph glyph-name="Iacute" unicode="&#xcd;" horiz-adv-x="647" 
d="M53 0l309 1462h349l-310 -1462h-348zM1061 1870l-375 -307h-287l277 307h385z" />
    <glyph glyph-name="Icircumflex" unicode="&#xce;" horiz-adv-x="647" 
d="M53 0l309 1462h349l-310 -1462h-348zM954 1563h-262l-94 174l-170 -174h-281l302 315h339z" />
    <glyph glyph-name="Idieresis" unicode="&#xcf;" horiz-adv-x="647" 
d="M53 0l309 1462h349l-310 -1462h-348zM539 1874l-60 -277h-280l59 277h281zM991 1874l-59 -277h-287l60 277h286z" />
    <glyph glyph-name="Eth" unicode="&#xd0;" horiz-adv-x="1507" 
d="M78 655l39 189h114l131 618h478q313 0 477 -153.5t164 -438.5q0 -138 -32.5 -264t-103 -237t-172 -192.5t-248 -129t-323.5 -47.5h-549l137 655h-112zM653 1188l-73 -344h251l-38 -189h-252l-80 -381h160q126 0 224.5 47t159.5 128t92 184t31 221q0 163 -80.5 248.5
t-273.5 85.5h-121z" />
    <glyph glyph-name="Ntilde" unicode="&#xd1;" horiz-adv-x="1529" 
d="M920 1462l100 -1114h4l236 1114h333l-309 -1462h-534l-119 1135h-4l-240 -1135h-334l309 1462h558zM1307 1884h180q-59 -321 -252 -321q-77 0 -182 63q-54 32 -79 42.5t-48 10.5q-71 0 -95 -118h-180q28 162 101 240.5t170 78.5q48 0 92 -16t104 -54q41 -27 62.5 -37
t42.5 -10q37 0 54.5 29t29.5 92z" />
    <glyph glyph-name="Ograve" unicode="&#xd2;" horiz-adv-x="1572" 
d="M1546 918q0 -134 -27 -263t-89.5 -253.5t-154.5 -218t-233 -151t-313 -57.5q-155 0 -270.5 43.5t-183 123t-100 181.5t-32.5 228q0 145 31 280.5t96.5 255t160 208.5t230 140.5t297.5 51.5q147 0 260.5 -43t184.5 -120t107 -179.5t36 -226.5zM766 254q87 0 160.5 41.5
t121.5 108.5t82 152t49 170.5t15 166.5q0 145 -65 230t-207 85q-99 0 -182 -55.5t-135.5 -146t-81.5 -203.5t-29 -232q0 -144 65.5 -230.5t206.5 -86.5zM918 1563l-265 307h344l164 -307h-243z" />
    <glyph glyph-name="Oacute" unicode="&#xd3;" horiz-adv-x="1572" 
d="M1546 918q0 -134 -27 -263t-89.5 -253.5t-154.5 -218t-233 -151t-313 -57.5q-155 0 -270.5 43.5t-183 123t-100 181.5t-32.5 228q0 145 31 280.5t96.5 255t160 208.5t230 140.5t297.5 51.5q147 0 260.5 -43t184.5 -120t107 -179.5t36 -226.5zM766 254q87 0 160.5 41.5
t121.5 108.5t82 152t49 170.5t15 166.5q0 145 -65 230t-207 85q-99 0 -182 -55.5t-135.5 -146t-81.5 -203.5t-29 -232q0 -144 65.5 -230.5t206.5 -86.5zM1540 1870l-375 -307h-286l276 307h385z" />
    <glyph glyph-name="Ocircumflex" unicode="&#xd4;" horiz-adv-x="1572" 
d="M1546 918q0 -134 -27 -263t-89.5 -253.5t-154.5 -218t-233 -151t-313 -57.5q-155 0 -270.5 43.5t-183 123t-100 181.5t-32.5 228q0 145 31 280.5t96.5 255t160 208.5t230 140.5t297.5 51.5q147 0 260.5 -43t184.5 -120t107 -179.5t36 -226.5zM766 254q87 0 160.5 41.5
t121.5 108.5t82 152t49 170.5t15 166.5q0 145 -65 230t-207 85q-99 0 -182 -55.5t-135.5 -146t-81.5 -203.5t-29 -232q0 -144 65.5 -230.5t206.5 -86.5zM1417 1563h-262l-94 174l-170 -174h-281l301 315h340z" />
    <glyph glyph-name="Otilde" unicode="&#xd5;" horiz-adv-x="1572" 
d="M1546 918q0 -134 -27 -263t-89.5 -253.5t-154.5 -218t-233 -151t-313 -57.5q-155 0 -270.5 43.5t-183 123t-100 181.5t-32.5 228q0 145 31 280.5t96.5 255t160 208.5t230 140.5t297.5 51.5q147 0 260.5 -43t184.5 -120t107 -179.5t36 -226.5zM766 254q87 0 160.5 41.5
t121.5 108.5t82 152t49 170.5t15 166.5q0 145 -65 230t-207 85q-99 0 -182 -55.5t-135.5 -146t-81.5 -203.5t-29 -232q0 -144 65.5 -230.5t206.5 -86.5zM1286 1884h180q-59 -321 -252 -321q-77 0 -182 63q-54 32 -79 42.5t-48 10.5q-70 0 -94 -118h-180q28 162 100.5 240.5
t169.5 78.5q48 0 92.5 -16t104.5 -54q42 -27 63 -37t41 -10q37 0 54.5 29t29.5 92z" />
    <glyph glyph-name="Odieresis" unicode="&#xd6;" horiz-adv-x="1572" 
d="M1546 918q0 -134 -27 -263t-89.5 -253.5t-154.5 -218t-233 -151t-313 -57.5q-155 0 -270.5 43.5t-183 123t-100 181.5t-32.5 228q0 145 31 280.5t96.5 255t160 208.5t230 140.5t297.5 51.5q147 0 260.5 -43t184.5 -120t107 -179.5t36 -226.5zM766 254q87 0 160.5 41.5
t121.5 108.5t82 152t49 170.5t15 166.5q0 145 -65 230t-207 85q-99 0 -182 -55.5t-135.5 -146t-81.5 -203.5t-29 -232q0 -144 65.5 -230.5t206.5 -86.5zM999 1874l-59 -277h-281l60 277h280zM1452 1874l-59 -277h-287l59 277h287z" />
    <glyph glyph-name="multiply" unicode="&#xd7;" horiz-adv-x="1146" 
d="M111 319l325 324l-325 324l184 182l323 -324l322 324l182 -182l-323 -324l323 -324l-182 -182l-322 324l-323 -324z" />
    <glyph glyph-name="Oslash" unicode="&#xd8;" horiz-adv-x="1572" 
d="M188 -68l-129 127l158 162q-74 133 -74 330q0 145 31 280.5t96.5 255t160 208.5t230 140.5t297.5 51.5q240 0 390 -115l149 154l129 -127l-158 -162q78 -138 78 -319q0 -134 -27 -263t-89.5 -253.5t-154.5 -218t-233 -151t-313 -57.5q-248 0 -391 109zM494 571
q0 -42 4 -65l618 631q-68 71 -194 71q-99 0 -182 -55.5t-135.5 -146t-81.5 -203.5t-29 -232zM766 254q87 0 160.5 41.5t121.5 108.5t82 152t49 170.5t15 166.5q0 38 -4 63l-617 -630q69 -72 193 -72z" />
    <glyph glyph-name="Ugrave" unicode="&#xd9;" horiz-adv-x="1443" 
d="M1520 1462l-220 -1030q-97 -457 -638 -457q-114 0 -209 21t-170.5 63.5t-117.5 116t-42 170.5q0 67 14 135l209 981h348l-198 -936q-15 -69 -15 -106q0 -170 201 -170q121 0 188 52.5t93 174.5l208 985h349zM864 1563l-264 307h344l164 -307h-244z" />
    <glyph glyph-name="Uacute" unicode="&#xda;" horiz-adv-x="1443" 
d="M1520 1462l-220 -1030q-97 -457 -638 -457q-114 0 -209 21t-170.5 63.5t-117.5 116t-42 170.5q0 67 14 135l209 981h348l-198 -936q-15 -69 -15 -106q0 -170 201 -170q121 0 188 52.5t93 174.5l208 985h349zM1430 1870l-375 -307h-287l276 307h386z" />
    <glyph glyph-name="Ucircumflex" unicode="&#xdb;" horiz-adv-x="1443" 
d="M1520 1462l-220 -1030q-97 -457 -638 -457q-114 0 -209 21t-170.5 63.5t-117.5 116t-42 170.5q0 67 14 135l209 981h348l-198 -936q-15 -69 -15 -106q0 -170 201 -170q121 0 188 52.5t93 174.5l208 985h349zM1354 1563h-262l-95 174l-170 -174h-280l301 315h340z" />
    <glyph glyph-name="Udieresis" unicode="&#xdc;" horiz-adv-x="1443" 
d="M1520 1462l-220 -1030q-97 -457 -638 -457q-114 0 -209 21t-170.5 63.5t-117.5 116t-42 170.5q0 67 14 135l209 981h348l-198 -936q-15 -69 -15 -106q0 -170 201 -170q121 0 188 52.5t93 174.5l208 985h349zM934 1874l-60 -277h-280l59 277h281zM1386 1874l-59 -277h-287
l60 277h286z" />
    <glyph glyph-name="Yacute" unicode="&#xdd;" horiz-adv-x="1314" 
d="M371 0l112 537l-303 925h383l154 -585l432 585h416l-734 -925l-112 -537h-348zM1354 1870l-375 -307h-287l277 307h385z" />
    <glyph glyph-name="Thorn" unicode="&#xde;" horiz-adv-x="1320" 
d="M53 0l309 1462h349l-43 -205h182q134 0 237 -42.5t166.5 -136t63.5 -228.5q0 -182 -79 -307t-220 -184.5t-336 -59.5h-217l-64 -299h-348zM610 983l-88 -410h191q117 0 186.5 59.5t69.5 184.5q0 78 -51.5 122t-147.5 44h-160z" />
    <glyph glyph-name="germandbls" unicode="&#xdf;" horiz-adv-x="1366" 
d="M877 1505q221 0 353 -98.5t132 -269.5q0 -136 -74.5 -234.5t-212.5 -140.5l-2 -4q37 -10 73.5 -33.5t71.5 -61t56.5 -95t21.5 -126.5q0 -151 -75.5 -258t-201 -158t-288.5 -51q-127 0 -235 27l63 246q77 -21 166 -21q104 0 174 53.5t70 153.5q0 178 -307 178l53 252
q145 3 230 62t85 170q0 65 -45 108t-129 43q-116 0 -184 -76.5t-99 -222.5l-202 -948h-338l205 965q33 156 89 262t138.5 166.5t181 86t230.5 25.5z" />
    <glyph glyph-name="agrave" unicode="&#xe0;" horiz-adv-x="1187" 
d="M780 682q6 24 6 45q0 68 -50.5 97.5t-155.5 29.5q-124 0 -277 -49l-8 237q87 29 190.5 46.5t182.5 17.5q454 0 454 -336q0 -60 -16 -129l-86 -395q-37 -173 -37 -246h-293q-2 8 -2 35q0 63 6 84h-4q-110 -144 -311 -144q-65 0 -123 19t-104.5 56t-73.5 98.5t-27 140.5
q0 78 24.5 139t60.5 101.5t98.5 69.5t117.5 44t139.5 24t142 11.5t146.5 3.5zM737 475h-32q-76 0 -131.5 -6.5t-104 -22.5t-73.5 -48.5t-25 -80.5q0 -54 28.5 -82t81.5 -28q100 0 162.5 60.5t79.5 140.5zM713 1237l-264 336h344l163 -336h-243z" />
    <glyph glyph-name="aacute" unicode="&#xe1;" horiz-adv-x="1187" 
d="M780 682q6 24 6 45q0 68 -50.5 97.5t-155.5 29.5q-124 0 -277 -49l-8 237q87 29 190.5 46.5t182.5 17.5q454 0 454 -336q0 -60 -16 -129l-86 -395q-37 -173 -37 -246h-293q-2 8 -2 35q0 63 6 84h-4q-110 -144 -311 -144q-65 0 -123 19t-104.5 56t-73.5 98.5t-27 140.5
q0 78 24.5 139t60.5 101.5t98.5 69.5t117.5 44t139.5 24t142 11.5t146.5 3.5zM737 475h-32q-76 0 -131.5 -6.5t-104 -22.5t-73.5 -48.5t-25 -80.5q0 -54 28.5 -82t81.5 -28q100 0 162.5 60.5t79.5 140.5zM1241 1573l-348 -336h-264l248 336h364z" />
    <glyph glyph-name="acircumflex" unicode="&#xe2;" horiz-adv-x="1187" 
d="M780 682q6 24 6 45q0 68 -50.5 97.5t-155.5 29.5q-124 0 -277 -49l-8 237q87 29 190.5 46.5t182.5 17.5q454 0 454 -336q0 -60 -16 -129l-86 -395q-37 -173 -37 -246h-293q-2 8 -2 35q0 63 6 84h-4q-110 -144 -311 -144q-65 0 -123 19t-104.5 56t-73.5 98.5t-27 140.5
q0 78 24.5 139t60.5 101.5t98.5 69.5t117.5 44t139.5 24t142 11.5t146.5 3.5zM737 475h-32q-76 0 -131.5 -6.5t-104 -22.5t-73.5 -48.5t-25 -80.5q0 -54 28.5 -82t81.5 -28q100 0 162.5 60.5t79.5 140.5zM1104 1237h-223l-74 205l-160 -205h-246l263 336h323z" />
    <glyph glyph-name="atilde" unicode="&#xe3;" horiz-adv-x="1187" 
d="M780 682q6 24 6 45q0 68 -50.5 97.5t-155.5 29.5q-124 0 -277 -49l-8 237q87 29 190.5 46.5t182.5 17.5q454 0 454 -336q0 -60 -16 -129l-86 -395q-37 -173 -37 -246h-293q-2 8 -2 35q0 63 6 84h-4q-110 -144 -311 -144q-65 0 -123 19t-104.5 56t-73.5 98.5t-27 140.5
q0 78 24.5 139t60.5 101.5t98.5 69.5t117.5 44t139.5 24t142 11.5t146.5 3.5zM737 475h-32q-76 0 -131.5 -6.5t-104 -22.5t-73.5 -48.5t-25 -80.5q0 -54 28.5 -82t81.5 -28q100 0 162.5 60.5t79.5 140.5zM1028 1559h180q-59 -322 -252 -322q-77 0 -182 63q-55 33 -79.5 43.5
t-47.5 10.5q-70 0 -94 -119h-180q28 162 100.5 240.5t169.5 78.5q49 0 93 -16t104 -53q42 -27 63 -37t41 -10q37 0 54.5 29t29.5 92z" />
    <glyph glyph-name="adieresis" unicode="&#xe4;" horiz-adv-x="1187" 
d="M780 682q6 24 6 45q0 68 -50.5 97.5t-155.5 29.5q-124 0 -277 -49l-8 237q87 29 190.5 46.5t182.5 17.5q454 0 454 -336q0 -60 -16 -129l-86 -395q-37 -173 -37 -246h-293q-2 8 -2 35q0 63 6 84h-4q-110 -144 -311 -144q-65 0 -123 19t-104.5 56t-73.5 98.5t-27 140.5
q0 78 24.5 139t60.5 101.5t98.5 69.5t117.5 44t139.5 24t142 11.5t146.5 3.5zM737 475h-32q-76 0 -131.5 -6.5t-104 -22.5t-73.5 -48.5t-25 -80.5q0 -54 28.5 -82t81.5 -28q100 0 162.5 60.5t79.5 140.5zM745 1546l-57 -266h-280l57 266h280zM1198 1546l-57 -266h-287
l57 266h287z" />
    <glyph glyph-name="aring" unicode="&#xe5;" horiz-adv-x="1187" 
d="M780 682q6 24 6 45q0 68 -50.5 97.5t-155.5 29.5q-124 0 -277 -49l-8 237q87 29 190.5 46.5t182.5 17.5q454 0 454 -336q0 -60 -16 -129l-86 -395q-37 -173 -37 -246h-293q-2 8 -2 35q0 63 6 84h-4q-110 -144 -311 -144q-65 0 -123 19t-104.5 56t-73.5 98.5t-27 140.5
q0 78 24.5 139t60.5 101.5t98.5 69.5t117.5 44t139.5 24t142 11.5t146.5 3.5zM737 475h-32q-76 0 -131.5 -6.5t-104 -22.5t-73.5 -48.5t-25 -80.5q0 -54 28.5 -82t81.5 -28q100 0 162.5 60.5t79.5 140.5zM799 1638q98 0 159.5 -62.5t61.5 -160.5q0 -100 -61.5 -160.5
t-161.5 -60.5q-95 0 -156 61t-61 160q0 95 62 159t157 64zM799 1526q-46 0 -74.5 -31t-28.5 -80t28 -79.5t73 -30.5q46 0 76 30.5t30 77.5q0 50 -29.5 81.5t-74.5 31.5z" />
    <glyph glyph-name="ae" unicode="&#xe6;" horiz-adv-x="1828" 
d="M1739 436h-676q-2 -8 -2 -22q0 -97 73.5 -142t196.5 -45q143 0 264 31l-14 -244q-153 -39 -319 -39q-294 0 -420 183q-77 -98 -178.5 -140.5t-251.5 -42.5q-162 0 -261.5 79t-99.5 235q0 78 24.5 139t60.5 101.5t98.5 69.5t117.5 44t139.5 24t142 11.5t146.5 3.5
q6 24 6 45q0 68 -50.5 97.5t-155.5 29.5q-124 0 -277 -49l-8 237q87 29 190.5 46.5t182.5 17.5q232 0 344 -115q134 115 334 115q216 0 327 -103.5t111 -302.5q0 -119 -45 -264zM737 475h-32q-76 0 -131.5 -6.5t-104 -22.5t-73.5 -48.5t-25 -80.5q0 -54 28.5 -82t81.5 -28
q100 0 162.5 60.5t79.5 140.5zM1333 883q-85 0 -148.5 -58.5t-88.5 -152.5h381q6 30 6 59q0 152 -150 152z" />
    <glyph glyph-name="ccedilla" unicode="&#xe7;" horiz-adv-x="927" 
d="M967 1079l-72 -245q-62 20 -135 20q-103 0 -179.5 -58t-112.5 -147t-36 -194q0 -45 10 -83t32 -72t65.5 -53.5t103.5 -19.5q87 0 160 27v-246q-112 -33 -223 -33h-29l-23 -59q14 2 37 2q70 0 116 -40t46 -109q0 -61 -25.5 -104.5t-71.5 -67.5t-100.5 -35t-121.5 -11
q-88 0 -162 15l41 137q46 -10 116 -10q125 0 125 57q0 24 -24 34.5t-76 10.5q-54 0 -113 -6l74 213q-144 47 -213.5 162.5t-69.5 267.5q0 141 45 263.5t127.5 214t209.5 144t282 52.5q91 0 197 -27z" />
    <glyph glyph-name="egrave" unicode="&#xe8;" horiz-adv-x="1191" 
d="M1102 436h-676q-2 -8 -2 -22q0 -97 73.5 -142t196.5 -45q143 0 264 31l-14 -244q-153 -39 -319 -39q-255 0 -387 127t-132 349q0 100 24.5 195t75.5 178.5t121.5 146t169 99t212.5 36.5q216 0 327 -103.5t111 -302.5q0 -119 -45 -264zM696 883q-85 0 -148.5 -58.5
t-88.5 -152.5h381q6 30 6 59q0 152 -150 152zM664 1237l-265 336h344l164 -336h-243z" />
    <glyph glyph-name="eacute" unicode="&#xe9;" horiz-adv-x="1191" 
d="M1102 436h-676q-2 -8 -2 -22q0 -97 73.5 -142t196.5 -45q143 0 264 31l-14 -244q-153 -39 -319 -39q-255 0 -387 127t-132 349q0 100 24.5 195t75.5 178.5t121.5 146t169 99t212.5 36.5q216 0 327 -103.5t111 -302.5q0 -119 -45 -264zM696 883q-85 0 -148.5 -58.5
t-88.5 -152.5h381q6 30 6 59q0 152 -150 152zM1249 1573l-348 -336h-264l248 336h364z" />
    <glyph glyph-name="ecircumflex" unicode="&#xea;" horiz-adv-x="1191" 
d="M1102 436h-676q-2 -8 -2 -22q0 -97 73.5 -142t196.5 -45q143 0 264 31l-14 -244q-153 -39 -319 -39q-255 0 -387 127t-132 349q0 100 24.5 195t75.5 178.5t121.5 146t169 99t212.5 36.5q216 0 327 -103.5t111 -302.5q0 -119 -45 -264zM696 883q-85 0 -148.5 -58.5
t-88.5 -152.5h381q6 30 6 59q0 152 -150 152zM1114 1237h-223l-74 205l-160 -205h-245l262 336h323z" />
    <glyph glyph-name="edieresis" unicode="&#xeb;" horiz-adv-x="1191" 
d="M1102 436h-676q-2 -8 -2 -22q0 -97 73.5 -142t196.5 -45q143 0 264 31l-14 -244q-153 -39 -319 -39q-255 0 -387 127t-132 349q0 100 24.5 195t75.5 178.5t121.5 146t169 99t212.5 36.5q216 0 327 -103.5t111 -302.5q0 -119 -45 -264zM696 883q-85 0 -148.5 -58.5
t-88.5 -152.5h381q6 30 6 59q0 152 -150 152zM758 1546l-58 -266h-280l57 266h281zM1210 1546l-57 -266h-287l58 266h286z" />
    <glyph glyph-name="igrave" unicode="&#xec;" horiz-adv-x="587" 
d="M262 1081h338l-229 -1081h-338zM371 1237l-265 336h345l163 -336h-243z" />
    <glyph glyph-name="iacute" unicode="&#xed;" horiz-adv-x="587" 
d="M262 1081h338l-229 -1081h-338zM918 1573l-349 -336h-264l248 336h365z" />
    <glyph glyph-name="icircumflex" unicode="&#xee;" horiz-adv-x="587" 
d="M262 1081h338l-229 -1081h-338zM805 1237h-223l-74 205l-160 -205h-246l263 336h323z" />
    <glyph glyph-name="idieresis" unicode="&#xef;" horiz-adv-x="587" 
d="M262 1081h338l-229 -1081h-338zM449 1546l-58 -266h-280l57 266h281zM901 1546l-57 -266h-287l57 266h287z" />
    <glyph glyph-name="eth" unicode="&#xf0;" horiz-adv-x="1267" 
d="M772 1524q129 -47 227 -142l250 68v-172l-141 -37q111 -200 111 -483q0 -105 -21 -210.5t-70 -210t-120 -184t-181 -129t-243 -49.5q-96 0 -176 23.5t-135 64.5t-93.5 97t-56 121t-17.5 137q0 172 68 315t201 230.5t307 87.5q79 0 139 -24t90 -54h4q-18 100 -88 192
l-313 -82v172l174 45q-59 42 -139 80zM604 227q46 0 86.5 20t69.5 53.5t51.5 74.5t35.5 85.5t20 84t7 71.5q0 97 -35.5 149t-129.5 52q-81 0 -146.5 -61t-98 -146.5t-32.5 -171.5q0 -37 8.5 -72t27 -67.5t54 -52t82.5 -19.5z" />
    <glyph glyph-name="ntilde" unicode="&#xf1;" horiz-adv-x="1277" 
d="M262 1081h326l-35 -147h4q117 172 338 172q152 0 235.5 -89.5t83.5 -230.5q0 -76 -20 -174l-129 -612h-338l115 539q26 123 26 182q0 61 -26 97t-97 36q-88 0 -158.5 -79.5t-101.5 -229.5l-114 -545h-338zM1112 1559h180q-59 -322 -252 -322q-77 0 -182 63
q-55 33 -79.5 43.5t-47.5 10.5q-70 0 -94 -119h-180q28 162 100.5 240.5t169.5 78.5q49 0 93 -16t104 -53q42 -27 63 -37t41 -10q37 0 54.5 29t29.5 92z" />
    <glyph glyph-name="ograve" unicode="&#xf2;" horiz-adv-x="1267" 
d="M1202 686q0 -97 -22 -194t-70.5 -190.5t-119 -166t-175.5 -116.5t-231 -44q-239 0 -358.5 116t-119.5 312q0 144 44 271.5t124 223.5t201.5 152t267.5 56q225 0 342 -113t117 -307zM604 227q55 0 102 29t77 74t51.5 101t30.5 108.5t9 97.5q0 99 -36 158t-129 59
q-82 0 -147 -61.5t-97.5 -151.5t-32.5 -186q0 -45 8.5 -83.5t27.5 -72.5t53.5 -53t82.5 -19zM688 1237l-264 336h344l164 -336h-244z" />
    <glyph glyph-name="oacute" unicode="&#xf3;" horiz-adv-x="1267" 
d="M1202 686q0 -97 -22 -194t-70.5 -190.5t-119 -166t-175.5 -116.5t-231 -44q-239 0 -358.5 116t-119.5 312q0 144 44 271.5t124 223.5t201.5 152t267.5 56q225 0 342 -113t117 -307zM604 227q55 0 102 29t77 74t51.5 101t30.5 108.5t9 97.5q0 99 -36 158t-129 59
q-82 0 -147 -61.5t-97.5 -151.5t-32.5 -186q0 -45 8.5 -83.5t27.5 -72.5t53.5 -53t82.5 -19zM1280 1573l-348 -336h-264l247 336h365z" />
    <glyph glyph-name="ocircumflex" unicode="&#xf4;" horiz-adv-x="1267" 
d="M1202 686q0 -97 -22 -194t-70.5 -190.5t-119 -166t-175.5 -116.5t-231 -44q-239 0 -358.5 116t-119.5 312q0 144 44 271.5t124 223.5t201.5 152t267.5 56q225 0 342 -113t117 -307zM604 227q55 0 102 29t77 74t51.5 101t30.5 108.5t9 97.5q0 99 -36 158t-129 59
q-82 0 -147 -61.5t-97.5 -151.5t-32.5 -186q0 -45 8.5 -83.5t27.5 -72.5t53.5 -53t82.5 -19zM1141 1237h-223l-74 205l-160 -205h-246l262 336h324z" />
    <glyph glyph-name="otilde" unicode="&#xf5;" horiz-adv-x="1267" 
d="M1202 686q0 -97 -22 -194t-70.5 -190.5t-119 -166t-175.5 -116.5t-231 -44q-239 0 -358.5 116t-119.5 312q0 144 44 271.5t124 223.5t201.5 152t267.5 56q225 0 342 -113t117 -307zM604 227q55 0 102 29t77 74t51.5 101t30.5 108.5t9 97.5q0 99 -36 158t-129 59
q-82 0 -147 -61.5t-97.5 -151.5t-32.5 -186q0 -45 8.5 -83.5t27.5 -72.5t53.5 -53t82.5 -19zM1071 1559h180q-59 -322 -252 -322q-77 0 -182 63q-55 33 -79.5 43.5t-47.5 10.5q-70 0 -94 -119h-180q28 162 100.5 240.5t169.5 78.5q49 0 93 -16t104 -53q42 -27 63 -37t41 -10
q37 0 54.5 29t29.5 92z" />
    <glyph glyph-name="odieresis" unicode="&#xf6;" horiz-adv-x="1267" 
d="M1202 686q0 -97 -22 -194t-70.5 -190.5t-119 -166t-175.5 -116.5t-231 -44q-239 0 -358.5 116t-119.5 312q0 144 44 271.5t124 223.5t201.5 152t267.5 56q225 0 342 -113t117 -307zM604 227q55 0 102 29t77 74t51.5 101t30.5 108.5t9 97.5q0 99 -36 158t-129 59
q-82 0 -147 -61.5t-97.5 -151.5t-32.5 -186q0 -45 8.5 -83.5t27.5 -72.5t53.5 -53t82.5 -19zM784 1546l-57 -266h-281l58 266h280zM1237 1546l-57 -266h-287l57 266h287z" />
    <glyph glyph-name="divide" unicode="&#xf7;" horiz-adv-x="1146" 
d="M479 147v273h283v-273h-283zM111 522v242h1013v-242h-1013zM479 866v273h283v-273h-283z" />
    <glyph glyph-name="oslash" unicode="&#xf8;" horiz-adv-x="1267" 
d="M166 -72l-117 115l119 119q-62 103 -62 241q0 144 44 271.5t124 223.5t201.5 152t267.5 56q173 0 285 -70l115 115l117 -113l-117 -118q59 -95 59 -234q0 -97 -22 -194t-70.5 -190.5t-119 -166t-175.5 -116.5t-231 -44q-179 0 -301 72zM432 455v-25l383 389
q-44 35 -106 35q-82 0 -147 -61.5t-97.5 -151.5t-32.5 -186zM604 227q55 0 102 29t77 74t51.5 101t30.5 108.5t9 97.5v10l-378 -383q40 -37 108 -37z" />
    <glyph glyph-name="ugrave" unicode="&#xf9;" horiz-adv-x="1277" 
d="M1049 0h-326l35 147h-4q-117 -172 -338 -172q-152 0 -236 90t-84 230q0 71 21 174l129 612h338l-115 -538q-27 -127 -27 -183q0 -133 127 -133q88 0 156.5 79.5t99.5 230.5l115 544h338zM694 1237l-264 336h344l164 -336h-244z" />
    <glyph glyph-name="uacute" unicode="&#xfa;" horiz-adv-x="1277" 
d="M1049 0h-326l35 147h-4q-117 -172 -338 -172q-152 0 -236 90t-84 230q0 71 21 174l129 612h338l-115 -538q-27 -127 -27 -183q0 -133 127 -133q88 0 156.5 79.5t99.5 230.5l115 544h338zM1229 1573l-348 -336h-265l248 336h365z" />
    <glyph glyph-name="ucircumflex" unicode="&#xfb;" horiz-adv-x="1277" 
d="M1049 0h-326l35 147h-4q-117 -172 -338 -172q-152 0 -236 90t-84 230q0 71 21 174l129 612h338l-115 -538q-27 -127 -27 -183q0 -133 127 -133q88 0 156.5 79.5t99.5 230.5l115 544h338zM1130 1237h-223l-73 205l-160 -205h-246l262 336h324z" />
    <glyph glyph-name="udieresis" unicode="&#xfc;" horiz-adv-x="1277" 
d="M1049 0h-326l35 147h-4q-117 -172 -338 -172q-152 0 -236 90t-84 230q0 71 21 174l129 612h338l-115 -538q-27 -127 -27 -183q0 -133 127 -133q88 0 156.5 79.5t99.5 230.5l115 544h338zM768 1546l-57 -266h-281l57 266h281zM1221 1546l-58 -266h-286l57 266h287z" />
    <glyph glyph-name="yacute" unicode="&#xfd;" horiz-adv-x="1173" 
d="M510 1081l6 -729h4l422 729h381l-961 -1480h-366l237 376l-77 1104h354zM1206 1573l-348 -336h-264l248 336h364z" />
    <glyph glyph-name="thorn" unicode="&#xfe;" horiz-adv-x="1282" 
d="M623 227q67 0 121.5 38.5t86.5 100t49 131.5t17 140q0 96 -39.5 156.5t-122.5 60.5q-86 0 -151.5 -60.5t-98 -154t-32.5 -201.5q0 -97 41 -154t129 -57zM-53 -399l405 1904h338l-112 -538h4q47 62 124.5 100.5t172.5 38.5q88 0 155.5 -35.5t107.5 -96t60.5 -134.5
t20.5 -158q0 -111 -24 -215.5t-72 -193.5t-113.5 -155.5t-154 -104.5t-189.5 -38q-190 0 -273 134h-4l-108 -508h-338z" />
    <glyph glyph-name="ydieresis" unicode="&#xff;" horiz-adv-x="1173" 
d="M510 1081l6 -729h4l422 729h381l-961 -1480h-366l237 376l-77 1104h354zM737 1546l-57 -266h-281l58 266h280zM1190 1546l-57 -266h-287l57 266h287z" />
    <glyph glyph-name="Amacron" unicode="&#x100;" horiz-adv-x="1486" 
d="M936 1186l-320 -588h357zM475 324l-182 -324h-381l856 1462h446l164 -1462h-360l-31 324h-512zM1378 1839l-45 -205h-608l45 205h608z" />
    <glyph glyph-name="amacron" unicode="&#x101;" horiz-adv-x="1187" 
d="M780 682q6 24 6 45q0 68 -50.5 97.5t-155.5 29.5q-124 0 -277 -49l-8 237q87 29 190.5 46.5t182.5 17.5q454 0 454 -336q0 -60 -16 -129l-86 -395q-37 -173 -37 -246h-293q-2 8 -2 35q0 63 6 84h-4q-110 -144 -311 -144q-65 0 -123 19t-104.5 56t-73.5 98.5t-27 140.5
q0 78 24.5 139t60.5 101.5t98.5 69.5t117.5 44t139.5 24t142 11.5t146.5 3.5zM737 475h-32q-76 0 -131.5 -6.5t-104 -22.5t-73.5 -48.5t-25 -80.5q0 -54 28.5 -82t81.5 -28q100 0 162.5 60.5t79.5 140.5zM1128 1516l-45 -205h-608l45 205h608z" />
    <glyph glyph-name="Abreve" unicode="&#x102;" horiz-adv-x="1486" 
d="M936 1186l-320 -588h357zM475 324l-182 -324h-381l856 1462h446l164 -1462h-360l-31 324h-512zM1204 1884h203q-27 -156 -122 -242t-259 -86q-72 0 -129.5 15t-94 40t-60.5 59t-34 70t-10 75q0 25 7 69h194q-4 -20 -4 -35q0 -102 127 -102q83 0 125 32t57 105z" />
    <glyph glyph-name="abreve" unicode="&#x103;" horiz-adv-x="1187" 
d="M780 682q6 24 6 45q0 68 -50.5 97.5t-155.5 29.5q-124 0 -277 -49l-8 237q87 29 190.5 46.5t182.5 17.5q454 0 454 -336q0 -60 -16 -129l-86 -395q-37 -173 -37 -246h-293q-2 8 -2 35q0 63 6 84h-4q-110 -144 -311 -144q-65 0 -123 19t-104.5 56t-73.5 98.5t-27 140.5
q0 78 24.5 139t60.5 101.5t98.5 69.5t117.5 44t139.5 24t142 11.5t146.5 3.5zM737 475h-32q-76 0 -131.5 -6.5t-104 -22.5t-73.5 -48.5t-25 -80.5q0 -54 28.5 -82t81.5 -28q100 0 162.5 60.5t79.5 140.5zM979 1559h203q-27 -156 -122 -242t-259 -86q-90 0 -156 22t-102 60.5
t-53 82t-17 93.5q0 33 6 70h195q-4 -20 -4 -35q0 -103 127 -103q82 0 124.5 32.5t57.5 105.5z" />
    <glyph glyph-name="Aogonek" unicode="&#x104;" horiz-adv-x="1486" 
d="M475 324l-182 -324h-381l856 1462h446l164 -1462h-164q-101 -85 -137.5 -129.5t-36.5 -75.5q0 -43 68 -43q36 0 106 15l-6 -164q-85 -25 -182 -25q-42 0 -78 7t-70 22.5t-53.5 46.5t-19.5 74q0 77 51 139.5t162 132.5l-31 324h-512zM936 1186l-320 -588h357z" />
    <glyph glyph-name="aogonek" unicode="&#x105;" horiz-adv-x="1187" 
d="M780 682q6 24 6 45q0 68 -50.5 97.5t-155.5 29.5q-124 0 -277 -49l-8 237q87 29 190.5 46.5t182.5 17.5q454 0 454 -336q0 -60 -16 -129l-86 -395q-37 -173 -37 -246h-98q-101 -85 -137.5 -129.5t-36.5 -75.5q0 -43 67 -43q36 0 107 15l-6 -164q-85 -25 -183 -25
q-42 0 -78 7t-70 22.5t-53.5 46.5t-19.5 74q0 78 51.5 141t163.5 131q-2 8 -2 35q0 63 6 84h-4q-110 -144 -311 -144q-65 0 -123 19t-104.5 56t-73.5 98.5t-27 140.5q0 78 24.5 139t60.5 101.5t98.5 69.5t117.5 44t139.5 24t142 11.5t146.5 3.5zM737 475h-32
q-76 0 -131.5 -6.5t-104 -22.5t-73.5 -48.5t-25 -80.5q0 -54 28.5 -82t81.5 -28q100 0 162.5 60.5t79.5 140.5z" />
    <glyph glyph-name="Cacute" unicode="&#x106;" horiz-adv-x="1210" 
d="M1303 1442l-82 -271q-96 41 -228 41q-97 0 -180 -33.5t-141 -91t-99.5 -134t-61 -162t-19.5 -175.5q0 -76 19.5 -140.5t59 -116t106 -80.5t154.5 -29q148 0 246 33l-8 -267q-132 -41 -303 -41q-157 0 -278 47t-195.5 131t-112 194.5t-37.5 242.5q0 188 59 352t166.5 285
t268 190.5t354.5 69.5q192 0 312 -45zM1448 1870l-375 -307h-287l277 307h385z" />
    <glyph glyph-name="cacute" unicode="&#x107;" horiz-adv-x="927" 
d="M967 1079l-72 -245q-62 20 -135 20q-103 0 -179.5 -58t-112.5 -147t-36 -194q0 -45 10 -83t32 -72t65.5 -53.5t103.5 -19.5q87 0 160 27v-246q-112 -33 -223 -33q-124 0 -217.5 37t-148.5 102t-81.5 145t-26.5 173q0 141 45 263.5t127.5 214t209.5 144t282 52.5
q91 0 197 -27zM1157 1573l-348 -336h-264l248 336h364z" />
    <glyph glyph-name="Ccircumflex" unicode="&#x108;" horiz-adv-x="1210" 
d="M1303 1442l-82 -271q-96 41 -228 41q-97 0 -180 -33.5t-141 -91t-99.5 -134t-61 -162t-19.5 -175.5q0 -76 19.5 -140.5t59 -116t106 -80.5t154.5 -29q148 0 246 33l-8 -267q-132 -41 -303 -41q-157 0 -278 47t-195.5 131t-112 194.5t-37.5 242.5q0 188 59 352t166.5 285
t268 190.5t354.5 69.5q192 0 312 -45zM1354 1563h-262l-95 174l-170 -174h-280l301 315h340z" />
    <glyph glyph-name="ccircumflex" unicode="&#x109;" horiz-adv-x="927" 
d="M967 1079l-72 -245q-62 20 -135 20q-103 0 -179.5 -58t-112.5 -147t-36 -194q0 -45 10 -83t32 -72t65.5 -53.5t103.5 -19.5q87 0 160 27v-246q-112 -33 -223 -33q-124 0 -217.5 37t-148.5 102t-81.5 145t-26.5 173q0 141 45 263.5t127.5 214t209.5 144t282 52.5
q91 0 197 -27zM1049 1237h-224l-73 205l-160 -205h-246l262 336h324z" />
    <glyph glyph-name="Cdotaccent" unicode="&#x10a;" horiz-adv-x="1210" 
d="M1303 1442l-82 -271q-96 41 -228 41q-97 0 -180 -33.5t-141 -91t-99.5 -134t-61 -162t-19.5 -175.5q0 -76 19.5 -140.5t59 -116t106 -80.5t154.5 -29q148 0 246 33l-8 -267q-132 -41 -303 -41q-157 0 -278 47t-195.5 131t-112 194.5t-37.5 242.5q0 188 59 352t166.5 285
t268 190.5t354.5 69.5q192 0 312 -45zM1219 1876l-62 -287h-336l62 287h336z" />
    <glyph glyph-name="cdotaccent" unicode="&#x10b;" horiz-adv-x="927" 
d="M967 1079l-72 -245q-62 20 -135 20q-103 0 -179.5 -58t-112.5 -147t-36 -194q0 -45 10 -83t32 -72t65.5 -53.5t103.5 -19.5q87 0 160 27v-246q-112 -33 -223 -33q-124 0 -217.5 37t-148.5 102t-81.5 145t-26.5 173q0 141 45 263.5t127.5 214t209.5 144t282 52.5
q91 0 197 -27zM963 1559l-62 -291h-336l62 291h336z" />
    <glyph glyph-name="Ccaron" unicode="&#x10c;" horiz-adv-x="1210" 
d="M1303 1442l-82 -271q-96 41 -228 41q-97 0 -180 -33.5t-141 -91t-99.5 -134t-61 -162t-19.5 -175.5q0 -76 19.5 -140.5t59 -116t106 -80.5t154.5 -29q148 0 246 33l-8 -267q-132 -41 -303 -41q-157 0 -278 47t-195.5 131t-112 194.5t-37.5 242.5q0 188 59 352t166.5 285
t268 190.5t354.5 69.5q192 0 312 -45zM643 1878h262l94 -174l170 174h281l-299 -315h-342z" />
    <glyph glyph-name="ccaron" unicode="&#x10d;" horiz-adv-x="927" 
d="M967 1079l-72 -245q-62 20 -135 20q-103 0 -179.5 -58t-112.5 -147t-36 -194q0 -45 10 -83t32 -72t65.5 -53.5t103.5 -19.5q87 0 160 27v-246q-112 -33 -223 -33q-124 0 -217.5 37t-148.5 102t-81.5 145t-26.5 173q0 141 45 263.5t127.5 214t209.5 144t282 52.5
q91 0 197 -27zM440 1573h224l73 -205l160 205h246l-262 -336h-324z" />
    <glyph glyph-name="Dcaron" unicode="&#x10e;" horiz-adv-x="1507" 
d="M53 0l309 1462h478q313 0 477 -153.5t164 -438.5q0 -138 -32.5 -264t-103 -237t-172 -192.5t-248 -129t-323.5 -47.5h-549zM653 1188l-192 -914h160q126 0 224.5 47t159.5 128t92 184t31 221q0 163 -80.5 248.5t-273.5 85.5h-121zM526 1878h262l95 -174l170 174h280
l-299 -315h-342z" />
    <glyph glyph-name="dcaron" unicode="&#x10f;" horiz-adv-x="1282" 
d="M938 977l113 528h338l-324 -1505h-315l26 125h-4q-45 -66 -124.5 -108t-178.5 -42q-77 0 -139.5 24t-103.5 64t-68.5 95.5t-39.5 116.5t-12 128q0 139 38.5 265.5t108 224t175.5 155.5t231 58q186 0 275 -129h4zM709 854q-67 0 -122 -38.5t-87.5 -100t-50 -132
t-17.5 -139.5q0 -95 40.5 -156t123.5 -61q85 0 150.5 61t98 155t32.5 202q0 96 -40.5 152.5t-127.5 56.5zM1726 1573l-145 -336h-188l100 336h233z" />
    <glyph glyph-name="Dcroat" unicode="&#x110;" horiz-adv-x="1507" 
d="M78 655l39 189h114l131 618h478q313 0 477 -153.5t164 -438.5q0 -138 -32.5 -264t-103 -237t-172 -192.5t-248 -129t-323.5 -47.5h-549l137 655h-112zM653 1188l-73 -344h251l-38 -189h-252l-80 -381h160q126 0 224.5 47t159.5 128t92 184t31 221q0 163 -80.5 248.5
t-273.5 85.5h-121z" />
    <glyph glyph-name="dcroat" unicode="&#x111;" horiz-adv-x="1282" 
d="M1458 1370l-41 -192h-100l-252 -1178h-315l26 125h-4q-45 -66 -124.5 -108t-178.5 -42q-77 0 -139.5 24t-103.5 64t-68.5 95.5t-39.5 116.5t-12 128q0 139 38.5 265.5t108 224t175.5 155.5t231 58q186 0 275 -129h4l43 201h-190l40 192h191l29 135h338l-29 -135h98z
M709 854q-67 0 -122 -38.5t-87.5 -100t-50 -132t-17.5 -139.5q0 -95 40.5 -156t123.5 -61q85 0 150.5 61t98 155t32.5 202q0 96 -40.5 152.5t-127.5 56.5z" />
    <glyph glyph-name="Emacron" unicode="&#x112;" horiz-adv-x="1136" 
d="M53 0l309 1462h857l-58 -274h-512l-63 -305h481l-57 -275h-484l-71 -334h565l-57 -274h-910zM1174 1839l-46 -205h-608l45 205h609z" />
    <glyph glyph-name="emacron" unicode="&#x113;" horiz-adv-x="1191" 
d="M1102 436h-676q-2 -8 -2 -22q0 -97 73.5 -142t196.5 -45q143 0 264 31l-14 -244q-153 -39 -319 -39q-255 0 -387 127t-132 349q0 100 24.5 195t75.5 178.5t121.5 146t169 99t212.5 36.5q216 0 327 -103.5t111 -302.5q0 -119 -45 -264zM696 883q-85 0 -148.5 -58.5
t-88.5 -152.5h381q6 30 6 59q0 152 -150 152zM1141 1516l-45 -205h-609l45 205h609z" />
    <glyph glyph-name="Ebreve" unicode="&#x114;" horiz-adv-x="1136" 
d="M53 0l309 1462h857l-58 -274h-512l-63 -305h481l-57 -275h-484l-71 -334h565l-57 -274h-910zM1022 1884h203q-27 -156 -122 -242t-259 -86q-72 0 -129.5 15t-94 40t-60.5 59t-34 70t-10 75q0 31 6 69h195q-4 -20 -4 -35q0 -102 127 -102q83 0 125 32t57 105z" />
    <glyph glyph-name="ebreve" unicode="&#x115;" horiz-adv-x="1191" 
d="M1102 436h-676q-2 -8 -2 -22q0 -97 73.5 -142t196.5 -45q143 0 264 31l-14 -244q-153 -39 -319 -39q-255 0 -387 127t-132 349q0 100 24.5 195t75.5 178.5t121.5 146t169 99t212.5 36.5q216 0 327 -103.5t111 -302.5q0 -119 -45 -264zM696 883q-85 0 -148.5 -58.5
t-88.5 -152.5h381q6 30 6 59q0 152 -150 152zM987 1559h203q-27 -156 -122 -242t-259 -86q-90 0 -156 22t-102 60.5t-53 82t-17 93.5q0 33 6 70h195q-4 -20 -4 -35q0 -103 127 -103q82 0 124.5 32.5t57.5 105.5z" />
    <glyph glyph-name="Edotaccent" unicode="&#x116;" horiz-adv-x="1136" 
d="M53 0l309 1462h857l-58 -274h-512l-63 -305h481l-57 -275h-484l-71 -334h565l-57 -274h-910zM1040 1876l-61 -287h-336l62 287h335z" />
    <glyph glyph-name="edotaccent" unicode="&#x117;" horiz-adv-x="1191" 
d="M1102 436h-676q-2 -8 -2 -22q0 -97 73.5 -142t196.5 -45q143 0 264 31l-14 -244q-153 -39 -319 -39q-255 0 -387 127t-132 349q0 100 24.5 195t75.5 178.5t121.5 146t169 99t212.5 36.5q216 0 327 -103.5t111 -302.5q0 -119 -45 -264zM696 883q-85 0 -148.5 -58.5
t-88.5 -152.5h381q6 30 6 59q0 152 -150 152zM1012 1559l-62 -291h-336l62 291h336z" />
    <glyph glyph-name="Eogonek" unicode="&#x118;" horiz-adv-x="1136" 
d="M53 0l309 1462h857l-58 -274h-512l-63 -305h481l-57 -275h-484l-71 -334h565l-57 -274h-50q-101 -85 -137.5 -129.5t-36.5 -75.5q0 -43 68 -43q35 0 106 15l-6 -164q-85 -25 -182 -25q-42 0 -78 7t-70 22.5t-53.5 46.5t-19.5 74q0 77 51 139.5t162 132.5h-664z" />
    <glyph glyph-name="eogonek" unicode="&#x119;" horiz-adv-x="1191" 
d="M1102 436h-676q-2 -8 -2 -22q0 -97 73.5 -142t196.5 -45q143 0 264 31l-14 -244q-48 -12 -76 -16q-100 -83 -136 -127.5t-36 -75.5q0 -43 68 -43q36 0 106 15l-6 -164q-85 -25 -182 -25q-42 0 -78 7t-70 22.5t-53.5 46.5t-19.5 74q0 70 42 127.5t134 119.5h-12
q-255 0 -387 127t-132 349q0 100 24.5 195t75.5 178.5t121.5 146t169 99t212.5 36.5q216 0 327 -103.5t111 -302.5q0 -119 -45 -264zM696 883q-85 0 -148.5 -58.5t-88.5 -152.5h381q6 30 6 59q0 152 -150 152z" />
    <glyph glyph-name="Ecaron" unicode="&#x11a;" horiz-adv-x="1136" 
d="M53 0l309 1462h857l-58 -274h-512l-63 -305h481l-57 -275h-484l-71 -334h565l-57 -274h-910zM475 1878h262l94 -174l170 174h281l-299 -315h-342z" />
    <glyph glyph-name="ecaron" unicode="&#x11b;" horiz-adv-x="1191" 
d="M1102 436h-676q-2 -8 -2 -22q0 -97 73.5 -142t196.5 -45q143 0 264 31l-14 -244q-153 -39 -319 -39q-255 0 -387 127t-132 349q0 100 24.5 195t75.5 178.5t121.5 146t169 99t212.5 36.5q216 0 327 -103.5t111 -302.5q0 -119 -45 -264zM696 883q-85 0 -148.5 -58.5
t-88.5 -152.5h381q6 30 6 59q0 152 -150 152zM494 1573h223l74 -205l159 205h246l-262 -336h-324z" />
    <glyph glyph-name="Gcircumflex" unicode="&#x11c;" horiz-adv-x="1462" 
d="M1427 1425l-104 -276q-49 26 -132.5 43.5t-160.5 17.5q-126 0 -228.5 -46.5t-170 -128t-103.5 -191.5t-36 -238q0 -76 20 -138.5t60.5 -112t110 -77.5t161.5 -28q62 0 114 12l72 340h-213l60 275h555l-179 -836q-188 -66 -454 -66q-164 0 -291 45t-206 126.5t-119 188.5
t-40 236q0 194 58 359.5t168 290t283.5 195.5t391.5 71q98 0 204 -16.5t179 -45.5zM1415 1563h-262l-94 174l-170 -174h-281l301 315h340z" />
    <glyph glyph-name="gcircumflex" unicode="&#x11d;" horiz-adv-x="1282" 
d="M707 854q-65 0 -119 -36t-86.5 -92.5t-50 -121t-17.5 -127.5q0 -89 41 -142.5t127 -53.5q80 0 144.5 53.5t98.5 137t34 177.5q0 95 -42 150t-130 55zM754 106l10 50h-4q-112 -121 -287 -121q-181 0 -272.5 106t-91.5 285q0 190 69.5 344.5t198.5 245t293 90.5
q180 0 264 -129h4l23 104h337l-204 -962q-31 -147 -90.5 -249t-147.5 -160t-194 -83.5t-244 -25.5q-79 0 -174.5 11.5t-159.5 29.5l63 256q130 -39 277 -39q155 0 228.5 57t101.5 190zM1157 1237h-223l-74 205l-160 -205h-245l262 336h323z" />
    <glyph glyph-name="Gbreve" unicode="&#x11e;" horiz-adv-x="1462" 
d="M1427 1425l-104 -276q-49 26 -132.5 43.5t-160.5 17.5q-126 0 -228.5 -46.5t-170 -128t-103.5 -191.5t-36 -238q0 -76 20 -138.5t60.5 -112t110 -77.5t161.5 -28q62 0 114 12l72 340h-213l60 275h555l-179 -836q-188 -66 -454 -66q-164 0 -291 45t-206 126.5t-119 188.5
t-40 236q0 194 58 359.5t168 290t283.5 195.5t391.5 71q98 0 204 -16.5t179 -45.5zM1221 1884h202q-27 -156 -122 -242t-259 -86q-90 0 -156 22.5t-102 61t-52.5 82t-16.5 93.5q0 31 6 69h194q-4 -20 -4 -35q0 -102 127 -102q83 0 125.5 32.5t57.5 104.5z" />
    <glyph glyph-name="gbreve" unicode="&#x11f;" horiz-adv-x="1282" 
d="M707 854q-65 0 -119 -36t-86.5 -92.5t-50 -121t-17.5 -127.5q0 -89 41 -142.5t127 -53.5q80 0 144.5 53.5t98.5 137t34 177.5q0 95 -42 150t-130 55zM754 106l10 50h-4q-112 -121 -287 -121q-181 0 -272.5 106t-91.5 285q0 190 69.5 344.5t198.5 245t293 90.5
q180 0 264 -129h4l23 104h337l-204 -962q-31 -147 -90.5 -249t-147.5 -160t-194 -83.5t-244 -25.5q-79 0 -174.5 11.5t-159.5 29.5l63 256q130 -39 277 -39q155 0 228.5 57t101.5 190zM993 1559h203q-27 -156 -122 -242t-259 -86q-90 0 -156 22t-102 60.5t-53 82t-17 93.5
q0 26 7 70h194q-4 -20 -4 -35q0 -103 127 -103q82 0 124.5 32.5t57.5 105.5z" />
    <glyph glyph-name="Gdotaccent" unicode="&#x120;" horiz-adv-x="1462" 
d="M1427 1425l-104 -276q-49 26 -132.5 43.5t-160.5 17.5q-126 0 -228.5 -46.5t-170 -128t-103.5 -191.5t-36 -238q0 -76 20 -138.5t60.5 -112t110 -77.5t161.5 -28q62 0 114 12l72 340h-213l60 275h555l-179 -836q-188 -66 -454 -66q-164 0 -291 45t-206 126.5t-119 188.5
t-40 236q0 194 58 359.5t168 290t283.5 195.5t391.5 71q98 0 204 -16.5t179 -45.5zM1266 1876l-62 -287h-336l62 287h336z" />
    <glyph glyph-name="gdotaccent" unicode="&#x121;" horiz-adv-x="1282" 
d="M707 854q-65 0 -119 -36t-86.5 -92.5t-50 -121t-17.5 -127.5q0 -89 41 -142.5t127 -53.5q80 0 144.5 53.5t98.5 137t34 177.5q0 95 -42 150t-130 55zM754 106l10 50h-4q-112 -121 -287 -121q-181 0 -272.5 106t-91.5 285q0 190 69.5 344.5t198.5 245t293 90.5
q180 0 264 -129h4l23 104h337l-204 -962q-31 -147 -90.5 -249t-147.5 -160t-194 -83.5t-244 -25.5q-79 0 -174.5 11.5t-159.5 29.5l63 256q130 -39 277 -39q155 0 228.5 57t101.5 190zM1026 1559l-61 -291h-336l61 291h336z" />
    <glyph glyph-name="Gcommaaccent" unicode="&#x122;" horiz-adv-x="1462" 
d="M1427 1425l-104 -276q-49 26 -132.5 43.5t-160.5 17.5q-126 0 -228.5 -46.5t-170 -128t-103.5 -191.5t-36 -238q0 -76 20 -138.5t60.5 -112t110 -77.5t161.5 -28q62 0 114 12l72 340h-213l60 275h555l-179 -836q-188 -66 -454 -66q-164 0 -291 45t-206 126.5t-119 188.5
t-40 236q0 194 58 359.5t168 290t283.5 195.5t391.5 71q98 0 204 -16.5t179 -45.5zM858 -119l-293 -319h-243l204 319h332z" />
    <glyph glyph-name="gcommaaccent" unicode="&#x123;" horiz-adv-x="1282" 
d="M707 854q-65 0 -119 -36t-86.5 -92.5t-50 -121t-17.5 -127.5q0 -89 41 -142.5t127 -53.5q80 0 144.5 53.5t98.5 137t34 177.5q0 95 -42 150t-130 55zM754 106l10 50h-4q-112 -121 -287 -121q-181 0 -272.5 106t-91.5 285q0 190 69.5 344.5t198.5 245t293 90.5
q180 0 264 -129h4l23 104h337l-204 -962q-31 -147 -90.5 -249t-147.5 -160t-194 -83.5t-244 -25.5q-79 0 -174.5 11.5t-159.5 29.5l63 256q130 -39 277 -39q155 0 228.5 57t101.5 190zM578 1237l294 336h244l-207 -336h-331z" />
    <glyph glyph-name="Hcircumflex" unicode="&#x124;" horiz-adv-x="1474" 
d="M53 0l309 1462h349l-121 -579h479l121 579h348l-309 -1462h-348l129 608h-480l-129 -608h-348zM1372 1563h-262l-94 174l-170 -174h-281l301 315h340z" />
    <glyph glyph-name="hcircumflex" unicode="&#x125;" horiz-adv-x="1280" 
d="M352 1505h338l-127 -571h4q111 172 328 172q150 0 236 -92t86 -226q0 -56 -11 -120l-141 -668h-338l115 539q26 122 26 176q0 65 -26 102t-97 37q-88 0 -158.5 -79.5t-101.5 -229.5l-114 -545h-338zM1214 1563h-262l-94 174l-170 -174h-280l301 315h340z" />
    <glyph glyph-name="Hbar" unicode="&#x126;" horiz-adv-x="1474" 
d="M53 0l238 1122h-115l39 189h115l32 151h349l-33 -151h479l33 151h348l-33 -151h115l-39 -189h-115l-237 -1122h-348l129 608h-480l-129 -608h-348zM590 883h479l49 239h-479z" />
    <glyph glyph-name="hbar" unicode="&#x127;" horiz-adv-x="1280" 
d="M352 1505h338l-31 -135h193l-41 -192h-195l-53 -244h4q111 172 328 172q150 0 236 -92t86 -226q0 -56 -11 -120l-141 -668h-338l115 539q26 122 26 176q0 65 -26 102t-97 37q-88 0 -158.5 -79.5t-101.5 -229.5l-114 -545h-338l250 1178h-99l41 192h99z" />
    <glyph glyph-name="Itilde" unicode="&#x128;" horiz-adv-x="647" 
d="M53 0l309 1462h349l-310 -1462h-348zM831 1884h181q-59 -321 -252 -321q-77 0 -182 63q-54 32 -79 42.5t-48 10.5q-71 0 -95 -118h-180q28 162 100.5 240.5t169.5 78.5q48 0 92.5 -16t104.5 -54q41 -27 62.5 -37t42.5 -10q37 0 54 28.5t29 92.5z" />
    <glyph glyph-name="itilde" unicode="&#x129;" horiz-adv-x="587" 
d="M262 1081h338l-229 -1081h-338zM741 1559h181q-59 -322 -252 -322q-78 0 -183 63q-55 33 -79.5 43.5t-47.5 10.5q-70 0 -94 -119h-180q28 162 100.5 240.5t169.5 78.5q49 0 93 -16t104 -53q42 -27 63 -37t41 -10q37 0 54.5 29t29.5 92z" />
    <glyph glyph-name="Imacron" unicode="&#x12a;" horiz-adv-x="647" 
d="M53 0l309 1462h349l-310 -1462h-348zM924 1839l-45 -205h-609l45 205h609z" />
    <glyph glyph-name="imacron" unicode="&#x12b;" horiz-adv-x="587" 
d="M262 1081h338l-229 -1081h-338zM831 1516l-45 -205h-608l45 205h608z" />
    <glyph glyph-name="Ibreve" unicode="&#x12c;" horiz-adv-x="647" 
d="M53 0l309 1462h349l-310 -1462h-348zM776 1884h203q-27 -156 -122 -242t-259 -86q-72 0 -129.5 15t-94 40t-60.5 59t-34 70t-10 75q0 31 6 69h195q-4 -20 -4 -35q0 -102 127 -102q83 0 125 32t57 105z" />
    <glyph glyph-name="ibreve" unicode="&#x12d;" horiz-adv-x="587" 
d="M262 1081h338l-229 -1081h-338zM672 1559h202q-27 -156 -121.5 -242t-258.5 -86q-90 0 -156 22t-102 60.5t-53 82t-17 93.5q0 33 6 70h195q-5 -25 -5 -35q0 -103 127 -103q83 0 125.5 32.5t57.5 105.5z" />
    <glyph glyph-name="Iogonek" unicode="&#x12e;" horiz-adv-x="647" 
d="M53 0l309 1462h349l-310 -1462h-94q-101 -85 -137.5 -129.5t-36.5 -75.5q0 -43 68 -43q35 0 106 15l-6 -164q-85 -25 -182 -25q-42 0 -78 7t-70 22.5t-53.5 46.5t-19.5 74q0 77 51 139.5t162 132.5h-58z" />
    <glyph glyph-name="iogonek" unicode="&#x12f;" horiz-adv-x="587" 
d="M262 1081h338l-229 -1081h-68q-101 -85 -137.5 -129.5t-36.5 -75.5q0 -43 68 -43q36 0 106 15l-6 -164q-85 -25 -182 -25q-42 0 -78 7t-70 22.5t-53.5 46.5t-19.5 74q0 77 50.5 139.5t161.5 132.5h-73zM352 1505h338l-61 -288h-338z" />
    <glyph glyph-name="Idotaccent" unicode="&#x130;" horiz-adv-x="647" 
d="M53 0l309 1462h349l-310 -1462h-348zM793 1876l-62 -287h-336l62 287h336z" />
    <glyph glyph-name="dotlessi" unicode="&#x131;" horiz-adv-x="587" 
d="M262 1081h338l-229 -1081h-338z" />
    <glyph glyph-name="Jcircumflex" unicode="&#x134;" horiz-adv-x="806" 
d="M887 1462l-225 -1069q-18 -86 -42 -148t-63.5 -115.5t-95.5 -86t-136.5 -50.5t-187.5 -18q-95 0 -186 17l65 270q52 -12 121 -12q82 0 123.5 43.5t63.5 148.5l215 1020h348zM1130 1563h-262l-94 174l-170 -174h-280l301 315h340z" />
    <glyph glyph-name="jcircumflex" unicode="&#x135;" horiz-adv-x="587" 
d="M600 1081l-235 -1106q-15 -72 -34.5 -124.5t-54.5 -102t-83 -80t-121 -49t-168 -18.5q-78 0 -150 10l35 250q44 -8 88 -8q70 0 105 39t53 124l227 1065h338zM799 1237h-224l-73 205l-160 -205h-246l262 336h324z" />
    <glyph glyph-name="Kcommaaccent" unicode="&#x136;" horiz-adv-x="1351" 
d="M1114 1462h422l-610 -727l344 -735h-400l-311 723h-4l-154 -723h-348l309 1462h349l-146 -688h4zM758 -119l-293 -319h-244l205 319h332z" />
    <glyph glyph-name="kcommaaccent" unicode="&#x137;" horiz-adv-x="1175" 
d="M905 1081h389l-460 -508l274 -573h-371l-243 567h-5l-118 -567h-338l319 1505h338l-190 -891h4zM688 -119l-293 -319h-243l204 319h332z" />
    <glyph glyph-name="kgreenlandic" unicode="&#x138;" horiz-adv-x="1175" 
d="M905 1081h389l-460 -508l274 -573h-371l-243 567h-5l-118 -567h-338l229 1081h338l-100 -467h4z" />
    <glyph glyph-name="Lacute" unicode="&#x139;" horiz-adv-x="1052" 
d="M53 0l309 1462h349l-250 -1188h520l-59 -274h-869zM1083 1870l-374 -307h-287l276 307h385z" />
    <glyph glyph-name="lacute" unicode="&#x13a;" horiz-adv-x="587" 
d="M352 1505h338l-319 -1505h-338zM1049 1888l-375 -307h-287l277 307h385z" />
    <glyph glyph-name="Lcommaaccent" unicode="&#x13b;" horiz-adv-x="1052" 
d="M53 0l309 1462h349l-250 -1188h520l-59 -274h-869zM643 -119l-293 -319h-244l205 319h332z" />
    <glyph glyph-name="lcommaaccent" unicode="&#x13c;" horiz-adv-x="587" 
d="M352 1505h338l-319 -1505h-338zM340 -119l-293 -319h-244l205 319h332z" />
    <glyph glyph-name="Lcaron" unicode="&#x13d;" horiz-adv-x="1052" 
d="M53 0l309 1462h349l-250 -1188h520l-59 -274h-869zM1112 1573l-145 -336h-189l101 336h233z" />
    <glyph glyph-name="lcaron" unicode="&#x13e;" horiz-adv-x="587" 
d="M352 1505h338l-319 -1505h-338zM1032 1573l-145 -336h-189l101 336h233z" />
    <glyph glyph-name="Ldot" unicode="&#x13f;" horiz-adv-x="1093" 
d="M53 0l309 1462h349l-250 -1188h520l-59 -274h-869zM1159 1026l-61 -291h-336l61 291h336z" />
    <glyph glyph-name="ldot" unicode="&#x140;" horiz-adv-x="878" 
d="M352 1505h338l-319 -1505h-338zM1014 969l-62 -291h-336l62 291h336z" />
    <glyph glyph-name="Lslash" unicode="&#x141;" horiz-adv-x="1052" 
d="M53 0l131 618l-153 -75l45 215l153 76l133 628h349l-97 -454l222 110l-45 -215l-222 -110l-108 -519h520l-59 -274h-869z" />
    <glyph glyph-name="lslash" unicode="&#x142;" horiz-adv-x="628" 
d="M373 1505h338l-107 -499l160 79l-47 -211l-158 -77l-168 -797h-338l133 631l-151 -76l47 211l149 74z" />
    <glyph glyph-name="Nacute" unicode="&#x143;" horiz-adv-x="1529" 
d="M920 1462l100 -1114h4l236 1114h333l-309 -1462h-534l-119 1135h-4l-240 -1135h-334l309 1462h558zM1462 1870l-375 -307h-286l276 307h385z" />
    <glyph glyph-name="nacute" unicode="&#x144;" horiz-adv-x="1277" 
d="M262 1081h326l-35 -147h4q117 172 338 172q152 0 235.5 -89.5t83.5 -230.5q0 -76 -20 -174l-129 -612h-338l115 539q26 123 26 182q0 61 -26 97t-97 36q-88 0 -158.5 -79.5t-101.5 -229.5l-114 -545h-338zM1280 1573l-348 -336h-264l247 336h365z" />
    <glyph glyph-name="Ncommaaccent" unicode="&#x145;" horiz-adv-x="1529" 
d="M920 1462l100 -1114h4l236 1114h333l-309 -1462h-534l-119 1135h-4l-240 -1135h-334l309 1462h558zM899 -119l-293 -319h-244l205 319h332z" />
    <glyph glyph-name="ncommaaccent" unicode="&#x146;" horiz-adv-x="1277" 
d="M262 1081h326l-35 -147h4q117 172 338 172q152 0 235.5 -89.5t83.5 -230.5q0 -76 -20 -174l-129 -612h-338l115 539q26 123 26 182q0 61 -26 97t-97 36q-88 0 -158.5 -79.5t-101.5 -229.5l-114 -545h-338zM694 -119l-293 -319h-243l204 319h332z" />
    <glyph glyph-name="Ncaron" unicode="&#x147;" horiz-adv-x="1529" 
d="M920 1462l100 -1114h4l236 1114h333l-309 -1462h-534l-119 1135h-4l-240 -1135h-334l309 1462h558zM659 1878h263l94 -174l170 174h280l-299 -315h-342z" />
    <glyph glyph-name="ncaron" unicode="&#x148;" horiz-adv-x="1277" 
d="M262 1081h326l-35 -147h4q117 172 338 172q152 0 235.5 -89.5t83.5 -230.5q0 -76 -20 -174l-129 -612h-338l115 539q26 123 26 182q0 61 -26 97t-97 36q-88 0 -158.5 -79.5t-101.5 -229.5l-114 -545h-338zM565 1573h223l74 -205l160 205h246l-262 -336h-324z" />
    <glyph glyph-name="Eng" unicode="&#x14a;" horiz-adv-x="1529" 
d="M920 1462l100 -1114h4l236 1114h333l-315 -1487q-15 -72 -34.5 -124.5t-54.5 -102t-83 -80t-121 -49t-168 -18.5q-77 0 -149 10l34 250q44 -8 89 -8q66 0 100.5 35.5t52.5 111.5h-194l-119 1135h-4l-240 -1135h-334l309 1462h558z" />
    <glyph glyph-name="eng" unicode="&#x14b;" horiz-adv-x="1277" 
d="M262 1081h326l-35 -147h4q117 172 338 172q152 0 235.5 -89.5t83.5 -230.5q0 -76 -20 -174l-135 -637q-15 -72 -34.5 -124.5t-54.5 -102t-83 -80t-121 -49t-168 -18.5q-77 0 -149 10l34 250q44 -8 88 -8q70 0 105 39t53 124l113 523q26 123 26 182q0 61 -26 97t-97 36
q-88 0 -158.5 -79.5t-101.5 -229.5l-114 -545h-338z" />
    <glyph glyph-name="Omacron" unicode="&#x14c;" horiz-adv-x="1572" 
d="M1546 918q0 -134 -27 -263t-89.5 -253.5t-154.5 -218t-233 -151t-313 -57.5q-155 0 -270.5 43.5t-183 123t-100 181.5t-32.5 228q0 145 31 280.5t96.5 255t160 208.5t230 140.5t297.5 51.5q147 0 260.5 -43t184.5 -120t107 -179.5t36 -226.5zM766 254q87 0 160.5 41.5
t121.5 108.5t82 152t49 170.5t15 166.5q0 145 -65 230t-207 85q-99 0 -182 -55.5t-135.5 -146t-81.5 -203.5t-29 -232q0 -144 65.5 -230.5t206.5 -86.5zM1380 1839l-45 -205h-608l45 205h608z" />
    <glyph glyph-name="omacron" unicode="&#x14d;" horiz-adv-x="1267" 
d="M1202 686q0 -97 -22 -194t-70.5 -190.5t-119 -166t-175.5 -116.5t-231 -44q-239 0 -358.5 116t-119.5 312q0 144 44 271.5t124 223.5t201.5 152t267.5 56q225 0 342 -113t117 -307zM604 227q55 0 102 29t77 74t51.5 101t30.5 108.5t9 97.5q0 99 -36 158t-129 59
q-82 0 -147 -61.5t-97.5 -151.5t-32.5 -186q0 -45 8.5 -83.5t27.5 -72.5t53.5 -53t82.5 -19zM1169 1516l-45 -205h-608l45 205h608z" />
    <glyph glyph-name="Obreve" unicode="&#x14e;" horiz-adv-x="1572" 
d="M1546 918q0 -134 -27 -263t-89.5 -253.5t-154.5 -218t-233 -151t-313 -57.5q-155 0 -270.5 43.5t-183 123t-100 181.5t-32.5 228q0 145 31 280.5t96.5 255t160 208.5t230 140.5t297.5 51.5q147 0 260.5 -43t184.5 -120t107 -179.5t36 -226.5zM766 254q87 0 160.5 41.5
t121.5 108.5t82 152t49 170.5t15 166.5q0 145 -65 230t-207 85q-99 0 -182 -55.5t-135.5 -146t-81.5 -203.5t-29 -232q0 -144 65.5 -230.5t206.5 -86.5zM1225 1884h202q-27 -156 -121.5 -242t-258.5 -86q-72 0 -129.5 15t-94 40t-60.5 59t-34 70t-10 75q0 31 6 69h195
q-5 -25 -5 -35q0 -102 127 -102q83 0 125.5 32.5t57.5 104.5z" />
    <glyph glyph-name="obreve" unicode="&#x14f;" horiz-adv-x="1267" 
d="M1202 686q0 -97 -22 -194t-70.5 -190.5t-119 -166t-175.5 -116.5t-231 -44q-239 0 -358.5 116t-119.5 312q0 144 44 271.5t124 223.5t201.5 152t267.5 56q225 0 342 -113t117 -307zM604 227q55 0 102 29t77 74t51.5 101t30.5 108.5t9 97.5q0 99 -36 158t-129 59
q-82 0 -147 -61.5t-97.5 -151.5t-32.5 -186q0 -45 8.5 -83.5t27.5 -72.5t53.5 -53t82.5 -19zM1018 1559h203q-27 -156 -122 -242t-259 -86q-90 0 -156 22t-102 60.5t-53 82t-17 93.5q0 33 6 70h195q-4 -20 -4 -35q0 -103 127 -103q82 0 124.5 32.5t57.5 105.5z" />
    <glyph glyph-name="Ohungarumlaut" unicode="&#x150;" horiz-adv-x="1572" 
d="M1546 918q0 -134 -27 -263t-89.5 -253.5t-154.5 -218t-233 -151t-313 -57.5q-155 0 -270.5 43.5t-183 123t-100 181.5t-32.5 228q0 145 31 280.5t96.5 255t160 208.5t230 140.5t297.5 51.5q147 0 260.5 -43t184.5 -120t107 -179.5t36 -226.5zM766 254q87 0 160.5 41.5
t121.5 108.5t82 152t49 170.5t15 166.5q0 145 -65 230t-207 85q-99 0 -182 -55.5t-135.5 -146t-81.5 -203.5t-29 -232q0 -144 65.5 -230.5t206.5 -86.5zM1165 1870l-282 -307h-248l252 307h278zM1612 1870l-314 -307h-262l277 307h299z" />
    <glyph glyph-name="ohungarumlaut" unicode="&#x151;" horiz-adv-x="1267" 
d="M1202 686q0 -97 -22 -194t-70.5 -190.5t-119 -166t-175.5 -116.5t-231 -44q-239 0 -358.5 116t-119.5 312q0 144 44 271.5t124 223.5t201.5 152t267.5 56q225 0 342 -113t117 -307zM604 227q55 0 102 29t77 74t51.5 101t30.5 108.5t9 97.5q0 99 -36 158t-129 59
q-82 0 -147 -61.5t-97.5 -151.5t-32.5 -186q0 -45 8.5 -83.5t27.5 -72.5t53.5 -53t82.5 -19zM1008 1573l-289 -336h-248l258 336h279zM1434 1573l-320 -336h-262l283 336h299z" />
    <glyph glyph-name="OE" unicode="&#x152;" horiz-adv-x="1976" 
d="M846 0h-62q-313 0 -477 153.5t-164 438.5q0 138 32.5 264t102.5 237t172 192.5t251 129t329 47.5h1028l-57 -274h-512l-64 -305h482l-58 -275h-483l-72 -334h566l-58 -274h-956zM950 274l193 914h-131q-126 0 -226 -47t-162.5 -127.5t-95 -184t-32.5 -221.5
q0 -163 80.5 -248.5t273.5 -85.5h100z" />
    <glyph glyph-name="oe" unicode="&#x153;" horiz-adv-x="1939" 
d="M1849 436h-675q-3 -12 -3 -22q0 -97 74 -142t197 -45q143 0 264 31l-14 -244q-153 -39 -320 -39q-273 0 -395 166q-67 -77 -168 -121.5t-225 -44.5q-239 0 -358.5 116t-119.5 312q0 144 44 271.5t124 223.5t201.5 152t267.5 56q106 0 195.5 -39t138.5 -115q70 76 170 115
t209 39q216 0 327 -103.5t111 -302.5q0 -119 -45 -264zM604 227q55 0 102 29t77 74t51.5 101t30.5 108.5t9 97.5q0 99 -36 158t-129 59q-82 0 -147 -61.5t-97.5 -151.5t-32.5 -186q0 -45 8.5 -83.5t27.5 -72.5t53.5 -53t82.5 -19zM1444 883q-85 0 -149 -58.5t-89 -152.5h381
q6 30 6 59q0 152 -149 152z" />
    <glyph glyph-name="Racute" unicode="&#x154;" horiz-adv-x="1376" 
d="M53 0l309 1462h578q93 0 169.5 -18.5t140 -58.5t99 -111t35.5 -168q0 -87 -25 -157.5t-69 -118.5t-96 -79t-115 -51v-4q56 -25 87.5 -76.5t47.5 -162.5q57 -383 70 -457h-366q-30 248 -46 360q-12 87 -35.5 129t-74 60t-150.5 18h-92l-119 -567h-348zM653 1188l-73 -348
h155q289 0 289 200q0 148 -221 148h-150zM1380 1870l-374 -307h-287l276 307h385z" />
    <glyph glyph-name="racute" unicode="&#x155;" horiz-adv-x="851" 
d="M950 1102l-67 -256q-36 8 -76 8q-116 0 -206 -93.5t-132 -293.5l-98 -467h-338l229 1081h326l-31 -139h4q115 164 309 164q40 0 80 -4zM977 1573l-348 -336h-264l247 336h365z" />
    <glyph glyph-name="Rcommaaccent" unicode="&#x156;" horiz-adv-x="1376" 
d="M53 0l309 1462h578q93 0 169.5 -18.5t140 -58.5t99 -111t35.5 -168q0 -87 -25 -157.5t-69 -118.5t-96 -79t-115 -51v-4q56 -25 87.5 -76.5t47.5 -162.5q57 -383 70 -457h-366q-30 248 -46 360q-12 87 -35.5 129t-74 60t-150.5 18h-92l-119 -567h-348zM653 1188l-73 -348
h155q289 0 289 200q0 148 -221 148h-150zM780 -119l-293 -319h-243l205 319h331z" />
    <glyph glyph-name="rcommaaccent" unicode="&#x157;" horiz-adv-x="851" 
d="M950 1102l-67 -256q-36 8 -76 8q-116 0 -206 -93.5t-132 -293.5l-98 -467h-338l229 1081h326l-31 -139h4q115 164 309 164q40 0 80 -4zM369 -119l-293 -319h-244l205 319h332z" />
    <glyph glyph-name="Rcaron" unicode="&#x158;" horiz-adv-x="1376" 
d="M53 0l309 1462h578q93 0 169.5 -18.5t140 -58.5t99 -111t35.5 -168q0 -87 -25 -157.5t-69 -118.5t-96 -79t-115 -51v-4q56 -25 87.5 -76.5t47.5 -162.5q57 -383 70 -457h-366q-30 248 -46 360q-12 87 -35.5 129t-74 60t-150.5 18h-92l-119 -567h-348zM653 1188l-73 -348
h155q289 0 289 200q0 148 -221 148h-150zM561 1878h262l95 -174l169 174h281l-299 -315h-342z" />
    <glyph glyph-name="rcaron" unicode="&#x159;" horiz-adv-x="851" 
d="M950 1102l-67 -256q-36 8 -76 8q-116 0 -206 -93.5t-132 -293.5l-98 -467h-338l229 1081h326l-31 -139h4q115 164 309 164q40 0 80 -4zM326 1573h223l74 -205l159 205h246l-262 -336h-324z" />
    <glyph glyph-name="Sacute" unicode="&#x15a;" horiz-adv-x="1105" 
d="M1141 1417l-80 -270q-152 65 -322 65q-47 0 -87 -12t-70.5 -44t-30.5 -81q0 -56 34.5 -95t137.5 -103q82 -51 132.5 -90.5t96 -91.5t66 -114.5t20.5 -140.5q0 -98 -32 -177.5t-85.5 -132.5t-126 -88.5t-151 -51t-162.5 -15.5q-243 0 -463 80l88 277q208 -82 373 -82
q102 0 156.5 39t54.5 114q0 61 -40.5 107.5t-151.5 116.5q-160 100 -225.5 190.5t-65.5 226.5q0 93 32 169.5t84 126t121.5 83.5t142.5 49t148 15q240 0 406 -70zM1270 1870l-375 -307h-287l277 307h385z" />
    <glyph glyph-name="sacute" unicode="&#x15b;" horiz-adv-x="980" 
d="M958 1047l-88 -244q-128 51 -256 51q-59 0 -95 -19t-36 -55q0 -28 27.5 -52.5t116.5 -70.5q143 -76 204.5 -150.5t61.5 -176.5q0 -80 -28 -142.5t-73.5 -102t-110 -65t-131.5 -35.5t-144 -10q-90 0 -196.5 17t-184.5 43l84 250q152 -58 290 -58q144 0 144 74q0 33 -32 62
t-126 75q-130 64 -186 137.5t-56 169.5q0 82 29.5 146t77 103.5t113 65.5t132 36t140.5 10q168 0 323 -59zM1104 1573l-348 -336h-264l247 336h365z" />
    <glyph glyph-name="Scircumflex" unicode="&#x15c;" horiz-adv-x="1105" 
d="M1141 1417l-80 -270q-152 65 -322 65q-47 0 -87 -12t-70.5 -44t-30.5 -81q0 -56 34.5 -95t137.5 -103q82 -51 132.5 -90.5t96 -91.5t66 -114.5t20.5 -140.5q0 -98 -32 -177.5t-85.5 -132.5t-126 -88.5t-151 -51t-162.5 -15.5q-243 0 -463 80l88 277q208 -82 373 -82
q102 0 156.5 39t54.5 114q0 61 -40.5 107.5t-151.5 116.5q-160 100 -225.5 190.5t-65.5 226.5q0 93 32 169.5t84 126t121.5 83.5t142.5 49t148 15q240 0 406 -70zM1171 1563h-262l-94 174l-170 -174h-280l301 315h340z" />
    <glyph glyph-name="scircumflex" unicode="&#x15d;" horiz-adv-x="980" 
d="M958 1047l-88 -244q-128 51 -256 51q-59 0 -95 -19t-36 -55q0 -28 27.5 -52.5t116.5 -70.5q143 -76 204.5 -150.5t61.5 -176.5q0 -80 -28 -142.5t-73.5 -102t-110 -65t-131.5 -35.5t-144 -10q-90 0 -196.5 17t-184.5 43l84 250q152 -58 290 -58q144 0 144 74q0 33 -32 62
t-126 75q-130 64 -186 137.5t-56 169.5q0 82 29.5 146t77 103.5t113 65.5t132 36t140.5 10q168 0 323 -59zM991 1237h-223l-74 205l-159 -205h-246l262 336h323z" />
    <glyph glyph-name="Scedilla" unicode="&#x15e;" horiz-adv-x="1105" 
d="M1141 1417l-80 -270q-152 65 -322 65q-47 0 -87 -12t-70.5 -44t-30.5 -81q0 -56 34.5 -95t137.5 -103q82 -51 132.5 -90.5t96 -91.5t66 -114.5t20.5 -140.5q0 -115 -43 -204t-117 -142.5t-161.5 -82.5t-188.5 -34l-22 -61q14 2 37 2q70 0 116 -40t46 -109
q0 -61 -25.5 -104.5t-72 -67.5t-101 -35t-121.5 -11q-89 0 -162 15l41 137q46 -10 117 -10q125 0 125 57q0 24 -24 34.5t-76 10.5q-54 0 -113 -6l65 193q-172 12 -340 73l88 277q208 -82 373 -82q102 0 156.5 39t54.5 114q0 61 -40.5 107.5t-151.5 116.5
q-160 100 -225.5 190.5t-65.5 226.5q0 93 32 169.5t84 126t121.5 83.5t142.5 49t148 15q240 0 406 -70z" />
    <glyph glyph-name="scedilla" unicode="&#x15f;" horiz-adv-x="980" 
d="M958 1047l-88 -244q-128 51 -256 51q-59 0 -95 -19t-36 -55q0 -28 27.5 -52.5t116.5 -70.5q143 -76 204.5 -150.5t61.5 -176.5q0 -90 -33.5 -157t-93 -107t-129.5 -61.5t-156 -27.5l-22 -61q14 2 37 2q70 0 115.5 -40t45.5 -109q0 -61 -25.5 -104.5t-71.5 -67.5
t-100.5 -35t-121.5 -11q-88 0 -162 15l41 137q46 -10 117 -10q125 0 125 57q0 45 -101 45q-54 0 -112 -6l65 191q-165 13 -286 55l84 250q152 -58 290 -58q144 0 144 74q0 33 -32 62t-126 75q-130 64 -186 137.5t-56 169.5q0 82 29.5 146t77 103.5t113 65.5t132 36t140.5 10
q168 0 323 -59z" />
    <glyph glyph-name="Scaron" unicode="&#x160;" horiz-adv-x="1105" 
d="M1141 1417l-80 -270q-152 65 -322 65q-47 0 -87 -12t-70.5 -44t-30.5 -81q0 -56 34.5 -95t137.5 -103q82 -51 132.5 -90.5t96 -91.5t66 -114.5t20.5 -140.5q0 -98 -32 -177.5t-85.5 -132.5t-126 -88.5t-151 -51t-162.5 -15.5q-243 0 -463 80l88 277q208 -82 373 -82
q102 0 156.5 39t54.5 114q0 61 -40.5 107.5t-151.5 116.5q-160 100 -225.5 190.5t-65.5 226.5q0 93 32 169.5t84 126t121.5 83.5t142.5 49t148 15q240 0 406 -70zM444 1878h263l94 -174l170 174h280l-299 -315h-342z" />
    <glyph glyph-name="scaron" unicode="&#x161;" horiz-adv-x="980" 
d="M958 1047l-88 -244q-128 51 -256 51q-59 0 -95 -19t-36 -55q0 -28 27.5 -52.5t116.5 -70.5q143 -76 204.5 -150.5t61.5 -176.5q0 -80 -28 -142.5t-73.5 -102t-110 -65t-131.5 -35.5t-144 -10q-90 0 -196.5 17t-184.5 43l84 250q152 -58 290 -58q144 0 144 74q0 33 -32 62
t-126 75q-130 64 -186 137.5t-56 169.5q0 82 29.5 146t77 103.5t113 65.5t132 36t140.5 10q168 0 323 -59zM352 1573h223l74 -205l160 205h246l-262 -336h-324z" />
    <glyph glyph-name="uni0162" unicode="&#x162;" horiz-adv-x="1114" 
d="M285 0l250 1188h-361l59 274h1057l-59 -274h-348l-250 -1188h-348zM602 -119l-293 -319h-243l204 319h332z" />
    <glyph glyph-name="uni0163" unicode="&#x163;" horiz-adv-x="770" 
d="M94 834l53 247h164l62 295h338l-62 -295h197l-53 -247h-197l-88 -414q-16 -69 -16 -101q0 -37 23.5 -53t74.5 -16q40 0 90 8l-53 -258q-102 -8 -160 -8q-170 0 -249 55.5t-79 175.5q0 47 17 127l102 484h-164zM588 -119l-293 -319h-244l205 319h332z" />
    <glyph glyph-name="Tcaron" unicode="&#x164;" horiz-adv-x="1114" 
d="M285 0l250 1188h-361l59 274h1057l-59 -274h-348l-250 -1188h-348zM451 1878h262l94 -174l170 174h280l-299 -315h-342z" />
    <glyph glyph-name="tcaron" unicode="&#x165;" horiz-adv-x="770" 
d="M94 834l53 247h164l62 295h338l-62 -295h197l-53 -247h-197l-88 -414q-16 -69 -16 -101q0 -37 23.5 -53t74.5 -16q40 0 90 8l-53 -258q-102 -8 -160 -8q-170 0 -249 55.5t-79 175.5q0 47 17 127l102 484h-164zM1110 1573l-145 -336h-189l101 336h233z" />
    <glyph glyph-name="Tbar" unicode="&#x166;" horiz-adv-x="1114" 
d="M999 889l-38 -180h-179l-149 -709h-348l149 709h-180l39 180h178l64 299h-361l59 274h1057l-59 -274h-348l-64 -299h180z" />
    <glyph glyph-name="tbar" unicode="&#x167;" horiz-adv-x="770" 
d="M711 653l-41 -192h-152l-10 -41q-16 -69 -16 -101q0 -37 23.5 -53t74.5 -16q40 0 90 8l-53 -258q-106 -8 -160 -8q-170 0 -249 55.5t-79 175.5q0 47 17 127l24 111h-139l41 192h137l39 181h-164l53 247h164l62 295h338l-62 -295h197l-53 -247h-197l-39 -181h154z" />
    <glyph glyph-name="Utilde" unicode="&#x168;" horiz-adv-x="1443" 
d="M1520 1462l-220 -1030q-97 -457 -638 -457q-114 0 -209 21t-170.5 63.5t-117.5 116t-42 170.5q0 67 14 135l209 981h348l-198 -936q-15 -69 -15 -106q0 -170 201 -170q121 0 188 52.5t93 174.5l208 985h349zM1243 1884h180q-59 -321 -252 -321q-77 0 -182 63
q-54 32 -79 42.5t-48 10.5q-70 0 -94 -118h-180q28 162 100.5 240.5t169.5 78.5q48 0 92.5 -16t104.5 -54q42 -27 63 -37t41 -10q37 0 54.5 29t29.5 92z" />
    <glyph glyph-name="utilde" unicode="&#x169;" horiz-adv-x="1277" 
d="M1049 0h-326l35 147h-4q-117 -172 -338 -172q-152 0 -236 90t-84 230q0 71 21 174l129 612h338l-115 -538q-27 -127 -27 -183q0 -133 127 -133q88 0 156.5 79.5t99.5 230.5l115 544h338zM1067 1559h180q-59 -322 -252 -322q-77 0 -182 63q-55 33 -79.5 43.5t-47.5 10.5
q-70 0 -94 -119h-180q28 162 100.5 240.5t169.5 78.5q49 0 93 -16t104 -53q42 -27 63 -37t41 -10q37 0 54.5 29t29.5 92z" />
    <glyph glyph-name="Umacron" unicode="&#x16a;" horiz-adv-x="1443" 
d="M1520 1462l-220 -1030q-97 -457 -638 -457q-114 0 -209 21t-170.5 63.5t-117.5 116t-42 170.5q0 67 14 135l209 981h348l-198 -936q-15 -69 -15 -106q0 -170 201 -170q121 0 188 52.5t93 174.5l208 985h349zM1317 1839l-45 -205h-608l45 205h608z" />
    <glyph glyph-name="umacron" unicode="&#x16b;" horiz-adv-x="1277" 
d="M1049 0h-326l35 147h-4q-117 -172 -338 -172q-152 0 -236 90t-84 230q0 71 21 174l129 612h338l-115 -538q-27 -127 -27 -183q0 -133 127 -133q88 0 156.5 79.5t99.5 230.5l115 544h338zM1149 1516l-45 -205h-608l45 205h608z" />
    <glyph glyph-name="Ubreve" unicode="&#x16c;" horiz-adv-x="1443" 
d="M1520 1462l-220 -1030q-97 -457 -638 -457q-114 0 -209 21t-170.5 63.5t-117.5 116t-42 170.5q0 67 14 135l209 981h348l-198 -936q-15 -69 -15 -106q0 -170 201 -170q121 0 188 52.5t93 174.5l208 985h349zM1167 1884h203q-27 -156 -122 -242t-259 -86q-90 0 -156 22.5
t-102 61t-52.5 82t-16.5 93.5q0 31 6 69h194q-4 -20 -4 -35q0 -102 127 -102q83 0 125 32t57 105z" />
    <glyph glyph-name="ubreve" unicode="&#x16d;" horiz-adv-x="1277" 
d="M1049 0h-326l35 147h-4q-117 -172 -338 -172q-152 0 -236 90t-84 230q0 71 21 174l129 612h338l-115 -538q-27 -127 -27 -183q0 -133 127 -133q88 0 156.5 79.5t99.5 230.5l115 544h338zM1001 1559h203q-27 -156 -122 -242t-259 -86q-90 0 -156 22t-102 60.5t-52.5 82
t-16.5 93.5q0 33 6 70h194q-4 -20 -4 -35q0 -103 127 -103q82 0 124.5 32.5t57.5 105.5z" />
    <glyph glyph-name="Uring" unicode="&#x16e;" horiz-adv-x="1443" 
d="M1520 1462l-220 -1030q-97 -457 -638 -457q-114 0 -209 21t-170.5 63.5t-117.5 116t-42 170.5q0 67 14 135l209 981h348l-198 -936q-15 -69 -15 -106q0 -170 201 -170q121 0 188 52.5t93 174.5l208 985h349zM981 1946q98 0 159.5 -62.5t61.5 -161.5q0 -100 -61.5 -160.5
t-161.5 -60.5q-95 0 -156 61t-61 160q0 95 62.5 159.5t156.5 64.5zM981 1833q-45 0 -73.5 -31.5t-28.5 -79.5q0 -49 28 -79.5t72 -30.5q46 0 76 30.5t30 77.5q0 49 -29.5 81t-74.5 32z" />
    <glyph glyph-name="uring" unicode="&#x16f;" horiz-adv-x="1277" 
d="M1049 0h-326l35 147h-4q-117 -172 -338 -172q-152 0 -236 90t-84 230q0 71 21 174l129 612h338l-115 -538q-27 -127 -27 -183q0 -133 127 -133q88 0 156.5 79.5t99.5 230.5l115 544h338zM827 1638q98 0 160 -62.5t62 -160.5q0 -99 -62 -160t-162 -61q-95 0 -156 61
t-61 160q0 95 62 159t157 64zM827 1526q-46 0 -74 -30.5t-28 -80.5q0 -49 28 -79.5t72 -30.5q46 0 76.5 30.5t30.5 77.5q0 50 -30 81.5t-75 31.5z" />
    <glyph glyph-name="Uhungarumlaut" unicode="&#x170;" horiz-adv-x="1443" 
d="M1520 1462l-220 -1030q-97 -457 -638 -457q-114 0 -209 21t-170.5 63.5t-117.5 116t-42 170.5q0 67 14 135l209 981h348l-198 -936q-15 -69 -15 -106q0 -170 201 -170q121 0 188 52.5t93 174.5l208 985h349zM1098 1870l-283 -307h-248l252 307h279zM1544 1870l-313 -307
h-262l276 307h299z" />
    <glyph glyph-name="uhungarumlaut" unicode="&#x171;" horiz-adv-x="1277" 
d="M1049 0h-326l35 147h-4q-117 -172 -338 -172q-152 0 -236 90t-84 230q0 71 21 174l129 612h338l-115 -538q-27 -127 -27 -183q0 -133 127 -133q88 0 156.5 79.5t99.5 230.5l115 544h338zM999 1573l-288 -336h-248l258 336h278zM1425 1573l-319 -336h-262l282 336h299z
" />
    <glyph glyph-name="Uogonek" unicode="&#x172;" horiz-adv-x="1443" 
d="M1520 1462l-220 -1030q-90 -424 -563 -455q-85 -73 -116 -113t-31 -69q0 -43 67 -43q37 0 107 15l-6 -164q-85 -25 -183 -25q-42 0 -78 7t-70 22.5t-53.5 46.5t-19.5 74q0 71 45 130.5t140 123.5q-124 13 -214.5 53.5t-146 119.5t-55.5 191q0 67 14 135l209 981h348
l-198 -936q-15 -69 -15 -106q0 -170 201 -170q121 0 188 52.5t93 174.5l208 985h349z" />
    <glyph glyph-name="uogonek" unicode="&#x173;" horiz-adv-x="1277" 
d="M1049 0h-131q-102 -86 -138.5 -130t-36.5 -75q0 -43 68 -43q37 0 107 15l-7 -164q-85 -25 -182 -25q-42 0 -78 7t-70 22.5t-53.5 46.5t-19.5 74q0 78 51.5 141t163.5 131l35 147h-4q-117 -172 -338 -172q-152 0 -236 90t-84 230q0 71 21 174l129 612h338l-115 -538
q-27 -127 -27 -183q0 -133 127 -133q88 0 156.5 79.5t99.5 230.5l115 544h338z" />
    <glyph glyph-name="Wcircumflex" unicode="&#x174;" horiz-adv-x="2027" 
d="M1073 0l76 1122h-4l-414 -1122h-500l25 1462h377l-72 -1145h4l393 1145h523l-103 -1145h4l418 1145h383l-606 -1462h-504zM1640 1563h-262l-94 174l-170 -174h-280l301 315h340z" />
    <glyph glyph-name="wcircumflex" unicode="&#x175;" horiz-adv-x="1810" 
d="M1264 1081l-15 -764h4l316 764h350l-510 -1081h-446l18 778h-4l-334 -778h-442l-27 1081h354l-30 -764h4l325 764h437zM1417 1237h-223l-74 205l-159 -205h-246l262 336h323z" />
    <glyph glyph-name="Ycircumflex" unicode="&#x176;" horiz-adv-x="1314" 
d="M371 0l112 537l-303 925h383l154 -585l432 585h416l-734 -925l-112 -537h-348zM1268 1563h-262l-95 174l-170 -174h-280l301 315h340z" />
    <glyph glyph-name="ycircumflex" unicode="&#x177;" horiz-adv-x="1173" 
d="M510 1081l6 -729h4l422 729h381l-961 -1480h-366l237 376l-77 1104h354zM1081 1237h-223l-74 205l-159 -205h-246l262 336h324z" />
    <glyph glyph-name="Ydieresis" unicode="&#x178;" horiz-adv-x="1314" 
d="M371 0l112 537l-303 925h383l154 -585l432 585h416l-734 -925l-112 -537h-348zM846 1874l-60 -277h-280l59 277h281zM1298 1874l-59 -277h-287l60 277h286z" />
    <glyph glyph-name="Zacute" unicode="&#x179;" horiz-adv-x="1241" 
d="M31 274l843 914h-614l59 274h1031l-60 -274l-827 -914h680l-58 -274h-1112zM1343 1870l-374 -307h-287l276 307h385z" />
    <glyph glyph-name="zacute" unicode="&#x17a;" horiz-adv-x="1054" 
d="M35 248l581 586h-436l53 247h848l-55 -247l-577 -586h507l-53 -248h-921zM1143 1573l-348 -336h-265l248 336h365z" />
    <glyph glyph-name="Zdotaccent" unicode="&#x17b;" horiz-adv-x="1241" 
d="M31 274l843 914h-614l59 274h1031l-60 -274l-827 -914h680l-58 -274h-1112zM1096 1876l-62 -287h-336l62 287h336z" />
    <glyph glyph-name="zdotaccent" unicode="&#x17c;" horiz-adv-x="1054" 
d="M35 248l581 586h-436l53 247h848l-55 -247l-577 -586h507l-53 -248h-921zM920 1559l-62 -291h-336l62 291h336z" />
    <glyph glyph-name="Zcaron" unicode="&#x17d;" horiz-adv-x="1241" 
d="M31 274l843 914h-614l59 274h1031l-60 -274l-827 -914h680l-58 -274h-1112zM526 1878h262l95 -174l170 174h280l-299 -315h-342z" />
    <glyph glyph-name="zcaron" unicode="&#x17e;" horiz-adv-x="1054" 
d="M35 248l581 586h-436l53 247h848l-55 -247l-577 -586h507l-53 -248h-921zM422 1573h223l74 -205l160 205h245l-262 -336h-323z" />
    <glyph glyph-name="florin" unicode="&#x192;" horiz-adv-x="1202" 
d="M-4 -242l63 256q66 -14 111 -14q53 0 81 30t48 97l162 539h-219l65 252h221l66 215q19 60 41 107.5t59 94.5t84.5 78t117.5 50.5t157 19.5q127 0 207 -27l-93 -256q-47 23 -108 23q-102 0 -150 -152l-47 -153h260l-65 -252h-260l-183 -592q-19 -63 -41.5 -111.5t-58 -93
t-81 -73t-111.5 -45.5t-148 -17q-96 0 -178 24z" />
    <glyph glyph-name="Scommaaccent" unicode="&#x218;" horiz-adv-x="1105" 
d="M1141 1417l-80 -270q-152 65 -322 65q-47 0 -87 -12t-70.5 -44t-30.5 -81q0 -56 34.5 -95t137.5 -103q82 -51 132.5 -90.5t96 -91.5t66 -114.5t20.5 -140.5q0 -98 -32 -177.5t-85.5 -132.5t-126 -88.5t-151 -51t-162.5 -15.5q-243 0 -463 80l88 277q208 -82 373 -82
q102 0 156.5 39t54.5 114q0 61 -40.5 107.5t-151.5 116.5q-160 100 -225.5 190.5t-65.5 226.5q0 93 32 169.5t84 126t121.5 83.5t142.5 49t148 15q240 0 406 -70zM623 -119l-293 -319h-244l205 319h332z" />
    <glyph glyph-name="scommaaccent" unicode="&#x219;" horiz-adv-x="980" 
d="M958 1047l-88 -244q-128 51 -256 51q-59 0 -95 -19t-36 -55q0 -28 27.5 -52.5t116.5 -70.5q143 -76 204.5 -150.5t61.5 -176.5q0 -80 -28 -142.5t-73.5 -102t-110 -65t-131.5 -35.5t-144 -10q-90 0 -196.5 17t-184.5 43l84 250q152 -58 290 -58q144 0 144 74q0 33 -32 62
t-126 75q-130 64 -186 137.5t-56 169.5q0 82 29.5 146t77 103.5t113 65.5t132 36t140.5 10q168 0 323 -59zM596 -119l-293 -319h-244l205 319h332z" />
    <glyph glyph-name="uni021A" unicode="&#x21a;" horiz-adv-x="1114" 
d="M285 0l250 1188h-361l59 274h1057l-59 -274h-348l-250 -1188h-348zM602 -119l-293 -319h-243l204 319h332z" />
    <glyph glyph-name="uni021B" unicode="&#x21b;" horiz-adv-x="770" 
d="M94 834l53 247h164l62 295h338l-62 -295h197l-53 -247h-197l-88 -414q-16 -69 -16 -101q0 -37 23.5 -53t74.5 -16q40 0 90 8l-53 -258q-102 -8 -160 -8q-170 0 -249 55.5t-79 175.5q0 47 17 127l102 484h-164zM588 -119l-293 -319h-244l205 319h332z" />
    <glyph glyph-name="dotlessj" unicode="&#x237;" horiz-adv-x="587" 
d="M600 1081l-235 -1106q-15 -72 -34.5 -124.5t-54.5 -102t-83 -80t-121 -49t-168 -18.5q-78 0 -150 10l35 250q44 -8 88 -8q70 0 105 39t53 124l227 1065h338z" />
    <glyph glyph-name="circumflex" unicode="&#x2c6;" horiz-adv-x="940" 
d="M969 1237h-224l-73 205l-160 -205h-246l262 336h324z" />
    <glyph glyph-name="caron" unicode="&#x2c7;" horiz-adv-x="940" 
d="M360 1573h224l73 -205l160 205h246l-262 -336h-324z" />
    <glyph glyph-name="uni02C9" unicode="&#x2c9;" horiz-adv-x="940" 
d="M1024 1649l-45 -205h-608l45 205h608z" />
    <glyph glyph-name="breve" unicode="&#x2d8;" horiz-adv-x="940" 
d="M838 1559h202q-27 -156 -122 -242t-259 -86q-90 0 -156 22t-102 60.5t-52.5 82t-16.5 93.5q0 33 6 70h194q-4 -20 -4 -35q0 -103 127 -103q83 0 125.5 32.5t57.5 105.5z" />
    <glyph glyph-name="dotaccent" unicode="&#x2d9;" horiz-adv-x="940" 
d="M874 1559l-61 -291h-336l62 291h335z" />
    <glyph glyph-name="ring" unicode="&#x2da;" horiz-adv-x="940" 
d="M678 1638q98 0 159.5 -62.5t61.5 -160.5q0 -100 -61.5 -160.5t-161.5 -60.5q-95 0 -156 61t-61 160q0 95 62 159t157 64zM678 1526q-46 0 -74.5 -31t-28.5 -80t28 -79.5t73 -30.5q46 0 76 30.5t30 77.5q0 50 -29.5 81.5t-74.5 31.5z" />
    <glyph glyph-name="ogonek" unicode="&#x2db;" horiz-adv-x="940" 
d="M358 14h191q-114 -94 -153.5 -140.5t-39.5 -78.5q0 -43 68 -43q36 0 106 15l-6 -164q-85 -25 -182 -25q-42 0 -78 7t-70 22.5t-53.5 46.5t-19.5 74q0 81 56 146t181 140z" />
    <glyph glyph-name="tilde" unicode="&#x2dc;" horiz-adv-x="940" 
d="M901 1559h180q-59 -322 -252 -322q-77 0 -182 63q-55 33 -79.5 43.5t-47.5 10.5q-70 0 -94 -119h-180q28 162 100.5 240.5t169.5 78.5q49 0 93 -16t104 -53q42 -27 63 -37t41 -10q37 0 54.5 29t29.5 92z" />
    <glyph glyph-name="hungarumlaut" unicode="&#x2dd;" horiz-adv-x="940" 
d="M803 1573l-289 -336h-248l258 336h279zM1229 1573l-320 -336h-262l283 336h299z" />
    <glyph glyph-name="uni0394" unicode="&#x394;" horiz-adv-x="1517" 
d="M2 0l53 256l727 1206h447l160 -1204l-52 -258h-1335zM449 285h581l-80 901z" />
    <glyph glyph-name="uni03A9" unicode="&#x3a9;" horiz-adv-x="1558" 
d="M31 0l59 274h264l8 31q-86 56 -144 162.5t-58 243.5q0 155 54.5 296t152 247.5t244 169.5t319.5 63q155 0 271 -40.5t185 -113.5t102.5 -166.5t33.5 -208.5q0 -214 -101 -385t-286 -276l-7 -23h287l-57 -274h-592l86 408q77 23 138 78t96.5 125t54 142.5t18.5 139.5
q0 144 -63 229.5t-203 85.5q-75 0 -139 -29.5t-109 -79.5t-77 -114.5t-47 -134t-15 -139.5q0 -111 36 -186.5t128 -118.5l-86 -406h-553z" />
    <glyph glyph-name="uni03BC" unicode="&#x3bc;" horiz-adv-x="1376" 
d="M-53 -399l315 1480h338l-121 -567q-20 -102 -20 -152q0 -66 29.5 -100.5t97.5 -34.5q83 0 153 76t103 234l114 544h338l-141 -665q-20 -92 -20 -113q0 -26 12 -39.5t43 -13.5q19 0 59 8l-51 -248q-62 -18 -139 -18q-205 0 -254 162h-4q-125 -179 -295 -179q-89 0 -129 35
h-4l-86 -409h-338z" />
    <glyph glyph-name="pi" unicode="&#x3c0;" horiz-adv-x="1429" 
d="M61 0l289 829h-205l54 252h1271l-53 -252h-205l-94 -436q-10 -48 -10 -74q0 -69 106 -69q32 0 82 8l-53 -258q-84 -8 -162 -8q-167 0 -241 57.5t-74 173.5q0 52 18 135l101 471h-211l-275 -829h-338z" />
    <glyph glyph-name="Wgrave" unicode="&#x1e80;" horiz-adv-x="2027" 
d="M1073 0l76 1122h-4l-414 -1122h-500l25 1462h377l-72 -1145h4l393 1145h523l-103 -1145h4l418 1145h383l-606 -1462h-504zM1174 1563l-265 307h344l164 -307h-243z" />
    <glyph glyph-name="wgrave" unicode="&#x1e81;" horiz-adv-x="1810" 
d="M1264 1081l-15 -764h4l316 764h350l-510 -1081h-446l18 778h-4l-334 -778h-442l-27 1081h354l-30 -764h4l325 764h437zM991 1237l-264 336h344l164 -336h-244z" />
    <glyph glyph-name="Wacute" unicode="&#x1e82;" horiz-adv-x="2027" 
d="M1073 0l76 1122h-4l-414 -1122h-500l25 1462h377l-72 -1145h4l393 1145h523l-103 -1145h4l418 1145h383l-606 -1462h-504zM1737 1870l-375 -307h-287l277 307h385z" />
    <glyph glyph-name="wacute" unicode="&#x1e83;" horiz-adv-x="1810" 
d="M1264 1081l-15 -764h4l316 764h350l-510 -1081h-446l18 778h-4l-334 -778h-442l-27 1081h354l-30 -764h4l325 764h437zM1540 1573l-348 -336h-264l248 336h364z" />
    <glyph glyph-name="Wdieresis" unicode="&#x1e84;" horiz-adv-x="2027" 
d="M1073 0l76 1122h-4l-414 -1122h-500l25 1462h377l-72 -1145h4l393 1145h523l-103 -1145h4l418 1145h383l-606 -1462h-504zM1221 1874l-60 -277h-280l59 277h281zM1673 1874l-59 -277h-287l59 277h287z" />
    <glyph glyph-name="wdieresis" unicode="&#x1e85;" horiz-adv-x="1810" 
d="M1264 1081l-15 -764h4l316 764h350l-510 -1081h-446l18 778h-4l-334 -778h-442l-27 1081h354l-30 -764h4l325 764h437zM1059 1546l-58 -266h-280l57 266h281zM1511 1546l-57 -266h-287l58 266h286z" />
    <glyph glyph-name="Ygrave" unicode="&#x1ef2;" horiz-adv-x="1314" 
d="M371 0l112 537l-303 925h383l154 -585l432 585h416l-734 -925l-112 -537h-348zM782 1563l-264 307h344l164 -307h-244z" />
    <glyph glyph-name="ygrave" unicode="&#x1ef3;" horiz-adv-x="1173" 
d="M510 1081l6 -729h4l422 729h381l-961 -1480h-366l237 376l-77 1104h354zM643 1237l-264 336h344l164 -336h-244z" />
    <glyph glyph-name="endash" unicode="&#x2013;" horiz-adv-x="1011" 
d="M1014 725l-49 -221h-914l49 221h914z" />
    <glyph glyph-name="emdash" unicode="&#x2014;" horiz-adv-x="1626" 
d="M1628 725l-49 -221h-1528l49 221h1528z" />
    <glyph glyph-name="quoteleft" unicode="&#x2018;" horiz-adv-x="614" 
d="M739 1505l-204 -522h-318l283 522h239z" />
    <glyph glyph-name="quoteright" unicode="&#x2019;" horiz-adv-x="614" 
d="M215 981l207 524h317l-284 -524h-240z" />
    <glyph glyph-name="quotesinglbase" unicode="&#x201a;" horiz-adv-x="616" 
d="M-63 -283l204 523h320l-285 -523h-239z" />
    <glyph glyph-name="quotedblleft" unicode="&#x201c;" horiz-adv-x="1038" 
d="M1163 1505l-205 -524h-299l265 524h239zM741 1505l-227 -524h-299l287 524h239z" />
    <glyph glyph-name="quotedblright" unicode="&#x201d;" horiz-adv-x="1038" 
d="M217 983l205 522h299l-264 -522h-240zM641 983l223 522h299l-282 -522h-240z" />
    <glyph glyph-name="quotedblbase" unicode="&#x201e;" horiz-adv-x="1038" 
d="M-63 -283l204 523h299l-264 -523h-239zM360 -283l224 523h299l-283 -523h-240z" />
    <glyph glyph-name="dagger" unicode="&#x2020;" horiz-adv-x="1046" 
d="M872 1368l-71 -342h317l-49 -229h-317l-222 -1045h-290l221 1045h-322l49 229h322l72 342h290z" />
    <glyph glyph-name="daggerdbl" unicode="&#x2021;" horiz-adv-x="1046" 
d="M868 1368l-71 -342h317l-49 -229h-317l-103 -482h318l-50 -229h-317l-70 -334h-290l69 334h-319l47 229h321l103 482h-322l49 229h322l72 342h290z" />
    <glyph glyph-name="bullet" unicode="&#x2022;" horiz-adv-x="940" 
d="M195 674q0 140 98 239t237 99q141 0 239.5 -99t98.5 -239t-98.5 -238t-239.5 -98q-139 0 -237 98t-98 238z" />
    <glyph glyph-name="ellipsis" unicode="&#x2026;" horiz-adv-x="1978" 
d="M39 0l80 379h368l-79 -379h-369zM702 0l80 379h369l-80 -379h-369zM1366 0l80 379h369l-80 -379h-369z" />
    <glyph glyph-name="perthousand" unicode="&#x2030;" horiz-adv-x="2531" 
d="M463 645q-127 0 -198.5 79t-71.5 212q0 102 25 194.5t73 169t128.5 121.5t182.5 45q127 0 198.5 -79t71.5 -211q0 -102 -25 -195t-73 -169t-128.5 -121.5t-182.5 -45.5zM492 860q32 0 57.5 35t39.5 85t21.5 97t7.5 80q0 47 -10 69.5t-37 22.5q-31 0 -56.5 -35.5
t-39.5 -86.5t-21.5 -97.5t-7.5 -77.5q0 -92 46 -92zM1305 0q-127 0 -199 79.5t-72 211.5q0 102 25 194.5t73.5 169t129 121.5t182.5 45q127 0 198.5 -79t71.5 -212q0 -102 -25 -194.5t-73 -169t-128.5 -121.5t-182.5 -45zM1333 215q32 0 57.5 35t40 85t22 97t7.5 80
q0 47 -10 69.5t-37 22.5q-31 0 -56.5 -35.5t-39.5 -86.5t-21.5 -97.5t-7.5 -77.5q0 -92 45 -92zM1645 1462l-1129 -1462h-258l1133 1462h254zM2054 0q-127 0 -198.5 79t-71.5 212q0 102 25 194.5t73 169t128.5 121.5t182.5 45q127 0 199 -79.5t72 -211.5q0 -102 -25 -194.5
t-73.5 -169t-129 -121.5t-182.5 -45zM2083 215q32 0 57.5 35t40 85t22 97t7.5 80q0 47 -10 69.5t-37 22.5q-31 0 -56.5 -35.5t-39.5 -86.5t-21.5 -97.5t-7.5 -77.5q0 -92 45 -92z" />
    <glyph glyph-name="guilsinglleft" unicode="&#x2039;" horiz-adv-x="743" 
d="M770 1047l-350 -441l149 -432h-256l-170 459l2 10l326 404h299z" />
    <glyph glyph-name="guilsinglright" unicode="&#x203a;" horiz-adv-x="743" 
d="M35 174l350 440l-149 433h256l170 -459l-3 -10l-325 -404h-299z" />
    <glyph glyph-name="fraction" unicode="&#x2044;" horiz-adv-x="247" 
d="M817 1462l-1128 -1462h-258l1132 1462h254z" />
    <glyph glyph-name="zero.superior" unicode="&#x2070;" 
d="M649 1769q145 0 214 -82t69 -227q0 -81 -13 -161t-44.5 -160t-78.5 -140.5t-121 -98.5t-165 -38q-141 0 -214 86t-73 228q0 79 14 158t46.5 158.5t80 140t121.5 98.5t164 38zM629 1581q-56 0 -99.5 -72t-63.5 -165t-20 -179q0 -114 80 -114q44 0 81 43t58 108t32.5 133
t11.5 127q0 119 -80 119z" />
    <glyph glyph-name="four.superior" unicode="&#x2074;" 
d="M936 1753l-113 -532h86l-39 -179h-86l-34 -165h-222l35 165h-383l45 220l412 491h299zM602 1221l66 311h-4l-234 -311h172z" />
    <glyph glyph-name="five.superior" unicode="&#x2075;" 
d="M467 1049q71 0 118.5 29t47.5 87q0 53 -44 76t-130 23q-65 0 -162 -11l139 502h500l-39 -184h-303l-45 -144q34 3 47 3q120 0 191 -62t71 -174q0 -159 -104.5 -245.5t-272.5 -86.5q-155 0 -284 60l65 174q39 -20 96 -33.5t109 -13.5z" />
    <glyph glyph-name="six.superior" unicode="&#x2076;" 
d="M725 1581q-160 0 -231 -164h2q70 49 155 49q118 0 179 -65.5t61 -167.5q0 -160 -100.5 -265.5t-272.5 -105.5q-78 0 -137.5 26.5t-93.5 71t-51 97.5t-17 112q0 80 18 161.5t58 161t97.5 140.5t143.5 99t189 38q91 0 174 -22l-53 -182q-59 16 -121 16zM580 1298
q-62 0 -103 -42t-41 -105q0 -44 23 -74t73 -30q65 0 102.5 47t37.5 112q0 39 -24 65.5t-68 26.5z" />
    <glyph glyph-name="seven.superior" unicode="&#x2077;" 
d="M332 1569l39 186h608l-39 -186q-267 -302 -371 -692h-245q51 185 142 367.5t220 324.5h-354z" />
    <glyph glyph-name="eight.superior" unicode="&#x2078;" 
d="M653 1769q126 0 207.5 -62t81.5 -165q0 -157 -145 -221q96 -60 96 -170q0 -140 -106.5 -214.5t-270.5 -74.5q-136 0 -225.5 64t-89.5 178q0 88 48.5 146t127.5 87q-72 56 -72 154q0 134 99.5 206t248.5 72zM557 1237q-52 0 -93.5 -31.5t-41.5 -77.5q0 -40 29.5 -63
t83.5 -23q56 0 95.5 29.5t39.5 75.5q0 40 -29.5 65t-83.5 25zM608 1413q53 0 89 31t36 74q0 35 -27 56t-71 21q-49 0 -86 -27.5t-37 -70.5q0 -38 27 -61t69 -23z" />
    <glyph glyph-name="nine.superior" unicode="&#x2079;" 
d="M432 1047q164 0 234 163q-68 -51 -152 -51q-118 0 -184 70t-66 174q0 160 100 263t273 103q78 0 138 -26.5t94.5 -71t51.5 -97.5t17 -112q0 -80 -17 -161t-56.5 -160.5t-96.5 -141t-144 -99.5t-192 -38q-87 0 -174 23l53 178q49 -16 121 -16zM582 1331q59 0 99 43t40 105
q0 43 -23.5 73.5t-74.5 30.5q-65 0 -101.5 -48t-36.5 -112q0 -37 25.5 -64.5t71.5 -27.5z" />
    <glyph glyph-name="zero.inferior" unicode="&#x2080;" 
d="M403 606q145 0 214 -82t69 -227q0 -81 -13 -161t-44.5 -160t-78.5 -140.5t-121 -98.5t-165 -38q-141 0 -214 85.5t-73 227.5q0 79 14 158t46.5 158.5t80 140.5t121.5 99t164 38zM383 418q-56 0 -99.5 -72t-63 -165t-19.5 -179q0 -115 80 -115q44 0 80.5 43t57.5 108.5
t32.5 133.5t11.5 127q0 119 -80 119z" />
    <glyph glyph-name="one.inferior" unicode="&#x2081;" 
d="M590 590l-184 -877h-236l139 660l-164 -74l-36 176l247 115h234z" />
    <glyph glyph-name="two.inferior" unicode="&#x2082;" 
d="M592 -100l-39 -187h-610l37 185q200 138 296.5 215.5t131 125t34.5 95.5q0 39 -27 61.5t-77 22.5q-88 0 -193 -43l-36 168q58 29 132.5 46t141.5 17q130 0 208.5 -63t78.5 -181q0 -53 -16 -100t-43.5 -87t-79.5 -86.5t-107 -87.5t-143 -101h311z" />
    <glyph glyph-name="three.inferior" unicode="&#x2083;" 
d="M127 68l39 182h88q180 0 180 100q0 72 -104 72q-90 0 -191 -37l-16 178q111 43 250 43q122 0 203 -57t81 -170q0 -78 -34.5 -132t-116.5 -85q92 -51 92 -164q0 -77 -30.5 -135.5t-84.5 -93.5t-121.5 -52.5t-146.5 -17.5q-142 0 -262 57l67 172q102 -45 193 -45
q69 0 115.5 25t46.5 78q0 82 -162 82h-86z" />
    <glyph glyph-name="four.inferior" unicode="&#x2084;" 
d="M690 590l-112 -533h86l-39 -178h-86l-35 -166h-221l34 166h-383l46 219l411 492h299zM356 57l66 312h-4l-234 -312h172z" />
    <glyph glyph-name="five.inferior" unicode="&#x2085;" 
d="M221 -115q70 0 118 29.5t48 87.5q0 53 -44 75.5t-130 22.5q-74 0 -162 -10l139 502h500l-39 -184h-303l-45 -144q23 2 47 2q121 0 191.5 -61.5t70.5 -173.5q0 -159 -104.5 -245.5t-271.5 -86.5q-158 0 -285 59l65 174q39 -20 96 -33.5t109 -13.5z" />
    <glyph glyph-name="six.inferior" unicode="&#x2086;" 
d="M479 418q-160 0 -231 -164h2q70 49 156 49q118 0 178.5 -65t60.5 -168q0 -160 -100.5 -265.5t-272.5 -105.5q-78 0 -137.5 26.5t-93.5 71t-51 97.5t-17 112q0 80 18 161.5t58 161t97.5 140.5t143.5 99t189 38q91 0 174 -22l-53 -183q-63 17 -121 17zM334 135
q-62 0 -103 -42t-41 -105q0 -44 23.5 -74.5t73.5 -30.5q64 0 101.5 47.5t37.5 112.5q0 39 -24 65.5t-68 26.5z" />
    <glyph glyph-name="seven.inferior" unicode="&#x2087;" 
d="M86 406l39 186h608l-39 -186q-265 -300 -370 -693h-246q51 185 142 368t220 325h-354z" />
    <glyph glyph-name="eight.inferior" unicode="&#x2088;" 
d="M408 606q126 0 207 -62t81 -165q0 -157 -145 -221q96 -60 96 -170q0 -140 -106.5 -214.5t-270.5 -74.5q-136 0 -225.5 64t-89.5 178q0 88 48.5 146t127.5 87q-72 56 -72 154q0 134 100 206t249 72zM311 74q-52 0 -93.5 -31.5t-41.5 -77.5q0 -40 29.5 -63t83.5 -23
q56 0 95.5 29.5t39.5 75.5q0 40 -29.5 65t-83.5 25zM362 250q53 0 89 30.5t36 73.5q0 35 -27 56.5t-71 21.5q-49 0 -86 -27.5t-37 -70.5q0 -38 27 -61t69 -23z" />
    <glyph glyph-name="nine.inferior" unicode="&#x2089;" 
d="M186 -117q163 0 234 164q-68 -51 -152 -51q-118 0 -184 70t-66 174q0 160 100 263t273 103q78 0 138 -26.5t94.5 -71t51.5 -97.5t17 -112q0 -80 -17 -161t-56.5 -160.5t-96.5 -141t-144 -99.5t-192 -38q-91 0 -174 22l54 179q52 -17 120 -17zM336 168q60 0 99.5 42.5
t39.5 104.5q0 43 -23.5 74t-74.5 31q-65 0 -101 -48t-36 -112q0 -37 25 -64.5t71 -27.5z" />
    <glyph glyph-name="Euro" unicode="&#x20ac;" horiz-adv-x="1318" 
d="M135 705h131q4 41 19 98h-189l78 198h150q93 223 282.5 354.5t452.5 131.5q197 0 319 -45l-110 -279q-81 37 -209 37q-251 0 -361 -199h519l-74 -198h-504q-15 -50 -18 -98h481l-74 -199h-401q20 -119 104 -185.5t238 -66.5q106 0 198 25l15 -271q-109 -33 -285 -33
q-279 0 -441.5 143.5t-191.5 387.5h-207z" />
    <glyph glyph-name="afii61248" unicode="&#x2105;" horiz-adv-x="1609" 
d="M758 1468l-45 -165q-41 14 -88 14q-88 0 -137.5 -65t-49.5 -160q0 -56 30.5 -89.5t94.5 -33.5q43 0 96 20v-170q-70 -22 -143 -22q-149 0 -224 79.5t-75 198.5q0 176 112 293t302 117q61 0 127 -17zM1522 1462l-1129 -1462h-258l1133 1462h254zM1526 397
q0 -85 -25 -160.5t-72 -135t-122 -94t-168 -34.5q-147 0 -226 76t-79 195q0 182 106.5 300t290.5 118q138 0 216.5 -74.5t78.5 -190.5zM1149 141q51 0 88 41t52.5 91.5t15.5 97.5q0 123 -93 123q-69 0 -113 -68.5t-44 -155.5q0 -129 94 -129z" />
    <glyph glyph-name="afii61289" unicode="&#x2113;" horiz-adv-x="948" 
d="M86 485q50 7 84 17q15 110 63 334q75 363 189 516t311 153q149 0 226 -77t77 -211q0 -239 -157 -474.5t-420 -380.5q5 -120 147 -120q76 0 164 30l-37 -247q-115 -37 -221 -37q-291 0 -340 260q-106 -23 -141 -27zM520 764l-18 -88q123 106 193.5 245.5t70.5 272.5
q0 31 -11 49.5t-32 18.5q-54 0 -100.5 -118t-102.5 -380z" />
    <glyph glyph-name="trademark" unicode="&#x2122;" horiz-adv-x="1892" 
d="M893 1462v-159h-211v-625h-201v625h-215v159h627zM1864 1462v-784h-201v584h-4l-152 -584h-198l-152 584h-4v-584h-182v784h309l129 -551h4l127 551h324z" />
    <glyph glyph-name="Omega" unicode="&#x2126;" horiz-adv-x="1558" 
d="M31 0l59 274h264l8 31q-86 56 -144 162.5t-58 243.5q0 155 54.5 296t152 247.5t244 169.5t319.5 63q155 0 271 -40.5t185 -113.5t102.5 -166.5t33.5 -208.5q0 -214 -101 -385t-286 -276l-7 -23h287l-57 -274h-592l86 408q77 23 138 78t96.5 125t54 142.5t18.5 139.5
q0 144 -63 229.5t-203 85.5q-75 0 -139 -29.5t-109 -79.5t-77 -114.5t-47 -134t-15 -139.5q0 -111 36 -186.5t128 -118.5l-86 -406h-553z" />
    <glyph glyph-name="estimated" unicode="&#x212e;" horiz-adv-x="1611" 
d="M1327 258h129q-54 -61 -110 -107t-132 -87.5t-174 -64t-213 -22.5q-113 0 -218.5 29t-195 87t-157 138.5t-105.5 189.5t-38 234q0 120 39.5 229t111 193t166 146.5t208 95.5t234.5 33q141 0 261.5 -39.5t204.5 -106.5t143.5 -155.5t87.5 -186t28 -198.5v-7h-1167l-16 -20
v-436q175 -158 426 -158q295 0 487 213zM1282 727l16 18v390q-92 86 -196.5 117.5t-229.5 31.5q-282 0 -458 -166v-373l16 -18h852z" />
    <glyph glyph-name="partialdiff" unicode="&#x2202;" horiz-adv-x="1298" 
d="M819 895q-72 121 -232.5 232.5t-342.5 177.5l200 184q117 -40 224.5 -98t210.5 -142t178 -183t120.5 -228t45.5 -271q0 -146 -44.5 -260.5t-122.5 -185.5t-179 -107.5t-220 -36.5q-245 0 -396.5 134.5t-151.5 363.5q0 220 131 347.5t338 127.5q152 0 239 -55h2zM676 731
q-114 0 -174 -70t-60 -186q0 -108 59 -177t165 -69q96 0 161.5 67t65.5 187q0 121 -60.5 184.5t-156.5 63.5z" />
    <glyph glyph-name="Delta" unicode="&#x2206;" horiz-adv-x="1517" 
d="M2 0l53 256l727 1206h447l160 -1204l-52 -258h-1335zM449 285h581l-80 901z" />
    <glyph glyph-name="product" unicode="&#x220f;" horiz-adv-x="1480" 
d="M203 -399v1861h1200v-1861h-346v1587h-508v-1587h-346z" />
    <glyph glyph-name="summation" unicode="&#x2211;" horiz-adv-x="1353" 
d="M1012 559l-492 -684h811v-274h-1220v270l497 678l-465 639v274h1162v-274h-750z" />
    <glyph glyph-name="minus" unicode="&#x2212;" horiz-adv-x="1146" 
d="M1124 524h-1013v242h1013v-242z" />
    <glyph glyph-name="uni2215" unicode="&#x2215;" horiz-adv-x="247" 
d="M817 1462l-1128 -1462h-258l1132 1462h254z" />
    <glyph glyph-name="uni2219" unicode="&#x2219;" horiz-adv-x="651" 
d="M129 426l80 379h369l-80 -379h-369z" />
    <glyph glyph-name="radical" unicode="&#x221a;" horiz-adv-x="1251" 
d="M528 543l181 -686h4l286 1605h318l-365 -1861h-467l-194 671h-217v271h454z" />
    <glyph glyph-name="infinity" unicode="&#x221e;" horiz-adv-x="1843" 
d="M788 526q-44 112 -97.5 167t-131.5 55q-85 0 -130.5 -63.5t-45.5 -156.5q0 -90 44.5 -144t125.5 -54q148 0 235 196zM932 260q-72 -107 -175.5 -163t-219.5 -56q-209 0 -324 133.5t-115 353.5q0 230 115.5 366t329.5 136q135 0 232.5 -52.5t174.5 -170.5q75 109 179 165
t221 56q208 0 322 -134t114 -353q0 -230 -115 -366t-328 -136q-134 0 -233.5 53.5t-177.5 167.5zM1096 543q45 -112 98.5 -166.5t132.5 -54.5q85 0 130.5 63.5t45.5 155.5q0 89 -44.5 143.5t-125.5 54.5q-146 0 -237 -196z" />
    <glyph glyph-name="integral" unicode="&#x222b;" horiz-adv-x="868" 
d="M334 -25v1129q0 166 99 262t315 96q84 0 163 -12l-22 -248q-33 8 -92 8q-127 0 -127 -125v-1130q0 -166 -100 -261t-316 -95q-82 0 -164 12l23 248q39 -9 92 -9q129 0 129 125z" />
    <glyph glyph-name="approxequal" unicode="&#x2248;" horiz-adv-x="1146" 
d="M872 936q148 5 240 111v-269q-104 -96 -268 -96q-55 0 -107.5 14.5t-94 35t-81.5 40.5t-87 34.5t-95 14.5q-158 0 -254 -110v268q99 96 272 96q56 0 109 -14.5t95 -35t82.5 -40.5t89.5 -34.5t99 -14.5zM872 455q149 5 240 110v-268q-104 -96 -268 -96q-55 0 -107.5 14.5
t-94 34.5t-81.5 40.5t-87 35t-95 14.5q-158 0 -254 -111v269q99 96 272 96q56 0 109 -14.5t95 -35t82.5 -40.5t89.5 -34.5t99 -14.5z" />
    <glyph glyph-name="notequal" unicode="&#x2260;" horiz-adv-x="1146" 
d="M111 741v242h538l117 238h274l-118 -238h202v-242h-321l-96 -196h417v-242h-538l-115 -231h-272l114 231h-202v242h321l98 196h-419z" />
    <glyph glyph-name="lessequal" unicode="&#x2264;" horiz-adv-x="1146" 
d="M1126 987l-757 -190v-4l757 -199v-254l-1015 278v345l1015 278v-254zM111 63v242h1013v-242h-1013z" />
    <glyph glyph-name="greaterequal" unicode="&#x2265;" horiz-adv-x="1146" 
d="M868 797l-757 190v254l1015 -278v-345l-1015 -278v254l757 199v4zM1126 305v-242h-1013v242h1013z" />
    <glyph glyph-name="lozenge" unicode="&#x25ca;" horiz-adv-x="1153" 
d="M1096 666l-332 -666h-275l-331 666l331 665h275zM516 831l-74 -165l74 -170q21 -47 60 -147t47 -134h4q7 34 43.5 129t62.5 154l74 168l-72 165q-93 211 -108 283h-4q-10 -35 -48.5 -136t-58.5 -147z" />
    <glyph glyph-name="f_i" unicode="&#xf001;" horiz-adv-x="1261" 
d="M1266 1477l-56 -252q-32 6 -126 14t-164 8q-154 0 -220 -34t-82 -111l-4 -21h660l-230 -1081h-337l176 834h-312l-176 -834h-338l176 834h-161l53 247h154l8 35q22 94 61 161.5t108 121t179.5 80t263.5 26.5q213 0 367 -28z" />
    <glyph glyph-name="f_l" unicode="&#xf002;" horiz-adv-x="1261" 
d="M279 1081l8 35q22 94 61 161.5t108 121t179.5 80t263.5 26.5q252 0 457 -41l-312 -1464h-337l264 1243q-24 4 -64 4q-143 0 -208.5 -34.5t-80.5 -110.5l-4 -21h215l-53 -247h-205l-176 -834h-338l176 834h-161l53 247h154z" />
    <glyph glyph-name="uniF8FF" unicode="&#xf8ff;" horiz-adv-x="1048" 
d="M637 240h-115v137h115v-137zM623 479h-95l-4 35q0 114 27 166q29 56 94 121q63 60 83 95t20 75q0 73 -46 123.5t-110 50.5q-67 0 -112 -47.5t-56 -147.5l-102 17q13 141 87 210.5t189 69.5q110 0 182 -74t72 -194q0 -69 -27 -123t-102 -123q-77 -68 -88 -106
q-12 -41 -12 -148zM170 102h844v1264h-844v-1264zM68 1470h1048v-1470h-1048v1470z" />
    <glyph glyph-name="commaaccent" horiz-adv-x="940" 
d="M604 -119l-293 -319h-243l204 319h332z" />
    <glyph glyph-name="zero.denominator" 
d="M465 893q145 0 214 -82t69 -227q0 -81 -13 -161t-44.5 -160t-78.5 -140.5t-121 -98.5t-165 -38q-141 0 -214 85.5t-73 227.5q0 79 14 158t46.5 158.5t80 140.5t121.5 99t164 38zM444 705q-56 0 -99.5 -72t-63 -165t-19.5 -179q0 -115 80 -115q44 0 80.5 43t57.5 108.5
t32.5 133.5t11.5 127q0 119 -80 119z" />
    <glyph glyph-name="one.denominator" 
d="M651 877l-184 -877h-236l140 659l-164 -73l-37 176l248 115h233z" />
    <glyph glyph-name="two.denominator" 
d="M653 186l-39 -186h-610l37 184q200 138 297 216t131.5 125.5t34.5 95.5q0 39 -27.5 61.5t-77.5 22.5q-87 0 -192 -43l-37 167q58 29 133 46.5t141 17.5q130 0 208.5 -63t78.5 -181q0 -66 -22 -121t-75.5 -111.5t-117.5 -106t-174 -124.5h311z" />
    <glyph glyph-name="three.denominator" 
d="M188 354l39 183h88q181 0 181 100q0 72 -105 72q-89 0 -190 -37l-17 178q111 43 250 43q122 0 203.5 -57t81.5 -170q0 -78 -35 -132t-117 -85q92 -51 92 -164q0 -77 -30.5 -135.5t-84.5 -93.5t-121.5 -52.5t-146.5 -17.5q-142 0 -262 57l68 172q102 -45 192 -45
q69 0 115.5 24.5t46.5 77.5q0 82 -162 82h-86z" />
    <glyph glyph-name="four.denominator" 
d="M752 877l-113 -533h86l-39 -178h-86l-35 -166h-221l35 166h-383l45 219l412 492h299zM418 344l65 311h-4l-233 -311h172z" />
    <glyph glyph-name="five.denominator" 
d="M283 172q70 0 118 29.5t48 87.5q0 53 -44.5 75.5t-130.5 22.5q-73 0 -161 -10l139 502h500l-39 -185h-303l-45 -143q23 2 47 2q120 0 191 -62t71 -174q0 -159 -104.5 -245t-272.5 -86q-158 0 -285 59l66 174q39 -20 96 -33.5t109 -13.5z" />
    <glyph glyph-name="six.denominator" 
d="M541 705q-161 0 -232 -164h2q70 49 156 49q118 0 179 -65.5t61 -168.5q0 -160 -100.5 -265t-272.5 -105q-78 0 -137.5 26.5t-93.5 71t-51 97.5t-17 112q0 80 18 161.5t58 161t97.5 140.5t143.5 99t189 38q87 0 174 -23l-53 -182q-63 17 -121 17zM395 422
q-61 0 -102 -42.5t-41 -105.5q0 -44 23 -74t73 -30q64 0 101.5 47.5t37.5 112.5q0 39 -24 65.5t-68 26.5z" />
    <glyph glyph-name="seven.denominator" 
d="M147 692l39 187h609l-39 -187q-267 -302 -371 -692h-246q51 184 142.5 367t220.5 325h-355z" />
    <glyph glyph-name="eight.denominator" 
d="M469 893q126 0 207.5 -62t81.5 -165q0 -158 -146 -222q97 -60 97 -170q0 -140 -106.5 -214t-270.5 -74q-137 0 -226.5 63.5t-89.5 177.5q0 88 49 146.5t128 87.5q-72 56 -72 153q0 134 99.5 206.5t248.5 72.5zM373 360q-52 0 -93.5 -31t-41.5 -77q0 -40 29.5 -63
t82.5 -23q56 0 95.5 29t39.5 75q0 40 -29 65t-83 25zM424 537q53 0 89 30.5t36 73.5q0 35 -27 56.5t-71 21.5q-49 0 -86 -27.5t-37 -70.5q0 -38 27 -61t69 -23z" />
    <glyph glyph-name="nine.denominator" 
d="M248 170q162 0 233 164q-68 -51 -151 -51q-118 0 -184 69.5t-66 173.5q0 160 100 263.5t273 103.5q78 0 138 -26.5t94.5 -71t51.5 -97.5t17 -112q0 -80 -17 -161t-56.5 -160.5t-96.5 -141t-144 -99.5t-192 -38q-91 0 -174 22l53 178q49 -16 121 -16zM397 455
q60 0 100 42.5t40 104.5q0 43 -24 74t-75 31q-65 0 -101 -48t-36 -112q0 -37 25 -64.5t71 -27.5z" />
    <glyph glyph-name="zero.numerator" 
d="M588 1483q145 0 213.5 -82t68.5 -227q0 -81 -13 -161t-44.5 -160t-78 -141t-120.5 -99t-165 -38q-141 0 -214 86t-73 228q0 79 14 158t46.5 158.5t80 140.5t121.5 99t164 38zM567 1294q-56 0 -99.5 -72t-63 -164.5t-19.5 -178.5q0 -115 80 -115q44 0 80.5 43t57.5 108.5
t32.5 133.5t11.5 127q0 118 -80 118z" />
    <glyph glyph-name="one.numerator" 
d="M774 1466l-184 -876h-236l140 659l-164 -73l-37 176l248 114h233z" />
    <glyph glyph-name="two.numerator" 
d="M776 776l-39 -186h-610l37 184q200 138 296.5 215.5t131.5 125t35 95.5q0 39 -27.5 61.5t-77.5 22.5q-87 0 -192 -43l-37 168q58 29 133 46.5t141 17.5q130 0 208.5 -63t78.5 -181q0 -66 -22 -121t-75.5 -111.5t-117.5 -106t-174 -124.5h311z" />
    <glyph glyph-name="three.numerator" 
d="M311 944l39 182h88q180 0 180 101q0 71 -104 71q-91 0 -190 -36l-17 178q111 43 250 43q122 0 203.5 -57.5t81.5 -170.5q0 -78 -35 -132t-117 -85q92 -51 92 -164q0 -77 -30.5 -135.5t-84.5 -93.5t-121.5 -52.5t-146.5 -17.5q-140 0 -262 58l68 172q102 -45 192 -45
q69 0 115.5 24.5t46.5 77.5q0 82 -162 82h-86z" />
    <glyph glyph-name="four.numerator" 
d="M874 1466l-112 -532h86l-39 -178h-86l-35 -166h-221l35 166h-383l45 219l411 491h299zM541 934l65 311h-4l-233 -311h172z" />
    <glyph glyph-name="five.numerator" 
d="M406 762q70 0 117.5 29.5t47.5 87.5q0 53 -44 75.5t-130 22.5q-73 0 -161 -10l139 501h499l-38 -184h-304l-45 -143q23 2 48 2q120 0 191 -62t71 -174q0 -159 -104.5 -245.5t-272.5 -86.5q-156 0 -285 60l66 174q39 -20 96 -33.5t109 -13.5z" />
    <glyph glyph-name="six.numerator" 
d="M664 1294q-161 0 -232 -164h2q72 50 156 50q117 0 178 -65.5t61 -168.5q0 -160 -100 -265.5t-272 -105.5q-78 0 -137.5 26.5t-93.5 71.5t-51 98t-17 112q0 80 18 161.5t58 161t97.5 140.5t143.5 99t189 38q87 0 174 -23l-54 -182q-59 16 -120 16zM518 1012
q-61 0 -102 -42.5t-41 -105.5q0 -44 23 -74t73 -30q64 0 101.5 47.5t37.5 112.5q0 39 -24 65.5t-68 26.5z" />
    <glyph glyph-name="seven.numerator" 
d="M270 1282l39 186h609l-39 -186q-267 -302 -371 -692h-246q51 184 142.5 367t220.5 325h-355z" />
    <glyph glyph-name="eight.numerator" 
d="M592 1483q126 0 207.5 -62.5t81.5 -165.5q0 -157 -146 -221q96 -60 96 -170q0 -140 -106 -214.5t-270 -74.5q-136 0 -226 64t-90 178q0 88 48.5 146.5t127.5 87.5q-71 55 -71 153q0 134 99.5 206.5t248.5 72.5zM496 950q-52 0 -94 -31t-42 -77q0 -40 29.5 -63t83.5 -23
q56 0 95.5 29t39.5 75q0 40 -29 65t-83 25zM547 1126q53 0 89 31t36 74q0 35 -27.5 56.5t-71.5 21.5q-49 0 -85.5 -28t-36.5 -71q0 -38 27 -61t69 -23z" />
    <glyph glyph-name="nine.numerator" 
d="M371 760q162 0 233 164q-70 -52 -151 -52q-118 0 -184 70t-66 174q0 160 100 263.5t272 103.5q78 0 138 -26.5t95 -71t52 -97.5t17 -112q0 -80 -17 -161t-56.5 -161t-96.5 -141.5t-144 -99.5t-192 -38q-87 0 -174 23l53 178q49 -16 121 -16zM520 1044q59 0 99 43t40 105
q0 43 -23.5 73.5t-74.5 30.5q-65 0 -101 -47.5t-36 -111.5q0 -37 25 -65t71 -28z" />
    <glyph glyph-name="acute.cap" horiz-adv-x="940" 
d="M1153 1870l-375 -307h-286l276 307h385z" />
    <glyph glyph-name="breve.cap" horiz-adv-x="940" 
d="M897 1884h203q-27 -156 -122 -242t-259 -86q-72 0 -129.5 15t-94 40t-60.5 59t-34 70t-10 75q0 31 6 69h195q-4 -20 -4 -35q0 -102 127 -102q83 0 125 32t57 105z" />
    <glyph glyph-name="caron.alt" horiz-adv-x="940" 
d="M805 1573l-146 -336h-188l100 336h234z" />
    <glyph glyph-name="caron.cap" horiz-adv-x="940" 
d="M352 1878h262l95 -174l170 174h280l-299 -315h-342z" />
    <glyph glyph-name="circumflex.cap" horiz-adv-x="940" 
d="M1073 1563h-262l-94 174l-170 -174h-281l301 315h340z" />
    <glyph glyph-name="commaaccent.alt" horiz-adv-x="940" 
d="M387 1237l295 336h244l-207 -336h-332z" />
    <glyph glyph-name="dieresis.cap" horiz-adv-x="940" 
d="M670 1874l-60 -277h-280l59 277h281zM1122 1874l-59 -277h-287l60 277h286z" />
    <glyph glyph-name="dotaccent.cap" horiz-adv-x="940" 
d="M922 1876l-62 -287h-336l62 287h336z" />
    <glyph glyph-name="grave.cap" horiz-adv-x="940" 
d="M584 1563l-265 307h345l163 -307h-243z" />
    <glyph glyph-name="hungarumlaut.cap" horiz-adv-x="940" 
d="M836 1870l-283 -307h-248l252 307h279zM1282 1870l-313 -307h-262l276 307h299z" />
    <glyph glyph-name="macron.cap" horiz-adv-x="940" 
d="M1047 1839l-46 -205h-608l45 205h609z" />
    <glyph glyph-name="ring.cap" horiz-adv-x="940" 
d="M709 1946q98 0 159.5 -62.5t61.5 -161.5q0 -100 -61.5 -160.5t-161.5 -60.5q-95 0 -156.5 61t-61.5 160q0 95 62.5 159.5t157.5 64.5zM709 1833q-45 0 -74 -31.5t-29 -79.5q0 -49 28 -79.5t73 -30.5q46 0 76 30.5t30 77.5q0 49 -29.5 81t-74.5 32z" />
    <glyph glyph-name="tilde.cap" horiz-adv-x="940" 
d="M967 1884h180q-59 -321 -252 -321q-77 0 -182 63q-54 32 -79 42.5t-48 10.5q-70 0 -94 -118h-181q28 162 101 240.5t170 78.5q48 0 92 -16t104 -54q41 -27 62.5 -37t42.5 -10q37 0 54.5 29t29.5 92z" />
    <glyph glyph-name="registered.alt1" horiz-adv-x="1626" 
d="M553 307v864h383q63 0 116.5 -12.5t99.5 -39.5t72.5 -76.5t26.5 -116.5q0 -155 -147 -209v-4q43 -16 65 -45t45 -105q16 -57 82 -256h-254l-51 205q-18 69 -46.5 86.5t-106.5 17.5h-54v-309h-231zM784 985v-203h78q76 0 117 24t41 83q0 56 -42 76t-112 20h-82zM250 727
q0 -130 46.5 -247t128 -203t200 -136.5t256.5 -50.5q135 0 252.5 50.5t198.5 136.5t127 203t46 247q0 176 -78 323.5t-222 235.5t-324 88q-183 0 -328.5 -88t-224 -235t-78.5 -324zM129 727q0 156 56 295t154.5 240t239 160t302.5 59q160 0 299.5 -59t236 -160t152 -240
t55.5 -295q0 -206 -94 -376t-265 -269.5t-384 -99.5q-162 0 -302.5 58.5t-239 158.5t-154.5 237t-56 291z" />
    <glyph glyph-name="zero.tnum" horiz-adv-x="1263" 
d="M811 1487q120 0 206 -35.5t136.5 -104t74 -159.5t23.5 -211q0 -111 -16.5 -223.5t-50 -226.5t-90 -212t-130 -175t-176.5 -121t-223 -44q-116 0 -203.5 37.5t-141 107t-79.5 162.5t-26 210q0 92 12.5 187.5t39.5 193.5t66 187t96.5 167.5t127 136t160.5 90.5t194 33z
M780 1212q-84 0 -159.5 -125.5t-116.5 -295t-41 -316.5q0 -114 26.5 -169.5t98.5 -55.5q68 0 129 76.5t100.5 190t62.5 238.5t23 228q0 117 -25.5 173t-97.5 56z" />
    <glyph glyph-name="one.tnum" horiz-adv-x="1263" 
d="M1087 1462l-309 -1462h-348l238 1124l-283 -137l-61 273l415 202h348z" />
    <glyph glyph-name="two.tnum" horiz-adv-x="1263" 
d="M1110 274l-57 -274h-1000l58 274q317 228 481.5 365.5t232.5 232.5t68 183q0 74 -49 110.5t-129 36.5q-158 0 -318 -74l-51 256q94 47 207 75t223 28q213 0 341 -100t128 -291q0 -65 -15 -124.5t-39.5 -111.5t-72.5 -109t-97 -105t-132 -112.5t-158 -118.5t-192 -136v-5
h571z" />
    <glyph glyph-name="three.tnum" horiz-adv-x="1263" 
d="M371 608l61 275h135q314 0 314 192q0 69 -52 103t-135 34q-149 0 -309 -57l-25 264q173 68 404 68q94 0 176 -21.5t148.5 -64.5t104.5 -114.5t38 -164.5q0 -138 -69 -229t-232 -141v-4q96 -33 148 -108.5t52 -174.5q0 -125 -50.5 -221t-139 -153.5t-199 -86.5t-239.5 -29
q-114 0 -231.5 26t-207.5 71l99 258q174 -80 336 -80q77 0 137.5 17.5t102.5 63t42 115.5q0 162 -282 162h-127z" />
    <glyph glyph-name="four.tnum" horiz-adv-x="1263" 
d="M1266 1462l-191 -901h137l-57 -274h-137l-62 -287h-342l62 287h-635l70 338l671 837h484zM733 561l129 598h-4l-457 -598h332z" />
    <glyph glyph-name="five.tnum" horiz-adv-x="1263" 
d="M498 260q60 0 110.5 11t92.5 34.5t66 66.5t24 101q0 191 -306 191q-91 0 -256 -23l226 821h813l-58 -274h-505l-82 -277q53 4 94 4q190 0 308 -103t118 -292q0 -131 -47 -235.5t-131 -171.5t-196.5 -102.5t-246.5 -35.5q-261 0 -456 95l94 270q64 -34 158 -57t180 -23z
" />
    <glyph glyph-name="six.tnum" horiz-adv-x="1263" 
d="M956 1212q-297 0 -419 -327h4q110 92 276 92q129 0 223 -54t138.5 -140.5t44.5 -194.5q0 -172 -72 -310t-213 -220.5t-328 -82.5q-103 0 -187 29t-139.5 77.5t-92.5 114t-53.5 136.5t-16.5 147q0 95 15 192.5t47.5 197t80 189.5t116 169t151.5 136.5t192 90.5t231 33
q148 0 273 -33l-74 -268q-85 26 -197 26zM711 725q-108 0 -181 -77.5t-73 -196.5q0 -84 42 -142.5t134 -58.5q79 0 136 44t83.5 110.5t26.5 146.5q0 73 -43 123.5t-125 50.5z" />
    <glyph glyph-name="seven.tnum" horiz-adv-x="1263" 
d="M285 1188l59 274h989l-59 -284q-240 -279 -405.5 -582t-247.5 -596h-347q83 285 260.5 616.5t380.5 571.5h-630z" />
    <glyph glyph-name="eight.tnum" horiz-adv-x="1263" 
d="M647 618q-50 0 -101.5 -22t-90.5 -72t-39 -116q0 -77 55 -121.5t139 -44.5q97 0 164.5 49t67.5 139q0 86 -61.5 137t-133.5 51zM809 1487q200 0 331.5 -100.5t131.5 -266.5q0 -273 -279 -375v-4q85 -41 140 -115.5t55 -179.5q0 -115 -48.5 -206t-132.5 -148t-193.5 -87
t-235.5 -30q-105 0 -196 25.5t-161 74t-110.5 124t-40.5 168.5q0 79 26.5 146t73 114t103.5 80t124 53v4q-70 41 -111.5 111.5t-41.5 156.5q0 112 46 200t125 143t179.5 83.5t214.5 28.5zM733 879q80 0 147.5 54t67.5 144q0 72 -48.5 112t-121.5 40q-88 0 -149.5 -48.5
t-61.5 -138.5q0 -74 50.5 -118.5t115.5 -44.5z" />
    <glyph glyph-name="nine.tnum" horiz-adv-x="1263" 
d="M424 250q298 0 420 328h-4q-112 -93 -277 -93q-98 0 -176 32t-127.5 87t-75.5 126t-26 151q0 128 41.5 239t118.5 192.5t193 128t257 46.5q103 0 187.5 -29t140 -77.5t93.5 -114t54.5 -136.5t16.5 -147q0 -94 -14.5 -190.5t-46 -196t-78 -190t-115 -169.5t-151.5 -137
t-193.5 -91.5t-235.5 -33.5q-147 0 -272 33l73 268q85 -26 197 -26zM674 737q107 0 178.5 79t71.5 196q0 84 -43.5 142t-135.5 58q-78 0 -135 -44t-82.5 -109t-25.5 -141q0 -74 44 -127.5t128 -53.5z" />
    <glyph glyph-name="dollar.tnum" horiz-adv-x="1263" 
d="M1206 1391l-76 -256q-125 52 -245 59l-72 -340q74 -47 120 -83.5t87.5 -84.5t60.5 -105t19 -128q0 -90 -28 -164.5t-75.5 -124.5t-113 -85.5t-136.5 -52.5t-149 -20l-35 -166h-149l35 170q-178 13 -336 72l84 266q169 -69 309 -82l78 369q-153 96 -218 185t-65 212
q0 108 44 191.5t117 132t156 73.5t173 27l30 148h150l-33 -154q158 -14 268 -59zM776 416q0 68 -63 125l-58 -267q121 27 121 142zM616 1057q0 -58 66 -113l51 246q-117 -24 -117 -133z" />
    <glyph glyph-name="Euro.tnum" horiz-adv-x="1263" 
d="M156 705h110q4 41 19 98h-168l78 198h129q93 223 282.5 354.5t452.5 131.5q155 0 258 -29l-111 -278q-61 20 -147 20q-251 0 -361 -199h457l-74 -198h-442q-15 -50 -18 -98h419l-73 -199h-340q20 -119 104 -185.5t238 -66.5q86 0 137 10l14 -270q-87 -19 -223 -19
q-279 0 -441.5 143.5t-191.5 387.5h-186z" />
    <glyph glyph-name="cent.tnum" horiz-adv-x="1263" 
d="M1036 1229l-28 -131q31 -3 102 -19l-72 -245q-60 15 -82 16l-133 -623q70 7 123 27v-246q-100 -28 -176 -31l-22 -114h-168l24 123q-92 16 -162 58t-111 102.5t-61 132t-20 153.5q0 178 68 323t203.5 238.5t320.5 108.5l26 127h168zM575 455q0 -143 87 -197l122 573
q-99 -41 -154 -145t-55 -231z" />
    <glyph glyph-name="sterling.tnum" horiz-adv-x="1263" 
d="M1229 1436l-99 -269q-65 29 -155 29q-103 0 -155.5 -58t-76.5 -167l-20 -97h344l-49 -237h-344l-76 -363h504l-60 -274h-1036l60 274h190l76 363h-178l49 237h178l22 107q20 93 48 165.5t74 136.5t107.5 106t150 66t200.5 24q146 0 246 -43z" />
    <glyph glyph-name="florin.tnum" horiz-adv-x="1263" 
d="M25 -242l63 256q66 -14 111 -14q53 0 81 30t48 97l161 539h-219l66 252h221l66 215q19 61 41 108t59 94t84 78t117 50.5t157 19.5q127 0 207 -27l-92 -256q-47 23 -109 23q-101 0 -149 -152l-47 -153h260l-66 -252h-260l-182 -592q-19 -63 -41.5 -111.5t-58 -93t-81 -73
t-111.5 -45.5t-148 -17q-96 0 -178 24z" />
    <glyph glyph-name="yen.tnum" horiz-adv-x="1263" 
d="M133 506h338l23 98h-340l43 199h247l-180 659h365l96 -522l334 522h397l-483 -659h227l-43 -199h-336l-20 -98h336l-43 -199h-334l-64 -307h-336l68 307h-338z" />
    <glyph glyph-name="currency.tnum" horiz-adv-x="1263" 
d="M616 254q-100 0 -180 39l-164 -131l-174 219l166 133q-8 36 -8 82q0 150 76 268l-127 160l227 180l129 -160q85 31 180 31q105 0 179 -41l165 133l175 -219l-168 -133q10 -45 10 -84q0 -147 -78 -268l129 -158l-227 -180l-129 160q-85 -31 -181 -31zM643 492
q86 0 146.5 59t60.5 147q0 63 -36 101.5t-99 38.5q-86 0 -146.5 -59.5t-60.5 -147.5q0 -63 36 -101t99 -38z" />
    <glyph glyph-name="colon.cap" horiz-adv-x="765" 
d="M305 893l82 379h369l-82 -379h-369zM158 190l80 379h368l-80 -379h-368z" />
    <glyph glyph-name="zero.slash" horiz-adv-x="1263" 
d="M811 1487q120 0 206 -35.5t136.5 -104t74 -159.5t23.5 -211q0 -111 -16.5 -223.5t-50 -226.5t-90 -212t-130 -175t-176.5 -121t-223 -44q-116 0 -203.5 37.5t-141 107t-79.5 162.5t-26 210q0 92 12.5 187.5t39.5 193.5t66 187t96.5 167.5t127 136t160.5 90.5t194 33z
M588 250q57 0 110 54.5t91 143t64.5 190t39.5 204.5l-428 -434q6 -79 34 -118.5t89 -39.5zM780 1212q-71 0 -137.5 -92.5t-109 -224.5t-60.5 -274l428 432q-6 80 -33.5 119.5t-87.5 39.5z" />
    <glyph glyph-name="hyphen.cap" horiz-adv-x="806" 
d="M160 606l59 277h537l-60 -277h-536z" />
    <glyph glyph-name="endash.cap" horiz-adv-x="1011" 
d="M1042 854l-49 -221h-913l49 221h913z" />
    <glyph glyph-name="emdash.cap" horiz-adv-x="1626" 
d="M1657 854l-49 -221h-1528l49 221h1528z" />
    <glyph glyph-name="cyrbreve" horiz-adv-x="940" 
d="M659 1231q-90 0 -156 22t-102 60.5t-52.5 82t-16.5 93.5q0 33 6 70h194q-4 -20 -4 -35q0 -103 127 -103q83 0 125.5 32.5t57.5 105.5h202q-27 -156 -122 -242t-259 -86z" />
    <glyph glyph-name="cyrbreve.cap" horiz-adv-x="940" 
d="M719 1556q-72 0 -129.5 15t-94 40t-60.5 59t-34 70t-10 75q0 31 6 69h195q-4 -20 -4 -35q0 -102 127 -102q83 0 125 32t57 105h203q-27 -156 -122 -242t-259 -86z" />
    </font>
</defs>
</svg>
