<?xml version="1.0" standalone="no"?>
<!DOCTYPE svg PUBLIC "-//W3C//DTD SVG 1.1//EN" "http://www.w3.org/Graphics/SVG/1.1/DTD/svg11.dtd" >
<svg xmlns="http://www.w3.org/2000/svg" xmlns:xlink="http://www.w3.org/1999/xlink" version="1.1">
<metadata>
Created by FontForge 20170731 at Wed Aug  4 13:29:03 2021
 By Aleksey,,,
Copyright (c) 2012 Linotype GmbH, www.linotype.com. All rights reserved. This font software may not be reproduced, modified, disclosed or transferred without the express written approval of Linotype GmbH. SST is a trademark of Linotype GmbH and may be registered in certain jurisdictions. This typeface is original artwork of Akira Kobayashi. The design may be protected in certain jurisdictions.
</metadata>
<defs>
<font id="SSTTypewriterPro-Roman" horiz-adv-x="1228" >
  <font-face 
    font-family="SST Typewriter Pro"
    font-weight="400"
    font-stretch="normal"
    units-per-em="2048"
    panose-1="2 11 5 9 3 5 4 2 2 4"
    ascent="1577"
    descent="-471"
    x-height="1081"
    cap-height="1462"
    bbox="0 -438 3494 1942"
    underline-thickness="102"
    underline-position="-307"
    unicode-range="U+000D-FB04"
  />
<missing-glyph 
d="M659 240h-114v137h114v-137zM645 479h-94l-4 35q0 115 26 166q28 54 95 121q63 60 82.5 94.5t19.5 75.5q0 73 -46 123.5t-110 50.5q-67 0 -112 -47.5t-56 -147.5l-102 17q13 141 87 210.5t190 69.5q110 0 181.5 -74t71.5 -194q0 -69 -27 -123t-102 -123q-77 -68 -88 -106
q-12 -41 -12 -148zM193 102h843v1264h-843v-1264zM90 1470h1049v-1470h-1049v1470z" />
    <glyph glyph-name="IJ" unicode="IJ" horiz-adv-x="2457" 
d="M233 1319v143h762v-143h-290v-1176h290v-143h-762v143h293v1176h-293zM1585 1319v143h660v-143h-181v-934q0 -403 -430 -403q-105 0 -235 24v150q108 -25 221 -25q144 0 205 61t61 185v942h-301z" />
    <glyph glyph-name="ij" unicode="ij" horiz-adv-x="2457" 
d="M307 938v143h434v-938h293v-143h-762v143h295v795h-260zM514 1489h227v-182h-227v182zM1516 938v143h493v-1116q0 -174 -106 -269t-299 -95q-107 0 -218 18v141q99 -18 203 -18q129 0 187.5 58t58.5 184v954h-319zM1786 1489h227v-182h-227v182z" />
    <glyph glyph-name="napostrophe" unicode="&#x22;n" 
d="M166 1081h168v-159h2q50 87 139 135.5t201 48.5q181 0 284 -106.5t103 -286.5v-713h-174v647q0 160 -56.5 241t-197.5 81q-57 0 -108.5 -21t-94 -62.5t-67.5 -112t-25 -161.5v-612h-174v1081zM283 1573l-80 -336h-107l25 336h162z" />
    <glyph glyph-name="f_f" unicode="ff" horiz-adv-x="2457" 
d="M1200 1475l-8 -136q-110 29 -266 29q-121 0 -190.5 -54.5t-69.5 -170.5v-62h323v-137h-323v-944h-174v944h-316v137h316v84q0 157 116 248.5t314 91.5q156 0 278 -30zM2429 1475l-8 -136q-110 29 -267 29q-121 0 -190.5 -54.5t-69.5 -170.5v-62h324v-137h-324v-944h-174
v944h-315v137h315v84q0 157 116 248.5t314 91.5q157 0 279 -30z" />
    <glyph glyph-name="fi" unicode="fi" horiz-adv-x="2457" 
d="M1200 1475l-8 -136q-110 29 -266 29q-121 0 -190.5 -54.5t-69.5 -170.5v-62h323v-137h-323v-944h-174v944h-316v137h316v84q0 157 116 248.5t314 91.5q156 0 278 -30zM1536 938v143h434v-938h293v-143h-762v143h295v795h-260zM1743 1489h227v-182h-227v182z" />
    <glyph glyph-name="fl" unicode="fl" horiz-adv-x="2457" 
d="M1200 1475l-8 -136q-110 29 -266 29q-121 0 -190.5 -54.5t-69.5 -170.5v-62h323v-137h-323v-944h-174v944h-316v137h316v84q0 157 116 248.5t314 91.5q156 0 278 -30zM1479 1362v143h450v-1210q0 -105 41 -138.5t150 -33.5q74 0 145 12v-127q-81 -20 -184 -20
q-94 0 -158 19t-100.5 58.5t-52 93t-15.5 128.5v1075h-276z" />
    <glyph glyph-name="f_f_i" unicode="ffi" horiz-adv-x="3686" 
d="M1200 1475l-8 -136q-110 29 -266 29q-121 0 -190.5 -54.5t-69.5 -170.5v-62h323v-137h-323v-944h-174v944h-316v137h316v84q0 157 116 248.5t314 91.5q156 0 278 -30zM2429 1475l-8 -136q-110 29 -267 29q-121 0 -190.5 -54.5t-69.5 -170.5v-62h324v-137h-324v-944h-174
v944h-315v137h315v84q0 157 116 248.5t314 91.5q157 0 279 -30zM2765 938v143h434v-938h293v-143h-762v143h295v795h-260zM2972 1489h227v-182h-227v182z" />
    <glyph glyph-name="f_f_l" unicode="ffl" horiz-adv-x="3686" 
d="M1200 1475l-8 -136q-110 29 -266 29q-121 0 -190.5 -54.5t-69.5 -170.5v-62h323v-137h-323v-944h-174v944h-316v137h316v84q0 157 116 248.5t314 91.5q156 0 278 -30zM2429 1475l-8 -136q-110 29 -267 29q-121 0 -190.5 -54.5t-69.5 -170.5v-62h324v-137h-324v-944h-174
v944h-315v137h315v84q0 157 116 248.5t314 91.5q157 0 279 -30zM2707 1362v143h451v-1210q0 -105 40.5 -138.5t149.5 -33.5q76 0 146 12v-127q-81 -20 -184 -20q-94 0 -158 19t-100.5 58.5t-52 93t-15.5 128.5v1075h-277z" />
    <glyph glyph-name=".notdef" 
d="M659 240h-114v137h114v-137zM645 479h-94l-4 35q0 115 26 166q28 54 95 121q63 60 82.5 94.5t19.5 75.5q0 73 -46 123.5t-110 50.5q-67 0 -112 -47.5t-56 -147.5l-102 17q13 141 87 210.5t190 69.5q110 0 181.5 -74t71.5 -194q0 -69 -27 -123t-102 -123q-77 -68 -88 -106
q-12 -41 -12 -148zM193 102h843v1264h-843v-1264zM90 1470h1049v-1470h-1049v1470z" />
    <glyph glyph-name=".null" horiz-adv-x="0" 
 />
    <glyph glyph-name="nonmarkingreturn" horiz-adv-x="682" 
 />
    <glyph glyph-name="CR" unicode="&#xd;" horiz-adv-x="0" 
 />
    <glyph glyph-name="space" unicode=" " 
 />
    <glyph glyph-name="exclam" unicode="!" 
d="M717 1462l-35 -1054h-137l-35 1054h207zM514 0v199h199v-199h-199z" />
    <glyph glyph-name="quotedbl" unicode="&#x22;" 
d="M410 1049l-39 456h184l-39 -456h-106zM715 1049l-39 456h182l-37 -456h-106z" />
    <glyph glyph-name="numbersign" unicode="#" 
d="M260 0l62 442h-209v123h225l47 336h-223v123h241l60 438h127l-62 -438h275l59 438h127l-59 -438h186v-123h-205l-45 -336h197v-123h-215l-60 -442h-129l64 442h-274l-62 -442h-127zM510 901l-43 -336h272l47 336h-276z" />
    <glyph glyph-name="dollar" unicode="$" 
d="M987 1380l-41 -133q-130 52 -254 58v-508q184 -73 269.5 -163.5t85.5 -236.5q0 -84 -29 -151t-79.5 -110.5t-112 -70.5t-134.5 -38v-187h-129v178q-197 3 -381 84l41 140q161 -81 340 -88v528l-12 6q-180 72 -264 163t-84 226q0 81 30 146.5t81.5 108t114 68t134.5 34.5
v170h129v-166q168 -6 295 -58zM362 1094q0 -83 45.5 -139t155.5 -107v452q-88 -15 -144.5 -65.5t-56.5 -140.5zM885 389q0 76 -48 132t-145 104v-461q89 21 141 78t52 147z" />
    <glyph glyph-name="percent" unicode="%" 
d="M1110 1462l-883 -1462h-102l887 1462h98zM514 1079q0 -180 -57 -279.5t-168 -99.5q-108 0 -165.5 100t-57.5 279t57.5 279t165.5 100q111 0 168 -99.5t57 -279.5zM391 1079q0 262 -102 262q-99 0 -99 -262q0 -260 99 -260q102 0 102 260zM1163 358q0 -180 -57 -279
t-168 -99q-108 0 -165.5 99.5t-57.5 278.5t57.5 279t165.5 100q111 0 168 -99.5t57 -279.5zM1040 358q0 263 -102 263q-98 0 -98 -263q0 -260 98 -260q102 0 102 260z" />
    <glyph glyph-name="ampersand" unicode="&#x26;" 
d="M707 1169q0 88 -42.5 137.5t-123.5 49.5q-85 0 -128.5 -54.5t-43.5 -144.5q0 -74 29.5 -137.5t93.5 -132.5q101 49 158 114.5t57 167.5zM764 309l-326 410q-105 -55 -151.5 -133.5t-46.5 -194.5q0 -124 63.5 -201t171.5 -77q180 0 289 196zM956 334l271 -334h-213
l-152 188q-75 -112 -169 -162.5t-226 -50.5q-173 0 -281 106t-108 298q0 309 278 446q-71 79 -105 155.5t-34 170.5q0 156 91 247t233 91q145 0 231 -82.5t86 -239.5q0 -245 -280 -385l272 -336q85 176 127 332h170q-32 -94 -90.5 -230.5t-100.5 -213.5z" />
    <glyph glyph-name="quotesingle" unicode="'" 
d="M561 1049l-39 456h185l-39 -456h-107z" />
    <glyph glyph-name="parenleft" unicode="(" 
d="M508 621q0 -276 92 -542t268 -478h-170q-164 196 -254 459t-90 561q0 294 90 554.5t254 456.5h170q-175 -212 -267.5 -476t-92.5 -535z" />
    <glyph glyph-name="parenright" unicode=")" 
d="M717 612q0 276 -92.5 542t-268.5 478h170q164 -196 254 -459t90 -561q0 -294 -90 -554.5t-254 -456.5h-170q176 212 268.5 476.5t92.5 534.5z" />
    <glyph glyph-name="asterisk" unicode="*" 
d="M670 1462v-272l268 86l39 -107l-268 -86l172 -241l-93 -70l-176 248l-174 -248l-92 70l172 241l-268 86l39 107l268 -86v272h113z" />
    <glyph glyph-name="plus" unicode="+" 
d="M549 1114h133v-405h410v-127h-410v-435h-133v435h-412v127h412v405z" />
    <glyph glyph-name="comma" unicode="," 
d="M346 -289l211 590h272l-331 -590h-152z" />
    <glyph glyph-name="hyphen" unicode="-" 
d="M317 545v141h596v-141h-596z" />
    <glyph glyph-name="period" unicode="." 
d="M471 0v309h289v-309h-289z" />
    <glyph glyph-name="slash" unicode="/" 
d="M178 0l699 1462h172l-699 -1462h-172z" />
    <glyph glyph-name="zero" unicode="0" 
d="M616 1487q123 0 215.5 -54.5t150 -156t86 -239.5t28.5 -312q0 -173 -28.5 -309.5t-86 -235.5t-150 -152t-215.5 -53q-125 0 -218 52.5t-150.5 152.5t-85 235.5t-27.5 309.5q0 175 28 312.5t85 239.5t150 156t218 54zM616 1339q-84 0 -144 -43t-94.5 -126t-50.5 -192
t-16 -253q0 -143 15.5 -250t50.5 -188t95 -122.5t144 -41.5q160 0 232 156t72 446q0 614 -304 614z" />
    <glyph glyph-name="one" unicode="1" 
d="M768 1462v-1319h293v-143h-825v143h356v1149l-291 -192l-80 123l357 239h190z" />
    <glyph glyph-name="two" unicode="2" 
d="M1069 150v-150h-919v158q309 283 461 445t210 268t58 214q0 115 -84.5 184.5t-208.5 69.5q-169 0 -334 -135l-76 127q82 72 189 114t221 42q135 0 240 -43.5t168 -135t63 -218.5q0 -61 -10.5 -113.5t-29.5 -104.5t-59.5 -110.5t-87.5 -116t-127 -138t-164 -160.5
t-212 -197h702z" />
    <glyph glyph-name="three" unicode="3" 
d="M346 678v149h127q83 0 152 15t124.5 46.5t87 85.5t31.5 126q0 117 -78.5 178t-211.5 61q-186 0 -340 -90l-56 144q181 94 406 94q125 0 227.5 -41t167 -127.5t64.5 -204.5q0 -136 -77.5 -226.5t-217.5 -127.5v-4q158 -23 245.5 -114.5t87.5 -229.5q0 -103 -40 -187
t-110 -138t-162.5 -83t-199.5 -29q-246 0 -426 97l54 143q173 -92 372 -92q153 0 244.5 71.5t91.5 213.5q0 63 -25.5 111.5t-67 77.5t-100 48t-117.5 26t-126 7h-127z" />
    <glyph glyph-name="four" unicode="4" 
d="M954 1462v-962h197v-150h-197v-350h-176v350h-700v182l602 930h274zM778 500v817h-4l-526 -817h530z" />
    <glyph glyph-name="five" unicode="5" 
d="M899 449q0 84 -33.5 146t-91.5 96.5t-126 50.5t-148 16q-131 0 -287 -27l31 731h743v-147h-588l-22 -420q83 10 158 10q108 0 203.5 -27.5t171.5 -81t120.5 -140.5t44.5 -197q0 -118 -42.5 -212t-116 -152.5t-168 -89t-203.5 -30.5q-229 0 -400 78l52 146
q171 -76 346 -76q156 0 256 82t100 244z" />
    <glyph glyph-name="six" unicode="6" 
d="M301 506q0 -72 19.5 -138t57 -122t102.5 -89.5t147 -33.5q145 0 229 96.5t84 255.5q0 147 -76.5 241.5t-220.5 94.5q-146 0 -244 -91t-98 -214zM291 784h4q55 79 150 126.5t206 47.5q211 0 338 -135.5t127 -347.5q0 -219 -134.5 -359.5t-348.5 -140.5q-88 0 -162 22
t-126.5 60t-93.5 91.5t-66 112t-41 127t-22.5 131.5t-6.5 130q0 144 22 269.5t67.5 230.5t113 180t162.5 116.5t210 41.5q171 0 291 -57l-45 -140q-98 49 -240 49q-84 0 -151.5 -31.5t-112 -84t-75.5 -125.5t-46.5 -150t-19.5 -164z" />
    <glyph glyph-name="seven" unicode="7" 
d="M213 1315v147h885v-147q-211 -309 -334.5 -657t-153.5 -658h-176q28 304 157 666t318 649h-696z" />
    <glyph glyph-name="eight" unicode="8" 
d="M612 684q-47 0 -93.5 -10t-90.5 -32.5t-77.5 -55t-54 -81t-20.5 -106.5q0 -135 92 -205.5t244 -70.5t244 70.5t92 205.5q0 58 -20.5 106.5t-54 81t-77.5 55t-90.5 32.5t-93.5 10zM608 1487q74 0 142.5 -15.5t128 -47.5t103.5 -77.5t69.5 -109.5t25.5 -139
q0 -131 -63 -214t-176 -116v-4q286 -99 286 -379q0 -99 -40 -178t-110 -129t-162.5 -76.5t-199.5 -26.5t-199.5 26.5t-162.5 76.5t-110 129t-40 178q0 79 25 144t68 109t91 73t103 45v4q-107 36 -173.5 123t-66.5 215q0 94 37.5 169t101.5 122.5t146.5 72.5t175.5 25z
M610 827q126 0 207.5 68.5t81.5 202.5q0 113 -77.5 177t-213.5 64q-130 0 -206 -64t-76 -177q0 -134 79.5 -202.5t204.5 -68.5z" />
    <glyph glyph-name="nine" unicode="9" 
d="M930 956q0 72 -19.5 138t-57 122t-102.5 89.5t-147 33.5q-145 0 -229 -96.5t-84 -255.5q0 -147 76.5 -241.5t220.5 -94.5q146 0 244 91t98 214zM940 678h-4q-55 -79 -150 -126.5t-206 -47.5q-211 0 -338 135.5t-127 347.5q0 219 134.5 359.5t348.5 140.5q88 0 162 -22
t126.5 -60t93.5 -91.5t66 -112t41 -127t22.5 -131.5t6.5 -130q0 -144 -22 -269.5t-67.5 -230.5t-113 -180t-162.5 -116.5t-210 -41.5q-182 0 -314 56l37 141q135 -49 271 -49q84 0 151.5 31.5t112 84t75.5 125.5t46.5 150t19.5 164z" />
    <glyph glyph-name="colon" unicode=":" 
d="M471 0v309h289v-309h-289zM471 772v309h289v-309h-289z" />
    <glyph glyph-name="semicolon" unicode=";" 
d="M471 772v309h289v-309h-289zM285 -289l211 590h272l-332 -590h-151z" />
    <glyph glyph-name="less" unicode="&#x3c;" 
d="M1092 201l-955 340v182l955 342v-135l-830 -293v-4l830 -297v-135z" />
    <glyph glyph-name="equal" unicode="=" 
d="M1092 772h-955v127h955v-127zM1092 391h-955v127h955v-127z" />
    <glyph glyph-name="greater" unicode="&#x3e;" 
d="M1092 541l-955 -340v135l828 297v4l-828 293v135l955 -342v-182z" />
    <glyph glyph-name="question" unicode="?" 
d="M618 424v-57h-159v69q0 131 41 213.5t139 165.5l63 53q65 56 98.5 115t33.5 137q0 62 -22 106.5t-62 68t-85.5 34t-101.5 10.5q-149 0 -289 -82l-53 136q157 94 361 94q87 0 160 -18.5t134.5 -58.5t96.5 -112t35 -170q0 -131 -55.5 -218t-161.5 -169q-51 -39 -79 -66.5
t-52 -64.5t-33 -80.5t-9 -105.5zM438 0v199h209v-199h-209z" />
    <glyph glyph-name="at" unicode="@" 
d="M651 924q-42 0 -71 -40.5t-43.5 -110t-20.5 -141t-6 -155.5q0 -276 100 -276q37 0 65.5 34t44.5 85t26.5 118.5t14 125t3.5 114.5q0 55 -4 93.5t-15 76t-34.5 57t-59.5 19.5zM995 -201l31 -114q-145 -64 -309 -64q-137 0 -246 51t-180.5 137.5t-119 207.5t-67.5 253.5
t-20 282.5q0 124 13 236t40 218.5t73.5 192.5t109 151t150.5 100.5t194 35.5q510 0 510 -756q0 -320 -62 -490.5t-199 -170.5q-110 0 -147 123h-4q-53 -123 -168 -123q-227 0 -227 419q0 113 14 210t44 179t84 129.5t126 47.5q65 0 107.5 -33t56.5 -78h4l12 94h123l-57 -512
q-17 -128 -17 -198q0 -35 3.5 -58.5t17.5 -43t39 -19.5q57 0 91 151.5t34 354.5q0 106 -10.5 196.5t-37.5 177t-69.5 147t-111.5 97.5t-158 37q-98 0 -176 -48.5t-127.5 -128t-82 -188t-46 -221t-13.5 -235.5q0 -131 15.5 -244.5t53.5 -217.5t95.5 -178t146 -117.5
t201.5 -43.5q86 0 144.5 13t121.5 40z" />
    <glyph glyph-name="A" unicode="A" 
d="M365 438l-125 -438h-174l442 1462h213l442 -1462h-176l-129 438h-493zM612 1327l-213 -739h424z" />
    <glyph glyph-name="B" unicode="B" 
d="M178 0v1462h455q203 0 324.5 -94t121.5 -281q0 -129 -72 -212t-198 -115v-4q66 -13 119.5 -38t98 -65.5t69 -102t24.5 -140.5q0 -84 -27 -156t-81.5 -130t-145.5 -91t-209 -33h-479zM356 1313v-486h226q319 0 319 250q0 71 -25 119.5t-70.5 73t-95 34t-112.5 9.5h-242z
M356 678v-528h273q152 0 232.5 60.5t80.5 203.5q0 76 -27.5 129.5t-79.5 82t-113 40.5t-140 12h-226z" />
    <glyph glyph-name="C" unicode="C" 
d="M1112 1436l-53 -158q-105 59 -258 59q-208 0 -331.5 -169t-123.5 -441q0 -167 54.5 -303t159 -217.5t241.5 -81.5q164 0 276 51l35 -149q-149 -52 -317 -52q-196 0 -339 97t-214.5 266t-71.5 391t71.5 391.5t215.5 268t342 98.5q180 0 313 -51z" />
    <glyph glyph-name="D" unicode="D" 
d="M135 0v1462h334q335 0 515.5 -194t180.5 -537q0 -344 -180.5 -537.5t-515.5 -193.5h-334zM313 1313v-1163h129q274 0 409.5 150.5t135.5 430.5q0 278 -135.5 430t-409.5 152h-129z" />
    <glyph glyph-name="E" unicode="E" 
d="M217 0v1462h848v-149h-670v-486h621v-149h-621v-528h686v-150h-864z" />
    <glyph glyph-name="F" unicode="F" 
d="M258 0v1462h832v-149h-654v-486h619v-149h-619v-678h-178z" />
    <glyph glyph-name="G" unicode="G" 
d="M1051 1436l-54 -158q-105 59 -258 59q-208 0 -331 -169t-123 -441q0 -169 48 -303.5t147.5 -216.5t236.5 -82q124 0 188 29v485h-252v149h426v-725q-151 -88 -370 -88q-183 0 -320 96.5t-208.5 266.5t-71.5 391q0 222 71.5 391.5t215 268t341.5 98.5q181 0 314 -51z" />
    <glyph glyph-name="H" unicode="H" 
d="M135 0v1462h178v-635h602v635h179v-1462h-179v678h-602v-678h-178z" />
    <glyph glyph-name="I" unicode="I" 
d="M233 1319v143h762v-143h-290v-1176h290v-143h-762v143h293v1176h-293z" />
    <glyph glyph-name="J" unicode="J" 
d="M356 1319v143h660v-143h-180v-934q0 -403 -430 -403q-106 0 -236 24v150q108 -25 221 -25q144 0 205 61t61 185v942h-301z" />
    <glyph glyph-name="K" unicode="K" 
d="M938 1462h225l-610 -698l649 -764h-229l-617 733h-2v-733h-178v1462h178v-684h2z" />
    <glyph glyph-name="L" unicode="L" 
d="M238 0v1462h178v-1312h647v-150h-825z" />
    <glyph glyph-name="M" unicode="M" 
d="M399 1462l224 -1124h4l207 1124h303v-1462h-174v1317h-5l-229 -1165h-217l-250 1165h-4v-1317h-166v1462h307z" />
    <glyph glyph-name="N" unicode="N" 
d="M422 1462l493 -1274h5v1274h167v-1462h-274l-500 1284h-4v-1284h-168v1462h281z" />
    <glyph glyph-name="O" unicode="O" 
d="M1174 729q0 -167 -34 -303.5t-102 -238.5t-176.5 -158t-249.5 -56q-112 0 -204 36.5t-157 103t-109.5 161t-65.5 208.5t-21 247q0 168 33.5 305t100 239.5t174.5 159t249 56.5q143 0 251.5 -56.5t176 -159t101 -239.5t33.5 -305zM997 729q0 129 -22 236.5t-67 192
t-120.5 132t-175.5 47.5q-98 0 -172.5 -47.5t-118.5 -132t-66 -192t-22 -236.5q0 -128 21.5 -234.5t66 -190t119 -130.5t172.5 -47q100 0 175.5 47t120.5 130.5t67 190t22 234.5z" />
    <glyph glyph-name="P" unicode="P" 
d="M176 0v1462h457q103 0 186 -20.5t152 -66.5t107 -128.5t38 -197.5q0 -94 -25.5 -169t-69.5 -124.5t-105.5 -82t-131 -47t-149.5 -14.5h-281v-612h-178zM354 1313v-551h264q69 0 122.5 12.5t100 42.5t72 87t25.5 138q0 82 -25.5 137.5t-74.5 83.5t-105 39t-133 11h-246z
" />
    <glyph glyph-name="Q" unicode="Q" 
d="M1174 729q0 -233 -66.5 -406.5t-198.5 -263.5l254 -299h-229l-182 230q-73 -17 -140 -17q-112 0 -204 36.5t-157 103t-109.5 161t-65.5 208.5t-21 247q0 168 33.5 305t100 239.5t174.5 159t249 56.5q143 0 251.5 -56.5t176 -159t101 -239.5t33.5 -305zM997 729
q0 129 -22 236.5t-67 192t-120.5 132t-175.5 47.5q-98 0 -172.5 -47.5t-118.5 -132t-66 -192t-22 -236.5q0 -128 21.5 -234.5t66 -190t119 -130.5t172.5 -47q100 0 175.5 47t120.5 130.5t67 190t22 234.5z" />
    <glyph glyph-name="R" unicode="R" 
d="M184 0v1462h463q99 0 180.5 -22.5t143.5 -68.5t96.5 -121.5t34.5 -174.5q0 -126 -70.5 -216.5t-200.5 -123.5v-4q82 -20 128 -80t85 -194q35 -121 138 -457h-191q-16 56 -57.5 215t-56.5 211q-15 48 -26.5 78.5t-29.5 59t-39 44t-53 28t-73 17t-99 4.5h-195v-657h-178z
M362 1313v-506h242q153 0 236.5 63.5t83.5 194.5q0 60 -17.5 105t-46 72t-70 43.5t-83 22t-91.5 5.5h-254z" />
    <glyph glyph-name="S" unicode="S" 
d="M1016 1425l-43 -149q-152 61 -322 61q-56 0 -105.5 -11.5t-93.5 -36t-70 -69.5t-26 -106q0 -98 67.5 -161.5t238.5 -129.5q220 -84 319.5 -182.5t99.5 -261.5q0 -84 -28 -152.5t-75 -114.5t-110.5 -77.5t-133 -45.5t-144.5 -14q-101 0 -217 23.5t-215 67.5l45 153
q189 -94 391 -94q138 0 223.5 62t85.5 180q0 55 -22 99t-71.5 81.5t-107.5 67.5t-149 67q-192 77 -283.5 177t-91.5 243q0 78 28.5 143.5t75 109t108.5 74t128.5 44.5t134.5 14q206 0 363 -62z" />
    <glyph glyph-name="T" unicode="T" 
d="M530 0v1313h-440v149h1049v-149h-430v-1313h-179z" />
    <glyph glyph-name="U" unicode="U" 
d="M1112 1462v-1030q0 -207 -127 -332t-371 -125q-241 0 -368 125t-127 332v1030h178v-1011q0 -165 72.5 -245.5t242.5 -80.5q322 0 322 326v1011h178z" />
    <glyph glyph-name="V" unicode="V" 
d="M487 0l-428 1462h191l362 -1300h4l361 1300h190l-432 -1462h-248z" />
    <glyph glyph-name="W" unicode="W" 
d="M813 0l-195 989h-4l-202 -989h-226l-168 1462h181l116 -1269h4l189 964h221l186 -964h5l120 1269h172l-176 -1462h-223z" />
    <glyph glyph-name="X" unicode="X" 
d="M1155 1462l-436 -698l465 -764h-199l-371 627l-376 -627h-191l475 764l-426 698h191l336 -571l346 571h186z" />
    <glyph glyph-name="Y" unicode="Y" 
d="M522 0v551l-493 911h211l374 -741l381 741h199l-494 -911v-551h-178z" />
    <glyph glyph-name="Z" unicode="Z" 
d="M117 150l780 1163h-725v149h928v-147l-783 -1165h809v-150h-1009v150z" />
    <glyph glyph-name="bracketleft" unicode="[" 
d="M844 1632v-112h-312v-1807h312v-112h-461v2031h461z" />
    <glyph glyph-name="backslash" unicode="\" 
d="M356 1462l699 -1462h-185l-698 1462h184z" />
    <glyph glyph-name="bracketright" unicode="]" 
d="M383 -399v112h311v1807h-311v112h461v-2031h-461z" />
    <glyph glyph-name="asciicircum" unicode="^" 
d="M1040 612h-178l-250 635h-2l-248 -635h-174l347 813h157z" />
    <glyph glyph-name="underscore" unicode="_" 
d="M0 -190h1229v-97h-1229v97z" />
    <glyph glyph-name="grave" unicode="`" 
d="M676 1237l-248 336h186l187 -336h-125z" />
    <glyph glyph-name="a" unicode="a" 
d="M850 674v31q0 134 -64.5 199t-197.5 65q-140 0 -277 -64l-39 137q154 64 324 64q203 0 315.5 -97.5t112.5 -289.5v-473q0 -140 20 -246h-153q-19 72 -25 162h-4q-47 -83 -134.5 -135t-211.5 -52q-69 0 -131 19.5t-113.5 57.5t-81.5 102t-30 147q0 91 37 158t98 107.5
t153 65.5t187 33.5t215 8.5zM850 549h-49q-79 0 -143.5 -5.5t-128 -21.5t-106 -42t-69 -69.5t-26.5 -101.5q0 -89 49 -142.5t149 -53.5q154 0 239 99.5t85 244.5v92z" />
    <glyph glyph-name="b" unicode="b" 
d="M322 150v-150h-168v1505h174v-587h4q57 92 146.5 140t191.5 48q139 0 243.5 -75.5t157.5 -202t53 -285.5t-55 -287.5t-161 -204.5t-246 -76q-102 0 -190.5 43t-147.5 132h-2zM950 543q0 184 -80 305t-227 121q-152 0 -239 -120t-87 -306q0 -187 87 -308.5t239 -121.5
q99 0 170 59.5t104 155t33 215.5z" />
    <glyph glyph-name="c" unicode="c" 
d="M1061 1061l-39 -137q-99 45 -223 45q-203 0 -309.5 -120t-106.5 -310q0 -90 25.5 -166.5t75 -135t130.5 -91.5t185 -33q127 0 227 45l29 -138q-117 -45 -258 -45q-146 0 -259.5 42.5t-184.5 119t-107.5 178.5t-36.5 224q0 253 154.5 410t431.5 157q159 0 266 -45z" />
    <glyph glyph-name="d" unicode="d" 
d="M909 934v571h174v-1505h-168v164h-4q-61 -93 -152 -141t-192 -48q-105 0 -192 44.5t-144 121.5t-88.5 180.5t-31.5 221.5q0 243 126.5 403t335.5 160q215 0 332 -172h4zM285 543q0 -185 80.5 -307.5t228.5 -122.5q151 0 238.5 122t87.5 308t-87.5 306t-238.5 120
q-100 0 -171.5 -58.5t-104.5 -153.5t-33 -214z" />
    <glyph glyph-name="e" unicode="e" 
d="M1092 494h-768q9 -175 111 -278t272 -103q163 0 290 53l29 -133q-134 -58 -324 -58q-260 0 -403 157t-143 407t132.5 408.5t354.5 158.5t335.5 -141t113.5 -387v-84zM645 969q-142 0 -224.5 -91.5t-96.5 -246.5h610v8q0 153 -79 241.5t-210 88.5z" />
    <glyph glyph-name="f" unicode="f" 
d="M1200 1475l-8 -136q-110 29 -266 29q-121 0 -190.5 -54.5t-69.5 -170.5v-62h323v-137h-323v-944h-174v944h-316v137h316v84q0 157 116 248.5t314 91.5q156 0 278 -30z" />
    <glyph glyph-name="g" unicode="g" 
d="M285 561q0 -115 33.5 -206t104.5 -147t171 -56q150 0 237 116t87 293q0 178 -87 293t-237 115q-100 0 -171 -56t-104.5 -146.5t-33.5 -205.5zM913 70v127h-4q-61 -90 -148.5 -136.5t-189.5 -46.5q-142 0 -247.5 73.5t-159 196.5t-53.5 277q0 153 55.5 276t162 196
t244.5 73q223 0 336 -170h4v145h168v-1020q0 -92 -26.5 -168.5t-73 -130t-110.5 -90t-139.5 -54t-160.5 -17.5q-192 0 -338 55l33 135q130 -53 305 -53q168 0 255 86.5t87 245.5z" />
    <glyph glyph-name="h" unicode="h" 
d="M176 1505h174v-583h4q50 88 135.5 136t196.5 48q181 0 284 -106.5t103 -286.5v-713h-174v647q0 160 -56.5 241t-197.5 81q-57 0 -108.5 -21t-94 -62.5t-67.5 -112t-25 -161.5v-612h-174v1505z" />
    <glyph glyph-name="i" unicode="i" 
d="M307 938v143h434v-938h293v-143h-762v143h295v795h-260zM514 1489h227v-182h-227v182z" />
    <glyph glyph-name="j" unicode="j" 
d="M287 938v143h493v-1116q0 -174 -106 -269t-299 -95q-106 0 -217 18v141q99 -18 202 -18q129 0 187.5 58t58.5 184v954h-319zM557 1489h227v-182h-227v182z" />
    <glyph glyph-name="k" unicode="k" 
d="M926 1081h221l-535 -483l555 -598h-223l-518 567h-4v-567h-174v1505h174v-891h4z" />
    <glyph glyph-name="l" unicode="l" 
d="M250 1362v143h450v-1210q0 -105 41 -138.5t150 -33.5q75 0 145 12v-127q-81 -20 -184 -20q-94 0 -158 19t-100.5 58.5t-52 93t-15.5 128.5v1075h-276z" />
    <glyph glyph-name="m" unicode="m" 
d="M90 1081h160v-118h4q25 68 82.5 105.5t126.5 37.5q77 0 131 -40t78 -110h4q30 69 90 109.5t141 40.5q71 0 121.5 -28.5t79 -83t41 -123t12.5 -158.5v-713h-166v647q0 79 -4.5 131.5t-17 99t-39 69t-66.5 22.5q-74 0 -116.5 -74t-42.5 -229v-666h-166v666q0 56 -1 89.5
t-5 73t-12 61.5t-21 42t-34 28.5t-50 8.5q-70 0 -117 -86t-47 -250v-633h-166v1081z" />
    <glyph glyph-name="n" unicode="n" 
d="M166 1081h168v-159h2q50 87 139 135.5t201 48.5q181 0 284 -106.5t103 -286.5v-713h-174v647q0 160 -56.5 241t-197.5 81q-57 0 -108.5 -21t-94 -62.5t-67.5 -112t-25 -161.5v-612h-174v1081z" />
    <glyph glyph-name="o" unicode="o" 
d="M1116 543q0 -264 -135 -416t-367 -152t-366.5 152t-134.5 416q0 263 134 413t367 150t367.5 -150t134.5 -413zM942 543q0 196 -82.5 311t-245.5 115t-245 -115t-82 -311t83 -313t244 -117q163 0 245.5 116.5t82.5 313.5z" />
    <glyph glyph-name="p" unicode="p" 
d="M319 150v-549h-174v1480h168v-163h2q59 93 151.5 140.5t195.5 47.5q139 0 243.5 -76t157.5 -203t53 -286t-54.5 -287t-160.5 -203.5t-246 -75.5q-215 0 -331 175h-5zM942 541q0 121 -33 216t-104 153.5t-170 58.5q-152 0 -239 -121t-87 -307t87 -307t239 -121
q99 0 170 59t104 154.5t33 214.5z" />
    <glyph glyph-name="q" unicode="q" 
d="M915 934v147h168v-1480h-174v563h-4q-62 -93 -149.5 -141t-188.5 -48q-105 0 -192 44.5t-144 121.5t-88.5 180.5t-31.5 221.5q0 243 126.5 403t335.5 160q226 0 338 -172h4zM285 543q0 -185 80.5 -307.5t228.5 -122.5q151 0 238.5 122t87.5 308t-87.5 306t-238.5 120
q-100 0 -171.5 -58.5t-104.5 -153.5t-33 -214z" />
    <glyph glyph-name="r" unicode="r" 
d="M1092 1102l-13 -154q-33 8 -161 8q-46 0 -94 -9t-99 -32.5t-90 -58.5t-64.5 -93t-25.5 -130v-633h-174v1081h168v-145h4q24 54 94 94.5t148.5 58t152.5 17.5q125 0 154 -4z" />
    <glyph glyph-name="s" unicode="s" 
d="M975 1047l-45 -134q-123 56 -289 56q-43 0 -79.5 -6.5t-72.5 -22t-56.5 -46.5t-20.5 -75q0 -73 53.5 -113t198.5 -90q72 -25 121.5 -46t96.5 -50t74 -61t43.5 -75t16.5 -97q0 -70 -24 -125t-63.5 -89.5t-94.5 -57t-112.5 -31.5t-121.5 -9q-96 0 -202.5 19.5t-190.5 58.5
l47 137q183 -77 350 -77q54 0 95.5 7.5t76 24.5t52.5 49.5t18 79.5q0 71 -66.5 117t-216.5 96q-164 55 -242.5 125.5t-78.5 188.5q0 79 35 139.5t93.5 95.5t127 52.5t143.5 17.5q210 0 334 -59z" />
    <glyph glyph-name="t" unicode="t" 
d="M172 944v137h287v334h174v-334h422v-137h-422v-649q0 -102 57 -137t174 -35q154 0 193 4v-127q-82 -12 -242 -12q-356 0 -356 299v657h-287z" />
    <glyph glyph-name="u" unicode="u" 
d="M1057 0h-168v160h-2q-50 -87 -139 -136t-201 -49q-181 0 -284 107t-103 287v712h174v-647q0 -159 56.5 -240t197.5 -81q57 0 108.5 21t94 62t67.5 111.5t25 161.5v612h174v-1081z" />
    <glyph glyph-name="v" unicode="v" 
d="M297 1081l317 -931h4l320 931h184l-407 -1081h-203l-406 1081h191z" />
    <glyph glyph-name="w" unicode="w" 
d="M739 948l150 -798h4l135 931h170l-190 -1081h-226l-164 788h-4l-165 -788h-226l-184 1081h178l131 -931h4l152 798h235z" />
    <glyph glyph-name="x" unicode="x" 
d="M1081 1081l-354 -520l371 -561h-199l-283 446l-290 -446h-195l379 557l-348 524h196l265 -415l268 415h190z" />
    <glyph glyph-name="y" unicode="y" 
d="M299 1081l322 -870h4l319 870h184l-589 -1480h-183l170 417l-417 1063h190z" />
    <glyph glyph-name="z" unicode="z" 
d="M207 125l596 819h-555v137h753v-131l-591 -813h612v-137h-815v125z" />
    <glyph glyph-name="braceleft" unicode="{" 
d="M313 555v125q43 5 72.5 20t47.5 36t28 57t13 75t3 99v370q0 143 71 219t193 76h172v-112h-131q-79 0 -117 -47.5t-38 -161.5v-348q0 -153 -45.5 -231.5t-153.5 -110.5v-5q109 -35 154 -113t45 -229v-350q0 -114 38 -162.5t117 -48.5h131v-112h-172q-121 0 -192.5 77
t-71.5 222v368q0 148 -30.5 210.5t-133.5 76.5z" />
    <glyph glyph-name="bar" unicode="|" 
d="M547 1505h133v-1904h-133v1904z" />
    <glyph glyph-name="braceright" unicode="}" 
d="M913 678v-125q-44 -6 -73.5 -21t-48 -36t-28 -57.5t-12.5 -75t-3 -99.5v-368q0 -143 -71 -219t-192 -76h-172v112h129q78 0 117 48t39 161v348q0 152 46 231t153 111v2q-108 37 -153.5 115t-45.5 229v351q0 113 -39 161t-117 48h-129v114h172q121 0 192 -77t71 -222v-368
q0 -61 3 -99.5t12.5 -75t28 -57.5t48 -35.5t73.5 -19.5z" />
    <glyph glyph-name="asciitilde" unicode="~" 
d="M856 645q149 6 236 100v-141q-47 -42 -116.5 -65t-146.5 -23q-64 0 -127 20t-106 43.5t-101 43.5t-112 20q-77 0 -141 -28t-105 -72v141q94 88 262 88q65 0 128.5 -20t107 -43.5t103.5 -43.5t118 -20z" />
    <glyph glyph-name="uni00A0" unicode="&#xa0;" 
 />
    <glyph glyph-name="exclamdown" unicode="&#xa1;" 
d="M510 -381l35 1055h137l35 -1055h-207zM713 1081v-196h-199v196h199z" />
    <glyph glyph-name="cent" unicode="&#xa2;" 
d="M1014 1067l-39 -139q-88 38 -187 41v-856q103 3 195 45l29 -138q-113 -42 -224 -45v-112h-131v121q-142 21 -243 98.5t-150 194t-49 262.5q0 222 118.5 374t323.5 185v131h131v-123q122 -3 226 -39zM389 539q0 -153 70 -265.5t198 -146.5v827q-128 -36 -198 -148.5
t-70 -266.5z" />
    <glyph glyph-name="sterling" unicode="&#xa3;" 
d="M1049 1427l-58 -147q-92 57 -211 57q-134 0 -196 -80.5t-62 -212.5v-217h322v-120h-322v-557h576v-150h-969v150h215v557h-201v120h201v230q0 197 115.5 313.5t320.5 116.5q162 0 269 -60z" />
    <glyph glyph-name="currency" unicode="&#xa4;" 
d="M616 463q83 0 138 57.5t55 145.5q0 86 -55.5 143t-137.5 57t-138 -57t-56 -143q0 -88 55.5 -145.5t138.5 -57.5zM143 1020l119 117l166 -166q84 49 188 49q102 0 189 -49l166 166l112 -115l-163 -164q55 -86 55 -192q0 -108 -53 -191l161 -162l-116 -116l-162 161
q-80 -51 -189 -51q-106 0 -192 55l-166 -165l-115 114l166 164q-53 83 -53 191q0 106 51 188z" />
    <glyph glyph-name="yen" unicode="&#xa5;" 
d="M176 424h352v182h-352v121h313l-430 735h189l375 -686l364 686h182l-426 -735h310v-121h-353v-182h353v-121h-353v-303h-172v303h-352v121z" />
    <glyph glyph-name="brokenbar" unicode="&#xa6;" 
d="M547 1505h133v-753h-133v753zM547 352h133v-751h-133v751z" />
    <glyph glyph-name="section" unicode="&#xa7;" 
d="M238 -246l53 144q62 -32 149 -53t152 -21q250 0 250 188q0 77 -61 130t-249 137q-70 30 -113 51.5t-88 53t-69 63.5t-39.5 77.5t-15.5 102.5q0 103 58 170t155 100q-42 23 -75.5 53.5t-61 85.5t-27.5 121q0 74 24.5 132t65.5 94.5t97 60.5t115 33.5t124 9.5
q73 0 149 -13.5t123 -35.5l-49 -148q-35 20 -101.5 34.5t-123.5 14.5q-252 0 -252 -176q0 -82 62.5 -133t220.5 -121q85 -39 140 -71t101 -73t67 -91t21 -113q0 -193 -184 -276q158 -87 158 -265q0 -76 -24 -136t-64.5 -98.5t-96.5 -63.5t-116.5 -35.5t-128.5 -10.5
q-85 0 -183.5 22.5t-162.5 55.5zM674 760l-131 59q-74 -11 -125 -58t-51 -122q0 -79 46.5 -122.5t178.5 -102.5l143 -64q67 23 107.5 70.5t40.5 116.5q0 43 -15.5 77.5t-47 61t-64.5 45t-82 39.5z" />
    <glyph glyph-name="dieresis" unicode="&#xa8;" 
d="M520 1475v-193h-176v193h176zM883 1475v-193h-174v193h174z" />
    <glyph glyph-name="copyright" unicode="&#xa9;" 
d="M141 727q0 -178 53 -320.5t163 -229.5t261 -87q149 0 257.5 87t161.5 229.5t53 320.5q0 180 -53 324.5t-161.5 233.5t-257.5 89q-114 0 -206 -51t-150.5 -140t-89.5 -205.5t-31 -250.5zM20 727q0 212 69.5 381.5t207 271t321.5 101.5q137 0 249.5 -58.5t186.5 -161
t114 -239.5t40 -295q0 -156 -40 -291.5t-114 -236.5t-186.5 -159t-249.5 -58q-111 0 -207 37.5t-167.5 105.5t-122 161t-76 205t-25.5 236zM838 1157l-33 -119q-82 35 -148 35q-61 0 -105.5 -27t-70 -75.5t-37.5 -108t-12 -131.5q0 -94 21 -166.5t73 -120t129 -47.5
q91 0 164 37l29 -119q-82 -43 -209 -43q-168 0 -261 126.5t-93 332.5q0 137 38.5 239.5t120.5 163t201 60.5q126 0 193 -37z" />
    <glyph glyph-name="ordfeminine" unicode="&#xaa;" 
d="M731 1169v19q0 129 -139 129q-91 0 -176 -43l-27 110q88 43 215 43q270 0 270 -237v-281q0 -91 9 -147h-129q-9 52 -9 84h-4q-58 -98 -211 -98q-87 0 -147.5 47t-60.5 145q0 69 31.5 115.5t91 70.5t127.5 33.5t159 9.5zM729 1075h-22q-244 0 -244 -127q0 -96 102 -96
q80 0 122 57t42 129v37z" />
    <glyph glyph-name="guillemotleft" unicode="&#xab;" 
d="M666 999l-328 -389l328 -391h-160l-326 385v10l332 385h154zM1047 999l-328 -389l328 -391h-160l-326 385v10l332 385h154z" />
    <glyph glyph-name="logicalnot" unicode="&#xac;" 
d="M965 799h-828v121h955v-553h-127v432z" />
    <glyph glyph-name="uni00AD" unicode="&#xad;" 
d="M317 545v141h596v-141h-596z" />
    <glyph glyph-name="registered" unicode="&#xae;" 
d="M180 1075q0 183 122.5 306.5t313.5 123.5t312 -123.5t121 -306.5q0 -184 -121 -307t-312 -123t-313.5 123t-122.5 307zM250 1075q0 -156 101 -261t265 -105q161 0 263 105.5t102 260.5q0 154 -102 259.5t-263 105.5q-164 0 -265 -105t-101 -260zM444 827v498h199
q76 0 118 -28.5t42 -100.5q0 -95 -92 -121v-2q49 -12 71 -90q9 -30 26 -82.5t23 -73.5h-92q-1 4 -39 136q-11 45 -31 60t-75 15h-59v-211h-91zM535 1262v-160h79q103 0 103 82q0 46 -26 62t-70 16h-86z" />
    <glyph glyph-name="macron" unicode="&#xaf;" 
d="M877 1438v-131h-527v131h527z" />
    <glyph glyph-name="degree" unicode="&#xb0;" 
d="M621 1485q114 0 196 -84t82 -201q0 -120 -83 -203.5t-202 -83.5t-202.5 84t-83.5 205q0 118 85.5 200.5t207.5 82.5zM612 1386q-75 0 -128.5 -54.5t-53.5 -131.5q0 -78 53.5 -132t130.5 -54t131 54.5t54 133.5q0 77 -55 130.5t-132 53.5z" />
    <glyph glyph-name="plusminus" unicode="&#xb1;" 
d="M1092 158h-955v127h955v-127zM549 412v315h-412v129h412v315h135v-315h408v-129h-408v-315h-135z" />
    <glyph glyph-name="twosuperior" unicode="&#xb2;" 
d="M899 999v-122h-569v135q169 148 254 236t118 146.5t33 118.5q0 62 -37.5 98t-103.5 36q-103 0 -203 -70l-53 106q117 86 264 86q131 0 206 -66t75 -187q0 -41 -7.5 -76.5t-30.5 -74.5t-47.5 -71.5t-76.5 -83.5t-97.5 -93t-129.5 -116v-2h405z" />
    <glyph glyph-name="threesuperior" unicode="&#xb3;" 
d="M442 1270v114h107q88 0 139 36.5t51 103.5q0 59 -42.5 93t-110.5 34q-99 0 -201 -54l-39 117q110 55 252 55q125 0 207 -58t82 -169q0 -75 -42 -128.5t-124 -76.5v-4q87 -19 137.5 -75.5t50.5 -131.5q0 -129 -90.5 -196.5t-230.5 -67.5q-155 0 -271 58l45 118
q97 -53 222 -53q81 0 128.5 35.5t47.5 107.5q0 74 -58.5 108t-152.5 34h-107z" />
    <glyph glyph-name="acute" unicode="&#xb4;" 
d="M801 1573l-248 -336h-125l186 336h187z" />
    <glyph glyph-name="mu" unicode="&#xb5;" 
d="M877 170h-3q-44 -94 -127.5 -144.5t-195.5 -50.5q-69 0 -129.5 19.5t-79.5 46.5h-4v-440h-174v1480h174v-647q0 -160 56 -240.5t196 -80.5q121 0 198.5 88.5t77.5 267.5v612h174v-833q0 -74 22 -99.5t73 -25.5q29 0 43 2v-129q-48 -10 -105 -10q-176 0 -196 184z" />
    <glyph glyph-name="paragraph" unicode="&#xb6;" 
d="M1081 1462v-1702h-135v1592h-254v-1592h-135v904q-186 0 -306 108.5t-120 271.5q0 197 124.5 307.5t340.5 110.5h485z" />
    <glyph glyph-name="periodcentered" unicode="&#xb7;" 
d="M471 465v309h289v-309h-289z" />
    <glyph glyph-name="cedilla" unicode="&#xb8;" 
d="M598 20l-27 -139q32 4 54 4q69 0 118.5 -38.5t49.5 -108.5q0 -86 -67.5 -131t-164.5 -45q-75 0 -127 12l10 92q35 -6 101 -6q123 0 123 70q0 67 -113 67q-36 0 -94 -4l31 227h106z" />
    <glyph glyph-name="onesuperior" unicode="&#xb9;" 
d="M383 993h195v621l-179 -109l-53 107l236 143h143v-762h178v-116h-520v116z" />
    <glyph glyph-name="ordmasculine" unicode="&#xba;" 
d="M934 1087q0 -157 -86.5 -248t-233.5 -91q-146 0 -231.5 91t-85.5 248q0 158 85 249t232 91q148 0 234 -91t86 -249zM786 1087q0 108 -43 170t-129 62t-129 -62t-43 -170q0 -106 45.5 -168.5t126.5 -62.5q86 0 129 61.5t43 169.5z" />
    <glyph glyph-name="guillemotright" unicode="&#xbb;" 
d="M561 219l328 391l-328 389h160l326 -385v-10l-334 -385h-152zM180 219l328 391l-328 389h160l326 -385v-10l-334 -385h-152z" />
    <glyph glyph-name="onequarter" unicode="&#xbc;" 
d="M98 864h154v484l-139 -84l-45 90l190 114h117v-604h141v-98h-418v98zM1114 1462l-807 -1462h-102l807 1462h102zM1069 702v-446h90v-100h-90v-156h-117v156h-315v112l278 434h154zM952 256v336h-2l-205 -336h207z" />
    <glyph glyph-name="onehalf" unicode="&#xbd;" 
d="M98 864h154v484l-139 -84l-45 90l190 114h117v-604h141v-98h-418v98zM1114 1462l-807 -1462h-102l807 1462h102zM1180 102v-102h-457v111q193 168 257 249t64 148q0 47 -29 75.5t-79 28.5q-79 0 -162 -57l-45 90q96 70 213 70q105 0 165 -54t60 -153q0 -62 -31.5 -119.5
t-90.5 -117.5t-183 -169h318z" />
    <glyph glyph-name="threequarters" unicode="&#xbe;" 
d="M182 1077v97h86q69 0 109.5 28t40.5 80q0 46 -33.5 73t-87.5 27q-77 0 -160 -45l-33 99q92 45 203 45q100 0 167 -48t67 -137q0 -124 -131 -161v-2q72 -14 109.5 -59.5t37.5 -106.5q0 -104 -73 -158.5t-185 -54.5q-121 0 -217 47l37 98q82 -43 178 -43q63 0 100 27.5
t37 85.5q0 57 -46 82.5t-120 25.5h-86zM1114 1462l-807 -1462h-102l807 1462h102zM1069 702v-446h90v-100h-90v-156h-117v156h-315v112l278 434h154zM952 256v336h-2l-205 -336h207z" />
    <glyph glyph-name="questiondown" unicode="&#xbf;" 
d="M610 657v60h160v-72q0 -131 -41 -213.5t-139 -165.5l-64 -53q-64 -54 -97.5 -114t-33.5 -138q0 -62 22 -106.5t62 -68t85.5 -34t101.5 -10.5q149 0 286 82l54 -135q-161 -95 -359 -95q-69 0 -129 11t-115.5 37.5t-95 67t-63 103t-23.5 142.5q0 129 55.5 217t159.5 168
q69 54 102 90t52.5 91t19.5 136zM788 1081v-196h-206v196h206z" />
    <glyph glyph-name="Agrave" unicode="&#xc0;" 
d="M365 438l-125 -438h-174l442 1462h213l442 -1462h-176l-129 438h-493zM612 1327l-213 -739h424zM352 1837h197l156 -274h-132z" />
    <glyph glyph-name="Aacute" unicode="&#xc1;" 
d="M365 438l-125 -438h-174l442 1462h213l442 -1462h-176l-129 438h-493zM612 1327l-213 -739h424zM881 1837l-228 -274h-129l160 274h197z" />
    <glyph glyph-name="Acircumflex" unicode="&#xc2;" 
d="M365 438l-125 -438h-174l442 1462h213l442 -1462h-176l-129 438h-493zM612 1327l-213 -739h424zM944 1548h-143l-189 201l-186 -201h-145l241 299h178z" />
    <glyph glyph-name="Atilde" unicode="&#xc3;" 
d="M365 438l-125 -438h-174l442 1462h213l442 -1462h-176l-129 438h-493zM612 1327l-213 -739h424zM635 1755q46 -37 69 -49t48 -12q72 0 82 133h124q-8 -119 -57 -189.5t-141 -70.5q-49 0 -83 15t-87 56q-46 37 -70 49.5t-47 12.5q-76 0 -82 -133h-125q8 119 57 189.5
t142 70.5q48 0 83.5 -15.5t86.5 -56.5z" />
    <glyph glyph-name="Adieresis" unicode="&#xc4;" 
d="M365 438l-125 -438h-174l442 1462h213l442 -1462h-176l-129 438h-493zM612 1327l-213 -739h424zM520 1810v-192h-176v192h176zM883 1810v-192h-174v192h174z" />
    <glyph glyph-name="Aring" unicode="&#xc5;" 
d="M365 438l-125 -438h-174l442 1462h213l442 -1462h-176l-129 438h-493zM612 1327l-213 -739h424zM616 1942q84 0 144.5 -62.5t60.5 -146.5q0 -86 -60.5 -146.5t-146.5 -60.5q-88 0 -149.5 60.5t-61.5 146.5q0 88 62 148.5t151 60.5zM612 1855q-51 0 -87 -35.5t-36 -86.5
t36.5 -87t88.5 -36q51 0 86 36t35 87q0 52 -36 87t-87 35z" />
    <glyph glyph-name="AE" unicode="&#xc6;" 
d="M649 0v397h-315l-129 -397h-176l499 1462h646v-145h-359v-492h309v-145h-309v-535h375v-145h-541zM639 1327l-256 -780h266v780h-10z" />
    <glyph glyph-name="Ccedilla" unicode="&#xc7;" 
d="M1112 1436l-53 -158q-105 59 -258 59q-208 0 -331.5 -169t-123.5 -441q0 -167 54.5 -303t159 -217.5t241.5 -81.5q164 0 276 51l35 -149q-149 -52 -326 -52l-18 -94q32 4 53 4q69 0 118.5 -38.5t49.5 -108.5q0 -86 -67 -131t-164 -45q-74 0 -127 12l10 92q35 -6 100 -6
q123 0 123 70q0 37 -28 52t-84 15q-37 0 -95 -4l27 191q-244 38 -379 239.5t-135 505.5q0 222 71.5 391.5t215.5 268t342 98.5q180 0 313 -51z" />
    <glyph glyph-name="Egrave" unicode="&#xc8;" 
d="M217 0v1462h848v-149h-670v-486h621v-149h-621v-528h686v-150h-864zM395 1837h197l156 -274h-132z" />
    <glyph glyph-name="Eacute" unicode="&#xc9;" 
d="M217 0v1462h848v-149h-670v-486h621v-149h-621v-528h686v-150h-864zM926 1837l-228 -274h-129l160 274h197z" />
    <glyph glyph-name="Ecircumflex" unicode="&#xca;" 
d="M217 0v1462h848v-149h-670v-486h621v-149h-621v-528h686v-150h-864zM981 1548h-143l-189 201l-186 -201h-146l242 299h178z" />
    <glyph glyph-name="Edieresis" unicode="&#xcb;" 
d="M217 0v1462h848v-149h-670v-486h621v-149h-621v-528h686v-150h-864zM563 1810v-192h-176v192h176zM926 1810v-192h-174v192h174z" />
    <glyph glyph-name="Igrave" unicode="&#xcc;" 
d="M233 1319v143h762v-143h-290v-1176h290v-143h-762v143h293v1176h-293zM346 1837h197l155 -274h-131z" />
    <glyph glyph-name="Iacute" unicode="&#xcd;" 
d="M233 1319v143h762v-143h-290v-1176h290v-143h-762v143h293v1176h-293zM897 1837l-227 -274h-129l159 274h197z" />
    <glyph glyph-name="Icircumflex" unicode="&#xce;" 
d="M233 1319v143h762v-143h-290v-1176h290v-143h-762v143h293v1176h-293zM946 1548h-143l-189 201l-186 -201h-145l241 299h178z" />
    <glyph glyph-name="Idieresis" unicode="&#xcf;" 
d="M233 1319v143h762v-143h-290v-1176h290v-143h-762v143h293v1176h-293zM520 1810v-192h-176v192h176zM883 1810v-192h-174v192h174z" />
    <glyph glyph-name="Eth" unicode="&#xd0;" 
d="M16 698v109h131v655h322q335 0 515.5 -194t180.5 -537q0 -344 -180.5 -537.5t-515.5 -193.5h-322v698h-131zM326 1313v-506h260v-109h-260v-548h116q274 0 409.5 150.5t135.5 430.5q0 278 -135.5 430t-409.5 152h-116z" />
    <glyph glyph-name="Ntilde" unicode="&#xd1;" 
d="M422 1462l493 -1274h5v1274h167v-1462h-274l-500 1284h-4v-1284h-168v1462h281zM639 1755q46 -37 69 -49t48 -12q72 0 82 133h125q-8 -119 -57.5 -189.5t-141.5 -70.5q-49 0 -83 15t-87 56q-46 37 -70 49.5t-47 12.5q-76 0 -82 -133h-125q8 119 57 189.5t142 70.5
q48 0 83.5 -15.5t86.5 -56.5z" />
    <glyph glyph-name="Ograve" unicode="&#xd2;" 
d="M1174 729q0 -167 -34 -303.5t-102 -238.5t-176.5 -158t-249.5 -56q-112 0 -204 36.5t-157 103t-109.5 161t-65.5 208.5t-21 247q0 168 33.5 305t100 239.5t174.5 159t249 56.5q143 0 251.5 -56.5t176 -159t101 -239.5t33.5 -305zM997 729q0 129 -22 236.5t-67 192
t-120.5 132t-175.5 47.5q-98 0 -172.5 -47.5t-118.5 -132t-66 -192t-22 -236.5q0 -128 21.5 -234.5t66 -190t119 -130.5t172.5 -47q100 0 175.5 47t120.5 130.5t67 190t22 234.5zM354 1837h197l156 -274h-132z" />
    <glyph glyph-name="Oacute" unicode="&#xd3;" 
d="M1174 729q0 -167 -34 -303.5t-102 -238.5t-176.5 -158t-249.5 -56q-112 0 -204 36.5t-157 103t-109.5 161t-65.5 208.5t-21 247q0 168 33.5 305t100 239.5t174.5 159t249 56.5q143 0 251.5 -56.5t176 -159t101 -239.5t33.5 -305zM997 729q0 129 -22 236.5t-67 192
t-120.5 132t-175.5 47.5q-98 0 -172.5 -47.5t-118.5 -132t-66 -192t-22 -236.5q0 -128 21.5 -234.5t66 -190t119 -130.5t172.5 -47q100 0 175.5 47t120.5 130.5t67 190t22 234.5zM862 1837l-227 -274h-129l160 274h196z" />
    <glyph glyph-name="Ocircumflex" unicode="&#xd4;" 
d="M1174 729q0 -167 -34 -303.5t-102 -238.5t-176.5 -158t-249.5 -56q-112 0 -204 36.5t-157 103t-109.5 161t-65.5 208.5t-21 247q0 168 33.5 305t100 239.5t174.5 159t249 56.5q143 0 251.5 -56.5t176 -159t101 -239.5t33.5 -305zM997 729q0 129 -22 236.5t-67 192
t-120.5 132t-175.5 47.5q-98 0 -172.5 -47.5t-118.5 -132t-66 -192t-22 -236.5q0 -128 21.5 -234.5t66 -190t119 -130.5t172.5 -47q100 0 175.5 47t120.5 130.5t67 190t22 234.5zM946 1548h-143l-189 201l-186 -201h-145l241 299h178z" />
    <glyph glyph-name="Otilde" unicode="&#xd5;" 
d="M1174 729q0 -167 -34 -303.5t-102 -238.5t-176.5 -158t-249.5 -56q-112 0 -204 36.5t-157 103t-109.5 161t-65.5 208.5t-21 247q0 168 33.5 305t100 239.5t174.5 159t249 56.5q143 0 251.5 -56.5t176 -159t101 -239.5t33.5 -305zM997 729q0 129 -22 236.5t-67 192
t-120.5 132t-175.5 47.5q-98 0 -172.5 -47.5t-118.5 -132t-66 -192t-22 -236.5q0 -128 21.5 -234.5t66 -190t119 -130.5t172.5 -47q100 0 175.5 47t120.5 130.5t67 190t22 234.5zM637 1755q46 -37 69 -49t48 -12q72 0 82 133h125q-8 -119 -57.5 -189.5t-141.5 -70.5
q-49 0 -83 15t-87 56q-46 37 -70 49.5t-47 12.5q-76 0 -82 -133h-125q8 119 57 189.5t142 70.5q48 0 83.5 -15.5t86.5 -56.5z" />
    <glyph glyph-name="Odieresis" unicode="&#xd6;" 
d="M1174 729q0 -167 -34 -303.5t-102 -238.5t-176.5 -158t-249.5 -56q-112 0 -204 36.5t-157 103t-109.5 161t-65.5 208.5t-21 247q0 168 33.5 305t100 239.5t174.5 159t249 56.5q143 0 251.5 -56.5t176 -159t101 -239.5t33.5 -305zM997 729q0 129 -22 236.5t-67 192
t-120.5 132t-175.5 47.5q-98 0 -172.5 -47.5t-118.5 -132t-66 -192t-22 -236.5q0 -128 21.5 -234.5t66 -190t119 -130.5t172.5 -47q100 0 175.5 47t120.5 130.5t67 190t22 234.5zM520 1810v-192h-176v192h176zM883 1810v-192h-174v192h174z" />
    <glyph glyph-name="multiply" unicode="&#xd7;" 
d="M1092 1014l-383 -383l383 -383l-93 -94l-383 383l-383 -383l-96 94l383 383l-383 383l96 94l383 -383l383 383z" />
    <glyph glyph-name="Oslash" unicode="&#xd8;" 
d="M1141 1442l-105 -164q138 -198 138 -549q0 -167 -34 -303.5t-102 -238.5t-176.5 -158t-249.5 -56q-203 0 -338 119l-94 -147l-98 61l113 176q-140 198 -140 547q0 168 33.5 305t100 239.5t174.5 159t249 56.5q207 0 342 -119l88 135zM233 729q0 -230 66 -383l563 879
q-98 112 -250 112q-98 0 -172.5 -47.5t-118.5 -132t-66 -192t-22 -236.5zM997 729q0 227 -67 385l-563 -876q94 -111 245 -111q100 0 175.5 47t120.5 130.5t67 190t22 234.5z" />
    <glyph glyph-name="Ugrave" unicode="&#xd9;" 
d="M1112 1462v-1030q0 -207 -127 -332t-371 -125q-241 0 -368 125t-127 332v1030h178v-1011q0 -165 72.5 -245.5t242.5 -80.5q322 0 322 326v1011h178zM346 1837h197l155 -274h-131z" />
    <glyph glyph-name="Uacute" unicode="&#xda;" 
d="M1112 1462v-1030q0 -207 -127 -332t-371 -125q-241 0 -368 125t-127 332v1030h178v-1011q0 -165 72.5 -245.5t242.5 -80.5q322 0 322 326v1011h178zM877 1837l-228 -274h-129l160 274h197z" />
    <glyph glyph-name="Ucircumflex" unicode="&#xdb;" 
d="M1112 1462v-1030q0 -207 -127 -332t-371 -125q-241 0 -368 125t-127 332v1030h178v-1011q0 -165 72.5 -245.5t242.5 -80.5q322 0 322 326v1011h178zM944 1548h-143l-189 201l-186 -201h-145l241 299h178z" />
    <glyph glyph-name="Udieresis" unicode="&#xdc;" 
d="M1112 1462v-1030q0 -207 -127 -332t-371 -125q-241 0 -368 125t-127 332v1030h178v-1011q0 -165 72.5 -245.5t242.5 -80.5q322 0 322 326v1011h178zM518 1810v-192h-176v192h176zM881 1810v-192h-174v192h174z" />
    <glyph glyph-name="Yacute" unicode="&#xdd;" 
d="M522 0v551l-493 911h211l374 -741l381 741h199l-494 -911v-551h-178zM895 1837l-227 -274h-129l159 274h197z" />
    <glyph glyph-name="Thorn" unicode="&#xde;" 
d="M354 1462v-252h279q103 0 186 -20.5t152 -66.5t107 -128.5t38 -197.5q0 -94 -25.5 -169t-69.5 -124.5t-105.5 -82t-131 -47t-149.5 -14.5h-281v-360h-178v1462h178zM354 1061v-551h264q320 0 320 281q0 66 -17.5 115t-46.5 78.5t-74 47t-92 23.5t-108 6h-246z" />
    <glyph glyph-name="germandbls" unicode="&#xdf;" 
d="M631 1505q90 0 167.5 -24t137.5 -71t94.5 -123t34.5 -173q0 -146 -82 -235.5t-223 -108.5v-4q59 -5 111.5 -19.5t102 -43.5t85 -70t57 -102t21.5 -136q0 -90 -24 -162t-65 -119.5t-96.5 -79.5t-115 -45.5t-125.5 -13.5q-135 0 -236 39l33 133q94 -34 203 -34
q115 0 183.5 71t68.5 203t-90 211.5t-277 79.5v149q136 9 215.5 76.5t79.5 192.5q0 130 -75 195t-189 65q-149 0 -228.5 -85t-79.5 -284v-987h-174v1010q0 110 26.5 196t71.5 141.5t108.5 91.5t132 51t147.5 15z" />
    <glyph glyph-name="agrave" unicode="&#xe0;" 
d="M850 674v31q0 134 -64.5 199t-197.5 65q-140 0 -277 -64l-39 137q154 64 324 64q203 0 315.5 -97.5t112.5 -289.5v-473q0 -140 20 -246h-153q-19 72 -25 162h-4q-47 -83 -134.5 -135t-211.5 -52q-69 0 -131 19.5t-113.5 57.5t-81.5 102t-30 147q0 91 37 158t98 107.5
t153 65.5t187 33.5t215 8.5zM850 549h-49q-79 0 -143.5 -5.5t-128 -21.5t-106 -42t-69 -69.5t-26.5 -101.5q0 -89 49 -142.5t149 -53.5q154 0 239 99.5t85 244.5v92zM610 1237l-248 336h187l186 -336h-125z" />
    <glyph glyph-name="aacute" unicode="&#xe1;" 
d="M850 674v31q0 134 -64.5 199t-197.5 65q-140 0 -277 -64l-39 137q154 64 324 64q203 0 315.5 -97.5t112.5 -289.5v-473q0 -140 20 -246h-153q-19 72 -25 162h-4q-47 -83 -134.5 -135t-211.5 -52q-69 0 -131 19.5t-113.5 57.5t-81.5 102t-30 147q0 91 37 158t98 107.5
t153 65.5t187 33.5t215 8.5zM850 549h-49q-79 0 -143.5 -5.5t-128 -21.5t-106 -42t-69 -69.5t-26.5 -101.5q0 -89 49 -142.5t149 -53.5q154 0 239 99.5t85 244.5v92zM893 1573l-248 -336h-125l187 336h186z" />
    <glyph glyph-name="acircumflex" unicode="&#xe2;" 
d="M850 674v31q0 134 -64.5 199t-197.5 65q-140 0 -277 -64l-39 137q154 64 324 64q203 0 315.5 -97.5t112.5 -289.5v-473q0 -140 20 -246h-153q-19 72 -25 162h-4q-47 -83 -134.5 -135t-211.5 -52q-69 0 -131 19.5t-113.5 57.5t-81.5 102t-30 147q0 91 37 158t98 107.5
t153 65.5t187 33.5t215 8.5zM850 549h-49q-79 0 -143.5 -5.5t-128 -21.5t-106 -42t-69 -69.5t-26.5 -101.5q0 -89 49 -142.5t149 -53.5q154 0 239 99.5t85 244.5v92zM958 1237h-143l-188 238l-187 -238h-145l242 336h178z" />
    <glyph glyph-name="atilde" unicode="&#xe3;" 
d="M850 674v31q0 134 -64.5 199t-197.5 65q-140 0 -277 -64l-39 137q154 64 324 64q203 0 315.5 -97.5t112.5 -289.5v-473q0 -140 20 -246h-153q-19 72 -25 162h-4q-47 -83 -134.5 -135t-211.5 -52q-69 0 -131 19.5t-113.5 57.5t-81.5 102t-30 147q0 91 37 158t98 107.5
t153 65.5t187 33.5t215 8.5zM850 549h-49q-79 0 -143.5 -5.5t-128 -21.5t-106 -42t-69 -69.5t-26.5 -101.5q0 -89 49 -142.5t149 -53.5q154 0 239 99.5t85 244.5v92zM649 1450q48 -38 70.5 -51t46.5 -13q72 0 82 134h125q-8 -117 -57.5 -187.5t-141.5 -70.5q-49 0 -84 14.5
t-86 54.5q-47 38 -70.5 51t-46.5 13q-75 0 -81 -133h-125q8 118 57 188t141 70q48 0 83.5 -15t86.5 -55z" />
    <glyph glyph-name="adieresis" unicode="&#xe4;" 
d="M850 674v31q0 134 -64.5 199t-197.5 65q-140 0 -277 -64l-39 137q154 64 324 64q203 0 315.5 -97.5t112.5 -289.5v-473q0 -140 20 -246h-153q-19 72 -25 162h-4q-47 -83 -134.5 -135t-211.5 -52q-69 0 -131 19.5t-113.5 57.5t-81.5 102t-30 147q0 91 37 158t98 107.5
t153 65.5t187 33.5t215 8.5zM850 549h-49q-79 0 -143.5 -5.5t-128 -21.5t-106 -42t-69 -69.5t-26.5 -101.5q0 -89 49 -142.5t149 -53.5q154 0 239 99.5t85 244.5v92zM535 1475v-193h-177v193h177zM897 1475v-193h-174v193h174z" />
    <glyph glyph-name="aring" unicode="&#xe5;" 
d="M850 674v31q0 134 -64.5 199t-197.5 65q-140 0 -277 -64l-39 137q154 64 324 64q203 0 315.5 -97.5t112.5 -289.5v-473q0 -140 20 -246h-153q-19 72 -25 162h-4q-47 -83 -134.5 -135t-211.5 -52q-69 0 -131 19.5t-113.5 57.5t-81.5 102t-30 147q0 91 37 158t98 107.5
t153 65.5t187 33.5t215 8.5zM850 549h-49q-79 0 -143.5 -5.5t-128 -21.5t-106 -42t-69 -69.5t-26.5 -101.5q0 -89 49 -142.5t149 -53.5q154 0 239 99.5t85 244.5v92zM637 1632q84 0 144.5 -61.5t60.5 -145.5q0 -87 -60 -147.5t-147 -60.5q-88 0 -149.5 60.5t-61.5 147.5
q0 86 62 146.5t151 60.5zM633 1546q-51 0 -87 -35.5t-36 -85.5q0 -53 36 -89t89 -36q51 0 86 36t35 89q0 51 -36 86t-87 35z" />
    <glyph glyph-name="ae" unicode="&#xe6;" 
d="M920 106q79 0 178 52l24 -125q-92 -58 -213 -58q-206 0 -284 191h-4q-71 -191 -277 -191q-111 0 -186.5 82t-75.5 228q0 73 18 131t51.5 97t75.5 66t96.5 41.5t108.5 20.5t117 6v58q0 266 -180 266q-89 0 -181 -53l-34 129q106 59 223 59q208 0 260 -162h4
q30 77 92 119.5t137 42.5q147 0 217 -119t70 -366v-111h-457q0 -97 12.5 -170t32.5 -117t49 -71t59 -36.5t67 -9.5zM549 524h-31q-62 0 -109.5 -10t-87.5 -34.5t-61.5 -71.5t-21.5 -115q0 -90 37 -137t96 -47q178 0 178 368v47zM864 973q-159 0 -159 -332h307v14
q0 318 -148 318z" />
    <glyph glyph-name="ccedilla" unicode="&#xe7;" 
d="M1061 1061l-39 -137q-99 45 -223 45q-203 0 -309.5 -120t-106.5 -310q0 -90 25.5 -166.5t75 -135t130.5 -91.5t185 -33q127 0 227 45l29 -138q-117 -45 -258 -45q-34 0 -54 2l-18 -96q32 4 53 4q69 0 118.5 -38.5t49.5 -108.5q0 -86 -67 -131t-164 -45q-75 0 -127 12
l10 92q35 -6 100 -6q123 0 123 70q0 37 -28 52t-84 15q-37 0 -95 -4l27 197q-143 26 -241.5 104.5t-144.5 191t-46 253.5q0 253 154.5 410t431.5 157q159 0 266 -45z" />
    <glyph glyph-name="egrave" unicode="&#xe8;" 
d="M1092 494h-768q9 -175 111 -278t272 -103q163 0 290 53l29 -133q-134 -58 -324 -58q-260 0 -403 157t-143 407t132.5 408.5t354.5 158.5t335.5 -141t113.5 -387v-84zM645 969q-142 0 -224.5 -91.5t-96.5 -246.5h610v8q0 153 -79 241.5t-210 88.5zM623 1237l-248 336h186
l187 -336h-125z" />
    <glyph glyph-name="eacute" unicode="&#xe9;" 
d="M1092 494h-768q9 -175 111 -278t272 -103q163 0 290 53l29 -133q-134 -58 -324 -58q-260 0 -403 157t-143 407t132.5 408.5t354.5 158.5t335.5 -141t113.5 -387v-84zM645 969q-142 0 -224.5 -91.5t-96.5 -246.5h610v8q0 153 -79 241.5t-210 88.5zM924 1573l-248 -336
h-125l186 336h187z" />
    <glyph glyph-name="ecircumflex" unicode="&#xea;" 
d="M1092 494h-768q9 -175 111 -278t272 -103q163 0 290 53l29 -133q-134 -58 -324 -58q-260 0 -403 157t-143 407t132.5 408.5t354.5 158.5t335.5 -141t113.5 -387v-84zM645 969q-142 0 -224.5 -91.5t-96.5 -246.5h610v8q0 153 -79 241.5t-210 88.5zM983 1237h-143l-189 238
l-186 -238h-146l242 336h178z" />
    <glyph glyph-name="edieresis" unicode="&#xeb;" 
d="M1092 494h-768q9 -175 111 -278t272 -103q163 0 290 53l29 -133q-134 -58 -324 -58q-260 0 -403 157t-143 407t132.5 408.5t354.5 158.5t335.5 -141t113.5 -387v-84zM645 969q-142 0 -224.5 -91.5t-96.5 -246.5h610v8q0 153 -79 241.5t-210 88.5zM561 1475v-193h-176v193
h176zM924 1475v-193h-174v193h174z" />
    <glyph glyph-name="igrave" unicode="&#xec;" 
d="M307 938v143h434v-938h293v-143h-762v143h295v795h-260zM608 1237l-248 336h187l186 -336h-125z" />
    <glyph glyph-name="iacute" unicode="&#xed;" 
d="M307 938v143h434v-938h293v-143h-762v143h295v795h-260zM938 1573l-248 -336h-125l187 336h186z" />
    <glyph glyph-name="icircumflex" unicode="&#xee;" 
d="M307 938v143h434v-938h293v-143h-762v143h295v795h-260zM979 1237h-143l-189 238l-186 -238h-146l242 336h178z" />
    <glyph glyph-name="idieresis" unicode="&#xef;" 
d="M307 938v143h434v-938h293v-143h-762v143h295v795h-260zM553 1475v-193h-176v193h176zM915 1475v-193h-174v193h174z" />
    <glyph glyph-name="eth" unicode="&#xf0;" 
d="M948 496q0 174 -88 277.5t-244 103.5q-155 0 -242 -103.5t-87 -277.5q0 -176 87 -279.5t242 -103.5q156 0 244 103.5t88 279.5zM991 1348l-135 -60q262 -257 262 -764q0 -252 -130 -400.5t-372 -148.5q-233 0 -368 139.5t-135 381.5t134.5 380t368.5 138q76 0 150.5 -23
t128.5 -63h4q-20 75 -74.5 154.5t-136.5 142.5l-356 -150v129l235 94q-103 51 -229 66l55 141q216 -34 363 -135l235 105v-127z" />
    <glyph glyph-name="ntilde" unicode="&#xf1;" 
d="M166 1081h168v-159h2q50 87 139 135.5t201 48.5q181 0 284 -106.5t103 -286.5v-713h-174v647q0 160 -56.5 241t-197.5 81q-57 0 -108.5 -21t-94 -62.5t-67.5 -112t-25 -161.5v-612h-174v1081zM670 1450q48 -39 70 -51.5t46 -12.5q72 0 82 134h125q-8 -118 -57 -188
t-141 -70q-49 0 -84 14.5t-86 54.5q-47 38 -70.5 51t-46.5 13q-76 0 -82 -133h-125q8 117 57.5 187.5t141.5 70.5q48 0 83.5 -15t86.5 -55z" />
    <glyph glyph-name="ograve" unicode="&#xf2;" 
d="M1116 543q0 -264 -135 -416t-367 -152t-366.5 152t-134.5 416q0 263 134 413t367 150t367.5 -150t134.5 -413zM942 543q0 196 -82.5 311t-245.5 115t-245 -115t-82 -311t83 -313t244 -117q163 0 245.5 116.5t82.5 313.5zM590 1237l-248 336h186l187 -336h-125z" />
    <glyph glyph-name="oacute" unicode="&#xf3;" 
d="M1116 543q0 -264 -135 -416t-367 -152t-366.5 152t-134.5 416q0 263 134 413t367 150t367.5 -150t134.5 -413zM942 543q0 196 -82.5 311t-245.5 115t-245 -115t-82 -311t83 -313t244 -117q163 0 245.5 116.5t82.5 313.5zM883 1573l-248 -336h-125l186 336h187z" />
    <glyph glyph-name="ocircumflex" unicode="&#xf4;" 
d="M1116 543q0 -264 -135 -416t-367 -152t-366.5 152t-134.5 416q0 263 134 413t367 150t367.5 -150t134.5 -413zM942 543q0 196 -82.5 311t-245.5 115t-245 -115t-82 -311t83 -313t244 -117q163 0 245.5 116.5t82.5 313.5zM946 1237h-143l-189 238l-186 -238h-145l241 336
h178z" />
    <glyph glyph-name="otilde" unicode="&#xf5;" 
d="M1116 543q0 -264 -135 -416t-367 -152t-366.5 152t-134.5 416q0 263 134 413t367 150t367.5 -150t134.5 -413zM942 543q0 196 -82.5 311t-245.5 115t-245 -115t-82 -311t83 -313t244 -117q163 0 245.5 116.5t82.5 313.5zM645 1450q48 -38 70.5 -51t46.5 -13q72 0 82 134
h125q-8 -117 -57.5 -187.5t-141.5 -70.5q-49 0 -84 14.5t-86 54.5q-47 38 -70.5 51t-46.5 13q-76 0 -82 -133h-125q8 117 57.5 187.5t141.5 70.5q48 0 83.5 -15t86.5 -55z" />
    <glyph glyph-name="odieresis" unicode="&#xf6;" 
d="M1116 543q0 -264 -135 -416t-367 -152t-366.5 152t-134.5 416q0 263 134 413t367 150t367.5 -150t134.5 -413zM942 543q0 196 -82.5 311t-245.5 115t-245 -115t-82 -311t83 -313t244 -117q163 0 245.5 116.5t82.5 313.5zM520 1475v-193h-176v193h176zM883 1475v-193h-174
v193h174z" />
    <glyph glyph-name="divide" unicode="&#xf7;" 
d="M1092 582h-955v127h955v-127zM709 365v-179h-172v179h172zM709 1100v-178h-172v178h172z" />
    <glyph glyph-name="oslash" unicode="&#xf8;" 
d="M1116 543q0 -264 -135 -416t-367 -152q-194 0 -325 109l-121 -145l-72 61l129 154q-112 145 -112 389q0 263 134 413t367 150q190 0 320 -105l113 136l71 -62l-119 -141q117 -148 117 -391zM942 543q0 158 -51 260l-502 -598q83 -92 225 -92q163 0 245.5 116.5
t82.5 313.5zM287 543q0 -152 49 -256l498 596q-83 86 -220 86q-163 0 -245 -115t-82 -311z" />
    <glyph glyph-name="ugrave" unicode="&#xf9;" 
d="M1057 0h-168v160h-2q-50 -87 -139 -136t-201 -49q-181 0 -284 107t-103 287v712h174v-647q0 -159 56.5 -240t197.5 -81q57 0 108.5 21t94 62t67.5 111.5t25 161.5v612h174v-1081zM575 1237l-247 336h186l186 -336h-125z" />
    <glyph glyph-name="uacute" unicode="&#xfa;" 
d="M1057 0h-168v160h-2q-50 -87 -139 -136t-201 -49q-181 0 -284 107t-103 287v712h174v-647q0 -159 56.5 -240t197.5 -81q57 0 108.5 21t94 62t67.5 111.5t25 161.5v612h174v-1081zM903 1573l-248 -336h-125l187 336h186z" />
    <glyph glyph-name="ucircumflex" unicode="&#xfb;" 
d="M1057 0h-168v160h-2q-50 -87 -139 -136t-201 -49q-181 0 -284 107t-103 287v712h174v-647q0 -159 56.5 -240t197.5 -81q57 0 108.5 21t94 62t67.5 111.5t25 161.5v612h174v-1081zM946 1237h-143l-189 238l-186 -238h-145l241 336h178z" />
    <glyph glyph-name="udieresis" unicode="&#xfc;" 
d="M1057 0h-168v160h-2q-50 -87 -139 -136t-201 -49q-181 0 -284 107t-103 287v712h174v-647q0 -159 56.5 -240t197.5 -81q57 0 108.5 21t94 62t67.5 111.5t25 161.5v612h174v-1081zM520 1475v-193h-176v193h176zM883 1475v-193h-174v193h174z" />
    <glyph glyph-name="yacute" unicode="&#xfd;" 
d="M299 1081l322 -870h4l319 870h184l-589 -1480h-183l170 417l-417 1063h190zM918 1573l-248 -336h-125l186 336h187z" />
    <glyph glyph-name="thorn" unicode="&#xfe;" 
d="M653 -25q-213 0 -329 175h-5v-549h-174v1904h174v-587h5q57 92 146.5 140t191.5 48q139 0 243.5 -75.5t157.5 -202t53 -285.5t-55 -287.5t-161.5 -204.5t-246.5 -76zM942 543q0 184 -80 305t-227 121q-152 0 -239 -120t-87 -306q0 -187 87 -308.5t239 -121.5
q99 0 170 59.5t104 155t33 215.5z" />
    <glyph glyph-name="ydieresis" unicode="&#xff;" 
d="M299 1081l322 -870h4l319 870h184l-589 -1480h-183l170 417l-417 1063h190zM532 1475v-193h-176v193h176zM895 1475v-193h-174v193h174z" />
    <glyph glyph-name="Amacron" unicode="&#x100;" 
d="M365 438l-125 -438h-174l442 1462h213l442 -1462h-176l-129 438h-493zM612 1327l-213 -739h424zM877 1763v-131h-527v131h527z" />
    <glyph glyph-name="amacron" unicode="&#x101;" 
d="M850 674v31q0 134 -64.5 199t-197.5 65q-140 0 -277 -64l-39 137q154 64 324 64q203 0 315.5 -97.5t112.5 -289.5v-473q0 -140 20 -246h-153q-19 72 -25 162h-4q-47 -83 -134.5 -135t-211.5 -52q-69 0 -131 19.5t-113.5 57.5t-81.5 102t-30 147q0 91 37 158t98 107.5
t153 65.5t187 33.5t215 8.5zM850 549h-49q-79 0 -143.5 -5.5t-128 -21.5t-106 -42t-69 -69.5t-26.5 -101.5q0 -89 49 -142.5t149 -53.5q154 0 239 99.5t85 244.5v92zM891 1438v-131h-526v131h526z" />
    <glyph glyph-name="Abreve" unicode="&#x102;" 
d="M365 438l-125 -438h-174l442 1462h213l442 -1462h-176l-129 438h-493zM612 1327l-213 -739h424zM786 1860h138q-11 -291 -312 -291q-155 0 -229.5 81t-79.5 210h137q2 -82 40 -125t132 -43q92 0 129.5 42t44.5 126z" />
    <glyph glyph-name="abreve" unicode="&#x103;" 
d="M850 674v31q0 134 -64.5 199t-197.5 65q-140 0 -277 -64l-39 137q154 64 324 64q203 0 315.5 -97.5t112.5 -289.5v-473q0 -140 20 -246h-153q-19 72 -25 162h-4q-47 -83 -134.5 -135t-211.5 -52q-69 0 -131 19.5t-113.5 57.5t-81.5 102t-30 147q0 91 37 158t98 107.5
t153 65.5t187 33.5t215 8.5zM850 549h-49q-79 0 -143.5 -5.5t-128 -21.5t-106 -42t-69 -69.5t-26.5 -101.5q0 -89 49 -142.5t149 -53.5q154 0 239 99.5t85 244.5v92zM801 1532h137q-11 -291 -311 -291q-155 0 -230 81t-80 210h138q2 -82 40 -125t132 -43q92 0 129.5 42
t44.5 126z" />
    <glyph glyph-name="Aogonek" unicode="&#x104;" 
d="M365 438l-125 -438h-174l442 1462h213l442 -1462h-65q-78 -84 -107.5 -136.5t-29.5 -99.5q0 -79 92 -79q62 0 114 28l17 -98q-64 -35 -158 -35q-82 0 -138.5 39.5t-56.5 118.5q0 66 34 127t122 135l-129 438h-493zM612 1327l-213 -739h424z" />
    <glyph glyph-name="aogonek" unicode="&#x105;" 
d="M850 674v31q0 134 -64.5 199t-197.5 65q-140 0 -277 -64l-39 137q154 64 324 64q203 0 315.5 -97.5t112.5 -289.5v-473q0 -140 20 -246h-59q-78 -84 -107.5 -136.5t-29.5 -99.5q0 -79 92 -79q63 0 115 28l16 -98q-64 -35 -158 -35q-81 0 -137.5 39.5t-56.5 118.5
q0 68 36.5 131t131.5 141q-15 65 -21 152h-4q-47 -83 -134.5 -135t-211.5 -52q-69 0 -131 19.5t-113.5 57.5t-81.5 102t-30 147q0 91 37 158t98 107.5t153 65.5t187 33.5t215 8.5zM850 549h-49q-79 0 -143.5 -5.5t-128 -21.5t-106 -42t-69 -69.5t-26.5 -101.5
q0 -89 49 -142.5t149 -53.5q154 0 239 99.5t85 244.5v92z" />
    <glyph glyph-name="Cacute" unicode="&#x106;" 
d="M1112 1436l-53 -158q-105 59 -258 59q-208 0 -331.5 -169t-123.5 -441q0 -167 54.5 -303t159 -217.5t241.5 -81.5q164 0 276 51l35 -149q-149 -52 -317 -52q-196 0 -339 97t-214.5 266t-71.5 391t71.5 391.5t215.5 268t342 98.5q180 0 313 -51zM1032 1837l-227 -274h-129
l160 274h196z" />
    <glyph glyph-name="cacute" unicode="&#x107;" 
d="M1061 1061l-39 -137q-99 45 -223 45q-203 0 -309.5 -120t-106.5 -310q0 -90 25.5 -166.5t75 -135t130.5 -91.5t185 -33q127 0 227 45l29 -138q-117 -45 -258 -45q-146 0 -259.5 42.5t-184.5 119t-107.5 178.5t-36.5 224q0 253 154.5 410t431.5 157q159 0 266 -45z
M1047 1573l-248 -336h-125l186 336h187z" />
    <glyph glyph-name="Ccircumflex" unicode="&#x108;" 
d="M1112 1436l-53 -158q-105 59 -258 59q-208 0 -331.5 -169t-123.5 -441q0 -167 54.5 -303t159 -217.5t241.5 -81.5q164 0 276 51l35 -149q-149 -52 -317 -52q-196 0 -339 97t-214.5 266t-71.5 391t71.5 391.5t215.5 268t342 98.5q180 0 313 -51zM1098 1548h-144l-188 201
l-186 -201h-146l242 299h178z" />
    <glyph glyph-name="ccircumflex" unicode="&#x109;" 
d="M1061 1061l-39 -137q-99 45 -223 45q-203 0 -309.5 -120t-106.5 -310q0 -90 25.5 -166.5t75 -135t130.5 -91.5t185 -33q127 0 227 45l29 -138q-117 -45 -258 -45q-146 0 -259.5 42.5t-184.5 119t-107.5 178.5t-36.5 224q0 253 154.5 410t431.5 157q159 0 266 -45z
M1079 1237h-143l-188 238l-187 -238h-145l241 336h179z" />
    <glyph glyph-name="Cdotaccent" unicode="&#x10a;" 
d="M1112 1436l-53 -158q-105 59 -258 59q-208 0 -331.5 -169t-123.5 -441q0 -167 54.5 -303t159 -217.5t241.5 -81.5q164 0 276 51l35 -149q-149 -52 -317 -52q-196 0 -339 97t-214.5 266t-71.5 391t71.5 391.5t215.5 268t342 98.5q180 0 313 -51zM877 1806v-200h-201v200
h201z" />
    <glyph glyph-name="cdotaccent" unicode="&#x10b;" 
d="M1061 1061l-39 -137q-99 45 -223 45q-203 0 -309.5 -120t-106.5 -310q0 -90 25.5 -166.5t75 -135t130.5 -91.5t185 -33q127 0 227 45l29 -138q-117 -45 -258 -45q-146 0 -259.5 42.5t-184.5 119t-107.5 178.5t-36.5 224q0 253 154.5 410t431.5 157q159 0 266 -45z
M874 1481v-201h-200v201h200z" />
    <glyph glyph-name="Ccaron" unicode="&#x10c;" 
d="M1112 1436l-53 -158q-105 59 -258 59q-208 0 -331.5 -169t-123.5 -441q0 -167 54.5 -303t159 -217.5t241.5 -81.5q164 0 276 51l35 -149q-149 -52 -317 -52q-196 0 -339 97t-214.5 266t-71.5 391t71.5 391.5t215.5 268t342 98.5q180 0 313 -51zM449 1845h143l188 -198
l187 198h145l-242 -299h-178z" />
    <glyph glyph-name="ccaron" unicode="&#x10d;" 
d="M1061 1061l-39 -137q-99 45 -223 45q-203 0 -309.5 -120t-106.5 -310q0 -90 25.5 -166.5t75 -135t130.5 -91.5t185 -33q127 0 227 45l29 -138q-117 -45 -258 -45q-146 0 -259.5 42.5t-184.5 119t-107.5 178.5t-36.5 224q0 253 154.5 410t431.5 157q159 0 266 -45z
M432 1571h143l189 -238l186 238h146l-242 -336h-178z" />
    <glyph glyph-name="Dcaron" unicode="&#x10e;" 
d="M135 0v1462h334q335 0 515.5 -194t180.5 -537q0 -344 -180.5 -537.5t-515.5 -193.5h-334zM313 1313v-1163h129q274 0 409.5 150.5t135.5 430.5q0 278 -135.5 430t-409.5 152h-129zM215 1845h143l189 -198l186 198h146l-242 -299h-178z" />
    <glyph glyph-name="dcaron" unicode="&#x10f;" 
d="M909 934v571h174v-1505h-168v164h-4q-61 -93 -152 -141t-192 -48q-105 0 -192 44.5t-144 121.5t-88.5 180.5t-31.5 221.5q0 243 126.5 403t335.5 160q215 0 332 -172h4zM285 543q0 -185 80.5 -307.5t228.5 -122.5q151 0 238.5 122t87.5 308t-87.5 306t-238.5 120
q-100 0 -171.5 -58.5t-104.5 -153.5t-33 -214zM1327 1573l-80 -336h-106l24 336h162z" />
    <glyph glyph-name="Dcroat" unicode="&#x110;" 
d="M16 698v109h131v655h322q335 0 515.5 -194t180.5 -537q0 -344 -180.5 -537.5t-515.5 -193.5h-322v698h-131zM326 1313v-506h260v-109h-260v-548h116q274 0 409.5 150.5t135.5 430.5q0 278 -135.5 430t-409.5 152h-116z" />
    <glyph glyph-name="dcroat" unicode="&#x111;" 
d="M684 1233v119h225v153h174v-153h93v-119h-93v-1233h-168v164h-4q-61 -93 -152 -141t-192 -48q-105 0 -192 44.5t-144 121.5t-88.5 180.5t-31.5 221.5q0 243 126.5 403t335.5 160q215 0 332 -172h4v299h-225zM285 543q0 -185 80.5 -307.5t228.5 -122.5q151 0 238.5 122
t87.5 308t-87.5 306t-238.5 120q-100 0 -171.5 -58.5t-104.5 -153.5t-33 -214z" />
    <glyph glyph-name="Emacron" unicode="&#x112;" 
d="M217 0v1462h848v-149h-670v-486h621v-149h-621v-528h686v-150h-864zM922 1763v-131h-527v131h527z" />
    <glyph glyph-name="emacron" unicode="&#x113;" 
d="M1092 494h-768q9 -175 111 -278t272 -103q163 0 290 53l29 -133q-134 -58 -324 -58q-260 0 -403 157t-143 407t132.5 408.5t354.5 158.5t335.5 -141t113.5 -387v-84zM645 969q-142 0 -224.5 -91.5t-96.5 -246.5h610v8q0 153 -79 241.5t-210 88.5zM920 1438v-131h-527v131
h527z" />
    <glyph glyph-name="Ebreve" unicode="&#x114;" 
d="M217 0v1462h848v-149h-670v-486h621v-149h-621v-528h686v-150h-864zM821 1860h137q-11 -291 -311 -291q-155 0 -229.5 81t-79.5 210h137q2 -82 40 -125t132 -43q92 0 129.5 42t44.5 126z" />
    <glyph glyph-name="ebreve" unicode="&#x115;" 
d="M1092 494h-768q9 -175 111 -278t272 -103q163 0 290 53l29 -133q-134 -58 -324 -58q-260 0 -403 157t-143 407t132.5 408.5t354.5 158.5t335.5 -141t113.5 -387v-84zM645 969q-142 0 -224.5 -91.5t-96.5 -246.5h610v8q0 153 -79 241.5t-210 88.5zM819 1532h137
q-11 -291 -311 -291q-155 0 -229.5 81t-79.5 210h137q2 -82 40 -125t132 -43q92 0 129.5 42t44.5 126z" />
    <glyph glyph-name="Edotaccent" unicode="&#x116;" 
d="M217 0v1462h848v-149h-670v-486h621v-149h-621v-528h686v-150h-864zM764 1806v-200h-201v200h201z" />
    <glyph glyph-name="edotaccent" unicode="&#x117;" 
d="M1092 494h-768q9 -175 111 -278t272 -103q163 0 290 53l29 -133q-134 -58 -324 -58q-260 0 -403 157t-143 407t132.5 408.5t354.5 158.5t335.5 -141t113.5 -387v-84zM645 969q-142 0 -224.5 -91.5t-96.5 -246.5h610v8q0 153 -79 241.5t-210 88.5zM745 1481v-201h-200v201
h200z" />
    <glyph glyph-name="Eogonek" unicode="&#x118;" 
d="M217 0v1462h848v-149h-670v-486h621v-149h-621v-528h686v-150h-61q-78 -84 -107.5 -136.5t-29.5 -99.5q0 -79 92 -79q63 0 115 28l16 -98q-64 -35 -158 -35q-81 0 -137.5 39.5t-56.5 118.5q0 66 33.5 127t121.5 135h-692z" />
    <glyph glyph-name="eogonek" unicode="&#x119;" 
d="M1092 494h-768q9 -175 111 -278t272 -103q163 0 290 53l29 -133l-41 -17q-88 -92 -121 -148t-33 -104q0 -79 93 -79q62 0 114 28l17 -98q-64 -35 -158 -35q-82 0 -138.5 39.5t-56.5 118.5q0 61 31 119t107 129q-82 -11 -138 -11q-260 0 -403 157t-143 407t132.5 408.5
t354.5 158.5t335.5 -141t113.5 -387v-84zM645 969q-142 0 -224.5 -91.5t-96.5 -246.5h610v8q0 153 -79 241.5t-210 88.5z" />
    <glyph glyph-name="Ecaron" unicode="&#x11a;" 
d="M217 0v1462h848v-149h-670v-486h621v-149h-621v-528h686v-150h-864zM319 1845h144l188 -198l187 198h145l-242 -299h-178z" />
    <glyph glyph-name="ecaron" unicode="&#x11b;" 
d="M1092 494h-768q9 -175 111 -278t272 -103q163 0 290 53l29 -133q-134 -58 -324 -58q-260 0 -403 157t-143 407t132.5 408.5t354.5 158.5t335.5 -141t113.5 -387v-84zM645 969q-142 0 -224.5 -91.5t-96.5 -246.5h610v8q0 153 -79 241.5t-210 88.5zM315 1571h144l188 -238
l187 238h145l-242 -336h-178z" />
    <glyph glyph-name="Gcircumflex" unicode="&#x11c;" 
d="M1051 1436l-54 -158q-105 59 -258 59q-208 0 -331 -169t-123 -441q0 -169 48 -303.5t147.5 -216.5t236.5 -82q124 0 188 29v485h-252v149h426v-725q-151 -88 -370 -88q-183 0 -320 96.5t-208.5 266.5t-71.5 391q0 222 71.5 391.5t215 268t341.5 98.5q181 0 314 -51z
M1040 1548h-143l-188 201l-187 -201h-145l241 299h179z" />
    <glyph glyph-name="gcircumflex" unicode="&#x11d;" 
d="M285 561q0 -115 33.5 -206t104.5 -147t171 -56q150 0 237 116t87 293q0 178 -87 293t-237 115q-100 0 -171 -56t-104.5 -146.5t-33.5 -205.5zM913 70v127h-4q-61 -90 -148.5 -136.5t-189.5 -46.5q-142 0 -247.5 73.5t-159 196.5t-53.5 277q0 153 55.5 276t162 196
t244.5 73q223 0 336 -170h4v145h168v-1020q0 -92 -26.5 -168.5t-73 -130t-110.5 -90t-139.5 -54t-160.5 -17.5q-192 0 -338 55l33 135q130 -53 305 -53q168 0 255 86.5t87 245.5zM963 1237h-144l-188 238l-187 -238h-145l242 336h178z" />
    <glyph glyph-name="Gbreve" unicode="&#x11e;" 
d="M1051 1436l-54 -158q-105 59 -258 59q-208 0 -331 -169t-123 -441q0 -169 48 -303.5t147.5 -216.5t236.5 -82q124 0 188 29v485h-252v149h426v-725q-151 -88 -370 -88q-183 0 -320 96.5t-208.5 266.5t-71.5 391q0 222 71.5 391.5t215 268t341.5 98.5q181 0 314 -51z
M881 1860h137q-11 -291 -311 -291q-155 0 -230 81t-80 210h138q2 -82 40 -125t132 -43q92 0 129.5 42t44.5 126z" />
    <glyph glyph-name="gbreve" unicode="&#x11f;" 
d="M285 561q0 -115 33.5 -206t104.5 -147t171 -56q150 0 237 116t87 293q0 178 -87 293t-237 115q-100 0 -171 -56t-104.5 -146.5t-33.5 -205.5zM913 70v127h-4q-61 -90 -148.5 -136.5t-189.5 -46.5q-142 0 -247.5 73.5t-159 196.5t-53.5 277q0 153 55.5 276t162 196
t244.5 73q223 0 336 -170h4v145h168v-1020q0 -92 -26.5 -168.5t-73 -130t-110.5 -90t-139.5 -54t-160.5 -17.5q-192 0 -338 55l33 135q130 -53 305 -53q168 0 255 86.5t87 245.5zM770 1532h137q-11 -291 -311 -291q-155 0 -229.5 81t-79.5 210h137q2 -82 40 -125t132 -43
q92 0 129.5 42t44.5 126z" />
    <glyph glyph-name="Gdotaccent" unicode="&#x120;" 
d="M1051 1436l-54 -158q-105 59 -258 59q-208 0 -331 -169t-123 -441q0 -169 48 -303.5t147.5 -216.5t236.5 -82q124 0 188 29v485h-252v149h426v-725q-151 -88 -370 -88q-183 0 -320 96.5t-208.5 266.5t-71.5 391q0 222 71.5 391.5t215 268t341.5 98.5q181 0 314 -51z
M827 1806v-200h-200v200h200z" />
    <glyph glyph-name="gdotaccent" unicode="&#x121;" 
d="M285 561q0 -115 33.5 -206t104.5 -147t171 -56q150 0 237 116t87 293q0 178 -87 293t-237 115q-100 0 -171 -56t-104.5 -146.5t-33.5 -205.5zM913 70v127h-4q-61 -90 -148.5 -136.5t-189.5 -46.5q-142 0 -247.5 73.5t-159 196.5t-53.5 277q0 153 55.5 276t162 196
t244.5 73q223 0 336 -170h4v145h168v-1020q0 -92 -26.5 -168.5t-73 -130t-110.5 -90t-139.5 -54t-160.5 -17.5q-192 0 -338 55l33 135q130 -53 305 -53q168 0 255 86.5t87 245.5zM707 1481v-201h-201v201h201z" />
    <glyph glyph-name="Gcommaaccent" unicode="&#x122;" 
d="M1051 1436l-54 -158q-105 59 -258 59q-208 0 -331 -169t-123 -441q0 -169 48 -303.5t147.5 -216.5t236.5 -82q124 0 188 29v485h-252v149h426v-725q-151 -88 -370 -88q-183 0 -320 96.5t-208.5 266.5t-71.5 391q0 222 71.5 391.5t215 268t341.5 98.5q181 0 314 -51z
M778 -119l-164 -319h-125l97 319h192z" />
    <glyph glyph-name="gcommaaccent" unicode="&#x123;" 
d="M285 561q0 -115 33.5 -206t104.5 -147t171 -56q150 0 237 116t87 293q0 178 -87 293t-237 115q-100 0 -171 -56t-104.5 -146.5t-33.5 -205.5zM913 70v127h-4q-61 -90 -148.5 -136.5t-189.5 -46.5q-142 0 -247.5 73.5t-159 196.5t-53.5 277q0 153 55.5 276t162 196
t244.5 73q223 0 336 -170h4v145h168v-1020q0 -92 -26.5 -168.5t-73 -130t-110.5 -90t-139.5 -54t-160.5 -17.5q-192 0 -338 55l33 135q130 -53 305 -53q168 0 255 86.5t87 245.5zM496 1237l168 336h124l-100 -336h-192z" />
    <glyph glyph-name="Hcircumflex" unicode="&#x124;" 
d="M135 0v1462h178v-635h602v635h179v-1462h-179v678h-602v-678h-178zM946 1548h-143l-189 201l-186 -201h-145l241 299h178z" />
    <glyph glyph-name="hcircumflex" unicode="&#x125;" 
d="M176 1505h174v-583h4q50 88 135.5 136t196.5 48q181 0 284 -106.5t103 -286.5v-713h-174v647q0 160 -56.5 241t-197.5 81q-57 0 -108.5 -21t-94 -62.5t-67.5 -112t-25 -161.5v-612h-174v1505zM924 1624h-144l-188 201l-186 -201h-146l242 299h178z" />
    <glyph glyph-name="Hbar" unicode="&#x126;" 
d="M135 0v1137h-123v120h123v205h178v-205h602v205h179v-205h123v-120h-123v-1137h-179v678h-602v-678h-178zM313 827h602v310h-602v-310z" />
    <glyph glyph-name="hbar" unicode="&#x127;" 
d="M537 1352v-119h-187v-311h4q50 88 135.5 136t196.5 48q181 0 284 -106.5t103 -286.5v-713h-174v647q0 160 -56.5 241t-197.5 81q-57 0 -108.5 -21t-94 -62.5t-67.5 -112t-25 -161.5v-612h-174v1233h-131v119h131v153h174v-153h187z" />
    <glyph glyph-name="Itilde" unicode="&#x128;" 
d="M233 1319v143h762v-143h-290v-1176h290v-143h-762v143h293v1176h-293zM637 1755q46 -37 69 -49t48 -12q72 0 82 133h125q-8 -119 -57.5 -189.5t-141.5 -70.5q-49 0 -83 15t-87 56q-46 37 -70 49.5t-47 12.5q-76 0 -82 -133h-125q8 119 57 189.5t142 70.5q48 0 83.5 -15.5
t86.5 -56.5z" />
    <glyph glyph-name="itilde" unicode="&#x129;" 
d="M307 938v143h434v-938h293v-143h-762v143h295v795h-260zM670 1450q48 -39 70 -51.5t46 -12.5q72 0 82 134h125q-8 -118 -57 -188t-141 -70q-49 0 -84 14.5t-86 54.5q-47 38 -70.5 51t-46.5 13q-76 0 -82 -133h-125q8 117 57.5 187.5t141.5 70.5q48 0 83.5 -15t86.5 -55z
" />
    <glyph glyph-name="Imacron" unicode="&#x12a;" 
d="M233 1319v143h762v-143h-290v-1176h290v-143h-762v143h293v1176h-293zM877 1763v-131h-527v131h527z" />
    <glyph glyph-name="imacron" unicode="&#x12b;" 
d="M307 938v143h434v-938h293v-143h-762v143h295v795h-260zM905 1438v-131h-526v131h526z" />
    <glyph glyph-name="Ibreve" unicode="&#x12c;" 
d="M233 1319v143h762v-143h-290v-1176h290v-143h-762v143h293v1176h-293zM786 1860h138q-11 -291 -312 -291q-155 0 -229.5 81t-79.5 210h137q2 -82 40 -125t132 -43q92 0 129.5 42t44.5 126z" />
    <glyph glyph-name="ibreve" unicode="&#x12d;" 
d="M307 938v143h434v-938h293v-143h-762v143h295v795h-260zM815 1532h137q-11 -291 -311 -291q-155 0 -229.5 81t-79.5 210h137q2 -82 40 -125t132 -43q92 0 129.5 42t44.5 126z" />
    <glyph glyph-name="Iogonek" unicode="&#x12e;" 
d="M233 1319v143h762v-143h-290v-1176h290v-143h-303q-78 -84 -107.5 -136.5t-29.5 -99.5q0 -79 92 -79q63 0 115 28l16 -98q-64 -35 -157 -35q-82 0 -138.5 39.5t-56.5 118.5q0 66 34 127t122 135h-349v143h293v1176h-293z" />
    <glyph glyph-name="iogonek" unicode="&#x12f;" 
d="M307 938v143h434v-938h293v-143h-309q-78 -84 -107.5 -136.5t-29.5 -99.5q0 -79 92 -79q63 0 115 28l16 -98q-64 -35 -158 -35q-81 0 -137.5 39.5t-56.5 118.5q0 66 33.5 127t121.5 135h-342v143h295v795h-260zM514 1489h227v-182h-227v182z" />
    <glyph glyph-name="Idotaccent" unicode="&#x130;" 
d="M233 1319v143h762v-143h-290v-1176h290v-143h-762v143h293v1176h-293zM715 1806v-200h-201v200h201z" />
    <glyph glyph-name="dotlessi" unicode="&#x131;" 
d="M307 938v143h434v-938h293v-143h-762v143h295v795h-260z" />
    <glyph glyph-name="Jcircumflex" unicode="&#x134;" 
d="M356 1319v143h660v-143h-180v-934q0 -403 -430 -403q-106 0 -236 24v150q108 -25 221 -25q144 0 205 61t61 185v942h-301zM1030 1548h-143l-189 201l-186 -201h-145l241 299h178z" />
    <glyph glyph-name="jcircumflex" unicode="&#x135;" 
d="M287 938v143h493v-1116q0 -174 -106 -269t-299 -95q-106 0 -217 18v141q99 -18 202 -18q129 0 187.5 58t58.5 184v954h-319zM901 1237h-143l-189 238l-186 -238h-145l241 336h178z" />
    <glyph glyph-name="Kcommaaccent" unicode="&#x136;" 
d="M938 1462h225l-610 -698l649 -764h-229l-617 733h-2v-733h-178v1462h178v-684h2zM713 -119l-164 -319h-125l96 319h193z" />
    <glyph glyph-name="kcommaaccent" unicode="&#x137;" 
d="M926 1081h221l-535 -483l555 -598h-223l-518 567h-4v-567h-174v1505h174v-891h4zM750 -119l-164 -319h-125l96 319h193z" />
    <glyph glyph-name="kgreenlandic" unicode="&#x138;" 
d="M926 1081h221l-535 -483l555 -598h-223l-518 567h-4v-567h-174v1081h174v-467h4z" />
    <glyph glyph-name="Lacute" unicode="&#x139;" 
d="M238 0v1462h178v-1312h647v-150h-825zM614 1837l-227 -274h-129l160 274h196z" />
    <glyph glyph-name="lacute" unicode="&#x13a;" 
d="M250 1362v143h450v-1210q0 -105 41 -138.5t150 -33.5q75 0 145 12v-127q-81 -20 -184 -20q-94 0 -158 19t-100.5 58.5t-52 93t-15.5 128.5v1075h-276zM893 1913l-227 -275h-129l159 275h197z" />
    <glyph glyph-name="Lcommaaccent" unicode="&#x13b;" 
d="M238 0v1462h178v-1312h647v-150h-825zM702 -119l-163 -319h-125l96 319h192z" />
    <glyph glyph-name="lcommaaccent" unicode="&#x13c;" 
d="M250 1362v143h450v-1210q0 -105 41 -138.5t150 -33.5q75 0 145 12v-127q-81 -20 -184 -20q-94 0 -158 19t-100.5 58.5t-52 93t-15.5 128.5v1075h-276zM731 -119l-164 -319h-125l97 319h192z" />
    <glyph glyph-name="Lcaron" unicode="&#x13d;" 
d="M238 0v1462h178v-1312h647v-150h-825zM760 1573l-80 -336h-107l25 336h162z" />
    <glyph glyph-name="lcaron" unicode="&#x13e;" 
d="M250 1362v143h450v-1210q0 -105 41 -138.5t150 -33.5q75 0 145 12v-127q-81 -20 -184 -20q-94 0 -158 19t-100.5 58.5t-52 93t-15.5 128.5v1075h-276zM1012 1573l-80 -336h-107l25 336h162z" />
    <glyph glyph-name="Ldot" unicode="&#x13f;" 
d="M238 0v1462h178v-1312h647v-150h-825zM1040 891v-201h-200v201h200z" />
    <glyph glyph-name="ldot" unicode="&#x140;" 
d="M250 1362v143h450v-1210q0 -105 41 -138.5t150 -33.5q75 0 145 12v-127q-81 -20 -184 -20q-94 0 -158 19t-100.5 58.5t-52 93t-15.5 128.5v1075h-276zM1325 891v-201h-201v201h201z" />
    <glyph glyph-name="Lslash" unicode="&#x141;" 
d="M238 0v649l-140 -90v127l140 86v690h178v-581l219 145v-125l-219 -147v-604h647v-150h-825z" />
    <glyph glyph-name="lslash" unicode="&#x142;" 
d="M877 979l-177 -131v-553q0 -105 41 -138.5t150 -33.5q75 0 145 12v-127q-81 -20 -184 -20q-94 0 -158 19t-100.5 58.5t-52 93t-15.5 128.5v440l-174 -131v127l174 129v510h-276v143h450v-534l177 135v-127z" />
    <glyph glyph-name="Nacute" unicode="&#x143;" 
d="M422 1462l493 -1274h5v1274h167v-1462h-274l-500 1284h-4v-1284h-168v1462h281zM877 1837l-228 -274h-129l160 274h197z" />
    <glyph glyph-name="nacute" unicode="&#x144;" 
d="M166 1081h168v-159h2q50 87 139 135.5t201 48.5q181 0 284 -106.5t103 -286.5v-713h-174v647q0 160 -56.5 241t-197.5 81q-57 0 -108.5 -21t-94 -62.5t-67.5 -112t-25 -161.5v-612h-174v1081zM918 1573l-248 -336h-125l186 336h187z" />
    <glyph glyph-name="Ncommaaccent" unicode="&#x145;" 
d="M422 1462l493 -1274h5v1274h167v-1462h-274l-500 1284h-4v-1284h-168v1462h281zM715 -119l-164 -319h-125l96 319h193z" />
    <glyph glyph-name="ncommaaccent" unicode="&#x146;" 
d="M166 1081h168v-159h2q50 87 139 135.5t201 48.5q181 0 284 -106.5t103 -286.5v-713h-174v647q0 160 -56.5 241t-197.5 81q-57 0 -108.5 -21t-94 -62.5t-67.5 -112t-25 -161.5v-612h-174v1081zM700 -119l-163 -319h-125l96 319h192z" />
    <glyph glyph-name="Ncaron" unicode="&#x147;" 
d="M422 1462l493 -1274h5v1274h167v-1462h-274l-500 1284h-4v-1284h-168v1462h281zM301 1845h143l189 -198l186 198h146l-242 -299h-178z" />
    <glyph glyph-name="ncaron" unicode="&#x148;" 
d="M166 1081h168v-159h2q50 87 139 135.5t201 48.5q181 0 284 -106.5t103 -286.5v-713h-174v647q0 160 -56.5 241t-197.5 81q-57 0 -108.5 -21t-94 -62.5t-67.5 -112t-25 -161.5v-612h-174v1081zM324 1571h143l188 -238l187 238h145l-242 -336h-178z" />
    <glyph glyph-name="Eng" unicode="&#x14a;" 
d="M913 0h-100l-500 1284h-4v-1284h-168v1462h281l493 -1274h5v1274h167v-1558q0 -145 -75 -224t-219 -79q-60 0 -117 8v137q52 -8 96 -8q80 0 110.5 45.5t30.5 138.5v78z" />
    <glyph glyph-name="eng" unicode="&#x14b;" 
d="M1063 713v-809q0 -144 -75 -223.5t-218 -79.5q-62 0 -119 8v137q52 -8 97 -8q80 0 110.5 45.5t30.5 138.5v725q0 160 -56.5 241t-197.5 81q-57 0 -108.5 -21t-94 -62.5t-67.5 -112t-25 -161.5v-612h-174v1081h168v-159h2q50 87 139 135.5t201 48.5q181 0 284 -106.5
t103 -286.5z" />
    <glyph glyph-name="Omacron" unicode="&#x14c;" 
d="M1174 729q0 -167 -34 -303.5t-102 -238.5t-176.5 -158t-249.5 -56q-112 0 -204 36.5t-157 103t-109.5 161t-65.5 208.5t-21 247q0 168 33.5 305t100 239.5t174.5 159t249 56.5q143 0 251.5 -56.5t176 -159t101 -239.5t33.5 -305zM997 729q0 129 -22 236.5t-67 192
t-120.5 132t-175.5 47.5q-98 0 -172.5 -47.5t-118.5 -132t-66 -192t-22 -236.5q0 -128 21.5 -234.5t66 -190t119 -130.5t172.5 -47q100 0 175.5 47t120.5 130.5t67 190t22 234.5zM877 1763v-131h-527v131h527z" />
    <glyph glyph-name="omacron" unicode="&#x14d;" 
d="M1116 543q0 -264 -135 -416t-367 -152t-366.5 152t-134.5 416q0 263 134 413t367 150t367.5 -150t134.5 -413zM942 543q0 196 -82.5 311t-245.5 115t-245 -115t-82 -311t83 -313t244 -117q163 0 245.5 116.5t82.5 313.5zM877 1438v-131h-527v131h527z" />
    <glyph glyph-name="Obreve" unicode="&#x14e;" 
d="M1174 729q0 -167 -34 -303.5t-102 -238.5t-176.5 -158t-249.5 -56q-112 0 -204 36.5t-157 103t-109.5 161t-65.5 208.5t-21 247q0 168 33.5 305t100 239.5t174.5 159t249 56.5q143 0 251.5 -56.5t176 -159t101 -239.5t33.5 -305zM997 729q0 129 -22 236.5t-67 192
t-120.5 132t-175.5 47.5q-98 0 -172.5 -47.5t-118.5 -132t-66 -192t-22 -236.5q0 -128 21.5 -234.5t66 -190t119 -130.5t172.5 -47q100 0 175.5 47t120.5 130.5t67 190t22 234.5zM786 1860h138q-11 -291 -312 -291q-155 0 -229.5 81t-79.5 210h137q2 -82 40 -125t132 -43
q92 0 129.5 42t44.5 126z" />
    <glyph glyph-name="obreve" unicode="&#x14f;" 
d="M1116 543q0 -264 -135 -416t-367 -152t-366.5 152t-134.5 416q0 263 134 413t367 150t367.5 -150t134.5 -413zM942 543q0 196 -82.5 311t-245.5 115t-245 -115t-82 -311t83 -313t244 -117q163 0 245.5 116.5t82.5 313.5zM786 1532h138q-11 -291 -312 -291
q-155 0 -229.5 81t-79.5 210h137q2 -82 40 -125t132 -43q92 0 129.5 42t44.5 126z" />
    <glyph glyph-name="Ohungarumlaut" unicode="&#x150;" 
d="M1174 729q0 -167 -34 -303.5t-102 -238.5t-176.5 -158t-249.5 -56q-112 0 -204 36.5t-157 103t-109.5 161t-65.5 208.5t-21 247q0 168 33.5 305t100 239.5t174.5 159t249 56.5q143 0 251.5 -56.5t176 -159t101 -239.5t33.5 -305zM997 729q0 129 -22 236.5t-67 192
t-120.5 132t-175.5 47.5q-98 0 -172.5 -47.5t-118.5 -132t-66 -192t-22 -236.5q0 -128 21.5 -234.5t66 -190t119 -130.5t172.5 -47q100 0 175.5 47t120.5 130.5t67 190t22 234.5zM707 1843l-187 -280h-127l121 280h193zM1010 1843l-217 -280h-131l145 280h203z" />
    <glyph glyph-name="ohungarumlaut" unicode="&#x151;" 
d="M1116 543q0 -264 -135 -416t-367 -152t-366.5 152t-134.5 416q0 263 134 413t367 150t367.5 -150t134.5 -413zM942 543q0 196 -82.5 311t-245.5 115t-245 -115t-82 -311t83 -313t244 -117q163 0 245.5 116.5t82.5 313.5zM737 1573l-213 -336h-121l148 336h186zM1040 1573
l-243 -336h-123l170 336h196z" />
    <glyph glyph-name="OE" unicode="&#x152;" 
d="M575 1462h599v-145h-355v-492h305v-145h-305v-535h371v-145h-615q-130 0 -227.5 51t-157.5 147.5t-89 229t-29 301.5q0 352 126.5 542.5t376.5 190.5zM244 729q0 -131 18 -234t56.5 -181.5t103 -121t153.5 -42.5h74v1165h-74q-165 0 -248 -155.5t-83 -430.5z" />
    <glyph glyph-name="oe" unicode="&#x153;" 
d="M1161 498h-436q0 -188 54.5 -288.5t162.5 -100.5q74 0 158 43l24 -125q-86 -52 -186 -52q-217 0 -285 185h-4q-67 -185 -239 -185q-161 0 -240.5 136t-79.5 432q0 295 79 429t241 134q82 0 145 -44.5t94 -135.5h4q27 86 87.5 133t138.5 47q149 0 215.5 -124t66.5 -376
v-108zM573 543q0 213 -37.5 321.5t-125.5 108.5t-125 -108t-37 -322q0 -213 38 -323.5t124 -110.5q88 0 125.5 109.5t37.5 324.5zM881 973q-82 0 -119 -87.5t-37 -256.5h295v8q0 336 -139 336z" />
    <glyph glyph-name="Racute" unicode="&#x154;" 
d="M184 0v1462h463q99 0 180.5 -22.5t143.5 -68.5t96.5 -121.5t34.5 -174.5q0 -126 -70.5 -216.5t-200.5 -123.5v-4q82 -20 128 -80t85 -194q35 -121 138 -457h-191q-16 56 -57.5 215t-56.5 211q-15 48 -26.5 78.5t-29.5 59t-39 44t-53 28t-73 17t-99 4.5h-195v-657h-178z
M362 1313v-506h242q153 0 236.5 63.5t83.5 194.5q0 60 -17.5 105t-46 72t-70 43.5t-83 22t-91.5 5.5h-254zM856 1837l-227 -274h-129l159 274h197z" />
    <glyph glyph-name="racute" unicode="&#x155;" 
d="M1092 1102l-13 -154q-33 8 -161 8q-46 0 -94 -9t-99 -32.5t-90 -58.5t-64.5 -93t-25.5 -130v-633h-174v1081h168v-145h4q24 54 94 94.5t148.5 58t152.5 17.5q125 0 154 -4zM983 1573l-248 -336h-125l187 336h186z" />
    <glyph glyph-name="Rcommaaccent" unicode="&#x156;" 
d="M184 0v1462h463q99 0 180.5 -22.5t143.5 -68.5t96.5 -121.5t34.5 -174.5q0 -126 -70.5 -216.5t-200.5 -123.5v-4q82 -20 128 -80t85 -194q35 -121 138 -457h-191q-16 56 -57.5 215t-56.5 211q-15 48 -26.5 78.5t-29.5 59t-39 44t-53 28t-73 17t-99 4.5h-195v-657h-178z
M362 1313v-506h242q153 0 236.5 63.5t83.5 194.5q0 60 -17.5 105t-46 72t-70 43.5t-83 22t-91.5 5.5h-254zM725 -119l-164 -319h-125l96 319h193z" />
    <glyph glyph-name="rcommaaccent" unicode="&#x157;" 
d="M1092 1102l-13 -154q-33 8 -161 8q-46 0 -94 -9t-99 -32.5t-90 -58.5t-64.5 -93t-25.5 -130v-633h-174v1081h168v-145h4q24 54 94 94.5t148.5 58t152.5 17.5q125 0 154 -4zM573 -119l-163 -319h-125l96 319h192z" />
    <glyph glyph-name="Rcaron" unicode="&#x158;" 
d="M184 0v1462h463q99 0 180.5 -22.5t143.5 -68.5t96.5 -121.5t34.5 -174.5q0 -126 -70.5 -216.5t-200.5 -123.5v-4q82 -20 128 -80t85 -194q35 -121 138 -457h-191q-16 56 -57.5 215t-56.5 211q-15 48 -26.5 78.5t-29.5 59t-39 44t-53 28t-73 17t-99 4.5h-195v-657h-178z
M362 1313v-506h242q153 0 236.5 63.5t83.5 194.5q0 60 -17.5 105t-46 72t-70 43.5t-83 22t-91.5 5.5h-254zM295 1845h143l189 -198l186 198h145l-241 -299h-178z" />
    <glyph glyph-name="rcaron" unicode="&#x159;" 
d="M1092 1102l-13 -154q-33 8 -161 8q-46 0 -94 -9t-99 -32.5t-90 -58.5t-64.5 -93t-25.5 -130v-633h-174v1081h168v-145h4q24 54 94 94.5t148.5 58t152.5 17.5q125 0 154 -4zM389 1571h143l189 -238l186 238h146l-242 -336h-178z" />
    <glyph glyph-name="Sacute" unicode="&#x15a;" 
d="M1016 1425l-43 -149q-152 61 -322 61q-56 0 -105.5 -11.5t-93.5 -36t-70 -69.5t-26 -106q0 -98 67.5 -161.5t238.5 -129.5q220 -84 319.5 -182.5t99.5 -261.5q0 -84 -28 -152.5t-75 -114.5t-110.5 -77.5t-133 -45.5t-144.5 -14q-101 0 -217 23.5t-215 67.5l45 153
q189 -94 391 -94q138 0 223.5 62t85.5 180q0 55 -22 99t-71.5 81.5t-107.5 67.5t-149 67q-192 77 -283.5 177t-91.5 243q0 78 28.5 143.5t75 109t108.5 74t128.5 44.5t134.5 14q206 0 363 -62zM911 1837l-227 -274h-129l160 274h196z" />
    <glyph glyph-name="sacute" unicode="&#x15b;" 
d="M975 1047l-45 -134q-123 56 -289 56q-43 0 -79.5 -6.5t-72.5 -22t-56.5 -46.5t-20.5 -75q0 -73 53.5 -113t198.5 -90q72 -25 121.5 -46t96.5 -50t74 -61t43.5 -75t16.5 -97q0 -70 -24 -125t-63.5 -89.5t-94.5 -57t-112.5 -31.5t-121.5 -9q-96 0 -202.5 19.5t-190.5 58.5
l47 137q183 -77 350 -77q54 0 95.5 7.5t76 24.5t52.5 49.5t18 79.5q0 71 -66.5 117t-216.5 96q-164 55 -242.5 125.5t-78.5 188.5q0 79 35 139.5t93.5 95.5t127 52.5t143.5 17.5q210 0 334 -59zM926 1573l-248 -336h-125l186 336h187z" />
    <glyph glyph-name="Scircumflex" unicode="&#x15c;" 
d="M1016 1425l-43 -149q-152 61 -322 61q-56 0 -105.5 -11.5t-93.5 -36t-70 -69.5t-26 -106q0 -98 67.5 -161.5t238.5 -129.5q220 -84 319.5 -182.5t99.5 -261.5q0 -84 -28 -152.5t-75 -114.5t-110.5 -77.5t-133 -45.5t-144.5 -14q-101 0 -217 23.5t-215 67.5l45 153
q189 -94 391 -94q138 0 223.5 62t85.5 180q0 55 -22 99t-71.5 81.5t-107.5 67.5t-149 67q-192 77 -283.5 177t-91.5 243q0 78 28.5 143.5t75 109t108.5 74t128.5 44.5t134.5 14q206 0 363 -62zM958 1548h-143l-188 201l-187 -201h-145l242 299h178z" />
    <glyph glyph-name="scircumflex" unicode="&#x15d;" 
d="M975 1047l-45 -134q-123 56 -289 56q-43 0 -79.5 -6.5t-72.5 -22t-56.5 -46.5t-20.5 -75q0 -73 53.5 -113t198.5 -90q72 -25 121.5 -46t96.5 -50t74 -61t43.5 -75t16.5 -97q0 -70 -24 -125t-63.5 -89.5t-94.5 -57t-112.5 -31.5t-121.5 -9q-96 0 -202.5 19.5t-190.5 58.5
l47 137q183 -77 350 -77q54 0 95.5 7.5t76 24.5t52.5 49.5t18 79.5q0 71 -66.5 117t-216.5 96q-164 55 -242.5 125.5t-78.5 188.5q0 79 35 139.5t93.5 95.5t127 52.5t143.5 17.5q210 0 334 -59zM971 1237h-144l-188 238l-186 -238h-146l242 336h178z" />
    <glyph glyph-name="Scedilla" unicode="&#x15e;" 
d="M1016 1425l-43 -149q-152 61 -322 61q-56 0 -105.5 -11.5t-93.5 -36t-70 -69.5t-26 -106q0 -98 67.5 -161.5t238.5 -129.5q220 -84 319.5 -182.5t99.5 -261.5q0 -100 -38.5 -177.5t-104.5 -124t-144.5 -71.5t-168.5 -29l-19 -96q32 4 53 4q69 0 118.5 -38.5t49.5 -108.5
q0 -86 -67 -131t-164 -45q-74 0 -127 12l10 92q35 -6 101 -6q122 0 122 70q0 37 -28 52t-84 15q-36 0 -94 -4l24 184q-194 13 -362 89l45 153q189 -94 391 -94q138 0 223.5 62t85.5 180q0 55 -22 99t-71.5 81.5t-107.5 67.5t-149 67q-192 77 -283.5 177t-91.5 243
q0 78 28.5 143.5t75 109t108.5 74t128.5 44.5t134.5 14q206 0 363 -62z" />
    <glyph glyph-name="scedilla" unicode="&#x15f;" 
d="M975 1047l-45 -134q-123 56 -289 56q-43 0 -79.5 -6.5t-72.5 -22t-56.5 -46.5t-20.5 -75q0 -73 53.5 -113t198.5 -90q72 -25 121.5 -46t96.5 -50t74 -61t43.5 -75t16.5 -97q0 -80 -31 -140.5t-84.5 -95t-116.5 -52.5t-137 -22l-18 -96q32 4 53 4q69 0 118.5 -38.5
t49.5 -108.5q0 -86 -67.5 -131t-164.5 -45q-74 0 -126 12l10 92q35 -6 100 -6q123 0 123 70q0 67 -113 67q-36 0 -94 -4l25 184q-197 11 -336 76l47 137q183 -77 350 -77q54 0 95.5 7.5t76 24.5t52.5 49.5t18 79.5q0 71 -66.5 117t-216.5 96q-164 55 -242.5 125.5
t-78.5 188.5q0 79 35 139.5t93.5 95.5t127 52.5t143.5 17.5q210 0 334 -59z" />
    <glyph glyph-name="Scaron" unicode="&#x160;" 
d="M1016 1425l-43 -149q-152 61 -322 61q-56 0 -105.5 -11.5t-93.5 -36t-70 -69.5t-26 -106q0 -98 67.5 -161.5t238.5 -129.5q220 -84 319.5 -182.5t99.5 -261.5q0 -84 -28 -152.5t-75 -114.5t-110.5 -77.5t-133 -45.5t-144.5 -14q-101 0 -217 23.5t-215 67.5l45 153
q189 -94 391 -94q138 0 223.5 62t85.5 180q0 55 -22 99t-71.5 81.5t-107.5 67.5t-149 67q-192 77 -283.5 177t-91.5 243q0 78 28.5 143.5t75 109t108.5 74t128.5 44.5t134.5 14q206 0 363 -62zM317 1845h144l188 -198l187 198h145l-242 -299h-178z" />
    <glyph glyph-name="scaron" unicode="&#x161;" 
d="M975 1047l-45 -134q-123 56 -289 56q-43 0 -79.5 -6.5t-72.5 -22t-56.5 -46.5t-20.5 -75q0 -73 53.5 -113t198.5 -90q72 -25 121.5 -46t96.5 -50t74 -61t43.5 -75t16.5 -97q0 -70 -24 -125t-63.5 -89.5t-94.5 -57t-112.5 -31.5t-121.5 -9q-96 0 -202.5 19.5t-190.5 58.5
l47 137q183 -77 350 -77q54 0 95.5 7.5t76 24.5t52.5 49.5t18 79.5q0 71 -66.5 117t-216.5 96q-164 55 -242.5 125.5t-78.5 188.5q0 79 35 139.5t93.5 95.5t127 52.5t143.5 17.5q210 0 334 -59zM311 1571h144l188 -238l186 238h146l-242 -336h-178z" />
    <glyph glyph-name="uni0162" unicode="&#x162;" 
d="M530 0v1313h-440v149h1049v-149h-430v-1313h-179zM729 -119l-164 -319h-125l97 319h192z" />
    <glyph glyph-name="uni0163" unicode="&#x163;" 
d="M172 944v137h287v334h174v-334h422v-137h-422v-649q0 -102 57 -137t174 -35q154 0 193 4v-127q-82 -12 -242 -12q-356 0 -356 299v657h-287zM756 -119l-164 -319h-125l96 319h193z" />
    <glyph glyph-name="Tcaron" unicode="&#x164;" 
d="M530 0v1313h-440v149h1049v-149h-430v-1313h-179zM291 1845h143l189 -198l186 198h145l-241 -299h-178z" />
    <glyph glyph-name="tcaron" unicode="&#x165;" 
d="M172 944v137h287v334h174v-334h422v-137h-422v-649q0 -102 57 -137t174 -35q154 0 193 4v-127q-82 -12 -242 -12q-356 0 -356 299v657h-287zM993 1573l-80 -336h-106l24 336h162z" />
    <glyph glyph-name="Tbar" unicode="&#x166;" 
d="M530 780h-233v109h233v424h-440v149h1049v-149h-430v-424h231v-109h-231v-780h-179v780z" />
    <glyph glyph-name="tbar" unicode="&#x167;" 
d="M883 610v-98h-250v-217q0 -102 57 -137t174 -35q154 0 193 4v-127q-82 -12 -242 -12q-356 0 -356 299v225h-160v98h160v334h-287v137h287v334h174v-334h422v-137h-422v-334h250z" />
    <glyph glyph-name="Utilde" unicode="&#x168;" 
d="M1112 1462v-1030q0 -207 -127 -332t-371 -125q-241 0 -368 125t-127 332v1030h178v-1011q0 -165 72.5 -245.5t242.5 -80.5q322 0 322 326v1011h178zM637 1755q46 -37 69 -49t48 -12q72 0 82 133h125q-8 -119 -57.5 -189.5t-141.5 -70.5q-49 0 -83 15t-87 56
q-46 37 -70 49.5t-47 12.5q-76 0 -82 -133h-125q8 119 57 189.5t142 70.5q48 0 83.5 -15.5t86.5 -56.5z" />
    <glyph glyph-name="utilde" unicode="&#x169;" 
d="M1057 0h-168v160h-2q-50 -87 -139 -136t-201 -49q-181 0 -284 107t-103 287v712h174v-647q0 -159 56.5 -240t197.5 -81q57 0 108.5 21t94 62t67.5 111.5t25 161.5v612h174v-1081zM647 1450q48 -38 70.5 -51t46.5 -13q72 0 82 134h125q-8 -117 -57.5 -187.5t-141.5 -70.5
q-49 0 -84 14.5t-86 54.5q-47 38 -70.5 51t-46.5 13q-76 0 -82 -133h-124q8 118 57 188t141 70q48 0 83.5 -15t86.5 -55z" />
    <glyph glyph-name="Umacron" unicode="&#x16a;" 
d="M1112 1462v-1030q0 -207 -127 -332t-371 -125q-241 0 -368 125t-127 332v1030h178v-1011q0 -165 72.5 -245.5t242.5 -80.5q322 0 322 326v1011h178zM877 1763v-131h-527v131h527z" />
    <glyph glyph-name="umacron" unicode="&#x16b;" 
d="M1057 0h-168v160h-2q-50 -87 -139 -136t-201 -49q-181 0 -284 107t-103 287v712h174v-647q0 -159 56.5 -240t197.5 -81q57 0 108.5 21t94 62t67.5 111.5t25 161.5v612h174v-1081zM877 1438v-131h-527v131h527z" />
    <glyph glyph-name="Ubreve" unicode="&#x16c;" 
d="M1112 1462v-1030q0 -207 -127 -332t-371 -125q-241 0 -368 125t-127 332v1030h178v-1011q0 -165 72.5 -245.5t242.5 -80.5q322 0 322 326v1011h178zM786 1860h138q-11 -291 -312 -291q-155 0 -229.5 81t-79.5 210h137q2 -82 40 -125t132 -43q92 0 129.5 42t44.5 126z" />
    <glyph glyph-name="ubreve" unicode="&#x16d;" 
d="M1057 0h-168v160h-2q-50 -87 -139 -136t-201 -49q-181 0 -284 107t-103 287v712h174v-647q0 -159 56.5 -240t197.5 -81q57 0 108.5 21t94 62t67.5 111.5t25 161.5v612h174v-1081zM782 1532h138q-11 -291 -312 -291q-155 0 -229.5 81t-79.5 210h137q2 -82 40 -125t132 -43
q92 0 129.5 42t44.5 126z" />
    <glyph glyph-name="Uring" unicode="&#x16e;" 
d="M1112 1462v-1030q0 -207 -127 -332t-371 -125q-241 0 -368 125t-127 332v1030h178v-1011q0 -165 72.5 -245.5t242.5 -80.5q322 0 322 326v1011h178zM618 1942q84 0 144.5 -62.5t60.5 -146.5q0 -86 -60.5 -146.5t-146.5 -60.5q-88 0 -149 60.5t-61 146.5q0 88 61.5 148.5
t150.5 60.5zM614 1855q-51 0 -86.5 -35.5t-35.5 -86.5t36 -87t88 -36q51 0 86 36t35 87q0 52 -36 87t-87 35z" />
    <glyph glyph-name="uring" unicode="&#x16f;" 
d="M1057 0h-168v160h-2q-50 -87 -139 -136t-201 -49q-181 0 -284 107t-103 287v712h174v-647q0 -159 56.5 -240t197.5 -81q57 0 108.5 21t94 62t67.5 111.5t25 161.5v612h174v-1081zM616 1632q84 0 144.5 -61.5t60.5 -145.5q0 -87 -60.5 -147.5t-146.5 -60.5
q-88 0 -149.5 60.5t-61.5 147.5q0 86 62 146.5t151 60.5zM612 1546q-51 0 -87 -35.5t-36 -85.5q0 -53 36.5 -89t88.5 -36q51 0 86 36t35 89q0 51 -36 86t-87 35z" />
    <glyph glyph-name="Uhungarumlaut" unicode="&#x170;" 
d="M1112 1462v-1030q0 -207 -127 -332t-371 -125q-241 0 -368 125t-127 332v1030h178v-1011q0 -165 72.5 -245.5t242.5 -80.5q322 0 322 326v1011h178zM702 1843l-186 -280h-127l121 280h192zM1006 1843l-218 -280h-131l146 280h203z" />
    <glyph glyph-name="uhungarumlaut" unicode="&#x171;" 
d="M1057 0h-168v160h-2q-50 -87 -139 -136t-201 -49q-181 0 -284 107t-103 287v712h174v-647q0 -159 56.5 -240t197.5 -81q57 0 108.5 21t94 62t67.5 111.5t25 161.5v612h174v-1081zM725 1573l-213 -336h-121l148 336h186zM1028 1573l-244 -336h-122l169 336h197z" />
    <glyph glyph-name="Uogonek" unicode="&#x172;" 
d="M1112 1462v-1030q0 -184 -100 -303t-293 -145q-68 -76 -94.5 -126.5t-26.5 -93.5q0 -79 92 -79q63 0 115 28l16 -98q-64 -35 -157 -35q-82 0 -138.5 39.5t-56.5 118.5q0 61 28 116t99 121q-232 4 -354.5 128.5t-122.5 328.5v1030h178v-1011q0 -165 72.5 -245.5
t242.5 -80.5q322 0 322 326v1011h178z" />
    <glyph glyph-name="uogonek" unicode="&#x173;" 
d="M1057 0h-60q-78 -84 -107.5 -136.5t-29.5 -99.5q0 -79 92 -79q63 0 115 28l16 -98q-64 -35 -157 -35q-82 0 -138.5 39.5t-56.5 118.5q0 66 34.5 127t123.5 135v160h-2q-50 -87 -139 -136t-201 -49q-181 0 -284 107t-103 287v712h174v-647q0 -159 56.5 -240t197.5 -81
q57 0 108.5 21t94 62t67.5 111.5t25 161.5v612h174v-1081z" />
    <glyph glyph-name="Wcircumflex" unicode="&#x174;" 
d="M813 0l-195 989h-4l-202 -989h-226l-168 1462h181l116 -1269h4l189 964h221l186 -964h5l120 1269h172l-176 -1462h-223zM948 1548h-143l-189 201l-186 -201h-145l241 299h179z" />
    <glyph glyph-name="wcircumflex" unicode="&#x175;" 
d="M739 948l150 -798h4l135 931h170l-190 -1081h-226l-164 788h-4l-165 -788h-226l-184 1081h178l131 -931h4l152 798h235zM950 1237h-143l-189 238l-186 -238h-145l241 336h179z" />
    <glyph glyph-name="Ycircumflex" unicode="&#x176;" 
d="M522 0v551l-493 911h211l374 -741l381 741h199l-494 -911v-551h-178zM948 1548h-143l-189 201l-186 -201h-145l241 299h179z" />
    <glyph glyph-name="ycircumflex" unicode="&#x177;" 
d="M299 1081l322 -870h4l319 870h184l-589 -1480h-183l170 417l-417 1063h190zM961 1237h-144l-188 238l-187 -238h-145l242 336h178z" />
    <glyph glyph-name="Ydieresis" unicode="&#x178;" 
d="M522 0v551l-493 911h211l374 -741l381 741h199l-494 -911v-551h-178zM522 1810v-192h-176v192h176zM885 1810v-192h-174v192h174z" />
    <glyph glyph-name="Zacute" unicode="&#x179;" 
d="M117 150l780 1163h-725v149h928v-147l-783 -1165h809v-150h-1009v150zM893 1837l-227 -274h-129l159 274h197z" />
    <glyph glyph-name="zacute" unicode="&#x17a;" 
d="M207 125l596 819h-555v137h753v-131l-591 -813h612v-137h-815v125zM907 1573l-248 -336h-124l186 336h186z" />
    <glyph glyph-name="Zdotaccent" unicode="&#x17b;" 
d="M117 150l780 1163h-725v149h928v-147l-783 -1165h809v-150h-1009v150zM745 1806v-200h-200v200h200z" />
    <glyph glyph-name="zdotaccent" unicode="&#x17c;" 
d="M207 125l596 819h-555v137h753v-131l-591 -813h612v-137h-815v125zM737 1481v-201h-200v201h200z" />
    <glyph glyph-name="Zcaron" unicode="&#x17d;" 
d="M117 150l780 1163h-725v149h928v-147l-783 -1165h809v-150h-1009v150zM309 1845h144l188 -198l186 198h146l-242 -299h-178z" />
    <glyph glyph-name="zcaron" unicode="&#x17e;" 
d="M207 125l596 819h-555v137h753v-131l-591 -813h612v-137h-815v125zM303 1571h143l189 -238l186 238h146l-242 -336h-178z" />
    <glyph glyph-name="florin" unicode="&#x192;" 
d="M979 827v-137h-281l-98 -645q-52 -321 -342 -321q-96 0 -174 32l29 144q62 -27 137 -27q86 0 126 47.5t56 153.5l90 616h-258v137h281l53 342q23 139 111 228.5t249 89.5q117 0 185 -35l-47 -143q-57 28 -138 28q-93 0 -136 -54t-58 -155l-47 -301h262z" />
    <glyph glyph-name="Scommaaccent" unicode="&#x218;" 
d="M1016 1425l-43 -149q-152 61 -322 61q-56 0 -105.5 -11.5t-93.5 -36t-70 -69.5t-26 -106q0 -98 67.5 -161.5t238.5 -129.5q220 -84 319.5 -182.5t99.5 -261.5q0 -84 -28 -152.5t-75 -114.5t-110.5 -77.5t-133 -45.5t-144.5 -14q-101 0 -217 23.5t-215 67.5l45 153
q189 -94 391 -94q138 0 223.5 62t85.5 180q0 55 -22 99t-71.5 81.5t-107.5 67.5t-149 67q-192 77 -283.5 177t-91.5 243q0 78 28.5 143.5t75 109t108.5 74t128.5 44.5t134.5 14q206 0 363 -62zM719 -119l-164 -319h-125l96 319h193z" />
    <glyph glyph-name="scommaaccent" unicode="&#x219;" 
d="M975 1047l-45 -134q-123 56 -289 56q-43 0 -79.5 -6.5t-72.5 -22t-56.5 -46.5t-20.5 -75q0 -73 53.5 -113t198.5 -90q72 -25 121.5 -46t96.5 -50t74 -61t43.5 -75t16.5 -97q0 -70 -24 -125t-63.5 -89.5t-94.5 -57t-112.5 -31.5t-121.5 -9q-96 0 -202.5 19.5t-190.5 58.5
l47 137q183 -77 350 -77q54 0 95.5 7.5t76 24.5t52.5 49.5t18 79.5q0 71 -66.5 117t-216.5 96q-164 55 -242.5 125.5t-78.5 188.5q0 79 35 139.5t93.5 95.5t127 52.5t143.5 17.5q210 0 334 -59zM735 -119l-164 -319h-125l97 319h192z" />
    <glyph glyph-name="uni021A" unicode="&#x21a;" 
d="M530 0v1313h-440v149h1049v-149h-430v-1313h-179zM729 -119l-164 -319h-125l97 319h192z" />
    <glyph glyph-name="uni021B" unicode="&#x21b;" 
d="M172 944v137h287v334h174v-334h422v-137h-422v-649q0 -102 57 -137t174 -35q154 0 193 4v-127q-82 -12 -242 -12q-356 0 -356 299v657h-287zM756 -119l-164 -319h-125l96 319h193z" />
    <glyph glyph-name="dotlessj" unicode="&#x237;" 
d="M287 938v143h493v-1116q0 -174 -106 -269t-299 -95q-106 0 -217 18v141q99 -18 202 -18q129 0 187.5 58t58.5 184v954h-319z" />
    <glyph glyph-name="circumflex" unicode="&#x2c6;" 
d="M946 1237h-143l-189 238l-186 -238h-145l241 336h178z" />
    <glyph glyph-name="caron" unicode="&#x2c7;" 
d="M283 1571h143l188 -238l187 238h145l-241 -336h-179z" />
    <glyph glyph-name="uni02C9" unicode="&#x2c9;" 
d="M877 1571v-131h-527v131h527z" />
    <glyph glyph-name="breve" unicode="&#x2d8;" 
d="M786 1532h138q-11 -291 -312 -291q-155 0 -229.5 81t-79.5 210h137q2 -82 40 -125t132 -43q92 0 129.5 42t44.5 126z" />
    <glyph glyph-name="dotaccent" unicode="&#x2d9;" 
d="M715 1481v-201h-201v201h201z" />
    <glyph glyph-name="ring" unicode="&#x2da;" 
d="M618 1632q84 0 144.5 -61.5t60.5 -145.5q0 -87 -60.5 -147.5t-146.5 -60.5q-88 0 -149 60t-61 148q0 86 61.5 146.5t150.5 60.5zM614 1546q-51 0 -86.5 -35.5t-35.5 -85.5q0 -53 36 -89t88 -36q51 0 86 36t35 89q0 51 -36 86t-87 35z" />
    <glyph glyph-name="ogonek" unicode="&#x2db;" 
d="M616 18h107q-89 -93 -122.5 -149.5t-33.5 -104.5q0 -79 92 -79q63 0 115 28l17 -98q-64 -35 -158 -35q-82 0 -138.5 39.5t-56.5 118.5q0 69 38.5 133.5t139.5 146.5z" />
    <glyph glyph-name="tilde" unicode="&#x2dc;" 
d="M637 1450q48 -38 70.5 -51t46.5 -13q72 0 82 134h125q-8 -117 -57.5 -187.5t-141.5 -70.5q-49 0 -84 14.5t-86 54.5q-47 38 -70.5 51t-46.5 13q-76 0 -82 -133h-125q8 117 57.5 187.5t141.5 70.5q48 0 83.5 -15t86.5 -55z" />
    <glyph glyph-name="hungarumlaut" unicode="&#x2dd;" 
d="M629 1573l-213 -336h-121l147 336h187zM932 1573l-244 -336h-123l170 336h197z" />
    <glyph glyph-name="uni0394" unicode="&#x394;" 
d="M1118 0h-1007v150l397 1312h213l397 -1315v-147zM612 1327l-331 -1177h663z" />
    <glyph glyph-name="uni03A9" unicode="&#x3a9;" 
d="M616 1337q-81 0 -146.5 -26.5t-109 -72.5t-72.5 -110t-42 -136t-13 -154q0 -211 66 -331t229 -169v-338h-452v150h315v100q-336 138 -336 588q0 141 37 260t106.5 206t176.5 136t241 49q176 0 303.5 -85t191 -231t63.5 -335q0 -452 -336 -588v-100h315v-150h-453v338
q70 18 123.5 54.5t86 82.5t52.5 107.5t27.5 122.5t7.5 133q0 103 -21.5 190t-65.5 157.5t-119.5 111t-174.5 40.5z" />
    <glyph glyph-name="uni03BC" unicode="&#x3bc;" 
d="M877 170h-3q-44 -94 -127.5 -144.5t-195.5 -50.5q-69 0 -129.5 19.5t-79.5 46.5h-4v-440h-174v1480h174v-647q0 -160 56 -240.5t196 -80.5q121 0 198.5 88.5t77.5 267.5v612h174v-833q0 -74 22 -99.5t73 -25.5q29 0 43 2v-129q-48 -10 -105 -10q-176 0 -196 184z" />
    <glyph glyph-name="pi" unicode="&#x3c0;" 
d="M946 938v-651q0 -99 24.5 -131.5t98.5 -32.5q49 0 72 2v-129q-44 -10 -123 -10q-132 0 -184 66.5t-52 211.5v674h-329l-103 -938h-170l103 938h-248v143h1132v-143h-221z" />
    <glyph glyph-name="Wgrave" unicode="&#x1e80;" 
d="M813 0l-195 989h-4l-202 -989h-226l-168 1462h181l116 -1269h4l189 964h221l186 -964h5l120 1269h172l-176 -1462h-223zM377 1837h196l156 -274h-131z" />
    <glyph glyph-name="wgrave" unicode="&#x1e81;" 
d="M739 948l150 -798h4l135 931h170l-190 -1081h-226l-164 788h-4l-165 -788h-226l-184 1081h178l131 -931h4l152 798h235zM586 1237l-248 336h186l187 -336h-125z" />
    <glyph glyph-name="Wacute" unicode="&#x1e82;" 
d="M813 0l-195 989h-4l-202 -989h-226l-168 1462h181l116 -1269h4l189 964h221l186 -964h5l120 1269h172l-176 -1462h-223zM887 1837l-228 -274h-129l160 274h197z" />
    <glyph glyph-name="wacute" unicode="&#x1e83;" 
d="M739 948l150 -798h4l135 931h170l-190 -1081h-226l-164 788h-4l-165 -788h-226l-184 1081h178l131 -931h4l152 798h235zM911 1573l-247 -336h-125l186 336h186z" />
    <glyph glyph-name="Wdieresis" unicode="&#x1e84;" 
d="M813 0l-195 989h-4l-202 -989h-226l-168 1462h181l116 -1269h4l189 964h221l186 -964h5l120 1269h172l-176 -1462h-223zM520 1810v-192h-176v192h176zM883 1810v-192h-174v192h174z" />
    <glyph glyph-name="wdieresis" unicode="&#x1e85;" 
d="M739 948l150 -798h4l135 931h170l-190 -1081h-226l-164 788h-4l-165 -788h-226l-184 1081h178l131 -931h4l152 798h235zM524 1475v-193h-176v193h176zM887 1475v-193h-174v193h174z" />
    <glyph glyph-name="Ygrave" unicode="&#x1ef2;" 
d="M522 0v551l-493 911h211l374 -741l381 741h199l-494 -911v-551h-178zM381 1837h197l155 -274h-131z" />
    <glyph glyph-name="ygrave" unicode="&#x1ef3;" 
d="M299 1081l322 -870h4l319 870h184l-589 -1480h-183l170 417l-417 1063h190zM573 1237l-247 336h186l186 -336h-125z" />
    <glyph glyph-name="endash" unicode="&#x2013;" 
d="M1071 674v-119h-913v119h913z" />
    <glyph glyph-name="emdash" unicode="&#x2014;" 
d="M1194 674v-119h-1159v119h1159z" />
    <glyph glyph-name="quoteleft" unicode="&#x2018;" 
d="M778 1505l-92 -454h-235l170 454h157z" />
    <glyph glyph-name="quoteright" unicode="&#x2019;" 
d="M451 1049l92 456h235l-170 -456h-157z" />
    <glyph glyph-name="quotesinglbase" unicode="&#x201a;" 
d="M451 -283l92 455h235l-172 -455h-155z" />
    <glyph glyph-name="quotedblleft" unicode="&#x201c;" 
d="M932 1505l-94 -456h-205l164 456h135zM604 1505l-102 -456h-205l172 456h135z" />
    <glyph glyph-name="quotedblright" unicode="&#x201d;" 
d="M297 1049l94 456h205l-164 -456h-135zM625 1049l102 456h205l-172 -456h-135z" />
    <glyph glyph-name="quotedblbase" unicode="&#x201e;" 
d="M297 -283l94 457h205l-164 -457h-135zM625 -283l102 457h205l-172 -457h-135z" />
    <glyph glyph-name="dagger" unicode="&#x2020;" 
d="M698 1368v-389h387v-152h-387v-1085h-163v1085h-390v152h390v389h163z" />
    <glyph glyph-name="daggerdbl" unicode="&#x2021;" 
d="M696 1368v-367h371v-151h-371v-592h371v-152h-371v-364h-164v364h-372v152h372v592h-372v151h372v367h164z" />
    <glyph glyph-name="bullet" unicode="&#x2022;" 
d="M276 674q0 140 98.5 239t237.5 99q141 0 239.5 -99t98.5 -239t-98.5 -238t-239.5 -98q-140 0 -238 98t-98 238z" />
    <glyph glyph-name="ellipsis" unicode="&#x2026;" 
d="M104 0v207h207v-207h-207zM512 0v207h207v-207h-207zM920 0v207h206v-207h-206z" />
    <glyph glyph-name="perthousand" unicode="&#x2030;" 
d="M797 1462l-666 -1462h-96l670 1462h92zM416 1159q0 -299 -176 -299q-174 0 -174 299t174 299q176 0 176 -299zM307 1159q0 103 -13 151t-54 48q-38 0 -51 -48.5t-13 -150.5q0 -100 13 -149t51 -49q21 0 35 13.5t20.5 42t9 60.5t2.5 82zM754 279q0 -299 -176 -299
q-175 0 -175 299t175 299q176 0 176 -299zM645 279q0 103 -13 150.5t-54 47.5q-38 0 -51 -48t-13 -150q0 -101 13 -150t51 -49q21 0 35 13.5t20.5 42t9 61t2.5 82.5zM1163 279q0 -299 -176 -299q-174 0 -174 299t174 299q176 0 176 -299zM1055 279q0 102 -13.5 150t-54.5 48
q-38 0 -50.5 -48t-12.5 -150q0 -101 12.5 -150t50.5 -49q41 0 54.5 49t13.5 150z" />
    <glyph glyph-name="guilsinglleft" unicode="&#x2039;" 
d="M856 999l-328 -389l328 -391h-160l-325 385v10l331 385h154z" />
    <glyph glyph-name="guilsinglright" unicode="&#x203a;" 
d="M371 219l327 391l-327 389h159l326 -385v-10l-334 -385h-151z" />
    <glyph glyph-name="fraction" unicode="&#x2044;" 
d="M1069 1462l-807 -1462h-102l807 1462h102z" />
    <glyph glyph-name="zero.superior" unicode="&#x2070;" 
d="M612 1769q159 0 242.5 -124t83.5 -334q0 -208 -83.5 -328.5t-242.5 -120.5q-160 0 -241.5 120t-81.5 329q0 211 82 334.5t241 123.5zM612 1653q-61 0 -101.5 -48t-57.5 -122t-17 -172q0 -150 43 -241t133 -91q87 0 131.5 92t44.5 240q0 149 -45 245.5t-131 96.5z" />
    <glyph glyph-name="four.superior" unicode="&#x2074;" 
d="M827 1755v-561h115v-123h-115v-194h-141v194h-399v139l350 545h190zM686 1194v428h-4l-264 -428h268z" />
    <glyph glyph-name="five.superior" unicode="&#x2075;" 
d="M760 1147q0 87 -57 124.5t-142 37.5t-194 -25l22 471h475v-121h-342l-12 -219q36 10 106 10q128 0 209.5 -73t81.5 -199q0 -142 -91 -216.5t-232 -74.5q-153 0 -260 51l36 115q102 -45 207 -45q86 0 139.5 40t53.5 124z" />
    <glyph glyph-name="six.superior" unicode="&#x2076;" 
d="M449 1366h4q32 41 86.5 65.5t111.5 24.5q132 0 206.5 -80t74.5 -211q0 -133 -85 -218t-220 -85q-74 0 -132.5 26.5t-94.5 67.5t-59.5 97t-32.5 109.5t-9 109.5q0 145 38.5 254.5t123.5 176t209 66.5q102 0 172 -28l-27 -117q-61 27 -141 27q-55 0 -97.5 -23.5
t-68.5 -64.5t-40.5 -90t-18.5 -107zM453 1186q0 -80 45.5 -142.5t124.5 -62.5q74 0 117.5 51.5t43.5 132.5q0 76 -41 126t-114 50q-77 0 -126.5 -46.5t-49.5 -108.5z" />
    <glyph glyph-name="seven.superior" unicode="&#x2077;" 
d="M336 1634v121h559v-113q-239 -413 -270 -765h-150q27 312 275 757h-414z" />
    <glyph glyph-name="eight.superior" unicode="&#x2078;" 
d="M616 1270q-66 0 -119 -38t-53 -108q0 -69 47.5 -106t124.5 -37t124.5 37t47.5 106t-53.5 107.5t-118.5 38.5zM612 1769q123 0 210 -61.5t87 -171.5q0 -74 -40 -124t-109 -71v-4q176 -63 176 -229q0 -118 -90.5 -182t-229.5 -64q-141 0 -231 64t-90 182q0 87 51 141.5
t127 77.5v4q-70 24 -110.5 77t-40.5 128q0 111 83 172t207 61zM616 1386q62 0 105 37.5t43 104.5q0 55 -42 90t-108 35t-106.5 -34.5t-40.5 -90.5q0 -67 43 -104.5t106 -37.5z" />
    <glyph glyph-name="nine.superior" unicode="&#x2079;" 
d="M780 1264h-2q-34 -41 -88.5 -65.5t-111.5 -24.5q-131 0 -206 79.5t-75 208.5q0 134 85.5 219.5t219.5 85.5q75 0 133.5 -26t94.5 -67.5t59 -97t32 -109.5t9 -111q0 -107 -22.5 -195.5t-66.5 -156.5t-115.5 -106t-164.5 -38q-101 0 -174 29l27 117q62 -27 141 -27
q55 0 97.5 23.5t68.5 64.5t40.5 90t18.5 107zM778 1444q0 80 -45.5 142.5t-126.5 62.5q-73 0 -117.5 -52.5t-44.5 -134.5q0 -74 41.5 -124t114.5 -50q77 0 127.5 47t50.5 109z" />
    <glyph glyph-name="zero.inferior" unicode="&#x2080;" 
d="M612 606q159 0 242.5 -124.5t83.5 -334.5q0 -208 -83.5 -328t-242.5 -120q-160 0 -241.5 119.5t-81.5 328.5q0 211 82 335t241 124zM612 489q-61 0 -101.5 -48t-57.5 -122t-17 -172q0 -150 43 -240.5t133 -90.5q87 0 131.5 92t44.5 239q0 149 -45 245.5t-131 96.5z" />
    <glyph glyph-name="one.inferior" unicode="&#x2081;" 
d="M383 -170h195v621l-179 -109l-53 107l236 143h143v-762h178v-117h-520v117z" />
    <glyph glyph-name="two.inferior" unicode="&#x2082;" 
d="M899 -164v-123h-569v135q169 148 254 236t118 147t33 119q0 62 -37.5 97.5t-103.5 35.5q-104 0 -203 -69l-53 106q117 86 264 86q131 0 206 -66.5t75 -187.5q0 -35 -7.5 -67.5t-18.5 -61t-37.5 -63.5t-51 -63.5t-73 -75t-89 -83t-112.5 -100.5v-2h405z" />
    <glyph glyph-name="three.inferior" unicode="&#x2083;" 
d="M442 106v115h107q88 0 139 36.5t51 102.5q0 59 -42.5 93t-110.5 34q-101 0 -201 -53l-39 117q110 55 252 55q125 0 207 -58t82 -169q0 -75 -42 -128.5t-124 -76.5v-4q87 -19 137.5 -75.5t50.5 -131.5q0 -129 -90.5 -196.5t-230.5 -67.5q-157 0 -271 57l45 119
q97 -53 222 -53q81 0 128.5 35.5t47.5 107.5q0 74 -58.5 107.5t-152.5 33.5h-107z" />
    <glyph glyph-name="four.inferior" unicode="&#x2084;" 
d="M827 592v-561h115v-123h-115v-195h-141v195h-399v139l350 545h190zM686 31v428h-4l-264 -428h268z" />
    <glyph glyph-name="five.inferior" unicode="&#x2085;" 
d="M760 -16q0 87 -56.5 124t-142.5 37q-89 0 -194 -24l22 471h475v-121h-342l-12 -219q36 10 106 10q128 0 209.5 -73t81.5 -199q0 -142 -91 -216.5t-232 -74.5q-153 0 -260 51l36 115q102 -45 207 -45q86 0 139.5 40t53.5 124z" />
    <glyph glyph-name="six.inferior" unicode="&#x2086;" 
d="M449 203h4q32 41 86.5 65.5t111.5 24.5q132 0 206.5 -80t74.5 -211q0 -132 -85 -217.5t-220 -85.5q-74 0 -132.5 26.5t-94.5 67.5t-59.5 97t-32.5 109.5t-9 109.5q0 145 38.5 254.5t123.5 176t209 66.5q102 0 172 -28l-27 -117q-59 26 -141 26q-72 0 -123 -41.5t-74 -103
t-28 -139.5zM453 23q0 -80 45.5 -142.5t124.5 -62.5q74 0 117.5 51.5t43.5 132.5q0 76 -41 126t-114 50q-77 0 -126.5 -46.5t-49.5 -108.5z" />
    <glyph glyph-name="seven.inferior" unicode="&#x2087;" 
d="M336 471v121h559v-113q-239 -413 -270 -766h-150q27 313 275 758h-414z" />
    <glyph glyph-name="eight.inferior" unicode="&#x2088;" 
d="M616 106q-66 0 -119 -38t-53 -107t47.5 -106t124.5 -37t124.5 37t47.5 106t-53.5 107t-118.5 38zM612 606q123 0 210 -61.5t87 -171.5q0 -74 -40 -124t-109 -71v-4q176 -63 176 -229q0 -118 -90.5 -182t-229.5 -64q-141 0 -231 64t-90 182q0 87 51 141.5t127 77.5v4
q-70 24 -110.5 77t-40.5 128q0 111 83 172t207 61zM616 223q62 0 105 37.5t43 104.5q0 55 -42 89.5t-108 34.5t-106.5 -34t-40.5 -90q0 -67 43 -104.5t106 -37.5z" />
    <glyph glyph-name="nine.inferior" unicode="&#x2089;" 
d="M780 100h-2q-34 -41 -88.5 -65.5t-111.5 -24.5q-131 0 -206 80t-75 209q0 133 85.5 219t219.5 86q75 0 133.5 -26t94.5 -67.5t59 -97t32 -109.5t9 -111q0 -107 -22.5 -195.5t-66.5 -156.5t-115.5 -106t-164.5 -38q-101 0 -174 29l27 116q59 -26 141 -26q72 0 123 41.5
t74 103t28 139.5zM778 281q0 80 -45.5 142t-126.5 62q-73 0 -117.5 -52t-44.5 -134q0 -74 41.5 -124t114.5 -50q77 0 127.5 47t50.5 109z" />
    <glyph glyph-name="Euro" unicode="&#x20ac;" 
d="M1098 143l26 -143q-97 -25 -198 -25q-275 0 -449 151t-221 411h-184l37 120h133q-2 23 -2 70q0 39 4 113h-174l36 121h158q54 245 225.5 385.5t448.5 140.5q91 0 178 -19l-26 -147q-75 16 -148 16q-204 0 -326.5 -100t-169.5 -276h578l-35 -121h-565q-6 -55 -6 -115
q0 -45 2 -68h536l-34 -120h-486q42 -187 168 -299.5t332 -112.5q88 0 162 18z" />
    <glyph glyph-name="afii61248" unicode="&#x2105;" 
d="M1163 315q0 -168 -70 -254t-188 -86q-117 0 -186.5 86t-69.5 254t69 254t187 86q120 0 189 -86t69 -254zM1036 315q0 232 -131 232q-129 0 -129 -232q0 -113 34.5 -172t94.5 -59q131 0 131 231zM477 1458l-22 -108q-48 26 -111 26q-70 0 -110.5 -59t-40.5 -174
q0 -112 40.5 -171t110.5 -59q57 0 115 27l16 -111q-59 -24 -137 -24q-127 0 -199.5 87.5t-72.5 250.5t77 252.5t199 89.5q82 0 135 -27zM1059 1462l-807 -1462h-102l806 1462h103z" />
    <glyph glyph-name="afii61289" unicode="&#x2113;" 
d="M420 711q0 132 5.5 234t19 194.5t36.5 157.5t58 113t84.5 71.5t113.5 23.5q61 0 106 -26t70.5 -73t37.5 -104t12 -126q0 -260 -92 -456t-269 -310q4 -150 61 -218.5t164 -68.5t189 33l2 -136q-88 -32 -221 -32q-167 0 -256.5 84.5t-104.5 263.5q-95 -40 -227 -49v137
q137 12 215 47q-4 140 -4 240zM594 713v-150q207 181 207 617q0 194 -78 194q-70 0 -99.5 -171.5t-29.5 -489.5z" />
    <glyph glyph-name="trademark" unicode="&#x2122;" 
d="M455 1462v-102h-150v-682h-123v682h-153v102h426zM1196 1462v-784h-113v659h-4l-137 -659h-133l-135 659h-4v-659h-115v784h197l125 -628h4l125 628h190z" />
    <glyph glyph-name="Omega" unicode="&#x2126;" 
d="M616 1337q-81 0 -146.5 -26.5t-109 -72.5t-72.5 -110t-42 -136t-13 -154q0 -211 66 -331t229 -169v-338h-452v150h315v100q-336 138 -336 588q0 141 37 260t106.5 206t176.5 136t241 49q176 0 303.5 -85t191 -231t63.5 -335q0 -452 -336 -588v-100h315v-150h-453v338
q70 18 123.5 54.5t86 82.5t52.5 107.5t27.5 122.5t7.5 133q0 103 -21.5 190t-65.5 157.5t-119.5 111t-174.5 40.5z" />
    <glyph glyph-name="estimated" unicode="&#x212e;" 
d="M985 197h100q-41 -48 -84.5 -84t-102.5 -68.5t-135.5 -50t-166.5 -17.5q-110 0 -210.5 36.5t-178 103t-123 167.5t-45.5 222q0 154 82.5 280t217.5 194.5t292 68.5q137 0 248 -47t178.5 -124.5t103 -171t35.5 -192.5v-4h-909l-15 -16v-340q134 -123 334 -123
q231 0 379 166zM950 561l13 14v306q-70 66 -151.5 90t-180.5 24q-221 0 -359 -129v-291l15 -14h663z" />
    <glyph glyph-name="partialdiff" unicode="&#x2202;" 
d="M897 874q-41 122 -138.5 230.5t-217 182.5t-250.5 116l104 102q341 -122 531 -375.5t190 -605.5q0 -245 -139.5 -397t-364.5 -152q-220 0 -357.5 140t-137.5 370q0 227 130.5 367.5t340.5 140.5q89 0 168.5 -30.5t134.5 -88.5h6zM618 870q-151 0 -239 -104t-88 -281
q0 -172 90 -272t237 -100q146 0 236 104.5t90 282.5q0 172 -93 271t-233 99z" />
    <glyph glyph-name="Delta" unicode="&#x2206;" 
d="M1118 0h-1007v150l397 1312h213l397 -1315v-147zM612 1327l-331 -1177h663z" />
    <glyph glyph-name="product" unicode="&#x220f;" 
d="M1098 1462v-1861h-176v1712h-613v-1712h-178v1861h967z" />
    <glyph glyph-name="summation" unicode="&#x2211;" 
d="M795 559l-486 -811h781v-147h-963v147l475 801l-457 762v151h918v-149h-719z" />
    <glyph glyph-name="minus" unicode="&#x2212;" 
d="M1092 582h-955v127h955v-127z" />
    <glyph glyph-name="uni2215" unicode="&#x2215;" 
d="M1069 1462l-807 -1462h-102l807 1462h102z" />
    <glyph glyph-name="uni2219" unicode="&#x2219;" 
d="M471 465v309h289v-309h-289z" />
    <glyph glyph-name="radical" unicode="&#x221a;" 
d="M449 461l194 -719h4l383 1720h152l-445 -1861h-180l-223 733h-262v127h377z" />
    <glyph glyph-name="infinity" unicode="&#x221e;" 
d="M336 164q-132 0 -211.5 94t-79.5 248q0 149 80.5 241.5t214.5 92.5q196 0 291 -213q89 213 264 213q128 0 208.5 -92t80.5 -250q0 -153 -81.5 -243.5t-213.5 -90.5q-197 0 -291 213q-39 -102 -109 -157.5t-153 -55.5zM889 295q68 0 109.5 55t41.5 154q0 91 -42 148
t-113 57q-75 0 -123.5 -53t-83.5 -146q48 -121 99 -168t112 -47zM342 709q-71 0 -112.5 -57.5t-41.5 -151.5q0 -91 43 -148t115 -57q135 0 205 199q-48 119 -96.5 167t-112.5 48z" />
    <glyph glyph-name="integral" unicode="&#x222b;" 
d="M522 -63v1175q0 163 73 256.5t220 93.5q81 0 137 -18l-18 -148q-43 19 -94 19q-79 0 -111.5 -52.5t-32.5 -156.5v-1174q0 -161 -76.5 -246t-226.5 -85q-67 0 -119 14l15 149q46 -16 90 -16q80 0 111.5 43.5t31.5 145.5z" />
    <glyph glyph-name="approxequal" unicode="&#x2248;" 
d="M856 829q148 6 236 101v-142q-47 -42 -116.5 -65t-146.5 -23q-64 0 -127 20t-106 43.5t-101 43.5t-112 20q-77 0 -141 -28t-105 -72v141q94 88 262 88q65 0 128.5 -20t107 -43.5t103.5 -43.5t118 -20zM856 440q148 6 236 101v-142q-47 -42 -116.5 -65t-146.5 -23
q-64 0 -127 20t-106 43.5t-101 43.5t-112 20q-77 0 -141 -28t-105 -72v141q94 88 262 88q65 0 128.5 -20t107 -43.5t103.5 -43.5t118 -20z" />
    <glyph glyph-name="notequal" unicode="&#x2260;" 
d="M1092 776h-334l-135 -260h469v-127h-537l-156 -299h-149l156 299h-269v127h338l137 260h-475v127h541l160 301h145l-158 -301h267v-127z" />
    <glyph glyph-name="lessequal" unicode="&#x2264;" 
d="M1092 360l-955 297v183l955 299v-135l-830 -252v-4l830 -254v-134zM1092 158h-955v127h955v-127z" />
    <glyph glyph-name="greaterequal" unicode="&#x2265;" 
d="M1092 657l-955 -297v134l828 254v4l-828 252v135l955 -299v-183zM1092 158h-955v127h955v-127z" />
    <glyph glyph-name="lozenge" unicode="&#x25ca;" 
d="M1038 664l-346 -664h-151l-351 664l349 663h151zM612 1206l-270 -542l272 -543h4l269 541l-269 544h-6z" />
    <glyph glyph-name="f_i" unicode="&#xf001;" horiz-adv-x="2457" 
d="M1200 1475l-8 -136q-110 29 -266 29q-121 0 -190.5 -54.5t-69.5 -170.5v-62h323v-137h-323v-944h-174v944h-316v137h316v84q0 157 116 248.5t314 91.5q156 0 278 -30zM1536 938v143h434v-938h293v-143h-762v143h295v795h-260zM1743 1489h227v-182h-227v182z" />
    <glyph glyph-name="f_l" unicode="&#xf002;" horiz-adv-x="2457" 
d="M1200 1475l-8 -136q-110 29 -266 29q-121 0 -190.5 -54.5t-69.5 -170.5v-62h323v-137h-323v-944h-174v944h-316v137h316v84q0 157 116 248.5t314 91.5q156 0 278 -30zM1479 1362v143h450v-1210q0 -105 41 -138.5t150 -33.5q74 0 145 12v-127q-81 -20 -184 -20
q-94 0 -158 19t-100.5 58.5t-52 93t-15.5 128.5v1075h-276z" />
    <glyph glyph-name="uniF8FF" unicode="&#xf8ff;" 
d="M659 240h-114v137h114v-137zM645 479h-94l-4 35q0 115 26 166q28 54 95 121q63 60 82.5 94.5t19.5 75.5q0 73 -46 123.5t-110 50.5q-67 0 -112 -47.5t-56 -147.5l-102 17q13 141 87 210.5t190 69.5q110 0 181.5 -74t71.5 -194q0 -69 -27 -123t-102 -123q-77 -68 -88 -106
q-12 -41 -12 -148zM193 102h843v1264h-843v-1264zM90 1470h1049v-1470h-1049v1470z" />
    <glyph glyph-name="commaaccent" 
d="M758 -119l-164 -319h-125l96 319h193z" />
    <glyph glyph-name="zero.denominator" 
d="M614 715q128 0 194 -99t66 -268q0 -168 -65.5 -264t-194.5 -96q-130 0 -195 96t-65 264q0 169 65.5 268t194.5 99zM614 616q-72 0 -105.5 -74.5t-33.5 -193.5t33.5 -190.5t105.5 -71.5q69 0 103.5 72.5t34.5 189.5t-35 192.5t-103 75.5z" />
    <glyph glyph-name="one.denominator" 
d="M432 98h154v484l-140 -84l-45 90l191 114h117v-604h141v-98h-418v98z" />
    <glyph glyph-name="two.denominator" 
d="M844 102v-102h-457v111q194 168 258 249t64 148q0 46 -29.5 75t-79.5 29q-79 0 -162 -57l-45 90q96 70 213 70q105 0 165 -54t60 -153q0 -62 -31.5 -119.5t-90.5 -117.5t-183 -169h318z" />
    <glyph glyph-name="three.denominator" 
d="M479 311v97h86q69 0 109.5 28t40.5 80q0 46 -33.5 73t-87.5 27q-77 0 -160 -45l-33 99q92 45 203 45q100 0 167 -48t67 -137q0 -124 -131 -161v-2q72 -14 109.5 -59.5t37.5 -106.5q0 -104 -73 -158.5t-185 -54.5q-121 0 -217 47l37 98q82 -43 178 -43q63 0 100 27.5
t37 85.5q0 57 -46 82.5t-120 25.5h-86z" />
    <glyph glyph-name="four.denominator" 
d="M786 702v-446h91v-100h-91v-156h-116v156h-316v112l279 434h153zM670 256v336h-2l-205 -336h207z" />
    <glyph glyph-name="five.denominator" 
d="M733 217q0 67 -44.5 97t-110.5 30q-73 0 -158 -20l18 378h381v-100h-270l-10 -170q31 8 82 8q102 0 167.5 -58.5t65.5 -160.5q0 -113 -73.5 -173t-184.5 -60q-122 0 -211 43l31 96q85 -37 166 -37q68 0 109.5 31t41.5 96z" />
    <glyph glyph-name="six.denominator" 
d="M483 393q26 33 70 52.5t90 19.5q105 0 165 -64.5t60 -169.5q0 -106 -68.5 -174.5t-176.5 -68.5q-60 0 -106.5 20t-75.5 51.5t-48 75.5t-26 88t-7 92q0 179 75 289.5t222 110.5q74 0 140 -25l-23 -96q-52 22 -112 22q-83 0 -127.5 -63.5t-51.5 -159.5zM489 248
q0 -64 34 -113t98 -49q60 0 93.5 40t33.5 105q0 60 -32.5 99t-90.5 39q-61 0 -98.5 -36t-37.5 -85z" />
    <glyph glyph-name="seven.denominator" 
d="M391 602v100h449v-92q-194 -339 -217 -610h-125q22 261 219 602h-326z" />
    <glyph glyph-name="eight.denominator" 
d="M614 313q-52 0 -93.5 -29.5t-41.5 -84.5t37.5 -84t97.5 -29q61 0 98.5 29t37.5 84t-42.5 84.5t-93.5 29.5zM612 715q98 0 168 -50.5t70 -138.5q0 -60 -32 -99.5t-87 -55.5v-2q139 -47 139 -183q0 -94 -72.5 -146t-183.5 -52q-112 0 -184 51.5t-72 146.5q0 68 40.5 112.5
t101.5 63.5v3q-121 41 -121 161q0 89 67 139t166 50zM614 410q49 0 83 28.5t34 81.5q0 43 -33 69.5t-86 26.5q-51 0 -82.5 -26.5t-31.5 -69.5q0 -53 33.5 -81.5t82.5 -28.5z" />
    <glyph glyph-name="nine.denominator" 
d="M745 309q-26 -33 -69 -52t-90 -19q-105 0 -165.5 64t-60.5 169q0 106 69 175t177 69q74 0 127.5 -29.5t81.5 -79.5t40.5 -104t12.5 -115q0 -178 -75 -288.5t-222 -110.5q-76 0 -139 24l23 97q54 -23 112 -23q83 0 127 63.5t51 159.5zM739 455q0 64 -33.5 112.5
t-97.5 48.5q-60 0 -93.5 -40t-33.5 -105q0 -59 32.5 -98t90.5 -39q61 0 98 36t37 85z" />
    <glyph glyph-name="zero.numerator" 
d="M614 1481q128 0 194 -99t66 -268q0 -168 -65.5 -264t-194.5 -96q-130 0 -195 96t-65 264q0 169 65.5 268t194.5 99zM614 1382q-72 0 -105.5 -74.5t-33.5 -193.5t33.5 -190.5t105.5 -71.5q69 0 103.5 72.5t34.5 189.5t-35 192.5t-103 75.5z" />
    <glyph glyph-name="one.numerator" 
d="M432 864h154v484l-140 -84l-45 90l191 114h117v-604h141v-98h-418v98z" />
    <glyph glyph-name="two.numerator" 
d="M844 868v-102h-457v111q194 168 258 249t64 148q0 46 -29.5 75t-79.5 29q-79 0 -162 -57l-45 90q96 70 213 70q105 0 165 -54t60 -153q0 -62 -31.5 -119.5t-90.5 -117.5t-183 -169h318z" />
    <glyph glyph-name="three.numerator" 
d="M479 1077v97h86q69 0 109.5 28t40.5 80q0 46 -33.5 73t-87.5 27q-77 0 -160 -45l-33 99q92 45 203 45q100 0 167 -48t67 -137q0 -124 -131 -161v-2q72 -14 109.5 -59.5t37.5 -106.5q0 -104 -73 -158.5t-185 -54.5q-121 0 -217 47l37 98q82 -43 178 -43q63 0 100 27.5
t37 85.5q0 57 -46 82.5t-120 25.5h-86z" />
    <glyph glyph-name="four.numerator" 
d="M786 1468v-446h91v-100h-91v-156h-116v156h-316v112l279 434h153zM670 1022v336h-2l-205 -336h207z" />
    <glyph glyph-name="five.numerator" 
d="M733 983q0 67 -44.5 97t-110.5 30q-73 0 -158 -20l18 378h381v-100h-270l-10 -170q31 8 82 8q102 0 167.5 -58.5t65.5 -160.5q0 -113 -73.5 -173t-184.5 -60q-122 0 -211 43l31 96q85 -37 166 -37q68 0 109.5 31t41.5 96z" />
    <glyph glyph-name="six.numerator" 
d="M483 1159q26 33 70 52.5t90 19.5q105 0 165 -64.5t60 -169.5q0 -106 -68.5 -174.5t-176.5 -68.5q-60 0 -106.5 20t-75.5 51.5t-48 75.5t-26 88t-7 92q0 179 75 289.5t222 110.5q74 0 140 -25l-23 -96q-52 22 -112 22q-83 0 -127.5 -63.5t-51.5 -159.5zM489 1014
q0 -64 34 -113t98 -49q60 0 93.5 40t33.5 105q0 60 -32.5 99t-90.5 39q-61 0 -98.5 -36t-37.5 -85z" />
    <glyph glyph-name="seven.numerator" 
d="M391 1368v100h449v-92q-194 -339 -217 -610h-125q22 261 219 602h-326z" />
    <glyph glyph-name="eight.numerator" 
d="M614 1079q-52 0 -93.5 -29.5t-41.5 -84.5t37.5 -84t97.5 -29q61 0 98.5 29t37.5 84t-42.5 84.5t-93.5 29.5zM612 1481q98 0 168 -50.5t70 -138.5q0 -60 -32 -99.5t-87 -55.5v-2q139 -47 139 -183q0 -94 -72.5 -146t-183.5 -52q-112 0 -184 51.5t-72 146.5
q0 68 40.5 112.5t101.5 63.5v2q-121 41 -121 162q0 89 67 139t166 50zM614 1176q49 0 83 28.5t34 81.5q0 43 -33 69.5t-86 26.5q-51 0 -82.5 -26.5t-31.5 -69.5q0 -53 33.5 -81.5t82.5 -28.5z" />
    <glyph glyph-name="nine.numerator" 
d="M745 1075q-26 -33 -69 -52t-90 -19q-105 0 -165.5 64t-60.5 169q0 106 69 175t177 69q74 0 127.5 -29.5t81.5 -79.5t40.5 -104t12.5 -115q0 -178 -75 -288.5t-222 -110.5q-76 0 -139 24l23 96q52 -22 112 -22q83 0 127 63.5t51 159.5zM739 1221q0 64 -33.5 112.5
t-97.5 48.5q-60 0 -93.5 -40t-33.5 -105q0 -59 32.5 -98t90.5 -39q61 0 98 36t37 85z" />
    <glyph glyph-name="acute.cap" 
d="M793 1837l-228 -274h-129l160 274h197z" />
    <glyph glyph-name="breve.cap" 
d="M786 1860h138q-11 -291 -312 -291q-155 0 -229.5 81t-79.5 210h137q2 -82 40 -125t132 -43q92 0 129.5 42t44.5 126z" />
    <glyph glyph-name="caron.alt" 
d="M707 1573l-80 -336h-107l25 336h162z" />
    <glyph glyph-name="caron.cap" 
d="M283 1845h143l188 -198l187 198h145l-241 -299h-179z" />
    <glyph glyph-name="circumflex.cap" 
d="M946 1548h-143l-189 201l-186 -201h-145l241 299h178z" />
    <glyph glyph-name="commaaccent.alt" 
d="M467 1237l168 336h125l-101 -336h-192z" />
    <glyph glyph-name="dieresis.cap" 
d="M520 1810v-192h-176v192h176zM883 1810v-192h-174v192h174z" />
    <glyph glyph-name="dotaccent.cap" 
d="M715 1806v-200h-201v200h201z" />
    <glyph glyph-name="grave.cap" 
d="M438 1837h197l156 -274h-132z" />
    <glyph glyph-name="hungarumlaut.cap" 
d="M618 1843l-186 -280h-127l121 280h192zM922 1843l-217 -280h-132l146 280h203z" />
    <glyph glyph-name="macron.cap" 
d="M877 1763v-131h-527v131h527z" />
    <glyph glyph-name="ring.cap" 
d="M618 1942q84 0 144.5 -62.5t60.5 -146.5q0 -86 -60.5 -146.5t-146.5 -60.5q-88 0 -149 60.5t-61 146.5q0 88 61.5 148.5t150.5 60.5zM614 1855q-51 0 -86.5 -35.5t-35.5 -86.5t36 -87t88 -36q51 0 86 36t35 87q0 52 -36 87t-87 35z" />
    <glyph glyph-name="tilde.cap" 
d="M637 1755q46 -37 69 -49t48 -12q72 0 82 133h125q-8 -119 -57.5 -189.5t-141.5 -70.5q-49 0 -83 15t-87 56q-46 37 -70 49.5t-47 12.5q-76 0 -82 -133h-125q8 119 57 189.5t142 70.5q48 0 83.5 -15.5t86.5 -56.5z" />
    <glyph glyph-name="colon.cap" 
d="M471 190v310h289v-310h-289zM471 963v309h289v-309h-289z" />
    <glyph glyph-name="registered.alt1" 
d="M141 727q0 -178 53 -320.5t163 -229.5t261 -87q112 0 202 50t147 137.5t87.5 202t30.5 247.5q0 134 -30.5 250.5t-87.5 205.5t-147 140t-202 51q-114 0 -206 -51t-150.5 -140t-89.5 -205.5t-31 -250.5zM20 727q0 212 69.5 381.5t207 271t321.5 101.5q137 0 249.5 -58.5
t186.5 -161t114 -239.5t40 -295q0 -156 -40 -291.5t-114 -236.5t-186.5 -159t-249.5 -58q-111 0 -207 37.5t-167.5 105.5t-122 161t-76 205t-25.5 236zM365 291v885h260q53 0 98 -12.5t82.5 -39t58.5 -75.5t21 -115q0 -78 -32.5 -133t-92.5 -78v-4q34 -15 54 -49t40 -113
l68 -266h-152l-53 231q-19 78 -47 105.5t-107 27.5h-61v-364h-137zM502 1053v-281h82q85 0 124.5 35.5t39.5 114.5q0 76 -42.5 103.5t-119.5 27.5h-84z" />
    <glyph glyph-name="zero.slash" 
d="M616 1487q123 0 215.5 -54.5t150 -156t86 -239.5t28.5 -312q0 -173 -28.5 -309.5t-86 -235.5t-150 -152t-215.5 -53q-125 0 -218 52.5t-150.5 152.5t-85 235.5t-27.5 309.5q0 175 28 312.5t85 239.5t150 156t218 54zM616 1339q-84 0 -144 -43t-94.5 -126t-50.5 -192
t-16 -253q0 -219 33 -340l504 793q-74 161 -232 161zM920 725q0 204 -33 336l-504 -789q76 -149 233 -149q160 0 232 156t72 446z" />
    <glyph glyph-name="hyphen.cap" 
d="M317 684v141h596v-141h-596z" />
    <glyph glyph-name="endash.cap" 
d="M1071 813v-119h-913v119h913z" />
    <glyph glyph-name="emdash.cap" 
d="M1194 813v-119h-1159v119h1159z" />
    <glyph glyph-name="cyrbreve" 
d="M614 1241q-300 0 -311 291h137q7 -84 44.5 -126t129.5 -42t129.5 42t44.5 126h138q-11 -291 -312 -291z" />
    <glyph glyph-name="cyrbreve.cap" 
d="M614 1569q-300 0 -311 291h137q7 -84 44.5 -126t129.5 -42t129.5 42t44.5 126h138q-11 -291 -312 -291z" />
  </font>
</defs>
</svg>
